<?xml version="1.0" encoding="utf-8"?>
<!-- Generator: Adobe Illustrator 16.0.0, SVG Export Plug-In . SVG Version: 6.00 Build 0)  -->
<!DOCTYPE svg PUBLIC "-//W3C//DTD SVG 1.0//EN" "http://www.w3.org/TR/2001/REC-SVG-20010904/DTD/svg10.dtd">
<svg version="1.0" id="Layer_1" xmlns="http://www.w3.org/2000/svg" xmlns:xlink="http://www.w3.org/1999/xlink" x="0px" y="0px"
	 width="80px" height="35px" viewBox="0 0 80 35" enable-background="new 0 0 80 35" xml:space="preserve">
<g id="footer_x5F_logos">
	<g>
		<path fill="#FECA2C" d="M10.607,13.709c0.15-0.043,0.23-0.176,0.336-0.276c0.785-0.762,1.527-1.568,2.337-2.306
			c0.068-0.066,0.171-0.081,0.241-0.146c0.076-0.024,0.156-0.023,0.236-0.001c0.07,0.065,0.173,0.08,0.241,0.147
			c0.237,0.232,0.187,0.556,0.231,0.835c0.401,2.426,0.776,4.858,1.167,7.287c0.251,1.565,0.519,3.129,0.775,4.694
			c0.021,0.131,0.025,0.267,0.037,0.391c-0.622,0.363-1.249,0.682-1.851,1.049c-0.308,0.188-0.643,0.356-0.969,0.523
			c-0.408,0.212-0.804,0.453-1.201,0.681c-0.309,0.172-0.614,0.353-0.932,0.507c-0.428,0.209-0.82,0.488-1.244,0.694
			c-0.666,0.325-1.252,0.86-2.063,0.843c-0.197-0.003-0.361-0.055-0.531-0.14c-1.722-0.86-3.364-1.86-5.051-2.786
			c-0.611-0.337-1.212-0.691-1.82-1.038c-0.021-0.037-0.036-0.078-0.093-0.065L0.444,24.6c-0.012-0.096-0.094-0.064-0.148-0.084
			L0.29,24.514c-0.02-0.084-0.1-0.06-0.154-0.087l-0.008-0.002c-0.041-0.086,0.016-0.153,0.039-0.229
			c0.025-0.041,0.051-0.078,0.084-0.113c0.027-0.032,0.061-0.063,0.092-0.093c0.029-0.03,0.062-0.06,0.093-0.089
			c0.026-0.027,0.059-0.057,0.085-0.082c0.027-0.029,0.057-0.057,0.084-0.084s0.055-0.055,0.084-0.082
			c0.025-0.027,0.053-0.053,0.08-0.082c0.028-0.026,0.056-0.053,0.08-0.079c0.027-0.029,0.055-0.056,0.086-0.082
			c0.021-0.027,0.053-0.056,0.078-0.081c0.027-0.028,0.053-0.055,0.079-0.081c0.027-0.028,0.056-0.054,0.083-0.081
			c0.028-0.027,0.053-0.055,0.078-0.081c0.027-0.026,0.055-0.055,0.084-0.081c0.025-0.027,0.053-0.054,0.081-0.081
			c0.025-0.028,0.054-0.055,0.081-0.082c0.027-0.026,0.053-0.054,0.082-0.082c0.023-0.026,0.051-0.054,0.078-0.079
			c0.027-0.029,0.055-0.056,0.084-0.082c0.024-0.027,0.05-0.054,0.079-0.082c0.024-0.027,0.055-0.055,0.081-0.082
			c0.026-0.026,0.055-0.054,0.082-0.08c0.025-0.027,0.053-0.054,0.08-0.08c0.025-0.028,0.053-0.056,0.08-0.082
			c0.026-0.027,0.055-0.055,0.08-0.082c0.029-0.028,0.055-0.053,0.082-0.08c0.025-0.027,0.055-0.055,0.082-0.082
			c0.027-0.027,0.055-0.055,0.084-0.081c0.023-0.028,0.051-0.056,0.079-0.081c0.025-0.028,0.053-0.055,0.079-0.082
			c0.025-0.027,0.055-0.055,0.084-0.081c0.023-0.027,0.051-0.056,0.078-0.081c0.025-0.027,0.055-0.055,0.082-0.081
			c0.025-0.028,0.053-0.054,0.081-0.082c0.025-0.028,0.053-0.055,0.079-0.081c0.029-0.027,0.059-0.054,0.086-0.081
			c0.023-0.028,0.053-0.054,0.079-0.081c0.025-0.027,0.053-0.055,0.079-0.08c0.026-0.029,0.054-0.056,0.083-0.082
			c0.024-0.027,0.05-0.055,0.079-0.08c0.029-0.029,0.055-0.056,0.082-0.082c0.025-0.026,0.052-0.055,0.082-0.082
			c0.025-0.027,0.053-0.054,0.08-0.082c0.027-0.025,0.053-0.054,0.08-0.08c0.029-0.027,0.055-0.056,0.082-0.082
			c0.025-0.027,0.055-0.053,0.081-0.079c0.025-0.029,0.055-0.056,0.081-0.082c0.025-0.027,0.053-0.054,0.08-0.08
			c0.025-0.029,0.051-0.056,0.082-0.082c0.025-0.027,0.053-0.056,0.082-0.081c0.023-0.027,0.053-0.055,0.078-0.081
			c0.029-0.028,0.055-0.056,0.082-0.082c0.027-0.028,0.055-0.053,0.082-0.08c0.025-0.028,0.055-0.055,0.078-0.082
			c0.027-0.026,0.055-0.054,0.083-0.08c0.024-0.028,0.053-0.055,0.082-0.081c0.025-0.027,0.053-0.054,0.077-0.08
			c0.029-0.029,0.057-0.056,0.084-0.082c0.025-0.029,0.055-0.055,0.08-0.08c0.025-0.029,0.053-0.056,0.082-0.082
			c0.026-0.028,0.054-0.056,0.081-0.082c0.024-0.028,0.054-0.055,0.081-0.082c0.027-0.027,0.055-0.055,0.082-0.082
			c0.025-0.026,0.052-0.053,0.079-0.08c0.027-0.027,0.055-0.055,0.082-0.082c0.027-0.026,0.052-0.053,0.079-0.079
			C5.572,18.754,5.6,18.727,5.629,18.7c0.025-0.027,0.053-0.054,0.08-0.081c0.025-0.028,0.055-0.055,0.08-0.082
			c0.027-0.028,0.055-0.055,0.082-0.081c0.025-0.028,0.053-0.054,0.08-0.081c0.027-0.027,0.055-0.055,0.082-0.081
			c0.024-0.028,0.054-0.054,0.081-0.081c0.026-0.027,0.055-0.055,0.081-0.082c0.025-0.027,0.055-0.054,0.08-0.081
			c0.027-0.026,0.055-0.054,0.082-0.081c0.025-0.028,0.052-0.054,0.082-0.081c0.022-0.027,0.053-0.055,0.078-0.082
			c0.027-0.028,0.055-0.054,0.08-0.08c0.027-0.028,0.057-0.055,0.084-0.081c0.027-0.028,0.053-0.054,0.078-0.082
			c0.027-0.028,0.056-0.054,0.083-0.081c0.028-0.028,0.053-0.055,0.082-0.082c0.024-0.027,0.052-0.054,0.081-0.081
			c0.023-0.028,0.051-0.056,0.08-0.081c0.025-0.028,0.053-0.055,0.08-0.082c0.029-0.027,0.055-0.054,0.083-0.081
			c0.025-0.028,0.05-0.054,0.079-0.082c0.027-0.027,0.057-0.054,0.082-0.081c0.025-0.028,0.053-0.054,0.081-0.08
			c0.025-0.028,0.052-0.054,0.08-0.081c0.024-0.029,0.055-0.055,0.08-0.082c0.026-0.027,0.054-0.053,0.083-0.081
			c0.027-0.028,0.053-0.054,0.08-0.081c0.024-0.027,0.054-0.055,0.082-0.082c0.025-0.028,0.055-0.055,0.082-0.081
			c0.025-0.028,0.053-0.055,0.08-0.082c0.025-0.027,0.053-0.055,0.082-0.082c0.025-0.028,0.052-0.054,0.081-0.081
			c0.024-0.028,0.051-0.056,0.081-0.083c0.025-0.028,0.055-0.055,0.082-0.083c0.027-0.028,0.055-0.056,0.082-0.083
			c0.025-0.029,0.053-0.057,0.08-0.084c0.016-0.021,0.036-0.039,0.057-0.057c0,0,0.027-0.027,0.027-0.028
			c0.018-0.019,0.035-0.036,0.055-0.054c0-0.001,0.029-0.026,0.029-0.026c0.016-0.02,0.035-0.038,0.053-0.055
			c0,0,0.031-0.027,0.029-0.028c0.016-0.019,0.035-0.036,0.053-0.053c0-0.001,0.029-0.027,0.029-0.027
			C8.893,15.419,8.91,15.4,8.93,15.384c0-0.001,0.03-0.027,0.03-0.027c0.015-0.019,0.034-0.037,0.055-0.055l0.023-0.026
			c0.018-0.02,0.037-0.037,0.054-0.054c0-0.001,0.029-0.027,0.027-0.028c0.018-0.019,0.035-0.036,0.055-0.054
			c0-0.001,0.027-0.027,0.027-0.028c0.018-0.019,0.033-0.036,0.055-0.054c0-0.001,0.025-0.025,0.025-0.026
			c0.018-0.02,0.037-0.037,0.055-0.054l0.027-0.027c0.019-0.02,0.036-0.037,0.054-0.055c0,0,0.028-0.026,0.026-0.027
			c0.018-0.019,0.035-0.037,0.055-0.054l0.027-0.026c0.016-0.02,0.037-0.038,0.055-0.056c0,0,0.025-0.025,0.025-0.026
			c0.019-0.02,0.037-0.037,0.052-0.054c0,0,0.031-0.026,0.031-0.027c0.015-0.019,0.033-0.036,0.056-0.055
			c0,0,0.026-0.025,0.024-0.026c0.018-0.018,0.034-0.036,0.052-0.053c0-0.001,0.027-0.026,0.027-0.027
			c0.018-0.019,0.037-0.037,0.057-0.054c-0.002-0.001,0.027-0.027,0.027-0.027c0.016-0.02,0.033-0.037,0.054-0.054
			c-0.002,0,0.027-0.027,0.027-0.028c0.015-0.019,0.034-0.036,0.054-0.054c-0.002-0.001,0.025-0.026,0.025-0.027
			c0.018-0.019,0.037-0.038,0.055-0.054c0-0.001,0.029-0.026,0.029-0.027c0.016-0.02,0.033-0.037,0.055-0.055
			c-0.002-0.001,0.025-0.027,0.025-0.028c0.018-0.02,0.037-0.037,0.055-0.055c0-0.001,0.026-0.026,0.026-0.027
			c0.018-0.02,0.035-0.038,0.057-0.057c0,0,0.027-0.026,0.027-0.027c0.015-0.02,0.033-0.039,0.052-0.058c0,0,0.021-0.03,0.021-0.031
			c0.012-0.023,0.027-0.044,0.043-0.066C10.559,13.732,10.582,13.716,10.607,13.709z"/>
		<path fill="#FDA410" d="M10.607,13.709c-0.006,0.026-0.008,0.052-0.006,0.078c-0.025,0.034-0.053,0.065-0.084,0.092l0.002-0.002
			c-0.025,0.029-0.055,0.057-0.084,0.084l0.002-0.003c-0.024,0.029-0.054,0.057-0.083,0.083l0.004-0.001
			c-0.028,0.029-0.056,0.057-0.083,0.084l0.002-0.002c-0.027,0.028-0.055,0.056-0.084,0.083l0.002-0.002
			c-0.027,0.029-0.053,0.057-0.082,0.083l0.002-0.002c-0.027,0.029-0.055,0.057-0.084,0.084l0.002-0.002
			c-0.025,0.028-0.055,0.056-0.082,0.082l0.002-0.002C9.928,14.473,9.9,14.5,9.869,14.528l0.002-0.003
			c-0.029,0.029-0.055,0.056-0.083,0.084l0.002-0.002c-0.025,0.028-0.054,0.057-0.082,0.083l0.002-0.002
			c-0.025,0.029-0.053,0.056-0.082,0.083l0.002-0.002c-0.026,0.029-0.054,0.057-0.083,0.083l0.002-0.002
			c-0.025,0.028-0.055,0.057-0.084,0.083l0.002-0.002c-0.025,0.029-0.054,0.057-0.084,0.083l0.005-0.003
			c-0.029,0.029-0.058,0.057-0.085,0.084l0.004-0.003c-0.027,0.029-0.055,0.057-0.084,0.084l0.002-0.002
			c-0.027,0.028-0.057,0.057-0.084,0.082l0.002-0.001c-0.025,0.029-0.053,0.057-0.083,0.083l0.002-0.002
			c-0.026,0.029-0.055,0.057-0.082,0.083l0.002-0.002c-0.027,0.03-0.056,0.057-0.083,0.083L8.9,15.498
			c-0.027,0.028-0.053,0.056-0.084,0.083l0.002-0.002c-0.027,0.029-0.055,0.056-0.082,0.083l0.002-0.002
			c-0.027,0.028-0.055,0.057-0.082,0.084l0.001-0.002c-0.03,0.029-0.064,0.038-0.106,0.024c-0.107-0.059-0.176-0.154-0.238-0.258
			c-0.557-1.074-1.127-2.146-1.709-3.208c-0.012-0.025-0.039-0.034-0.128-0.046c-1.801,3.447-3.657,6.893-5.442,10.374
			C0.766,23.07,0.535,23.532,0.313,24c-0.014,0.033-0.033,0.064-0.051,0.096c-0.037,0.043-0.066,0.088-0.09,0.137
			c-0.041,0.05-0.086,0.061-0.139,0.021c0.273-1.748,0.547-3.495,0.818-5.242c0.202-1.296,0.396-2.593,0.596-3.889
			c0.02-0.118,0.057-0.233,0.086-0.35c1.252-1.123,2.385-2.364,3.594-3.535c0.105-0.103,0.207-0.213,0.319-0.307
			c0.146-0.119,0.302-0.18,0.478-0.056c0.102,0.14,0.187,0.285,0.234,0.459c0.057,0.214,0.158,0.417,0.41,0.549
			c0.234-0.434,0.467-0.867,0.7-1.3c0.128-0.238,0.237-0.482,0.369-0.715C7.91,9.389,8.32,9.379,8.591,9.861
			c0.347,0.62,0.673,1.254,1.003,1.885C9.936,12.398,10.27,13.055,10.607,13.709z"/>
		<path fill="#CFD1D2" d="M29.287,11.997c0,0.482,0,0.922,0,1.405c-1.753,0-3.487,0-5.247,0c0,1.277,0,2.514,0,3.808
			c1.563,0,3.132,0,4.728,0c0.051,0.494,0.018,0.933,0.027,1.417c-1.6,0-3.156,0-4.769,0c0,1.682,0,3.316,0,4.971
			c-0.528,0-0.995,0-1.491,0c0-3.861,0-7.716,0-11.601C24.774,11.997,27.021,11.997,29.287,11.997z"/>
		<path fill="#CFD1D2" d="M71.195,17.256c-0.439,0.179-0.848,0.345-1.248,0.508c-0.715-0.976-1.645-1.281-2.688-0.891
			c-0.126,0.046-0.246,0.107-0.359,0.181c-0.543,0.37-0.514,1.057,0.057,1.389c0.188,0.111,0.396,0.174,0.605,0.226
			c0.652,0.159,1.313,0.302,1.957,0.49c0.711,0.208,1.289,0.601,1.612,1.303c0.382,0.827,0.229,1.781-0.396,2.44
			c-0.661,0.701-1.51,0.957-2.442,0.979c-1.567,0.038-2.868-0.681-3.546-2.267c0.415-0.221,0.852-0.381,1.296-0.549
			c0.127,0.203,0.229,0.392,0.354,0.564c0.615,0.883,1.854,1.174,2.811,0.684c0.393-0.199,0.604-0.51,0.596-0.933
			c-0.007-0.418-0.268-0.694-0.645-0.854c-0.486-0.205-1.006-0.293-1.516-0.412c-0.674-0.159-1.322-0.371-1.883-0.799
			c-0.974-0.748-1.066-2.102-0.197-2.976c1.259-1.265,3.803-1.265,5.055,0.001C70.867,16.594,71.063,16.882,71.195,17.256z"/>
		<path fill="#FEA716" d="M5.924,10.874c-0.238-0.029-0.398,0.094-0.558,0.256c-1.128,1.137-2.263,2.269-3.396,3.401
			c-0.124,0.122-0.229,0.275-0.438,0.241c0.031-0.659,0.178-1.302,0.274-1.952c0.19-1.314,0.405-2.626,0.612-3.938
			C2.523,8.206,2.633,7.53,2.74,6.853C2.779,6.6,2.914,6.423,3.166,6.376c0.24-0.043,0.419,0.086,0.527,0.292
			C4.434,8.072,5.229,9.447,5.924,10.874z"/>
		<path fill="#CFD1D2" d="M35.395,23.602c-0.508,0-0.961,0-1.45,0c0-2.637,0-5.262,0-7.915c0.442,0,0.89,0,1.37,0
			c0,0.411,0,0.81,0,1.307c0.855-1.383,2-1.773,3.504-1.359c-0.166,0.504-0.359,0.952-0.559,1.384
			c-0.191,0.037-0.34-0.049-0.502-0.067c-1.355-0.143-2.349,0.942-2.359,2.239c-0.01,1.309-0.002,2.619-0.004,3.929
			C35.395,23.266,35.395,23.411,35.395,23.602z"/>
		<path fill="#CFD1D2" d="M32.102,23.618c-0.494,0.034-0.975,0.021-1.473,0.01c0-2.659,0-5.286,0-7.941c0.486,0,0.967,0,1.473,0
			C32.102,18.316,32.102,20.952,32.102,23.618z"/>
		<path fill="#CFD1D2" d="M31.355,11.853c0.58-0.005,1.057,0.454,1.07,1.034c0.012,0.578-0.453,1.063-1.031,1.076
			c-0.605,0.012-1.096-0.46-1.096-1.055C30.299,12.33,30.771,11.859,31.355,11.853z"/>
		<path fill="#FDCE4E" d="M0.033,24.253c0.049-0.009,0.094-0.021,0.117-0.069c0.012-0.014,0.023-0.027,0.035-0.041
			c0.016,0.01,0.031,0.019,0.047,0.028c0.008,0.101-0.059,0.174-0.102,0.255C0.033,24.405-0.061,24.381,0.033,24.253z"/>
		<path fill="#FDCE4E" d="M13.521,10.981c-0.014,0.161-0.135,0.143-0.241,0.146C13.325,11.021,13.396,10.958,13.521,10.981z"/>
		<path fill="#FDCE4E" d="M13.999,11.128c-0.108-0.003-0.229,0.014-0.241-0.147C13.885,10.956,13.956,11.018,13.999,11.128z"/>
		<path fill="#FDCE4E" d="M0.139,24.428c0.074-0.011,0.145-0.017,0.154,0.086C0.229,24.508,0.166,24.499,0.139,24.428z"/>
		<path fill="#FDCE4E" d="M0.299,24.518c0.074-0.018,0.146-0.031,0.148,0.084C0.385,24.595,0.328,24.582,0.299,24.518z"/>
		<path fill="#FDCE4E" d="M0.456,24.604c0.057-0.013,0.081,0.016,0.093,0.065C0.509,24.661,0.469,24.648,0.456,24.604z"/>
		<path fill="#FDCE4E" d="M9.951,14.446c0.027-0.028,0.055-0.055,0.082-0.082C10.021,14.407,9.995,14.435,9.951,14.446z"/>
		<path fill="#FDCE4E" d="M9.869,14.528c0.027-0.029,0.057-0.057,0.084-0.084C9.943,14.488,9.914,14.516,9.869,14.528z"/>
		<path fill="#FDCE4E" d="M9.788,14.609c0.026-0.029,0.054-0.056,0.083-0.084C9.859,14.569,9.832,14.597,9.788,14.609z"/>
		<path fill="#FDCE4E" d="M9.628,14.771c0.026-0.028,0.054-0.056,0.082-0.083C9.698,14.731,9.668,14.758,9.628,14.771z"/>
		<path fill="#FDCE4E" d="M9.547,14.852c0.027-0.028,0.055-0.055,0.083-0.083C9.617,14.812,9.59,14.84,9.547,14.852z"/>
		<path fill="#FDCE4E" d="M9.465,14.932c0.029-0.027,0.057-0.055,0.084-0.083C9.539,14.894,9.51,14.921,9.465,14.932z"/>
		<path fill="#FDCE4E" d="M9.383,15.014c0.03-0.027,0.057-0.056,0.084-0.083C9.455,14.974,9.427,15.002,9.383,15.014z"/>
		<path fill="#FDCE4E" d="M9.303,15.095c0.027-0.028,0.056-0.056,0.085-0.084C9.375,15.056,9.346,15.083,9.303,15.095z"/>
		<path fill="#FDCE4E" d="M9.223,15.176c0.027-0.03,0.053-0.056,0.084-0.084C9.293,15.136,9.266,15.165,9.223,15.176z"/>
		<path fill="#FDCE4E" d="M9.141,15.256c0.027-0.027,0.057-0.055,0.084-0.082C9.213,15.217,9.186,15.245,9.141,15.256z"/>
		<path fill="#FDCE4E" d="M9.06,15.337c0.029-0.028,0.056-0.056,0.083-0.083C9.131,15.299,9.104,15.327,9.06,15.337z"/>
		<path fill="#FDCE4E" d="M8.979,15.418c0.027-0.028,0.055-0.055,0.082-0.083C9.049,15.379,9.024,15.407,8.979,15.418z"/>
		<path fill="#FDCE4E" d="M8.898,15.5c0.025-0.028,0.055-0.056,0.083-0.083C8.969,15.46,8.941,15.488,8.898,15.5z"/>
		<path fill="#FDCE4E" d="M8.816,15.581c0.029-0.028,0.057-0.056,0.084-0.083C8.889,15.541,8.859,15.569,8.816,15.581z"/>
		<path fill="#FDCE4E" d="M8.736,15.662c0.027-0.028,0.055-0.055,0.082-0.083C8.807,15.623,8.779,15.65,8.736,15.662z"/>
		<path fill="#FDCE4E" d="M8.656,15.743c0.027-0.027,0.055-0.057,0.082-0.084C8.727,15.703,8.699,15.731,8.656,15.743z"/>
		<path fill="#FDCE4E" d="M9.708,14.689c0.028-0.027,0.057-0.056,0.082-0.083C9.78,14.649,9.752,14.677,9.708,14.689z"/>
		<path fill="#FDCE4E" d="M8.58,15.746c0.027-0.001,0.051-0.003,0.077-0.004c-0.011,0.043-0.038,0.069-0.081,0.083
			c-0.008-0.014-0.014-0.027-0.021-0.041C8.564,15.771,8.572,15.758,8.58,15.746z"/>
		<path fill="#FDCE4E" d="M8.576,15.825c-0.012,0.042-0.039,0.07-0.082,0.081c-0.002-0.017-0.006-0.036-0.01-0.052
			c0.021-0.032,0.051-0.043,0.088-0.033L8.576,15.825z"/>
		<path fill="#FDCE4E" d="M8.494,15.906c-0.01,0.043-0.037,0.07-0.08,0.082c-0.004-0.018-0.008-0.035-0.012-0.053
			c0.023-0.032,0.053-0.043,0.09-0.033L8.494,15.906z"/>
		<path fill="#FDCE4E" d="M8.414,15.987c-0.012,0.042-0.037,0.068-0.08,0.08c-0.006-0.017-0.008-0.035-0.012-0.052
			c0.022-0.031,0.053-0.043,0.088-0.032L8.414,15.987z"/>
		<path fill="#FDCE4E" d="M8.334,16.067c-0.012,0.043-0.039,0.07-0.082,0.081c-0.003-0.017-0.007-0.035-0.011-0.052
			c0.021-0.032,0.052-0.043,0.089-0.033L8.334,16.067z"/>
		<path fill="#FDCE4E" d="M8.252,16.148c-0.011,0.042-0.038,0.07-0.08,0.082c-0.004-0.018-0.008-0.035-0.01-0.053
			c0.021-0.031,0.05-0.042,0.087-0.032L8.252,16.148z"/>
		<path fill="#FDCE4E" d="M8.172,16.23c-0.01,0.043-0.039,0.07-0.082,0.081c-0.004-0.018-0.008-0.034-0.01-0.051
			c0.021-0.032,0.051-0.043,0.09-0.033L8.172,16.23z"/>
		<path fill="#FDCE4E" d="M8.09,16.311c-0.012,0.042-0.037,0.07-0.08,0.081C8.008,16.375,8.002,16.356,8,16.34
			c0.02-0.032,0.049-0.043,0.086-0.033L8.09,16.311z"/>
		<path fill="#FDCE4E" d="M8.01,16.392c-0.01,0.043-0.037,0.07-0.082,0.081c-0.004-0.017-0.008-0.034-0.01-0.051
			c0.023-0.032,0.051-0.044,0.09-0.033L8.01,16.392z"/>
		<path fill="#FDCE4E" d="M7.928,16.472c-0.01,0.043-0.037,0.071-0.083,0.082c-0.002-0.018-0.005-0.036-0.009-0.052
			c0.021-0.033,0.053-0.043,0.088-0.033L7.928,16.472z"/>
		<path fill="#FDCE4E" d="M7.845,16.554c-0.009,0.042-0.036,0.069-0.077,0.08C7.764,16.618,7.76,16.6,7.756,16.583
			c0.021-0.031,0.051-0.043,0.087-0.032L7.845,16.554z"/>
		<path fill="#FDCE4E" d="M7.768,16.634c-0.012,0.043-0.041,0.072-0.084,0.082c-0.002-0.018-0.004-0.035-0.012-0.052
			c0.023-0.032,0.053-0.043,0.092-0.034L7.768,16.634z"/>
		<path fill="#FDCE4E" d="M7.684,16.716c-0.012,0.043-0.036,0.07-0.082,0.081c-0.004-0.018-0.005-0.034-0.009-0.053
			c0.022-0.032,0.051-0.042,0.089-0.033L7.684,16.716z"/>
		<path fill="#FDCE4E" d="M7.602,16.797c-0.009,0.043-0.035,0.069-0.077,0.081c-0.004-0.017-0.008-0.035-0.012-0.052
			c0.021-0.032,0.052-0.043,0.088-0.033L7.602,16.797z"/>
		<path fill="#FDCE4E" d="M7.524,16.878c-0.012,0.043-0.039,0.069-0.083,0.081c-0.002-0.017-0.006-0.035-0.008-0.052
			c0.02-0.033,0.049-0.042,0.087-0.032L7.524,16.878z"/>
		<path fill="#FDCE4E" d="M7.441,16.959c-0.01,0.043-0.037,0.07-0.08,0.082c-0.004-0.019-0.008-0.036-0.01-0.053
			c0.021-0.032,0.051-0.042,0.088-0.032L7.441,16.959z"/>
		<path fill="#FDCE4E" d="M7.361,17.041c-0.012,0.042-0.037,0.069-0.081,0.08c-0.004-0.017-0.006-0.034-0.01-0.052
			c0.021-0.032,0.05-0.042,0.087-0.031L7.361,17.041z"/>
		<path fill="#FDCE4E" d="M7.28,17.121c-0.01,0.043-0.039,0.07-0.079,0.082c-0.006-0.018-0.01-0.035-0.014-0.052
			c0.021-0.033,0.052-0.042,0.091-0.032L7.28,17.121z"/>
		<path fill="#FDCE4E" d="M7.201,17.202c-0.014,0.042-0.041,0.069-0.084,0.081c-0.002-0.018-0.006-0.035-0.01-0.053
			c0.02-0.033,0.051-0.042,0.088-0.032L7.201,17.202z"/>
		<path fill="#FDCE4E" d="M7.117,17.283c-0.01,0.043-0.037,0.07-0.08,0.081c-0.004-0.018-0.008-0.035-0.012-0.052
			c0.021-0.034,0.053-0.043,0.09-0.034L7.117,17.283z"/>
		<path fill="#FDCE4E" d="M7.037,17.364c-0.012,0.042-0.039,0.069-0.082,0.08c-0.002-0.017-0.004-0.034-0.009-0.051
			c0.021-0.032,0.05-0.042,0.087-0.032L7.037,17.364z"/>
		<path fill="#FDCE4E" d="M6.955,17.444c-0.009,0.043-0.037,0.07-0.078,0.082c-0.005-0.018-0.01-0.034-0.013-0.051
			c0.021-0.033,0.053-0.044,0.091-0.033V17.444z"/>
		<path fill="#FDCE4E" d="M6.877,17.526c-0.013,0.043-0.04,0.071-0.084,0.081c-0.002-0.017-0.006-0.035-0.01-0.052
			c0.023-0.032,0.05-0.043,0.089-0.032L6.877,17.526z"/>
		<path fill="#FDCE4E" d="M6.793,17.607c-0.01,0.043-0.037,0.07-0.078,0.081c-0.004-0.018-0.01-0.034-0.012-0.053
			c0.021-0.03,0.051-0.042,0.088-0.031L6.793,17.607z"/>
		<path fill="#FDCE4E" d="M6.715,17.688c-0.014,0.043-0.037,0.07-0.084,0.082c-0.002-0.017-0.006-0.035-0.01-0.053
			c0.021-0.033,0.053-0.042,0.09-0.032L6.715,17.688z"/>
		<path fill="#FDCE4E" d="M6.631,17.77c-0.01,0.043-0.037,0.069-0.08,0.081c-0.004-0.017-0.008-0.035-0.011-0.052
			c0.022-0.032,0.052-0.042,0.089-0.032L6.631,17.77z"/>
		<path fill="#FDCE4E" d="M6.551,17.85c-0.011,0.043-0.037,0.07-0.082,0.082c-0.004-0.018-0.006-0.036-0.01-0.053
			c0.021-0.031,0.053-0.043,0.09-0.032L6.551,17.85z"/>
		<path fill="#FDCE4E" d="M6.469,17.932c-0.01,0.042-0.035,0.069-0.08,0.08c-0.004-0.016-0.008-0.034-0.01-0.053
			c0.021-0.031,0.053-0.041,0.086-0.031L6.469,17.932z"/>
		<path fill="#FDCE4E" d="M6.389,18.012c-0.01,0.043-0.039,0.071-0.08,0.081c-0.004-0.017-0.006-0.034-0.014-0.052
			c0.025-0.032,0.053-0.043,0.092-0.032L6.389,18.012z"/>
		<path fill="#FDCE4E" d="M6.309,18.093c-0.014,0.043-0.037,0.07-0.082,0.082c-0.004-0.017-0.006-0.034-0.01-0.052
			c0.02-0.033,0.051-0.043,0.09-0.032L6.309,18.093z"/>
		<path fill="#FDCE4E" d="M6.227,18.174c-0.012,0.042-0.037,0.07-0.08,0.082c-0.005-0.02-0.009-0.035-0.014-0.053
			c0.023-0.032,0.055-0.043,0.092-0.032L6.227,18.174z"/>
		<path fill="#FDCE4E" d="M6.146,18.256c-0.014,0.043-0.038,0.069-0.081,0.08c-0.004-0.018-0.008-0.034-0.012-0.051
			c0.021-0.032,0.053-0.043,0.088-0.032L6.146,18.256z"/>
		<path fill="#FDCE4E" d="M6.065,18.335c-0.012,0.044-0.038,0.071-0.081,0.082C5.98,18.4,5.977,18.382,5.973,18.365
			c0.021-0.032,0.053-0.043,0.089-0.032L6.065,18.335z"/>
		<path fill="#FDCE4E" d="M5.984,18.417c-0.012,0.042-0.037,0.069-0.082,0.081c-0.002-0.018-0.006-0.034-0.01-0.053
			c0.021-0.03,0.053-0.041,0.088-0.03L5.984,18.417z"/>
		<path fill="#FDCE4E" d="M5.902,18.498c-0.01,0.043-0.037,0.07-0.08,0.081c-0.002-0.019-0.006-0.035-0.01-0.052
			c0.021-0.032,0.051-0.043,0.088-0.032L5.902,18.498z"/>
		<path fill="#FDCE4E" d="M5.822,18.579c-0.01,0.043-0.037,0.069-0.081,0.081c-0.004-0.018-0.008-0.036-0.012-0.053
			c0.022-0.031,0.054-0.041,0.091-0.031L5.822,18.579z"/>
		<path fill="#FDCE4E" d="M5.741,18.66c-0.012,0.043-0.04,0.07-0.081,0.082c-0.004-0.018-0.008-0.035-0.012-0.053
			c0.023-0.031,0.051-0.041,0.089-0.031L5.741,18.66z"/>
		<path fill="#FDCE4E" d="M5.66,18.742c-0.012,0.042-0.039,0.07-0.082,0.082c-0.004-0.018-0.008-0.036-0.012-0.053
			c0.023-0.031,0.053-0.043,0.092-0.032L5.66,18.742z"/>
		<path fill="#FDCE4E" d="M5.578,18.823c-0.012,0.042-0.037,0.069-0.079,0.079c-0.006-0.018-0.008-0.035-0.014-0.051
			c0.023-0.033,0.052-0.043,0.091-0.033L5.578,18.823z"/>
		<path fill="#FDCE4E" d="M5.499,18.902c-0.014,0.043-0.039,0.07-0.082,0.082c-0.004-0.018-0.008-0.034-0.012-0.053
			c0.021-0.033,0.053-0.043,0.09-0.033L5.499,18.902z"/>
		<path fill="#FDCE4E" d="M5.417,18.984c-0.012,0.043-0.038,0.07-0.079,0.082c-0.004-0.019-0.008-0.035-0.012-0.053
			c0.021-0.033,0.051-0.041,0.087-0.031L5.417,18.984z"/>
		<path fill="#FDCE4E" d="M5.338,19.064c-0.012,0.043-0.041,0.07-0.082,0.082c-0.004-0.018-0.008-0.035-0.012-0.053
			c0.023-0.031,0.053-0.043,0.09-0.031L5.338,19.064z"/>
		<path fill="#FDCE4E" d="M5.256,19.146c-0.012,0.043-0.039,0.069-0.084,0.08c-0.002-0.018-0.006-0.033-0.01-0.052
			c0.021-0.032,0.053-0.043,0.092-0.03L5.256,19.146z"/>
		<path fill="#FDCE4E" d="M5.172,19.227c-0.01,0.043-0.035,0.071-0.079,0.084c-0.005-0.019-0.007-0.037-0.011-0.055
			c0.022-0.033,0.053-0.042,0.088-0.031L5.172,19.227z"/>
		<path fill="#FDCE4E" d="M5.093,19.311c-0.013,0.041-0.038,0.067-0.083,0.08C5.008,19.372,5.004,19.355,5,19.337
			c0.023-0.032,0.053-0.042,0.091-0.03L5.093,19.311z"/>
		<path fill="#FDCE4E" d="M5.01,19.389C5,19.432,4.973,19.46,4.93,19.471c-0.004-0.018-0.006-0.035-0.012-0.053
			c0.023-0.033,0.053-0.042,0.09-0.031L5.01,19.389z"/>
		<path fill="#FDCE4E" d="M4.93,19.471c-0.012,0.043-0.035,0.07-0.08,0.081c-0.004-0.018-0.008-0.034-0.012-0.053
			c0.023-0.032,0.055-0.043,0.09-0.031L4.93,19.471z"/>
		<path fill="#FDCE4E" d="M4.85,19.552c-0.012,0.042-0.041,0.069-0.081,0.081c-0.004-0.018-0.008-0.035-0.01-0.053
			c0.021-0.032,0.05-0.042,0.089-0.031L4.85,19.552z"/>
		<path fill="#FDCE4E" d="M4.769,19.633c-0.012,0.043-0.035,0.069-0.08,0.081c-0.004-0.017-0.008-0.034-0.012-0.052
			c0.022-0.032,0.054-0.043,0.089-0.031L4.769,19.633z"/>
		<path fill="#FDCE4E" d="M4.688,19.714c-0.012,0.043-0.04,0.07-0.081,0.081c-0.004-0.018-0.008-0.036-0.012-0.053
			c0.021-0.033,0.053-0.042,0.09-0.031L4.688,19.714z"/>
		<path fill="#FDCE4E" d="M10.518,13.879c0.027-0.03,0.057-0.061,0.084-0.092C10.59,13.835,10.564,13.865,10.518,13.879z"/>
		<path fill="#FDCE4E" d="M4.607,19.795c-0.012,0.042-0.039,0.07-0.082,0.082c-0.004-0.018-0.008-0.035-0.012-0.053
			c0.023-0.033,0.053-0.043,0.09-0.032L4.607,19.795z"/>
		<path fill="#FDCE4E" d="M4.525,19.876c-0.012,0.042-0.037,0.069-0.08,0.08c-0.002-0.019-0.006-0.035-0.01-0.052
			c0.02-0.032,0.051-0.043,0.088-0.031L4.525,19.876z"/>
		<path fill="#FDCE4E" d="M4.445,19.957c-0.012,0.043-0.039,0.07-0.08,0.082c-0.005-0.018-0.009-0.035-0.014-0.053
			c0.025-0.033,0.053-0.043,0.092-0.032L4.445,19.957z"/>
		<path fill="#FDCE4E" d="M4.365,20.038c-0.016,0.043-0.04,0.069-0.084,0.081c-0.002-0.02-0.006-0.035-0.008-0.053
			c0.021-0.031,0.051-0.041,0.09-0.03L4.365,20.038z"/>
		<path fill="#FDCE4E" d="M4.281,20.119c-0.008,0.042-0.035,0.07-0.08,0.082c-0.002-0.018-0.006-0.036-0.01-0.053
			c0.021-0.033,0.053-0.045,0.088-0.032L4.281,20.119z"/>
		<path fill="#FDCE4E" d="M4.201,20.201c-0.01,0.042-0.037,0.068-0.078,0.08c-0.008-0.018-0.01-0.034-0.014-0.053
			c0.023-0.031,0.051-0.041,0.09-0.03L4.201,20.201z"/>
		<path fill="#FDCE4E" d="M4.123,20.28c-0.014,0.043-0.041,0.069-0.084,0.081c-0.002-0.018-0.006-0.034-0.011-0.053
			c0.023-0.033,0.054-0.041,0.089-0.031L4.123,20.28z"/>
		<path fill="#FDCE4E" d="M4.039,20.361c-0.011,0.043-0.037,0.07-0.079,0.082c-0.004-0.018-0.009-0.035-0.013-0.053
			c0.021-0.033,0.055-0.043,0.09-0.031L4.039,20.361z"/>
		<path fill="#FDCE4E" d="M3.96,20.443c-0.013,0.041-0.042,0.07-0.083,0.08c-0.002-0.017-0.006-0.035-0.01-0.054
			c0.023-0.032,0.05-0.042,0.091-0.03L3.96,20.443z"/>
		<path fill="#FDCE4E" d="M3.877,20.523c-0.012,0.043-0.037,0.069-0.078,0.082c-0.004-0.019-0.008-0.035-0.014-0.053
			c0.023-0.033,0.053-0.042,0.092-0.031V20.523z"/>
		<path fill="#FDCE4E" d="M3.799,20.605c-0.014,0.041-0.039,0.069-0.082,0.082c-0.004-0.018-0.006-0.037-0.01-0.055
			c0.02-0.031,0.049-0.042,0.088-0.029L3.799,20.605z"/>
		<path fill="#FDCE4E" d="M3.717,20.688c-0.012,0.041-0.037,0.068-0.082,0.08c-0.004-0.018-0.008-0.035-0.012-0.053
			c0.023-0.031,0.055-0.042,0.092-0.029L3.717,20.688z"/>
		<path fill="#FDCE4E" d="M3.635,20.768c-0.012,0.043-0.038,0.07-0.081,0.082c-0.003-0.019-0.007-0.037-0.011-0.053
			c0.021-0.033,0.052-0.043,0.088-0.031L3.635,20.768z"/>
		<path fill="#FDCE4E" d="M3.554,20.848c-0.011,0.043-0.036,0.069-0.079,0.082c-0.004-0.018-0.01-0.035-0.014-0.054
			c0.025-0.032,0.053-0.042,0.092-0.031L3.554,20.848z"/>
		<path fill="#FDCE4E" d="M3.475,20.93c-0.014,0.043-0.041,0.068-0.082,0.081c-0.004-0.018-0.008-0.034-0.012-0.052
			c0.02-0.034,0.053-0.043,0.092-0.031L3.475,20.93z"/>
		<path fill="#FDCE4E" d="M3.393,21.01c-0.012,0.042-0.041,0.07-0.083,0.082c-0.002-0.018-0.006-0.035-0.01-0.054
			c0.022-0.032,0.05-0.043,0.089-0.03L3.393,21.01z"/>
		<path fill="#FDCE4E" d="M3.31,21.092c-0.012,0.042-0.038,0.068-0.08,0.081c-0.002-0.018-0.008-0.036-0.011-0.053
			c0.022-0.033,0.051-0.042,0.089-0.031L3.31,21.092z"/>
		<path fill="#FDCE4E" d="M3.229,21.172c-0.011,0.042-0.036,0.069-0.081,0.081C3.146,21.236,3.142,21.218,3.14,21.2
			c0.02-0.032,0.051-0.042,0.087-0.03L3.229,21.172z"/>
		<path fill="#FDCE4E" d="M10.436,13.961c0.029-0.029,0.058-0.056,0.084-0.084C10.508,13.921,10.48,13.949,10.436,13.961z"/>
		<path fill="#FDCE4E" d="M10.354,14.041c0.029-0.028,0.057-0.055,0.083-0.083C10.429,14.003,10.401,14.03,10.354,14.041z"/>
		<path fill="#FDCE4E" d="M3.148,21.253c-0.01,0.043-0.037,0.071-0.08,0.081c-0.006-0.018-0.01-0.035-0.014-0.052
			c0.025-0.033,0.055-0.042,0.094-0.031V21.253z"/>
		<path fill="#FDCE4E" d="M3.068,21.334c-0.014,0.042-0.041,0.07-0.081,0.082c-0.005-0.018-0.008-0.035-0.01-0.053
			c0.021-0.032,0.05-0.043,0.087-0.031L3.068,21.334z"/>
		<path fill="#FDCE4E" d="M2.987,21.416c-0.012,0.042-0.037,0.068-0.081,0.081c-0.004-0.019-0.008-0.035-0.01-0.052
			c0.02-0.033,0.051-0.043,0.089-0.031L2.987,21.416z"/>
		<path fill="#FDCE4E" d="M2.906,21.497c-0.01,0.042-0.039,0.069-0.082,0.081c-0.004-0.018-0.008-0.036-0.012-0.053
			c0.023-0.032,0.053-0.043,0.092-0.03L2.906,21.497z"/>
		<path fill="#FDCE4E" d="M2.824,21.578c-0.012,0.042-0.039,0.068-0.08,0.08c-0.004-0.018-0.008-0.034-0.012-0.053
			c0.023-0.032,0.051-0.043,0.088-0.03L2.824,21.578z"/>
		<path fill="#FDCE4E" d="M2.744,21.658C2.732,21.7,2.705,21.729,2.66,21.74c-0.001-0.02-0.005-0.036-0.011-0.053
			c0.024-0.032,0.054-0.043,0.093-0.031L2.744,21.658z"/>
		<path fill="#FDCE4E" d="M2.66,21.74c-0.011,0.042-0.036,0.068-0.079,0.08c-0.004-0.016-0.006-0.034-0.01-0.053
			c0.021-0.031,0.053-0.043,0.088-0.029L2.66,21.74z"/>
		<path fill="#FDCE4E" d="M2.581,21.82c-0.013,0.043-0.037,0.07-0.081,0.08c-0.002-0.017-0.006-0.034-0.01-0.051
			c0.021-0.033,0.052-0.045,0.089-0.033L2.581,21.82z"/>
		<path fill="#FDCE4E" d="M2.5,21.9c-0.012,0.043-0.037,0.069-0.08,0.082c-0.004-0.018-0.01-0.034-0.014-0.053
			c0.025-0.031,0.055-0.043,0.092-0.031L2.5,21.9z"/>
		<path fill="#FDCE4E" d="M2.42,21.982c-0.014,0.043-0.039,0.07-0.082,0.082c-0.004-0.019-0.008-0.037-0.012-0.054
			c0.023-0.032,0.053-0.044,0.092-0.032L2.42,21.982z"/>
		<path fill="#FDCE4E" d="M2.338,22.064c-0.012,0.041-0.037,0.068-0.08,0.08c-0.004-0.017-0.008-0.035-0.012-0.053
			c0.021-0.031,0.055-0.042,0.09-0.029L2.338,22.064z"/>
		<path fill="#FDCE4E" d="M2.258,22.145c-0.029,0.028-0.055,0.055-0.081,0.082c-0.004-0.019-0.009-0.035-0.013-0.053
			c0.023-0.033,0.055-0.043,0.092-0.031L2.258,22.145z"/>
		<path fill="#FDCE4E" d="M2.177,22.227c-0.028,0.026-0.056,0.054-0.081,0.08c-0.004-0.017-0.008-0.033-0.012-0.053
			c0.023-0.033,0.053-0.042,0.091-0.031L2.177,22.227z"/>
		<path fill="#FDCE4E" d="M2.096,22.307c-0.027,0.028-0.055,0.055-0.08,0.082c-0.004-0.019-0.008-0.035-0.012-0.053
			c0.021-0.031,0.051-0.043,0.09-0.029H2.096z"/>
		<path fill="#FDCE4E" d="M2.016,22.389c-0.027,0.026-0.055,0.053-0.083,0.079c-0.004-0.017-0.004-0.034-0.009-0.052
			c0.021-0.033,0.053-0.043,0.09-0.03L2.016,22.389z"/>
		<path fill="#FDCE4E" d="M1.933,22.468c-0.026,0.028-0.053,0.056-0.083,0.083c-0.003-0.019-0.005-0.035-0.007-0.054
			C1.865,22.464,1.893,22.455,1.933,22.468L1.933,22.468z"/>
		<path fill="#FDCE4E" d="M1.85,22.551c-0.024,0.026-0.052,0.053-0.079,0.08c-0.002-0.017-0.005-0.035-0.009-0.052
			C1.783,22.545,1.814,22.537,1.85,22.551L1.85,22.551z"/>
		<path fill="#FDCE4E" d="M10.275,14.123c0.027-0.028,0.053-0.056,0.083-0.084C10.347,14.083,10.318,14.111,10.275,14.123z"/>
		<path fill="#FDCE4E" d="M1.771,22.63c-0.024,0.027-0.054,0.056-0.081,0.082c-0.002-0.017-0.006-0.036-0.01-0.053
			C1.703,22.627,1.733,22.616,1.771,22.63L1.771,22.63z"/>
		<path fill="#FDCE4E" d="M1.689,22.712c-0.025,0.027-0.053,0.054-0.08,0.08c-0.004-0.017-0.008-0.034-0.012-0.052
			c0.023-0.033,0.055-0.042,0.09-0.03L1.689,22.712z"/>
		<path fill="#FDCE4E" d="M1.609,22.792c-0.025,0.028-0.055,0.056-0.08,0.082c-0.004-0.019-0.008-0.035-0.012-0.054
			c0.021-0.032,0.053-0.041,0.09-0.028H1.609z"/>
		<path fill="#FDCE4E" d="M1.529,22.874c-0.027,0.026-0.055,0.054-0.082,0.081c-0.003-0.018-0.007-0.036-0.012-0.053
			c0.021-0.033,0.055-0.043,0.092-0.03L1.529,22.874z"/>
		<path fill="#FDCE4E" d="M1.447,22.955c-0.026,0.027-0.055,0.054-0.08,0.08c-0.006-0.018-0.008-0.034-0.012-0.053
			c0.023-0.031,0.055-0.041,0.091-0.029L1.447,22.955z"/>
		<path fill="#FDCE4E" d="M1.367,23.035c-0.027,0.027-0.057,0.056-0.082,0.082c-0.004-0.018-0.008-0.035-0.012-0.053
			c0.023-0.033,0.053-0.043,0.092-0.031L1.367,23.035z"/>
		<path fill="#FDCE4E" d="M1.285,23.117c-0.029,0.025-0.053,0.054-0.079,0.081c-0.007-0.019-0.01-0.036-0.012-0.054
			c0.021-0.033,0.052-0.041,0.089-0.029L1.285,23.117z"/>
		<path fill="#FDCE4E" d="M1.206,23.198c-0.028,0.026-0.056,0.054-0.083,0.081c-0.004-0.019-0.008-0.036-0.011-0.053
			c0.021-0.033,0.055-0.043,0.092-0.031L1.206,23.198z"/>
		<path fill="#FDCE4E" d="M1.123,23.279c-0.028,0.025-0.052,0.054-0.078,0.08c-0.004-0.019-0.012-0.035-0.014-0.053
			c0.024-0.033,0.053-0.043,0.09-0.029L1.123,23.279z"/>
		<path fill="#FDCE4E" d="M1.045,23.359c-0.029,0.027-0.055,0.055-0.084,0.082c-0.004-0.019-0.006-0.036-0.01-0.053
			c0.021-0.033,0.053-0.044,0.092-0.031L1.045,23.359z"/>
		<path fill="#FDCE4E" d="M0.961,23.441c-0.023,0.026-0.053,0.054-0.082,0.08c-0.002-0.017-0.005-0.033-0.009-0.052
			c0.021-0.032,0.054-0.043,0.089-0.03L0.961,23.441z"/>
		<path fill="#FDCE4E" d="M0.879,23.521c-0.024,0.026-0.052,0.055-0.078,0.082c-0.005-0.019-0.008-0.037-0.012-0.054
			c0.022-0.032,0.053-0.042,0.09-0.03V23.521z"/>
		<path fill="#FDCE4E" d="M0.801,23.604c-0.029,0.026-0.055,0.054-0.082,0.08c-0.004-0.018-0.008-0.035-0.012-0.053
			c0.023-0.033,0.053-0.044,0.091-0.029L0.801,23.604z"/>
		<path fill="#FDCE4E" d="M0.719,23.684c-0.025,0.027-0.053,0.056-0.082,0.082c-0.004-0.018-0.008-0.035-0.012-0.053
			c0.023-0.033,0.053-0.042,0.092-0.029H0.719z"/>
		<path fill="#FDCE4E" d="M0.637,23.766c-0.027,0.026-0.053,0.055-0.08,0.08c-0.004-0.018-0.008-0.035-0.012-0.053
			c0.023-0.032,0.053-0.043,0.09-0.029L0.637,23.766z"/>
		<path fill="#FDCE4E" d="M0.557,23.846C0.53,23.873,0.505,23.9,0.476,23.928c-0.004-0.019-0.008-0.035-0.012-0.053
			c0.021-0.033,0.054-0.043,0.091-0.031L0.557,23.846z"/>
		<path fill="#FDCE4E" d="M0.476,23.928c-0.028,0.026-0.053,0.053-0.08,0.081c-0.004-0.018-0.009-0.036-0.013-0.054
			c0.024-0.033,0.056-0.043,0.091-0.029L0.476,23.928z"/>
		<path fill="#FDCE4E" d="M0.396,24.009c-0.029,0.026-0.056,0.054-0.083,0.08c-0.004-0.019-0.01-0.036-0.016-0.055
			c0.025-0.032,0.057-0.042,0.097-0.028L0.396,24.009z"/>
		<path fill="#FDCE4E" d="M0.313,24.089c-0.027,0.027-0.053,0.054-0.08,0.082l-0.004-0.003c-0.014-0.02-0.02-0.038-0.014-0.055
			c0.008-0.018,0.014-0.025,0.021-0.025l-0.004,0.004c0.023-0.041,0.049-0.042,0.078-0.006L0.313,24.089z"/>
		<path fill="#FDCE4E" d="M10.193,14.203c0.027-0.027,0.057-0.056,0.084-0.083C10.266,14.165,10.238,14.191,10.193,14.203z"/>
		<path fill="#FDCE4E" d="M10.113,14.285c0.027-0.028,0.055-0.055,0.082-0.083C10.186,14.246,10.156,14.273,10.113,14.285z"/>
		<path fill="#FDCE4E" d="M10.031,14.366c0.029-0.028,0.055-0.057,0.084-0.084C10.102,14.326,10.076,14.354,10.031,14.366z"/>
		<path fill="#CFD1D2" d="M54.145,16.07c-1.412-1.091-3.692-0.817-4.66,0.529c-0.028,0.039-0.057,0.097-0.166,0.067
			c0.113-1.545,0.052-3.098,0.07-4.684c-0.535-0.029-1.012-0.024-1.494-0.005c0,3.893,0,7.748,0,11.639
			c0.473-0.013,0.926,0.024,1.42-0.029c0-0.34,0-0.669,0-0.978c0.093-0.039,0.117,0.002,0.14,0.031
			c0.979,1.412,3.315,1.64,4.717,0.549c0.979-0.764,1.537-1.752,1.666-2.983C56.008,18.527,55.506,17.122,54.145,16.07z
			 M53.801,21.496c-0.607,0.843-1.479,1.169-2.492,0.958c-1-0.21-1.595-0.896-1.891-1.854c-0.094-0.313-0.107-0.638-0.102-0.871
			c-0.017-0.842,0.149-1.537,0.664-2.112c1.254-1.405,3.498-1.006,4.153,0.76C54.537,19.455,54.496,20.535,53.801,21.496z"/>
		<path fill="#F4820D" d="M0.957,22.628c0.157-0.476,0.398-0.917,0.646-1.343c0.367-0.629,0.672-1.288,1.023-1.926
			c0.747-1.37,1.443-2.77,2.165-4.152c0.519-0.991,1.044-1.976,1.563-2.963c0.045-0.082,0.072-0.18,0.236-0.213
			c0.602,1.146,1.213,2.309,1.824,3.47c-1.175,1.088-2.3,2.228-3.414,3.381c-0.445,0.464-0.913,0.914-1.373,1.367
			c-0.74,0.726-1.48,1.45-2.184,2.212C1.316,22.594,1.18,22.751,0.957,22.628z"/>
		<path fill="#EE7C0D" d="M0.957,22.628c0.157-0.011,0.291-0.076,0.391-0.19c0.709-0.801,1.48-1.539,2.247-2.285
			c0.854-0.829,1.659-1.709,2.512-2.537c0.579-0.56,1.089-1.188,1.731-1.683c0.191-0.146,0.252-0.461,0.578-0.433
			c0.055,0.082,0.109,0.164,0.164,0.246c-0.004,0.025-0.006,0.05-0.008,0.075c-0.043,0.012-0.07,0.04-0.08,0.081
			c-0.041,0.012-0.07,0.039-0.082,0.082c-0.041,0.011-0.067,0.038-0.08,0.081c-0.042,0.011-0.069,0.039-0.081,0.081
			c-0.043,0.012-0.069,0.038-0.079,0.081c-0.045,0.012-0.072,0.038-0.084,0.081c-0.041,0.012-0.068,0.039-0.078,0.082
			c-0.043,0.011-0.07,0.039-0.084,0.081c-0.043,0.012-0.069,0.039-0.081,0.082c-0.042,0.011-0.069,0.039-0.079,0.08
			c-0.045,0.013-0.07,0.04-0.082,0.081c-0.044,0.012-0.069,0.039-0.081,0.082c-0.042,0.011-0.069,0.038-0.08,0.082
			c-0.042,0.01-0.069,0.038-0.081,0.081c-0.041,0.012-0.068,0.039-0.082,0.082c-0.041,0.01-0.069,0.037-0.079,0.081
			c-0.044,0.011-0.071,0.038-0.083,0.081c-0.041,0.012-0.07,0.039-0.08,0.08c-0.043,0.012-0.07,0.039-0.082,0.082
			c-0.041,0.012-0.068,0.038-0.078,0.081c-0.044,0.012-0.074,0.039-0.083,0.082c-0.043,0.012-0.069,0.038-0.081,0.082
			c-0.043,0.011-0.07,0.037-0.08,0.081c-0.043,0.011-0.07,0.039-0.082,0.081c-0.041,0.011-0.068,0.038-0.08,0.081
			c-0.043,0.012-0.071,0.039-0.084,0.082c-0.041,0.01-0.068,0.038-0.078,0.082c-0.043,0.01-0.07,0.039-0.08,0.08
			c-0.043,0.012-0.072,0.038-0.082,0.081c-0.041,0.011-0.07,0.038-0.083,0.082c-0.041,0.013-0.068,0.039-0.08,0.08
			c-0.042,0.011-0.069,0.039-0.081,0.082c-0.039,0.011-0.068,0.038-0.08,0.081c-0.043,0.012-0.068,0.038-0.08,0.081
			c-0.043,0.012-0.07,0.039-0.083,0.082c-0.042,0.012-0.069,0.038-0.079,0.081c-0.043,0.012-0.072,0.039-0.082,0.082
			c-0.045,0.011-0.069,0.039-0.081,0.08c-0.044,0.012-0.07,0.04-0.082,0.083c-0.041,0.01-0.068,0.036-0.079,0.081
			c-0.043,0.012-0.07,0.039-0.08,0.08c-0.043,0.011-0.072,0.039-0.084,0.082c-0.042,0.012-0.068,0.039-0.079,0.082
			c-0.044,0.01-0.069,0.037-0.083,0.08c-0.041,0.011-0.068,0.039-0.08,0.082c-0.043,0.012-0.07,0.039-0.08,0.08
			c-0.043,0.012-0.069,0.039-0.082,0.082c-0.042,0.012-0.069,0.039-0.08,0.082c-0.043,0.012-0.07,0.038-0.082,0.08
			c-0.041,0.012-0.068,0.038-0.08,0.082c-0.043,0.012-0.07,0.039-0.08,0.08c-0.045,0.012-0.07,0.039-0.08,0.082
			c-0.045,0.012-0.071,0.038-0.084,0.08c-0.043,0.012-0.07,0.039-0.08,0.082C4.157,20.22,4.134,20.248,4.12,20.29
			c-0.041,0.012-0.068,0.039-0.08,0.082c-0.044,0.01-0.072,0.038-0.079,0.081c-0.045,0.011-0.069,0.039-0.081,0.081
			c-0.045,0.012-0.07,0.039-0.082,0.082c-0.043,0.011-0.068,0.038-0.08,0.082c-0.043,0.01-0.07,0.036-0.084,0.079
			c-0.042,0.013-0.068,0.039-0.078,0.082c-0.043,0.012-0.07,0.039-0.08,0.082c-0.045,0.011-0.074,0.039-0.084,0.082
			c-0.042,0.011-0.068,0.037-0.081,0.08c-0.043,0.012-0.068,0.039-0.08,0.082c-0.042,0.01-0.069,0.037-0.079,0.08
			c-0.045,0.012-0.07,0.039-0.084,0.08C3.025,21.357,3,21.385,2.989,21.428c-0.043,0.012-0.071,0.038-0.081,0.081
			c-0.043,0.011-0.072,0.038-0.084,0.081c-0.041,0.012-0.068,0.039-0.078,0.081c-0.043,0.011-0.07,0.039-0.083,0.082
			c-0.041,0.011-0.068,0.037-0.08,0.08c-0.044,0.012-0.069,0.039-0.081,0.081c-0.043,0.011-0.068,0.038-0.08,0.08
			c-0.045,0.013-0.07,0.04-0.082,0.083c-0.041,0.01-0.07,0.038-0.08,0.081c-0.043,0.012-0.07,0.039-0.081,0.081
			c-0.044,0.012-0.069,0.038-0.081,0.081c-0.043,0.012-0.07,0.039-0.08,0.082c-0.043,0.012-0.071,0.039-0.081,0.08
			c-0.044,0.013-0.069,0.039-0.084,0.084c-0.039,0.01-0.068,0.037-0.078,0.08c-0.044,0.011-0.071,0.039-0.083,0.08
			c-0.039,0.012-0.068,0.039-0.08,0.084c-0.043,0.01-0.068,0.037-0.08,0.08c-0.045,0.012-0.072,0.039-0.081,0.082
			c-0.042,0.01-0.071,0.037-0.081,0.079c-0.045,0.013-0.07,0.039-0.082,0.082c-0.043,0.011-0.069,0.038-0.079,0.081
			c-0.043,0.012-0.071,0.039-0.083,0.081c-0.044,0.011-0.068,0.038-0.078,0.081C1,23.369,0.971,23.396,0.959,23.439
			c-0.041,0.01-0.07,0.037-0.08,0.08c-0.042,0.012-0.069,0.039-0.081,0.082c-0.044,0.01-0.069,0.037-0.081,0.08
			c-0.043,0.012-0.07,0.038-0.082,0.082c-0.041,0.012-0.068,0.038-0.08,0.08c-0.042,0.012-0.072,0.039-0.081,0.082
			c-0.041,0.01-0.071,0.037-0.08,0.08c-0.046,0.012-0.071,0.039-0.083,0.08c-0.025,0.002-0.051,0.004-0.078,0.006
			c0.006-0.064-0.012-0.143,0.02-0.193C0.489,23.477,0.633,23.001,0.957,22.628z"/>
		<path fill="#EE7C0D" d="M0.236,24.088c-0.004,0.026-0.004,0.053-0.008,0.08c-0.023,0.002-0.053,0.006-0.078,0.016
			C0.16,24.134,0.186,24.102,0.236,24.088z"/>
		<path fill="#CFD1D2" d="M63.797,18.568c-0.016-0.859-0.307-1.626-0.955-2.245c-1.184-1.132-3.283-1.142-4.395-0.535
			c-0.637,0.348-1.143,0.832-1.428,1.551c0.467,0.2,0.903,0.387,1.338,0.57c0.615-0.997,1.606-1.369,2.664-1.03
			c0.896,0.289,1.391,1.032,1.319,2.021c-0.487-0.252-0.967-0.377-1.463-0.436c-1.075-0.123-2.103,0.005-3.028,0.608
			c-1.263,0.821-1.545,2.586-0.601,3.755c1.114,1.378,3.577,1.416,4.748,0.076c0.101-0.114,0.176-0.262,0.375-0.368
			c0,0.383,0,0.712,0,1.057c0.487,0,0.938,0,1.392,0c0.02-0.056,0.043-0.092,0.043-0.13C63.807,21.833,63.828,20.201,63.797,18.568z
			 M62.363,20.418c-0.133,1.499-2.063,2.561-3.393,1.864c-0.781-0.409-0.935-1.315-0.324-1.962c0.412-0.438,0.94-0.608,1.526-0.62
			c0.121-0.001,0.244,0,0.363,0c0.558-0.019,1.103,0.059,1.598,0.336C62.289,20.121,62.381,20.22,62.363,20.418z"/>
		<path fill="#CFD1D2" d="M79.943,19.923c0.117-0.325,0.037-0.616,0.014-0.907c-0.141-1.874-1.43-3.608-3.807-3.623
			c-1.213-0.006-2.207,0.43-2.971,1.37c-0.791,0.97-1.095,2.092-0.984,3.325c0.117,1.27,0.645,2.328,1.697,3.088
			c0.918,0.662,1.965,0.809,3.047,0.649c1.287-0.189,2.221-0.894,2.785-2.124c-0.451-0.188-0.879-0.364-1.302-0.54
			c-0.784,1.235-1.924,1.659-3.116,1.183c-0.996-0.396-1.73-1.527-1.537-2.421C75.823,19.923,77.881,19.923,79.943,19.923z
			 M76.545,16.796c0.973,0.102,1.762,0.9,1.801,1.845c-1.502,0-2.998,0-4.525,0C74.129,17.333,75.152,16.647,76.545,16.796z"/>
		<path fill="#CFD1D2" d="M43.506,19.932c1.037,0,2.072,0,3.137,0c0.035-0.511,0.027-0.977-0.074-1.438
			c-0.319-1.435-1.09-2.505-2.547-2.914c-1.489-0.418-2.869-0.203-3.977,0.984c-0.989,1.059-1.328,2.337-1.137,3.744
			c0.221,1.643,1.092,2.817,2.691,3.377c0.567,0.198,1.159,0.217,1.758,0.166c1.414-0.119,2.41-0.832,3.063-2.149
			c-0.483-0.169-0.894-0.403-1.34-0.521c-0.726,1.194-1.83,1.621-3.035,1.189c-1.01-0.36-1.736-1.445-1.604-2.438
			C41.459,19.932,42.482,19.932,43.506,19.932z M43.125,16.79c1.031,0.067,1.902,0.909,1.9,1.856c-1.504,0-3.004,0-4.508,0
			C40.67,17.464,41.75,16.699,43.125,16.79z"/>
	</g>
</g>
</svg>
