<?xml version="1.0" encoding="utf-8"?>
<!-- Generator: Adobe Illustrator 16.0.0, SVG Export Plug-In . SVG Version: 6.00 Build 0)  -->
<!DOCTYPE svg PUBLIC "-//W3C//DTD SVG 1.0//EN" "http://www.w3.org/TR/2001/REC-SVG-20010904/DTD/svg10.dtd">
<svg version="1.0" id="Layer_1" xmlns="http://www.w3.org/2000/svg" xmlns:xlink="http://www.w3.org/1999/xlink" x="0px" y="0px"
	 width="80px" height="35px" viewBox="0 0 80 35" enable-background="new 0 0 80 35" xml:space="preserve">
<g id="footer_x5F_logos">
	<g>
		<path fill="#010101" d="M79.652,22.275c-0.754-0.056-1.512,0.031-2.264-0.116c-1.031-0.201-1.469-0.644-1.586-1.697
			c-0.141-1.297-0.045-2.602-0.07-3.903c-0.006-0.33,0-0.662,0-0.979c-0.271-0.218-0.576-0.04-0.877-0.157
			c-0.092-0.27-0.037-0.57-0.035-0.864c0.261-0.199,0.57-0.01,0.9-0.167c0-0.66,0-1.354,0-2.079
			c0.463-0.065,0.853-0.054,1.291-0.012c0,0.711,0,1.39,0,2.159c0.908,0,1.776,0,2.641,0c0,0.333,0,0.663,0,0.995
			c-0.861,0-1.727,0-2.59,0c0,1.622-0.022,3.133,0.011,4.645c0.014,0.819,0.263,1.021,1.09,1.049
			c0.501,0.015,0.994-0.004,1.489-0.01C79.652,21.518,79.652,21.896,79.652,22.275z"/>
		<path fill="#010101" d="M46.383,17.387c1.557,1.245,1.997,3.155,3.008,4.824c-0.552,0-1.007,0-1.525,0
			c-0.285-0.564-0.592-1.171-0.896-1.777c-0.146-0.295-0.307-0.586-0.438-0.888c-0.532-1.228-1.424-1.839-2.797-1.68
			c-0.318,0.036-0.646,0.004-1.012,0.004c0,1.471,0,2.882,0,4.319c-0.474,0.113-0.908,0.06-1.382,0.05c0-3.456,0-6.871,0-10.358
			c1.478,0.077,2.941-0.137,4.39,0.142c1.336,0.258,2.088,1.025,2.225,2.229c0.164,1.441-0.221,2.541-1.479,3.053
			C46.441,17.319,46.416,17.357,46.383,17.387z M42.73,16.687c0.783,0,1.521,0.068,2.237-0.017c1.052-0.12,1.585-0.811,1.56-1.846
			c-0.022-1.022-0.606-1.674-1.666-1.759c-0.699-0.056-1.402-0.011-2.131-0.011C42.73,14.279,42.73,15.455,42.73,16.687z"/>
		<path fill="#010101" d="M56.818,20.645c0,0.461,0,0.812,0,1.195c-1.411,0.602-2.867,0.821-4.348,0.383
			c-1.271-0.379-2.074-1.27-2.389-2.572c-0.256-1.06-0.212-2.114,0.188-3.132c0.631-1.612,2.209-2.444,4.101-2.193
			c1.5,0.199,2.528,1.364,2.723,3.081c0.048,0.396,0.085,0.792,0.021,1.257c-1.934,0-3.836,0-5.733,0
			c-0.079,1.69,1.017,2.728,2.767,2.685C55.055,21.326,55.911,21.09,56.818,20.645z M55.785,17.63
			c0.029-1.416-0.84-2.293-2.15-2.258c-1.49,0.042-2.422,1.292-2.201,2.258C52.885,17.63,54.334,17.63,55.785,17.63z"/>
		<path fill="#010101" d="M59.367,15.911c-0.098-0.352-0.024-0.7-0.042-1.066c1.093-0.46,2.196-0.635,3.343-0.513
			c1.568,0.167,2.548,1.225,2.609,2.931c0.06,1.629,0.016,3.264,0.016,4.926c-0.398,0.125-0.791,0.043-1.23,0.061
			c-0.02-0.329-0.037-0.627-0.056-0.925c-0.155-0.087-0.198,0.065-0.266,0.137c-0.994,1.083-2.234,1.181-3.522,0.771
			c-0.941-0.299-1.408-1.065-1.453-2.061c-0.06-1.188,0.385-2.002,1.332-2.439c0.7-0.325,1.457-0.384,2.217-0.407
			c0.541-0.015,1.084-0.002,1.619-0.002c0.133-0.973-0.401-1.688-1.379-1.869c-0.857-0.157-1.691-0.05-2.515,0.235
			C59.82,15.766,59.628,15.929,59.367,15.911z M63.986,18.327c-1.049,0-2.043-0.073-3.002,0.224
			c-0.688,0.213-0.967,0.646-0.953,1.381c0.015,0.68,0.387,1.17,1.021,1.354c1.088,0.311,2.176-0.166,2.661-1.186
			C63.973,19.563,64.087,18.994,63.986,18.327z"/>
		<path fill="#010101" d="M73.484,20.836c0.111,0.361,0.014,0.709,0.06,1.033c-1.399,0.847-4.046,0.826-5.237-0.646
			c-1.162-1.43-1.246-4.111-0.117-5.571c1.109-1.428,3.354-1.79,5.324-0.849c0.038,0.344,0.043,0.696-0.007,1.091
			c-1.556-0.536-3.141-1.083-4.321,0.622c-0.722,1.046-0.625,3.041,0.176,3.953C70.586,21.854,72.04,21.361,73.484,20.836z"/>
		<g>
			<path fill="#010101" d="M31.298,24.092c0.069,0.745,0.271,1.426,0.379,2.121c0.287,1.834,0.437,3.676-0.09,5.471
				c-0.693,2.371-2.416,3.678-4.994,3.129c-2.094-0.445-3.792-1.645-5.392-2.994c-0.436-0.365-0.856-0.742-1.324-1.151
				c-0.685,0.457-1.204,1.11-1.863,1.599c-1.352,1-2.722,1.942-4.367,2.424c-2.726,0.797-4.751-0.433-5.522-3.045
				c-0.307-1.026-0.281-2.086-0.272-3.148c0.013-1.43,0.255-2.818,0.595-4.197c0.015-0.063-0.016-0.137-0.028-0.234
				c-1.105-0.377-2.232-0.722-3.287-1.231c-1.409-0.681-2.732-1.472-3.767-2.7c-1.489-1.771-1.287-3.94,0.242-5.571
				c1.35-1.435,3.046-2.281,4.855-2.954c0.657-0.245,1.318-0.484,1.993-0.732c-0.17-0.88-0.39-1.702-0.479-2.538
				C7.804,6.743,7.675,5.13,8.074,3.554c0.335-1.311,0.938-2.48,2.257-3.099c1.182-0.554,2.391-0.466,3.587-0.08
				c1.834,0.593,3.353,1.71,4.799,2.942c0.372,0.32,0.744,0.642,1.154,0.996c0.593-0.513,1.138-1.029,1.73-1.489
				c1.4-1.096,2.85-2.149,4.611-2.563c2.649-0.62,4.517,0.235,5.364,3.005c0.536,1.743,0.42,3.546,0.121,5.33
				c-0.105,0.626-0.155,1.263-0.35,1.873c-0.114,0.354,0.072,0.503,0.396,0.611c0.828,0.273,1.649,0.561,2.456,0.893
				c1.239,0.51,2.37,1.188,3.38,2.045c0.971,0.828,1.702,1.855,1.808,3.18c0.094,1.188-0.368,2.208-1.155,3.093
				c-1.193,1.341-2.711,2.186-4.344,2.848C33.062,23.475,32.214,23.759,31.298,24.092z M19.823,11.174
				c-0.946,0.014-1.986,0.003-3.022,0.118c-0.368,0.04-0.606,0.137-0.81,0.447c-1.137,1.717-2.151,3.501-3.084,5.334
				c-0.142,0.276-0.149,0.495-0.009,0.787c0.931,1.917,1.993,3.755,3.192,5.514c0.13,0.188,0.249,0.321,0.498,0.328
				c0.778,0.017,1.548,0.172,2.334,0.146c1.346-0.05,2.695,0.051,4.039-0.129c0.336-0.045,0.561-0.138,0.749-0.419
				c1.149-1.708,2.155-3.499,3.095-5.329c0.148-0.294,0.182-0.567,0.028-0.875c-0.938-1.888-1.989-3.706-3.159-5.458
				c-0.144-0.216-0.305-0.31-0.571-0.338C22.043,11.184,20.979,11.177,19.823,11.174z M8.954,22.465
				c0.379-1.322,0.815-2.572,1.396-3.747c0.446-0.889,0.434-1.62-0.017-2.493c-0.593-1.143-0.978-2.389-1.369-3.581
				c-0.087-0.02-0.112-0.034-0.133-0.03c-0.181,0.043-0.368,0.081-0.546,0.139c-1.984,0.644-3.929,1.362-5.419,2.931
				c-1.107,1.164-1.119,2.485-0.004,3.634C4.524,21.03,6.706,21.721,8.954,22.465z M21.075,29.395
				c0.511,0.611,1.064,1.051,1.618,1.491c1.223,0.974,2.494,1.866,4.043,2.259c1.563,0.396,2.641-0.168,3.174-1.672
				c0.062-0.177,0.104-0.363,0.146-0.546c0.265-1.12,0.215-2.262,0.115-3.383c-0.09-0.995-0.211-2.011-0.596-2.948
				c-0.066-0.02-0.115-0.049-0.153-0.041c-1.622,0.293-3.236,0.611-4.887,0.717c-0.155,0.009-0.244,0.125-0.327,0.244
				C23.266,26.869,22.199,28.124,21.075,29.395z M30.828,22.439c0.933-0.23,1.736-0.565,2.537-0.896
				c1.091-0.453,2.163-0.97,3.049-1.766c1.598-1.432,1.808-2.865,0.231-4.339c-1.633-1.528-3.684-2.217-5.728-2.847
				c-0.179,0.117-0.222,0.258-0.27,0.388c-0.411,1.152-0.746,2.342-1.321,3.424c-0.419,0.788-0.396,1.495,0.04,2.238
				c0.119,0.2,0.196,0.428,0.278,0.648C30.038,20.32,30.423,21.354,30.828,22.439z M10.087,24.6
				c-0.156,0.819-0.347,1.645-0.46,2.477c-0.193,1.359-0.26,2.722,0.104,4.07c0.488,1.809,1.7,2.483,3.493,1.933
				c1.661-0.511,3.033-1.5,4.316-2.625c0.362-0.317,0.827-0.552,1.055-1.049c-0.093-0.145-0.162-0.298-0.273-0.416
				c-1.009-1.095-1.94-2.253-2.779-3.483c-0.141-0.205-0.323-0.224-0.545-0.25c-1.212-0.143-2.431-0.253-3.633-0.51
				C10.968,24.66,10.562,24.447,10.087,24.6z M18.65,5.585c-0.427-0.555-0.972-0.976-1.501-1.402
				c-1.257-1.01-2.545-1.986-4.167-2.318c-1.572-0.323-2.644,0.06-3.178,1.769C9.77,3.746,9.742,3.861,9.714,3.975
				C9.272,5.617,9.495,7.252,9.79,8.88c0.098,0.52,0.137,1.065,0.381,1.592c1.612-0.322,3.207-0.607,4.824-0.732
				c0.268-0.022,0.483-0.176,0.638-0.403C16.54,8.008,17.602,6.808,18.65,5.585z M21.054,5.624c1.118,1.127,2.066,2.33,2.945,3.579
				c0.294,0.414,0.66,0.544,1.132,0.576c0.562,0.04,1.114,0.166,1.677,0.213c0.93,0.082,1.834,0.321,2.77,0.483
				c0.586-1.95,0.756-3.891,0.598-5.852c-0.057-0.673-0.287-1.332-0.664-1.922C29.2,2.214,28.764,1.883,28.21,1.813
				c-0.584-0.07-1.174-0.072-1.755,0.115C25.594,2.204,24.797,2.6,24.05,3.101C22.976,3.823,21.965,4.623,21.054,5.624z
				 M17.595,25.463c0.737,1.045,1.471,1.885,2.272,2.725c0.827-0.877,1.597-1.705,2.244-2.725
				C20.597,25.463,19.172,25.463,17.595,25.463z M25.595,11.522c0.886,1.311,1.51,2.638,2.341,3.987
				c0.463-1.184,0.936-2.222,1.172-3.379C27.962,11.79,26.852,11.661,25.595,11.522z M11.825,19.475
				c-0.512,1.176-0.916,2.219-1.22,3.363c1.151,0.352,2.306,0.46,3.563,0.678C13.33,22.188,12.604,20.913,11.825,19.475z
				 M27.927,19.498c-0.783,1.357-1.502,2.609-2.271,3.938c1.055-0.031,1.992-0.242,2.924-0.447c0.541-0.12,0.57-0.178,0.394-0.723
				C28.682,21.375,28.352,20.496,27.927,19.498z M11.827,15.521c0.715-1.389,1.447-2.591,2.212-3.863
				c-1.243-0.15-2.306,0.261-3.434,0.444C10.895,13.274,11.325,14.337,11.827,15.521z M22.047,9.462
				C21.379,8.45,20.661,7.64,19.854,6.82c-0.803,0.845-1.516,1.672-2.211,2.642C19.131,9.462,20.511,9.462,22.047,9.462z"/>
			<path fill="#010101" d="M16.406,17.463c-0.083-1.77,1.324-3.522,3.509-3.492c2.057,0.027,3.421,1.618,3.457,3.512
				c0.037,1.927-1.568,3.485-3.512,3.516C18.016,21.027,16.221,19.299,16.406,17.463z"/>
		</g>
	</g>
</g>
</svg>
