<?xml version="1.0" encoding="utf-8"?>
<!-- Generator: Adobe Illustrator 16.0.0, SVG Export Plug-In . SVG Version: 6.00 Build 0)  -->
<!DOCTYPE svg PUBLIC "-//W3C//DTD SVG 1.0//EN" "http://www.w3.org/TR/2001/REC-SVG-20010904/DTD/svg10.dtd">
<svg version="1.0" id="Layer_1" xmlns="http://www.w3.org/2000/svg" xmlns:xlink="http://www.w3.org/1999/xlink" x="0px" y="0px"
	 width="20px" height="20px" viewBox="0 0 20 20" enable-background="new 0 0 20 20" xml:space="preserve">
<path fill="#323232" d="M9.467,0C6.781,0,4.348,1.061,2.553,2.784l-1.86-1.335l0.945,5.758l5.758-0.946L5.355,4.796
	c1.131-0.895,2.557-1.43,4.111-1.43c3.664,0,6.632,2.97,6.632,6.634c0,3.663-2.968,6.633-6.632,6.633
	c-2.211,0-4.164-1.084-5.367-2.747l-0.055-0.009l-3.51,0.577C2.172,17.738,5.547,20,9.467,20c5.523,0,9.998-4.477,9.998-10
	C19.465,4.477,14.99,0,9.467,0z"/>
</svg>
