<?xml version="1.0" encoding="utf-8"?>
<!-- Generator: Adobe Illustrator 16.0.0, SVG Export Plug-In . SVG Version: 6.00 Build 0)  -->
<!DOCTYPE svg PUBLIC "-//W3C//DTD SVG 1.1//EN" "http://www.w3.org/Graphics/SVG/1.1/DTD/svg11.dtd">
<svg version="1.1" xmlns="http://www.w3.org/2000/svg" xmlns:xlink="http://www.w3.org/1999/xlink" x="0px" y="0px" width="250px"
	 height="51.75px" viewBox="0 0 250 51.75" enable-background="new 0 0 250 51.75" xml:space="preserve">
<g id="backgrounds">
</g>
<g id="dev">
</g>
<g id="colors">
</g>
<g id="old_x5F_logo">
</g>
<g id="new_x5F_logo">
	<path d="M95.67,14.441c2.006,0,3.835,0.204,5.488,0.612c1.653,0.41,3.064,1.031,4.235,1.867c1.17,0.835,2.071,1.894,2.702,3.177
		c0.631,1.281,0.947,2.794,0.947,4.541V37.12c0,0.966-0.271,1.755-0.807,2.368c-0.539,0.613-1.181,1.142-1.923,1.588
		c-2.415,1.449-5.815,2.172-10.198,2.172c-1.969,0-3.742-0.186-5.321-0.558c-1.579-0.371-2.935-0.927-4.068-1.671
		c-1.134-0.742-2.006-1.689-2.619-2.841c-0.612-1.151-0.919-2.489-0.919-4.012c0-2.564,0.761-4.531,2.284-5.907
		c1.523-1.373,3.881-2.229,7.077-2.563l7.301-0.78v-0.39c0-1.078-0.473-1.848-1.422-2.313c-0.946-0.464-2.313-0.696-4.095-0.696
		c-1.413,0-2.787,0.149-4.124,0.446c-1.337,0.297-2.545,0.668-3.623,1.114c-0.482-0.334-0.891-0.845-1.227-1.533
		c-0.332-0.687-0.5-1.402-0.5-2.145c0-0.966,0.231-1.736,0.697-2.313c0.463-0.576,1.179-1.069,2.146-1.477
		c1.076-0.409,2.349-0.706,3.815-0.893C92.985,14.534,94.368,14.441,95.67,14.441z M96.115,36.339c0.633,0,1.328-0.065,2.089-0.195
		c0.761-0.13,1.328-0.306,1.7-0.529v-4.458l-4.012,0.334c-1.041,0.075-1.896,0.298-2.563,0.668
		c-0.669,0.372-1.003,0.929-1.003,1.672c0,0.744,0.287,1.347,0.863,1.811C93.765,36.108,94.74,36.339,96.115,36.339z"/>
	<path d="M120.002,42.301c-0.372,0.112-0.957,0.224-1.756,0.335s-1.625,0.167-2.479,0.167c-0.817,0-1.549-0.056-2.202-0.167
		c-0.649-0.111-1.197-0.335-1.642-0.668c-0.446-0.335-0.791-0.789-1.03-1.366c-0.243-0.575-0.363-1.328-0.363-2.256V21.628
		c0-0.854,0.157-1.588,0.473-2.201c0.316-0.613,0.771-1.16,1.365-1.644c0.596-0.482,1.329-0.92,2.202-1.31
		c0.873-0.39,1.812-0.733,2.813-1.031c1.004-0.296,2.044-0.529,3.121-0.696c1.077-0.168,2.154-0.251,3.233-0.251
		c1.781,0,3.193,0.343,4.234,1.031c1.041,0.688,1.561,1.81,1.561,3.37c0,0.521-0.075,1.032-0.222,1.533
		c-0.151,0.501-0.336,0.958-0.558,1.365c-0.781,0-1.58,0.038-2.396,0.112c-0.819,0.075-1.616,0.186-2.396,0.334
		c-0.78,0.149-1.516,0.307-2.201,0.473c-0.688,0.167-1.273,0.363-1.756,0.586V42.301z"/>
	<path d="M140.377,33.052c0,0.966,0.308,1.653,0.921,2.062c0.614,0.409,1.477,0.614,2.592,0.614c0.557,0,1.133-0.047,1.726-0.14
		c0.594-0.093,1.115-0.213,1.561-0.363c0.334,0.409,0.622,0.864,0.863,1.365c0.242,0.502,0.364,1.106,0.364,1.811
		c0,1.413-0.529,2.563-1.59,3.456c-1.058,0.892-2.924,1.336-5.6,1.336c-3.27,0-5.787-0.743-7.55-2.229
		c-1.766-1.485-2.648-3.901-2.648-7.244V9.871c0.411-0.111,0.995-0.231,1.756-0.362c0.763-0.13,1.57-0.195,2.423-0.195
		c1.636,0,2.907,0.288,3.818,0.862c0.91,0.577,1.364,1.794,1.364,3.651v3.566h7.301c0.224,0.409,0.437,0.919,0.642,1.533
		c0.203,0.613,0.308,1.291,0.308,2.033c0,1.301-0.29,2.238-0.865,2.815c-0.578,0.575-1.347,0.863-2.313,0.863h-5.072V33.052z"/>
	<path d="M169.471,2.311c0.771-0.453,1.939-0.885,3.508-1.294c1.566-0.409,3.145-0.612,4.732-0.612c2.27,0,4.28,0.329,6.027,0.986
		c1.748,0.659,2.873,1.693,3.371,3.1c0.818,2.361,1.703,5.108,2.657,8.24c0.952,3.134,1.906,6.368,2.86,9.706
		c0.953,3.337,1.884,6.629,2.793,9.875c0.906,3.247,1.703,6.119,2.383,8.616c-0.545,0.636-1.363,1.146-2.451,1.531
		c-1.089,0.386-2.384,0.58-3.883,0.58c-1.09,0-2.01-0.092-2.76-0.272c-0.747-0.183-1.361-0.454-1.838-0.817
		c-0.477-0.363-0.863-0.84-1.157-1.431c-0.297-0.589-0.556-1.271-0.783-2.043l-1.228-4.699h-12.326
		c-0.362,1.362-0.728,2.77-1.09,4.222c-0.362,1.454-0.726,2.86-1.088,4.223c-0.638,0.226-1.308,0.419-2.01,0.579
		c-0.705,0.158-1.556,0.238-2.554,0.238c-2.316,0-4.031-0.398-5.144-1.192c-1.112-0.793-1.667-1.896-1.667-3.302
		c0-0.636,0.091-1.271,0.271-1.907c0.181-0.636,0.387-1.384,0.614-2.248c0.316-1.226,0.758-2.747,1.326-4.563
		c0.567-1.816,1.192-3.78,1.874-5.892c0.68-2.111,1.406-4.279,2.18-6.503c0.771-2.224,1.498-4.324,2.18-6.3
		c0.681-1.976,1.304-3.735,1.873-5.279C168.71,4.31,169.153,3.128,169.471,2.311z M177.645,11.097
		c-0.638,1.908-1.354,4.03-2.146,6.368c-0.795,2.339-1.51,4.711-2.146,7.117h8.445c-0.635-2.452-1.284-4.847-1.941-7.186
		c-0.657-2.337-1.258-4.437-1.803-6.299H177.645z"/>
	<path d="M53.314,14.441c1.523,0,3.019,0.214,4.486,0.64c1.467,0.428,2.74,1.068,3.815,1.922c1.115-0.743,2.37-1.356,3.762-1.839
		c1.394-0.482,3.074-0.724,5.044-0.724c1.411,0,2.794,0.185,4.149,0.556c1.358,0.372,2.565,0.958,3.623,1.755
		c1.06,0.799,1.904,1.858,2.536,3.177c0.631,1.319,0.947,2.925,0.947,4.819v17.553c-0.372,0.112-0.957,0.224-1.755,0.335
		c-0.8,0.111-1.625,0.167-2.481,0.167c-0.816,0-1.551-0.056-2.2-0.167s-1.198-0.335-1.644-0.668
		c-0.445-0.335-0.788-0.789-1.03-1.366c-0.242-0.575-0.363-1.328-0.363-2.256V25.028c0-1.115-0.315-1.922-0.945-2.425
		c-0.634-0.501-1.488-0.751-2.564-0.751c-0.521,0-1.078,0.121-1.671,0.362c-0.596,0.243-1.041,0.492-1.34,0.752
		c0.037,0.149,0.057,0.289,0.057,0.418c0,0.13,0,0.25,0,0.362v18.555c-0.408,0.112-1.011,0.224-1.811,0.335
		c-0.799,0.111-1.606,0.167-2.424,0.167c-0.818,0-1.552-0.056-2.2-0.167c-0.65-0.111-1.199-0.335-1.646-0.668
		c-0.445-0.335-0.789-0.789-1.031-1.366c-0.241-0.575-0.361-1.328-0.361-2.256V25.028c0-1.115-0.345-1.922-1.03-2.425
		c-0.688-0.501-1.513-0.751-2.48-0.751c-0.669,0-1.244,0.103-1.727,0.306c-0.483,0.204-0.894,0.4-1.227,0.585v19.559
		c-0.372,0.112-0.956,0.224-1.755,0.335s-1.627,0.167-2.479,0.167c-0.818,0-1.552-0.056-2.203-0.167
		c-0.648-0.111-1.197-0.335-1.644-0.668c-0.446-0.335-0.79-0.789-1.03-1.366c-0.243-0.575-0.362-1.328-0.362-2.256V21.517
		c0-1.003,0.214-1.802,0.64-2.396c0.428-0.594,1.013-1.151,1.758-1.672c1.261-0.892,2.831-1.615,4.708-2.172
		C49.311,14.718,51.271,14.441,53.314,14.441z"/>
	<path d="M15.909,30.887c-2.37-0.807-4.521-1.627-6.46-2.463C7.512,27.59,5.842,26.58,4.44,25.396
		c-1.398-1.184-2.489-2.597-3.271-4.24C0.389,19.515,0,17.51,0,15.14c0-4.577,1.764-8.238,5.289-10.984
		c3.527-2.745,8.466-4.118,14.819-4.118c2.314,0,4.468,0.161,6.462,0.484c1.992,0.323,3.701,0.821,5.129,1.493
		c1.426,0.674,2.543,1.536,3.351,2.585c0.808,1.05,1.211,2.275,1.211,3.674c0,1.401-0.322,2.598-0.968,3.594
		c-0.647,0.998-1.428,1.846-2.342,2.544c-1.187-0.753-2.774-1.413-4.767-1.979c-1.992-0.565-4.172-0.848-6.54-0.848
		c-2.423,0-4.2,0.337-5.331,1.01c-1.13,0.673-1.696,1.522-1.696,2.544c0,0.807,0.352,1.467,1.051,1.979
		c0.699,0.512,1.749,0.982,3.148,1.413l4.28,1.373c5.061,1.615,8.951,3.673,11.671,6.178c2.717,2.503,4.078,5.909,4.078,10.216
		c0,4.576-1.806,8.278-5.411,11.104c-3.607,2.827-8.911,4.24-15.91,4.24c-2.477,0-4.778-0.202-6.903-0.605
		c-2.13-0.404-3.986-0.996-5.574-1.777c-1.588-0.78-2.826-1.749-3.716-2.907C0.445,45.195,0,43.863,0,42.355
		c0-1.561,0.456-2.894,1.372-3.998c0.916-1.103,1.911-1.952,2.99-2.544c1.505,1.185,3.35,2.208,5.53,3.069
		c2.181,0.862,4.563,1.292,7.148,1.292c2.637,0,4.494-0.404,5.571-1.211c1.077-0.808,1.615-1.75,1.615-2.827
		c0-1.076-0.431-1.898-1.291-2.463c-0.861-0.565-2.073-1.117-3.636-1.655L15.909,30.887z"/>
	<path d="M220.86,42.732c-0.472,0.225-0.962,0.429-1.472,0.604c-1.768,0.608-3.742,0.925-5.869,0.953v2.966
		c0,0.928,0.109,1.681,0.334,2.257c0.222,0.576,0.557,1.031,1.002,1.366c0.446,0.333,0.994,0.556,1.643,0.667
		c0.651,0.111,1.385,0.167,2.204,0.167c0.852,0,1.688-0.065,2.507-0.194c0.816-0.13,1.411-0.25,1.783-0.363v-7.621
		c-0.41-0.125-0.824-0.263-1.238-0.418C221.754,43.117,221.377,43,220.86,42.732z"/>
	<path d="M226.092,22.3c-0.779-1.802-1.858-3.297-3.232-4.487c-1.375-1.188-3.018-2.07-4.932-2.646
		c-1.912-0.576-3.982-0.864-6.213-0.864c-2.117,0-4.031,0.223-5.74,0.668c-1.707,0.446-3.139,1.041-4.289,1.783
		c-0.744,0.521-1.328,1.097-1.757,1.728c-0.428,0.632-0.64,1.449-0.64,2.452v26.321c0,0.928,0.111,1.681,0.334,2.257
		c0.225,0.575,0.557,1.03,1.004,1.365c0.443,0.333,0.992,0.556,1.642,0.667c0.651,0.111,1.384,0.167,2.203,0.167
		c0.854,0,1.688-0.065,2.506-0.194c0.817-0.13,1.411-0.25,1.786-0.363v-7.621c-0.412-0.125-0.824-0.262-1.239-0.417
		c0,0-2.874-0.905-3.631-3.324c1.12,0.93,2.429,1.674,3.928,2.228c0.315,0.117,0.63,0.223,0.942,0.321v-0.012
		c0.328,0.116,0.666,0.218,1.012,0.307c0.029,0.007,0.062,0.015,0.092,0.023c1.057,0.262,2.174,0.394,3.354,0.394
		c2.117,0,4.039-0.296,5.768-0.891c1.727-0.593,3.203-1.495,4.429-2.702c1.226-1.208,2.173-2.703,2.841-4.486
		c0.672-1.783,1.004-3.863,1.004-6.24C227.262,26.247,226.873,24.101,226.092,22.3z M215.758,34.27
		c-0.006,0.006-0.012,0.011-0.018,0.016c-0.125,0.115-0.258,0.223-0.396,0.323c-0.014,0.01-0.027,0.021-0.043,0.03
		c-0.132,0.093-0.268,0.179-0.412,0.258c-0.021,0.012-0.044,0.024-0.066,0.038c-0.138,0.074-0.282,0.139-0.431,0.201
		c-0.03,0.011-0.061,0.025-0.091,0.037c-0.146,0.057-0.296,0.106-0.451,0.151c-0.038,0.011-0.072,0.023-0.111,0.033
		c-0.155,0.041-0.312,0.074-0.477,0.105c-0.041,0.008-0.083,0.018-0.128,0.025c-0.163,0.026-0.333,0.046-0.506,0.062
		c-0.047,0.004-0.092,0.011-0.138,0.015c-0.031,0.002-0.059,0.007-0.091,0.009c-0.07,0.034-0.146,0.052-0.22,0.052
		c-1.325,0-2.419-0.226-3.285-0.726c-0.061-0.028-0.122-0.055-0.181-0.084v-0.001c-0.002-0.001-0.006-0.003-0.008-0.004v-0.027
		c-1.512-0.984-2.268-2.887-2.268-6.01c0-2.377,0.342-4.154,1.289-5.306c0.788-0.957,1.598-1.505,3.17-1.664
		c0.359-0.057,0.741-0.088,1.152-0.088c1.115,0,2.068,0.227,2.859,0.679c0.473,0.271,0.889,0.622,1.244,1.054
		c0.949,1.152,1.422,2.918,1.422,5.294C217.576,31.308,216.966,33.146,215.758,34.27z"/>
	<path d="M239.98,21.572c-0.039,0.009-0.074,0.021-0.114,0.031c-0.502,0.113-1.036,0.17-1.589,0.17
		c-0.658,0-1.351-0.078-2.116-0.238c-2.999-0.629-5.604-1.916-7.74-3.82c-0.839-0.748-1.421-1.518-1.78-2.354
		c-0.152-0.356-0.234-0.707-0.256-1.049c-0.148-0.003-0.293-0.008-0.439-0.008c-1.958,0-3.74,0.193-5.348,0.574
		c1.129,0.543,2.16,1.211,3.072,2c1.502,1.3,2.693,2.949,3.543,4.898c0.723,0.093,1.367,0.298,1.925,0.618
		c0.475,0.27,0.892,0.622,1.245,1.054c0.949,1.152,1.422,2.917,1.422,5.294c0,2.567-0.609,4.404-1.818,5.528
		c-0.005,0.006-0.011,0.011-0.016,0.016c-0.127,0.115-0.257,0.223-0.396,0.323c-0.014,0.01-0.027,0.021-0.041,0.03
		c-0.134,0.093-0.27,0.179-0.413,0.258c-0.021,0.012-0.046,0.024-0.067,0.038c-0.139,0.073-0.281,0.139-0.431,0.201
		c-0.028,0.012-0.06,0.025-0.091,0.037c-0.145,0.057-0.295,0.106-0.451,0.151c-0.036,0.011-0.074,0.022-0.111,0.033
		c-0.152,0.041-0.311,0.074-0.475,0.105c-0.035,0.006-0.068,0.014-0.104,0.02c-0.729,1.915-1.772,3.55-3.103,4.862
		c-0.655,0.646-1.381,1.213-2.169,1.701c0.292,0.108,0.583,0.206,0.874,0.298v-0.012c0.33,0.116,0.668,0.218,1.011,0.307
		c0.032,0.007,0.062,0.015,0.093,0.023c1.057,0.262,2.174,0.394,3.352,0.394c2.119,0,4.042-0.296,5.768-0.891
		c1.729-0.593,3.206-1.495,4.432-2.703c1.227-1.207,2.173-2.702,2.842-4.485c0.668-1.783,1.004-3.863,1.004-6.241
		c0-2.488-0.392-4.634-1.171-6.435C240.215,22.051,240.098,21.809,239.98,21.572z"/>
	<path fill-rule="evenodd" clip-rule="evenodd" fill="#FFFFFF" d="M243.061,16.216c-0.057,0.125-0.093,0.209-0.13,0.294
		c-0.449,1.013-0.927,2.016-1.345,3.043c-0.324,0.801-0.963,1.243-1.854,1.445c-1.121,0.252-2.279,0.174-3.443-0.071
		c-2.807-0.588-5.319-1.77-7.456-3.675c-0.694-0.62-1.271-1.318-1.624-2.137c-0.27-0.631-0.293-1.234-0.021-1.823
		c0.482-1.047,0.941-2.104,1.41-3.156c0.036-0.085,0.074-0.17,0.129-0.295c0.096,0.091,0.167,0.153,0.229,0.219
		c1.799,1.891,3.598,3.779,5.389,5.675c0.17,0.181,0.325,0.255,0.577,0.261c2.616,0.059,5.233,0.13,7.849,0.198
		C242.848,16.197,242.925,16.207,243.061,16.216z"/>
	<g>
		<path fill-rule="evenodd" clip-rule="evenodd" fill="#FFFFFF" d="M246.815,15.997c-0.003,1.351-0.004,2.7-0.003,4.051
			c0,0.239,0.016,0.451-0.272,0.624c-0.265,0.159-0.253,0.501-0.05,0.722c0.073,0.079,0.17,0.142,0.268,0.223
			c-0.334,0.705-0.673,1.411-1.016,2.132c0.876,0.001,1.699,0.001,2.564,0.001c-0.346-0.727-0.679-1.43-1.012-2.128
			c0.549-0.44,0.546-0.614,0.016-1.105c-0.049-0.047-0.063-0.139-0.063-0.21c-0.004-1.548,0.002-3.097-0.004-4.645
			c0-0.067,0.012-0.12,0.041-0.163l-0.47,0.208C246.815,15.826,246.815,15.912,246.815,15.997z"/>
		<path fill-rule="evenodd" clip-rule="evenodd" fill="#FFFFFF" d="M249.869,15.729c-3.365-3.542-6.736-7.083-10.098-10.629
			c-0.172-0.183-0.33-0.255-0.58-0.261c-2.082-0.045-4.166-0.104-6.248-0.159c-2.85-0.074-5.701-0.149-8.615-0.225
			c0.081,0.09,0.122,0.141,0.168,0.188c3.388,3.564,6.771,7.129,10.163,10.688c0.083,0.087,0.254,0.154,0.376,0.158
			c3.744,0.105,7.488,0.2,11.232,0.299l0,0l1.174,0.03c0.014,0,0.021-0.003,0.035-0.002c0.729,0.028,1.461,0.043,2.19,0.063
			c0.099,0.002,0.196-0.002,0.325-0.005C249.932,15.803,249.904,15.764,249.869,15.729z"/>
	</g>
</g>
<g id="favicon">
</g>
<g id="_x31_92">
	<rect x="240" y="-102.625" display="none" fill-rule="evenodd" clip-rule="evenodd" fill="#000033" width="256" height="237"/>
</g>
<g id="_x35_12">
</g>
<g id="index_x5F_logo">
</g>
<g id="header_x5F_logo">
</g>
<g id="header_x5F_icon">
</g>
<g id="footer_x5F_logo">
	<g id="old_x5F_logo_1_" display="none">
		<linearGradient id="SVGID_1_" gradientUnits="userSpaceOnUse" x1="137.0732" y1="-0.0356" x2="137.0732" y2="19.2158">
			<stop  offset="0" style="stop-color:#F4A642"/>
			<stop  offset="1" style="stop-color:#D38F39"/>
		</linearGradient>
		<path display="inline" fill="url(#SVGID_1_)" d="M136.774-0.036c1.342,0,2.563,0.137,3.669,0.411
			c1.104,0.273,2.047,0.688,2.828,1.247c0.783,0.559,1.384,1.266,1.807,2.123c0.422,0.856,0.634,1.868,0.634,3.035v8.34
			c0,0.646-0.181,1.173-0.541,1.583c-0.359,0.409-0.787,0.763-1.283,1.061c-1.614,0.969-3.887,1.453-6.814,1.453
			c-1.316,0-2.5-0.125-3.556-0.373s-1.961-0.62-2.719-1.117c-0.759-0.496-1.341-1.129-1.749-1.899
			c-0.41-0.769-0.615-1.663-0.615-2.682c0-1.712,0.509-3.028,1.525-3.946c1.019-0.918,2.595-1.489,4.731-1.712l4.876-0.521V6.705
			c0-0.72-0.315-1.235-0.949-1.545c-0.634-0.311-1.545-0.465-2.736-0.465c-0.943,0-1.862,0.099-2.756,0.297
			c-0.895,0.2-1.7,0.447-2.42,0.745c-0.323-0.223-0.597-0.564-0.819-1.024c-0.224-0.458-0.336-0.937-0.336-1.433
			c0-0.645,0.155-1.161,0.466-1.546c0.312-0.384,0.788-0.713,1.433-0.986c0.722-0.273,1.571-0.471,2.552-0.596
			C134.981,0.027,135.905-0.036,136.774-0.036z M137.073,14.598c0.421,0,0.887-0.043,1.396-0.13
			c0.507-0.086,0.887-0.205,1.136-0.354v-2.979l-2.682,0.224c-0.694,0.05-1.266,0.199-1.713,0.447
			c-0.445,0.248-0.67,0.62-0.67,1.117s0.192,0.9,0.577,1.21C135.502,14.443,136.155,14.598,137.073,14.598z"/>
		<linearGradient id="SVGID_2_" gradientUnits="userSpaceOnUse" x1="155.001" y1="0.002" x2="155.001" y2="18.917">
			<stop  offset="0" style="stop-color:#F4A642"/>
			<stop  offset="1" style="stop-color:#D38F39"/>
		</linearGradient>
		<path display="inline" fill="url(#SVGID_2_)" d="M154.981,18.582c-0.248,0.074-0.638,0.149-1.172,0.223
			c-0.534,0.075-1.086,0.112-1.658,0.112c-0.546,0-1.035-0.037-1.471-0.112c-0.435-0.074-0.8-0.223-1.097-0.446
			c-0.299-0.225-0.529-0.528-0.689-0.913c-0.162-0.385-0.242-0.887-0.242-1.508V4.768c0-0.571,0.105-1.061,0.316-1.471
			s0.514-0.776,0.912-1.099c0.397-0.323,0.888-0.614,1.471-0.875c0.584-0.261,1.212-0.491,1.881-0.689
			c0.671-0.198,1.365-0.354,2.086-0.466c0.72-0.111,1.438-0.167,2.16-0.167c1.189,0,2.133,0.23,2.827,0.688
			c0.696,0.459,1.044,1.211,1.044,2.253c0,0.349-0.051,0.689-0.148,1.024c-0.1,0.335-0.224,0.639-0.373,0.912
			c-0.522,0-1.056,0.025-1.601,0.075c-0.547,0.05-1.08,0.125-1.602,0.224c-0.521,0.1-1.013,0.206-1.47,0.316
			c-0.46,0.112-0.852,0.242-1.175,0.391V18.582z"/>
		<linearGradient id="SVGID_3_" gradientUnits="userSpaceOnUse" x1="168.9824" y1="-3.46" x2="168.9824" y2="19.1782">
			<stop  offset="0" style="stop-color:#F4A642"/>
			<stop  offset="1" style="stop-color:#D38F39"/>
		</linearGradient>
		<path display="inline" fill="url(#SVGID_3_)" d="M169.354,12.401c0,0.646,0.204,1.105,0.614,1.378
			c0.41,0.273,0.987,0.409,1.732,0.409c0.371,0,0.756-0.031,1.153-0.094c0.397-0.061,0.745-0.142,1.042-0.242
			c0.226,0.273,0.417,0.578,0.578,0.914c0.161,0.335,0.242,0.738,0.242,1.209c0,0.943-0.354,1.712-1.063,2.309
			c-0.707,0.596-1.953,0.894-3.74,0.894c-2.186,0-3.868-0.497-5.045-1.49c-1.18-0.992-1.771-2.607-1.771-4.84V-3.088
			c0.274-0.075,0.663-0.155,1.173-0.242c0.509-0.086,1.049-0.13,1.621-0.13c1.091,0,1.941,0.192,2.551,0.576
			c0.606,0.385,0.911,1.198,0.911,2.439v2.383h4.878c0.149,0.274,0.292,0.614,0.428,1.024c0.137,0.41,0.205,0.863,0.205,1.36
			c0,0.869-0.192,1.495-0.576,1.88c-0.385,0.385-0.901,0.577-1.547,0.577h-3.388V12.401z"/>
		<linearGradient id="SVGID_4_" gradientUnits="userSpaceOnUse" x1="112.5732" y1="-0.0356" x2="112.5732" y2="18.917">
			<stop  offset="0" style="stop-color:#F4A642"/>
			<stop  offset="1" style="stop-color:#D38F39"/>
		</linearGradient>
		<path display="inline" fill="url(#SVGID_4_)" d="M107.435-0.036c1.017,0,2.017,0.144,2.998,0.429
			c0.979,0.285,1.829,0.713,2.549,1.284c0.745-0.496,1.584-0.906,2.514-1.229c0.931-0.322,2.055-0.484,3.37-0.484
			c0.943,0,1.867,0.125,2.775,0.373c0.903,0.249,1.711,0.64,2.419,1.173c0.709,0.534,1.272,1.242,1.692,2.123
			c0.423,0.881,0.635,1.955,0.635,3.221v11.729c-0.249,0.074-0.641,0.149-1.172,0.223c-0.535,0.075-1.086,0.112-1.658,0.112
			c-0.547,0-1.037-0.037-1.471-0.112c-0.435-0.074-0.799-0.223-1.098-0.446c-0.299-0.225-0.529-0.528-0.689-0.913
			c-0.161-0.385-0.241-0.887-0.241-1.508V7.039c0-0.744-0.212-1.285-0.634-1.62c-0.423-0.335-0.993-0.502-1.711-0.502
			c-0.352,0-0.723,0.081-1.119,0.242c-0.396,0.162-0.694,0.329-0.893,0.503c0.024,0.099,0.037,0.191,0.037,0.279s0,0.167,0,0.242
			v12.399c-0.273,0.074-0.679,0.149-1.21,0.223c-0.534,0.075-1.075,0.112-1.621,0.112c-0.544,0-1.036-0.037-1.471-0.112
			c-0.435-0.074-0.801-0.223-1.098-0.446c-0.298-0.225-0.527-0.528-0.689-0.913c-0.16-0.385-0.242-0.887-0.242-1.508V7.039
			c0-0.744-0.23-1.285-0.688-1.62c-0.459-0.335-1.013-0.502-1.656-0.502c-0.446,0-0.832,0.069-1.155,0.205
			c-0.323,0.137-0.596,0.267-0.818,0.391v13.069c-0.25,0.074-0.638,0.149-1.174,0.223c-0.533,0.075-1.085,0.112-1.657,0.112
			c-0.545,0-1.035-0.037-1.47-0.112c-0.435-0.074-0.801-0.223-1.099-0.446c-0.297-0.225-0.526-0.528-0.689-0.913
			c-0.161-0.385-0.24-0.887-0.24-1.508V4.694c0-0.67,0.143-1.204,0.427-1.601c0.285-0.397,0.677-0.77,1.173-1.117
			c0.844-0.596,1.895-1.081,3.146-1.452C104.76,0.151,106.067-0.036,107.435-0.036z"/>
		<linearGradient id="SVGID_5_" gradientUnits="userSpaceOnUse" x1="85.8125" y1="-9.6597" x2="85.8125" y2="18.9893">
			<stop  offset="0" style="stop-color:#F4A642"/>
			<stop  offset="1" style="stop-color:#D38F39"/>
		</linearGradient>
		<path display="inline" fill="url(#SVGID_5_)" d="M83.864,7.467c-1.317-0.448-2.513-0.903-3.588-1.367
			c-1.077-0.463-2.003-1.023-2.781-1.681c-0.776-0.658-1.382-1.443-1.815-2.354c-0.433-0.912-0.649-2.024-0.649-3.34
			c0-2.54,0.979-4.573,2.936-6.098c1.958-1.523,4.701-2.286,8.228-2.286c1.285,0,2.481,0.09,3.588,0.27
			c1.105,0.179,2.054,0.456,2.846,0.829c0.793,0.374,1.412,0.852,1.861,1.435c0.447,0.583,0.672,1.263,0.672,2.04
			c0,0.777-0.179,1.442-0.537,1.995c-0.359,0.554-0.794,1.023-1.3,1.413c-0.659-0.418-1.541-0.784-2.647-1.099
			c-1.105-0.314-2.315-0.47-3.631-0.47c-1.344,0-2.332,0.187-2.957,0.56c-0.63,0.374-0.943,0.845-0.943,1.413
			c0,0.448,0.194,0.815,0.583,1.098c0.39,0.285,0.972,0.546,1.75,0.785l2.376,0.762c2.809,0.897,4.967,2.04,6.477,3.43
			c1.51,1.39,2.266,3.281,2.266,5.671c0,2.542-1.002,4.595-3.004,6.165c-2.004,1.569-4.947,2.354-8.832,2.354
			c-1.376,0-2.654-0.112-3.834-0.336c-1.18-0.225-2.213-0.553-3.093-0.986c-0.884-0.433-1.569-0.971-2.063-1.615
			c-0.494-0.642-0.74-1.382-0.74-2.219c0-0.866,0.253-1.606,0.764-2.219c0.506-0.613,1.06-1.084,1.657-1.413
			c0.838,0.658,1.859,1.226,3.072,1.704c1.21,0.478,2.531,0.717,3.967,0.717c1.463,0,2.495-0.225,3.094-0.673
			c0.598-0.448,0.896-0.971,0.896-1.569c0-0.598-0.24-1.054-0.717-1.368c-0.478-0.313-1.152-0.62-2.018-0.919L83.864,7.467z"/>
		<linearGradient id="SVGID_6_" gradientUnits="userSpaceOnUse" x1="106.2461" y1="21.8608" x2="106.2461" y2="50.3496">
			<stop  offset="0" style="stop-color:#F4A642"/>
			<stop  offset="1" style="stop-color:#D38F39"/>
		</linearGradient>
		<path display="inline" fill="url(#SVGID_6_)" d="M100.672,23.135c0.516-0.303,1.296-0.592,2.343-0.864
			c1.047-0.273,2.102-0.41,3.164-0.41c1.515,0,2.857,0.221,4.027,0.66c1.167,0.441,1.918,1.131,2.252,2.071
			c0.545,1.578,1.139,3.413,1.773,5.506c0.638,2.094,1.275,4.256,1.913,6.485c0.637,2.229,1.259,4.43,1.865,6.599
			c0.606,2.169,1.137,4.088,1.594,5.756c-0.365,0.426-0.911,0.767-1.638,1.024c-0.729,0.257-1.595,0.387-2.595,0.387
			c-0.729,0-1.342-0.061-1.844-0.182c-0.501-0.122-0.909-0.303-1.229-0.546c-0.318-0.243-0.575-0.562-0.775-0.955
			c-0.196-0.395-0.37-0.85-0.521-1.366l-0.818-3.14h-8.239c-0.242,0.911-0.484,1.851-0.728,2.821
			c-0.242,0.971-0.484,1.912-0.728,2.822c-0.426,0.151-0.872,0.28-1.343,0.387c-0.47,0.106-1.04,0.159-1.706,0.159
			c-1.548,0-2.692-0.266-3.436-0.795c-0.744-0.531-1.116-1.268-1.116-2.208c0-0.424,0.061-0.849,0.183-1.274
			c0.121-0.425,0.258-0.926,0.41-1.502c0.212-0.819,0.507-1.834,0.888-3.049c0.379-1.213,0.795-2.525,1.25-3.936
			s0.941-2.859,1.458-4.347c0.514-1.486,0.999-2.89,1.454-4.209c0.457-1.32,0.874-2.496,1.253-3.528
			C100.162,24.471,100.459,23.682,100.672,23.135z M106.133,29.006c-0.426,1.274-0.903,2.693-1.433,4.255
			c-0.532,1.563-1.011,3.148-1.435,4.757h5.643c-0.426-1.639-0.856-3.239-1.297-4.802c-0.44-1.562-0.842-2.965-1.205-4.209H106.133z
			"/>
		<g display="inline">
			<linearGradient id="SVGID_7_" gradientUnits="userSpaceOnUse" x1="148.4316" y1="25.0596" x2="148.4316" y2="37.9932">
				<stop  offset="0" style="stop-color:#404041"/>
				<stop  offset="1" style="stop-color:#231F20"/>
			</linearGradient>
			<path fill-rule="evenodd" clip-rule="evenodd" fill="url(#SVGID_7_)" d="M139.857,25.06c1.947,0.051,3.852,0.101,5.756,0.15
				c1.393,0.036,2.786,0.076,4.176,0.106c0.167,0.003,0.273,0.052,0.388,0.173c2.245,2.37,4.498,4.736,6.748,7.103
				c0.021,0.022,0.042,0.049,0.081,0.097c-0.085,0.001-0.149,0.005-0.218,0.003c-0.485-0.012-0.974-0.023-1.462-0.042
				c-0.107-0.004-0.158,0.028-0.197,0.114c-0.416,0.947-0.839,1.891-1.257,2.837c-0.019,0.044-0.035,0.104-0.017,0.146
				c0.188,0.443,0.144,0.551-0.31,0.67c0.013,0.517,0.026,1.038,0.04,1.575c-0.528-0.235-1.031-0.459-1.565-0.697
				c0.403-0.347,0.802-0.688,1.198-1.026c-0.037-0.076-0.08-0.14-0.103-0.209c-0.065-0.19,0.021-0.401,0.227-0.427
				c0.222-0.028,0.271-0.162,0.335-0.308c0.365-0.825,0.732-1.65,1.099-2.474c0.024-0.057,0.05-0.114,0.091-0.201
				c-0.093-0.007-0.16-0.014-0.228-0.016c-2.543-0.068-5.083-0.132-7.627-0.204c-0.082-0.002-0.196-0.047-0.251-0.105
				c-2.268-2.378-4.53-4.761-6.79-7.143C139.939,25.152,139.912,25.12,139.857,25.06z"/>
			<linearGradient id="SVGID_8_" gradientUnits="userSpaceOnUse" x1="147.0068" y1="28.6587" x2="147.0068" y2="36.2173">
				<stop  offset="0" style="stop-color:#404041"/>
				<stop  offset="1" style="stop-color:#231F20"/>
			</linearGradient>
			<path fill-rule="evenodd" clip-rule="evenodd" fill="url(#SVGID_8_)" d="M152.182,32.903c-1.75-0.045-3.498-0.094-5.245-0.133
				c-0.168-0.004-0.272-0.053-0.387-0.174c-1.197-1.267-2.398-2.529-3.601-3.792c-0.042-0.044-0.088-0.085-0.152-0.146
				c-0.037,0.083-0.063,0.14-0.087,0.196c-0.313,0.704-0.62,1.41-0.942,2.109c-0.183,0.393-0.166,0.796,0.016,1.218
				c0.234,0.547,0.62,1.013,1.084,1.428c1.429,1.272,3.108,2.063,4.982,2.456c0.777,0.164,1.553,0.216,2.3,0.047
				c0.597-0.134,1.021-0.43,1.239-0.965c0.279-0.687,0.599-1.357,0.898-2.034c0.025-0.057,0.05-0.113,0.088-0.197
				C152.282,32.911,152.232,32.904,152.182,32.903z"/>
		</g>
		<linearGradient id="SVGID_9_" gradientUnits="userSpaceOnUse" x1="135.8447" y1="31.2949" x2="135.8447" y2="61.0923">
			<stop  offset="0" style="stop-color:#F4A642"/>
			<stop  offset="1" style="stop-color:#D38F39"/>
		</linearGradient>
		<path display="inline" fill-rule="evenodd" clip-rule="evenodd" fill="url(#SVGID_9_)" d="M151.441,36.638
			c-0.021-0.047-0.045-0.092-0.064-0.139c-0.232,0.169-0.515,0.287-0.841,0.36c-0.853,0.192-1.733,0.132-2.617-0.053
			c-2.135-0.447-4.045-1.346-5.67-2.796c-0.529-0.472-0.969-1.001-1.234-1.624c-0.159-0.366-0.205-0.719-0.126-1.067
			c-1.045,0.052-2.009,0.192-2.891,0.422c-0.812,0.212-1.53,0.476-2.154,0.79c-0.624-0.314-1.341-0.577-2.156-0.79
			c-1.14-0.297-2.419-0.447-3.834-0.447c-1.489,0-2.871,0.193-4.151,0.577c-1.279,0.385-2.376,0.975-3.296,1.769
			c-0.917,0.795-1.638,1.794-2.16,2.998c-0.521,1.205-0.78,2.638-0.78,4.301c0,1.588,0.223,2.979,0.67,4.17
			c0.446,1.192,1.079,2.191,1.898,2.997c0.818,0.807,1.806,1.409,2.96,1.806c1.155,0.397,2.438,0.596,3.854,0.596
			c1.067,0,2.062-0.162,2.979-0.484V60.72c0.248,0.074,0.646,0.155,1.191,0.242c0.546,0.086,1.104,0.13,1.677,0.13
			c0.26,0,0.507-0.01,0.743-0.027V47.135l0.401-0.412l0.403,0.412v13.93c0.237,0.017,0.486,0.027,0.751,0.027
			c0.571,0,1.13-0.044,1.676-0.13c0.545-0.087,0.942-0.168,1.191-0.242V50.024c0.918,0.322,1.91,0.484,2.979,0.484
			c1.416,0,2.699-0.199,3.854-0.596c1.153-0.397,2.14-0.999,2.96-1.806c0.817-0.806,1.451-1.805,1.899-2.997
			c0.445-1.191,0.67-2.582,0.67-4.17C152.224,39.276,151.963,37.843,151.441,36.638z M131.865,44.998c0,0-0.002,0-0.002,0.001
			c-0.397,0.242-0.868,0.395-1.413,0.467c-0.216,0.034-0.439,0.053-0.671,0.053c-0.018,0-0.032-0.001-0.049-0.001
			c-0.039,0-0.078,0.001-0.119,0.001c-0.026,0-0.05-0.003-0.075-0.009c-2.392-0.097-3.593-1.617-3.593-4.57
			c0-1.588,0.316-2.768,0.95-3.538c0.632-0.769,1.546-1.154,2.738-1.154c0.021,0,0.042,0.001,0.064,0.002
			c0.022,0,0.042-0.002,0.063-0.002c1.543,0,2.193,0.376,2.826,1.146c0.633,0.77,0.861,1.957,0.861,3.545
			C133.447,43.072,132.919,44.353,131.865,44.998z M142.288,45.504c-0.049,0.022-0.1,0.036-0.149,0.036
			c-0.885,0-1.616-0.151-2.195-0.486c-0.041-0.019-0.08-0.036-0.12-0.056V44.98c-1.012-0.656-1.52-1.93-1.52-4.021
			c0-1.589,0.229-2.776,0.86-3.545c0.539-0.654,1.092-1.024,2.192-1.12c0.221-0.031,0.452-0.047,0.701-0.047
			c1.191,0,2.104,0.385,2.737,1.154c0.631,0.77,0.95,1.949,0.95,3.538C145.745,43.837,144.59,45.357,142.288,45.504z"/>
	</g>
	<g display="none">
		<g display="inline">
			<path d="M138.491,3.39c1.287,0,2.461,0.131,3.521,0.393c1.061,0.262,1.967,0.661,2.717,1.197
				c0.752,0.536,1.328,1.215,1.734,2.038c0.405,0.822,0.607,1.793,0.607,2.913v8.007c0,0.62-0.173,1.126-0.519,1.519
				c-0.345,0.394-0.757,0.733-1.232,1.019c-1.55,0.929-3.73,1.395-6.542,1.395c-1.263,0-2.401-0.12-3.414-0.358
				c-1.014-0.238-1.882-0.595-2.608-1.072c-0.728-0.477-1.287-1.084-1.681-1.823c-0.394-0.738-0.59-1.596-0.59-2.574
				c0-1.644,0.488-2.907,1.466-3.789c0.977-0.881,2.489-1.43,4.539-1.644l4.684-0.5v-0.25c0-0.69-0.304-1.185-0.912-1.483
				c-0.607-0.297-1.483-0.446-2.627-0.446c-0.906,0-1.787,0.095-2.646,0.286c-0.857,0.191-1.632,0.429-2.323,0.715
				c-0.31-0.214-0.572-0.542-0.786-0.983c-0.215-0.441-0.322-0.899-0.322-1.376c0-0.62,0.149-1.114,0.447-1.483
				s0.756-0.685,1.376-0.948c0.69-0.262,1.507-0.452,2.449-0.572C136.77,3.45,137.657,3.39,138.491,3.39z M138.777,17.438
				c0.405,0,0.852-0.041,1.341-0.125c0.487-0.084,0.851-0.197,1.09-0.34v-2.859l-2.573,0.215c-0.668,0.048-1.216,0.191-1.645,0.428
				c-0.43,0.239-0.644,0.596-0.644,1.073c0,0.477,0.185,0.864,0.555,1.162C137.271,17.289,137.896,17.438,138.777,17.438z"/>
			<path d="M155.971,21.262c-0.238,0.071-0.613,0.143-1.126,0.214c-0.513,0.072-1.043,0.108-1.591,0.108
				c-0.524,0-0.995-0.036-1.412-0.108c-0.417-0.071-0.768-0.214-1.054-0.428c-0.286-0.214-0.507-0.506-0.661-0.876
				c-0.156-0.369-0.232-0.852-0.232-1.448V8.001c0-0.548,0.101-1.019,0.304-1.412c0.202-0.393,0.494-0.744,0.876-1.055
				c0.38-0.309,0.851-0.589,1.412-0.84c0.559-0.25,1.161-0.47,1.805-0.661c0.643-0.19,1.31-0.34,2.002-0.447
				c0.69-0.107,1.381-0.161,2.073-0.161c1.144,0,2.049,0.221,2.717,0.662c0.667,0.441,1,1.162,1,2.163
				c0,0.334-0.048,0.661-0.143,0.983s-0.214,0.614-0.357,0.875c-0.5,0-1.013,0.024-1.537,0.072
				c-0.524,0.048-1.036,0.119-1.537,0.215c-0.501,0.095-0.972,0.196-1.412,0.303c-0.44,0.107-0.816,0.232-1.126,0.375V21.262z"/>
			<path d="M169.769,15.329c0,0.62,0.196,1.061,0.59,1.322c0.393,0.263,0.946,0.394,1.662,0.394c0.356,0,0.726-0.029,1.108-0.089
				c0.38-0.059,0.713-0.137,1.001-0.232c0.214,0.263,0.398,0.554,0.553,0.875c0.155,0.322,0.232,0.709,0.232,1.162
				c0,0.906-0.339,1.644-1.019,2.216c-0.679,0.572-1.876,0.857-3.592,0.857c-2.098,0-3.712-0.477-4.844-1.43
				c-1.132-0.953-1.698-2.502-1.698-4.646V0.458c0.262-0.071,0.638-0.148,1.126-0.232c0.489-0.083,1.008-0.125,1.556-0.125
				c1.048,0,1.864,0.185,2.448,0.554c0.583,0.37,0.876,1.15,0.876,2.341v2.288h4.683c0.143,0.263,0.279,0.59,0.41,0.983
				c0.131,0.394,0.197,0.829,0.197,1.305c0,0.834-0.186,1.436-0.555,1.805c-0.369,0.37-0.863,0.554-1.482,0.554h-3.253V15.329z"/>
			<path d="M110.324,3.39c0.978,0,1.937,0.137,2.878,0.411c0.94,0.274,1.757,0.686,2.448,1.233c0.715-0.476,1.52-0.87,2.412-1.18
				c0.895-0.31,1.973-0.464,3.235-0.464c0.906,0,1.793,0.119,2.664,0.357c0.868,0.239,1.643,0.614,2.323,1.126
				c0.679,0.512,1.221,1.192,1.626,2.037c0.405,0.846,0.608,1.877,0.608,3.092v11.26c-0.239,0.071-0.614,0.143-1.127,0.214
				c-0.513,0.072-1.042,0.108-1.59,0.108c-0.525,0-0.996-0.036-1.412-0.108c-0.417-0.071-0.77-0.214-1.055-0.428
				c-0.286-0.214-0.507-0.506-0.661-0.876c-0.155-0.369-0.233-0.852-0.233-1.448v-8.543c0-0.715-0.201-1.233-0.607-1.555
				c-0.405-0.322-0.953-0.482-1.644-0.482c-0.334,0-0.692,0.077-1.072,0.232c-0.381,0.156-0.667,0.316-0.858,0.483
				c0.023,0.095,0.035,0.185,0.035,0.268c0,0.083,0,0.161,0,0.232v11.903c-0.262,0.071-0.649,0.143-1.161,0.214
				c-0.513,0.072-1.03,0.108-1.554,0.108c-0.526,0-0.996-0.036-1.413-0.108c-0.418-0.071-0.768-0.214-1.054-0.428
				c-0.287-0.214-0.507-0.506-0.662-0.876c-0.155-0.369-0.232-0.852-0.232-1.448v-8.543c0-0.715-0.221-1.233-0.66-1.555
				c-0.442-0.322-0.972-0.482-1.592-0.482c-0.429,0-0.799,0.066-1.107,0.196c-0.311,0.132-0.572,0.257-0.787,0.376v12.546
				c-0.238,0.071-0.614,0.143-1.126,0.214c-0.513,0.072-1.043,0.108-1.591,0.108c-0.524,0-0.995-0.036-1.411-0.108
				c-0.418-0.071-0.77-0.214-1.055-0.428c-0.286-0.214-0.507-0.506-0.661-0.876c-0.155-0.369-0.233-0.852-0.233-1.448V7.93
				c0-0.644,0.138-1.156,0.411-1.537c0.275-0.381,0.649-0.738,1.126-1.073c0.81-0.571,1.817-1.036,3.021-1.394
				C107.756,3.568,109.014,3.39,110.324,3.39z"/>
			<path d="M85.205,13.941c-1.519-0.519-2.9-1.045-4.145-1.581c-1.242-0.535-2.313-1.183-3.211-1.942
				c-0.898-0.76-1.598-1.666-2.099-2.72C75.25,6.645,75,5.358,75,3.838c0-2.935,1.131-5.284,3.394-7.045
				c2.262-1.761,5.431-2.643,9.506-2.643c1.484,0,2.867,0.104,4.146,0.311c1.277,0.207,2.373,0.527,3.289,0.958
				c0.915,0.432,1.632,0.984,2.15,1.658c0.518,0.673,0.775,1.459,0.775,2.357c0,0.899-0.206,1.667-0.62,2.306
				c-0.414,0.639-0.916,1.184-1.503,1.632c-0.76-0.483-1.778-0.907-3.057-1.27c-1.277-0.362-2.677-0.543-4.195-0.543
				c-1.555,0-2.694,0.216-3.42,0.647c-0.725,0.432-1.088,0.977-1.088,1.632c0,0.518,0.225,0.941,0.673,1.269
				c0.449,0.329,1.122,0.631,2.021,0.907l2.746,0.881c3.246,1.036,5.741,2.357,7.485,3.963s2.616,3.791,2.616,6.554
				c0,2.936-1.158,5.31-3.471,7.123c-2.314,1.813-5.717,2.72-10.206,2.72c-1.589,0-3.065-0.129-4.43-0.388
				c-1.365-0.259-2.556-0.639-3.574-1.14c-1.02-0.5-1.813-1.122-2.383-1.865C75.285,23.119,75,22.264,75,21.297
				c0-1.001,0.293-1.856,0.881-2.564c0.587-0.707,1.225-1.251,1.916-1.632c0.968,0.761,2.15,1.417,3.55,1.97
				c1.399,0.552,2.927,0.828,4.585,0.828c1.691,0,2.883-0.259,3.574-0.777s1.036-1.122,1.036-1.813c0-0.69-0.277-1.217-0.829-1.58
				c-0.552-0.362-1.329-0.716-2.331-1.062L85.205,13.941z"/>
		</g>
		<g display="inline">
			<g>
				<path fill-rule="evenodd" clip-rule="evenodd" d="M152.719,34.732c-0.002,0.866-0.002,1.733-0.002,2.599
					c0,0.153,0.011,0.289-0.175,0.4c-0.169,0.102-0.162,0.322-0.031,0.463c0.046,0.051,0.109,0.092,0.171,0.143
					c-0.214,0.452-0.431,0.905-0.652,1.368c0.563,0,1.093,0,1.646,0.001c-0.222-0.466-0.436-0.918-0.649-1.366
					c0.352-0.281,0.351-0.393,0.011-0.708c-0.032-0.03-0.041-0.089-0.041-0.135c-0.002-0.993,0.001-1.986-0.002-2.979
					c0-0.043,0.008-0.077,0.026-0.104l-0.302,0.134C152.719,34.624,152.719,34.679,152.719,34.732z"/>
				<path fill-rule="evenodd" clip-rule="evenodd" d="M154.679,34.561c-2.16-2.272-4.322-4.543-6.479-6.818
					c-0.111-0.116-0.212-0.163-0.372-0.167c-1.335-0.029-2.672-0.067-4.008-0.102c-1.829-0.048-3.657-0.096-5.525-0.145
					c0.051,0.058,0.077,0.09,0.106,0.12c2.172,2.287,4.344,4.573,6.521,6.856c0.053,0.056,0.162,0.099,0.24,0.102
					c2.402,0.067,4.803,0.128,7.204,0.191l0,0l0.756,0.02c0.007,0,0.014-0.001,0.021-0.001c0.468,0.017,0.937,0.028,1.405,0.04
					c0.063,0.001,0.127-0.002,0.208-0.003C154.719,34.608,154.7,34.583,154.679,34.561z"/>
			</g>
			<path fill-rule="evenodd" clip-rule="evenodd" d="M150.311,34.874c-0.035,0.08-0.06,0.134-0.085,0.188
				c-0.288,0.65-0.594,1.294-0.861,1.953c-0.209,0.514-0.616,0.798-1.189,0.926c-0.719,0.162-1.462,0.112-2.208-0.044
				c-1.801-0.377-3.414-1.136-4.783-2.358c-0.445-0.398-0.815-0.845-1.041-1.371c-0.174-0.405-0.189-0.792-0.015-1.169
				c0.309-0.671,0.603-1.35,0.903-2.025c0.024-0.054,0.048-0.108,0.084-0.189c0.063,0.059,0.106,0.099,0.147,0.141
				c1.153,1.212,2.307,2.424,3.455,3.64c0.108,0.117,0.211,0.164,0.371,0.168c1.679,0.038,3.357,0.083,5.035,0.127
				C150.173,34.861,150.222,34.867,150.311,34.874z"/>
		</g>
		<g display="inline">
			<path d="M102.772,25.634c0.495-0.291,1.246-0.568,2.25-0.83c1.005-0.262,2.017-0.393,3.037-0.393
				c1.455,0,2.744,0.211,3.865,0.633c1.122,0.423,1.843,1.086,2.163,1.988c0.524,1.515,1.092,3.277,1.704,5.286
				c0.611,2.01,1.224,4.085,1.835,6.226c0.611,2.141,1.209,4.253,1.791,6.335s1.093,3.925,1.529,5.526
				c-0.35,0.408-0.873,0.736-1.572,0.983c-0.699,0.247-1.529,0.371-2.49,0.371c-0.699,0-1.289-0.059-1.77-0.174
				c-0.481-0.117-0.874-0.291-1.18-0.524c-0.307-0.233-0.554-0.539-0.743-0.917c-0.189-0.378-0.357-0.815-0.502-1.311l-0.787-3.014
				h-7.907c-0.233,0.874-0.466,1.777-0.699,2.709s-0.466,1.835-0.698,2.708c-0.408,0.146-0.839,0.269-1.29,0.371
				c-0.451,0.102-0.998,0.153-1.638,0.153c-1.485,0-2.585-0.255-3.299-0.764c-0.714-0.509-1.07-1.216-1.07-2.119
				c0-0.407,0.058-0.815,0.175-1.223c0.116-0.408,0.247-0.888,0.394-1.442c0.203-0.786,0.487-1.762,0.853-2.927
				c0.363-1.164,0.764-2.425,1.2-3.779c0.438-1.354,0.902-2.745,1.398-4.172c0.495-1.427,0.961-2.774,1.397-4.041
				c0.438-1.267,0.838-2.396,1.202-3.386C102.284,26.916,102.568,26.158,102.772,25.634z M108.015,31.27
				c-0.407,1.224-0.866,2.585-1.375,4.085c-0.511,1.501-0.97,3.022-1.377,4.566h5.418c-0.408-1.573-0.823-3.109-1.245-4.609
				c-0.423-1.5-0.809-2.847-1.158-4.042H108.015z"/>
			<path d="M148.434,38.2c-0.062,0.019-0.123,0.037-0.189,0.052c-0.316,0.071-0.654,0.107-1.002,0.107
				c-0.418,0-0.856-0.049-1.341-0.151c-1.911-0.4-3.569-1.218-4.93-2.432c-0.529-0.472-0.896-0.957-1.121-1.483
				c-0.141-0.329-0.189-0.649-0.146-0.958c-0.124-0.003-0.248-0.007-0.373-0.007c-1.256,0-2.399,0.124-3.431,0.369
				c0.726,0.349,1.385,0.777,1.971,1.283c0.965,0.835,1.729,1.893,2.274,3.145c0.854,0.111,1.531,0.463,2.027,1.066
				c0.606,0.739,0.911,1.871,0.911,3.396c0,2.568-0.942,4.01-2.827,4.329c-0.467,1.228-1.136,2.277-1.99,3.118
				c-0.868,0.855-1.925,1.501-3.142,1.918c-1.134,0.39-2.4,0.594-3.765,0.612v2.176c0,0.596,0.07,1.079,0.214,1.448
				c0.142,0.369,0.357,0.662,0.644,0.876c0.285,0.214,0.637,0.357,1.054,0.429c0.416,0.071,0.888,0.107,1.412,0.107
				c0.548,0,1.083-0.042,1.609-0.125c0.523-0.083,0.904-0.161,1.144-0.231v-5.935c0.881,0.31,1.834,0.465,2.859,0.465
				c1.358,0,2.592-0.191,3.7-0.572c1.107-0.381,2.054-0.959,2.841-1.734c0.787-0.774,1.395-1.733,1.823-2.877
				c0.43-1.144,0.644-2.478,0.644-4.003c0-1.597-0.251-2.973-0.751-4.129C148.515,38.37,148.474,38.286,148.434,38.2z"/>
			<path d="M139.424,38.458c-0.499-1.156-1.191-2.114-2.071-2.878c-0.883-0.762-1.938-1.328-3.164-1.697
				c-1.228-0.37-2.556-0.555-3.985-0.555c-1.359,0-2.586,0.144-3.682,0.429c-1.097,0.286-2.015,0.667-2.754,1.144
				c-0.476,0.334-0.852,0.703-1.125,1.108c-0.274,0.406-0.412,0.929-0.412,1.573V54.74c0,0.596,0.072,1.079,0.216,1.448
				c0.143,0.369,0.357,0.662,0.643,0.876c0.286,0.214,0.638,0.357,1.055,0.429c0.416,0.071,0.888,0.107,1.412,0.107
				c0.548,0,1.083-0.042,1.608-0.125c0.523-0.083,0.905-0.161,1.144-0.231v-5.935c0.882,0.31,1.835,0.465,2.86,0.465
				c1.357,0,2.592-0.191,3.699-0.572c1.108-0.381,2.056-0.959,2.842-1.734c0.786-0.774,1.394-1.733,1.822-2.877
				c0.43-1.144,0.644-2.478,0.644-4.003C140.175,40.991,139.925,39.614,139.424,38.458z M132.415,46.43v0.012
				c-0.026,0.013-0.052,0.024-0.078,0.037c-0.549,0.334-1.234,0.506-2.063,0.506c-0.381,0-0.738-0.048-1.072-0.143
				c-0.016-0.004-0.03-0.01-0.047-0.015c-0.287-0.069-0.547-0.168-0.783-0.297c-0.034-0.016-0.066-0.03-0.099-0.046v-0.003
				c-0.027-0.013-0.056-0.025-0.081-0.038v-0.017c-0.973-0.63-1.46-1.852-1.46-3.859c0-0.005,0-0.01,0-0.015
				c0-0.001,0-0.003,0-0.005c0-0.019,0.001-0.036,0.001-0.055c0.007-1.487,0.229-2.603,0.825-3.329
				c0.501-0.608,1.017-0.96,2.011-1.065c0.135-0.021,0.274-0.035,0.419-0.043c0.006,0,0.013,0,0.019-0.001
				c0.088-0.004,0.174-0.011,0.265-0.011c0.011,0,0.021,0.001,0.032,0.001c0.012,0,0.022-0.001,0.033-0.001
				c0.091,0,0.178,0.006,0.266,0.011c0.006,0,0.013,0,0.018,0.001c0.145,0.008,0.284,0.022,0.42,0.043
				c0.994,0.105,1.509,0.457,2.01,1.065c0.171,0.208,0.311,0.45,0.425,0.722c0.32,0.694,0.481,1.594,0.481,2.704
				C133.955,44.481,133.439,45.759,132.415,46.43z"/>
		</g>
	</g>
	<g display="none">
		<g display="inline">
			<path fill="#323232" d="M138.491,3.39c1.287,0,2.461,0.131,3.521,0.393c1.061,0.262,1.967,0.661,2.717,1.197
				c0.752,0.536,1.328,1.215,1.734,2.038c0.405,0.822,0.607,1.793,0.607,2.913v8.007c0,0.62-0.173,1.126-0.519,1.519
				c-0.345,0.394-0.757,0.733-1.232,1.019c-1.55,0.929-3.73,1.395-6.542,1.395c-1.263,0-2.401-0.12-3.414-0.358
				c-1.014-0.238-1.882-0.595-2.608-1.072c-0.728-0.477-1.287-1.084-1.681-1.823c-0.394-0.738-0.59-1.596-0.59-2.574
				c0-1.644,0.488-2.907,1.466-3.789c0.977-0.881,2.489-1.43,4.539-1.644l4.684-0.5v-0.25c0-0.69-0.304-1.185-0.912-1.483
				c-0.607-0.297-1.483-0.446-2.627-0.446c-0.906,0-1.787,0.095-2.646,0.286c-0.857,0.191-1.632,0.429-2.323,0.715
				c-0.31-0.214-0.572-0.542-0.786-0.983c-0.215-0.441-0.322-0.899-0.322-1.376c0-0.62,0.149-1.114,0.447-1.483
				s0.756-0.685,1.376-0.948c0.69-0.262,1.507-0.452,2.449-0.572C136.77,3.45,137.657,3.39,138.491,3.39z M138.777,17.438
				c0.405,0,0.852-0.041,1.341-0.125c0.487-0.084,0.851-0.197,1.09-0.34v-2.859l-2.573,0.215c-0.668,0.048-1.216,0.191-1.645,0.428
				c-0.43,0.239-0.644,0.596-0.644,1.073c0,0.477,0.185,0.864,0.555,1.162C137.271,17.289,137.896,17.438,138.777,17.438z"/>
			<path fill="#323232" d="M155.971,21.262c-0.238,0.071-0.613,0.143-1.126,0.214c-0.513,0.072-1.043,0.108-1.591,0.108
				c-0.524,0-0.995-0.036-1.412-0.108c-0.417-0.071-0.768-0.214-1.054-0.428c-0.286-0.214-0.507-0.506-0.661-0.876
				c-0.156-0.369-0.232-0.852-0.232-1.448V8.001c0-0.548,0.101-1.019,0.304-1.412c0.202-0.393,0.494-0.744,0.876-1.055
				c0.38-0.309,0.851-0.589,1.412-0.84c0.559-0.25,1.161-0.47,1.805-0.661c0.643-0.19,1.31-0.34,2.002-0.447
				c0.69-0.107,1.381-0.161,2.073-0.161c1.144,0,2.049,0.221,2.717,0.662c0.667,0.441,1,1.162,1,2.163
				c0,0.334-0.048,0.661-0.143,0.983s-0.214,0.614-0.357,0.875c-0.5,0-1.013,0.024-1.537,0.072
				c-0.524,0.048-1.036,0.119-1.537,0.215c-0.501,0.095-0.972,0.196-1.412,0.303c-0.44,0.107-0.816,0.232-1.126,0.375V21.262z"/>
			<path fill="#323232" d="M169.769,15.329c0,0.62,0.196,1.061,0.59,1.322c0.393,0.263,0.946,0.394,1.662,0.394
				c0.356,0,0.726-0.029,1.108-0.089c0.38-0.059,0.713-0.137,1.001-0.232c0.214,0.263,0.398,0.554,0.553,0.875
				c0.155,0.322,0.232,0.709,0.232,1.162c0,0.906-0.339,1.644-1.019,2.216c-0.679,0.572-1.876,0.857-3.592,0.857
				c-2.098,0-3.712-0.477-4.844-1.43c-1.132-0.953-1.698-2.502-1.698-4.646V0.458c0.262-0.071,0.638-0.148,1.126-0.232
				c0.489-0.083,1.008-0.125,1.556-0.125c1.048,0,1.864,0.185,2.448,0.554c0.583,0.37,0.876,1.15,0.876,2.341v2.288h4.683
				c0.143,0.263,0.279,0.59,0.41,0.983c0.131,0.394,0.197,0.829,0.197,1.305c0,0.834-0.186,1.436-0.555,1.805
				c-0.369,0.37-0.863,0.554-1.482,0.554h-3.253V15.329z"/>
			<path fill="#323232" d="M110.324,3.39c0.978,0,1.937,0.137,2.878,0.411c0.94,0.274,1.757,0.686,2.448,1.233
				c0.715-0.476,1.52-0.87,2.412-1.18c0.895-0.31,1.973-0.464,3.235-0.464c0.906,0,1.793,0.119,2.664,0.357
				c0.868,0.239,1.643,0.614,2.323,1.126c0.679,0.512,1.221,1.192,1.626,2.037c0.405,0.846,0.608,1.877,0.608,3.092v11.26
				c-0.239,0.071-0.614,0.143-1.127,0.214c-0.513,0.072-1.042,0.108-1.59,0.108c-0.525,0-0.996-0.036-1.412-0.108
				c-0.417-0.071-0.77-0.214-1.055-0.428c-0.286-0.214-0.507-0.506-0.661-0.876c-0.155-0.369-0.233-0.852-0.233-1.448v-8.543
				c0-0.715-0.201-1.233-0.607-1.555c-0.405-0.322-0.953-0.482-1.644-0.482c-0.334,0-0.692,0.077-1.072,0.232
				c-0.381,0.156-0.667,0.316-0.858,0.483c0.023,0.095,0.035,0.185,0.035,0.268c0,0.083,0,0.161,0,0.232v11.903
				c-0.262,0.071-0.649,0.143-1.161,0.214c-0.513,0.072-1.03,0.108-1.554,0.108c-0.526,0-0.996-0.036-1.413-0.108
				c-0.418-0.071-0.768-0.214-1.054-0.428c-0.287-0.214-0.507-0.506-0.662-0.876c-0.155-0.369-0.232-0.852-0.232-1.448v-8.543
				c0-0.715-0.221-1.233-0.66-1.555c-0.442-0.322-0.972-0.482-1.592-0.482c-0.429,0-0.799,0.066-1.107,0.196
				c-0.311,0.132-0.572,0.257-0.787,0.376v12.546c-0.238,0.071-0.614,0.143-1.126,0.214c-0.513,0.072-1.043,0.108-1.591,0.108
				c-0.524,0-0.995-0.036-1.411-0.108c-0.418-0.071-0.77-0.214-1.055-0.428c-0.286-0.214-0.507-0.506-0.661-0.876
				c-0.155-0.369-0.233-0.852-0.233-1.448V7.93c0-0.644,0.138-1.156,0.411-1.537c0.275-0.381,0.649-0.738,1.126-1.073
				c0.81-0.571,1.817-1.036,3.021-1.394C107.756,3.568,109.014,3.39,110.324,3.39z"/>
			<path fill="#323232" d="M85.205,13.941c-1.519-0.519-2.9-1.045-4.145-1.581c-1.242-0.535-2.313-1.183-3.211-1.942
				c-0.898-0.76-1.598-1.666-2.099-2.72C75.25,6.645,75,5.358,75,3.838c0-2.935,1.131-5.284,3.394-7.045
				c2.262-1.761,5.431-2.643,9.506-2.643c1.484,0,2.867,0.104,4.146,0.311c1.277,0.207,2.373,0.527,3.289,0.958
				c0.915,0.432,1.632,0.984,2.15,1.658c0.518,0.673,0.775,1.459,0.775,2.357c0,0.899-0.206,1.667-0.62,2.306
				c-0.414,0.639-0.916,1.184-1.503,1.632c-0.76-0.483-1.778-0.907-3.057-1.27c-1.277-0.362-2.677-0.543-4.195-0.543
				c-1.555,0-2.694,0.216-3.42,0.647c-0.725,0.432-1.088,0.977-1.088,1.632c0,0.518,0.225,0.941,0.673,1.269
				c0.449,0.329,1.122,0.631,2.021,0.907l2.746,0.881c3.246,1.036,5.741,2.357,7.485,3.963s2.616,3.791,2.616,6.554
				c0,2.936-1.158,5.31-3.471,7.123c-2.314,1.813-5.717,2.72-10.206,2.72c-1.589,0-3.065-0.129-4.43-0.388
				c-1.365-0.259-2.556-0.639-3.574-1.14c-1.02-0.5-1.813-1.122-2.383-1.865C75.285,23.119,75,22.264,75,21.297
				c0-1.001,0.293-1.856,0.881-2.564c0.587-0.707,1.225-1.251,1.916-1.632c0.968,0.761,2.15,1.417,3.55,1.97
				c1.399,0.552,2.927,0.828,4.585,0.828c1.691,0,2.883-0.259,3.574-0.777s1.036-1.122,1.036-1.813c0-0.69-0.277-1.217-0.829-1.58
				c-0.552-0.362-1.329-0.716-2.331-1.062L85.205,13.941z"/>
		</g>
		<g display="inline">
			<g>
				<path fill-rule="evenodd" clip-rule="evenodd" fill="#323232" d="M152.719,34.732c-0.002,0.866-0.002,1.733-0.002,2.599
					c0,0.153,0.011,0.289-0.175,0.4c-0.169,0.102-0.162,0.322-0.031,0.463c0.046,0.051,0.109,0.092,0.171,0.143
					c-0.214,0.452-0.431,0.905-0.652,1.368c0.563,0,1.093,0,1.646,0.001c-0.222-0.466-0.436-0.918-0.649-1.366
					c0.352-0.281,0.351-0.393,0.011-0.708c-0.032-0.03-0.041-0.089-0.041-0.135c-0.002-0.993,0.001-1.986-0.002-2.979
					c0-0.043,0.008-0.077,0.026-0.104l-0.302,0.134C152.719,34.624,152.719,34.679,152.719,34.732z"/>
				<path fill-rule="evenodd" clip-rule="evenodd" fill="#323232" d="M154.679,34.561c-2.16-2.272-4.322-4.543-6.479-6.818
					c-0.111-0.116-0.212-0.163-0.372-0.167c-1.335-0.029-2.672-0.067-4.008-0.102c-1.829-0.048-3.657-0.096-5.525-0.145
					c0.051,0.058,0.077,0.09,0.106,0.12c2.172,2.287,4.344,4.573,6.521,6.856c0.053,0.056,0.162,0.099,0.24,0.102
					c2.402,0.067,4.803,0.128,7.204,0.191l0,0l0.756,0.02c0.007,0,0.014-0.001,0.021-0.001c0.468,0.017,0.937,0.028,1.405,0.04
					c0.063,0.001,0.127-0.002,0.208-0.003C154.719,34.608,154.7,34.583,154.679,34.561z"/>
			</g>
			<path fill-rule="evenodd" clip-rule="evenodd" fill="#323232" d="M150.311,34.874c-0.035,0.08-0.06,0.134-0.085,0.188
				c-0.288,0.65-0.594,1.294-0.861,1.953c-0.209,0.514-0.616,0.798-1.189,0.926c-0.719,0.162-1.462,0.112-2.208-0.044
				c-1.801-0.377-3.414-1.136-4.783-2.358c-0.445-0.398-0.815-0.845-1.041-1.371c-0.174-0.405-0.189-0.792-0.015-1.169
				c0.309-0.671,0.603-1.35,0.903-2.025c0.024-0.054,0.048-0.108,0.084-0.189c0.063,0.059,0.106,0.099,0.147,0.141
				c1.153,1.212,2.307,2.424,3.455,3.64c0.108,0.117,0.211,0.164,0.371,0.168c1.679,0.038,3.357,0.083,5.035,0.127
				C150.173,34.861,150.222,34.867,150.311,34.874z"/>
		</g>
		<g display="inline">
			<path fill="#323232" d="M102.772,25.634c0.495-0.291,1.246-0.568,2.25-0.83c1.005-0.262,2.017-0.393,3.037-0.393
				c1.455,0,2.744,0.211,3.865,0.633c1.122,0.423,1.843,1.086,2.163,1.988c0.524,1.515,1.092,3.277,1.704,5.286
				c0.611,2.01,1.224,4.085,1.835,6.226c0.611,2.141,1.209,4.253,1.791,6.335s1.093,3.925,1.529,5.526
				c-0.35,0.408-0.873,0.736-1.572,0.983c-0.699,0.247-1.529,0.371-2.49,0.371c-0.699,0-1.289-0.059-1.77-0.174
				c-0.481-0.117-0.874-0.291-1.18-0.524c-0.307-0.233-0.554-0.539-0.743-0.917c-0.189-0.378-0.357-0.815-0.502-1.311l-0.787-3.014
				h-7.907c-0.233,0.874-0.466,1.777-0.699,2.709s-0.466,1.835-0.698,2.708c-0.408,0.146-0.839,0.269-1.29,0.371
				c-0.451,0.102-0.998,0.153-1.638,0.153c-1.485,0-2.585-0.255-3.299-0.764c-0.714-0.509-1.07-1.216-1.07-2.119
				c0-0.407,0.058-0.815,0.175-1.223c0.116-0.408,0.247-0.888,0.394-1.442c0.203-0.786,0.487-1.762,0.853-2.927
				c0.363-1.164,0.764-2.425,1.2-3.779c0.438-1.354,0.902-2.745,1.398-4.172c0.495-1.427,0.961-2.774,1.397-4.041
				c0.438-1.267,0.838-2.396,1.202-3.386C102.284,26.916,102.568,26.158,102.772,25.634z M108.015,31.27
				c-0.407,1.224-0.866,2.585-1.375,4.085c-0.511,1.501-0.97,3.022-1.377,4.566h5.418c-0.408-1.573-0.823-3.109-1.245-4.609
				c-0.423-1.5-0.809-2.847-1.158-4.042H108.015z"/>
			<path fill="#323232" d="M148.434,38.2c-0.062,0.019-0.123,0.037-0.189,0.052c-0.316,0.071-0.654,0.107-1.002,0.107
				c-0.418,0-0.856-0.049-1.341-0.151c-1.911-0.4-3.569-1.218-4.93-2.432c-0.529-0.472-0.896-0.957-1.121-1.483
				c-0.141-0.329-0.189-0.649-0.146-0.958c-0.124-0.003-0.248-0.007-0.373-0.007c-1.256,0-2.399,0.124-3.431,0.369
				c0.726,0.349,1.385,0.777,1.971,1.283c0.965,0.835,1.729,1.893,2.274,3.145c0.854,0.111,1.531,0.463,2.027,1.066
				c0.606,0.739,0.911,1.871,0.911,3.396c0,2.568-0.942,4.01-2.827,4.329c-0.467,1.228-1.136,2.277-1.99,3.118
				c-0.868,0.855-1.925,1.501-3.142,1.918c-1.134,0.39-2.4,0.594-3.765,0.612v2.176c0,0.596,0.07,1.079,0.214,1.448
				c0.142,0.369,0.357,0.662,0.644,0.876c0.285,0.214,0.637,0.357,1.054,0.429c0.416,0.071,0.888,0.107,1.412,0.107
				c0.548,0,1.083-0.042,1.609-0.125c0.523-0.083,0.904-0.161,1.144-0.231v-5.935c0.881,0.31,1.834,0.465,2.859,0.465
				c1.358,0,2.592-0.191,3.7-0.572c1.107-0.381,2.054-0.959,2.841-1.734c0.787-0.774,1.395-1.733,1.823-2.877
				c0.43-1.144,0.644-2.478,0.644-4.003c0-1.597-0.251-2.973-0.751-4.129C148.515,38.37,148.474,38.286,148.434,38.2z"/>
			<path fill="#323232" d="M139.424,38.458c-0.499-1.156-1.191-2.114-2.071-2.878c-0.883-0.762-1.938-1.328-3.164-1.697
				c-1.228-0.37-2.556-0.555-3.985-0.555c-1.359,0-2.586,0.144-3.682,0.429c-1.097,0.286-2.015,0.667-2.754,1.144
				c-0.476,0.334-0.852,0.703-1.125,1.108c-0.274,0.406-0.412,0.929-0.412,1.573V54.74c0,0.596,0.072,1.079,0.216,1.448
				c0.143,0.369,0.357,0.662,0.643,0.876c0.286,0.214,0.638,0.357,1.055,0.429c0.416,0.071,0.888,0.107,1.412,0.107
				c0.548,0,1.083-0.042,1.608-0.125c0.523-0.083,0.905-0.161,1.144-0.231v-5.935c0.882,0.31,1.835,0.465,2.86,0.465
				c1.357,0,2.592-0.191,3.699-0.572c1.108-0.381,2.056-0.959,2.842-1.734c0.786-0.774,1.394-1.733,1.822-2.877
				c0.43-1.144,0.644-2.478,0.644-4.003C140.175,40.991,139.925,39.614,139.424,38.458z M132.415,46.43v0.012
				c-0.026,0.013-0.052,0.024-0.078,0.037c-0.549,0.334-1.234,0.506-2.063,0.506c-0.381,0-0.738-0.048-1.072-0.143
				c-0.016-0.004-0.03-0.01-0.047-0.015c-0.287-0.069-0.547-0.168-0.783-0.297c-0.034-0.016-0.066-0.03-0.099-0.046v-0.003
				c-0.027-0.013-0.056-0.025-0.081-0.038v-0.017c-0.973-0.63-1.46-1.852-1.46-3.859c0-0.005,0-0.01,0-0.015
				c0-0.001,0-0.003,0-0.005c0-0.019,0.001-0.036,0.001-0.055c0.007-1.487,0.229-2.603,0.825-3.329
				c0.501-0.608,1.017-0.96,2.011-1.065c0.135-0.021,0.274-0.035,0.419-0.043c0.006,0,0.013,0,0.019-0.001
				c0.088-0.004,0.174-0.011,0.265-0.011c0.011,0,0.021,0.001,0.032,0.001c0.012,0,0.022-0.001,0.033-0.001
				c0.091,0,0.178,0.006,0.266,0.011c0.006,0,0.013,0,0.018,0.001c0.145,0.008,0.284,0.022,0.42,0.043
				c0.994,0.105,1.509,0.457,2.01,1.065c0.171,0.208,0.311,0.45,0.425,0.722c0.32,0.694,0.481,1.594,0.481,2.704
				C133.955,44.481,133.439,45.759,132.415,46.43z"/>
		</g>
	</g>
	<g display="none">
		<g display="inline">
			<linearGradient id="SVGID_10_" gradientUnits="userSpaceOnUse" x1="138.7773" y1="3.3901" x2="138.7773" y2="21.8706">
				<stop  offset="0" style="stop-color:#000064"/>
				<stop  offset="0.1908" style="stop-color:#000050"/>
				<stop  offset="0.4245" style="stop-color:#00003F"/>
				<stop  offset="0.6808" style="stop-color:#000035"/>
				<stop  offset="1" style="stop-color:#000032"/>
			</linearGradient>
			<path fill="url(#SVGID_10_)" d="M138.491,3.39c1.287,0,2.461,0.131,3.521,0.393c1.061,0.262,1.967,0.661,2.717,1.197
				c0.752,0.536,1.328,1.215,1.734,2.038c0.405,0.822,0.607,1.793,0.607,2.913v8.007c0,0.62-0.173,1.126-0.519,1.519
				c-0.345,0.394-0.757,0.733-1.232,1.019c-1.55,0.929-3.73,1.395-6.542,1.395c-1.263,0-2.401-0.12-3.414-0.358
				c-1.014-0.238-1.882-0.595-2.608-1.072c-0.728-0.477-1.287-1.084-1.681-1.823c-0.394-0.738-0.59-1.596-0.59-2.574
				c0-1.644,0.488-2.907,1.466-3.789c0.977-0.881,2.489-1.43,4.539-1.644l4.684-0.5v-0.25c0-0.69-0.304-1.185-0.912-1.483
				c-0.607-0.297-1.483-0.446-2.627-0.446c-0.906,0-1.787,0.095-2.646,0.286c-0.857,0.191-1.632,0.429-2.323,0.715
				c-0.31-0.214-0.572-0.542-0.786-0.983c-0.215-0.441-0.322-0.899-0.322-1.376c0-0.62,0.149-1.114,0.447-1.483
				s0.756-0.685,1.376-0.948c0.69-0.262,1.507-0.452,2.449-0.572C136.77,3.45,137.657,3.39,138.491,3.39z M138.777,17.438
				c0.405,0,0.852-0.041,1.341-0.125c0.487-0.084,0.851-0.197,1.09-0.34v-2.859l-2.573,0.215c-0.668,0.048-1.216,0.191-1.645,0.428
				c-0.43,0.239-0.644,0.596-0.644,1.073c0,0.477,0.185,0.864,0.555,1.162C137.271,17.289,137.896,17.438,138.777,17.438z"/>
			<linearGradient id="SVGID_11_" gradientUnits="userSpaceOnUse" x1="155.9883" y1="3.4253" x2="155.9883" y2="21.5845">
				<stop  offset="0" style="stop-color:#000064"/>
				<stop  offset="0.1908" style="stop-color:#000050"/>
				<stop  offset="0.4245" style="stop-color:#00003F"/>
				<stop  offset="0.6808" style="stop-color:#000035"/>
				<stop  offset="1" style="stop-color:#000032"/>
			</linearGradient>
			<path fill="url(#SVGID_11_)" d="M155.971,21.262c-0.238,0.071-0.613,0.143-1.126,0.214c-0.513,0.072-1.043,0.108-1.591,0.108
				c-0.524,0-0.995-0.036-1.412-0.108c-0.417-0.071-0.768-0.214-1.054-0.428c-0.286-0.214-0.507-0.506-0.661-0.876
				c-0.156-0.369-0.232-0.852-0.232-1.448V8.001c0-0.548,0.101-1.019,0.304-1.412c0.202-0.393,0.494-0.744,0.876-1.055
				c0.38-0.309,0.851-0.589,1.412-0.84c0.559-0.25,1.161-0.47,1.805-0.661c0.643-0.19,1.31-0.34,2.002-0.447
				c0.69-0.107,1.381-0.161,2.073-0.161c1.144,0,2.049,0.221,2.717,0.662c0.667,0.441,1,1.162,1,2.163
				c0,0.334-0.048,0.661-0.143,0.983s-0.214,0.614-0.357,0.875c-0.5,0-1.013,0.024-1.537,0.072
				c-0.524,0.048-1.036,0.119-1.537,0.215c-0.501,0.095-0.972,0.196-1.412,0.303c-0.44,0.107-0.816,0.232-1.126,0.375V21.262z"/>
			<linearGradient id="SVGID_12_" gradientUnits="userSpaceOnUse" x1="169.4102" y1="0.1011" x2="169.4102" y2="21.834">
				<stop  offset="0" style="stop-color:#000064"/>
				<stop  offset="0.1908" style="stop-color:#000050"/>
				<stop  offset="0.4245" style="stop-color:#00003F"/>
				<stop  offset="0.6808" style="stop-color:#000035"/>
				<stop  offset="1" style="stop-color:#000032"/>
			</linearGradient>
			<path fill="url(#SVGID_12_)" d="M169.769,15.329c0,0.62,0.196,1.061,0.59,1.322c0.393,0.263,0.946,0.394,1.662,0.394
				c0.356,0,0.726-0.029,1.108-0.089c0.38-0.059,0.713-0.137,1.001-0.232c0.214,0.263,0.398,0.554,0.553,0.875
				c0.155,0.322,0.232,0.709,0.232,1.162c0,0.906-0.339,1.644-1.019,2.216c-0.679,0.572-1.876,0.857-3.592,0.857
				c-2.098,0-3.712-0.477-4.844-1.43c-1.132-0.953-1.698-2.502-1.698-4.646V0.458c0.262-0.071,0.638-0.148,1.126-0.232
				c0.489-0.083,1.008-0.125,1.556-0.125c1.048,0,1.864,0.185,2.448,0.554c0.583,0.37,0.876,1.15,0.876,2.341v2.288h4.683
				c0.143,0.263,0.279,0.59,0.41,0.983c0.131,0.394,0.197,0.829,0.197,1.305c0,0.834-0.186,1.436-0.555,1.805
				c-0.369,0.37-0.863,0.554-1.482,0.554h-3.253V15.329z"/>
			<linearGradient id="SVGID_13_" gradientUnits="userSpaceOnUse" x1="115.2578" y1="3.3901" x2="115.2578" y2="21.5845">
				<stop  offset="0" style="stop-color:#000064"/>
				<stop  offset="0.1908" style="stop-color:#000050"/>
				<stop  offset="0.4245" style="stop-color:#00003F"/>
				<stop  offset="0.6808" style="stop-color:#000035"/>
				<stop  offset="1" style="stop-color:#000032"/>
			</linearGradient>
			<path fill="url(#SVGID_13_)" d="M110.324,3.39c0.978,0,1.937,0.137,2.878,0.411c0.94,0.274,1.757,0.686,2.448,1.233
				c0.715-0.476,1.52-0.87,2.412-1.18c0.895-0.31,1.973-0.464,3.235-0.464c0.906,0,1.793,0.119,2.664,0.357
				c0.868,0.239,1.643,0.614,2.323,1.126c0.679,0.512,1.221,1.192,1.626,2.037c0.405,0.846,0.608,1.877,0.608,3.092v11.26
				c-0.239,0.071-0.614,0.143-1.127,0.214c-0.513,0.072-1.042,0.108-1.59,0.108c-0.525,0-0.996-0.036-1.412-0.108
				c-0.417-0.071-0.77-0.214-1.055-0.428c-0.286-0.214-0.507-0.506-0.661-0.876c-0.155-0.369-0.233-0.852-0.233-1.448v-8.543
				c0-0.715-0.201-1.233-0.607-1.555c-0.405-0.322-0.953-0.482-1.644-0.482c-0.334,0-0.692,0.077-1.072,0.232
				c-0.381,0.156-0.667,0.316-0.858,0.483c0.023,0.095,0.035,0.185,0.035,0.268c0,0.083,0,0.161,0,0.232v11.903
				c-0.262,0.071-0.649,0.143-1.161,0.214c-0.513,0.072-1.03,0.108-1.554,0.108c-0.526,0-0.996-0.036-1.413-0.108
				c-0.418-0.071-0.768-0.214-1.054-0.428c-0.287-0.214-0.507-0.506-0.662-0.876c-0.155-0.369-0.232-0.852-0.232-1.448v-8.543
				c0-0.715-0.221-1.233-0.66-1.555c-0.442-0.322-0.972-0.482-1.592-0.482c-0.429,0-0.799,0.066-1.107,0.196
				c-0.311,0.132-0.572,0.257-0.787,0.376v12.546c-0.238,0.071-0.614,0.143-1.126,0.214c-0.513,0.072-1.043,0.108-1.591,0.108
				c-0.524,0-0.995-0.036-1.411-0.108c-0.418-0.071-0.77-0.214-1.055-0.428c-0.286-0.214-0.507-0.506-0.661-0.876
				c-0.155-0.369-0.233-0.852-0.233-1.448V7.93c0-0.644,0.138-1.156,0.411-1.537c0.275-0.381,0.649-0.738,1.126-1.073
				c0.81-0.571,1.817-1.036,3.021-1.394C107.756,3.568,109.014,3.39,110.324,3.39z"/>
			<linearGradient id="SVGID_14_" gradientUnits="userSpaceOnUse" x1="87.459" y1="-5.8496" x2="87.459" y2="27.2544">
				<stop  offset="0" style="stop-color:#000064"/>
				<stop  offset="0.1908" style="stop-color:#000050"/>
				<stop  offset="0.4245" style="stop-color:#00003F"/>
				<stop  offset="0.6808" style="stop-color:#000035"/>
				<stop  offset="1" style="stop-color:#000032"/>
			</linearGradient>
			<path fill="url(#SVGID_14_)" d="M85.205,13.941c-1.519-0.519-2.9-1.045-4.145-1.581c-1.242-0.535-2.313-1.183-3.211-1.942
				c-0.898-0.76-1.598-1.666-2.099-2.72C75.25,6.645,75,5.358,75,3.838c0-2.935,1.131-5.284,3.394-7.045
				c2.262-1.761,5.431-2.643,9.506-2.643c1.484,0,2.867,0.104,4.146,0.311c1.277,0.207,2.373,0.527,3.289,0.958
				c0.915,0.432,1.632,0.984,2.15,1.658c0.518,0.673,0.775,1.459,0.775,2.357c0,0.899-0.206,1.667-0.62,2.306
				c-0.414,0.639-0.916,1.184-1.503,1.632c-0.76-0.483-1.778-0.907-3.057-1.27c-1.277-0.362-2.677-0.543-4.195-0.543
				c-1.555,0-2.694,0.216-3.42,0.647c-0.725,0.432-1.088,0.977-1.088,1.632c0,0.518,0.225,0.941,0.673,1.269
				c0.449,0.329,1.122,0.631,2.021,0.907l2.746,0.881c3.246,1.036,5.741,2.357,7.485,3.963s2.616,3.791,2.616,6.554
				c0,2.936-1.158,5.31-3.471,7.123c-2.314,1.813-5.717,2.72-10.206,2.72c-1.589,0-3.065-0.129-4.43-0.388
				c-1.365-0.259-2.556-0.639-3.574-1.14c-1.02-0.5-1.813-1.122-2.383-1.865C75.285,23.119,75,22.264,75,21.297
				c0-1.001,0.293-1.856,0.881-2.564c0.587-0.707,1.225-1.251,1.916-1.632c0.968,0.761,2.15,1.417,3.55,1.97
				c1.399,0.552,2.927,0.828,4.585,0.828c1.691,0,2.883-0.259,3.574-0.777s1.036-1.122,1.036-1.813c0-0.69-0.277-1.217-0.829-1.58
				c-0.552-0.362-1.329-0.716-2.331-1.062L85.205,13.941z"/>
		</g>
		<g display="inline">
			<linearGradient id="SVGID_15_" gradientUnits="userSpaceOnUse" x1="152.8525" y1="34.4131" x2="152.8525" y2="39.7061">
				<stop  offset="0" style="stop-color:#323232"/>
				<stop  offset="1" style="stop-color:#000000"/>
			</linearGradient>
			<path fill-rule="evenodd" clip-rule="evenodd" fill="url(#SVGID_15_)" d="M152.719,34.732c-0.002,0.866-0.002,1.733-0.002,2.599
				c0,0.153,0.011,0.289-0.175,0.4c-0.169,0.102-0.162,0.322-0.031,0.463c0.046,0.051,0.109,0.092,0.171,0.143
				c-0.214,0.452-0.431,0.905-0.652,1.368c0.563,0,1.093,0,1.646,0.001c-0.222-0.466-0.436-0.918-0.649-1.366
				c0.352-0.281,0.351-0.393,0.011-0.708c-0.032-0.03-0.041-0.089-0.041-0.135c-0.002-0.993,0.001-1.986-0.002-2.979
				c0-0.043,0.008-0.077,0.026-0.104l-0.302,0.134C152.719,34.624,152.719,34.679,152.719,34.732z"/>
			<linearGradient id="SVGID_16_" gradientUnits="userSpaceOnUse" x1="146.5254" y1="27.3301" x2="146.5254" y2="34.6582">
				<stop  offset="0" style="stop-color:#323232"/>
				<stop  offset="1" style="stop-color:#000000"/>
			</linearGradient>
			<path fill-rule="evenodd" clip-rule="evenodd" fill="url(#SVGID_16_)" d="M154.679,34.561c-2.16-2.272-4.322-4.543-6.479-6.818
				c-0.111-0.116-0.212-0.163-0.372-0.167c-1.335-0.029-2.672-0.067-4.008-0.102c-1.829-0.048-3.657-0.096-5.525-0.145
				c0.051,0.058,0.077,0.09,0.106,0.12c2.172,2.287,4.344,4.573,6.521,6.856c0.053,0.056,0.162,0.099,0.24,0.102
				c2.402,0.067,4.803,0.128,7.204,0.191l0,0l0.756,0.02c0.007,0,0.014-0.001,0.021-0.001c0.468,0.017,0.937,0.028,1.405,0.04
				c0.063,0.001,0.127-0.002,0.208-0.003C154.719,34.608,154.7,34.583,154.679,34.561z"/>
		</g>
		<linearGradient id="SVGID_17_" gradientUnits="userSpaceOnUse" x1="145.1572" y1="30.7842" x2="145.1572" y2="38.041">
			<stop  offset="0" style="stop-color:#F4A642"/>
			<stop  offset="1" style="stop-color:#D38F39"/>
		</linearGradient>
		<path display="inline" fill-rule="evenodd" clip-rule="evenodd" fill="url(#SVGID_17_)" d="M150.311,34.874
			c-0.035,0.08-0.06,0.134-0.085,0.188c-0.288,0.65-0.594,1.294-0.861,1.953c-0.209,0.514-0.616,0.798-1.189,0.926
			c-0.719,0.162-1.462,0.112-2.208-0.044c-1.801-0.377-3.414-1.136-4.783-2.358c-0.445-0.398-0.815-0.845-1.041-1.371
			c-0.174-0.405-0.189-0.792-0.015-1.169c0.309-0.671,0.603-1.35,0.903-2.025c0.024-0.054,0.048-0.108,0.084-0.189
			c0.063,0.059,0.106,0.099,0.147,0.141c1.153,1.212,2.307,2.424,3.455,3.64c0.108,0.117,0.211,0.164,0.371,0.168
			c1.679,0.038,3.357,0.083,5.035,0.127C150.173,34.861,150.222,34.867,150.311,34.874z"/>
		<g display="inline">
			<linearGradient id="SVGID_18_" gradientUnits="userSpaceOnUse" x1="108.125" y1="24.4106" x2="108.125" y2="51.7593">
				<stop  offset="0" style="stop-color:#000064"/>
				<stop  offset="0.1908" style="stop-color:#000050"/>
				<stop  offset="0.4245" style="stop-color:#00003F"/>
				<stop  offset="0.6808" style="stop-color:#000035"/>
				<stop  offset="1" style="stop-color:#000032"/>
			</linearGradient>
			<path fill="url(#SVGID_18_)" d="M102.772,25.634c0.495-0.291,1.246-0.568,2.25-0.83c1.005-0.262,2.017-0.393,3.037-0.393
				c1.455,0,2.744,0.211,3.865,0.633c1.122,0.423,1.843,1.086,2.163,1.988c0.524,1.515,1.092,3.277,1.704,5.286
				c0.611,2.01,1.224,4.085,1.835,6.226c0.611,2.141,1.209,4.253,1.791,6.335s1.093,3.925,1.529,5.526
				c-0.35,0.408-0.873,0.736-1.572,0.983c-0.699,0.247-1.529,0.371-2.49,0.371c-0.699,0-1.289-0.059-1.77-0.174
				c-0.481-0.117-0.874-0.291-1.18-0.524c-0.307-0.233-0.554-0.539-0.743-0.917c-0.189-0.378-0.357-0.815-0.502-1.311l-0.787-3.014
				h-7.907c-0.233,0.874-0.466,1.777-0.699,2.709s-0.466,1.835-0.698,2.708c-0.408,0.146-0.839,0.269-1.29,0.371
				c-0.451,0.102-0.998,0.153-1.638,0.153c-1.485,0-2.585-0.255-3.299-0.764c-0.714-0.509-1.07-1.216-1.07-2.119
				c0-0.407,0.058-0.815,0.175-1.223c0.116-0.408,0.247-0.888,0.394-1.442c0.203-0.786,0.487-1.762,0.853-2.927
				c0.363-1.164,0.764-2.425,1.2-3.779c0.438-1.354,0.902-2.745,1.398-4.172c0.495-1.427,0.961-2.774,1.397-4.041
				c0.438-1.267,0.838-2.396,1.202-3.386C102.284,26.916,102.568,26.158,102.772,25.634z M108.015,31.27
				c-0.407,1.224-0.866,2.585-1.375,4.085c-0.511,1.501-0.97,3.022-1.377,4.566h5.418c-0.408-1.573-0.823-3.109-1.245-4.609
				c-0.423-1.5-0.809-2.847-1.158-4.042H108.015z"/>
			<linearGradient id="SVGID_19_" gradientUnits="userSpaceOnUse" x1="140.332" y1="33.3286" x2="140.332" y2="57.6001">
				<stop  offset="0" style="stop-color:#000064"/>
				<stop  offset="0.1908" style="stop-color:#000050"/>
				<stop  offset="0.4245" style="stop-color:#00003F"/>
				<stop  offset="0.6808" style="stop-color:#000035"/>
				<stop  offset="1" style="stop-color:#000032"/>
			</linearGradient>
			<path fill="url(#SVGID_19_)" d="M148.434,38.2c-0.062,0.019-0.123,0.037-0.189,0.052c-0.316,0.071-0.654,0.107-1.002,0.107
				c-0.418,0-0.856-0.049-1.341-0.151c-1.911-0.4-3.569-1.218-4.93-2.432c-0.529-0.472-0.896-0.957-1.121-1.483
				c-0.141-0.329-0.189-0.649-0.146-0.958c-0.124-0.003-0.248-0.007-0.373-0.007c-1.256,0-2.399,0.124-3.431,0.369
				c0.726,0.349,1.385,0.777,1.971,1.283c0.965,0.835,1.729,1.893,2.274,3.145c0.854,0.111,1.531,0.463,2.027,1.066
				c0.606,0.739,0.911,1.871,0.911,3.396c0,2.568-0.942,4.01-2.827,4.329c-0.467,1.228-1.136,2.277-1.99,3.118
				c-0.868,0.855-1.925,1.501-3.142,1.918c-1.134,0.39-2.4,0.594-3.765,0.612v2.176c0,0.596,0.07,1.079,0.214,1.448
				c0.142,0.37,0.357,0.662,0.644,0.876c0.285,0.214,0.637,0.357,1.054,0.429c0.416,0.071,0.888,0.107,1.412,0.107
				c0.548,0,1.083-0.042,1.609-0.125c0.523-0.084,0.904-0.161,1.144-0.232v-5.935c0.881,0.31,1.834,0.465,2.859,0.465
				c1.358,0,2.592-0.191,3.7-0.572c1.107-0.381,2.054-0.959,2.841-1.734c0.787-0.774,1.395-1.733,1.823-2.877
				c0.43-1.144,0.644-2.478,0.644-4.003c0-1.597-0.251-2.973-0.751-4.129C148.515,38.37,148.474,38.286,148.434,38.2z"/>
			<linearGradient id="SVGID_20_" gradientUnits="userSpaceOnUse" x1="131.2031" y1="33.3286" x2="131.2031" y2="57.6001">
				<stop  offset="0" style="stop-color:#000064"/>
				<stop  offset="0.1908" style="stop-color:#000050"/>
				<stop  offset="0.4245" style="stop-color:#00003F"/>
				<stop  offset="0.6808" style="stop-color:#000035"/>
				<stop  offset="1" style="stop-color:#000032"/>
			</linearGradient>
			<path fill="url(#SVGID_20_)" d="M139.424,38.458c-0.499-1.156-1.191-2.114-2.071-2.878c-0.883-0.762-1.938-1.328-3.164-1.697
				c-1.228-0.37-2.556-0.555-3.985-0.555c-1.359,0-2.586,0.144-3.682,0.429c-1.097,0.286-2.015,0.667-2.754,1.144
				c-0.476,0.334-0.852,0.703-1.125,1.108c-0.274,0.406-0.412,0.929-0.412,1.573V54.74c0,0.596,0.072,1.079,0.216,1.448
				c0.143,0.37,0.357,0.662,0.643,0.876c0.286,0.214,0.638,0.356,1.055,0.428c0.416,0.071,0.888,0.107,1.412,0.107
				c0.548,0,1.083-0.042,1.608-0.125c0.523-0.084,0.905-0.161,1.144-0.232v-5.935c0.882,0.31,1.835,0.465,2.86,0.465
				c1.357,0,2.592-0.191,3.699-0.572c1.108-0.381,2.056-0.959,2.842-1.734c0.786-0.774,1.394-1.733,1.822-2.877
				c0.43-1.144,0.644-2.478,0.644-4.003C140.175,40.991,139.925,39.614,139.424,38.458z M132.415,46.43v0.012
				c-0.026,0.013-0.052,0.024-0.078,0.037c-0.549,0.334-1.234,0.506-2.063,0.506c-0.381,0-0.738-0.048-1.072-0.143
				c-0.016-0.004-0.03-0.01-0.047-0.015c-0.287-0.069-0.547-0.168-0.783-0.297c-0.034-0.016-0.066-0.03-0.099-0.046v-0.003
				c-0.027-0.013-0.056-0.025-0.081-0.038v-0.017c-0.973-0.63-1.46-1.852-1.46-3.859c0-0.005,0-0.01,0-0.015
				c0-0.001,0-0.003,0-0.005c0-0.019,0.001-0.036,0.001-0.055c0.007-1.487,0.229-2.603,0.825-3.329
				c0.501-0.608,1.017-0.96,2.011-1.065c0.135-0.021,0.274-0.035,0.419-0.043c0.006,0,0.013,0,0.019-0.001
				c0.088-0.004,0.174-0.011,0.265-0.011c0.011,0,0.021,0.001,0.032,0.001c0.012,0,0.022-0.001,0.033-0.001
				c0.091,0,0.178,0.006,0.266,0.011c0.006,0,0.013,0,0.018,0.001c0.145,0.008,0.284,0.022,0.42,0.043
				c0.994,0.105,1.509,0.457,2.01,1.065c0.171,0.208,0.311,0.45,0.425,0.722c0.32,0.694,0.481,1.594,0.481,2.704
				C133.955,44.481,133.439,45.759,132.415,46.43z"/>
		</g>
	</g>
	<g display="none">
		<g display="inline">
			<path fill="#FFFFFF" d="M138.491,3.39c1.287,0,2.461,0.131,3.521,0.393c1.061,0.262,1.967,0.661,2.717,1.197
				c0.752,0.536,1.328,1.215,1.734,2.038c0.405,0.822,0.607,1.793,0.607,2.913v8.007c0,0.62-0.173,1.126-0.519,1.519
				c-0.345,0.394-0.757,0.733-1.232,1.019c-1.55,0.929-3.73,1.395-6.542,1.395c-1.263,0-2.401-0.12-3.414-0.358
				c-1.014-0.238-1.882-0.595-2.608-1.072c-0.728-0.477-1.287-1.084-1.681-1.823c-0.394-0.738-0.59-1.596-0.59-2.574
				c0-1.644,0.488-2.907,1.466-3.789c0.977-0.881,2.489-1.43,4.539-1.644l4.684-0.5v-0.25c0-0.69-0.304-1.185-0.912-1.483
				c-0.607-0.297-1.483-0.446-2.627-0.446c-0.906,0-1.787,0.095-2.646,0.286c-0.857,0.191-1.632,0.429-2.323,0.715
				c-0.31-0.214-0.572-0.542-0.786-0.983c-0.215-0.441-0.322-0.899-0.322-1.376c0-0.62,0.149-1.114,0.447-1.483
				s0.756-0.685,1.376-0.948c0.69-0.262,1.507-0.452,2.449-0.572C136.77,3.45,137.657,3.39,138.491,3.39z M138.777,17.438
				c0.405,0,0.852-0.041,1.341-0.125c0.487-0.084,0.851-0.197,1.09-0.34v-2.859l-2.573,0.215c-0.668,0.048-1.216,0.191-1.645,0.428
				c-0.43,0.239-0.644,0.596-0.644,1.073c0,0.477,0.185,0.864,0.555,1.162C137.271,17.289,137.896,17.438,138.777,17.438z"/>
			<path fill="#FFFFFF" d="M155.971,21.262c-0.238,0.071-0.613,0.143-1.126,0.214c-0.513,0.072-1.043,0.108-1.591,0.108
				c-0.524,0-0.995-0.036-1.412-0.108c-0.417-0.071-0.768-0.214-1.054-0.428c-0.286-0.214-0.507-0.506-0.661-0.876
				c-0.156-0.369-0.232-0.852-0.232-1.448V8.001c0-0.548,0.101-1.019,0.304-1.412c0.202-0.393,0.494-0.744,0.876-1.055
				c0.38-0.309,0.851-0.589,1.412-0.84c0.559-0.25,1.161-0.47,1.805-0.661c0.643-0.19,1.31-0.34,2.002-0.447
				c0.69-0.107,1.381-0.161,2.073-0.161c1.144,0,2.049,0.221,2.717,0.662c0.667,0.441,1,1.162,1,2.163
				c0,0.334-0.048,0.661-0.143,0.983s-0.214,0.614-0.357,0.875c-0.5,0-1.013,0.024-1.537,0.072
				c-0.524,0.048-1.036,0.119-1.537,0.215c-0.501,0.095-0.972,0.196-1.412,0.303c-0.44,0.107-0.816,0.232-1.126,0.375V21.262z"/>
			<path fill="#FFFFFF" d="M169.769,15.329c0,0.62,0.196,1.061,0.59,1.322c0.393,0.263,0.946,0.394,1.662,0.394
				c0.356,0,0.726-0.029,1.108-0.089c0.38-0.059,0.713-0.137,1.001-0.232c0.214,0.263,0.398,0.554,0.553,0.875
				c0.155,0.322,0.232,0.709,0.232,1.162c0,0.906-0.339,1.644-1.019,2.216c-0.679,0.572-1.876,0.857-3.592,0.857
				c-2.098,0-3.712-0.477-4.844-1.43c-1.132-0.953-1.698-2.502-1.698-4.646V0.458c0.262-0.071,0.638-0.148,1.126-0.232
				c0.489-0.083,1.008-0.125,1.556-0.125c1.048,0,1.864,0.185,2.448,0.554c0.583,0.37,0.876,1.15,0.876,2.341v2.288h4.683
				c0.143,0.263,0.279,0.59,0.41,0.983c0.131,0.394,0.197,0.829,0.197,1.305c0,0.834-0.186,1.436-0.555,1.805
				c-0.369,0.37-0.863,0.554-1.482,0.554h-3.253V15.329z"/>
			<path fill="#FFFFFF" d="M110.324,3.39c0.978,0,1.937,0.137,2.878,0.411c0.94,0.274,1.757,0.686,2.448,1.233
				c0.715-0.476,1.52-0.87,2.412-1.18c0.895-0.31,1.973-0.464,3.235-0.464c0.906,0,1.793,0.119,2.664,0.357
				c0.868,0.239,1.643,0.614,2.323,1.126c0.679,0.512,1.221,1.192,1.626,2.037c0.405,0.846,0.608,1.877,0.608,3.092v11.26
				c-0.239,0.071-0.614,0.143-1.127,0.214c-0.513,0.072-1.042,0.108-1.59,0.108c-0.525,0-0.996-0.036-1.412-0.108
				c-0.417-0.071-0.77-0.214-1.055-0.428c-0.286-0.214-0.507-0.506-0.661-0.876c-0.155-0.369-0.233-0.852-0.233-1.448v-8.543
				c0-0.715-0.201-1.233-0.607-1.555c-0.405-0.322-0.953-0.482-1.644-0.482c-0.334,0-0.692,0.077-1.072,0.232
				c-0.381,0.156-0.667,0.316-0.858,0.483c0.023,0.095,0.035,0.185,0.035,0.268c0,0.083,0,0.161,0,0.232v11.903
				c-0.262,0.071-0.649,0.143-1.161,0.214c-0.513,0.072-1.03,0.108-1.554,0.108c-0.526,0-0.996-0.036-1.413-0.108
				c-0.418-0.071-0.768-0.214-1.054-0.428c-0.287-0.214-0.507-0.506-0.662-0.876c-0.155-0.369-0.232-0.852-0.232-1.448v-8.543
				c0-0.715-0.221-1.233-0.66-1.555c-0.442-0.322-0.972-0.482-1.592-0.482c-0.429,0-0.799,0.066-1.107,0.196
				c-0.311,0.132-0.572,0.257-0.787,0.376v12.546c-0.238,0.071-0.614,0.143-1.126,0.214c-0.513,0.072-1.043,0.108-1.591,0.108
				c-0.524,0-0.995-0.036-1.411-0.108c-0.418-0.071-0.77-0.214-1.055-0.428c-0.286-0.214-0.507-0.506-0.661-0.876
				c-0.155-0.369-0.233-0.852-0.233-1.448V7.93c0-0.644,0.138-1.156,0.411-1.537c0.275-0.381,0.649-0.738,1.126-1.073
				c0.81-0.571,1.817-1.036,3.021-1.394C107.756,3.568,109.014,3.39,110.324,3.39z"/>
			<path fill="#FFFFFF" d="M85.205,13.941c-1.519-0.519-2.9-1.045-4.145-1.581c-1.242-0.535-2.313-1.183-3.211-1.942
				c-0.898-0.76-1.598-1.666-2.099-2.72C75.25,6.645,75,5.358,75,3.838c0-2.935,1.131-5.284,3.394-7.045
				c2.262-1.761,5.431-2.643,9.506-2.643c1.484,0,2.867,0.104,4.146,0.311c1.277,0.207,2.373,0.527,3.289,0.958
				c0.915,0.432,1.632,0.984,2.15,1.658c0.518,0.673,0.775,1.459,0.775,2.357c0,0.899-0.206,1.667-0.62,2.306
				c-0.414,0.639-0.916,1.184-1.503,1.632c-0.76-0.483-1.778-0.907-3.057-1.27c-1.277-0.362-2.677-0.543-4.195-0.543
				c-1.555,0-2.694,0.216-3.42,0.647c-0.725,0.432-1.088,0.977-1.088,1.632c0,0.518,0.225,0.941,0.673,1.269
				c0.449,0.329,1.122,0.631,2.021,0.907l2.746,0.881c3.246,1.036,5.741,2.357,7.485,3.963s2.616,3.791,2.616,6.554
				c0,2.936-1.158,5.31-3.471,7.123c-2.314,1.813-5.717,2.72-10.206,2.72c-1.589,0-3.065-0.129-4.43-0.388
				c-1.365-0.259-2.556-0.639-3.574-1.14c-1.02-0.5-1.813-1.122-2.383-1.865C75.285,23.119,75,22.264,75,21.297
				c0-1.001,0.293-1.856,0.881-2.564c0.587-0.707,1.225-1.251,1.916-1.632c0.968,0.761,2.15,1.417,3.55,1.97
				c1.399,0.552,2.927,0.828,4.585,0.828c1.691,0,2.883-0.259,3.574-0.777s1.036-1.122,1.036-1.813c0-0.69-0.277-1.217-0.829-1.58
				c-0.552-0.362-1.329-0.716-2.331-1.062L85.205,13.941z"/>
		</g>
		<g display="inline">
			<g>
				<path fill-rule="evenodd" clip-rule="evenodd" fill="#FFFFFF" d="M152.719,34.732c-0.002,0.866-0.002,1.733-0.002,2.599
					c0,0.153,0.011,0.289-0.175,0.4c-0.169,0.102-0.162,0.322-0.031,0.463c0.046,0.051,0.109,0.092,0.171,0.143
					c-0.214,0.452-0.431,0.905-0.652,1.368c0.563,0,1.093,0,1.646,0.001c-0.222-0.466-0.436-0.918-0.649-1.366
					c0.352-0.281,0.351-0.393,0.011-0.708c-0.032-0.03-0.041-0.089-0.041-0.135c-0.002-0.993,0.001-1.986-0.002-2.979
					c0-0.043,0.008-0.077,0.026-0.104l-0.302,0.134C152.719,34.624,152.719,34.679,152.719,34.732z"/>
				<path fill-rule="evenodd" clip-rule="evenodd" fill="#FFFFFF" d="M154.679,34.561c-2.16-2.272-4.322-4.543-6.479-6.818
					c-0.111-0.116-0.212-0.163-0.372-0.167c-1.335-0.029-2.672-0.067-4.008-0.102c-1.829-0.048-3.657-0.096-5.525-0.145
					c0.051,0.058,0.077,0.09,0.106,0.12c2.172,2.287,4.344,4.573,6.521,6.856c0.053,0.056,0.162,0.099,0.24,0.102
					c2.402,0.067,4.803,0.128,7.204,0.191l0,0l0.756,0.02c0.007,0,0.014-0.001,0.021-0.001c0.468,0.017,0.937,0.028,1.405,0.04
					c0.063,0.001,0.127-0.002,0.208-0.003C154.719,34.608,154.7,34.583,154.679,34.561z"/>
			</g>
			<path fill-rule="evenodd" clip-rule="evenodd" fill="#FFFFFF" d="M150.311,34.874c-0.035,0.08-0.06,0.134-0.085,0.188
				c-0.288,0.65-0.594,1.294-0.861,1.953c-0.209,0.514-0.616,0.798-1.189,0.926c-0.719,0.162-1.462,0.112-2.208-0.044
				c-1.801-0.377-3.414-1.136-4.783-2.358c-0.445-0.398-0.815-0.845-1.041-1.371c-0.174-0.405-0.189-0.792-0.015-1.169
				c0.309-0.671,0.603-1.35,0.903-2.025c0.024-0.054,0.048-0.108,0.084-0.189c0.063,0.059,0.106,0.099,0.147,0.141
				c1.153,1.212,2.307,2.424,3.455,3.64c0.108,0.117,0.211,0.164,0.371,0.168c1.679,0.038,3.357,0.083,5.035,0.127
				C150.173,34.861,150.222,34.867,150.311,34.874z"/>
		</g>
		<g display="inline">
			<path fill="#FFFFFF" d="M102.772,25.634c0.495-0.291,1.246-0.568,2.25-0.83c1.005-0.262,2.017-0.393,3.037-0.393
				c1.455,0,2.744,0.211,3.865,0.633c1.122,0.423,1.843,1.086,2.163,1.988c0.524,1.515,1.092,3.277,1.704,5.286
				c0.611,2.01,1.224,4.085,1.835,6.226c0.611,2.141,1.209,4.253,1.791,6.335s1.093,3.925,1.529,5.526
				c-0.35,0.408-0.873,0.736-1.572,0.983c-0.699,0.247-1.529,0.371-2.49,0.371c-0.699,0-1.289-0.059-1.77-0.174
				c-0.481-0.117-0.874-0.291-1.18-0.524c-0.307-0.233-0.554-0.539-0.743-0.917c-0.189-0.378-0.357-0.815-0.502-1.311l-0.787-3.014
				h-7.907c-0.233,0.874-0.466,1.777-0.699,2.709s-0.466,1.835-0.698,2.708c-0.408,0.146-0.839,0.269-1.29,0.371
				c-0.451,0.102-0.998,0.153-1.638,0.153c-1.485,0-2.585-0.255-3.299-0.764c-0.714-0.509-1.07-1.216-1.07-2.119
				c0-0.407,0.058-0.815,0.175-1.223c0.116-0.408,0.247-0.888,0.394-1.442c0.203-0.786,0.487-1.762,0.853-2.927
				c0.363-1.164,0.764-2.425,1.2-3.779c0.438-1.354,0.902-2.745,1.398-4.172c0.495-1.427,0.961-2.774,1.397-4.041
				c0.438-1.267,0.838-2.396,1.202-3.386C102.284,26.916,102.568,26.158,102.772,25.634z M108.015,31.27
				c-0.407,1.224-0.866,2.585-1.375,4.085c-0.511,1.501-0.97,3.022-1.377,4.566h5.418c-0.408-1.573-0.823-3.109-1.245-4.609
				c-0.423-1.5-0.809-2.847-1.158-4.042H108.015z"/>
			<path fill="#FFFFFF" d="M148.434,38.2c-0.062,0.019-0.123,0.037-0.189,0.052c-0.316,0.071-0.654,0.107-1.002,0.107
				c-0.418,0-0.856-0.049-1.341-0.151c-1.911-0.4-3.569-1.218-4.93-2.432c-0.529-0.472-0.896-0.957-1.121-1.483
				c-0.141-0.329-0.189-0.649-0.146-0.958c-0.124-0.003-0.248-0.007-0.373-0.007c-1.256,0-2.399,0.124-3.431,0.369
				c0.726,0.349,1.385,0.777,1.971,1.283c0.965,0.835,1.729,1.893,2.274,3.145c0.854,0.111,1.531,0.463,2.027,1.066
				c0.606,0.739,0.911,1.871,0.911,3.396c0,2.568-0.942,4.01-2.827,4.329c-0.467,1.228-1.136,2.277-1.99,3.118
				c-0.868,0.855-1.925,1.501-3.142,1.918c-1.134,0.39-2.4,0.594-3.765,0.612v2.176c0,0.596,0.07,1.079,0.214,1.448
				c0.142,0.369,0.357,0.662,0.644,0.876c0.285,0.214,0.637,0.357,1.054,0.429c0.416,0.071,0.888,0.107,1.412,0.107
				c0.548,0,1.083-0.042,1.609-0.125c0.523-0.083,0.904-0.161,1.144-0.231v-5.935c0.881,0.31,1.834,0.465,2.859,0.465
				c1.358,0,2.592-0.191,3.7-0.572c1.107-0.381,2.054-0.959,2.841-1.734c0.787-0.774,1.395-1.733,1.823-2.877
				c0.43-1.144,0.644-2.478,0.644-4.003c0-1.597-0.251-2.973-0.751-4.129C148.515,38.37,148.474,38.286,148.434,38.2z"/>
			<path fill="#FFFFFF" d="M139.424,38.458c-0.499-1.156-1.191-2.114-2.071-2.878c-0.883-0.762-1.938-1.328-3.164-1.697
				c-1.228-0.37-2.556-0.555-3.985-0.555c-1.359,0-2.586,0.144-3.682,0.429c-1.097,0.286-2.015,0.667-2.754,1.144
				c-0.476,0.334-0.852,0.703-1.125,1.108c-0.274,0.406-0.412,0.929-0.412,1.573V54.74c0,0.596,0.072,1.079,0.216,1.448
				c0.143,0.369,0.357,0.662,0.643,0.876c0.286,0.214,0.638,0.357,1.055,0.429c0.416,0.071,0.888,0.107,1.412,0.107
				c0.548,0,1.083-0.042,1.608-0.125c0.523-0.083,0.905-0.161,1.144-0.231v-5.935c0.882,0.31,1.835,0.465,2.86,0.465
				c1.357,0,2.592-0.191,3.699-0.572c1.108-0.381,2.056-0.959,2.842-1.734c0.786-0.774,1.394-1.733,1.822-2.877
				c0.43-1.144,0.644-2.478,0.644-4.003C140.175,40.991,139.925,39.614,139.424,38.458z M132.415,46.43v0.012
				c-0.026,0.013-0.052,0.024-0.078,0.037c-0.549,0.334-1.234,0.506-2.063,0.506c-0.381,0-0.738-0.048-1.072-0.143
				c-0.016-0.004-0.03-0.01-0.047-0.015c-0.287-0.069-0.547-0.168-0.783-0.297c-0.034-0.016-0.066-0.03-0.099-0.046v-0.003
				c-0.027-0.013-0.056-0.025-0.081-0.038v-0.017c-0.973-0.63-1.46-1.852-1.46-3.859c0-0.005,0-0.01,0-0.015
				c0-0.001,0-0.003,0-0.005c0-0.019,0.001-0.036,0.001-0.055c0.007-1.487,0.229-2.603,0.825-3.329
				c0.501-0.608,1.017-0.96,2.011-1.065c0.135-0.021,0.274-0.035,0.419-0.043c0.006,0,0.013,0,0.019-0.001
				c0.088-0.004,0.174-0.011,0.265-0.011c0.011,0,0.021,0.001,0.032,0.001c0.012,0,0.022-0.001,0.033-0.001
				c0.091,0,0.178,0.006,0.266,0.011c0.006,0,0.013,0,0.018,0.001c0.145,0.008,0.284,0.022,0.42,0.043
				c0.994,0.105,1.509,0.457,2.01,1.065c0.171,0.208,0.311,0.45,0.425,0.722c0.32,0.694,0.481,1.594,0.481,2.704
				C133.955,44.481,133.439,45.759,132.415,46.43z"/>
		</g>
	</g>
	<g display="none">
		<g display="inline">
			<path fill="#F4A642" d="M138.491,3.39c1.287,0,2.461,0.131,3.521,0.393c1.061,0.262,1.967,0.661,2.717,1.197
				c0.752,0.536,1.328,1.215,1.734,2.038c0.405,0.822,0.607,1.793,0.607,2.913v8.007c0,0.62-0.173,1.126-0.519,1.519
				c-0.345,0.394-0.757,0.733-1.232,1.019c-1.55,0.929-3.73,1.395-6.542,1.395c-1.263,0-2.401-0.12-3.414-0.358
				c-1.014-0.238-1.882-0.595-2.608-1.072c-0.728-0.477-1.287-1.084-1.681-1.823c-0.394-0.738-0.59-1.596-0.59-2.574
				c0-1.644,0.488-2.907,1.466-3.789c0.977-0.881,2.489-1.43,4.539-1.644l4.684-0.5v-0.25c0-0.69-0.304-1.185-0.912-1.483
				c-0.607-0.297-1.483-0.446-2.627-0.446c-0.906,0-1.787,0.095-2.646,0.286c-0.857,0.191-1.632,0.429-2.323,0.715
				c-0.31-0.214-0.572-0.542-0.786-0.983c-0.215-0.441-0.322-0.899-0.322-1.376c0-0.62,0.149-1.114,0.447-1.483
				s0.756-0.685,1.376-0.948c0.69-0.262,1.507-0.452,2.449-0.572C136.77,3.45,137.657,3.39,138.491,3.39z M138.777,17.438
				c0.405,0,0.852-0.041,1.341-0.125c0.487-0.084,0.851-0.197,1.09-0.34v-2.859l-2.573,0.215c-0.668,0.048-1.216,0.191-1.645,0.428
				c-0.43,0.239-0.644,0.596-0.644,1.073c0,0.477,0.185,0.864,0.555,1.162C137.271,17.289,137.896,17.438,138.777,17.438z"/>
			<path fill="#F4A642" d="M155.971,21.262c-0.238,0.071-0.613,0.143-1.126,0.214c-0.513,0.072-1.043,0.108-1.591,0.108
				c-0.524,0-0.995-0.036-1.412-0.108c-0.417-0.071-0.768-0.214-1.054-0.428c-0.286-0.214-0.507-0.506-0.661-0.876
				c-0.156-0.369-0.232-0.852-0.232-1.448V8.001c0-0.548,0.101-1.019,0.304-1.412c0.202-0.393,0.494-0.744,0.876-1.055
				c0.38-0.309,0.851-0.589,1.412-0.84c0.559-0.25,1.161-0.47,1.805-0.661c0.643-0.19,1.31-0.34,2.002-0.447
				c0.69-0.107,1.381-0.161,2.073-0.161c1.144,0,2.049,0.221,2.717,0.662c0.667,0.441,1,1.162,1,2.163
				c0,0.334-0.048,0.661-0.143,0.983s-0.214,0.614-0.357,0.875c-0.5,0-1.013,0.024-1.537,0.072
				c-0.524,0.048-1.036,0.119-1.537,0.215c-0.501,0.095-0.972,0.196-1.412,0.303c-0.44,0.107-0.816,0.232-1.126,0.375V21.262z"/>
			<path fill="#F4A642" d="M169.769,15.329c0,0.62,0.196,1.061,0.59,1.322c0.393,0.263,0.946,0.394,1.662,0.394
				c0.356,0,0.726-0.029,1.108-0.089c0.38-0.059,0.713-0.137,1.001-0.232c0.214,0.263,0.398,0.554,0.553,0.875
				c0.155,0.322,0.232,0.709,0.232,1.162c0,0.906-0.339,1.644-1.019,2.216c-0.679,0.572-1.876,0.857-3.592,0.857
				c-2.098,0-3.712-0.477-4.844-1.43c-1.132-0.953-1.698-2.502-1.698-4.646V0.458c0.262-0.071,0.638-0.148,1.126-0.232
				c0.489-0.083,1.008-0.125,1.556-0.125c1.048,0,1.864,0.185,2.448,0.554c0.583,0.37,0.876,1.15,0.876,2.341v2.288h4.683
				c0.143,0.263,0.279,0.59,0.41,0.983c0.131,0.394,0.197,0.829,0.197,1.305c0,0.834-0.186,1.436-0.555,1.805
				c-0.369,0.37-0.863,0.554-1.482,0.554h-3.253V15.329z"/>
			<path fill="#F4A642" d="M110.324,3.39c0.978,0,1.937,0.137,2.878,0.411c0.94,0.274,1.757,0.686,2.448,1.233
				c0.715-0.476,1.52-0.87,2.412-1.18c0.895-0.31,1.973-0.464,3.235-0.464c0.906,0,1.793,0.119,2.664,0.357
				c0.868,0.239,1.643,0.614,2.323,1.126c0.679,0.512,1.221,1.192,1.626,2.037c0.405,0.846,0.608,1.877,0.608,3.092v11.26
				c-0.239,0.071-0.614,0.143-1.127,0.214c-0.513,0.072-1.042,0.108-1.59,0.108c-0.525,0-0.996-0.036-1.412-0.108
				c-0.417-0.071-0.77-0.214-1.055-0.428c-0.286-0.214-0.507-0.506-0.661-0.876c-0.155-0.369-0.233-0.852-0.233-1.448v-8.543
				c0-0.715-0.201-1.233-0.607-1.555c-0.405-0.322-0.953-0.482-1.644-0.482c-0.334,0-0.692,0.077-1.072,0.232
				c-0.381,0.156-0.667,0.316-0.858,0.483c0.023,0.095,0.035,0.185,0.035,0.268c0,0.083,0,0.161,0,0.232v11.903
				c-0.262,0.071-0.649,0.143-1.161,0.214c-0.513,0.072-1.03,0.108-1.554,0.108c-0.526,0-0.996-0.036-1.413-0.108
				c-0.418-0.071-0.768-0.214-1.054-0.428c-0.287-0.214-0.507-0.506-0.662-0.876c-0.155-0.369-0.232-0.852-0.232-1.448v-8.543
				c0-0.715-0.221-1.233-0.66-1.555c-0.442-0.322-0.972-0.482-1.592-0.482c-0.429,0-0.799,0.066-1.107,0.196
				c-0.311,0.132-0.572,0.257-0.787,0.376v12.546c-0.238,0.071-0.614,0.143-1.126,0.214c-0.513,0.072-1.043,0.108-1.591,0.108
				c-0.524,0-0.995-0.036-1.411-0.108c-0.418-0.071-0.77-0.214-1.055-0.428c-0.286-0.214-0.507-0.506-0.661-0.876
				c-0.155-0.369-0.233-0.852-0.233-1.448V7.93c0-0.644,0.138-1.156,0.411-1.537c0.275-0.381,0.649-0.738,1.126-1.073
				c0.81-0.571,1.817-1.036,3.021-1.394C107.756,3.568,109.014,3.39,110.324,3.39z"/>
			<path fill="#F4A642" d="M85.205,13.941c-1.519-0.519-2.9-1.045-4.145-1.581c-1.242-0.535-2.313-1.183-3.211-1.942
				c-0.898-0.76-1.598-1.666-2.099-2.72C75.25,6.645,75,5.358,75,3.838c0-2.935,1.131-5.284,3.394-7.045
				c2.262-1.761,5.431-2.643,9.506-2.643c1.484,0,2.867,0.104,4.146,0.311c1.277,0.207,2.373,0.527,3.289,0.958
				c0.915,0.432,1.632,0.984,2.15,1.658c0.518,0.673,0.775,1.459,0.775,2.357c0,0.899-0.206,1.667-0.62,2.306
				c-0.414,0.639-0.916,1.184-1.503,1.632c-0.76-0.483-1.778-0.907-3.057-1.27c-1.277-0.362-2.677-0.543-4.195-0.543
				c-1.555,0-2.694,0.216-3.42,0.647c-0.725,0.432-1.088,0.977-1.088,1.632c0,0.518,0.225,0.941,0.673,1.269
				c0.449,0.329,1.122,0.631,2.021,0.907l2.746,0.881c3.246,1.036,5.741,2.357,7.485,3.963s2.616,3.791,2.616,6.554
				c0,2.936-1.158,5.31-3.471,7.123c-2.314,1.813-5.717,2.72-10.206,2.72c-1.589,0-3.065-0.129-4.43-0.388
				c-1.365-0.259-2.556-0.639-3.574-1.14c-1.02-0.5-1.813-1.122-2.383-1.865C75.285,23.119,75,22.264,75,21.297
				c0-1.001,0.293-1.856,0.881-2.564c0.587-0.707,1.225-1.251,1.916-1.632c0.968,0.761,2.15,1.417,3.55,1.97
				c1.399,0.552,2.927,0.828,4.585,0.828c1.691,0,2.883-0.259,3.574-0.777s1.036-1.122,1.036-1.813c0-0.69-0.277-1.217-0.829-1.58
				c-0.552-0.362-1.329-0.716-2.331-1.062L85.205,13.941z"/>
		</g>
		<g display="inline">
			<g>
				<path fill-rule="evenodd" clip-rule="evenodd" fill="#F4A642" d="M152.719,34.732c-0.002,0.866-0.002,1.733-0.002,2.599
					c0,0.153,0.011,0.289-0.175,0.4c-0.169,0.102-0.162,0.322-0.031,0.463c0.046,0.051,0.109,0.092,0.171,0.143
					c-0.214,0.452-0.431,0.905-0.652,1.368c0.563,0,1.093,0,1.646,0.001c-0.222-0.466-0.436-0.918-0.649-1.366
					c0.352-0.281,0.351-0.393,0.011-0.708c-0.032-0.03-0.041-0.089-0.041-0.135c-0.002-0.993,0.001-1.986-0.002-2.979
					c0-0.043,0.008-0.077,0.026-0.104l-0.302,0.134C152.719,34.624,152.719,34.679,152.719,34.732z"/>
				<path fill-rule="evenodd" clip-rule="evenodd" fill="#F4A642" d="M154.679,34.561c-2.16-2.272-4.322-4.543-6.479-6.818
					c-0.111-0.116-0.212-0.163-0.372-0.167c-1.335-0.029-2.672-0.067-4.008-0.102c-1.829-0.048-3.657-0.096-5.525-0.145
					c0.051,0.058,0.077,0.09,0.106,0.12c2.172,2.287,4.344,4.573,6.521,6.856c0.053,0.056,0.162,0.099,0.24,0.102
					c2.402,0.067,4.803,0.128,7.204,0.191l0,0l0.756,0.02c0.007,0,0.014-0.001,0.021-0.001c0.468,0.017,0.937,0.028,1.405,0.04
					c0.063,0.001,0.127-0.002,0.208-0.003C154.719,34.608,154.7,34.583,154.679,34.561z"/>
			</g>
			<path fill-rule="evenodd" clip-rule="evenodd" fill="#F4A642" d="M150.311,34.874c-0.035,0.08-0.06,0.134-0.085,0.188
				c-0.288,0.65-0.594,1.294-0.861,1.953c-0.209,0.514-0.616,0.798-1.189,0.926c-0.719,0.162-1.462,0.112-2.208-0.044
				c-1.801-0.377-3.414-1.136-4.783-2.358c-0.445-0.398-0.815-0.845-1.041-1.371c-0.174-0.405-0.189-0.792-0.015-1.169
				c0.309-0.671,0.603-1.35,0.903-2.025c0.024-0.054,0.048-0.108,0.084-0.189c0.063,0.059,0.106,0.099,0.147,0.141
				c1.153,1.212,2.307,2.424,3.455,3.64c0.108,0.117,0.211,0.164,0.371,0.168c1.679,0.038,3.357,0.083,5.035,0.127
				C150.173,34.861,150.222,34.867,150.311,34.874z"/>
		</g>
		<g display="inline">
			<path fill="#F4A642" d="M102.772,25.634c0.495-0.291,1.246-0.568,2.25-0.83c1.005-0.262,2.017-0.393,3.037-0.393
				c1.455,0,2.744,0.211,3.865,0.633c1.122,0.423,1.843,1.086,2.163,1.988c0.524,1.515,1.092,3.277,1.704,5.286
				c0.611,2.01,1.224,4.085,1.835,6.226c0.611,2.141,1.209,4.253,1.791,6.335s1.093,3.925,1.529,5.526
				c-0.35,0.408-0.873,0.736-1.572,0.983c-0.699,0.247-1.529,0.371-2.49,0.371c-0.699,0-1.289-0.059-1.77-0.174
				c-0.481-0.117-0.874-0.291-1.18-0.524c-0.307-0.233-0.554-0.539-0.743-0.917c-0.189-0.378-0.357-0.815-0.502-1.311l-0.787-3.014
				h-7.907c-0.233,0.874-0.466,1.777-0.699,2.709s-0.466,1.835-0.698,2.708c-0.408,0.146-0.839,0.269-1.29,0.371
				c-0.451,0.102-0.998,0.153-1.638,0.153c-1.485,0-2.585-0.255-3.299-0.764c-0.714-0.509-1.07-1.216-1.07-2.119
				c0-0.407,0.058-0.815,0.175-1.223c0.116-0.408,0.247-0.888,0.394-1.442c0.203-0.786,0.487-1.762,0.853-2.927
				c0.363-1.164,0.764-2.425,1.2-3.779c0.438-1.354,0.902-2.745,1.398-4.172c0.495-1.427,0.961-2.774,1.397-4.041
				c0.438-1.267,0.838-2.396,1.202-3.386C102.284,26.916,102.568,26.158,102.772,25.634z M108.015,31.27
				c-0.407,1.224-0.866,2.585-1.375,4.085c-0.511,1.501-0.97,3.022-1.377,4.566h5.418c-0.408-1.573-0.823-3.109-1.245-4.609
				c-0.423-1.5-0.809-2.847-1.158-4.042H108.015z"/>
			<path fill="#F4A642" d="M148.434,38.2c-0.062,0.019-0.123,0.037-0.189,0.052c-0.316,0.071-0.654,0.107-1.002,0.107
				c-0.418,0-0.856-0.049-1.341-0.151c-1.911-0.4-3.569-1.218-4.93-2.432c-0.529-0.472-0.896-0.957-1.121-1.483
				c-0.141-0.329-0.189-0.649-0.146-0.958c-0.124-0.003-0.248-0.007-0.373-0.007c-1.256,0-2.399,0.124-3.431,0.369
				c0.726,0.349,1.385,0.777,1.971,1.283c0.965,0.835,1.729,1.893,2.274,3.145c0.854,0.111,1.531,0.463,2.027,1.066
				c0.606,0.739,0.911,1.871,0.911,3.396c0,2.568-0.942,4.01-2.827,4.329c-0.467,1.228-1.136,2.277-1.99,3.118
				c-0.868,0.855-1.925,1.501-3.142,1.918c-1.134,0.39-2.4,0.594-3.765,0.612v2.176c0,0.596,0.07,1.079,0.214,1.448
				c0.142,0.369,0.357,0.662,0.644,0.876c0.285,0.214,0.637,0.357,1.054,0.429c0.416,0.071,0.888,0.107,1.412,0.107
				c0.548,0,1.083-0.042,1.609-0.125c0.523-0.083,0.904-0.161,1.144-0.231v-5.935c0.881,0.31,1.834,0.465,2.859,0.465
				c1.358,0,2.592-0.191,3.7-0.572c1.107-0.381,2.054-0.959,2.841-1.734c0.787-0.774,1.395-1.733,1.823-2.877
				c0.43-1.144,0.644-2.478,0.644-4.003c0-1.597-0.251-2.973-0.751-4.129C148.515,38.37,148.474,38.286,148.434,38.2z"/>
			<path fill="#F4A642" d="M139.424,38.458c-0.499-1.156-1.191-2.114-2.071-2.878c-0.883-0.762-1.938-1.328-3.164-1.697
				c-1.228-0.37-2.556-0.555-3.985-0.555c-1.359,0-2.586,0.144-3.682,0.429c-1.097,0.286-2.015,0.667-2.754,1.144
				c-0.476,0.334-0.852,0.703-1.125,1.108c-0.274,0.406-0.412,0.929-0.412,1.573V54.74c0,0.596,0.072,1.079,0.216,1.448
				c0.143,0.369,0.357,0.662,0.643,0.876c0.286,0.214,0.638,0.357,1.055,0.429c0.416,0.071,0.888,0.107,1.412,0.107
				c0.548,0,1.083-0.042,1.608-0.125c0.523-0.083,0.905-0.161,1.144-0.231v-5.935c0.882,0.31,1.835,0.465,2.86,0.465
				c1.357,0,2.592-0.191,3.699-0.572c1.108-0.381,2.056-0.959,2.842-1.734c0.786-0.774,1.394-1.733,1.822-2.877
				c0.43-1.144,0.644-2.478,0.644-4.003C140.175,40.991,139.925,39.614,139.424,38.458z M132.415,46.43v0.012
				c-0.026,0.013-0.052,0.024-0.078,0.037c-0.549,0.334-1.234,0.506-2.063,0.506c-0.381,0-0.738-0.048-1.072-0.143
				c-0.016-0.004-0.03-0.01-0.047-0.015c-0.287-0.069-0.547-0.168-0.783-0.297c-0.034-0.016-0.066-0.03-0.099-0.046v-0.003
				c-0.027-0.013-0.056-0.025-0.081-0.038v-0.017c-0.973-0.63-1.46-1.852-1.46-3.859c0-0.005,0-0.01,0-0.015
				c0-0.001,0-0.003,0-0.005c0-0.019,0.001-0.036,0.001-0.055c0.007-1.487,0.229-2.603,0.825-3.329
				c0.501-0.608,1.017-0.96,2.011-1.065c0.135-0.021,0.274-0.035,0.419-0.043c0.006,0,0.013,0,0.019-0.001
				c0.088-0.004,0.174-0.011,0.265-0.011c0.011,0,0.021,0.001,0.032,0.001c0.012,0,0.022-0.001,0.033-0.001
				c0.091,0,0.178,0.006,0.266,0.011c0.006,0,0.013,0,0.018,0.001c0.145,0.008,0.284,0.022,0.42,0.043
				c0.994,0.105,1.509,0.457,2.01,1.065c0.171,0.208,0.311,0.45,0.425,0.722c0.32,0.694,0.481,1.594,0.481,2.704
				C133.955,44.481,133.439,45.759,132.415,46.43z"/>
		</g>
	</g>
</g>
</svg>
