<?xml version="1.0" encoding="utf-8"?>
<!-- Generator: Adobe Illustrator 16.0.0, SVG Export Plug-In . SVG Version: 6.00 Build 0)  -->
<!DOCTYPE svg PUBLIC "-//W3C//DTD SVG 1.0//EN" "http://www.w3.org/TR/2001/REC-SVG-20010904/DTD/svg10.dtd">
<svg version="1.0" id="Layer_1" xmlns="http://www.w3.org/2000/svg" xmlns:xlink="http://www.w3.org/1999/xlink" x="0px" y="0px"
	 width="79px" height="15px" viewBox="0 0 79 15" enable-background="new 0 0 79 15" xml:space="preserve">
<polygon fill="#58595B" points="7.5,0.389 9.811,5.07 14.977,5.821 11.238,9.466 12.121,14.611 7.5,12.182 2.879,14.611 
	3.762,9.466 0.023,5.821 5.189,5.07 "/>
<polygon fill="#58595B" points="23.453,0.389 25.764,5.07 30.93,5.821 27.191,9.466 28.074,14.611 23.453,12.182 18.832,14.611 
	19.715,9.466 15.977,5.821 21.143,5.07 "/>
<polygon fill="#58595B" points="39.406,0.389 41.717,5.07 46.883,5.821 43.145,9.466 44.027,14.611 39.406,12.182 34.785,14.611 
	35.668,9.466 31.93,5.821 37.096,5.07 "/>
<polygon fill="#58595B" points="55.359,0.389 57.67,5.07 62.836,5.821 59.098,9.466 59.98,14.611 55.359,12.182 50.738,14.611 
	51.621,9.466 47.883,5.821 53.049,5.07 "/>
</svg>
