<?xml version="1.0" encoding="utf-8"?>
<!-- Generator: Adobe Illustrator 16.0.0, SVG Export Plug-In . SVG Version: 6.00 Build 0)  -->
<!DOCTYPE svg PUBLIC "-//W3C//DTD SVG 1.1//EN" "http://www.w3.org/Graphics/SVG/1.1/DTD/svg11.dtd">
<svg version="1.1" id="Layer_1" xmlns="http://www.w3.org/2000/svg" xmlns:xlink="http://www.w3.org/1999/xlink" x="0px" y="0px"
	 width="250px" height="51.75px" viewBox="0 0 250 51.75" enable-background="new 0 0 250 51.75" xml:space="preserve">
<path fill="#323232" d="M95.67,14.441c2.006,0,3.835,0.204,5.488,0.612c1.653,0.41,3.064,1.031,4.235,1.867
	c1.17,0.835,2.071,1.894,2.702,3.177c0.631,1.281,0.947,2.794,0.947,4.541V37.12c0,0.966-0.271,1.755-0.807,2.368
	c-0.539,0.613-1.181,1.142-1.923,1.588c-2.415,1.449-5.815,2.172-10.198,2.172c-1.969,0-3.742-0.186-5.321-0.559
	c-1.579-0.371-2.935-0.926-4.068-1.67c-1.134-0.742-2.006-1.689-2.619-2.843c-0.612-1.149-0.919-2.487-0.919-4.012
	c0-2.563,0.761-4.531,2.284-5.907c1.523-1.373,3.881-2.229,7.077-2.563l7.301-0.78v-0.39c0-1.078-0.473-1.848-1.422-2.313
	c-0.946-0.464-2.313-0.696-4.095-0.696c-1.413,0-2.787,0.149-4.124,0.446s-2.545,0.668-3.623,1.114
	c-0.482-0.334-0.891-0.845-1.227-1.533c-0.332-0.687-0.5-1.402-0.5-2.145c0-0.966,0.231-1.736,0.697-2.313
	c0.463-0.576,1.179-1.069,2.146-1.477c1.076-0.409,2.349-0.706,3.815-0.893C92.985,14.534,94.368,14.441,95.67,14.441z
	 M96.115,36.339c0.633,0,1.328-0.065,2.089-0.194c0.761-0.131,1.328-0.307,1.7-0.528v-4.458l-4.012,0.334
	c-1.041,0.074-1.896,0.298-2.563,0.668c-0.669,0.372-1.003,0.929-1.003,1.672c0,0.744,0.287,1.348,0.863,1.813
	S94.74,36.339,96.115,36.339z"/>
<path fill="#323232" d="M120.002,42.301c-0.372,0.112-0.957,0.225-1.756,0.335c-0.799,0.111-1.625,0.167-2.479,0.167
	c-0.817,0-1.549-0.056-2.202-0.167c-0.649-0.11-1.197-0.335-1.642-0.668c-0.446-0.335-0.791-0.788-1.03-1.366
	c-0.243-0.574-0.363-1.328-0.363-2.256V21.628c0-0.854,0.157-1.588,0.473-2.201c0.316-0.613,0.771-1.16,1.365-1.644
	c0.596-0.482,1.329-0.92,2.202-1.31c0.873-0.39,1.812-0.733,2.813-1.031c1.004-0.296,2.044-0.529,3.121-0.696
	c1.077-0.168,2.154-0.251,3.233-0.251c1.781,0,3.193,0.343,4.234,1.031s1.563,1.81,1.563,3.37c0,0.521-0.075,1.032-0.223,1.533
	c-0.15,0.501-0.336,0.958-0.559,1.365c-0.781,0-1.58,0.038-2.396,0.112c-0.817,0.075-1.614,0.186-2.396,0.334
	c-0.78,0.149-1.516,0.307-2.201,0.473c-0.688,0.167-1.273,0.363-1.756,0.586L120.002,42.301L120.002,42.301z"/>
<path fill="#323232" d="M140.377,33.052c0,0.966,0.309,1.653,0.921,2.063c0.614,0.408,1.478,0.613,2.593,0.613
	c0.558,0,1.133-0.047,1.727-0.141c0.594-0.093,1.113-0.213,1.561-0.363c0.336,0.409,0.622,0.864,0.863,1.365
	c0.242,0.502,0.363,1.105,0.363,1.811c0,1.414-0.528,2.563-1.59,3.457c-1.059,0.893-2.924,1.336-5.601,1.336
	c-3.271,0-5.786-0.742-7.55-2.229c-1.766-1.484-2.648-3.9-2.648-7.244V9.871c0.412-0.111,0.996-0.231,1.756-0.362
	c0.765-0.13,1.57-0.195,2.424-0.195c1.637,0,2.906,0.288,3.818,0.862c0.909,0.577,1.363,1.794,1.363,3.651v3.566h7.301
	c0.225,0.409,0.438,0.919,0.643,1.533c0.203,0.613,0.309,1.291,0.309,2.033c0,1.301-0.29,2.238-0.863,2.815
	c-0.578,0.575-1.349,0.863-2.313,0.863h-5.072L140.377,33.052L140.377,33.052z"/>
<path fill="#323232" d="M169.471,2.311c0.771-0.453,1.939-0.885,3.508-1.294c1.566-0.409,3.146-0.612,4.732-0.612
	c2.27,0,4.28,0.329,6.027,0.986c1.748,0.659,2.873,1.693,3.371,3.1c0.816,2.361,1.703,5.108,2.656,8.24
	c0.951,3.134,1.905,6.368,2.859,9.706c0.953,3.337,1.884,6.629,2.793,9.875c0.906,3.246,1.703,6.119,2.383,8.614
	c-0.545,0.638-1.361,1.146-2.449,1.531c-1.091,0.386-2.386,0.58-3.885,0.58c-1.09,0-2.01-0.093-2.76-0.271
	c-0.747-0.185-1.359-0.455-1.838-0.817c-0.479-0.363-0.863-0.841-1.157-1.431c-0.297-0.59-0.556-1.271-0.782-2.043l-1.229-4.699
	h-12.326c-0.361,1.361-0.729,2.77-1.09,4.222c-0.362,1.454-0.727,2.86-1.09,4.224c-0.637,0.227-1.307,0.418-2.01,0.578
	c-0.705,0.158-1.556,0.238-2.554,0.238c-2.315,0-4.03-0.398-5.144-1.191c-1.112-0.793-1.668-1.896-1.668-3.303
	c0-0.636,0.092-1.271,0.271-1.906c0.183-0.637,0.388-1.385,0.614-2.248c0.314-1.227,0.758-2.748,1.326-4.563
	c0.566-1.816,1.191-3.78,1.873-5.892c0.681-2.111,1.406-4.279,2.181-6.503c0.771-2.224,1.498-4.324,2.181-6.3
	c0.682-1.976,1.305-3.735,1.873-5.279C168.71,4.31,169.152,3.128,169.471,2.311z M177.645,11.097
	c-0.638,1.908-1.354,4.03-2.146,6.368c-0.795,2.339-1.51,4.711-2.146,7.117h8.443c-0.635-2.452-1.283-4.847-1.939-7.186
	c-0.657-2.337-1.258-4.437-1.803-6.299H177.645z"/>
<path fill="#323232" d="M53.314,14.441c1.523,0,3.019,0.214,4.486,0.64c1.467,0.428,2.74,1.068,3.815,1.922
	c1.115-0.743,2.37-1.356,3.762-1.839c1.394-0.482,3.074-0.724,5.044-0.724c1.411,0,2.794,0.185,4.149,0.556
	c1.358,0.372,2.565,0.958,3.623,1.755c1.06,0.799,1.904,1.858,2.536,3.177c0.631,1.319,0.947,2.925,0.947,4.819V42.3
	c-0.372,0.112-0.957,0.224-1.755,0.335c-0.8,0.111-1.625,0.167-2.481,0.167c-0.816,0-1.551-0.056-2.2-0.167
	c-0.649-0.111-1.198-0.335-1.644-0.668c-0.445-0.335-0.788-0.789-1.03-1.365c-0.242-0.576-0.363-1.328-0.363-2.257V25.028
	c0-1.115-0.315-1.922-0.945-2.425c-0.634-0.501-1.488-0.751-2.564-0.751c-0.521,0-1.078,0.121-1.671,0.362
	c-0.596,0.243-1.041,0.492-1.34,0.752c0.037,0.149,0.057,0.289,0.057,0.418c0,0.13,0,0.25,0,0.362v18.555
	c-0.408,0.112-1.011,0.225-1.811,0.335c-0.799,0.111-1.606,0.167-2.424,0.167c-0.818,0-1.552-0.056-2.2-0.167
	c-0.65-0.11-1.199-0.335-1.646-0.668c-0.445-0.335-0.789-0.788-1.031-1.366c-0.241-0.574-0.361-1.328-0.361-2.256V25.028
	c0-1.115-0.345-1.922-1.03-2.425c-0.688-0.501-1.513-0.751-2.48-0.751c-0.669,0-1.244,0.103-1.727,0.306
	c-0.483,0.204-0.894,0.4-1.227,0.585v19.559c-0.372,0.112-0.956,0.224-1.755,0.335c-0.799,0.111-1.627,0.168-2.479,0.168
	c-0.818,0-1.552-0.057-2.203-0.168c-0.648-0.111-1.197-0.335-1.644-0.668c-0.446-0.335-0.79-0.789-1.03-1.365
	c-0.243-0.576-0.362-1.328-0.362-2.256V21.517c0-1.003,0.214-1.802,0.64-2.396c0.428-0.594,1.013-1.151,1.758-1.672
	c1.261-0.892,2.831-1.615,4.708-2.172C49.311,14.718,51.271,14.441,53.314,14.441z"/>
<path fill="#323232" d="M15.909,30.887c-2.37-0.807-4.521-1.627-6.46-2.463C7.512,27.59,5.842,26.58,4.44,25.396
	c-1.398-1.184-2.489-2.597-3.271-4.24C0.389,19.515,0,17.51,0,15.14c0-4.577,1.764-8.238,5.289-10.984
	c3.527-2.745,8.466-4.118,14.819-4.118c2.314,0,4.468,0.161,6.462,0.484c1.992,0.323,3.701,0.821,5.129,1.493
	c1.426,0.674,2.543,1.536,3.351,2.585c0.808,1.05,1.211,2.275,1.211,3.674c0,1.401-0.322,2.598-0.968,3.594
	c-0.647,0.998-1.428,1.846-2.342,2.544c-1.187-0.753-2.774-1.413-4.767-1.979c-1.992-0.565-4.172-0.848-6.54-0.848
	c-2.423,0-4.2,0.337-5.331,1.01c-1.13,0.673-1.696,1.522-1.696,2.544c0,0.807,0.352,1.467,1.051,1.979
	c0.699,0.512,1.749,0.982,3.148,1.413l4.28,1.373c5.061,1.615,8.951,3.673,11.671,6.178c2.717,2.503,4.078,5.909,4.078,10.216
	c0,4.576-1.806,8.278-5.411,11.104c-3.607,2.826-8.911,4.24-15.91,4.24c-2.477,0-4.778-0.203-6.903-0.605
	c-2.13-0.404-3.986-0.996-5.574-1.777c-1.588-0.779-2.826-1.749-3.716-2.906C0.445,45.195,0,43.863,0,42.355
	c0-1.563,0.456-2.896,1.372-3.998c0.916-1.104,1.911-1.952,2.99-2.545c1.505,1.186,3.35,2.209,5.53,3.068
	c2.181,0.862,4.563,1.292,7.148,1.292c2.637,0,4.494-0.403,5.571-1.211c1.077-0.808,1.615-1.75,1.615-2.827
	c0-1.074-0.431-1.896-1.291-2.463c-0.861-0.564-2.073-1.115-3.636-1.654L15.909,30.887z"/>
<path fill="#323232" d="M220.859,42.732c-0.471,0.225-0.961,0.429-1.471,0.604c-1.77,0.607-3.742,0.925-5.869,0.953v2.966
	c0,0.929,0.107,1.681,0.334,2.257c0.222,0.576,0.557,1.031,1.002,1.366c0.444,0.333,0.994,0.556,1.643,0.667
	c0.65,0.111,1.385,0.167,2.204,0.167c0.853,0,1.688-0.065,2.507-0.194c0.816-0.129,1.411-0.25,1.783-0.361v-7.621
	c-0.41-0.125-0.824-0.264-1.238-0.418C221.754,43.117,221.377,43,220.859,42.732z"/>
<path fill="#323232" d="M226.092,22.3c-0.779-1.802-1.857-3.297-3.232-4.487c-1.375-1.188-3.018-2.07-4.932-2.646
	c-1.912-0.576-3.982-0.864-6.213-0.864c-2.117,0-4.031,0.223-5.74,0.668c-1.707,0.446-3.139,1.041-4.289,1.783
	c-0.744,0.521-1.328,1.097-1.756,1.728c-0.429,0.632-0.641,1.449-0.641,2.452v26.321c0,0.929,0.111,1.681,0.334,2.257
	c0.225,0.575,0.557,1.03,1.004,1.365c0.443,0.333,0.992,0.557,1.643,0.667c0.65,0.111,1.383,0.167,2.203,0.167
	c0.854,0,1.688-0.064,2.506-0.193c0.816-0.131,1.41-0.25,1.785-0.362v-7.621c-0.412-0.125-0.824-0.263-1.238-0.417
	c0,0-2.875-0.905-3.631-3.324c1.119,0.932,2.428,1.674,3.928,2.229c0.314,0.117,0.631,0.224,0.941,0.32V42.33
	c0.328,0.115,0.666,0.218,1.012,0.307c0.029,0.008,0.063,0.016,0.094,0.023c1.057,0.262,2.174,0.395,3.354,0.395
	c2.116,0,4.038-0.297,5.769-0.892c1.727-0.595,3.202-1.495,4.429-2.702c1.227-1.208,2.173-2.703,2.841-4.484
	c0.673-1.783,1.005-3.863,1.005-6.24C227.262,26.247,226.873,24.101,226.092,22.3z M215.758,34.27
	c-0.006,0.006-0.012,0.013-0.018,0.018c-0.125,0.113-0.258,0.223-0.396,0.322c-0.014,0.011-0.027,0.021-0.043,0.029
	c-0.132,0.094-0.268,0.18-0.412,0.258c-0.021,0.014-0.043,0.024-0.064,0.039c-0.139,0.073-0.282,0.14-0.432,0.2
	c-0.031,0.011-0.062,0.025-0.092,0.037c-0.146,0.058-0.296,0.106-0.451,0.151c-0.037,0.011-0.072,0.023-0.111,0.033
	c-0.153,0.041-0.312,0.074-0.477,0.104c-0.041,0.008-0.082,0.02-0.128,0.023c-0.163,0.027-0.333,0.048-0.506,0.063
	c-0.047,0.004-0.092,0.013-0.138,0.017c-0.031,0.002-0.059,0.006-0.092,0.009c-0.069,0.034-0.146,0.052-0.219,0.052
	c-1.326,0-2.421-0.227-3.285-0.727c-0.063-0.027-0.123-0.056-0.183-0.084l0,0c-0.002-0.002-0.006-0.004-0.008-0.004v-0.027
	c-1.513-0.984-2.269-2.887-2.269-6.01c0-2.377,0.342-4.154,1.289-5.308c0.787-0.957,1.599-1.505,3.17-1.664
	c0.358-0.057,0.74-0.088,1.151-0.088c1.115,0,2.067,0.227,2.858,0.679c0.474,0.271,0.89,0.622,1.244,1.054
	c0.949,1.152,1.422,2.918,1.422,5.294C217.576,31.309,216.966,33.146,215.758,34.27z"/>
<path fill="#323232" d="M239.98,21.572c-0.039,0.009-0.074,0.021-0.114,0.031c-0.503,0.113-1.036,0.17-1.589,0.17
	c-0.658,0-1.353-0.078-2.116-0.238c-2.999-0.629-5.604-1.916-7.74-3.82c-0.839-0.748-1.421-1.518-1.78-2.354
	c-0.152-0.356-0.232-0.707-0.256-1.049c-0.148-0.003-0.293-0.008-0.439-0.008c-1.957,0-3.738,0.193-5.348,0.574
	c1.129,0.543,2.16,1.211,3.072,2c1.502,1.3,2.693,2.949,3.543,4.898c0.723,0.093,1.367,0.298,1.926,0.618
	c0.475,0.27,0.891,0.622,1.244,1.054c0.949,1.152,1.422,2.917,1.422,5.294c0,2.566-0.609,4.404-1.818,5.527
	c-0.004,0.006-0.01,0.012-0.016,0.017c-0.127,0.114-0.257,0.223-0.396,0.323c-0.015,0.01-0.027,0.021-0.041,0.029
	c-0.134,0.094-0.271,0.18-0.413,0.258c-0.021,0.013-0.046,0.023-0.066,0.039c-0.14,0.071-0.281,0.139-0.432,0.199
	c-0.027,0.014-0.061,0.025-0.091,0.037c-0.146,0.059-0.296,0.105-0.451,0.151c-0.036,0.011-0.074,0.021-0.11,0.032
	c-0.152,0.041-0.312,0.074-0.476,0.104c-0.035,0.006-0.068,0.015-0.104,0.021c-0.729,1.914-1.771,3.551-3.103,4.861
	c-0.655,0.646-1.381,1.213-2.169,1.701c0.292,0.107,0.583,0.206,0.874,0.298v-0.012c0.329,0.116,0.668,0.218,1.011,0.308
	c0.032,0.006,0.063,0.014,0.094,0.022c1.057,0.262,2.174,0.394,3.353,0.394c2.118,0,4.042-0.296,5.768-0.891
	c1.729-0.594,3.206-1.495,4.433-2.703c1.228-1.207,2.174-2.702,2.843-4.484c0.668-1.783,1.004-3.863,1.004-6.242
	c0-2.486-0.392-4.632-1.171-6.435C240.215,22.051,240.098,21.809,239.98,21.572z"/>
<path fill="#FFFFFF" d="M243.061,16.216c-0.057,0.125-0.093,0.209-0.129,0.294c-0.449,1.013-0.928,2.016-1.346,3.043
	c-0.324,0.801-0.963,1.243-1.854,1.445c-1.121,0.252-2.279,0.174-3.443-0.071c-2.807-0.588-5.318-1.77-7.456-3.675
	c-0.694-0.62-1.271-1.318-1.624-2.137c-0.27-0.631-0.293-1.234-0.021-1.823c0.482-1.047,0.941-2.104,1.41-3.156
	c0.036-0.085,0.074-0.17,0.129-0.295c0.098,0.091,0.168,0.153,0.229,0.219c1.799,1.891,3.599,3.779,5.39,5.675
	c0.17,0.181,0.324,0.255,0.576,0.261c2.616,0.059,5.233,0.13,7.85,0.198C242.848,16.197,242.925,16.207,243.061,16.216z"/>
<path fill="#FFFFFF" d="M247.477,15.816c0.729,0.028,1.461,0.043,2.189,0.063c0.1,0.002,0.195-0.002,0.325-0.005
	c-0.06-0.071-0.087-0.11-0.122-0.145c-3.365-3.542-6.736-7.083-10.098-10.629c-0.172-0.183-0.33-0.255-0.58-0.261
	c-2.082-0.045-4.166-0.104-6.248-0.159c-2.852-0.074-5.701-0.149-8.615-0.225c0.081,0.09,0.122,0.141,0.168,0.188
	c3.388,3.564,6.771,7.129,10.163,10.688c0.083,0.087,0.254,0.154,0.376,0.158c3.744,0.104,7.488,0.2,11.232,0.299l0.547,0.014
	c0,0.068,0,0.138,0,0.195c-0.002,1.351-0.004,2.7-0.002,4.051c0,0.239,0.016,0.451-0.272,0.624c-0.265,0.159-0.253,0.501-0.05,0.722
	c0.072,0.079,0.17,0.142,0.268,0.223c-0.334,0.705-0.673,1.411-1.016,2.132c0.876,0.001,1.699,0.001,2.564,0.001
	c-0.348-0.727-0.681-1.43-1.014-2.128c0.549-0.44,0.546-0.614,0.018-1.105c-0.05-0.047-0.063-0.139-0.063-0.21
	c-0.004-1.498,0.001-2.997-0.004-4.494l0.198,0.005C247.455,15.818,247.462,15.815,247.477,15.816z"/>
</svg>
