<?xml version="1.0" encoding="utf-8"?>
<!-- Generator: Adobe Illustrator 16.0.0, SVG Export Plug-In . SVG Version: 6.00 Build 0)  -->
<!DOCTYPE svg PUBLIC "-//W3C//DTD SVG 1.0//EN" "http://www.w3.org/TR/2001/REC-SVG-20010904/DTD/svg10.dtd">
<svg version="1.0" id="Layer_1" xmlns="http://www.w3.org/2000/svg" xmlns:xlink="http://www.w3.org/1999/xlink" x="0px" y="0px"
	 width="30px" height="30px" viewBox="0 0 30 30" enable-background="new 0 0 30 30" xml:space="preserve">
<path fill="#FFFFFF" d="M13.27,29.746c0.354,0.142,0.729,0.216,1.127,0.216c0.398,0,0.774-0.074,1.127-0.216
	c0.356-0.146,0.658-0.353,0.918-0.611c0.262-0.257,0.465-0.563,0.612-0.908c0.145-0.347,0.216-0.722,0.216-1.139
	c0-0.398-0.071-0.772-0.216-1.126c-0.147-0.353-0.351-0.659-0.612-0.919c-0.26-0.264-0.563-0.467-0.918-0.622
	c-0.354-0.152-0.732-0.232-1.127-0.232c-0.399,0-0.774,0.08-1.127,0.232c-0.35,0.152-0.653,0.357-0.907,0.622
	c-0.252,0.26-0.457,0.569-0.598,0.919c-0.143,0.354-0.216,0.728-0.216,1.126c0,0.417,0.073,0.795,0.216,1.139
	c0.142,0.345,0.346,0.648,0.598,0.908C12.617,29.396,12.921,29.602,13.27,29.746z"/>
<path fill="#FFFFFF" d="M22.699,4.365c-0.426-0.919-1.019-1.701-1.771-2.344c-0.749-0.643-1.644-1.141-2.677-1.495
	C17.216,0.173,16.094,0,14.88,0c-0.915,0-1.773,0.087-2.562,0.265c-0.79,0.175-1.522,0.415-2.201,0.722
	C9.43,1.293,8.802,1.646,8.226,2.044C7.654,2.441,7.128,2.866,6.654,3.306l1.08,1.727C7.95,5.385,8.245,5.56,8.629,5.56
	c0.185,0,0.418-0.113,0.705-0.344c0.28-0.23,0.653-0.483,1.112-0.758c0.462-0.277,1.024-0.528,1.688-0.759
	c0.667-0.23,1.468-0.344,2.403-0.344c0.692,0,1.345,0.098,1.943,0.298c0.604,0.199,1.127,0.489,1.574,0.863
	c0.445,0.375,0.796,0.832,1.06,1.368c0.259,0.537,0.389,1.136,0.389,1.794c0,0.918-0.172,1.716-0.517,2.391
	c-0.346,0.674-0.784,1.276-1.311,1.804c-0.525,0.529-1.099,1.012-1.7,1.449c-0.606,0.437-1.172,0.875-1.701,1.31
	s-0.962,0.904-1.312,1.403c-0.346,0.497-0.519,1.069-0.519,1.714V18l0.28,3.816h2.802l0.413-3.516
	c0.062-0.509,0.291-0.966,0.681-1.382c0.392-0.412,0.858-0.829,1.403-1.242c0.54-0.413,1.127-0.852,1.757-1.319
	c0.627-0.469,1.209-1.019,1.735-1.658c0.526-0.634,0.962-1.373,1.31-2.218c0.346-0.842,0.521-1.846,0.521-3.012
	C23.346,6.321,23.129,5.284,22.699,4.365z"/>
</svg>
