<?xml version="1.0" encoding="utf-8"?>
<!-- Generator: Adobe Illustrator 16.0.0, SVG Export Plug-In . SVG Version: 6.00 Build 0)  -->
<!DOCTYPE svg PUBLIC "-//W3C//DTD SVG 1.0//EN" "http://www.w3.org/TR/2001/REC-SVG-20010904/DTD/svg10.dtd">
<svg version="1.0" id="Layer_1" xmlns="http://www.w3.org/2000/svg" xmlns:xlink="http://www.w3.org/1999/xlink" x="0px" y="0px"
	 width="1000px" height="226.5px" viewBox="0 0 1000 226.5" enable-background="new 0 0 1000 226.5" xml:space="preserve">
<linearGradient id="SVGID_1_" gradientUnits="userSpaceOnUse" x1="676.8906" y1="39.7925" x2="676.8906" y2="1.6499" gradientTransform="matrix(1 0 0 -1 0 227.5)">
	<stop  offset="0" style="stop-color:#323232"/>
	<stop  offset="1" style="stop-color:#000000"/>
</linearGradient>
<path fill="url(#SVGID_1_)" d="M685.816,225.85l-15.906-27.769l-0.319-1.649v29.418h-3.432v-38.143h1.782l15.905,27.794l0.347,1.623
	v-29.417h3.432v38.143H685.816L685.816,225.85z"/>
<linearGradient id="SVGID_2_" gradientUnits="userSpaceOnUse" x1="647.2334" y1="40.3237" x2="647.2334" y2="1.1177" gradientTransform="matrix(1 0 0 -1 0 227.5)">
	<stop  offset="0" style="stop-color:#323232"/>
	<stop  offset="1" style="stop-color:#000000"/>
</linearGradient>
<path fill="url(#SVGID_2_)" d="M657.236,220.663c-0.488,1.135-1.157,2.128-2.008,2.979c-0.853,0.851-1.846,1.521-2.979,2.008
	c-1.136,0.488-2.351,0.731-3.646,0.731h-2.713c-1.294,0-2.514-0.245-3.656-0.731c-1.146-0.487-2.143-1.157-2.992-2.008
	c-0.853-0.852-1.521-1.845-2.008-2.979c-0.488-1.136-0.731-2.351-0.731-3.644v-20.48c0-1.294,0.243-2.509,0.731-3.645
	c0.486-1.136,1.155-2.129,2.008-2.979c0.851-0.851,1.848-1.521,2.992-2.008c1.144-0.488,2.362-0.731,3.656-0.731h2.713
	c1.295,0,2.51,0.244,3.646,0.731c1.135,0.487,2.128,1.157,2.979,2.008c0.851,0.851,1.52,1.844,2.008,2.979
	c0.486,1.135,0.729,2.35,0.729,3.645v20.48C657.967,218.313,657.724,219.527,657.236,220.663z M654.536,196.539
	c0-0.852-0.159-1.645-0.479-2.38c-0.318-0.736-0.755-1.378-1.304-1.929c-0.549-0.549-1.192-0.985-1.929-1.305
	c-0.736-0.318-1.529-0.479-2.38-0.479h-2.396c-0.851,0-1.645,0.16-2.38,0.479c-0.736,0.319-1.384,0.754-1.942,1.305
	c-0.558,0.55-0.997,1.191-1.315,1.929c-0.319,0.735-0.479,1.528-0.479,2.38v20.48c0,0.851,0.159,1.645,0.479,2.379
	c0.318,0.735,0.759,1.385,1.315,1.941c0.56,0.559,1.206,0.999,1.942,1.317c0.735,0.319,1.529,0.479,2.38,0.479h2.396
	c0.851,0,1.644-0.159,2.38-0.479c0.735-0.319,1.38-0.759,1.929-1.317c0.549-0.557,0.984-1.206,1.304-1.941
	c0.319-0.734,0.479-1.528,0.479-2.379V196.539z"/>
<linearGradient id="SVGID_3_" gradientUnits="userSpaceOnUse" x1="608.2656" y1="39.7915" x2="608.2656" y2="1.6499" gradientTransform="matrix(1 0 0 -1 0 227.5)">
	<stop  offset="0" style="stop-color:#323232"/>
	<stop  offset="1" style="stop-color:#000000"/>
</linearGradient>
<path fill="url(#SVGID_3_)" d="M609.984,190.979v34.871h-3.433v-34.871h-9.096v-3.271h21.622v3.271H609.984z"/>
<linearGradient id="SVGID_4_" gradientUnits="userSpaceOnUse" x1="582.959" y1="39.7915" x2="582.959" y2="1.6499" gradientTransform="matrix(1 0 0 -1 0 227.5)">
	<stop  offset="0" style="stop-color:#323232"/>
	<stop  offset="1" style="stop-color:#000000"/>
</linearGradient>
<path fill="url(#SVGID_4_)" d="M590.222,225.85l-10.347-16.278h-4.708v16.278h-3.432v-38.142h12.103c1.295,0,2.51,0.244,3.645,0.731
	c1.135,0.486,2.128,1.156,2.979,2.008c0.852,0.851,1.521,1.849,2.009,2.992s0.732,2.363,0.732,3.658v3.084
	c0,1.295-0.245,2.515-0.732,3.657c-0.486,1.144-1.157,2.142-2.009,2.993c-0.851,0.852-1.844,1.521-2.979,2.008
	c-1.135,0.488-2.35,0.73-3.645,0.73l10.347,16.279H590.222z M589.77,197.098c0-0.852-0.159-1.645-0.479-2.381
	s-0.753-1.383-1.303-1.941s-1.193-0.998-1.93-1.316c-0.735-0.318-1.528-0.479-2.38-0.479h-8.512V206.3h8.512
	c0.852,0,1.645-0.159,2.38-0.479c0.735-0.318,1.38-0.758,1.93-1.315s0.982-1.207,1.303-1.94c0.319-0.736,0.479-1.53,0.479-2.381
	V197.098z"/>
<linearGradient id="SVGID_5_" gradientUnits="userSpaceOnUse" x1="555.2979" y1="39.7915" x2="555.2979" y2="1.6499" gradientTransform="matrix(1 0 0 -1 0 227.5)">
	<stop  offset="0" style="stop-color:#323232"/>
	<stop  offset="1" style="stop-color:#000000"/>
</linearGradient>
<path fill="url(#SVGID_5_)" d="M561.336,216.966h-12.075l-2.501,8.884h-3.563l11.171-38.142h1.809L567.4,225.85h-3.538
	L561.336,216.966z M550.191,213.693h10.239l-5.026-17.58l-0.106-1.41l-0.105,1.41L550.191,213.693z"/>
<linearGradient id="SVGID_6_" gradientUnits="userSpaceOnUse" x1="524.8672" y1="39.7915" x2="524.8672" y2="1.6499" gradientTransform="matrix(1 0 0 -1 0 227.5)">
	<stop  offset="0" style="stop-color:#323232"/>
	<stop  offset="1" style="stop-color:#000000"/>
</linearGradient>
<path fill="url(#SVGID_6_)" d="M534.896,225.85v-26.146l-0.239,1.622l-8.856,24.523h-1.809l-8.938-24.523l-0.213-1.622v26.146
	h-3.432v-38.142h1.783l11.567,31.278l0.107,1.41l0.105-1.41l11.544-31.278h1.81v38.142H534.896z"/>
<linearGradient id="SVGID_7_" gradientUnits="userSpaceOnUse" x1="493.0435" y1="40.3228" x2="493.0435" y2="1.1167" gradientTransform="matrix(1 0 0 -1 0 227.5)">
	<stop  offset="0" style="stop-color:#323232"/>
	<stop  offset="1" style="stop-color:#000000"/>
</linearGradient>
<path fill="url(#SVGID_7_)" d="M504.043,217.02c0,1.295-0.262,2.51-0.785,3.645c-0.522,1.135-1.224,2.128-2.101,2.979
	c-0.878,0.852-1.898,1.521-3.061,2.008c-1.161,0.488-2.389,0.732-3.683,0.732h-2.74c-1.294,0-2.521-0.244-3.685-0.732
	c-1.161-0.486-2.182-1.156-3.06-2.008c-0.878-0.851-1.578-1.844-2.102-2.979s-0.784-2.35-0.784-3.645v-1.517l3.432-0.558v2.074
	c0,0.852,0.174,1.646,0.52,2.381c0.346,0.734,0.812,1.384,1.396,1.94c0.586,0.56,1.265,0.999,2.034,1.317
	c0.772,0.318,1.583,0.479,2.436,0.479h2.394c0.853,0,1.658-0.16,2.42-0.479c0.764-0.319,1.438-0.758,2.021-1.317
	c0.585-0.557,1.051-1.206,1.396-1.94c0.346-0.735,0.519-1.529,0.519-2.381v-1.144c0-1.312-0.257-2.403-0.771-3.271
	c-0.515-0.869-1.197-1.609-2.049-2.223c-0.851-0.611-1.813-1.128-2.887-1.555c-1.071-0.426-2.175-0.852-3.311-1.277
	c-1.136-0.425-2.238-0.895-3.313-1.408c-1.073-0.516-2.035-1.158-2.886-1.93c-0.852-0.771-1.534-1.715-2.049-2.832
	c-0.516-1.117-0.771-2.492-0.771-4.124v-0.717c0-1.294,0.244-2.509,0.73-3.646c0.487-1.135,1.157-2.127,2.01-2.979
	c0.851-0.852,1.848-1.521,2.99-2.008c1.146-0.488,2.363-0.731,3.658-0.731h2.447c1.294,0,2.509,0.244,3.644,0.731
	c1.136,0.486,2.127,1.156,2.979,2.008c0.852,0.852,1.521,1.844,2.008,2.979c0.488,1.136,0.732,2.351,0.732,3.646v0.983l-3.433,0.559
	v-1.542c0-0.851-0.16-1.646-0.479-2.38c-0.319-0.736-0.754-1.378-1.304-1.93c-0.551-0.549-1.192-0.984-1.929-1.304
	c-0.735-0.319-1.529-0.479-2.381-0.479h-2.128c-0.851,0-1.646,0.159-2.381,0.479c-0.736,0.319-1.383,0.755-1.941,1.304
	c-0.559,0.551-0.997,1.192-1.315,1.93c-0.319,0.736-0.479,1.529-0.479,2.38v0.717c0,1.224,0.256,2.253,0.771,3.085
	c0.515,0.834,1.197,1.549,2.049,2.143c0.851,0.594,1.813,1.107,2.886,1.541c1.072,0.437,2.177,0.879,3.313,1.33
	c1.134,0.453,2.236,0.949,3.312,1.49c1.072,0.541,2.035,1.207,2.886,1.994c0.853,0.789,1.533,1.751,2.048,2.887
	c0.516,1.135,0.771,2.52,0.771,4.148v1.145H504.043z"/>
<linearGradient id="SVGID_8_" gradientUnits="userSpaceOnUse" x1="452.8428" y1="39.7915" x2="452.8428" y2="1.6499" gradientTransform="matrix(1 0 0 -1 0 227.5)">
	<stop  offset="0" style="stop-color:#323232"/>
	<stop  offset="1" style="stop-color:#000000"/>
</linearGradient>
<path fill="url(#SVGID_8_)" d="M460.104,225.85l-10.348-16.278h-4.707v16.278h-3.432v-38.142h12.103
	c1.294,0,2.509,0.244,3.645,0.731c1.134,0.486,2.129,1.156,2.979,2.008c0.853,0.851,1.521,1.849,2.008,2.992
	c0.487,1.144,0.731,2.363,0.731,3.658v3.084c0,1.295-0.244,2.515-0.731,3.657c-0.486,1.144-1.155,2.142-2.008,2.993
	c-0.851,0.852-1.846,1.521-2.979,2.008c-1.136,0.488-2.351,0.73-3.645,0.73l10.348,16.279H460.104z M459.65,197.098
	c0-0.852-0.158-1.645-0.479-2.381c-0.319-0.736-0.755-1.383-1.304-1.941c-0.55-0.559-1.193-0.998-1.929-1.316
	s-1.528-0.479-2.381-0.479h-8.512V206.3h8.512c0.853,0,1.646-0.159,2.381-0.479c0.734-0.319,1.379-0.758,1.929-1.315
	c0.549-0.558,0.983-1.207,1.304-1.94c0.319-0.736,0.479-1.53,0.479-2.381V197.098z"/>
<linearGradient id="SVGID_9_" gradientUnits="userSpaceOnUse" x1="423.2515" y1="39.7915" x2="423.2515" y2="1.1177" gradientTransform="matrix(1 0 0 -1 0 227.5)">
	<stop  offset="0" style="stop-color:#323232"/>
	<stop  offset="1" style="stop-color:#000000"/>
</linearGradient>
<path fill="url(#SVGID_9_)" d="M433.251,220.663c-0.487,1.135-1.156,2.128-2.008,2.979c-0.852,0.851-1.845,1.521-2.979,2.008
	c-1.135,0.488-2.35,0.731-3.644,0.731h-2.713c-1.295,0-2.515-0.245-3.658-0.731c-1.144-0.487-2.141-1.157-2.992-2.008
	c-0.851-0.852-1.521-1.845-2.009-2.979c-0.487-1.136-0.731-2.351-0.731-3.644v-29.312h3.434v29.312c0,0.851,0.159,1.645,0.479,2.379
	c0.319,0.735,0.757,1.385,1.316,1.941c0.559,0.559,1.205,0.999,1.942,1.317c0.733,0.319,1.528,0.479,2.38,0.479h2.394
	c0.853,0,1.646-0.159,2.381-0.479c0.736-0.319,1.378-0.759,1.93-1.317c0.549-0.557,0.982-1.206,1.303-1.941
	c0.318-0.734,0.479-1.528,0.479-2.379v-29.312h3.433v29.312C433.983,218.313,433.738,219.527,433.251,220.663z"/>
<linearGradient id="SVGID_10_" gradientUnits="userSpaceOnUse" x1="394.1519" y1="40.3237" x2="394.1519" y2="1.1177" gradientTransform="matrix(1 0 0 -1 0 227.5)">
	<stop  offset="0" style="stop-color:#323232"/>
	<stop  offset="1" style="stop-color:#000000"/>
</linearGradient>
<path fill="url(#SVGID_10_)" d="M404.154,220.663c-0.489,1.135-1.158,2.128-2.011,2.979c-0.851,0.851-1.846,1.521-2.979,2.008
	c-1.135,0.488-2.35,0.731-3.645,0.731h-2.713c-1.296,0-2.514-0.245-3.656-0.731c-1.146-0.487-2.143-1.157-2.992-2.008
	c-0.853-0.852-1.521-1.845-2.008-2.979c-0.489-1.136-0.732-2.351-0.732-3.644v-20.48c0-1.294,0.243-2.509,0.732-3.645
	c0.485-1.136,1.155-2.129,2.008-2.979c0.851-0.851,1.848-1.521,2.992-2.008c1.144-0.488,2.36-0.731,3.656-0.731h2.713
	c1.295,0,2.51,0.244,3.645,0.731c1.133,0.487,2.128,1.157,2.979,2.008c0.853,0.851,1.521,1.844,2.011,2.979
	c0.485,1.135,0.729,2.35,0.729,3.645v20.48C404.885,218.313,404.641,219.527,404.154,220.663z M401.453,196.539
	c0-0.852-0.159-1.645-0.479-2.38c-0.318-0.736-0.754-1.378-1.303-1.929c-0.551-0.549-1.193-0.985-1.929-1.305
	c-0.736-0.318-1.53-0.479-2.38-0.479h-2.396c-0.852,0-1.645,0.16-2.381,0.479c-0.735,0.319-1.383,0.754-1.941,1.305
	c-0.559,0.55-0.996,1.191-1.315,1.929c-0.319,0.735-0.479,1.528-0.479,2.38v20.48c0,0.851,0.159,1.645,0.479,2.379
	c0.319,0.735,0.758,1.385,1.315,1.941c0.56,0.559,1.206,0.999,1.941,1.317c0.736,0.319,1.529,0.479,2.381,0.479h2.396
	c0.85,0,1.644-0.159,2.38-0.479c0.734-0.319,1.378-0.759,1.929-1.317c0.549-0.557,0.983-1.206,1.303-1.941
	c0.319-0.734,0.479-1.528,0.479-2.379V196.539z"/>
<linearGradient id="SVGID_11_" gradientUnits="userSpaceOnUse" x1="366.9819" y1="39.7905" x2="366.9819" y2="1.6499" gradientTransform="matrix(1 0 0 -1 0 227.5)">
	<stop  offset="0" style="stop-color:#323232"/>
	<stop  offset="1" style="stop-color:#000000"/>
</linearGradient>
<path fill="url(#SVGID_11_)" d="M368.737,207.604v18.246h-3.432v-18.192l-9.868-19.948h3.697l7.848,15.854l7.847-15.854h3.696
	L368.737,207.604z"/>
<linearGradient id="SVGID_12_" gradientUnits="userSpaceOnUse" x1="329.9185" y1="39.7915" x2="329.9185" y2="1.6499" gradientTransform="matrix(1 0 0 -1 0 227.5)">
	<stop  offset="0" style="stop-color:#323232"/>
	<stop  offset="1" style="stop-color:#000000"/>
</linearGradient>
<path fill="url(#SVGID_12_)" d="M331.633,190.979v34.871h-3.432v-34.871h-9.096v-3.271h21.625v3.271H331.633z"/>
<linearGradient id="SVGID_13_" gradientUnits="userSpaceOnUse" x1="305.1021" y1="39.7915" x2="305.1021" y2="1.6499" gradientTransform="matrix(1 0 0 -1 0 227.5)">
	<stop  offset="0" style="stop-color:#323232"/>
	<stop  offset="1" style="stop-color:#000000"/>
</linearGradient>
<path fill="url(#SVGID_13_)" d="M294.369,225.85v-38.142h21.465v3.271h-18.033v14.177h14.603v3.271h-14.603v14.15h18.033v3.272
	H294.369L294.369,225.85z"/>
<linearGradient id="SVGID_14_" gradientUnits="userSpaceOnUse" x1="275.4448" y1="40.3237" x2="275.4448" y2="1.1177" gradientTransform="matrix(1 0 0 -1 0 227.5)">
	<stop  offset="0" style="stop-color:#323232"/>
	<stop  offset="1" style="stop-color:#000000"/>
</linearGradient>
<path fill="url(#SVGID_14_)" d="M286.176,225.85h-1.09l-1.995-3.059c-0.833,1.1-1.845,1.973-3.032,2.62s-2.509,0.971-3.963,0.971
	h-1.995c-1.294,0-2.514-0.245-3.657-0.731c-1.144-0.487-2.141-1.157-2.992-2.008c-0.851-0.852-1.521-1.845-2.008-2.979
	c-0.488-1.136-0.731-2.351-0.731-3.644v-20.48c0-1.294,0.243-2.509,0.731-3.645c0.487-1.136,1.156-2.129,2.008-2.979
	c0.852-0.851,1.849-1.521,2.992-2.008c1.144-0.488,2.363-0.731,3.657-0.731h2.713c1.294,0,2.509,0.244,3.644,0.731
	c1.136,0.487,2.129,1.157,2.98,2.008s1.52,1.844,2.008,2.979c0.487,1.135,0.73,2.35,0.73,3.645v1.542l-3.43,0.532v-2.075
	c0-0.851-0.16-1.646-0.479-2.38c-0.319-0.736-0.755-1.378-1.304-1.93c-0.549-0.549-1.192-0.984-1.929-1.304
	c-0.735-0.319-1.528-0.479-2.38-0.479h-2.395c-0.851,0-1.645,0.16-2.38,0.479c-0.735,0.319-1.383,0.755-1.942,1.304
	c-0.559,0.551-0.997,1.192-1.316,1.93c-0.318,0.736-0.479,1.529-0.479,2.38v20.479c0,0.852,0.16,1.646,0.479,2.381
	c0.319,0.734,0.758,1.384,1.316,1.94c0.56,0.56,1.207,0.999,1.942,1.317c0.735,0.318,1.529,0.479,2.38,0.479h2.395
	c0.852,0,1.645-0.16,2.38-0.479c0.736-0.319,1.38-0.758,1.929-1.317c0.549-0.557,0.984-1.206,1.304-1.94
	c0.319-0.735,0.479-1.529,0.479-2.381v-7.953h-6.092v-3.271h9.521L286.176,225.85L286.176,225.85z"/>
<linearGradient id="SVGID_15_" gradientUnits="userSpaceOnUse" x1="939.916" y1="188.1719" x2="939.916" y2="142.9326" gradientTransform="matrix(1 0 0 -1 0 227.5)">
	<stop  offset="0" style="stop-color:#F4A642"/>
	<stop  offset="1" style="stop-color:#D38F39"/>
</linearGradient>
<path fill="url(#SVGID_15_)" d="M972.043,64.821c-0.223,0.5-0.373,0.837-0.523,1.176c-1.803,4.053-3.709,8.063-5.377,12.173
	c-1.301,3.205-3.846,4.973-7.418,5.777c-4.479,1.008-9.11,0.696-13.766-0.28c-11.221-2.354-21.275-7.081-29.816-14.701
	c-2.782-2.481-5.088-5.271-6.491-8.545c-1.082-2.521-1.178-4.934-0.093-7.291c1.93-4.186,3.763-8.414,5.636-12.624
	c0.149-0.34,0.303-0.679,0.524-1.178c0.383,0.367,0.662,0.611,0.912,0.876c7.19,7.56,14.387,15.113,21.543,22.695
	c0.684,0.725,1.315,1.02,2.313,1.042c10.464,0.236,20.929,0.521,31.395,0.794C971.188,64.743,971.493,64.78,972.043,64.821z"/>
<linearGradient id="SVGID_16_" gradientUnits="userSpaceOnUse" x1="948.4443" y1="94.9473" x2="948.4443" y2="17.792">
	<stop  offset="0" style="stop-color:#000000"/>
	<stop  offset="1" style="stop-color:#323232"/>
</linearGradient>
<path fill="url(#SVGID_16_)" d="M989.703,63.229c2.92,0.109,5.838,0.174,8.757,0.25c0.396,0.009,0.79-0.012,1.3-0.021
	c-0.242-0.291-0.355-0.445-0.488-0.584c-13.468-14.165-26.941-28.326-40.388-42.508c-0.688-0.727-1.319-1.017-2.317-1.039
	c-8.326-0.181-16.656-0.418-24.985-0.635c-11.401-0.298-22.801-0.596-34.452-0.9c0.318,0.36,0.486,0.56,0.666,0.749
	c13.543,14.255,27.08,28.512,40.649,42.747c0.331,0.347,1.013,0.617,1.505,0.631c14.971,0.419,29.938,0.803,44.91,1.195l2.194,0.057
	c0.001,0.282,0.001,0.537,0.001,0.77c-0.005,5.4-0.016,10.801-0.01,16.202c0.004,0.956,0.063,1.803-1.088,2.493
	c-1.058,0.636-1.015,2.004-0.201,2.888c0.293,0.316,0.68,0.568,1.074,0.889c-1.344,2.818-2.694,5.645-4.07,8.527
	c3.504,0.003,6.807,0.005,10.264,0.007c-1.385-2.905-2.723-5.722-4.05-8.513c2.189-1.756,2.178-2.453,0.065-4.417
	c-0.205-0.189-0.258-0.556-0.259-0.839c-0.011-5.987,0.005-11.975-0.011-17.962l0.795,0.021
	C989.613,63.235,989.65,63.227,989.703,63.229z"/>
<linearGradient id="SVGID_17_" gradientUnits="userSpaceOnUse" x1="872.8359" y1="56.6353" x2="872.8359" y2="20.7222" gradientTransform="matrix(1 0 0 -1 0 227.5)">
	<stop  offset="0" style="stop-color:#000064"/>
	<stop  offset="0.1908" style="stop-color:#000050"/>
	<stop  offset="0.4245" style="stop-color:#00003F"/>
	<stop  offset="0.6808" style="stop-color:#000035"/>
	<stop  offset="1" style="stop-color:#000032"/>
</linearGradient>
<path fill="url(#SVGID_17_)" d="M883.256,170.864c-1.889,0.901-3.846,1.712-5.881,2.411c-7.071,2.432-14.969,3.703-23.48,3.813
	v11.862c0,3.711,0.447,6.72,1.34,9.025c0.89,2.301,2.229,4.123,4.011,5.459c1.783,1.338,3.973,2.229,6.574,2.674
	c2.596,0.445,5.532,0.668,8.802,0.668c3.417,0,6.759-0.26,10.028-0.78c3.266-0.522,5.645-1.002,7.131-1.448v-30.476
	c-1.642-0.5-3.29-1.056-4.947-1.668C886.832,172.406,885.322,171.93,883.256,170.864z"/>
<linearGradient id="SVGID_18_" gradientUnits="userSpaceOnUse" x1="923.9844" y1="170.3301" x2="923.9844" y2="55.3408" gradientTransform="matrix(1 0 0 -1 0 227.5)">
	<stop  offset="0" style="stop-color:#000064"/>
	<stop  offset="0.1908" style="stop-color:#000050"/>
	<stop  offset="0.4245" style="stop-color:#00003F"/>
	<stop  offset="0.6808" style="stop-color:#000035"/>
	<stop  offset="1" style="stop-color:#000032"/>
</linearGradient>
<path fill="url(#SVGID_18_)" d="M959.719,86.24c-0.151,0.038-0.293,0.088-0.45,0.124c-2.008,0.452-4.146,0.681-6.357,0.681
	c-2.635,0-5.402-0.313-8.459-0.954c-12-2.517-22.414-7.657-30.957-15.276c-3.355-2.991-5.687-6.072-7.121-9.417
	c-0.609-1.424-0.941-2.825-1.023-4.198c-0.586-0.011-1.168-0.029-1.76-0.029c-7.829,0-14.953,0.771-21.384,2.296
	c4.523,2.175,8.638,4.844,12.284,7.997c6.009,5.202,10.772,11.791,14.17,19.585c2.895,0.374,5.466,1.192,7.701,2.474
	c1.896,1.08,3.559,2.486,4.981,4.216c3.788,4.607,5.685,11.665,5.685,21.17c0,10.264-2.439,17.614-7.271,22.108
	c-0.022,0.021-0.045,0.043-0.066,0.063c-0.501,0.461-1.029,0.892-1.581,1.292c-0.059,0.041-0.113,0.082-0.17,0.122
	c-0.525,0.372-1.076,0.715-1.648,1.03c-0.09,0.051-0.178,0.103-0.27,0.15c-0.554,0.293-1.128,0.561-1.722,0.805
	c-0.121,0.05-0.24,0.104-0.362,0.15c-0.58,0.225-1.183,0.424-1.802,0.604c-0.15,0.043-0.297,0.092-0.448,0.133
	c-0.612,0.164-1.248,0.299-1.897,0.419c-0.14,0.026-0.278,0.055-0.419,0.081c-2.913,7.656-7.085,14.201-12.414,19.447
	c-2.619,2.58-5.52,4.848-8.668,6.802c1.171,0.429,2.334,0.821,3.492,1.19v-0.045c1.322,0.465,2.673,0.87,4.048,1.223
	c0.126,0.033,0.249,0.063,0.374,0.095c4.225,1.049,8.693,1.58,13.404,1.58c8.47,0,16.156-1.19,23.065-3.565
	c6.907-2.375,12.814-5.979,17.716-10.809c4.901-4.825,8.691-10.809,11.364-17.939c2.676-7.131,4.012-15.449,4.012-24.957
	c0-9.952-1.561-18.532-4.679-25.74C960.654,88.154,960.195,87.188,959.719,86.24z"/>
<linearGradient id="SVGID_19_" gradientUnits="userSpaceOnUse" x1="852.9219" y1="170.3301" x2="852.9219" y2="20.7227" gradientTransform="matrix(1 0 0 -1 0 227.5)">
	<stop  offset="0" style="stop-color:#000064"/>
	<stop  offset="0.1908" style="stop-color:#000050"/>
	<stop  offset="0.4245" style="stop-color:#00003F"/>
	<stop  offset="0.6808" style="stop-color:#000035"/>
	<stop  offset="1" style="stop-color:#000032"/>
</linearGradient>
<path fill="url(#SVGID_19_)" d="M904.178,89.148c-3.119-7.204-7.432-13.182-12.926-17.938c-5.497-4.753-12.072-8.281-19.722-10.585
	c-7.653-2.301-15.934-3.454-24.848-3.454c-8.469,0-16.12,0.892-22.954,2.674c-6.834,1.782-12.555,4.161-17.157,7.131
	c-2.975,2.082-5.313,4.384-7.021,6.908c-1.71,2.528-2.563,5.793-2.563,9.805v105.263c0,3.711,0.446,6.72,1.338,9.024
	c0.891,2.301,2.229,4.123,4.011,5.461c1.783,1.336,3.974,2.228,6.575,2.672c2.596,0.445,5.532,0.668,8.801,0.668
	c3.417,0,6.76-0.26,10.028-0.78c3.266-0.522,5.646-1.002,7.131-1.448v-30.475c-1.641-0.501-3.29-1.055-4.946-1.668
	c0,0-11.494-3.618-14.521-13.297c4.48,3.719,9.718,6.691,15.709,8.912c1.262,0.469,2.513,0.89,3.759,1.287v-0.047
	c1.323,0.465,2.673,0.871,4.049,1.225c0.126,0.031,0.249,0.061,0.373,0.093c4.226,1.05,8.693,1.58,13.405,1.58
	c8.469,0,16.156-1.19,23.065-3.565c6.906-2.375,12.813-5.979,17.716-10.808c4.901-4.826,8.69-10.81,11.364-17.94
	c2.677-7.13,4.013-15.449,4.013-24.957C908.857,104.937,907.297,96.356,904.178,89.148z M862.85,137.02
	c-0.022,0.021-0.046,0.043-0.067,0.063c-0.501,0.461-1.029,0.893-1.581,1.292c-0.059,0.041-0.112,0.083-0.169,0.122
	c-0.526,0.372-1.077,0.715-1.649,1.031c-0.09,0.05-0.178,0.102-0.269,0.149c-0.554,0.294-1.127,0.56-1.722,0.806
	c-0.121,0.049-0.239,0.103-0.363,0.15c-0.58,0.225-1.183,0.422-1.802,0.604c-0.149,0.043-0.296,0.092-0.447,0.132
	c-0.612,0.165-1.248,0.3-1.898,0.42c-0.173,0.032-0.341,0.071-0.518,0.101c-0.654,0.107-1.333,0.187-2.023,0.25
	c-0.188,0.02-0.366,0.045-0.556,0.06c-0.121,0.009-0.232,0.028-0.354,0.036c-0.293,0.135-0.59,0.211-0.889,0.211
	c-5.295,0-9.673-0.902-13.135-2.905c-0.24-0.112-0.484-0.22-0.72-0.337v-0.005c-0.012-0.007-0.024-0.013-0.037-0.019v-0.109
	c-6.037-3.935-9.062-11.545-9.062-24.033c0-9.506,1.365-16.612,5.153-21.219c3.146-3.824,6.383-6.018,12.676-6.654
	c1.438-0.226,2.964-0.352,4.602-0.352c4.47,0,8.279,0.906,11.436,2.714c1.896,1.081,3.559,2.486,4.982,4.217
	c3.787,4.606,5.685,11.665,5.685,21.17C870.121,125.173,867.682,132.525,862.85,137.02z"/>
<linearGradient id="SVGID_20_" gradientUnits="userSpaceOnUse" x1="384.3833" y1="169.7832" x2="384.3833" y2="54.5703" gradientTransform="matrix(1 0 0 -1 0 227.5)">
	<stop  offset="0" style="stop-color:#000064"/>
	<stop  offset="0.1908" style="stop-color:#000050"/>
	<stop  offset="0.4245" style="stop-color:#00003F"/>
	<stop  offset="0.6808" style="stop-color:#000035"/>
	<stop  offset="1" style="stop-color:#000032"/>
</linearGradient>
<path fill="url(#SVGID_20_)" d="M382.6,57.718c8.021,0,15.339,0.818,21.949,2.451c6.609,1.636,12.257,4.124,16.938,7.466
	c4.681,3.343,8.279,7.576,10.809,12.704c2.524,5.124,3.788,11.178,3.788,18.16v49.918c0,3.864-1.08,7.019-3.231,9.472
	c-2.154,2.451-4.718,4.567-7.688,6.351c-9.659,5.795-23.252,8.69-40.78,8.69c-7.876,0-14.97-0.744-21.28-2.229
	c-6.317-1.483-11.738-3.712-16.27-6.686c-4.533-2.97-8.021-6.76-10.473-11.365c-2.452-4.604-3.679-9.951-3.679-16.045
	c0-10.25,3.043-18.123,9.138-23.622c6.09-5.496,15.521-8.914,28.301-10.25l29.193-3.12v-1.561c0-4.308-1.896-7.389-5.684-9.248
	c-3.788-1.856-9.248-2.786-16.379-2.786c-5.646,0-11.143,0.595-16.491,1.783c-5.348,1.19-10.177,2.674-14.483,4.457
	c-1.934-1.337-3.565-3.377-4.902-6.127c-1.338-2.748-2.006-5.607-2.006-8.58c0-3.863,0.926-6.944,2.785-9.248
	c1.855-2.303,4.715-4.271,8.58-5.907c4.308-1.633,9.394-2.821,15.265-3.565C371.864,58.089,377.396,57.718,382.6,57.718z
	 M384.382,145.296c2.524,0,5.311-0.257,8.356-0.778c3.043-0.521,5.311-1.227,6.797-2.117v-17.828l-16.045,1.336
	c-4.161,0.3-7.576,1.191-10.25,2.674c-2.675,1.486-4.013,3.715-4.013,6.686c0,2.975,1.148,5.387,3.454,7.244
	C374.983,144.371,378.884,145.296,384.382,145.296z"/>
<linearGradient id="SVGID_21_" gradientUnits="userSpaceOnUse" x1="480.0205" y1="169.5605" x2="480.0205" y2="56.3535" gradientTransform="matrix(1 0 0 -1 0 227.5)">
	<stop  offset="0" style="stop-color:#000064"/>
	<stop  offset="0.1908" style="stop-color:#000050"/>
	<stop  offset="0.4245" style="stop-color:#00003F"/>
	<stop  offset="0.6808" style="stop-color:#000035"/>
	<stop  offset="1" style="stop-color:#000032"/>
</linearGradient>
<path fill="url(#SVGID_21_)" d="M479.908,169.141c-1.486,0.446-3.827,0.893-7.02,1.338c-3.195,0.445-6.502,0.668-9.917,0.668
	c-3.27,0-6.205-0.223-8.804-0.668c-2.601-0.445-4.79-1.338-6.573-2.674c-1.782-1.338-3.157-3.154-4.122-5.46
	c-0.968-2.302-1.447-5.31-1.447-9.024V86.465c0-3.416,0.629-6.351,1.895-8.802c1.26-2.452,3.081-4.642,5.459-6.574
	c2.375-1.929,5.311-3.677,8.803-5.236c3.488-1.56,7.242-2.934,11.253-4.124c4.013-1.187,8.169-2.117,12.479-2.786
	c4.308-0.668,8.614-1.003,12.926-1.003c7.131,0,12.774,1.375,16.938,4.124c4.156,2.75,6.238,7.242,6.238,13.482
	c0,2.082-0.3,4.122-0.892,6.129c-0.595,2.005-1.337,3.826-2.229,5.459c-3.118,0-6.314,0.15-9.582,0.446
	c-3.271,0.299-6.463,0.745-9.582,1.337c-3.119,0.596-6.056,1.226-8.803,1.894c-2.751,0.669-5.091,1.449-7.021,2.341L479.908,169.141
	L479.908,169.141z"/>
<linearGradient id="SVGID_22_" gradientUnits="userSpaceOnUse" x1="559.166" y1="190.2832" x2="559.166" y2="54.7939" gradientTransform="matrix(1 0 0 -1 0 227.5)">
	<stop  offset="0" style="stop-color:#000064"/>
	<stop  offset="0.1908" style="stop-color:#000050"/>
	<stop  offset="0.4245" style="stop-color:#00003F"/>
	<stop  offset="0.6808" style="stop-color:#000035"/>
	<stop  offset="1" style="stop-color:#000032"/>
</linearGradient>
<path fill="url(#SVGID_22_)" d="M561.396,132.148c0,3.865,1.226,6.612,3.677,8.244c2.451,1.637,5.905,2.452,10.361,2.452
	c2.229,0,4.53-0.185,6.908-0.557c2.375-0.37,4.457-0.853,6.239-1.449c1.338,1.636,2.487,3.454,3.454,5.46
	c0.965,2.006,1.449,4.422,1.449,7.242c0,5.646-2.117,10.25-6.352,13.816c-4.234,3.565-11.7,5.349-22.396,5.349
	c-13.074,0-23.142-2.974-30.195-8.914c-7.058-5.938-10.585-15.599-10.585-28.97V39.445c1.634-0.446,3.974-0.926,7.02-1.448
	c3.045-0.519,6.274-0.78,9.694-0.78c6.535,0,11.623,1.153,15.267,3.454c3.639,2.306,5.459,7.17,5.459,14.597V69.53h29.192
	c0.892,1.636,1.743,3.677,2.563,6.129c0.814,2.451,1.227,5.163,1.227,8.133c0,5.202-1.153,8.952-3.455,11.254
	c-2.305,2.304-5.386,3.453-9.247,3.453h-20.279V132.148L561.396,132.148z"/>
<linearGradient id="SVGID_23_" gradientUnits="userSpaceOnUse" x1="711.1045" y1="225.9141" x2="711.1045" y2="55.4131" gradientTransform="matrix(1 0 0 -1 0 227.5)">
	<stop  offset="0" style="stop-color:#000064"/>
	<stop  offset="0.1908" style="stop-color:#000050"/>
	<stop  offset="0.4245" style="stop-color:#00003F"/>
	<stop  offset="0.6808" style="stop-color:#000035"/>
	<stop  offset="1" style="stop-color:#000032"/>
</linearGradient>
<path fill="url(#SVGID_23_)" d="M677.742,9.212c3.085-1.813,7.762-3.541,14.025-5.175c6.266-1.634,12.571-2.451,18.93-2.451
	c9.077,0,17.112,1.319,24.104,3.949c6.987,2.635,11.481,6.766,13.481,12.393c3.269,9.443,6.81,20.427,10.622,32.956
	c3.813,12.529,7.626,25.467,11.438,38.812c3.813,13.348,7.533,26.513,11.167,39.494c3.63,12.984,6.811,24.471,9.533,34.455
	c-2.18,2.543-5.448,4.586-9.805,6.127c-4.358,1.541-9.533,2.314-15.526,2.314c-4.356,0-8.034-0.366-11.029-1.089
	c-2.996-0.728-5.446-1.813-7.354-3.269c-1.906-1.451-3.45-3.357-4.63-5.72c-1.184-2.356-2.227-5.081-3.132-8.171l-4.902-18.793
	h-49.299c-1.455,5.448-2.906,11.078-4.357,16.887c-1.455,5.813-2.905,11.439-4.357,16.887c-2.544,0.906-5.223,1.678-8.034,2.315
	c-2.817,0.634-6.223,0.953-10.214,0.953c-9.26,0-16.116-1.591-20.563-4.767c-4.451-3.174-6.673-7.579-6.673-13.209
	c0-2.541,0.361-5.082,1.089-7.627c0.725-2.541,1.541-5.536,2.451-8.987c1.27-4.903,3.039-10.985,5.313-18.249
	c2.269-7.26,4.767-15.116,7.489-23.558c2.725-8.445,5.626-17.114,8.717-26.012c3.085-8.894,5.99-17.295,8.715-25.194
	c2.724-7.899,5.219-14.934,7.489-21.108C674.699,17.206,676.469,12.481,677.742,9.212z M710.426,44.347
	c-2.546,7.626-5.403,16.117-8.58,25.467c-3.18,9.354-6.038,18.839-8.579,28.462h33.772c-2.545-9.806-5.132-19.381-7.762-28.735
	c-2.636-9.349-5.039-17.748-7.219-25.194H710.426z"/>
<linearGradient id="SVGID_24_" gradientUnits="userSpaceOnUse" x1="243.9683" y1="169.7832" x2="243.9683" y2="56.3535" gradientTransform="matrix(1 0 0 -1 0 227.5)">
	<stop  offset="0" style="stop-color:#000064"/>
	<stop  offset="0.1908" style="stop-color:#000050"/>
	<stop  offset="0.4245" style="stop-color:#00003F"/>
	<stop  offset="0.6808" style="stop-color:#000035"/>
	<stop  offset="1" style="stop-color:#000032"/>
</linearGradient>
<path fill="url(#SVGID_24_)" d="M213.214,57.718c6.091,0,12.069,0.857,17.938,2.563c5.867,1.709,10.955,4.271,15.266,7.688
	c4.457-2.969,9.471-5.422,15.042-7.354c5.571-1.929,12.292-2.896,20.167-2.896c5.646,0,11.178,0.744,16.603,2.229
	c5.421,1.485,10.25,3.826,14.485,7.021c4.233,3.194,7.611,7.429,10.139,12.7c2.525,5.276,3.789,11.699,3.789,19.276v70.196
	c-1.485,0.446-3.826,0.893-7.021,1.338c-3.195,0.445-6.499,0.668-9.916,0.668c-3.27,0-6.204-0.223-8.801-0.668
	c-2.602-0.445-4.792-1.338-6.574-2.674c-1.783-1.338-3.158-3.154-4.123-5.46c-0.968-2.302-1.448-5.31-1.448-9.024v-53.261
	c0-4.457-1.265-7.688-3.788-9.693c-2.529-2.006-5.944-3.009-10.251-3.009c-2.082,0-4.311,0.484-6.686,1.449
	c-2.378,0.968-4.161,1.969-5.349,3.008c0.146,0.596,0.223,1.153,0.223,1.672c0,0.521,0,1.002,0,1.448v74.207
	c-1.637,0.446-4.049,0.893-7.242,1.338c-3.196,0.445-6.428,0.668-9.693,0.668c-3.27,0-6.205-0.223-8.804-0.668
	c-2.601-0.445-4.79-1.338-6.573-2.674c-1.783-1.338-3.158-3.154-4.122-5.46c-0.969-2.302-1.449-5.31-1.449-9.024v-53.261
	c0-4.457-1.375-7.688-4.122-9.693c-2.751-2.006-6.055-3.009-9.917-3.009c-2.675,0-4.979,0.411-6.907,1.225
	c-1.934,0.819-3.566,1.599-4.903,2.341v78.218c-1.486,0.446-3.826,0.893-7.021,1.338c-3.195,0.445-6.5,0.668-9.915,0.668
	c-3.271,0-6.206-0.223-8.803-0.668c-2.601-0.445-4.792-1.338-6.574-2.674c-1.782-1.338-3.158-3.154-4.122-5.46
	c-0.969-2.302-1.449-5.31-1.449-9.024v-67.3c0-4.011,0.854-7.205,2.563-9.582c1.706-2.376,4.046-4.605,7.019-6.686
	c5.049-3.566,11.327-6.463,18.831-8.691C197.203,58.833,205.042,57.718,213.214,57.718z"/>
<linearGradient id="SVGID_25_" gradientUnits="userSpaceOnUse" x1="77.6753" y1="227.3828" x2="77.6753" y2="21.0039" gradientTransform="matrix(1 0 0 -1 0 227.5)">
	<stop  offset="0" style="stop-color:#000064"/>
	<stop  offset="0.1908" style="stop-color:#000050"/>
	<stop  offset="0.4245" style="stop-color:#00003F"/>
	<stop  offset="0.6808" style="stop-color:#000035"/>
	<stop  offset="1" style="stop-color:#000032"/>
</linearGradient>
<path fill="url(#SVGID_25_)" d="M63.626,123.493c-9.477-3.229-18.087-6.511-25.838-9.851c-7.751-3.335-14.428-7.372-20.024-12.11
	c-5.601-4.734-9.961-10.387-13.079-16.956C1.561,78.01,0,69.991,0,60.514c0-18.299,7.05-32.943,21.155-43.925
	C35.255,5.61,55.012,0.118,80.421,0.118c9.254,0,17.869,0.646,25.838,1.938c7.963,1.292,14.8,3.286,20.509,5.975
	c5.701,2.694,10.173,6.138,13.402,10.334c3.229,4.2,4.845,9.1,4.845,14.696c0,5.602-1.292,10.391-3.874,14.372
	c-2.585,3.987-5.709,7.379-9.367,10.174c-4.739-3.012-11.093-5.651-19.056-7.913c-7.969-2.262-16.688-3.391-26.161-3.391
	c-9.689,0-16.795,1.346-21.315,4.037c-4.522,2.693-6.783,6.086-6.783,10.174c0,3.229,1.399,5.869,4.199,7.913
	c2.796,2.047,6.993,3.932,12.596,5.651l17.118,5.491c20.236,6.459,35.793,14.695,46.668,24.708
	c10.871,10.011,16.31,23.633,16.31,40.856c0,18.303-7.216,33.104-21.638,44.408c-14.428,11.303-35.639,16.955-63.626,16.955
	c-9.905,0-19.11-0.807-27.614-2.421c-8.508-1.616-15.936-3.983-22.284-7.105c-6.354-3.118-11.305-6.995-14.856-11.628
	C1.777,180.714,0,175.386,0,169.354c0-6.24,1.827-11.569,5.491-15.985c3.659-4.411,7.64-7.804,11.95-10.175
	c6.025,4.738,13.402,8.832,22.123,12.273c8.721,3.447,18.249,5.169,28.583,5.169c10.546,0,17.976-1.616,22.286-4.846
	c4.304-3.229,6.459-6.994,6.459-11.303c0-4.306-1.726-7.591-5.168-9.853c-3.446-2.261-8.291-4.467-14.533-6.621L63.626,123.493z"/>
</svg>
