<?xml version="1.0" encoding="utf-8"?>
<!-- Generator: Adobe Illustrator 16.0.0, SVG Export Plug-In . SVG Version: 6.00 Build 0)  -->
<!DOCTYPE svg PUBLIC "-//W3C//DTD SVG 1.1//EN" "http://www.w3.org/Graphics/SVG/1.1/DTD/svg11.dtd">
<svg version="1.1" id="Layer_1" xmlns="http://www.w3.org/2000/svg" xmlns:xlink="http://www.w3.org/1999/xlink" x="0px" y="0px"
	 width="25px" height="25px" viewBox="0 0 25 25" enable-background="new 0 0 25 25" xml:space="preserve">
<g id="home_x5F_sub_x5F_banner">
	<rect display="none" fill="#636363" width="25" height="25"/>
	<g>
		<path fill="#FFFFFF" d="M10.636,19.718c-0.231,0.11-0.474,0.212-0.725,0.298c-0.869,0.299-1.842,0.457-2.893,0.469v1.461
			c0,0.457,0.054,0.828,0.166,1.111c0.108,0.284,0.275,0.508,0.493,0.674c0.221,0.164,0.49,0.272,0.812,0.33
			c0.318,0.054,0.681,0.082,1.084,0.082c0.42,0,0.834-0.033,1.237-0.096c0.4-0.064,0.691-0.124,0.877-0.179v-3.755
			c-0.201-0.062-0.406-0.129-0.61-0.206C11.077,19.907,10.893,19.85,10.636,19.718z"/>
		<path fill="#FFFFFF" d="M13.213,9.65c-0.384-0.888-0.915-1.625-1.591-2.21c-0.678-0.586-1.487-1.021-2.43-1.305
			C8.25,5.852,7.23,5.71,6.13,5.71c-1.043,0-1.985,0.11-2.827,0.33C2.461,6.26,1.755,6.552,1.188,6.918
			C0.823,7.174,0.534,7.459,0.322,7.77C0.115,8.081,0.009,8.483,0.009,8.978v12.969c0,0.458,0.055,0.826,0.163,1.111
			c0.112,0.283,0.275,0.508,0.493,0.672c0.221,0.166,0.49,0.273,0.813,0.33c0.321,0.055,0.681,0.082,1.084,0.082
			c0.422,0,0.833-0.033,1.236-0.095c0.403-0.065,0.695-0.124,0.878-0.179v-3.755c-0.202-0.062-0.403-0.13-0.61-0.206
			c0,0-1.417-0.445-1.787-1.637c0.55,0.457,1.195,0.823,1.934,1.098c0.155,0.058,0.311,0.109,0.464,0.158v-0.006
			c0.163,0.058,0.329,0.106,0.498,0.15c0.017,0.004,0.033,0.008,0.047,0.012c0.522,0.129,1.07,0.193,1.65,0.193
			c1.046,0,1.991-0.146,2.842-0.438c0.853-0.293,1.58-0.736,2.185-1.332c0.602-0.594,1.07-1.332,1.4-2.209
			c0.329-0.879,0.493-1.903,0.493-3.076C13.791,11.594,13.6,10.537,13.213,9.65z M8.121,15.547
			c-0.002,0.003-0.002,0.006-0.008,0.008c-0.06,0.057-0.125,0.11-0.193,0.159c-0.008,0.006-0.014,0.011-0.021,0.015
			c-0.063,0.047-0.131,0.088-0.202,0.127c-0.011,0.008-0.024,0.013-0.035,0.02c-0.068,0.037-0.136,0.068-0.213,0.098
			c-0.014,0.006-0.026,0.014-0.043,0.02c-0.071,0.027-0.145,0.052-0.221,0.074c-0.02,0.006-0.035,0.012-0.058,0.017
			c-0.076,0.021-0.152,0.037-0.231,0.052c-0.024,0.004-0.041,0.008-0.065,0.014c-0.079,0.014-0.163,0.022-0.248,0.029
			c-0.024,0.004-0.046,0.006-0.067,0.008c-0.017,0-0.03,0.002-0.044,0.004c-0.038,0.018-0.073,0.026-0.111,0.026
			c-0.654,0-1.19-0.112-1.618-0.358c-0.027-0.012-0.061-0.026-0.088-0.041l0,0c-0.003,0-0.005-0.002-0.005-0.004V15.8
			c-0.744-0.485-1.117-1.423-1.117-2.961c0-1.172,0.169-2.047,0.635-2.614c0.39-0.471,0.787-0.742,1.561-0.82
			C5.91,9.376,6.094,9.362,6.298,9.362c0.551,0,1.022,0.111,1.409,0.333c0.234,0.133,0.438,0.307,0.615,0.521
			c0.463,0.566,0.697,1.437,0.697,2.608C9.018,14.088,8.718,14.994,8.121,15.547z"/>
		<path fill="#FFFFFF" d="M20.057,9.291c-0.02,0.005-0.035,0.011-0.055,0.016C19.754,9.363,19.49,9.39,19.218,9.39
			c-0.323,0-0.665-0.038-1.041-0.117c-1.479-0.311-2.763-0.942-3.813-1.882c-0.413-0.369-0.699-0.748-0.877-1.161
			c-0.076-0.174-0.117-0.347-0.125-0.516c-0.073-0.001-0.147-0.004-0.219-0.004c-0.964,0-1.842,0.095-2.635,0.283
			c0.556,0.267,1.065,0.597,1.512,0.985c0.741,0.642,1.33,1.453,1.748,2.414c0.355,0.045,0.672,0.146,0.949,0.304
			c0.234,0.133,0.438,0.307,0.613,0.521c0.466,0.566,0.699,1.437,0.699,2.608c0,1.264-0.299,2.17-0.896,2.723
			c-0.003,0.003-0.006,0.007-0.008,0.009c-0.063,0.057-0.126,0.109-0.196,0.158c-0.006,0.006-0.014,0.01-0.021,0.016
			c-0.063,0.045-0.131,0.086-0.201,0.127c-0.012,0.007-0.021,0.012-0.032,0.019c-0.065,0.037-0.14,0.067-0.213,0.099
			c-0.014,0.006-0.026,0.012-0.044,0.019c-0.07,0.028-0.146,0.052-0.223,0.073c-0.018,0.007-0.036,0.012-0.055,0.018
			c-0.076,0.02-0.156,0.037-0.234,0.052c-0.018,0.003-0.033,0.007-0.049,0.011c-0.36,0.943-0.875,1.748-1.531,2.396
			c-0.324,0.317-0.682,0.597-1.068,0.838c0.145,0.054,0.286,0.101,0.431,0.147v-0.006c0.163,0.058,0.33,0.106,0.496,0.15
			c0.017,0.004,0.032,0.008,0.049,0.012c0.521,0.129,1.071,0.193,1.651,0.193c1.043,0,1.988-0.146,2.842-0.438
			c0.851-0.293,1.58-0.736,2.183-1.332c0.604-0.594,1.073-1.332,1.399-2.209c0.332-0.879,0.496-1.903,0.496-3.076
			c0-1.226-0.193-2.283-0.578-3.17C20.171,9.526,20.116,9.408,20.057,9.291z"/>
		<path fill="#FFFFFF" d="M21.576,6.652c-0.026,0.062-0.047,0.104-0.064,0.145c-0.224,0.5-0.457,0.994-0.662,1.501
			c-0.16,0.394-0.475,0.613-0.916,0.711c-0.55,0.124-1.121,0.086-1.693-0.034c-1.385-0.29-2.623-0.873-3.676-1.812
			c-0.344-0.305-0.627-0.649-0.801-1.053c-0.131-0.311-0.142-0.607-0.011-0.898c0.239-0.516,0.466-1.036,0.697-1.555
			c0.017-0.042,0.034-0.083,0.065-0.146c0.043,0.045,0.08,0.076,0.107,0.108c0.889,0.932,1.773,1.862,2.652,2.796
			c0.088,0.09,0.164,0.126,0.287,0.129c1.289,0.028,2.58,0.064,3.869,0.097C21.471,6.643,21.509,6.647,21.576,6.652z"/>
		<g>
			<path fill="#FFFFFF" d="M23.424,6.545c0,0.665,0,1.331,0,1.996c0,0.117,0.008,0.222-0.134,0.306
				c-0.131,0.079-0.125,0.248-0.024,0.357c0.039,0.038,0.082,0.069,0.131,0.109c-0.162,0.348-0.332,0.696-0.5,1.05
				c0.433,0.001,0.838,0.001,1.264,0.001c-0.169-0.358-0.332-0.706-0.498-1.049c0.27-0.217,0.27-0.302,0.008-0.543
				c-0.023-0.024-0.029-0.069-0.029-0.105c-0.004-0.761,0-1.525-0.004-2.289c0-0.033,0.006-0.059,0.022-0.08l-0.234,0.104
				C23.424,6.46,23.424,6.502,23.424,6.545z"/>
			<path fill="#FFFFFF" d="M24.932,6.413c-1.66-1.745-3.322-3.49-4.979-5.237c-0.082-0.09-0.161-0.125-0.283-0.128
				c-1.027-0.022-2.055-0.052-3.079-0.078c-1.405-0.037-2.809-0.074-4.244-0.112c0.038,0.045,0.061,0.069,0.082,0.093
				c1.667,1.757,3.334,3.513,5.006,5.266c0.041,0.044,0.127,0.078,0.187,0.078c1.845,0.053,3.688,0.1,5.532,0.149l0,0l0.58,0.015
				c0.006-0.001,0.012-0.001,0.018-0.001c0.359,0.014,0.719,0.021,1.081,0.032c0.047,0,0.097-0.003,0.158-0.003
				C24.96,6.448,24.945,6.43,24.932,6.413z"/>
		</g>
	</g>
	<g>
		<path fill="#FFFFFF" d="M10.637,19.718c-0.231,0.11-0.474,0.212-0.725,0.298c-0.869,0.299-1.842,0.457-2.893,0.469v1.461
			c0,0.457,0.054,0.828,0.166,1.111c0.108,0.284,0.275,0.508,0.493,0.674c0.221,0.164,0.49,0.272,0.812,0.33
			c0.318,0.054,0.681,0.082,1.084,0.082c0.42,0,0.834-0.033,1.237-0.096c0.4-0.064,0.691-0.124,0.877-0.179v-3.755
			c-0.201-0.062-0.406-0.129-0.61-0.206C11.078,19.907,10.894,19.85,10.637,19.718z"/>
		<path fill="#FFFFFF" d="M13.214,9.65c-0.384-0.888-0.915-1.625-1.591-2.21c-0.678-0.586-1.487-1.021-2.43-1.305
			C8.251,5.852,7.231,5.71,6.131,5.71c-1.043,0-1.985,0.11-2.827,0.33C2.462,6.26,1.756,6.552,1.189,6.918
			C0.824,7.174,0.535,7.459,0.323,7.77C0.116,8.081,0.01,8.483,0.01,8.978v12.969c0,0.458,0.055,0.826,0.163,1.111
			c0.112,0.283,0.275,0.508,0.493,0.672c0.221,0.166,0.49,0.273,0.813,0.33c0.321,0.055,0.681,0.082,1.084,0.082
			c0.422,0,0.833-0.033,1.236-0.095c0.403-0.065,0.695-0.124,0.878-0.179v-3.755c-0.202-0.062-0.403-0.13-0.61-0.206
			c0,0-1.417-0.445-1.787-1.637c0.55,0.457,1.195,0.823,1.934,1.098c0.155,0.058,0.311,0.109,0.464,0.158v-0.006
			c0.163,0.058,0.329,0.106,0.498,0.15c0.017,0.004,0.033,0.008,0.047,0.012c0.522,0.129,1.07,0.193,1.65,0.193
			c1.046,0,1.991-0.146,2.842-0.438c0.853-0.293,1.58-0.736,2.185-1.332c0.602-0.594,1.07-1.332,1.4-2.209
			c0.329-0.879,0.493-1.903,0.493-3.076C13.792,11.594,13.602,10.537,13.214,9.65z M8.122,15.547
			C8.12,15.55,8.12,15.553,8.114,15.555c-0.06,0.057-0.125,0.11-0.193,0.159C7.913,15.72,7.907,15.725,7.9,15.729
			c-0.063,0.047-0.131,0.088-0.202,0.127c-0.011,0.008-0.024,0.013-0.035,0.02c-0.068,0.037-0.136,0.068-0.213,0.098
			c-0.014,0.006-0.026,0.014-0.043,0.02c-0.071,0.027-0.145,0.052-0.221,0.074c-0.02,0.006-0.035,0.012-0.058,0.017
			c-0.076,0.021-0.152,0.037-0.231,0.052c-0.024,0.004-0.041,0.008-0.065,0.014c-0.079,0.014-0.163,0.022-0.248,0.029
			c-0.024,0.004-0.046,0.006-0.067,0.008c-0.017,0-0.03,0.002-0.044,0.004c-0.038,0.018-0.073,0.026-0.111,0.026
			c-0.654,0-1.19-0.112-1.618-0.358c-0.027-0.012-0.061-0.026-0.088-0.041l0,0c-0.003,0-0.005-0.002-0.005-0.004V15.8
			c-0.744-0.485-1.117-1.423-1.117-2.961c0-1.172,0.169-2.047,0.635-2.614c0.39-0.471,0.787-0.742,1.561-0.82
			c0.181-0.029,0.365-0.043,0.569-0.043c0.551,0,1.022,0.111,1.409,0.333c0.234,0.133,0.438,0.307,0.615,0.521
			c0.463,0.566,0.697,1.437,0.697,2.608C9.019,14.088,8.719,14.994,8.122,15.547z"/>
		<path fill="#FFFFFF" d="M20.059,9.291c-0.021,0.005-0.035,0.011-0.056,0.016c-0.248,0.056-0.512,0.083-0.784,0.083
			c-0.324,0-0.664-0.038-1.041-0.117c-1.479-0.311-2.763-0.942-3.813-1.882c-0.414-0.369-0.7-0.748-0.879-1.161
			c-0.075-0.174-0.116-0.347-0.125-0.516c-0.072-0.001-0.146-0.004-0.217-0.004c-0.965,0-1.843,0.095-2.636,0.283
			c0.556,0.267,1.065,0.597,1.512,0.985c0.741,0.642,1.331,1.453,1.747,2.414c0.356,0.045,0.674,0.146,0.95,0.304
			c0.234,0.133,0.437,0.307,0.613,0.521c0.466,0.566,0.7,1.437,0.7,2.608c0,1.264-0.301,2.17-0.896,2.723
			c-0.003,0.003-0.006,0.007-0.008,0.009c-0.063,0.057-0.126,0.109-0.195,0.158c-0.007,0.006-0.015,0.01-0.022,0.016
			c-0.063,0.045-0.13,0.086-0.201,0.127c-0.011,0.007-0.021,0.012-0.032,0.019c-0.064,0.037-0.14,0.067-0.213,0.099
			c-0.014,0.006-0.027,0.012-0.044,0.019c-0.069,0.028-0.146,0.052-0.224,0.073c-0.016,0.007-0.035,0.012-0.055,0.018
			c-0.076,0.02-0.154,0.037-0.233,0.052c-0.017,0.003-0.033,0.007-0.05,0.011c-0.359,0.943-0.875,1.748-1.53,2.396
			c-0.324,0.317-0.682,0.597-1.068,0.838c0.145,0.054,0.286,0.101,0.431,0.147v-0.006c0.163,0.058,0.33,0.106,0.496,0.15
			c0.017,0.004,0.032,0.008,0.049,0.012c0.521,0.129,1.07,0.193,1.652,0.193c1.043,0,1.987-0.146,2.84-0.438
			c0.852-0.293,1.58-0.736,2.184-1.332c0.604-0.594,1.072-1.332,1.4-2.209c0.332-0.879,0.494-1.903,0.494-3.076
			c0-1.226-0.193-2.283-0.576-3.17C20.172,9.526,20.117,9.408,20.059,9.291z"/>
		<path fill="#FFFFFF" d="M21.577,6.652c-0.026,0.062-0.046,0.104-0.063,0.145c-0.225,0.5-0.459,0.994-0.662,1.501
			c-0.162,0.394-0.476,0.613-0.916,0.711c-0.551,0.124-1.123,0.086-1.694-0.034c-1.384-0.29-2.623-0.873-3.675-1.812
			c-0.344-0.305-0.627-0.649-0.801-1.053c-0.132-0.311-0.143-0.607-0.012-0.898c0.239-0.516,0.467-1.036,0.697-1.555
			c0.017-0.042,0.035-0.083,0.064-0.146c0.043,0.045,0.082,0.076,0.108,0.108c0.89,0.932,1.772,1.862,2.653,2.796
			c0.088,0.09,0.164,0.126,0.285,0.129c1.289,0.028,2.58,0.064,3.869,0.097C21.473,6.643,21.51,6.647,21.577,6.652z"/>
		<g>
			<path fill="#FFFFFF" d="M23.425,6.545c0,0.665,0,1.331,0,1.996c0,0.117,0.009,0.222-0.134,0.306
				c-0.131,0.079-0.125,0.248-0.023,0.357c0.037,0.038,0.082,0.069,0.131,0.109c-0.164,0.348-0.332,0.696-0.502,1.05
				c0.434,0.001,0.84,0.001,1.265,0.001c-0.169-0.358-0.332-0.706-0.498-1.049c0.271-0.217,0.271-0.302,0.008-0.543
				c-0.024-0.024-0.03-0.069-0.03-0.105c-0.002-0.761,0-1.525-0.002-2.289c0-0.033,0.006-0.059,0.021-0.08l-0.234,0.104
				C23.425,6.46,23.425,6.502,23.425,6.545z"/>
			<path fill="#FFFFFF" d="M24.932,6.413c-1.658-1.745-3.32-3.49-4.978-5.237c-0.082-0.09-0.161-0.125-0.283-0.128
				c-1.026-0.022-2.055-0.052-3.079-0.078c-1.404-0.037-2.809-0.074-4.244-0.112c0.038,0.045,0.061,0.069,0.082,0.093
				c1.667,1.757,3.333,3.513,5.007,5.266c0.041,0.044,0.125,0.078,0.186,0.078c1.845,0.053,3.688,0.1,5.533,0.149l0,0l0.58,0.015
				c0.005-0.001,0.011-0.001,0.017-0.001c0.358,0.014,0.72,0.021,1.081,0.032c0.047,0,0.096-0.003,0.158-0.003
				C24.961,6.448,24.947,6.43,24.932,6.413z"/>
		</g>
	</g>
</g>
</svg>
