<?xml version="1.0" encoding="utf-8"?>
<!-- Generator: Adobe Illustrator 16.0.0, SVG Export Plug-In . SVG Version: 6.00 Build 0)  -->
<!DOCTYPE svg PUBLIC "-//W3C//DTD SVG 1.0//EN" "http://www.w3.org/TR/2001/REC-SVG-20010904/DTD/svg10.dtd">
<svg version="1.0" id="Layer_1" xmlns="http://www.w3.org/2000/svg" xmlns:xlink="http://www.w3.org/1999/xlink" x="0px" y="0px"
	 width="80px" height="35px" viewBox="0 0 80 35" enable-background="new 0 0 80 35" xml:space="preserve">
<g id="footer_x5F_logos">
	<g>
		<path fill="#010101" d="M39.998,16.521c-0.625-0.209-1.226-0.484-1.833-0.734c-3.298-1.346-6.59-2.7-9.885-4.041
			c-0.207-0.085-0.27-0.188-0.267-0.403c0.017-0.623,0.004-1.246,0.009-1.868c0-0.094-0.025-0.193,0.035-0.297
			c0.825,0.336,1.65,0.673,2.474,1.01c3.032,1.243,6.068,2.485,9.102,3.729c0.122,0.051,0.245,0.11,0.365,0.166
			C39.998,14.895,39.998,15.708,39.998,16.521z"/>
		<path fill="#010101" d="M40.01,13.042c-0.192,0.002-0.347-0.111-0.516-0.18c-3.764-1.538-7.526-3.079-11.286-4.62
			c-0.056-0.023-0.106-0.048-0.173-0.078c0-0.802,0-1.607,0-2.464C32.041,7.341,36.021,8.971,40,10.602
			C40.004,11.415,40.006,12.228,40.01,13.042z"/>
		<path fill="#010101" d="M40.01,13.042c-0.004-0.813-0.006-1.627-0.01-2.439c3.977-1.629,7.953-3.257,11.96-4.896
			c0,0.835,0,1.636,0,2.469c-0.442,0.182-0.897,0.372-1.353,0.559c-3.424,1.401-6.846,2.803-10.268,4.204
			C40.234,12.98,40.132,13.042,40.01,13.042z"/>
		<path fill="#010101" d="M39.992,17.531c0.871-0.352,1.742-0.7,2.613-1.056c1.129-0.461,2.258-0.93,3.387-1.393
			c1.587-0.65,3.176-1.297,4.762-1.946c0.333-0.136,0.664-0.271,0.996-0.408c0.063-0.025,0.117-0.07,0.191-0.034
			c0.054,0.077,0.031,0.167,0.031,0.253c0.002,0.631-0.009,1.264,0.006,1.895c0.006,0.197-0.055,0.296-0.235,0.369
			c-1.091,0.435-2.175,0.878-3.259,1.322c-1.694,0.694-3.387,1.394-5.08,2.089c-1.084,0.446-2.17,0.89-3.256,1.332
			c-0.042,0.019-0.094,0.013-0.143,0.021C40.002,19.158,39.997,18.345,39.992,17.531z"/>
		<path fill="#010101" d="M39.998,16.521c0-0.813,0-1.626,0-2.438c0.813-0.334,1.631-0.67,2.445-1.005
			c1.703-0.7,3.404-1.4,5.104-2.1c1.409-0.579,2.813-1.156,4.224-1.731c0.054-0.022,0.11-0.032,0.203-0.058c0,0.237,0,0.456,0,0.675
			c0,0.496-0.018,0.992,0.006,1.487c0.013,0.25-0.11,0.338-0.305,0.417c-1.06,0.429-2.117,0.864-3.175,1.296
			c-1.597,0.653-3.192,1.305-4.789,1.958c-1.202,0.492-2.401,0.987-3.603,1.478C40.076,16.515,40.035,16.515,39.998,16.521z"/>
		<path fill="#010101" d="M39.992,17.531c0.005,0.813,0.01,1.627,0.014,2.441c-0.041,0.002-0.079,0.008-0.118,0.012
			c-0.022-0.051-0.069-0.062-0.114-0.079c-1.605-0.657-3.213-1.317-4.817-1.976c-1.923-0.787-3.841-1.577-5.764-2.358
			c-0.384-0.155-0.752-0.348-1.161-0.445c0-0.814,0-1.629,0-2.49C32.037,14.276,36.017,15.903,39.992,17.531z"/>
		<path fill="#010101" d="M0.722,22.658c0,0.872,0,1.711,0,2.557c1.254,0,2.494,0,3.738,0c0.021-0.06,0.012-0.117,0.012-0.175
			c0-0.729,0-1.459,0-2.188c0-0.193,0.002-0.193,0.195-0.193c0.134-0.001,0.269,0.002,0.401-0.002
			c0.091-0.002,0.133,0.033,0.128,0.123c0,0.035,0,0.07,0,0.104c0,2.021,0,4.042,0,6.062c0,0.041,0,0.084,0,0.125
			c0,0.07-0.033,0.109-0.105,0.109c-0.17,0-0.339,0-0.507,0c-0.073,0-0.11-0.035-0.112-0.105c0-0.041,0-0.082,0-0.124
			c0-0.929,0-1.856,0-2.786c0-0.063,0-0.126,0-0.198c-1.25,0-2.49,0-3.734,0c-0.033,0.06-0.016,0.125-0.016,0.187
			c-0.003,0.94,0,1.881,0,2.82c0,0.207-0.003,0.207-0.199,0.207c-0.125,0.002-0.246-0.003-0.37,0.002
			c-0.104,0.004-0.155-0.029-0.146-0.14c0.002-0.035,0-0.069,0-0.104c0-2.015,0-4.029,0-6.045c0-0.045,0-0.093,0-0.14
			c0-0.054,0.021-0.092,0.08-0.092C0.29,22.658,0.491,22.658,0.722,22.658z"/>
		<path fill="#010101" d="M65.027,25.212c0-0.476,0-0.937,0-1.397c0-0.338,0.004-0.676-0.002-1.016
			c-0.002-0.107,0.035-0.146,0.143-0.141c0.182,0.009,0.359-0.01,0.533,0.01c0.056,0.055,0.037,0.117,0.037,0.173
			c0,2.05,0,4.101,0,6.149c0,0.185-0.004,0.188-0.184,0.189c-0.13,0-0.258-0.004-0.388,0c-0.106,0.004-0.144-0.041-0.142-0.146
			c0.004-0.239,0.002-0.479,0.002-0.718c0-0.719,0-1.438,0-2.155c0-0.063,0.01-0.126-0.016-0.197c-1.236,0-2.474,0-3.716,0
			c-0.042,0.054-0.021,0.12-0.021,0.183c-0.002,0.938-0.002,1.879-0.002,2.82c0,0.211,0,0.213-0.215,0.213
			c-0.127,0-0.254-0.002-0.384,0c-0.09,0.002-0.13-0.041-0.128-0.129c0.003-0.033,0-0.068,0-0.105c0-2.021,0-4.041,0-6.062
			c0-0.04,0-0.082,0.003-0.122c0.002-0.072,0.039-0.104,0.111-0.104c0.168,0.001,0.339,0,0.505,0c0.077,0,0.107,0.037,0.105,0.107
			c0,0.041,0.002,0.082,0.002,0.123c0,0.706,0,1.414,0,2.12c0,0.063,0,0.127,0,0.202C62.525,25.212,63.77,25.212,65.027,25.212z"/>
		<path fill="#010101" d="M30.361,29.184c-0.176,0-0.345,0-0.513,0c-0.105,0-0.15-0.08-0.202-0.148
			c-0.456-0.6-0.91-1.199-1.364-1.799c-0.584-0.768-1.163-1.534-1.748-2.301c-0.029-0.039-0.046-0.095-0.122-0.111
			c0,1.449,0,2.893,0,4.351c-0.193,0.017-0.372,0.009-0.548,0.005c-0.046-0.13-0.055-5.123-0.013-5.326
			c0.177-0.026,0.357-0.014,0.536-0.011c0.095,0.001,0.135,0.082,0.186,0.147c0.986,1.302,1.973,2.604,2.961,3.904
			c0.076,0.102,0.156,0.201,0.262,0.295c0-1.44,0-2.883,0-4.338c0.199-0.021,0.377-0.011,0.554-0.01
			C30.397,23.968,30.411,28.96,30.361,29.184z"/>
		<path fill="#010101" d="M38.381,22.657c-0.088,0.235-0.162,0.43-0.239,0.623c-0.741,1.903-1.484,3.806-2.227,5.71
			c-0.073,0.188-0.075,0.188-0.273,0.189c-0.111,0-0.224-0.011-0.332,0.002c-0.139,0.016-0.197-0.049-0.243-0.168
			c-0.339-0.892-0.686-1.781-1.031-2.671c-0.449-1.155-0.9-2.31-1.35-3.466c-0.021-0.059-0.059-0.113-0.044-0.193
			c0.104-0.05,0.221-0.021,0.334-0.022c0.133-0.001,0.289-0.05,0.392,0.022c0.108,0.072,0.115,0.234,0.163,0.358
			c0.628,1.635,1.253,3.272,1.88,4.908c0.02,0.053,0.03,0.11,0.087,0.167c0.021-0.051,0.041-0.094,0.06-0.139
			c0.654-1.707,1.31-3.414,1.966-5.119c0.096-0.248,0.07-0.198,0.299-0.201C37.995,22.656,38.171,22.657,38.381,22.657z"/>
		<path fill="#010101" d="M9.999,23.845c0.186-0.007,0.368-0.016,0.543,0.005c0.033,0.065,0.023,0.119,0.023,0.17
			c0,0.94,0.001,1.881-0.002,2.82c0,0.461-0.085,0.906-0.307,1.315c-0.385,0.711-0.996,1.073-1.792,1.132
			c-0.608,0.044-1.171-0.098-1.648-0.497c-0.452-0.378-0.677-0.879-0.769-1.45c-0.03-0.167-0.041-0.336-0.041-0.506
			c0.002-0.939,0-1.88,0-2.82c0-0.051-0.011-0.104,0.027-0.166c0.175-0.015,0.357-0.015,0.532,0c0.049,0.073,0.03,0.139,0.03,0.202
			c0.004,0.939,0,1.88,0.009,2.82c0.002,0.366,0.09,0.719,0.285,1.034c0.38,0.623,0.958,0.845,1.661,0.75
			c0.675-0.092,1.093-0.506,1.305-1.139c0.074-0.223,0.112-0.453,0.112-0.688c0.003-0.923,0.005-1.845,0.007-2.769
			C9.976,23.998,9.962,23.934,9.999,23.845z"/>
		<path fill="#010101" d="M50.673,25.945c0.628,0,1.248,0,1.884,0c0.039,0.185,0.029,0.363,0.01,0.539
			c-0.008,0.086-0.103,0.059-0.162,0.06c-0.508,0.001-1.014,0.001-1.522,0.001c-0.063,0-0.127,0-0.204,0c0,0.682,0,1.354,0,2.034
			c0.059,0.026,0.123,0.013,0.186,0.013c0.783,0.001,1.564,0.001,2.349,0.001c0.208,0,0.208,0,0.205,0.214
			c-0.002,0.121,0.024,0.245-0.022,0.37c-1.099,0-2.192,0-3.302,0c0-1.774,0-3.54,0-5.321c1.023,0,2.044,0,3.081,0
			c0,0.182,0,0.36,0,0.562c-0.828,0-1.658,0-2.499,0C50.673,24.932,50.673,25.426,50.673,25.945z"/>
		<path fill="#010101" d="M16.212,28.188c0.16-0.119,0.301-0.254,0.478-0.357c0.083,0.135,0.135,0.26,0.212,0.369
			c0.298,0.417,0.79,0.587,1.249,0.421c0.367-0.134,0.573-0.412,0.643-0.787c0.068-0.354-0.053-0.642-0.332-0.866
			c-0.202-0.162-0.427-0.281-0.654-0.4c-0.296-0.153-0.595-0.297-0.864-0.493c-0.281-0.204-0.504-0.454-0.562-0.813
			c-0.077-0.533,0.11-0.966,0.544-1.279c0.699-0.502,1.746-0.234,2.131,0.547c-0.116,0.109-0.257,0.19-0.386,0.289
			c-0.058,0.041-0.106,0.029-0.15-0.027c-0.072-0.094-0.148-0.18-0.241-0.253c-0.225-0.177-0.478-0.239-0.757-0.157
			c-0.257,0.077-0.408,0.262-0.464,0.52c-0.056,0.254,0.042,0.455,0.243,0.612c0.182,0.14,0.385,0.241,0.588,0.345
			c0.296,0.15,0.597,0.291,0.868,0.483c0.345,0.243,0.604,0.546,0.697,0.972c0.205,0.931-0.529,1.912-1.479,1.978
			c-0.784,0.055-1.406-0.302-1.717-0.981C16.241,28.27,16.228,28.23,16.212,28.188z"/>
		<path fill="#010101" d="M74.941,24.53c-0.121,0.088-0.236,0.165-0.346,0.254c-0.095,0.075-0.16,0.065-0.232-0.032
			c-0.147-0.197-0.332-0.341-0.578-0.393c-0.408-0.086-0.76,0.146-0.85,0.553c-0.043,0.188,0.004,0.346,0.127,0.486
			c0.131,0.146,0.301,0.24,0.467,0.334c0.312,0.17,0.642,0.311,0.943,0.5c0.115,0.07,0.225,0.146,0.327,0.232
			c0.718,0.59,0.698,1.498,0.255,2.123c-0.742,1.047-2.332,0.915-2.896-0.234c-0.079-0.158-0.081-0.16,0.063-0.27
			c0.111-0.082,0.205-0.188,0.334-0.241c0.071,0.056,0.086,0.127,0.119,0.188c0.24,0.436,0.592,0.679,1.11,0.638
			c0.448-0.035,0.813-0.381,0.886-0.831c0.059-0.364-0.057-0.651-0.344-0.879c-0.196-0.157-0.416-0.274-0.643-0.39
			c-0.301-0.156-0.604-0.303-0.877-0.506c-0.24-0.178-0.437-0.388-0.524-0.683c-0.204-0.696,0.266-1.456,1.012-1.622
			C73.945,23.613,74.615,23.922,74.941,24.53z"/>
		<path fill="#010101" d="M75.752,24.428c-0.043-0.07-0.035-0.111-0.035-0.152c-0.001-0.133-0.001-0.267-0.001-0.39
			c0.063-0.069,0.132-0.05,0.193-0.051c1.297-0.001,2.593-0.001,3.891-0.001c0.191,0,0.191,0.001,0.193,0.193
			c0,0.123,0,0.244,0,0.388c-0.613,0-1.212,0-1.834,0c0,1.595,0,3.167,0,4.75c-0.19,0.035-0.358,0.015-0.526,0.017
			c-0.058,0.002-0.078-0.037-0.081-0.091c-0.003-0.046-0.003-0.093-0.003-0.141c0-1.437,0-2.873,0-4.31
			c0-0.064,0.01-0.129-0.018-0.213C76.939,24.428,76.343,24.428,75.752,24.428z"/>
		<path fill="#010101" d="M55.775,29.184c-0.051-0.084-0.032-0.15-0.032-0.213c0-0.799-0.005-1.599,0.002-2.397
			c0.002-0.125-0.032-0.22-0.11-0.317c-0.589-0.738-1.173-1.482-1.756-2.226c-0.038-0.05-0.092-0.089-0.105-0.185
			c0.227-0.012,0.449-0.014,0.675,0.004c0.077,0.004,0.11,0.076,0.153,0.131c0.435,0.564,0.867,1.127,1.305,1.691
			c0.039,0.051,0.078,0.1,0.13,0.162c0.198-0.255,0.394-0.501,0.583-0.748c0.291-0.373,0.583-0.743,0.869-1.119
			c0.07-0.095,0.15-0.136,0.268-0.129c0.178,0.012,0.357-0.013,0.535,0.014c0.02,0.073-0.038,0.103-0.064,0.141
			c-0.599,0.761-1.197,1.521-1.799,2.281c-0.066,0.082-0.097,0.162-0.097,0.269c0.006,0.817,0.004,1.634,0.004,2.452
			c0,0.189,0,0.189-0.194,0.189C56.018,29.184,55.896,29.184,55.775,29.184z"/>
		<path fill="#010101" d="M49.548,28.591c0.025,0.2,0.017,0.384,0.009,0.581c-1.037,0-2.06,0-3.094,0c0-1.773,0-3.54,0-5.322
			c0.186-0.02,0.369-0.009,0.571-0.006c0,1.584,0,3.158,0,4.748C47.881,28.591,48.71,28.591,49.548,28.591z"/>
		<path fill="#010101" d="M42.839,29.171c0-1.769,0-3.535,0-5.321c0.185-0.014,0.367-0.009,0.568-0.002c0,1.582,0,3.155,0,4.744
			c0.845,0,1.672,0,2.511,0c0.025,0.199,0.009,0.383,0.014,0.579C44.896,29.171,43.871,29.171,42.839,29.171z"/>
		<path fill="#010101" d="M22.597,23.723c-1.554-0.005-2.831,1.248-2.834,2.782c-0.004,1.533,1.264,2.787,2.818,2.789
			c1.561,0.002,2.83-1.243,2.837-2.776C25.421,24.988,24.147,23.727,22.597,23.723z M22.581,28.68
			c-1.187-0.007-2.146-0.981-2.141-2.177c0.006-1.205,0.971-2.163,2.175-2.157c1.173,0.006,2.122,0.985,2.113,2.182
			C24.723,27.716,23.757,28.686,22.581,28.68z"/>
		<path fill="#010101" d="M68.956,23.723c-1.547,0.008-2.817,1.283-2.797,2.816c0.021,1.613,1.38,2.771,2.854,2.758
			c1.445-0.013,2.783-1.17,2.799-2.797C71.788,24.926,70.512,23.713,68.956,23.723z M68.982,28.677
			c-1.189,0.009-2.146-0.973-2.146-2.169c0.002-1.199,0.96-2.162,2.151-2.162c1.184,0.002,2.141,0.975,2.139,2.178
			C71.124,27.632,70.259,28.669,68.982,28.677z"/>
		<path fill="#010101" d="M15.759,25.928c-0.229-1.063-1.132-1.947-2.42-2.066c-0.633-0.059-1.272-0.014-1.908-0.021
			c-0.028,0-0.057,0.007-0.083,0.038c0,1.754,0,3.514,0,5.273c0.063,0.041,0.11,0.031,0.157,0.031c0.506,0,1.013,0,1.521,0
			c0.271,0,0.536-0.039,0.798-0.106C15.229,28.708,16.063,27.35,15.759,25.928z M15.133,26.671c-0.099,1.106-0.94,1.896-2.054,1.918
			c-0.378,0.007-0.755,0.001-1.141,0.001c0-1.39,0-2.765,0-4.142c0.008-0.007,0.016-0.021,0.025-0.021
			c0.442,0.003,0.886-0.024,1.329,0.021C14.413,24.563,15.233,25.551,15.133,26.671z"/>
		<path fill="#010101" d="M41.988,28.999c-0.643-1.599-1.29-3.194-1.937-4.792c-0.15-0.369-0.151-0.369-0.539-0.368
			c-0.19,0-0.19,0-0.262,0.179c-0.666,1.658-1.337,3.315-2.004,4.975c-0.021,0.052-0.063,0.101-0.038,0.173
			c0.078,0.035,0.167,0.017,0.25,0.017c0.352,0.002,0.352,0,0.482-0.318c0.147-0.372,0.3-0.742,0.45-1.114c0.818,0,1.624,0,2.44,0
			c0.017,0.04,0.034,0.082,0.052,0.124c0.162,0.393,0.322,0.786,0.485,1.179c0.024,0.058,0.036,0.13,0.12,0.13
			c0.18,0.002,0.357,0,0.529,0C42.057,29.1,42.012,29.049,41.988,28.999z M38.633,27.148c0.327-0.825,0.646-1.642,0.979-2.5
			c0.338,0.853,0.66,1.67,0.99,2.5C39.941,27.148,39.296,27.148,38.633,27.148z"/>
	</g>
</g>
</svg>
