<?xml version="1.0" encoding="utf-8"?>
<!-- Generator: Adobe Illustrator 16.0.0, SVG Export Plug-In . SVG Version: 6.00 Build 0)  -->
<!DOCTYPE svg PUBLIC "-//W3C//DTD SVG 1.0//EN" "http://www.w3.org/TR/2001/REC-SVG-20010904/DTD/svg10.dtd">
<svg version="1.0" id="Layer_1" xmlns="http://www.w3.org/2000/svg" xmlns:xlink="http://www.w3.org/1999/xlink" x="0px" y="0px"
	 width="30px" height="30px" viewBox="0 0 30 30" enable-background="new 0 0 30 30" xml:space="preserve">
<path fill="#FFFFFF" d="M29.986,15.002c0-7.943-6.217-14.446-14.037-14.939C15.625,0.03,15.301,0,14.972,0h-0.004l0,0h-0.006
	c-0.402,0-0.799,0.027-1.193,0.077C6.081,0.707,0.013,7.154,0.013,15.002c0,7.848,6.068,14.295,13.756,14.925
	c0.395,0.05,0.791,0.077,1.193,0.077h0.006l0,0h0.004c0.329,0,0.653-0.029,0.978-0.063C23.77,29.449,29.986,22.945,29.986,15.002z
	 M1.139,15.564h2.007c0.065,2.293,0.536,4.457,1.33,6.377h-1.49C1.889,20.05,1.232,17.882,1.139,15.564z M28.855,14.439H26.79
	c-0.065-2.292-0.535-4.456-1.33-6.375h1.552C28.107,9.955,28.766,12.124,28.855,14.439z M25.675,14.439h-3.012
	c-0.042-2.307-0.336-4.466-0.838-6.375h2.425C25.096,9.955,25.602,12.124,25.675,14.439z M14.972,28.891h-0.007
	c-0.536-0.008-1.392-2.025-1.937-5.824h3.881C16.361,26.866,15.505,28.884,14.972,28.891z M12.881,21.941
	c-0.211-1.797-0.347-3.931-0.368-6.377h4.91c-0.021,2.446-0.157,4.58-0.366,6.377H12.881z M12.513,14.439
	c0.021-2.446,0.157-4.58,0.368-6.375h4.176c0.209,1.796,0.346,3.93,0.366,6.375H12.513z M13.028,6.938
	c0.545-3.798,1.4-5.816,1.937-5.824h0.007c0.533,0.006,1.391,2.024,1.938,5.824H13.028z M16.738,1.658
	c1.432,0.875,2.682,2.774,3.552,5.281h-2.263C17.746,4.864,17.329,2.949,16.738,1.658z M13.198,1.658
	c-0.59,1.291-1.008,3.207-1.289,5.281H9.647C10.516,4.431,11.765,2.533,13.198,1.658z M11.77,8.064
	c-0.246,2.23-0.352,4.53-0.371,6.375H8.385c0.049-2.301,0.374-4.474,0.911-6.375H11.77z M11.398,15.564
	c0.02,1.847,0.125,4.146,0.371,6.377H9.296c-0.537-1.902-0.862-4.075-0.911-6.377H11.398z M11.909,23.066
	c0.281,2.074,0.699,3.99,1.289,5.281c-1.434-0.875-2.683-2.774-3.551-5.281H11.909z M16.738,28.348
	c0.591-1.291,1.008-3.207,1.289-5.281h2.263C19.42,25.573,18.17,27.473,16.738,28.348z M18.168,21.941
	c0.246-2.23,0.35-4.53,0.37-6.377h3.01c-0.046,2.302-0.371,4.475-0.907,6.377H18.168z M18.538,14.439
	c-0.021-1.845-0.124-4.146-0.37-6.375h2.473c0.536,1.901,0.861,4.075,0.907,6.375H18.538z M21.497,6.938
	c-0.64-1.976-1.507-3.623-2.538-4.819c1.908,0.995,3.545,2.681,4.727,4.819H21.497z M10.978,2.122
	c-1.032,1.195-1.9,2.841-2.538,4.816H6.25C7.433,4.803,9.066,3.117,10.978,2.122z M8.11,8.064c-0.504,1.91-0.796,4.068-0.841,6.375
	H4.261c0.07-2.316,0.58-4.485,1.428-6.375H8.11z M3.146,14.439H1.139c0.094-2.316,0.75-4.485,1.848-6.375h1.489
	C3.682,9.983,3.211,12.147,3.146,14.439z M4.261,15.564H7.27c0.045,2.309,0.337,4.467,0.841,6.377H5.688
	C4.841,20.05,4.331,17.882,4.261,15.564z M8.439,23.066c0.638,1.976,1.506,3.621,2.538,4.815c-1.911-0.995-3.545-2.681-4.728-4.815
	H8.439z M18.959,27.885c1.031-1.195,1.898-2.843,2.538-4.818h2.188C22.504,25.204,20.867,26.891,18.959,27.885z M21.825,21.941
	c0.502-1.91,0.796-4.068,0.838-6.377h3.012c-0.073,2.317-0.579,4.485-1.425,6.377H21.825z M26.79,15.564h2.065
	c-0.092,2.317-0.748,4.485-1.844,6.377H25.46C26.255,20.021,26.725,17.857,26.79,15.564z M26.283,6.938h-1.342
	c-0.735-1.453-1.662-2.73-2.735-3.786C23.811,4.131,25.193,5.418,26.283,6.938z M7.622,3.256C6.594,4.29,5.706,5.534,4.997,6.938
	H3.714C4.766,5.473,6.093,4.221,7.622,3.256z M3.714,23.066h1.283c0.709,1.403,1.597,2.647,2.625,3.682
	C6.093,25.784,4.766,24.532,3.714,23.066z M22.206,26.852c1.073-1.055,2-2.332,2.735-3.785h1.342
	C25.193,24.587,23.811,25.874,22.206,26.852z"/>
</svg>
