<?xml version="1.0" encoding="utf-8"?>
<!-- Generator: Adobe Illustrator 16.0.0, SVG Export Plug-In . SVG Version: 6.00 Build 0)  -->
<!DOCTYPE svg PUBLIC "-//W3C//DTD SVG 1.0//EN" "http://www.w3.org/TR/2001/REC-SVG-20010904/DTD/svg10.dtd">
<svg version="1.0" xmlns="http://www.w3.org/2000/svg" xmlns:xlink="http://www.w3.org/1999/xlink" x="0px" y="0px" width="30px"
	 height="30px" viewBox="0 0 30 30" enable-background="new 0 0 30 30" xml:space="preserve">
<g id="header_x5F_icons">
	<rect y="-0.014" display="none" fill="#323232" width="30.014" height="30.027"/>
	<polygon display="none" fill="#F4A642" points="7.497,-0.004 7.497,30.004 22.502,15 	"/>
	<polygon display="none" fill="#FFFFFF" points="7.497,-0.004 7.497,30.004 22.502,15 	"/>
	<polygon display="none" fill="#010101" points="7.497,-0.004 7.497,30.004 22.502,15 	"/>
	<g display="none">
		<path display="inline" fill="#F4A642" d="M21,16.5V30h9V16.5H21z M27.35,24.629c-0.111,0.204-0.264,0.378-0.463,0.523
			c-0.197,0.144-0.436,0.253-0.707,0.329c-0.273,0.074-0.571,0.112-0.895,0.112c-0.625,0-1.097-0.087-1.414-0.262
			c-0.318-0.173-0.477-0.396-0.477-0.665c0-0.163,0.039-0.302,0.117-0.419c0.077-0.117,0.173-0.208,0.288-0.274
			c0.118,0.084,0.28,0.173,0.48,0.266c0.201,0.093,0.464,0.139,0.786,0.139c0.309,0,0.533-0.054,0.681-0.162
			c0.147-0.109,0.221-0.25,0.221-0.423c0-0.174-0.058-0.306-0.175-0.396c-0.117-0.09-0.32-0.135-0.608-0.135h-0.846
			c-0.04-0.066-0.077-0.147-0.108-0.243c-0.029-0.097-0.045-0.21-0.045-0.343c0-0.137,0.014-0.257,0.04-0.356
			c0.028-0.098,0.065-0.18,0.113-0.247h0.846c0.433,0,0.647-0.165,0.647-0.495c0-0.156-0.068-0.282-0.205-0.378
			c-0.139-0.096-0.347-0.144-0.621-0.144c-0.246,0-0.463,0.029-0.648,0.085c-0.188,0.058-0.34,0.128-0.46,0.211
			c-0.103-0.072-0.185-0.16-0.251-0.265s-0.098-0.229-0.098-0.374c0-0.3,0.154-0.521,0.465-0.661
			c0.313-0.142,0.73-0.212,1.252-0.212c0.69,0,1.215,0.143,1.574,0.427c0.361,0.286,0.541,0.668,0.541,1.148
			c0,0.288-0.076,0.533-0.23,0.733c-0.15,0.202-0.334,0.353-0.543,0.455c0.126,0.048,0.242,0.108,0.35,0.18
			c0.109,0.072,0.205,0.162,0.289,0.27c0.084,0.108,0.15,0.234,0.198,0.377c0.048,0.145,0.071,0.313,0.071,0.504
			C27.516,24.195,27.46,24.426,27.35,24.629z"/>
		<path display="inline" fill="#F4A642" d="M10.5,7.5V30h9V7.5H10.5z M16.89,16.309c-0.096,0.093-0.222,0.14-0.377,0.14h-3.124
			c-0.132-0.09-0.234-0.206-0.31-0.346c-0.075-0.141-0.112-0.307-0.112-0.5c0-0.204,0.042-0.376,0.126-0.517
			c0.083-0.142,0.177-0.254,0.278-0.338l1.242-1.062c0.156-0.132,0.284-0.25,0.387-0.355c0.102-0.105,0.186-0.2,0.25-0.283
			c0.061-0.084,0.105-0.163,0.133-0.234c0.027-0.072,0.04-0.141,0.04-0.208c0-0.167-0.073-0.3-0.222-0.396
			c-0.145-0.096-0.326-0.144-0.542-0.144c-0.241,0-0.456,0.038-0.644,0.113c-0.189,0.075-0.348,0.154-0.473,0.238
			c-0.103-0.072-0.186-0.163-0.253-0.27c-0.065-0.107-0.099-0.234-0.099-0.377c0-0.313,0.146-0.544,0.44-0.699
			c0.294-0.153,0.69-0.229,1.188-0.229c0.343,0,0.645,0.044,0.91,0.131c0.264,0.086,0.488,0.206,0.675,0.355
			c0.185,0.15,0.327,0.327,0.423,0.531c0.095,0.205,0.143,0.423,0.143,0.657c0,0.63-0.355,1.23-1.07,1.8l-1.18,0.945h2.16
			c0.037,0.066,0.07,0.15,0.105,0.253c0.031,0.102,0.049,0.212,0.049,0.332C17.035,16.062,16.986,16.217,16.89,16.309z"/>
		<path display="inline" fill="#F4A642" d="M0,0v30h9V0H0z M5.656,8.94C5.591,8.952,5.492,8.969,5.363,8.989
			C5.234,9.011,5.105,9.021,4.973,9.021c-0.132,0-0.251-0.009-0.355-0.027C4.512,8.976,4.424,8.94,4.35,8.886
			C4.28,8.832,4.225,8.759,4.185,8.666C4.146,8.573,4.127,8.451,4.127,8.301V4.935l-0.901,0.28C3.137,5.154,3.047,5.07,2.957,4.962
			c-0.092-0.109-0.135-0.258-0.135-0.45c0-0.36,0.219-0.612,0.656-0.756l1.008-0.341h0.332c0.259,0,0.463,0.074,0.613,0.225
			S5.656,3.993,5.656,4.25V8.94z"/>
	</g>
	<path display="none" d="M30,30H2.689V0H30V30z M5.418,27.272h21.854V2.728H5.418V27.272z"/>
	<rect display="none" fill="none" stroke="#000000" stroke-width="4" stroke-miterlimit="10" width="30" height="30"/>
	<g display="none">
		<polygon display="inline" points="14.165,11.431 14.165,18.48 17.689,14.955 		"/>
		<path display="inline" d="M30,30H7.108V0H30V30z M10.638,26.471h15.833V3.529H10.638V26.471z"/>
		<rect x="3.529" y="13.236" display="inline" width="10.971" height="3.529"/>
	</g>
	<rect y="-0.004" display="none" fill="#EB1C24" width="3.529" height="30"/>
	<rect x="10.635" y="0.001" display="none" fill="#EB1C24" width="3.53" height="30"/>
	<rect x="-15.835" y="11.471" display="none" fill="#EB1C24" width="30" height="3.529"/>
	<rect x="-15.835" y="16.715" display="none" fill="#EB1C24" width="30" height="3.529"/>
	<rect x="-15.835" y="9.667" display="none" fill="#EB1C24" width="30" height="3.529"/>
	<g display="none">
		<polygon display="inline" fill="#F4A642" points="14.165,18.48 17.689,14.955 14.165,11.431 14.165,13.236 3.529,13.236 
			3.529,16.765 14.165,16.765 		"/>
		<polygon display="inline" fill="#FFFFFF" points="7.108,0 7.108,11.431 10.638,11.431 10.638,3.529 26.471,3.529 26.471,26.471 
			10.638,26.471 10.638,18.53 7.108,18.53 7.108,30 30,30 30,0 		"/>
	</g>
	<g display="none">
		<polygon display="inline" fill="#FFFFFF" points="14.165,18.48 17.689,14.955 14.165,11.431 14.165,13.236 3.529,13.236 
			3.529,16.765 14.165,16.765 		"/>
		<polygon display="inline" points="7.108,0 7.108,11.431 10.638,11.431 10.638,3.529 26.471,3.529 26.471,26.471 10.638,26.471 
			10.638,18.53 7.108,18.53 7.108,30 30,30 30,0 		"/>
	</g>
	<g display="none">
		<polygon display="inline" fill="#F4A642" points="14.165,18.48 17.689,14.955 14.165,11.431 14.165,13.236 3.529,13.236 
			3.529,16.765 14.165,16.765 		"/>
		<polygon display="inline" fill="#F4A642" points="7.108,0 7.108,11.431 10.638,11.431 10.638,3.529 26.471,3.529 26.471,26.471 
			10.638,26.471 10.638,18.53 7.108,18.53 7.108,30 30,30 30,0 		"/>
	</g>
	<g display="none">
		<circle display="inline" fill="#010101" cx="15" cy="30.027" r="15.014"/>
		<circle display="inline" fill="#010101" cx="14.999" cy="7.507" r="7.507"/>
	</g>
	<g display="none">
		
			<rect x="17.034" y="13.249" display="inline" stroke="#FFFFFF" stroke-width="3" stroke-miterlimit="10" width="10.971" height="3.529"/>
		
			<rect x="20.755" y="9.528" display="inline" stroke="#FFFFFF" stroke-width="3" stroke-miterlimit="10" width="3.528" height="10.971"/>
	</g>
	<g display="none">
		<rect x="17.034" y="13.249" display="inline" width="10.971" height="3.529"/>
		<rect x="20.755" y="9.528" display="inline" width="3.528" height="10.971"/>
	</g>
	<g display="none">
		<polygon display="inline" fill="#F4A642" points="27.99,13.222 24.27,13.222 24.27,9.501 20.74,9.501 20.74,13.222 17.02,13.222 
			17.02,16.751 20.74,16.751 20.74,20.472 24.27,20.472 24.27,16.751 27.99,16.751 		"/>
		<path display="inline" fill="#F4A642" d="M15.52,11.735h3.721V8.015h3.238c0.012-0.173,0.027-0.346,0.027-0.521
			c0-4.146-3.361-7.507-7.506-7.507c-4.146,0-7.508,3.361-7.508,7.507C7.492,11.639,10.854,15,15,15c0.176,0,0.348-0.015,0.52-0.026
			V11.735z"/>
		<path display="inline" fill="#F4A642" d="M30.014,30.014L30.014,30.014c0-4.063-1.621-7.743-4.244-10.446v2.404H19.24v-3.721
			H15.52v-3.225C15.346,15.021,15.176,15,15,15C6.709,15-0.014,21.722-0.014,30.013v0H30.014z"/>
	</g>
	<g display="none">
		<polygon display="inline" fill="#FFFFFF" points="27.99,13.222 24.27,13.222 24.27,9.501 20.74,9.501 20.74,13.222 17.02,13.222 
			17.02,16.751 20.74,16.751 20.74,20.472 24.27,20.472 24.27,16.751 27.99,16.751 		"/>
		<path display="inline" fill="#010101" d="M15.52,11.735h3.721V8.015h3.238c0.012-0.173,0.027-0.346,0.027-0.521
			c0-4.146-3.361-7.507-7.506-7.507c-4.146,0-7.508,3.361-7.508,7.507C7.492,11.639,10.854,15,15,15c0.176,0,0.348-0.015,0.52-0.026
			V11.735z"/>
		<path display="inline" fill="#010101" d="M30.014,30.014L30.014,30.014c0-4.063-1.621-7.743-4.244-10.446v2.404H19.24v-3.721
			H15.52v-3.225C15.346,15.021,15.176,15,15,15C6.709,15-0.014,21.722-0.014,30.013v0H30.014z"/>
	</g>
	<g display="none">
		<polygon display="inline" fill="#F4A642" points="27.99,13.222 24.27,13.222 24.27,9.501 20.74,9.501 20.74,13.222 17.02,13.222 
			17.02,16.751 20.74,16.751 20.74,20.472 24.27,20.472 24.27,16.751 27.99,16.751 		"/>
		<path display="inline" fill="#FFFFFF" d="M15.52,11.735h3.721V8.015h3.238c0.012-0.173,0.027-0.346,0.027-0.521
			c0-4.146-3.361-7.507-7.506-7.507c-4.146,0-7.508,3.361-7.508,7.507C7.492,11.639,10.854,15,15,15c0.176,0,0.348-0.015,0.52-0.026
			V11.735z"/>
		<path display="inline" fill="#FFFFFF" d="M30.014,30.014L30.014,30.014c0-4.063-1.621-7.743-4.244-10.446v2.404H19.24v-3.721
			H15.52v-3.225C15.346,15.021,15.176,15,15,15C6.709,15-0.014,21.722-0.014,30.013v0H30.014z"/>
	</g>
	<g display="none">
		<rect x="1.377" y="1.875" display="inline" fill="#F4A642" width="6.416" height="9.417"/>
		<rect x="11.799" y="9.042" display="inline" fill="#F4A642" width="6.416" height="9.417"/>
		<rect x="21.834" y="17.917" display="inline" fill="#F4A642" width="6.416" height="9.417"/>
		<g display="inline">
			<path fill="#FFFFFF" d="M21,16.5V30h9V16.5H21z M27.35,24.629c-0.111,0.204-0.264,0.378-0.463,0.523
				c-0.197,0.144-0.436,0.253-0.707,0.329c-0.273,0.074-0.571,0.112-0.895,0.112c-0.625,0-1.097-0.087-1.414-0.262
				c-0.318-0.173-0.477-0.396-0.477-0.665c0-0.163,0.039-0.302,0.117-0.419c0.077-0.117,0.173-0.208,0.288-0.274
				c0.118,0.084,0.28,0.173,0.48,0.266c0.201,0.093,0.464,0.139,0.786,0.139c0.309,0,0.533-0.054,0.681-0.162
				c0.147-0.109,0.221-0.25,0.221-0.423c0-0.174-0.058-0.306-0.175-0.396c-0.117-0.09-0.32-0.135-0.608-0.135h-0.846
				c-0.04-0.066-0.077-0.147-0.108-0.243c-0.029-0.097-0.045-0.21-0.045-0.343c0-0.137,0.014-0.257,0.04-0.356
				c0.028-0.098,0.065-0.18,0.113-0.247h0.846c0.433,0,0.647-0.165,0.647-0.495c0-0.156-0.068-0.282-0.205-0.378
				c-0.139-0.096-0.347-0.144-0.621-0.144c-0.246,0-0.463,0.029-0.648,0.085c-0.188,0.058-0.34,0.128-0.46,0.211
				c-0.103-0.072-0.185-0.16-0.251-0.265s-0.098-0.229-0.098-0.374c0-0.3,0.154-0.521,0.465-0.661
				c0.313-0.142,0.73-0.212,1.252-0.212c0.69,0,1.215,0.143,1.574,0.427c0.361,0.286,0.541,0.668,0.541,1.148
				c0,0.288-0.076,0.533-0.23,0.733c-0.15,0.202-0.334,0.353-0.543,0.455c0.126,0.048,0.242,0.108,0.35,0.18
				c0.109,0.072,0.205,0.162,0.289,0.27c0.084,0.108,0.15,0.234,0.198,0.377c0.048,0.145,0.071,0.313,0.071,0.504
				C27.516,24.195,27.46,24.426,27.35,24.629z"/>
			<path fill="#FFFFFF" d="M10.5,7.5V30h9V7.5H10.5z M16.89,16.309c-0.096,0.093-0.222,0.14-0.377,0.14h-3.124
				c-0.132-0.09-0.234-0.206-0.31-0.346c-0.075-0.141-0.112-0.307-0.112-0.5c0-0.204,0.042-0.376,0.126-0.517
				c0.083-0.142,0.177-0.254,0.278-0.338l1.242-1.062c0.156-0.132,0.284-0.25,0.387-0.355c0.102-0.105,0.186-0.2,0.25-0.283
				c0.061-0.084,0.105-0.163,0.133-0.234c0.027-0.072,0.04-0.141,0.04-0.208c0-0.167-0.073-0.3-0.222-0.396
				c-0.145-0.096-0.326-0.144-0.542-0.144c-0.241,0-0.456,0.038-0.644,0.113c-0.189,0.075-0.348,0.154-0.473,0.238
				c-0.103-0.072-0.186-0.163-0.253-0.27c-0.065-0.107-0.099-0.234-0.099-0.377c0-0.313,0.146-0.544,0.44-0.699
				c0.294-0.153,0.69-0.229,1.188-0.229c0.343,0,0.645,0.044,0.91,0.131c0.264,0.086,0.488,0.206,0.675,0.355
				c0.185,0.15,0.327,0.327,0.423,0.531c0.095,0.205,0.143,0.423,0.143,0.657c0,0.63-0.355,1.23-1.07,1.8l-1.18,0.945h2.16
				c0.037,0.066,0.07,0.15,0.105,0.253c0.031,0.102,0.049,0.212,0.049,0.332C17.035,16.062,16.986,16.217,16.89,16.309z"/>
			<path fill="#FFFFFF" d="M0,0v30h9V0H0z M5.656,8.94C5.591,8.952,5.492,8.969,5.363,8.989C5.234,9.011,5.105,9.021,4.973,9.021
				c-0.132,0-0.251-0.009-0.355-0.027C4.512,8.976,4.424,8.94,4.35,8.886C4.28,8.832,4.225,8.759,4.185,8.666
				C4.146,8.573,4.127,8.451,4.127,8.301V4.935l-0.901,0.28C3.137,5.154,3.047,5.07,2.957,4.962
				c-0.092-0.109-0.135-0.258-0.135-0.45c0-0.36,0.219-0.612,0.656-0.756l1.008-0.341h0.332c0.259,0,0.463,0.074,0.613,0.225
				S5.656,3.993,5.656,4.25V8.94z"/>
		</g>
	</g>
	<g display="none">
		<rect x="1.759" y="1.667" display="inline" fill="#FFFFFF" width="5.917" height="8.75"/>
		<rect x="12.842" y="10" display="inline" fill="#FFFFFF" width="5.167" height="7.417"/>
		<rect x="23.426" y="18.75" display="inline" fill="#FFFFFF" width="4.416" height="7.5"/>
		<g display="inline">
			<g display="none">
				<rect x="20.676" y="22.201" display="inline" fill="none" width="3.649" height="4.751"/>
				<text transform="matrix(1 0 0 1 20.9463 26.1665)" display="inline" font-family="'Baloo-Regular'" font-size="6">3</text>
				<rect x="13.177" y="16.201" display="inline" fill="none" width="3.651" height="4.751"/>
				<text transform="matrix(1 0 0 1 13.4365 20.1665)" display="inline" font-family="'Baloo-Regular'" font-size="6">2</text>
				<rect x="5.676" y="10.202" display="inline" fill="none" width="3.649" height="4.751"/>
				<text transform="matrix(1 0 0 1 6.3213 14.1675)" display="inline" font-family="'Baloo-Regular'" font-size="6">1</text>
			</g>
			<g display="none">
				<path display="inline" fill="#F4A642" d="M19.5,21v6h6v-6H19.5z M23.733,25.595c-0.074,0.136-0.178,0.252-0.309,0.349
					c-0.132,0.096-0.29,0.169-0.472,0.219c-0.184,0.049-0.381,0.075-0.598,0.075c-0.416,0-0.729-0.058-0.942-0.174
					c-0.212-0.116-0.317-0.264-0.317-0.444c0-0.107,0.025-0.201,0.079-0.278c0.051-0.079,0.116-0.139,0.191-0.184
					c0.08,0.056,0.187,0.115,0.319,0.178c0.136,0.062,0.311,0.092,0.527,0.092c0.203,0,0.354-0.036,0.452-0.107
					c0.097-0.072,0.146-0.166,0.146-0.282s-0.038-0.204-0.117-0.264c-0.076-0.06-0.211-0.089-0.403-0.089h-0.563
					c-0.027-0.044-0.053-0.099-0.072-0.163c-0.021-0.064-0.029-0.14-0.029-0.228c0-0.092,0.008-0.171,0.027-0.236
					c0.016-0.067,0.042-0.122,0.074-0.166h0.563c0.288,0,0.433-0.109,0.433-0.33c0-0.104-0.047-0.188-0.137-0.252
					c-0.095-0.064-0.232-0.096-0.416-0.096c-0.164,0-0.307,0.019-0.432,0.056c-0.125,0.039-0.227,0.085-0.306,0.141
					c-0.068-0.048-0.124-0.107-0.169-0.177c-0.043-0.07-0.065-0.153-0.065-0.249c0-0.2,0.104-0.347,0.312-0.442
					c0.207-0.094,0.486-0.141,0.834-0.141c0.459,0,0.811,0.096,1.051,0.286c0.24,0.19,0.359,0.445,0.359,0.765
					c0,0.191-0.051,0.354-0.152,0.489s-0.224,0.235-0.363,0.303c0.084,0.032,0.162,0.072,0.234,0.12
					c0.071,0.048,0.135,0.108,0.19,0.18s0.102,0.156,0.132,0.252c0.032,0.096,0.049,0.208,0.049,0.336
					C23.844,25.305,23.807,25.459,23.733,25.595z"/>
				<path display="inline" fill="#F4A642" d="M12,15v12h6V15H12z M16.262,20.047c-0.064,0.063-0.148,0.093-0.253,0.093h-2.081
					c-0.088-0.06-0.158-0.137-0.207-0.23c-0.051-0.094-0.076-0.205-0.076-0.333c0-0.136,0.029-0.251,0.086-0.345
					c0.055-0.094,0.117-0.169,0.186-0.225l0.827-0.708c0.104-0.088,0.19-0.167,0.259-0.236c0.066-0.07,0.121-0.133,0.164-0.19
					c0.043-0.055,0.072-0.107,0.091-0.155c0.019-0.049,0.026-0.094,0.026-0.138c0-0.112-0.049-0.2-0.146-0.264
					c-0.099-0.064-0.219-0.096-0.363-0.096c-0.16,0-0.303,0.025-0.429,0.074c-0.128,0.051-0.231,0.104-0.314,0.16
					c-0.067-0.048-0.126-0.108-0.168-0.18c-0.045-0.072-0.066-0.156-0.066-0.252c0-0.208,0.099-0.363,0.294-0.464
					c0.195-0.103,0.461-0.154,0.791-0.154c0.228,0,0.43,0.029,0.607,0.087c0.174,0.058,0.326,0.138,0.449,0.237
					c0.123,0.1,0.217,0.218,0.281,0.354s0.098,0.282,0.098,0.438c0,0.42-0.239,0.82-0.716,1.2l-0.784,0.629h1.438
					c0.025,0.045,0.046,0.1,0.069,0.168c0.022,0.068,0.033,0.142,0.033,0.222C16.357,19.883,16.325,19.986,16.262,20.047z"/>
				<path display="inline" fill="#F4A642" d="M4.5,9v18h6V9H4.5z M8.271,14.137c-0.045,0.007-0.109,0.019-0.194,0.032
					C7.99,14.184,7.902,14.19,7.814,14.19c-0.086,0-0.168-0.006-0.236-0.018c-0.07-0.012-0.129-0.036-0.176-0.073
					c-0.049-0.036-0.086-0.084-0.112-0.147c-0.025-0.061-0.038-0.143-0.038-0.242v-2.244l-0.6,0.186
					c-0.063-0.04-0.122-0.096-0.182-0.168s-0.09-0.172-0.09-0.3c0-0.24,0.146-0.409,0.438-0.504l0.673-0.229h0.222
					c0.172,0,0.309,0.05,0.408,0.149c0.1,0.101,0.15,0.237,0.15,0.409V14.137z"/>
			</g>
			<g display="none">
				<g display="inline">
					<rect x="21" y="16.5" width="9" height="13.5"/>
					<rect x="21.002" y="19.5" fill="none" width="9" height="10.5"/>
					<text transform="matrix(1 0 0 1 23.9482 23.4663)" fill="#FFFFFF" font-family="'Baloo-Regular'" font-size="6">3</text>
				</g>
				<g display="inline">
					<rect x="10.5" y="7.5" width="9" height="22.5"/>
					<rect x="10.502" y="10.5" fill="none" width="9" height="19.5"/>
					<text transform="matrix(1 0 0 1 13.4355 14.4663)" fill="#FFFFFF" font-family="'Baloo-Regular'" font-size="6">2</text>
				</g>
				<g display="inline">
					<rect width="9" height="30"/>
					<rect x="0.002" y="3" fill="none" width="9" height="27"/>
					<text transform="matrix(1 0 0 1 3.3232 6.9663)" fill="#FFFFFF" font-family="'Baloo-Regular'" font-size="6">1</text>
				</g>
			</g>
			<g display="none">
				<g display="inline">
					<rect x="21" y="16.5" width="9" height="13.5"/>
					<rect x="21.002" y="19.5" fill="none" width="9" height="10.5"/>
					<text transform="matrix(1 0 0 1 23.1709 25.4492)" fill="#FFFFFF" font-family="'Baloo-Regular'" font-size="9">3</text>
				</g>
				<g display="inline">
					<rect x="10.5" y="7.5" width="9" height="22.5"/>
					<rect x="10.502" y="10.5" fill="none" width="9" height="19.5"/>
					<text transform="matrix(1 0 0 1 12.6533 16.4492)" fill="#FFFFFF" font-family="'Baloo-Regular'" font-size="9">2</text>
				</g>
				<g display="inline">
					<rect width="9" height="30"/>
					<rect x="0.002" y="3" fill="none" width="9" height="27"/>
					<text transform="matrix(1 0 0 1 2.7334 8.9492)" fill="#FFFFFF" font-family="'Baloo-Regular'" font-size="9">1</text>
				</g>
			</g>
			<path fill="#010101" d="M21,16.5V30h9V16.5H21z M27.35,24.629c-0.111,0.204-0.264,0.378-0.463,0.523
				c-0.197,0.144-0.436,0.253-0.707,0.329c-0.273,0.074-0.571,0.112-0.895,0.112c-0.625,0-1.097-0.087-1.414-0.262
				c-0.318-0.173-0.477-0.396-0.477-0.665c0-0.163,0.039-0.302,0.117-0.419c0.077-0.117,0.173-0.208,0.288-0.274
				c0.118,0.084,0.28,0.173,0.48,0.266c0.201,0.093,0.464,0.139,0.786,0.139c0.309,0,0.533-0.054,0.681-0.162
				c0.147-0.109,0.221-0.25,0.221-0.423c0-0.174-0.058-0.306-0.175-0.396c-0.117-0.09-0.32-0.135-0.608-0.135h-0.846
				c-0.04-0.066-0.077-0.147-0.108-0.243c-0.029-0.097-0.045-0.21-0.045-0.343c0-0.137,0.014-0.257,0.04-0.356
				c0.028-0.098,0.065-0.18,0.113-0.247h0.846c0.433,0,0.647-0.165,0.647-0.495c0-0.156-0.068-0.282-0.205-0.378
				c-0.139-0.096-0.347-0.144-0.621-0.144c-0.246,0-0.463,0.029-0.648,0.085c-0.188,0.058-0.34,0.128-0.46,0.211
				c-0.103-0.072-0.185-0.16-0.251-0.265s-0.098-0.229-0.098-0.374c0-0.3,0.154-0.521,0.465-0.661
				c0.313-0.142,0.73-0.212,1.252-0.212c0.69,0,1.215,0.143,1.574,0.427c0.361,0.286,0.541,0.668,0.541,1.148
				c0,0.288-0.076,0.533-0.23,0.733c-0.15,0.202-0.334,0.353-0.543,0.455c0.126,0.048,0.242,0.108,0.35,0.18
				c0.109,0.072,0.205,0.162,0.289,0.27c0.084,0.108,0.15,0.234,0.198,0.377c0.048,0.145,0.071,0.313,0.071,0.504
				C27.516,24.195,27.46,24.426,27.35,24.629z"/>
			<path fill="#010101" d="M10.5,7.5V30h9V7.5H10.5z M16.89,16.309c-0.096,0.093-0.222,0.14-0.377,0.14h-3.124
				c-0.132-0.09-0.234-0.206-0.31-0.346c-0.075-0.141-0.112-0.307-0.112-0.5c0-0.204,0.042-0.376,0.126-0.517
				c0.083-0.142,0.177-0.254,0.278-0.338l1.242-1.062c0.156-0.132,0.284-0.25,0.387-0.355c0.102-0.105,0.186-0.2,0.25-0.283
				c0.061-0.084,0.105-0.163,0.133-0.234c0.027-0.072,0.04-0.141,0.04-0.208c0-0.167-0.073-0.3-0.222-0.396
				c-0.145-0.096-0.326-0.144-0.542-0.144c-0.241,0-0.456,0.038-0.644,0.113c-0.189,0.075-0.348,0.154-0.473,0.238
				c-0.103-0.072-0.186-0.163-0.253-0.27c-0.065-0.107-0.099-0.234-0.099-0.377c0-0.313,0.146-0.544,0.44-0.699
				c0.294-0.153,0.69-0.229,1.188-0.229c0.343,0,0.645,0.044,0.91,0.131c0.264,0.086,0.488,0.206,0.675,0.355
				c0.185,0.15,0.327,0.327,0.423,0.531c0.095,0.205,0.143,0.423,0.143,0.657c0,0.63-0.355,1.23-1.07,1.8l-1.18,0.945h2.16
				c0.037,0.066,0.07,0.15,0.105,0.253c0.031,0.102,0.049,0.212,0.049,0.332C17.035,16.062,16.986,16.217,16.89,16.309z"/>
			<path fill="#010101" d="M0,0v30h9V0H0z M5.656,8.94C5.591,8.952,5.492,8.969,5.363,8.989C5.234,9.011,5.105,9.021,4.973,9.021
				c-0.132,0-0.251-0.009-0.355-0.027C4.512,8.976,4.424,8.94,4.35,8.886C4.28,8.832,4.225,8.759,4.185,8.666
				C4.146,8.573,4.127,8.451,4.127,8.301V4.935l-0.901,0.28C3.137,5.154,3.047,5.07,2.957,4.962
				c-0.092-0.109-0.135-0.258-0.135-0.45c0-0.36,0.219-0.612,0.656-0.756l1.008-0.341h0.332c0.259,0,0.463,0.074,0.613,0.225
				S5.656,3.993,5.656,4.25V8.94z"/>
			<g display="none">
				<rect display="inline" fill="#EB1C24" width="9" height="3"/>
				<rect x="10.5" y="7.5" display="inline" fill="#EB1C24" width="9" height="3"/>
				<rect x="21" y="16.5" display="inline" fill="#EB1C24" width="9" height="3"/>
			</g>
		</g>
	</g>
	<rect x="1.759" y="1.667" display="none" fill="#FFFFFF" width="5.917" height="8.75"/>
	<rect x="12.842" y="10" display="none" fill="#FFFFFF" width="5.167" height="7.417"/>
	<rect x="23.426" y="18.75" display="none" fill="#FFFFFF" width="4.416" height="7.5"/>
	<g display="none">
		<rect display="inline" fill="#EB1C24" width="9" height="3"/>
		<rect x="10.5" y="7.5" display="inline" fill="#EB1C24" width="9" height="3"/>
		<rect x="21" y="16.5" display="inline" fill="#EB1C24" width="9" height="3"/>
	</g>
	<g display="none">
		<path display="inline" fill="#010101" d="M21,16.5V30h9V16.5H21z M27.35,24.629c-0.111,0.204-0.264,0.378-0.463,0.523
			c-0.197,0.144-0.436,0.253-0.707,0.329c-0.273,0.074-0.572,0.112-0.895,0.112c-0.625,0-1.098-0.087-1.414-0.262
			c-0.318-0.173-0.477-0.396-0.477-0.665c0-0.163,0.039-0.302,0.117-0.419c0.076-0.117,0.172-0.208,0.287-0.274
			c0.119,0.084,0.281,0.173,0.48,0.266c0.201,0.093,0.465,0.139,0.787,0.139c0.309,0,0.533-0.054,0.68-0.162
			c0.148-0.109,0.221-0.25,0.221-0.423c0-0.174-0.057-0.306-0.174-0.396c-0.117-0.09-0.32-0.135-0.609-0.135h-0.846
			c-0.039-0.066-0.076-0.147-0.107-0.243c-0.029-0.097-0.045-0.21-0.045-0.343c0-0.137,0.014-0.257,0.039-0.356
			c0.029-0.098,0.066-0.18,0.113-0.247h0.846c0.434,0,0.648-0.165,0.648-0.495c0-0.156-0.068-0.282-0.205-0.378
			c-0.139-0.096-0.348-0.144-0.621-0.144c-0.246,0-0.463,0.029-0.648,0.085c-0.188,0.058-0.34,0.128-0.461,0.211
			c-0.102-0.072-0.184-0.16-0.25-0.265s-0.098-0.229-0.098-0.374c0-0.3,0.154-0.521,0.465-0.661c0.313-0.142,0.73-0.212,1.252-0.212
			c0.689,0,1.215,0.143,1.574,0.427c0.361,0.286,0.541,0.668,0.541,1.148c0,0.288-0.076,0.533-0.23,0.733
			c-0.15,0.202-0.334,0.353-0.543,0.455c0.125,0.048,0.242,0.108,0.35,0.18c0.109,0.072,0.205,0.162,0.289,0.27
			c0.084,0.108,0.15,0.234,0.197,0.377c0.049,0.145,0.072,0.313,0.072,0.504C27.516,24.195,27.459,24.426,27.35,24.629z"/>
		<path display="inline" fill="#010101" d="M10.5,7.5V30h9V7.5H10.5z M16.889,16.309c-0.096,0.093-0.221,0.14-0.377,0.14h-3.123
			c-0.133-0.09-0.234-0.206-0.311-0.346c-0.074-0.141-0.111-0.307-0.111-0.5c0-0.204,0.041-0.376,0.125-0.517
			c0.084-0.142,0.178-0.254,0.279-0.338l1.242-1.062c0.156-0.132,0.283-0.25,0.387-0.355c0.102-0.105,0.186-0.2,0.25-0.283
			c0.061-0.084,0.105-0.163,0.133-0.234c0.027-0.072,0.039-0.141,0.039-0.208c0-0.167-0.072-0.3-0.221-0.396
			c-0.145-0.096-0.326-0.144-0.543-0.144c-0.24,0-0.455,0.038-0.643,0.113c-0.189,0.075-0.348,0.154-0.473,0.238
			c-0.104-0.072-0.186-0.163-0.254-0.27c-0.064-0.107-0.098-0.234-0.098-0.377c0-0.313,0.146-0.544,0.439-0.699
			c0.295-0.153,0.691-0.229,1.189-0.229c0.342,0,0.645,0.044,0.91,0.131c0.264,0.086,0.488,0.206,0.674,0.355
			c0.186,0.15,0.328,0.327,0.424,0.531c0.094,0.205,0.143,0.423,0.143,0.657c0,0.63-0.355,1.23-1.07,1.8l-1.18,0.945h2.16
			c0.037,0.066,0.07,0.15,0.105,0.253c0.031,0.102,0.049,0.212,0.049,0.332C17.035,16.062,16.986,16.217,16.889,16.309z"/>
		<path display="inline" fill="#010101" d="M0,0v30h9V0H0z M5.656,8.94C5.59,8.952,5.492,8.969,5.363,8.989
			C5.234,9.011,5.105,9.021,4.973,9.021S4.721,9.012,4.617,8.994C4.512,8.976,4.424,8.94,4.35,8.886
			c-0.07-0.054-0.125-0.127-0.166-0.22C4.146,8.573,4.127,8.451,4.127,8.301V4.935l-0.902,0.28C3.137,5.154,3.047,5.07,2.957,4.962
			c-0.092-0.109-0.135-0.258-0.135-0.45c0-0.36,0.219-0.612,0.656-0.756l1.008-0.341h0.332c0.258,0,0.463,0.074,0.613,0.225
			S5.656,3.993,5.656,4.25V8.94z"/>
	</g>
	<g>
		<path fill="#010101" d="M21,16.5V30h9V16.5H21z M27.35,24.629c-0.111,0.204-0.264,0.378-0.463,0.523
			c-0.197,0.144-0.436,0.253-0.707,0.329c-0.273,0.074-0.572,0.112-0.895,0.112c-0.625,0-1.098-0.087-1.414-0.262
			c-0.318-0.173-0.477-0.396-0.477-0.665c0-0.163,0.039-0.302,0.117-0.419c0.076-0.117,0.172-0.208,0.287-0.274
			c0.119,0.084,0.281,0.173,0.48,0.266c0.201,0.093,0.465,0.139,0.787,0.139c0.309,0,0.533-0.054,0.68-0.162
			c0.148-0.109,0.221-0.25,0.221-0.423c0-0.174-0.057-0.306-0.174-0.396c-0.117-0.09-0.32-0.135-0.609-0.135h-0.846
			c-0.039-0.066-0.076-0.147-0.107-0.243c-0.029-0.097-0.045-0.21-0.045-0.343c0-0.137,0.014-0.257,0.039-0.356
			c0.029-0.098,0.066-0.18,0.113-0.247h0.846c0.434,0,0.648-0.165,0.648-0.495c0-0.156-0.068-0.282-0.205-0.378
			c-0.139-0.096-0.348-0.144-0.621-0.144c-0.246,0-0.463,0.029-0.648,0.085c-0.188,0.058-0.34,0.128-0.461,0.211
			c-0.102-0.072-0.184-0.16-0.25-0.265s-0.098-0.229-0.098-0.374c0-0.3,0.154-0.521,0.465-0.661c0.313-0.142,0.73-0.212,1.252-0.212
			c0.689,0,1.215,0.143,1.574,0.427c0.361,0.286,0.541,0.668,0.541,1.148c0,0.288-0.076,0.533-0.23,0.733
			c-0.15,0.202-0.334,0.353-0.543,0.455c0.125,0.048,0.242,0.108,0.35,0.18c0.109,0.072,0.205,0.162,0.289,0.27
			c0.084,0.108,0.15,0.234,0.197,0.377c0.049,0.145,0.072,0.313,0.072,0.504C27.516,24.195,27.459,24.426,27.35,24.629z"/>
		<path fill="#010101" d="M10.5,7.5V30h9V7.5H10.5z M16.889,16.309c-0.096,0.093-0.221,0.14-0.377,0.14h-3.123
			c-0.133-0.09-0.234-0.206-0.311-0.346c-0.074-0.141-0.111-0.307-0.111-0.5c0-0.204,0.041-0.376,0.125-0.517
			c0.084-0.142,0.178-0.254,0.279-0.338l1.242-1.062c0.156-0.132,0.283-0.25,0.387-0.355c0.102-0.105,0.186-0.2,0.25-0.283
			c0.061-0.084,0.105-0.163,0.133-0.234c0.027-0.072,0.039-0.141,0.039-0.208c0-0.167-0.072-0.3-0.221-0.396
			c-0.145-0.096-0.326-0.144-0.543-0.144c-0.24,0-0.455,0.038-0.643,0.113c-0.189,0.075-0.348,0.154-0.473,0.238
			c-0.104-0.072-0.186-0.163-0.254-0.27c-0.064-0.107-0.098-0.234-0.098-0.377c0-0.313,0.146-0.544,0.439-0.699
			c0.295-0.153,0.691-0.229,1.189-0.229c0.342,0,0.645,0.044,0.91,0.131c0.264,0.086,0.488,0.206,0.674,0.355
			c0.186,0.15,0.328,0.327,0.424,0.531c0.094,0.205,0.143,0.423,0.143,0.657c0,0.63-0.355,1.23-1.07,1.8l-1.18,0.945h2.16
			c0.037,0.066,0.07,0.15,0.105,0.253c0.031,0.102,0.049,0.212,0.049,0.332C17.035,16.062,16.986,16.217,16.889,16.309z"/>
		<path fill="#010101" d="M0,0v30h9V0H0z M5.656,8.94C5.59,8.952,5.492,8.969,5.363,8.989C5.234,9.011,5.105,9.021,4.973,9.021
			S4.721,9.012,4.617,8.994C4.512,8.976,4.424,8.94,4.35,8.886c-0.07-0.054-0.125-0.127-0.166-0.22
			C4.146,8.573,4.127,8.451,4.127,8.301V4.935l-0.902,0.28C3.137,5.154,3.047,5.07,2.957,4.962c-0.092-0.109-0.135-0.258-0.135-0.45
			c0-0.36,0.219-0.612,0.656-0.756l1.008-0.341h0.332c0.258,0,0.463,0.074,0.613,0.225S5.656,3.993,5.656,4.25V8.94z"/>
	</g>
</g>
</svg>
