<?xml version="1.0" encoding="utf-8"?>
<!-- Generator: Adobe Illustrator 16.0.0, SVG Export Plug-In . SVG Version: 6.00 Build 0)  -->
<!DOCTYPE svg PUBLIC "-//W3C//DTD SVG 1.0//EN" "http://www.w3.org/TR/2001/REC-SVG-20010904/DTD/svg10.dtd">
<svg version="1.0" xmlns="http://www.w3.org/2000/svg" xmlns:xlink="http://www.w3.org/1999/xlink" x="0px" y="0px" width="30px"
	 height="30px" viewBox="0 0 30 30" enable-background="new 0 0 30 30" xml:space="preserve">
<g id="dev">
</g>
<g id="vote_x5F_stars">
</g>
<g id="form_x5F_checkmark">
</g>
<g id="leaderboard_x5F_buttons">
</g>
<g id="footer_x5F_mobile_x5F_button">
</g>
<g id="menu_x5F_arrows">
</g>
<g id="header_x5F_icons">
	<rect y="-0.014" display="none" fill="#323232" width="30.014" height="30.027"/>
	<polygon display="none" fill="#F4A642" points="7.497,-0.004 7.497,30.004 22.502,15 	"/>
	<polygon display="none" fill="#FFFFFF" points="7.497,-0.004 7.497,30.004 22.502,15 	"/>
	<polygon display="none" fill="#010101" points="7.497,-0.004 7.497,30.004 22.502,15 	"/>
	<g display="none">
		<path display="inline" fill="#F4A642" d="M21,16.5V30h9V16.5H21z M27.35,24.629c-0.111,0.204-0.264,0.378-0.463,0.523
			c-0.197,0.144-0.436,0.253-0.707,0.329c-0.273,0.074-0.571,0.112-0.895,0.112c-0.625,0-1.097-0.087-1.414-0.262
			c-0.318-0.173-0.477-0.396-0.477-0.665c0-0.163,0.039-0.302,0.117-0.419c0.077-0.117,0.173-0.208,0.288-0.274
			c0.118,0.084,0.28,0.173,0.48,0.266c0.201,0.093,0.464,0.139,0.786,0.139c0.309,0,0.533-0.054,0.681-0.162
			c0.147-0.109,0.221-0.25,0.221-0.423c0-0.174-0.058-0.306-0.175-0.396c-0.117-0.09-0.32-0.135-0.608-0.135h-0.846
			c-0.04-0.066-0.077-0.147-0.108-0.243c-0.029-0.097-0.045-0.21-0.045-0.343c0-0.137,0.014-0.257,0.04-0.356
			c0.028-0.098,0.065-0.18,0.113-0.247h0.846c0.433,0,0.647-0.165,0.647-0.495c0-0.156-0.068-0.282-0.205-0.378
			c-0.139-0.096-0.347-0.144-0.621-0.144c-0.246,0-0.463,0.029-0.648,0.085c-0.188,0.058-0.34,0.128-0.46,0.211
			c-0.103-0.072-0.185-0.16-0.251-0.265s-0.098-0.229-0.098-0.374c0-0.3,0.154-0.521,0.465-0.661
			c0.313-0.142,0.73-0.212,1.252-0.212c0.69,0,1.215,0.143,1.574,0.427c0.361,0.286,0.541,0.668,0.541,1.148
			c0,0.288-0.076,0.533-0.23,0.733c-0.15,0.202-0.334,0.353-0.543,0.455c0.126,0.048,0.242,0.108,0.35,0.18
			c0.109,0.072,0.205,0.162,0.289,0.27c0.084,0.108,0.15,0.234,0.198,0.377c0.048,0.145,0.071,0.313,0.071,0.504
			C27.516,24.195,27.46,24.426,27.35,24.629z"/>
		<path display="inline" fill="#F4A642" d="M10.5,7.5V30h9V7.5H10.5z M16.89,16.309c-0.096,0.093-0.222,0.14-0.377,0.14h-3.124
			c-0.132-0.09-0.234-0.206-0.31-0.346c-0.075-0.141-0.112-0.307-0.112-0.5c0-0.204,0.042-0.376,0.126-0.517
			c0.083-0.142,0.177-0.254,0.278-0.338l1.242-1.062c0.156-0.132,0.284-0.25,0.387-0.355c0.102-0.105,0.186-0.2,0.25-0.283
			c0.061-0.084,0.105-0.163,0.133-0.234c0.027-0.072,0.04-0.141,0.04-0.208c0-0.167-0.073-0.3-0.222-0.396
			c-0.145-0.096-0.326-0.144-0.542-0.144c-0.241,0-0.456,0.038-0.644,0.113c-0.189,0.075-0.348,0.154-0.473,0.238
			c-0.103-0.072-0.186-0.163-0.253-0.27c-0.065-0.107-0.099-0.234-0.099-0.377c0-0.313,0.146-0.544,0.44-0.699
			c0.294-0.153,0.69-0.229,1.188-0.229c0.343,0,0.645,0.044,0.91,0.131c0.264,0.086,0.488,0.206,0.675,0.355
			c0.185,0.15,0.327,0.327,0.423,0.531c0.095,0.205,0.143,0.423,0.143,0.657c0,0.63-0.355,1.23-1.07,1.8l-1.18,0.945h2.16
			c0.037,0.066,0.07,0.15,0.105,0.253c0.031,0.102,0.049,0.212,0.049,0.332C17.035,16.062,16.986,16.217,16.89,16.309z"/>
		<path display="inline" fill="#F4A642" d="M0,0v30h9V0H0z M5.656,8.94C5.591,8.952,5.492,8.969,5.363,8.989
			C5.234,9.011,5.105,9.021,4.973,9.021c-0.132,0-0.251-0.009-0.355-0.027C4.512,8.976,4.424,8.94,4.35,8.886
			C4.28,8.832,4.225,8.759,4.185,8.666C4.146,8.573,4.127,8.451,4.127,8.301V4.935l-0.901,0.28C3.137,5.154,3.047,5.07,2.957,4.962
			c-0.092-0.109-0.135-0.258-0.135-0.45c0-0.36,0.219-0.612,0.656-0.756l1.008-0.341h0.332c0.259,0,0.463,0.074,0.613,0.225
			S5.656,3.993,5.656,4.25V8.94z"/>
	</g>
	<path display="none" d="M30,30H2.689V0H30V30z M5.418,27.272h21.854V2.728H5.418V27.272z"/>
	<rect display="none" fill="none" stroke="#000000" stroke-width="4" stroke-miterlimit="10" width="30" height="30"/>
	<g display="none">
		<polygon display="inline" points="14.165,11.431 14.165,18.48 17.689,14.955 		"/>
		<path display="inline" d="M30,30H7.108V0H30V30z M10.638,26.471h15.833V3.529H10.638V26.471z"/>
		<rect x="3.529" y="13.236" display="inline" width="10.971" height="3.529"/>
	</g>
	<rect y="-0.004" display="none" fill="#EB1C24" width="3.529" height="30"/>
	<rect x="10.635" y="0.001" display="none" fill="#EB1C24" width="3.53" height="30"/>
	<rect x="-15.835" y="11.471" display="none" fill="#EB1C24" width="30" height="3.529"/>
	<rect x="-15.835" y="16.715" display="none" fill="#EB1C24" width="30" height="3.529"/>
	<rect x="-15.835" y="9.667" display="none" fill="#EB1C24" width="30" height="3.529"/>
	<g display="none">
		<polygon display="inline" fill="#F4A642" points="14.165,18.48 17.689,14.955 14.165,11.431 14.165,13.236 3.529,13.236 
			3.529,16.765 14.165,16.765 		"/>
		<polygon display="inline" fill="#FFFFFF" points="7.108,0 7.108,11.431 10.638,11.431 10.638,3.529 26.471,3.529 26.471,26.471 
			10.638,26.471 10.638,18.53 7.108,18.53 7.108,30 30,30 30,0 		"/>
	</g>
	<g display="none">
		<polygon display="inline" fill="#FFFFFF" points="14.165,18.48 17.689,14.955 14.165,11.431 14.165,13.236 3.529,13.236 
			3.529,16.765 14.165,16.765 		"/>
		<polygon display="inline" points="7.108,0 7.108,11.431 10.638,11.431 10.638,3.529 26.471,3.529 26.471,26.471 10.638,26.471 
			10.638,18.53 7.108,18.53 7.108,30 30,30 30,0 		"/>
	</g>
	<g display="none">
		<circle display="inline" fill="#010101" cx="15" cy="30.027" r="15.014"/>
		<circle display="inline" fill="#010101" cx="14.999" cy="7.507" r="7.507"/>
	</g>
	<g display="none">
		
			<rect x="17.034" y="13.249" display="inline" stroke="#FFFFFF" stroke-width="3" stroke-miterlimit="10" width="10.971" height="3.529"/>
		
			<rect x="20.755" y="9.528" display="inline" stroke="#FFFFFF" stroke-width="3" stroke-miterlimit="10" width="3.528" height="10.971"/>
	</g>
	<g display="none">
		<rect x="17.034" y="13.249" display="inline" width="10.971" height="3.529"/>
		<rect x="20.755" y="9.528" display="inline" width="3.528" height="10.971"/>
	</g>
	<g display="none">
		<polygon display="inline" fill="#FFFFFF" points="27.99,13.222 24.27,13.222 24.27,9.501 20.74,9.501 20.74,13.222 17.02,13.222 
			17.02,16.751 20.74,16.751 20.74,20.472 24.27,20.472 24.27,16.751 27.99,16.751 		"/>
		<path display="inline" fill="#010101" d="M15.52,11.735h3.721V8.015h3.238c0.012-0.173,0.027-0.346,0.027-0.521
			c0-4.146-3.361-7.507-7.506-7.507c-4.146,0-7.508,3.361-7.508,7.507C7.492,11.639,10.854,15,15,15c0.176,0,0.348-0.015,0.52-0.026
			V11.735z"/>
		<path display="inline" fill="#010101" d="M30.014,30.014L30.014,30.014c0-4.063-1.621-7.743-4.244-10.446v2.404H19.24v-3.721
			H15.52v-3.225C15.346,15.021,15.176,15,15,15C6.709,15-0.014,21.722-0.014,30.013v0H30.014z"/>
	</g>
	<g display="none">
		<polygon display="inline" fill="#F4A642" points="27.99,13.222 24.27,13.222 24.27,9.501 20.74,9.501 20.74,13.222 17.02,13.222 
			17.02,16.751 20.74,16.751 20.74,20.472 24.27,20.472 24.27,16.751 27.99,16.751 		"/>
		<path display="inline" fill="#FFFFFF" d="M15.52,11.735h3.721V8.015h3.238c0.012-0.173,0.027-0.346,0.027-0.521
			c0-4.146-3.361-7.507-7.506-7.507c-4.146,0-7.508,3.361-7.508,7.507C7.492,11.639,10.854,15,15,15c0.176,0,0.348-0.015,0.52-0.026
			V11.735z"/>
		<path display="inline" fill="#FFFFFF" d="M30.014,30.014L30.014,30.014c0-4.063-1.621-7.743-4.244-10.446v2.404H19.24v-3.721
			H15.52v-3.225C15.346,15.021,15.176,15,15,15C6.709,15-0.014,21.722-0.014,30.013v0H30.014z"/>
	</g>
	<g display="none">
		<rect display="inline" fill="#EB1C24" width="9" height="3"/>
		<rect x="10.5" y="7.5" display="inline" fill="#EB1C24" width="9" height="3"/>
		<rect x="21" y="16.5" display="inline" fill="#EB1C24" width="9" height="3"/>
	</g>
	<g display="none">
		<path display="inline" fill="#FFFFFF" d="M21,16.5V30h9V16.5H21z M27.35,24.629c-0.111,0.204-0.264,0.378-0.463,0.523
			c-0.197,0.144-0.436,0.253-0.707,0.329c-0.273,0.074-0.572,0.112-0.895,0.112c-0.625,0-1.098-0.087-1.414-0.262
			c-0.318-0.173-0.477-0.396-0.477-0.665c0-0.163,0.039-0.302,0.117-0.419c0.076-0.117,0.172-0.208,0.287-0.274
			c0.119,0.084,0.281,0.173,0.48,0.266c0.201,0.093,0.465,0.139,0.787,0.139c0.309,0,0.533-0.054,0.68-0.162
			c0.148-0.109,0.221-0.25,0.221-0.423c0-0.174-0.057-0.306-0.174-0.396c-0.117-0.09-0.32-0.135-0.609-0.135h-0.846
			c-0.039-0.066-0.076-0.147-0.107-0.243c-0.029-0.097-0.045-0.21-0.045-0.343c0-0.137,0.014-0.257,0.039-0.356
			c0.029-0.098,0.066-0.18,0.113-0.247h0.846c0.434,0,0.648-0.165,0.648-0.495c0-0.156-0.068-0.282-0.205-0.378
			c-0.139-0.096-0.348-0.144-0.621-0.144c-0.246,0-0.463,0.029-0.648,0.085c-0.188,0.058-0.34,0.128-0.461,0.211
			c-0.102-0.072-0.184-0.16-0.25-0.265s-0.098-0.229-0.098-0.374c0-0.3,0.154-0.521,0.465-0.661c0.313-0.142,0.73-0.212,1.252-0.212
			c0.689,0,1.215,0.143,1.574,0.427c0.361,0.286,0.541,0.668,0.541,1.148c0,0.288-0.076,0.533-0.23,0.733
			c-0.15,0.202-0.334,0.353-0.543,0.455c0.125,0.048,0.242,0.108,0.35,0.18c0.109,0.072,0.205,0.162,0.289,0.27
			c0.084,0.108,0.15,0.234,0.197,0.377c0.049,0.145,0.072,0.313,0.072,0.504C27.516,24.195,27.459,24.426,27.35,24.629z"/>
		<path display="inline" fill="#FFFFFF" d="M10.5,7.5V30h9V7.5H10.5z M16.889,16.309c-0.096,0.093-0.221,0.14-0.377,0.14h-3.123
			c-0.133-0.09-0.234-0.206-0.311-0.346c-0.074-0.141-0.111-0.307-0.111-0.5c0-0.204,0.041-0.376,0.125-0.517
			c0.084-0.142,0.178-0.254,0.279-0.338l1.242-1.062c0.156-0.132,0.283-0.25,0.387-0.355c0.102-0.105,0.186-0.2,0.25-0.283
			c0.061-0.084,0.105-0.163,0.133-0.234c0.027-0.072,0.039-0.141,0.039-0.208c0-0.167-0.072-0.3-0.221-0.396
			c-0.145-0.096-0.326-0.144-0.543-0.144c-0.24,0-0.455,0.038-0.643,0.113c-0.189,0.075-0.348,0.154-0.473,0.238
			c-0.104-0.072-0.186-0.163-0.254-0.27c-0.064-0.107-0.098-0.234-0.098-0.377c0-0.313,0.146-0.544,0.439-0.699
			c0.295-0.153,0.691-0.229,1.189-0.229c0.342,0,0.645,0.044,0.91,0.131c0.264,0.086,0.488,0.206,0.674,0.355
			c0.186,0.15,0.328,0.327,0.424,0.531c0.094,0.205,0.143,0.423,0.143,0.657c0,0.63-0.355,1.23-1.07,1.8l-1.18,0.945h2.16
			c0.037,0.066,0.07,0.15,0.105,0.253c0.031,0.102,0.049,0.212,0.049,0.332C17.035,16.062,16.986,16.217,16.889,16.309z"/>
		<path display="inline" fill="#FFFFFF" d="M0,0v30h9V0H0z M5.656,8.94C5.59,8.952,5.492,8.969,5.363,8.989
			C5.234,9.011,5.105,9.021,4.973,9.021S4.721,9.012,4.617,8.994C4.512,8.976,4.424,8.94,4.35,8.886
			c-0.07-0.054-0.125-0.127-0.166-0.22C4.146,8.573,4.127,8.451,4.127,8.301V4.935l-0.902,0.28C3.137,5.154,3.047,5.07,2.957,4.962
			c-0.092-0.109-0.135-0.258-0.135-0.45c0-0.36,0.219-0.612,0.656-0.756l1.008-0.341h0.332c0.258,0,0.463,0.074,0.613,0.225
			S5.656,3.993,5.656,4.25V8.94z"/>
	</g>
	<g display="none">
		<path display="inline" fill="#010101" d="M21,16.5V30h9V16.5H21z M27.35,24.629c-0.111,0.204-0.264,0.378-0.463,0.523
			c-0.197,0.144-0.436,0.253-0.707,0.329c-0.273,0.074-0.572,0.112-0.895,0.112c-0.625,0-1.098-0.087-1.414-0.262
			c-0.318-0.173-0.477-0.396-0.477-0.665c0-0.163,0.039-0.302,0.117-0.419c0.076-0.117,0.172-0.208,0.287-0.274
			c0.119,0.084,0.281,0.173,0.48,0.266c0.201,0.093,0.465,0.139,0.787,0.139c0.309,0,0.533-0.054,0.68-0.162
			c0.148-0.109,0.221-0.25,0.221-0.423c0-0.174-0.057-0.306-0.174-0.396c-0.117-0.09-0.32-0.135-0.609-0.135h-0.846
			c-0.039-0.066-0.076-0.147-0.107-0.243c-0.029-0.097-0.045-0.21-0.045-0.343c0-0.137,0.014-0.257,0.039-0.356
			c0.029-0.098,0.066-0.18,0.113-0.247h0.846c0.434,0,0.648-0.165,0.648-0.495c0-0.156-0.068-0.282-0.205-0.378
			c-0.139-0.096-0.348-0.144-0.621-0.144c-0.246,0-0.463,0.029-0.648,0.085c-0.188,0.058-0.34,0.128-0.461,0.211
			c-0.102-0.072-0.184-0.16-0.25-0.265s-0.098-0.229-0.098-0.374c0-0.3,0.154-0.521,0.465-0.661c0.313-0.142,0.73-0.212,1.252-0.212
			c0.689,0,1.215,0.143,1.574,0.427c0.361,0.286,0.541,0.668,0.541,1.148c0,0.288-0.076,0.533-0.23,0.733
			c-0.15,0.202-0.334,0.353-0.543,0.455c0.125,0.048,0.242,0.108,0.35,0.18c0.109,0.072,0.205,0.162,0.289,0.27
			c0.084,0.108,0.15,0.234,0.197,0.377c0.049,0.145,0.072,0.313,0.072,0.504C27.516,24.195,27.459,24.426,27.35,24.629z"/>
		<path display="inline" fill="#010101" d="M10.5,7.5V30h9V7.5H10.5z M16.889,16.309c-0.096,0.093-0.221,0.14-0.377,0.14h-3.123
			c-0.133-0.09-0.234-0.206-0.311-0.346c-0.074-0.141-0.111-0.307-0.111-0.5c0-0.204,0.041-0.376,0.125-0.517
			c0.084-0.142,0.178-0.254,0.279-0.338l1.242-1.062c0.156-0.132,0.283-0.25,0.387-0.355c0.102-0.105,0.186-0.2,0.25-0.283
			c0.061-0.084,0.105-0.163,0.133-0.234c0.027-0.072,0.039-0.141,0.039-0.208c0-0.167-0.072-0.3-0.221-0.396
			c-0.145-0.096-0.326-0.144-0.543-0.144c-0.24,0-0.455,0.038-0.643,0.113c-0.189,0.075-0.348,0.154-0.473,0.238
			c-0.104-0.072-0.186-0.163-0.254-0.27c-0.064-0.107-0.098-0.234-0.098-0.377c0-0.313,0.146-0.544,0.439-0.699
			c0.295-0.153,0.691-0.229,1.189-0.229c0.342,0,0.645,0.044,0.91,0.131c0.264,0.086,0.488,0.206,0.674,0.355
			c0.186,0.15,0.328,0.327,0.424,0.531c0.094,0.205,0.143,0.423,0.143,0.657c0,0.63-0.355,1.23-1.07,1.8l-1.18,0.945h2.16
			c0.037,0.066,0.07,0.15,0.105,0.253c0.031,0.102,0.049,0.212,0.049,0.332C17.035,16.062,16.986,16.217,16.889,16.309z"/>
		<path display="inline" fill="#010101" d="M0,0v30h9V0H0z M5.656,8.94C5.59,8.952,5.492,8.969,5.363,8.989
			C5.234,9.011,5.105,9.021,4.973,9.021S4.721,9.012,4.617,8.994C4.512,8.976,4.424,8.94,4.35,8.886
			c-0.07-0.054-0.125-0.127-0.166-0.22C4.146,8.573,4.127,8.451,4.127,8.301V4.935l-0.902,0.28C3.137,5.154,3.047,5.07,2.957,4.962
			c-0.092-0.109-0.135-0.258-0.135-0.45c0-0.36,0.219-0.612,0.656-0.756l1.008-0.341h0.332c0.258,0,0.463,0.074,0.613,0.225
			S5.656,3.993,5.656,4.25V8.94z"/>
	</g>
	<g display="none">
		<polygon display="inline" fill="#010101" points="12.414,18.48 15.938,14.955 12.414,11.431 12.414,13.236 3.529,13.236 
			3.529,16.765 12.414,16.765 		"/>
		<polygon display="inline" fill="#010101" points="7.108,0 7.108,11.431 10.638,11.431 10.638,3.529 26.471,3.529 26.471,26.471 
			10.638,26.471 10.638,18.53 7.108,18.53 7.108,30 30,30 30,0 		"/>
	</g>
	<polygon display="none" stroke="#FFFFFF" stroke-width="3" stroke-miterlimit="10" points="26.471,-0.044 17.743,6.123 
		17.743,24.79 26.471,29.956 	"/>
	<g display="none">
		<polygon display="inline" fill="#010101" points="12.414,18.524 15.938,14.999 12.414,11.476 12.414,13.28 3.529,13.28 
			3.529,16.81 12.414,16.81 		"/>
		<polygon display="inline" points="26.471,0 17.743,6.167 17.743,24.834 26.471,30 		"/>
		<polygon display="inline" fill="#010101" points="26.344,0.044 26.344,3.573 26.344,26.515 26.344,30.044 30,30.044 30,0.044 		
			"/>
		<g display="inline">
			<polygon fill="#010101" points="10.638,3.573 18.814,3.573 23.809,0.044 7.108,0.044 7.108,11.476 10.638,11.476 			"/>
			<rect x="27.971" y="0.044" fill="#010101" width="2.029" height="30"/>
			<polygon fill="#010101" points="17.639,26.515 10.638,26.515 10.638,18.574 7.108,18.574 7.108,30.044 23.602,30.044 			"/>
		</g>
	</g>
	<g display="none">
		<polygon display="inline" fill="#FFFFFF" points="12.414,18.502 15.938,14.977 12.414,11.454 12.414,13.258 3.529,13.258 
			3.529,16.788 12.414,16.788 		"/>
		<polygon display="inline" fill="#FFFFFF" points="10.638,3.551 18.814,3.551 23.809,0.022 7.108,0.022 7.108,11.454 
			10.638,11.454 		"/>
		<polygon display="inline" fill="#FFFFFF" points="27.971,0.022 26.471,0.022 26.471,-0.022 26.408,0.022 26.344,0.022 
			26.344,0.068 17.743,6.145 17.743,24.812 26.344,29.903 26.344,30.022 27.971,30.022 30,30.022 30,0.022 		"/>
		<polygon display="inline" fill="#FFFFFF" points="17.639,26.493 10.638,26.493 10.638,18.552 7.108,18.552 7.108,30.022 
			23.602,30.022 		"/>
	</g>
	<g display="none">
		<polygon display="inline" fill="#010101" points="12.414,18.502 15.938,14.977 12.414,11.454 12.414,13.258 3.529,13.258 
			3.529,16.788 12.414,16.788 		"/>
		<polygon display="inline" fill="#010101" points="10.638,3.551 18.814,3.551 23.809,0.022 7.108,0.022 7.108,11.454 
			10.638,11.454 		"/>
		<polygon display="inline" fill="#010101" points="27.971,0.022 26.471,0.022 26.471,-0.022 26.408,0.022 26.344,0.022 
			26.344,0.068 17.743,6.145 17.743,24.812 26.344,29.903 26.344,30.022 27.971,30.022 30,30.022 30,0.022 		"/>
		<polygon display="inline" fill="#010101" points="17.639,26.493 10.638,26.493 10.638,18.552 7.108,18.552 7.108,30.022 
			23.602,30.022 		"/>
	</g>
	<g display="none">
		<polygon display="inline" fill="#010101" points="27.981,13.229 24.263,13.229 24.263,9.511 20.734,9.511 20.734,13.229 
			17.016,13.229 17.016,16.757 20.734,16.757 20.734,20.476 24.263,20.476 24.263,16.757 27.981,16.757 		"/>
		<path display="inline" fill="#010101" d="M18.947,7.706h3.541C22.492,7.639,22.5,7.572,22.5,7.503C22.5,3.359,19.141,0,14.997,0
			S7.493,3.359,7.493,7.503c0,4.144,3.36,7.503,7.504,7.503c0.071,0,0.144-0.007,0.215-0.011v-3.244v-0.001h0.018v-0.326h3.704v-3.4
			h0.014V7.706z"/>
		<path display="inline" fill="#010101" d="M26.063,19.913v2.367H24.26v0h-5.324v-0.305h-0.007V18.56h-3.717v-0.304v-1.5v-1.738
			c-0.071-0.004-0.144-0.011-0.215-0.011c-8.287,0-15.007,6.719-15.007,15.006v0h30.014v0
			C30.004,26.116,28.501,22.581,26.063,19.913z"/>
	</g>
	<g display="none">
		<polygon display="inline" fill="#010101" points="28.996,13.222 25.277,13.222 25.277,9.504 21.749,9.504 21.749,13.222 
			18.03,13.222 18.03,16.75 21.749,16.75 21.749,20.469 25.277,20.469 25.277,16.75 28.996,16.75 		"/>
		<path display="inline" fill="#010101" d="M19.962,7.699h3.541c0.004-0.067,0.012-0.134,0.012-0.203
			c0-4.144-3.359-7.503-7.503-7.503S8.508,3.353,8.508,7.497c0,4.144,3.36,7.503,7.504,7.503c0.071,0,0.144-0.007,0.215-0.011
			v-3.244v-0.001h0.018v-0.326h3.704v-3.4h0.014V7.699z"/>
		<g display="inline">
			<path fill="#010101" d="M3.034,22.495c2.594,4.477,7.425,7.494,12.972,7.494c5.542,0,10.37-3.013,12.969-7.482
				c-0.544-0.932-1.173-1.809-1.897-2.601v2.367h-1.803v0H19.95v-0.305h-0.007v-3.415h-3.717v-0.304v-1.5v-1.738
				C16.155,15.006,16.083,15,16.012,15C10.464,15,5.632,18.019,3.034,22.495z"/>
			<path fill="#010101" d="M1.005,30.006L1.005,30.006l0.01,0v-0.194C1.014,29.878,1.005,29.941,1.005,30.006z"/>
		</g>
	</g>
	<g>
		<polygon fill="#010101" points="28.996,13.222 25.277,13.222 25.277,9.504 21.749,9.504 21.749,13.222 18.03,13.222 18.03,16.75 
			21.749,16.75 21.749,20.469 25.277,20.469 25.277,16.75 28.996,16.75 		"/>
		<path fill="#010101" d="M19.962,7.699h3.541c0.004-0.067,0.012-0.134,0.012-0.203c0-4.144-3.359-7.503-7.503-7.503
			S8.508,3.353,8.508,7.497c0,4.144,3.36,7.503,7.504,7.503c0.071,0,0.144-0.007,0.215-0.011v-3.244v-0.001h0.018v-0.326h3.704v-3.4
			h0.014V7.699z"/>
		<g>
			<path fill="#010101" d="M3.034,22.495c2.594,4.477,7.425,7.494,12.972,7.494c5.542,0,10.37-3.013,12.969-7.482
				c-0.544-0.932-1.173-1.809-1.897-2.601v2.367h-1.803v0H19.95v-0.305h-0.007v-3.415h-3.717v-0.304v-1.5v-1.738
				C16.155,15.006,16.083,15,16.012,15C10.464,15,5.632,18.019,3.034,22.495z"/>
			<path fill="#010101" d="M1.005,30.006L1.005,30.006l0.01,0v-0.194C1.014,29.878,1.005,29.941,1.005,30.006z"/>
		</g>
	</g>
</g>
<g id="footerCreditLogos">
</g>
<g id="nav_x5F_bar_x5F_icons">
</g>
<g id="exclamation">
</g>
</svg>
