<?xml version="1.0" encoding="utf-8"?>
<!-- Generator: Adobe Illustrator 16.0.0, SVG Export Plug-In . SVG Version: 6.00 Build 0)  -->
<!DOCTYPE svg PUBLIC "-//W3C//DTD SVG 1.0//EN" "http://www.w3.org/TR/2001/REC-SVG-20010904/DTD/svg10.dtd">
<svg version="1.0" id="Layer_1" xmlns="http://www.w3.org/2000/svg" xmlns:xlink="http://www.w3.org/1999/xlink" x="0px" y="0px"
	 width="30px" height="30px" viewBox="0 0 30 30" enable-background="new 0 0 30 30" xml:space="preserve">
<polygon fill="#010101" points="28.996,13.222 25.277,13.222 25.277,9.504 21.749,9.504 21.749,13.222 18.029,13.222 18.029,16.75 
	21.749,16.75 21.749,20.469 25.277,20.469 25.277,16.75 28.996,16.75 "/>
<path fill="#010101" d="M19.962,7.699h3.541c0.004-0.067,0.013-0.134,0.013-0.203c0-4.144-3.359-7.503-7.504-7.503
	c-4.144,0-7.504,3.36-7.504,7.504S11.868,15,16.012,15c0.071,0,0.145-0.007,0.215-0.011v-3.244v-0.001h0.019v-0.326h3.704v-3.4
	h0.014L19.962,7.699L19.962,7.699z"/>
<path fill="#010101" d="M3.034,22.495c2.594,4.478,7.425,7.494,12.972,7.494c5.542,0,10.37-3.013,12.969-7.482
	c-0.543-0.932-1.173-1.809-1.896-2.601v2.367h-1.803l0,0H19.95v-0.306h-0.007v-3.415h-3.717v-0.304v-1.5v-1.738
	C16.154,15.006,16.083,15,16.012,15C10.464,15,5.632,18.02,3.034,22.495z"/>
</svg>
