<?xml version="1.0" encoding="utf-8"?>
<!-- Generator: Adobe Illustrator 16.0.0, SVG Export Plug-In . SVG Version: 6.00 Build 0)  -->
<!DOCTYPE svg PUBLIC "-//W3C//DTD SVG 1.1//EN" "http://www.w3.org/Graphics/SVG/1.1/DTD/svg11.dtd">
<svg version="1.1" xmlns="http://www.w3.org/2000/svg" xmlns:xlink="http://www.w3.org/1999/xlink" x="0px" y="0px" width="40px"
	 height="40px" viewBox="0 0 40 40" enable-background="new 0 0 40 40" xml:space="preserve">
<g id="header_x5F_icon">
	<rect display="none" fill-rule="evenodd" clip-rule="evenodd" fill="#646464" width="39.934" height="40"/>
	<g display="none">
		<path display="inline" fill="#FFFFFF" d="M17.022,31.543c-0.373,0.178-0.76,0.337-1.16,0.475
			c-1.393,0.479-2.949,0.729-4.627,0.751v2.337c0,0.731,0.088,1.324,0.264,1.778c0.176,0.454,0.439,0.812,0.791,1.076
			c0.35,0.264,0.781,0.439,1.295,0.527c0.512,0.087,1.09,0.131,1.734,0.131c0.674,0,1.332-0.051,1.977-0.153
			c0.643-0.103,1.111-0.198,1.404-0.286v-6.005c-0.322-0.099-0.646-0.208-0.975-0.329C17.726,31.847,17.429,31.753,17.022,31.543z"
			/>
		<path display="inline" fill="#FFFFFF" d="M21.144,15.441c-0.615-1.42-1.465-2.598-2.547-3.536
			c-1.084-0.937-2.379-1.631-3.887-2.085C13.202,9.367,11.571,9.14,9.813,9.14c-1.668,0-3.176,0.176-4.521,0.527
			c-1.348,0.351-2.475,0.82-3.381,1.405c-0.588,0.41-1.049,0.864-1.385,1.361c-0.336,0.499-0.504,1.142-0.504,1.933v20.742
			c0,0.731,0.088,1.324,0.262,1.778c0.178,0.453,0.441,0.812,0.791,1.075c0.352,0.264,0.783,0.439,1.297,0.527
			c0.512,0.087,1.09,0.131,1.734,0.131c0.674,0,1.332-0.051,1.977-0.153c0.643-0.103,1.111-0.198,1.404-0.286v-6.005
			c-0.324-0.099-0.648-0.208-0.975-0.329c0,0-2.266-0.713-2.861-2.62c0.881,0.732,1.914,1.318,3.096,1.756
			c0.248,0.092,0.496,0.175,0.74,0.253v-0.009c0.26,0.091,0.527,0.171,0.797,0.241c0.025,0.007,0.051,0.012,0.074,0.019
			c0.834,0.207,1.713,0.311,2.641,0.311c1.67,0,3.184-0.234,4.545-0.702c1.361-0.468,2.525-1.178,3.492-2.13
			c0.965-0.951,1.713-2.13,2.24-3.535c0.525-1.405,0.789-3.044,0.789-4.918C22.065,18.552,21.759,16.861,21.144,15.441z
			 M12.999,24.874c-0.004,0.004-0.008,0.008-0.014,0.012c-0.098,0.091-0.201,0.176-0.311,0.255
			c-0.012,0.008-0.021,0.016-0.033,0.023c-0.104,0.074-0.211,0.141-0.324,0.204c-0.018,0.01-0.035,0.02-0.053,0.029
			c-0.111,0.059-0.223,0.111-0.34,0.159c-0.023,0.01-0.047,0.02-0.07,0.03c-0.115,0.044-0.234,0.083-0.355,0.118
			c-0.031,0.009-0.059,0.018-0.09,0.026c-0.121,0.033-0.246,0.059-0.373,0.083c-0.035,0.006-0.066,0.014-0.104,0.02
			c-0.129,0.021-0.262,0.037-0.396,0.049c-0.039,0.004-0.074,0.009-0.109,0.012c-0.025,0.001-0.047,0.005-0.07,0.007
			c-0.059,0.026-0.117,0.042-0.176,0.042c-1.045,0-1.906-0.178-2.588-0.573c-0.047-0.022-0.096-0.043-0.141-0.066v-0.001
			c-0.004-0.001-0.008-0.002-0.01-0.004v-0.021c-1.189-0.776-1.785-2.275-1.785-4.736c0-1.873,0.27-3.273,1.016-4.181
			c0.621-0.754,1.258-1.186,2.498-1.312c0.283-0.044,0.584-0.069,0.908-0.069c0.879,0,1.631,0.178,2.252,0.535
			c0.373,0.213,0.701,0.49,0.982,0.831c0.746,0.908,1.119,2.299,1.119,4.172C14.433,22.54,13.95,23.989,12.999,24.874z"/>
		<path display="inline" fill="#FFFFFF" d="M32.087,14.868c-0.029,0.008-0.057,0.017-0.088,0.025
			c-0.395,0.089-0.816,0.134-1.254,0.134c-0.518,0-1.063-0.061-1.666-0.188c-2.365-0.496-4.416-1.509-6.1-3.011
			c-0.662-0.59-1.119-1.196-1.402-1.855c-0.121-0.281-0.188-0.557-0.201-0.827c-0.117-0.002-0.232-0.006-0.348-0.006
			c-1.543,0-2.947,0.152-4.213,0.453c0.889,0.428,1.701,0.954,2.42,1.575c1.184,1.025,2.123,2.324,2.791,3.859
			c0.572,0.074,1.078,0.234,1.52,0.488c0.373,0.213,0.699,0.49,0.98,0.831c0.746,0.908,1.121,2.299,1.121,4.172
			c0,2.022-0.482,3.471-1.434,4.356c-0.006,0.004-0.01,0.008-0.014,0.013c-0.1,0.091-0.203,0.176-0.311,0.255
			c-0.012,0.008-0.023,0.016-0.035,0.023c-0.104,0.074-0.211,0.141-0.324,0.204c-0.018,0.01-0.035,0.02-0.053,0.029
			c-0.107,0.059-0.223,0.111-0.34,0.159c-0.023,0.01-0.047,0.02-0.07,0.03c-0.115,0.044-0.234,0.083-0.355,0.118
			c-0.029,0.009-0.059,0.019-0.088,0.027c-0.121,0.032-0.248,0.059-0.373,0.083c-0.029,0.005-0.057,0.011-0.084,0.016
			c-0.574,1.509-1.396,2.798-2.447,3.832c-0.516,0.508-1.088,0.955-1.707,1.34c0.23,0.084,0.459,0.162,0.688,0.234v-0.009
			c0.262,0.091,0.527,0.171,0.797,0.241c0.025,0.007,0.051,0.012,0.074,0.019c0.834,0.207,1.713,0.311,2.643,0.311
			c1.668,0,3.182-0.234,4.545-0.702c1.359-0.468,2.525-1.178,3.49-2.13c0.965-0.951,1.713-2.129,2.24-3.535s0.791-3.044,0.791-4.918
			c0-1.961-0.309-3.651-0.924-5.071C32.272,15.245,32.183,15.055,32.087,14.868z"/>
		<path display="inline" fill-rule="evenodd" clip-rule="evenodd" fill="#F4A642" d="M34.517,10.647
			c-0.045,0.099-0.072,0.165-0.104,0.231c-0.355,0.799-0.73,1.589-1.059,2.399c-0.256,0.631-0.758,0.98-1.463,1.138
			c-0.881,0.199-1.795,0.138-2.711-0.055c-2.213-0.463-4.193-1.396-5.877-2.897c-0.549-0.488-1.002-1.038-1.279-1.684
			c-0.213-0.496-0.23-0.972-0.018-1.437c0.381-0.825,0.742-1.658,1.111-2.488c0.029-0.067,0.059-0.133,0.104-0.232
			c0.074,0.073,0.131,0.121,0.178,0.173c1.418,1.49,2.836,2.978,4.246,4.473c0.135,0.143,0.26,0.201,0.455,0.205
			c2.063,0.046,4.125,0.103,6.188,0.156C34.349,10.632,34.409,10.639,34.517,10.647z"/>
		<g display="inline">
			<path fill-rule="evenodd" clip-rule="evenodd" fill="#F4A642" d="M37.474,10.474c0,1.063-0.002,2.128,0,3.192
				c0,0.188,0.012,0.355-0.215,0.491c-0.209,0.126-0.201,0.396-0.039,0.569c0.059,0.063,0.133,0.112,0.211,0.175
				c-0.266,0.555-0.531,1.112-0.803,1.681c0.691,0,1.342,0.001,2.023,0.001c-0.271-0.572-0.537-1.127-0.799-1.677
				c0.432-0.346,0.43-0.483,0.012-0.87c-0.039-0.038-0.049-0.11-0.049-0.166c-0.004-1.22,0.002-2.44-0.004-3.66
				c0-0.054,0.01-0.095,0.033-0.129l-0.371,0.165C37.474,10.34,37.474,10.408,37.474,10.474z"/>
			<path fill-rule="evenodd" clip-rule="evenodd" fill="#F4A642" d="M39.882,10.263c-2.654-2.791-5.309-5.581-7.959-8.376
				c-0.135-0.143-0.26-0.2-0.455-0.205c-1.643-0.036-3.283-0.083-4.924-0.125c-2.246-0.059-4.492-0.117-6.789-0.177
				c0.063,0.071,0.096,0.11,0.133,0.147c2.668,2.81,5.334,5.619,8.008,8.424c0.064,0.068,0.201,0.122,0.297,0.124
				c2.949,0.083,5.898,0.159,8.85,0.236l0,0l0.928,0.024c0.01,0,0.016-0.001,0.027-0.001c0.574,0.021,1.15,0.034,1.727,0.049
				c0.076,0.001,0.154-0.003,0.254-0.004C39.931,10.321,39.909,10.292,39.882,10.263z"/>
		</g>
	</g>
	<g>
		<path d="M17.022,31.543c-0.373,0.178-0.76,0.337-1.16,0.475c-1.393,0.479-2.949,0.729-4.627,0.751v2.337
			c0,0.731,0.088,1.324,0.264,1.778c0.176,0.454,0.439,0.812,0.791,1.076c0.35,0.264,0.781,0.439,1.295,0.527
			c0.512,0.087,1.09,0.131,1.734,0.131c0.674,0,1.332-0.051,1.977-0.153c0.643-0.103,1.111-0.198,1.404-0.286v-6.005
			c-0.322-0.099-0.646-0.208-0.975-0.329C17.726,31.847,17.429,31.753,17.022,31.543z"/>
		<path d="M21.144,15.441c-0.615-1.42-1.465-2.598-2.547-3.536c-1.084-0.937-2.379-1.631-3.887-2.085
			C13.202,9.367,11.571,9.14,9.813,9.14c-1.668,0-3.176,0.176-4.521,0.527c-1.348,0.351-2.475,0.82-3.381,1.405
			c-0.588,0.41-1.049,0.864-1.385,1.361c-0.336,0.499-0.504,1.142-0.504,1.933v20.742c0,0.731,0.088,1.324,0.262,1.778
			c0.178,0.453,0.441,0.812,0.791,1.075c0.352,0.264,0.783,0.439,1.297,0.527c0.512,0.087,1.09,0.131,1.734,0.131
			c0.674,0,1.332-0.051,1.977-0.153c0.643-0.103,1.111-0.198,1.404-0.286v-6.005c-0.324-0.099-0.648-0.208-0.975-0.329
			c0,0-2.266-0.713-2.861-2.62c0.881,0.732,1.914,1.318,3.096,1.756c0.248,0.092,0.496,0.175,0.74,0.253v-0.009
			c0.26,0.091,0.527,0.171,0.797,0.241c0.025,0.007,0.051,0.012,0.074,0.019c0.834,0.207,1.713,0.311,2.641,0.311
			c1.67,0,3.184-0.234,4.545-0.702c1.361-0.468,2.525-1.178,3.492-2.13c0.965-0.951,1.713-2.13,2.24-3.535
			c0.525-1.405,0.789-3.044,0.789-4.918C22.065,18.552,21.759,16.861,21.144,15.441z M12.999,24.874
			c-0.004,0.004-0.008,0.008-0.014,0.012c-0.098,0.091-0.201,0.176-0.311,0.255c-0.012,0.008-0.021,0.016-0.033,0.023
			c-0.104,0.074-0.211,0.141-0.324,0.204c-0.018,0.01-0.035,0.02-0.053,0.029c-0.111,0.059-0.223,0.111-0.34,0.159
			c-0.023,0.01-0.047,0.02-0.07,0.03c-0.115,0.044-0.234,0.083-0.355,0.118c-0.031,0.009-0.059,0.018-0.09,0.026
			c-0.121,0.033-0.246,0.059-0.373,0.083c-0.035,0.006-0.066,0.014-0.104,0.02c-0.129,0.021-0.262,0.037-0.396,0.049
			c-0.039,0.004-0.074,0.009-0.109,0.012c-0.025,0.001-0.047,0.005-0.07,0.007c-0.059,0.026-0.117,0.042-0.176,0.042
			c-1.045,0-1.906-0.178-2.588-0.573c-0.047-0.022-0.096-0.043-0.141-0.066v-0.001c-0.004-0.001-0.008-0.002-0.01-0.004v-0.021
			c-1.189-0.776-1.785-2.275-1.785-4.736c0-1.873,0.27-3.273,1.016-4.181c0.621-0.754,1.258-1.186,2.498-1.312
			c0.283-0.044,0.584-0.069,0.908-0.069c0.879,0,1.631,0.178,2.252,0.535c0.373,0.213,0.701,0.49,0.982,0.831
			c0.746,0.908,1.119,2.299,1.119,4.172C14.433,22.54,13.95,23.989,12.999,24.874z"/>
		<path d="M32.087,14.868c-0.029,0.008-0.057,0.017-0.088,0.025c-0.395,0.089-0.816,0.134-1.254,0.134
			c-0.518,0-1.063-0.061-1.666-0.188c-2.365-0.496-4.416-1.509-6.1-3.011c-0.662-0.59-1.119-1.196-1.402-1.855
			c-0.121-0.281-0.188-0.557-0.201-0.827c-0.117-0.002-0.232-0.006-0.348-0.006c-1.543,0-2.947,0.152-4.213,0.453
			c0.889,0.428,1.701,0.954,2.42,1.575c1.184,1.025,2.123,2.324,2.791,3.859c0.572,0.074,1.078,0.234,1.52,0.488
			c0.373,0.213,0.699,0.49,0.98,0.831c0.746,0.908,1.121,2.299,1.121,4.172c0,2.022-0.482,3.471-1.434,4.356
			c-0.006,0.004-0.01,0.008-0.014,0.013c-0.1,0.091-0.203,0.176-0.311,0.255c-0.012,0.008-0.023,0.016-0.035,0.023
			c-0.104,0.074-0.211,0.141-0.324,0.204c-0.018,0.01-0.035,0.02-0.053,0.029c-0.107,0.059-0.223,0.111-0.34,0.159
			c-0.023,0.01-0.047,0.02-0.07,0.03c-0.115,0.044-0.234,0.083-0.355,0.118c-0.029,0.009-0.059,0.019-0.088,0.027
			c-0.121,0.032-0.248,0.059-0.373,0.083c-0.029,0.005-0.057,0.011-0.084,0.016c-0.574,1.509-1.396,2.798-2.447,3.832
			c-0.516,0.508-1.088,0.955-1.707,1.34c0.23,0.084,0.459,0.162,0.688,0.234v-0.009c0.262,0.091,0.527,0.171,0.797,0.241
			c0.025,0.007,0.051,0.012,0.074,0.019c0.834,0.207,1.713,0.311,2.643,0.311c1.668,0,3.182-0.234,4.545-0.702
			c1.359-0.468,2.525-1.178,3.49-2.13c0.965-0.951,1.713-2.129,2.24-3.535s0.791-3.044,0.791-4.918c0-1.961-0.309-3.651-0.924-5.071
			C32.272,15.245,32.183,15.055,32.087,14.868z"/>
		<path fill-rule="evenodd" clip-rule="evenodd" fill="#FFFFFF" d="M34.517,10.647c-0.045,0.099-0.072,0.165-0.104,0.231
			c-0.355,0.799-0.73,1.589-1.059,2.399c-0.256,0.631-0.758,0.98-1.463,1.138c-0.881,0.199-1.795,0.138-2.711-0.055
			c-2.213-0.463-4.193-1.396-5.877-2.897c-0.549-0.488-1.002-1.038-1.279-1.684c-0.213-0.496-0.23-0.972-0.018-1.437
			c0.381-0.825,0.742-1.658,1.111-2.488c0.029-0.067,0.059-0.133,0.104-0.232c0.074,0.073,0.131,0.121,0.178,0.173
			c1.418,1.49,2.836,2.978,4.246,4.473c0.135,0.143,0.26,0.201,0.455,0.205c2.063,0.046,4.125,0.103,6.188,0.156
			C34.349,10.632,34.409,10.639,34.517,10.647z"/>
		<g>
			<path fill-rule="evenodd" clip-rule="evenodd" fill="#FFFFFF" d="M37.474,10.474c0,1.063-0.002,2.128,0,3.192
				c0,0.188,0.012,0.355-0.215,0.491c-0.209,0.126-0.201,0.396-0.039,0.569c0.059,0.063,0.133,0.112,0.211,0.175
				c-0.266,0.555-0.531,1.112-0.803,1.681c0.691,0,1.342,0.001,2.023,0.001c-0.271-0.572-0.537-1.127-0.799-1.677
				c0.432-0.346,0.43-0.483,0.012-0.87c-0.039-0.038-0.049-0.11-0.049-0.166c-0.004-1.22,0.002-2.44-0.004-3.66
				c0-0.054,0.01-0.095,0.033-0.129l-0.371,0.165C37.474,10.34,37.474,10.408,37.474,10.474z"/>
			<path fill-rule="evenodd" clip-rule="evenodd" fill="#FFFFFF" d="M39.882,10.263c-2.654-2.791-5.309-5.581-7.959-8.376
				c-0.135-0.143-0.26-0.2-0.455-0.205c-1.643-0.036-3.283-0.083-4.924-0.125c-2.246-0.059-4.492-0.117-6.789-0.177
				c0.063,0.071,0.096,0.11,0.133,0.147c2.668,2.81,5.334,5.619,8.008,8.424c0.064,0.068,0.201,0.122,0.297,0.124
				c2.949,0.083,5.898,0.159,8.85,0.236l0,0l0.928,0.024c0.01,0,0.016-0.001,0.027-0.001c0.574,0.021,1.15,0.034,1.727,0.049
				c0.076,0.001,0.154-0.003,0.254-0.004C39.931,10.321,39.909,10.292,39.882,10.263z"/>
		</g>
	</g>
</g>
</svg>
