<?xml version="1.0" encoding="utf-8"?>
<!-- Generator: Adobe Illustrator 16.0.0, SVG Export Plug-In . SVG Version: 6.00 Build 0)  -->
<!DOCTYPE svg PUBLIC "-//W3C//DTD SVG 1.0//EN" "http://www.w3.org/TR/2001/REC-SVG-20010904/DTD/svg10.dtd">
<svg version="1.0" id="Layer_1" xmlns="http://www.w3.org/2000/svg" xmlns:xlink="http://www.w3.org/1999/xlink" x="0px" y="0px"
	 width="30px" height="30px" viewBox="0 0 30 30" enable-background="new 0 0 30 30" xml:space="preserve">
<g>
	<rect fill="#323232" width="9" height="30"/>
	<path fill="#FFFFFF" d="M4.179,8.666c0.041,0.093,0.096,0.166,0.166,0.22c0.074,0.055,0.162,0.09,0.268,0.108
		c0.104,0.018,0.223,0.027,0.355,0.027c0.132,0,0.262-0.011,0.391-0.032C5.487,8.969,5.585,8.952,5.651,8.94V4.25
		c0-0.258-0.074-0.461-0.225-0.611c-0.151-0.15-0.355-0.224-0.613-0.224H4.481L3.474,3.756C3.036,3.9,2.817,4.152,2.817,4.512
		c0,0.192,0.043,0.341,0.135,0.45c0.09,0.107,0.18,0.192,0.268,0.252l0.902-0.28v3.367C4.122,8.451,4.142,8.573,4.179,8.666z"/>
</g>
<g>
	<rect x="10.5" y="7.5" fill="#323232" width="9" height="22.5"/>
	<path fill="#FFFFFF" d="M15.249,13.04c-0.064,0.083-0.148,0.178-0.25,0.283c-0.104,0.104-0.23,0.223-0.387,0.354L13.37,14.74
		c-0.102,0.083-0.195,0.196-0.279,0.338c-0.084,0.141-0.125,0.313-0.125,0.517c0,0.192,0.037,0.358,0.111,0.5
		c0.076,0.142,0.178,0.257,0.311,0.347h3.124c0.155,0,0.28-0.047,0.377-0.141c0.098-0.092,0.146-0.246,0.146-0.463
		c0-0.12-0.019-0.23-0.05-0.332c-0.034-0.103-0.067-0.187-0.104-0.253h-2.16l1.18-0.945c0.715-0.57,1.07-1.169,1.07-1.8
		c0-0.234-0.05-0.453-0.144-0.657c-0.097-0.204-0.238-0.381-0.425-0.531c-0.186-0.149-0.409-0.269-0.674-0.355
		c-0.266-0.087-0.567-0.131-0.91-0.131c-0.498,0-0.895,0.076-1.189,0.229c-0.293,0.154-0.439,0.386-0.439,0.699
		c0,0.144,0.033,0.27,0.098,0.377c0.068,0.107,0.15,0.198,0.254,0.27c0.125-0.084,0.283-0.164,0.473-0.238
		c0.188-0.075,0.402-0.113,0.643-0.113c0.217,0,0.398,0.048,0.543,0.144c0.148,0.096,0.221,0.229,0.221,0.396
		c0,0.067-0.012,0.136-0.039,0.208C15.354,12.877,15.31,12.955,15.249,13.04z"/>
</g>
<g>
	<rect x="21" y="16.5" fill="#323232" width="9" height="13.5"/>
	<path fill="#FFFFFF" d="M25.068,24.378c-0.321,0-0.586-0.046-0.786-0.139c-0.199-0.093-0.361-0.183-0.48-0.267
		c-0.114,0.067-0.211,0.158-0.286,0.274c-0.078,0.117-0.117,0.257-0.117,0.419c0,0.27,0.158,0.492,0.477,0.665
		c0.316,0.174,0.789,0.262,1.414,0.262c0.322,0,0.621-0.038,0.895-0.112c0.271-0.074,0.51-0.185,0.707-0.328
		c0.199-0.146,0.353-0.319,0.463-0.523c0.109-0.203,0.166-0.436,0.166-0.691c0-0.192-0.022-0.36-0.071-0.504
		c-0.048-0.144-0.113-0.271-0.197-0.377c-0.084-0.108-0.181-0.199-0.289-0.271c-0.106-0.072-0.226-0.132-0.351-0.181
		c0.209-0.102,0.394-0.252,0.543-0.455c0.154-0.2,0.23-0.445,0.23-0.732c0-0.48-0.18-0.861-0.541-1.148
		c-0.359-0.283-0.885-0.427-1.574-0.427c-0.521,0-0.938,0.07-1.252,0.212c-0.311,0.141-0.465,0.361-0.465,0.661
		c0,0.144,0.031,0.269,0.098,0.374c0.067,0.105,0.148,0.193,0.25,0.266c0.121-0.084,0.273-0.154,0.461-0.211
		c0.187-0.057,0.402-0.086,0.648-0.086c0.273,0,0.482,0.049,0.621,0.145c0.137,0.097,0.205,0.222,0.205,0.378
		c0,0.33-0.215,0.495-0.648,0.495h-0.846c-0.047,0.066-0.084,0.148-0.113,0.247c-0.024,0.099-0.039,0.219-0.039,0.356
		c0,0.131,0.017,0.245,0.045,0.342c0.031,0.097,0.068,0.178,0.107,0.244h0.846c0.289,0,0.492,0.045,0.609,0.135
		s0.174,0.222,0.174,0.396c0,0.173-0.072,0.313-0.221,0.423C25.604,24.324,25.378,24.378,25.068,24.378z"/>
</g>
</svg>
