<?xml version="1.0" encoding="utf-8"?>
<!-- Generator: Adobe Illustrator 16.0.0, SVG Export Plug-In . SVG Version: 6.00 Build 0)  -->
<!DOCTYPE svg PUBLIC "-//W3C//DTD SVG 1.1//EN" "http://www.w3.org/Graphics/SVG/1.1/DTD/svg11.dtd">
<svg version="1.1" id="Layer_1" xmlns="http://www.w3.org/2000/svg" xmlns:xlink="http://www.w3.org/1999/xlink" x="0px" y="0px"
	 width="40px" height="40px" viewBox="0 0 40 40" enable-background="new 0 0 40 40" xml:space="preserve">
<path fill="#323232" d="M17.022,31.543c-0.373,0.178-0.76,0.337-1.16,0.475c-1.393,0.479-2.949,0.729-4.627,0.752v2.336
	c0,0.731,0.088,1.324,0.264,1.778s0.439,0.812,0.791,1.076c0.35,0.265,0.781,0.438,1.295,0.526c0.512,0.088,1.09,0.132,1.734,0.132
	c0.674,0,1.332-0.052,1.977-0.153c0.643-0.104,1.111-0.197,1.404-0.285v-6.006c-0.322-0.099-0.646-0.208-0.975-0.329
	C17.726,31.848,17.429,31.753,17.022,31.543z"/>
<path fill="#323232" d="M21.145,15.441c-0.615-1.42-1.464-2.598-2.546-3.536c-1.084-0.938-2.379-1.631-3.887-2.085
	c-1.508-0.453-3.139-0.68-4.897-0.68c-1.668,0-3.176,0.176-4.521,0.527c-1.348,0.351-2.475,0.82-3.381,1.405
	c-0.588,0.41-1.049,0.864-1.385,1.361c-0.336,0.499-0.504,1.142-0.504,1.933v20.741c0,0.73,0.088,1.324,0.262,1.777
	c0.178,0.453,0.441,0.813,0.791,1.075c0.352,0.265,0.783,0.438,1.297,0.526c0.512,0.088,1.09,0.132,1.734,0.132
	c0.674,0,1.332-0.052,1.977-0.153c0.643-0.104,1.111-0.197,1.404-0.285v-6.006c-0.324-0.099-0.648-0.208-0.975-0.329
	c0,0-2.266-0.713-2.861-2.618c0.881,0.73,1.914,1.316,3.096,1.756c0.248,0.092,0.496,0.175,0.74,0.252v-0.008
	c0.26,0.09,0.527,0.17,0.797,0.239c0.025,0.009,0.051,0.013,0.074,0.021c0.834,0.207,1.713,0.311,2.641,0.311
	c1.67,0,3.184-0.234,4.545-0.701c1.361-0.469,2.525-1.179,3.492-2.131c0.965-0.951,1.713-2.13,2.238-3.535
	c0.525-1.404,0.789-3.044,0.789-4.918C22.064,18.552,21.759,16.861,21.145,15.441z M12.999,24.874
	c-0.004,0.004-0.008,0.008-0.014,0.012c-0.098,0.091-0.201,0.177-0.311,0.255c-0.012,0.008-0.021,0.018-0.033,0.023
	c-0.104,0.074-0.211,0.141-0.324,0.204c-0.018,0.01-0.035,0.021-0.053,0.028c-0.111,0.06-0.223,0.11-0.34,0.16
	c-0.023,0.01-0.047,0.02-0.07,0.028c-0.115,0.044-0.234,0.083-0.355,0.118c-0.031,0.009-0.059,0.02-0.09,0.025
	c-0.121,0.033-0.246,0.06-0.373,0.082c-0.035,0.006-0.066,0.016-0.104,0.021c-0.129,0.021-0.262,0.037-0.396,0.049
	c-0.039,0.004-0.074,0.01-0.109,0.014c-0.025,0-0.047,0.004-0.07,0.006c-0.059,0.025-0.117,0.043-0.176,0.043
	c-1.045,0-1.906-0.178-2.588-0.573c-0.047-0.022-0.096-0.043-0.141-0.065v-0.002c-0.004-0.001-0.008-0.002-0.01-0.004v-0.021
	c-1.189-0.774-1.785-2.273-1.785-4.734c0-1.873,0.27-3.273,1.016-4.181c0.621-0.754,1.258-1.186,2.498-1.312
	c0.283-0.044,0.584-0.069,0.908-0.069c0.879,0,1.631,0.178,2.252,0.535c0.373,0.213,0.701,0.49,0.982,0.831
	c0.746,0.908,1.119,2.299,1.119,4.17C14.433,22.54,13.95,23.989,12.999,24.874z"/>
<path fill="#323232" d="M32.087,14.868c-0.028,0.008-0.058,0.017-0.088,0.025c-0.396,0.089-0.815,0.134-1.254,0.134
	c-0.519,0-1.063-0.061-1.666-0.188c-2.365-0.496-4.416-1.509-6.101-3.011c-0.662-0.59-1.119-1.196-1.401-1.855
	c-0.121-0.281-0.188-0.557-0.201-0.827c-0.117-0.002-0.231-0.006-0.349-0.006c-1.542,0-2.946,0.152-4.212,0.453
	c0.889,0.428,1.701,0.954,2.42,1.575c1.184,1.025,2.123,2.324,2.791,3.859c0.572,0.074,1.078,0.234,1.521,0.488
	c0.373,0.213,0.699,0.49,0.979,0.831c0.746,0.908,1.121,2.299,1.121,4.171c0,2.021-0.48,3.472-1.434,4.355
	c-0.006,0.004-0.01,0.008-0.014,0.013c-0.1,0.093-0.203,0.177-0.311,0.257c-0.014,0.008-0.023,0.016-0.035,0.021
	c-0.104,0.074-0.211,0.143-0.324,0.204c-0.018,0.01-0.035,0.021-0.053,0.028c-0.107,0.06-0.225,0.11-0.34,0.158
	c-0.023,0.01-0.049,0.021-0.07,0.03c-0.115,0.044-0.234,0.083-0.355,0.118c-0.029,0.009-0.059,0.02-0.088,0.027
	c-0.121,0.03-0.248,0.059-0.373,0.082c-0.029,0.006-0.057,0.012-0.084,0.017c-0.574,1.509-1.396,2.798-2.447,3.832
	c-0.516,0.508-1.088,0.955-1.707,1.34c0.23,0.084,0.459,0.162,0.688,0.233v-0.008c0.262,0.09,0.527,0.17,0.797,0.239
	c0.025,0.009,0.051,0.013,0.074,0.021c0.834,0.207,1.713,0.311,2.643,0.311c1.668,0,3.183-0.234,4.545-0.701
	c1.359-0.469,2.525-1.179,3.49-2.131c0.965-0.951,1.713-2.129,2.239-3.535c0.527-1.406,0.791-3.043,0.791-4.918
	c0-1.961-0.309-3.651-0.924-5.071C32.271,15.245,32.184,15.055,32.087,14.868z"/>
<path fill="#FFFFFF" d="M34.518,10.647c-0.045,0.099-0.072,0.165-0.104,0.231c-0.354,0.799-0.729,1.589-1.061,2.399
	c-0.256,0.631-0.758,0.98-1.463,1.138c-0.881,0.199-1.795,0.138-2.711-0.055c-2.213-0.463-4.193-1.396-5.877-2.897
	c-0.549-0.488-1.002-1.038-1.279-1.684c-0.213-0.496-0.229-0.972-0.018-1.437c0.381-0.825,0.742-1.658,1.111-2.488
	c0.029-0.067,0.059-0.133,0.104-0.232c0.074,0.073,0.131,0.121,0.178,0.173c1.418,1.49,2.836,2.978,4.246,4.473
	c0.135,0.143,0.26,0.201,0.455,0.205c2.063,0.046,4.125,0.103,6.188,0.156C34.35,10.632,34.409,10.639,34.518,10.647z"/>
<path fill="#FFFFFF" d="M37.998,10.334c0.574,0.021,1.15,0.034,1.727,0.049c0.076,0.001,0.154-0.003,0.254-0.004
	c-0.047-0.058-0.068-0.087-0.097-0.116c-2.653-2.791-5.309-5.581-7.959-8.376c-0.135-0.143-0.26-0.2-0.455-0.205
	c-1.643-0.036-3.282-0.083-4.924-0.125c-2.246-0.059-4.491-0.117-6.789-0.177c0.063,0.071,0.096,0.11,0.133,0.147
	c2.668,2.81,5.334,5.619,8.008,8.424c0.063,0.068,0.201,0.122,0.297,0.124c2.949,0.083,5.896,0.159,8.85,0.236l0.432,0.011
	c0,0.053,0,0.108,0,0.152c0,1.063-0.002,2.128,0,3.192c0,0.188,0.012,0.355-0.216,0.491c-0.209,0.126-0.2,0.396-0.038,0.569
	c0.059,0.063,0.133,0.112,0.211,0.175c-0.267,0.555-0.531,1.112-0.804,1.681c0.69,0,1.343,0.001,2.022,0.001
	c-0.271-0.572-0.537-1.127-0.799-1.677c0.433-0.346,0.431-0.483,0.012-0.87c-0.038-0.038-0.049-0.11-0.049-0.166
	c-0.004-1.18,0-2.359-0.004-3.539l0.16,0.004C37.98,10.335,37.986,10.334,37.998,10.334z"/>
</svg>
