<?xml version="1.0" encoding="utf-8"?>
<!-- Generator: Adobe Illustrator 16.0.0, SVG Export Plug-In . SVG Version: 6.00 Build 0)  -->
<!DOCTYPE svg PUBLIC "-//W3C//DTD SVG 1.0//EN" "http://www.w3.org/TR/2001/REC-SVG-20010904/DTD/svg10.dtd">
<svg version="1.0" id="Layer_1" xmlns="http://www.w3.org/2000/svg" xmlns:xlink="http://www.w3.org/1999/xlink" x="0px" y="0px"
	 width="75px" height="75px" viewBox="0 0 75 75" enable-background="new 0 0 75 75" xml:space="preserve">
<path fill="#264DE3" d="M70.275,0C48.416,0,26.556,0,4.695,0C4.604,0,4.513,0.006,4.421,0.009c0,0.092,0,0.185,0,0.276
	c0.053,0.491,0.115,0.982,0.158,1.474C4.764,3.781,4.944,5.805,5.121,7.83c0.174,1.959,0.343,3.918,0.519,5.878
	c0.174,1.958,0.353,3.916,0.529,5.875c0.156,1.758,0.307,3.516,0.462,5.273c0.193,2.161,0.394,4.32,0.585,6.48
	c0.157,1.758,0.307,3.516,0.464,5.274c0.175,1.957,0.356,3.916,0.53,5.875c0.156,1.748,0.307,3.496,0.462,5.246
	c0.158,1.756,0.319,3.514,0.476,5.271c0.156,1.739,0.305,3.479,0.46,5.218c0.158,1.757,0.318,3.515,0.474,5.272
	c0.058,0.633,0.111,1.267,0.168,1.9v1.982l0.201,0.043c0.032,0.107,0.092,0.168,0.221,0.204c7.771,2.153,15.543,4.313,23.315,6.472
	c1.043,0.29,2.087,0.577,3.13,0.867c0.086,0.023,0.165,0.066,0.248,0.102c0.075,0,0.147,0,0.222,0
	c0.611-0.182,1.222-0.371,1.836-0.543c5.739-1.592,11.478-3.18,17.218-4.77c2.563-0.712,5.125-1.426,7.69-2.132
	c0.133-0.037,0.188-0.104,0.222-0.203l0.184-0.04v-1.753c0.203-2.322,0.409-4.644,0.617-6.965c0.276-3.095,0.554-6.188,0.828-9.282
	c0.276-3.094,0.551-6.188,0.83-9.282c0.266-2.975,0.537-5.948,0.805-8.923c0.213-2.38,0.416-4.761,0.629-7.141
	c0.248-2.783,0.505-5.565,0.755-8.347c0.231-2.572,0.452-5.146,0.681-7.718c0.227-2.572,0.467-5.143,0.695-7.715
	C70.583,0.177,70.577,0.104,70.577,0C70.473,0,70.377,0,70.275,0z"/>
<path fill="#2965F0" d="M64.273,5.528c-8.811,0-17.621,0.001-26.432-0.006c-0.265,0-0.317,0.085-0.315,0.328
	c0.006,2.649,0.004,5.297,0.004,7.946c0.111,0.003,0.22,0.009,0.331,0.01c6.667,0,13.335,0,20.003,0c0.109,0,0.217,0,0.363,0
	c-0.043,0.527-0.084,1.034-0.129,1.542c-0.121,1.354-0.246,2.709-0.367,4.063c-0.164,1.775-0.322,3.551-0.479,5.326
	c-0.134,1.519-0.267,3.039-0.403,4.558c-0.142,1.566-0.283,3.131-0.425,4.695c-0.136,1.529-0.269,3.058-0.405,4.586
	c-0.16,1.767-0.32,3.531-0.478,5.299c-0.134,1.52-0.267,3.039-0.403,4.559c-0.143,1.575-0.283,3.148-0.426,4.724
	c-0.079,0.888-0.162,1.776-0.229,2.663c-0.012,0.162-0.074,0.22-0.217,0.259c-4.916,1.358-9.832,2.722-14.748,4.085
	c-0.664,0.184-1.324,0.375-1.987,0.563c0,2.84,0,5.68,0,8.541c0.113-0.009,0.187,0,0.254-0.02c1.444-0.4,2.894-0.803,4.338-1.203
	c1.519-0.422,3.03-0.844,4.549-1.264c1.667-0.463,3.334-0.924,5-1.387c1.711-0.476,3.423-0.951,5.134-1.427
	c0.773-0.215,1.551-0.43,2.326-0.642c0.162-0.044,0.294-0.107,0.309-0.301c0.057-0.719,0.108-1.438,0.168-2.157
	c0.037-0.455,0.078-0.91,0.121-1.365c0.065-0.745,0.142-1.489,0.207-2.233c0.045-0.482,0.078-0.968,0.121-1.449
	c0.066-0.772,0.143-1.545,0.213-2.317c0.041-0.464,0.076-0.929,0.119-1.394c0.066-0.743,0.145-1.489,0.209-2.234
	c0.047-0.5,0.075-1.003,0.119-1.503c0.068-0.772,0.145-1.546,0.215-2.317c0.041-0.465,0.075-0.93,0.117-1.394
	c0.068-0.737,0.146-1.472,0.213-2.208c0.045-0.492,0.073-0.985,0.116-1.475c0.069-0.774,0.146-1.547,0.214-2.318
	c0.041-0.465,0.077-0.929,0.12-1.393c0.068-0.755,0.144-1.509,0.211-2.263c0.042-0.492,0.074-0.984,0.117-1.475
	c0.067-0.765,0.146-1.527,0.214-2.291c0.043-0.473,0.076-0.947,0.121-1.42c0.066-0.717,0.146-1.435,0.209-2.152
	c0.046-0.51,0.074-1.021,0.119-1.531c0.066-0.782,0.145-1.563,0.213-2.345c0.041-0.455,0.077-0.91,0.12-1.365
	c0.067-0.764,0.144-1.527,0.211-2.291c0.044-0.491,0.077-0.983,0.123-1.475c0.063-0.727,0.144-1.453,0.208-2.18
	c0.044-0.502,0.074-1.003,0.12-1.503c0.063-0.718,0.147-1.435,0.21-2.153c0.046-0.51,0.074-1.021,0.117-1.531
	c0.068-0.783,0.145-1.564,0.215-2.346c0.043-0.464,0.083-0.927,0.125-1.392c0.059-0.667,0.124-1.335,0.188-2.026
	C64.438,5.528,64.354,5.528,64.273,5.528z"/>
<path fill="#FEFEFE" d="M37.531,13.796c0.11,0.003,0.22,0.009,0.329,0.009c6.667,0,13.335,0,20.003,0c0.109,0,0.217,0,0.363,0
	c-0.043,0.526-0.084,1.034-0.129,1.542c-0.121,1.354-0.246,2.709-0.367,4.063c-0.16,1.775-0.32,3.551-0.479,5.326
	c-0.136,1.52-0.269,3.039-0.403,4.558c-0.142,1.565-0.283,3.13-0.425,4.695c-0.138,1.529-0.271,3.058-0.405,4.586
	c-0.158,1.767-0.318,3.532-0.478,5.299c-0.138,1.521-0.271,3.039-0.403,4.558c-0.143,1.574-0.283,3.148-0.426,4.725
	c-0.079,0.888-0.162,1.773-0.229,2.662c-0.012,0.162-0.074,0.222-0.217,0.26c-4.916,1.359-9.832,2.722-14.748,4.085
	c-0.664,0.185-1.324,0.375-1.988,0.563c-0.019-0.007-0.036-0.013-0.055-0.019c0-2.865,0-5.729,0-8.599
	c0.022-0.01,0.044-0.021,0.066-0.029c1.205-0.323,2.41-0.645,3.613-0.971c1.771-0.477,3.541-0.955,5.313-1.434
	c0.134-0.035,0.259-0.048,0.272-0.242c0.125-1.492,0.258-2.981,0.392-4.475c0.14-1.555,0.28-3.109,0.42-4.665
	c0.044-0.471,0.08-0.942,0.121-1.435c-0.129,0-0.229,0-0.33,0c-3.171,0-6.342,0-9.514,0c-0.101,0-0.2,0.007-0.301,0.01
	c-0.019-0.006-0.036-0.014-0.055-0.02c0-2.757,0-5.512,0-8.267c0.019-0.007,0.036-0.015,0.055-0.022
	c0.054,0.004,0.107,0.012,0.163,0.012c3.5,0,7.002,0,10.502,0c0.063,0,0.125-0.01,0.201-0.018c0.252-2.823,0.5-5.634,0.752-8.472
	c-0.129,0-0.209,0-0.289,0c-3.705,0-7.407,0-11.11,0c-0.073,0-0.146,0.008-0.219,0.012c-0.019-0.007-0.036-0.015-0.055-0.021
	c0-2.754,0.002-5.508,0.002-8.263C37.495,13.808,37.513,13.802,37.531,13.796z"/>
<path fill="#EAEAEA" d="M37.477,52.111c0,2.865,0,5.729,0,8.597c-0.742-0.199-1.488-0.394-2.229-0.599
	c-4.829-1.34-9.655-2.685-14.485-4.02c-0.198-0.055-0.273-0.128-0.291-0.342c-0.148-1.758-0.313-3.516-0.471-5.271
	c-0.138-1.547-0.271-3.095-0.406-4.642c-0.083-0.935-0.168-1.866-0.254-2.815c2.771,0,5.525,0,8.313,0
	c0.055,0.602,0.111,1.201,0.164,1.803c0.136,1.52,0.271,3.039,0.398,4.559c0.016,0.192,0.105,0.256,0.278,0.303
	C31.489,50.488,34.484,51.301,37.477,52.111z"/>
<path fill="#EAEAEA" d="M37.479,13.814c0,2.755-0.002,5.509-0.002,8.263c-0.101,0.004-0.201,0.01-0.301,0.01
	c-6.446,0-12.891,0-19.335,0c-0.109,0-0.218,0-0.354,0c-0.251-2.763-0.5-5.505-0.751-8.268c0.089-0.005,0.171-0.014,0.25-0.014
	c6.767,0,13.533,0,20.3,0C37.35,13.806,37.414,13.812,37.479,13.814z"/>
<path fill="#EAEAEA" d="M37.477,30.587c0,2.755,0,5.51,0,8.265c-0.09,0.004-0.183,0.01-0.274,0.01c-5.968,0-11.934,0-17.902,0
	c-0.1,0-0.2,0-0.33,0c-0.246-2.756-0.494-5.5-0.741-8.267c0.087-0.006,0.165-0.016,0.243-0.016
	c6.281-0.001,12.561-0.001,18.84-0.001C37.367,30.578,37.423,30.584,37.477,30.587z"/>
<path fill="#2965F0" d="M37.531,38.872c0.101-0.003,0.2-0.011,0.301-0.011c3.172,0,6.343,0,9.514,0c0.103,0,0.201,0,0.33,0
	c-0.041,0.494-0.078,0.965-0.121,1.436c-0.14,1.555-0.281,3.11-0.42,4.665c-0.134,1.491-0.267,2.983-0.392,4.476
	c-0.017,0.193-0.142,0.207-0.272,0.242c-1.771,0.479-3.541,0.957-5.313,1.435c-1.204,0.323-2.409,0.646-3.614,0.969
	c-0.004-0.138-0.011-0.274-0.011-0.413C37.531,47.402,37.531,43.139,37.531,38.872z"/>
<path fill="#2A65F0" d="M37.531,22.1c0.072-0.004,0.146-0.012,0.219-0.012c3.703,0,7.407,0,11.111,0c0.08,0,0.16,0,0.289,0
	c-0.252,2.838-0.5,5.649-0.752,8.472c-0.076,0.007-0.14,0.018-0.2,0.018c-3.5,0-7.003,0-10.504,0c-0.056,0-0.109-0.008-0.163-0.012
	C37.531,27.743,37.531,24.922,37.531,22.1z"/>
</svg>
