<?xml version="1.0" encoding="utf-8"?>
<!-- Generator: Adobe Illustrator 16.0.0, SVG Export Plug-In . SVG Version: 6.00 Build 0)  -->
<!DOCTYPE svg PUBLIC "-//W3C//DTD SVG 1.0//EN" "http://www.w3.org/TR/2001/REC-SVG-20010904/DTD/svg10.dtd">
<svg version="1.0" id="Layer_1" xmlns="http://www.w3.org/2000/svg" xmlns:xlink="http://www.w3.org/1999/xlink" x="0px" y="0px"
	 width="30px" height="30px" viewBox="0 0 30 30" enable-background="new 0 0 30 30" xml:space="preserve">
<path fill="#FFFFFF" d="M21,16.5V30h9V16.5H21z M27.35,24.629c-0.111,0.204-0.264,0.378-0.463,0.523
	c-0.197,0.144-0.436,0.253-0.707,0.328c-0.272,0.074-0.572,0.112-0.895,0.112c-0.625,0-1.098-0.087-1.414-0.262
	c-0.318-0.173-0.477-0.396-0.477-0.665c0-0.163,0.039-0.302,0.117-0.419c0.075-0.117,0.172-0.208,0.286-0.274
	c0.119,0.084,0.281,0.174,0.479,0.267c0.201,0.093,0.466,0.139,0.787,0.139c0.31,0,0.533-0.054,0.681-0.162s0.221-0.25,0.221-0.423
	c0-0.174-0.057-0.307-0.174-0.396s-0.319-0.135-0.608-0.135h-0.847c-0.039-0.066-0.075-0.146-0.106-0.242
	c-0.029-0.098-0.045-0.211-0.045-0.344c0-0.137,0.014-0.257,0.039-0.355c0.028-0.098,0.065-0.18,0.112-0.247h0.847
	c0.434,0,0.647-0.165,0.647-0.495c0-0.156-0.067-0.282-0.205-0.378c-0.14-0.097-0.349-0.144-0.621-0.144
	c-0.246,0-0.463,0.028-0.647,0.084c-0.188,0.059-0.34,0.129-0.461,0.211c-0.103-0.072-0.185-0.16-0.25-0.265
	c-0.066-0.104-0.099-0.229-0.099-0.374c0-0.3,0.154-0.521,0.466-0.661c0.313-0.142,0.729-0.212,1.252-0.212
	c0.688,0,1.215,0.143,1.573,0.428c0.361,0.285,0.541,0.668,0.541,1.147c0,0.288-0.075,0.533-0.229,0.733
	c-0.15,0.201-0.334,0.353-0.543,0.455c0.125,0.047,0.242,0.107,0.35,0.18c0.109,0.072,0.205,0.162,0.289,0.27
	c0.084,0.108,0.15,0.234,0.197,0.377c0.049,0.146,0.072,0.313,0.072,0.504C27.516,24.195,27.459,24.426,27.35,24.629z"/>
<path fill="#FFFFFF" d="M10.5,7.5V30h9V7.5H10.5z M16.889,16.309c-0.096,0.094-0.221,0.141-0.377,0.141h-3.123
	c-0.133-0.09-0.234-0.206-0.311-0.346c-0.074-0.142-0.111-0.308-0.111-0.5c0-0.205,0.041-0.376,0.125-0.518
	c0.084-0.142,0.178-0.254,0.279-0.338l1.242-1.062c0.156-0.132,0.283-0.25,0.387-0.355c0.102-0.105,0.186-0.2,0.25-0.283
	c0.061-0.084,0.105-0.163,0.133-0.234c0.027-0.072,0.039-0.141,0.039-0.208c0-0.167-0.072-0.3-0.221-0.396
	c-0.145-0.096-0.326-0.144-0.543-0.144c-0.24,0-0.455,0.038-0.643,0.113c-0.189,0.075-0.348,0.154-0.473,0.238
	c-0.104-0.072-0.186-0.163-0.254-0.27c-0.064-0.107-0.098-0.234-0.098-0.377c0-0.313,0.146-0.544,0.439-0.699
	c0.295-0.153,0.691-0.229,1.189-0.229c0.342,0,0.645,0.044,0.911,0.131c0.264,0.086,0.487,0.206,0.674,0.355
	c0.186,0.15,0.328,0.327,0.424,0.531c0.094,0.205,0.143,0.423,0.143,0.657c0,0.63-0.355,1.23-1.07,1.8l-1.179,0.945h2.16
	c0.037,0.066,0.07,0.15,0.105,0.253c0.031,0.103,0.049,0.213,0.049,0.332C17.035,16.063,16.986,16.217,16.889,16.309z"/>
<path fill="#FFFFFF" d="M0,0v30h9V0H0z M5.656,8.94C5.59,8.952,5.492,8.969,5.363,8.989c-0.129,0.021-0.258,0.032-0.39,0.032
	c-0.132,0-0.252-0.009-0.356-0.027C4.512,8.976,4.424,8.94,4.35,8.886c-0.07-0.054-0.125-0.127-0.166-0.22
	C4.146,8.573,4.127,8.451,4.127,8.301V4.935l-0.902,0.28C3.137,5.154,3.047,5.07,2.957,4.962c-0.092-0.109-0.135-0.258-0.135-0.45
	c0-0.36,0.219-0.612,0.656-0.756l1.008-0.341h0.332c0.258,0,0.463,0.074,0.613,0.225c0.15,0.151,0.225,0.353,0.225,0.61V8.94z"/>
</svg>
