<?xml version="1.0" encoding="utf-8"?>
<!-- Generator: Adobe Illustrator 16.0.0, SVG Export Plug-In . SVG Version: 6.00 Build 0)  -->
<!DOCTYPE svg PUBLIC "-//W3C//DTD SVG 1.0//EN" "http://www.w3.org/TR/2001/REC-SVG-20010904/DTD/svg10.dtd">
<svg version="1.0" id="Layer_1" xmlns="http://www.w3.org/2000/svg" xmlns:xlink="http://www.w3.org/1999/xlink" x="0px" y="0px"
	 width="30px" height="30px" viewBox="0 0 30 30" enable-background="new 0 0 30 30" xml:space="preserve">
<path fill="#FFFFFF" d="M5.891,21.979H0v-5.892h5.891V21.979z M0.594,21.386h4.705V16.68H0.594V21.386z"/>
<path fill="#FFFFFF" d="M5.891,13.938H0V8.047h5.891V13.938z M0.594,13.345h4.705V8.64H0.594V13.345z"/>
<path fill="#FFFFFF" d="M5.891,5.898H0V0.006h5.891V5.898z M0.594,5.305h4.705V0.599H0.594V5.305z"/>
<path fill="#FFFFFF" d="M5.891,30.02H0v-5.893h5.891V30.02z M0.594,29.426h4.705V24.72H0.594V29.426z"/>
<rect x="7.271" y="16.087" fill="#FFFFFF" width="22.729" height="5.892"/>
<rect x="7.271" y="8.047" fill="#FFFFFF" width="22.729" height="5.892"/>
<rect x="7.271" y="0.006" fill="#FFFFFF" width="22.729" height="5.892"/>
<rect x="7.271" y="24.127" fill="#FFFFFF" width="22.729" height="5.893"/>
</svg>
