<?xml version="1.0" encoding="utf-8"?>
<!-- Generator: Adobe Illustrator 16.0.0, SVG Export Plug-In . SVG Version: 6.00 Build 0)  -->
<!DOCTYPE svg PUBLIC "-//W3C//DTD SVG 1.0//EN" "http://www.w3.org/TR/2001/REC-SVG-20010904/DTD/svg10.dtd">
<svg version="1.0" xmlns="http://www.w3.org/2000/svg" xmlns:xlink="http://www.w3.org/1999/xlink" x="0px" y="0px" width="20px"
	 height="20px" viewBox="0 0 20 20" enable-background="new 0 0 20 20" xml:space="preserve">
<g id="dev">
</g>
<g id="vote_x5F_stars">
</g>
<g id="form_x5F_checkmark">
	<g display="none">
		<polygon display="inline" fill="#EB1C24" points="17.611,1.932 14.865,0.009 14.568,0.439 14.564,0.427 2.389,18.069 
			5.139,19.993 5.436,19.563 5.439,19.576 		"/>
		<polygon display="inline" fill="#EB1C24" points="2.389,1.932 5.139,0.007 5.436,0.438 5.439,0.425 17.611,18.069 14.865,19.992 
			14.568,19.561 14.564,19.575 		"/>
	</g>
	<g display="none">
		<polygon display="inline" fill="#FFFFFF" points="17.611,1.932 14.865,0.009 14.568,0.439 14.564,0.427 2.389,18.068 
			5.139,19.993 5.436,19.562 5.439,19.576 		"/>
		<polygon display="inline" fill="#FFFFFF" points="2.389,1.932 5.139,0.007 5.436,0.438 5.439,0.425 17.611,18.068 14.865,19.992 
			14.568,19.561 14.564,19.575 		"/>
	</g>
	<g display="none">
		<polygon display="inline" fill="#F4A642" points="17.611,1.932 14.865,0.009 14.568,0.439 14.564,0.427 2.389,18.069 
			5.139,19.993 5.436,19.563 5.439,19.576 		"/>
		<polygon display="inline" fill="#F4A642" points="2.389,1.932 5.139,0.007 5.436,0.438 5.439,0.425 17.611,18.069 14.865,19.992 
			14.568,19.561 14.564,19.575 		"/>
	</g>
	<g>
		<polygon fill="#010101" points="17.611,1.932 14.865,0.009 14.568,0.439 14.564,0.427 2.389,18.069 5.139,19.993 5.436,19.563 
			5.439,19.576 		"/>
		<polygon fill="#010101" points="2.389,1.932 5.139,0.007 5.436,0.438 5.439,0.425 17.611,18.069 14.865,19.992 14.568,19.561 
			14.564,19.575 		"/>
	</g>
	<path display="none" fill="#010101" d="M9.992,19.984C4.482,19.984,0,15.502,0,9.992S4.482,0,9.992,0s9.992,4.482,9.992,9.992
		S15.502,19.984,9.992,19.984z M9.992,2.093c-4.355,0-7.898,3.543-7.898,7.899s3.543,7.9,7.898,7.9c4.357,0,7.898-3.544,7.898-7.9
		S14.35,2.093,9.992,2.093z"/>
</g>
<g id="leaderboard_x5F_buttons">
</g>
<g id="footer_x5F_mobile_x5F_button">
</g>
<g id="menu_x5F_arrows">
</g>
<g id="header_x5F_icons">
</g>
<g id="footer_x5F_logos">
</g>
<g id="nav_x5F_bar_x5F_icons">
</g>
<g id="exclamation">
</g>
</svg>
