<?xml version="1.0" encoding="utf-8"?>
<!-- Generator: Adobe Illustrator 16.0.0, SVG Export Plug-In . SVG Version: 6.00 Build 0)  -->
<!DOCTYPE svg PUBLIC "-//W3C//DTD SVG 1.0//EN" "http://www.w3.org/TR/2001/REC-SVG-20010904/DTD/svg10.dtd">
<svg version="1.0" id="Layer_1" xmlns="http://www.w3.org/2000/svg" xmlns:xlink="http://www.w3.org/1999/xlink" x="0px" y="0px"
	 width="20px" height="20px" viewBox="0 0 20 20" enable-background="new 0 0 20 20" xml:space="preserve">
<path fill="#010101" d="M17.953,5.576H2.141v1.706h0.873c-0.008,0.05-0.029,0.095-0.029,0.147V19c0,0.552,0.447,1,1,1h12.125
	c0.554,0,1-0.448,1-1V7.429c0-0.052-0.021-0.097-0.028-0.147h0.873L17.953,5.576L17.953,5.576z M6.464,18.811H4.757V9.164h1.707
	V18.811z M10.934,18.811H9.227V9.164h1.707V18.811z M15.402,18.811h-1.707V9.164h1.707V18.811z"/>
<path fill="#010101" d="M17.876,2.307L17.84,1.956l-0.037-0.351c-0.029-0.275-0.273-0.474-0.549-0.445L13.17,1.586
	c-0.508-0.999-1.588-1.638-2.766-1.515L8.903,0.229c-1.177,0.123-2.1,0.972-2.39,2.053L2.521,2.7
	C2.246,2.729,2.047,2.974,2.076,3.249L2.113,3.6l0.036,0.351l0.052,0.497l0.498-0.052l14.732-1.541l0.495-0.052L17.876,2.307z
	 M9.008,1.223l1.501-0.157c0.614-0.064,1.188,0.193,1.556,0.635L7.617,2.167C7.885,1.658,8.394,1.287,9.008,1.223z"/>
</svg>
