<?xml version="1.0" encoding="utf-8"?>
<!-- Generator: Adobe Illustrator 16.0.0, SVG Export Plug-In . SVG Version: 6.00 Build 0)  -->
<!DOCTYPE svg PUBLIC "-//W3C//DTD SVG 1.1//EN" "http://www.w3.org/Graphics/SVG/1.1/DTD/svg11.dtd">
<svg version="1.1" id="Layer_1" xmlns="http://www.w3.org/2000/svg" xmlns:xlink="http://www.w3.org/1999/xlink" x="0px" y="0px"
	 width="20px" height="20px" viewBox="0 0 20 20" enable-background="new 0 0 20 20" xml:space="preserve">
<g id="dev">
</g>
<g id="vote_x5F_stars">
</g>
<g id="form_x5F_checkmark">
	<polygon display="none" fill="#00A04B" points="18.618,1.372 15.714,0.019 8.965,14.786 3.442,10.172 1.381,12.626 10.061,19.98 
		10.061,19.921 10.094,19.98 	"/>
	<polygon display="none" fill="#FFFFFF" points="18.618,1.372 15.714,0.019 8.965,14.786 3.442,10.172 1.381,12.626 10.061,19.98 
		10.061,19.921 10.094,19.98 	"/>
	<g display="none">
		<polygon display="inline" fill="#F5AD56" points="10.061,15.702 10.061,19.98 1.381,12.626 3.442,10.172 		"/>
		<polygon display="inline" fill="#F5AD56" points="8.186,16.49 10.094,19.98 18.618,1.372 15.714,0.019 		"/>
	</g>
	<polygon fill="#323232" points="18.617,1.372 15.713,0.019 8.964,14.785 3.441,10.172 1.38,12.625 10.06,19.98 10.06,19.92 
		10.093,19.98 	"/>
</g>
<g id="leaderboard_x5F_buttons">
</g>
<g id="footer_x5F_mobile_x5F_button">
</g>
<g id="menu_x5F_arrows">
</g>
<g id="header_x5F_icons">
</g>
<g id="footer_x5F_logos">
</g>
<g id="nav_x5F_bar_x5F_icons">
</g>
<g id="exclamation">
</g>
</svg>
