<?xml version="1.0" encoding="utf-8"?>
<!-- Generator: Adobe Illustrator 16.0.0, SVG Export Plug-In . SVG Version: 6.00 Build 0)  -->
<!DOCTYPE svg PUBLIC "-//W3C//DTD SVG 1.0//EN" "http://www.w3.org/TR/2001/REC-SVG-20010904/DTD/svg10.dtd">
<svg version="1.0" xmlns="http://www.w3.org/2000/svg" xmlns:xlink="http://www.w3.org/1999/xlink" x="0px" y="0px" width="20px"
	 height="20px" viewBox="0 0 20 20" enable-background="new 0 0 20 20" xml:space="preserve">
<g id="dev">
</g>
<g id="vote_x5F_stars">
</g>
<g id="form_x5F_checkmark">
	<path fill="#F4A642" d="M9.778,0.015c-2.46,0-4.71,0.9-6.447,2.383L1.453,1.125l0.6,4.979l4.819-1.306L5.144,3.627
		c1.303-0.952,2.902-1.521,4.635-1.521c4.354,0,7.895,3.541,7.895,7.894s-3.541,7.894-7.895,7.894c-3.439,0-6.365-2.216-7.442-5.293
		l-2.102,0.328c1.255,4.082,5.059,7.057,9.544,7.057c5.505,0,9.986-4.479,9.986-9.985S15.283,0.015,9.778,0.015z"/>
	<path display="none" fill="#FFFFFF" d="M9.778,0.015c-2.46,0-4.71,0.9-6.447,2.383L1.453,1.125l0.6,4.979l4.819-1.306L5.144,3.627
		c1.303-0.952,2.902-1.521,4.635-1.521c4.354,0,7.895,3.541,7.895,7.894s-3.541,7.894-7.895,7.894c-3.439,0-6.365-2.216-7.442-5.293
		l-2.102,0.328c1.255,4.082,5.059,7.057,9.544,7.057c5.505,0,9.986-4.479,9.986-9.985S15.283,0.015,9.778,0.015z"/>
	<path display="none" fill="#010101" d="M9.778,0.015c-2.46,0-4.71,0.9-6.447,2.383L1.453,1.125l0.6,4.979l4.819-1.306L5.144,3.627
		c1.303-0.952,2.902-1.521,4.635-1.521c4.354,0,7.895,3.541,7.895,7.894s-3.541,7.894-7.895,7.894c-3.439,0-6.365-2.216-7.442-5.293
		l-2.102,0.328c1.255,4.082,5.059,7.057,9.544,7.057c5.505,0,9.986-4.479,9.986-9.985S15.283,0.015,9.778,0.015z"/>
</g>
<g id="leaderboard_x5F_buttons">
</g>
<g id="footer_x5F_mobile_x5F_button">
</g>
<g id="menu_x5F_arrows">
</g>
<g id="header_x5F_icons">
</g>
<g id="footer_x5F_logos">
</g>
<g id="nav_x5F_bar_x5F_icons">
	<g>
	</g>
</g>
<g id="exclamation">
</g>
</svg>
