<?xml version="1.0" encoding="utf-8"?>
<!-- Generator: Adobe Illustrator 16.0.0, SVG Export Plug-In . SVG Version: 6.00 Build 0)  -->
<!DOCTYPE svg PUBLIC "-//W3C//DTD SVG 1.1//EN" "http://www.w3.org/Graphics/SVG/1.1/DTD/svg11.dtd">
<svg version="1.1" xmlns="http://www.w3.org/2000/svg" xmlns:xlink="http://www.w3.org/1999/xlink" x="0px" y="0px" width="10px"
	 height="10px" viewBox="0 0 10 10" enable-background="new 0 0 10 10" xml:space="preserve">
<g id="nav_x5F_bar_x5F_icons">
	<circle display="none" fill-rule="evenodd" clip-rule="evenodd" fill="#010101" cx="15.777" cy="24.643" r="15"/>
</g>
<g id="exclamation">
	<path display="none" fill="#010101" d="M5.001-0.009c-2.768,0-5.01,2.242-5.01,5.009c0,2.766,2.242,5.008,5.01,5.008
		c2.766,0,5.008-2.242,5.008-5.008C10.009,2.233,7.767-0.009,5.001-0.009z M4.493,0.797h1.014v3.432c0,0.18-0.004,0.356-0.01,0.528
		C5.491,4.93,5.481,5.103,5.47,5.276C5.458,5.451,5.442,5.628,5.425,5.811S5.386,6.188,5.362,6.396H4.636
		C4.612,6.188,4.591,5.993,4.573,5.811S4.54,5.451,4.528,5.276C4.517,5.103,4.507,4.93,4.501,4.757
		C4.495,4.585,4.493,4.41,4.493,4.229V0.797z M5.69,8.345c-0.039,0.09-0.092,0.169-0.16,0.237S5.382,8.703,5.29,8.741
		C5.198,8.779,5.101,8.798,4.997,8.798S4.794,8.779,4.702,8.741C4.61,8.703,4.532,8.65,4.466,8.582S4.349,8.435,4.31,8.345
		c-0.037-0.09-0.057-0.189-0.057-0.297c0-0.104,0.02-0.202,0.057-0.294c0.039-0.092,0.09-0.172,0.156-0.24
		C4.532,7.446,4.61,7.392,4.702,7.352s0.191-0.06,0.295-0.06s0.201,0.02,0.293,0.06s0.172,0.094,0.24,0.162
		c0.068,0.068,0.121,0.148,0.16,0.24c0.037,0.092,0.057,0.19,0.057,0.294C5.747,8.156,5.728,8.255,5.69,8.345z"/>
	<path fill="#FFDC15" d="M5.001-0.009c-2.768,0-5.01,2.242-5.01,5.009c0,2.766,2.242,5.008,5.01,5.008
		c2.766,0,5.008-2.242,5.008-5.008C10.009,2.233,7.767-0.009,5.001-0.009z M4.493,0.797h1.014v3.432c0,0.18-0.004,0.356-0.01,0.528
		C5.491,4.93,5.481,5.103,5.47,5.276C5.458,5.451,5.442,5.628,5.425,5.811S5.386,6.188,5.362,6.396H4.636
		C4.612,6.188,4.591,5.993,4.573,5.811S4.54,5.451,4.528,5.276C4.517,5.103,4.507,4.93,4.501,4.757
		C4.495,4.585,4.493,4.41,4.493,4.229V0.797z M5.69,8.345c-0.039,0.09-0.092,0.169-0.16,0.237S5.382,8.703,5.29,8.741
		C5.198,8.779,5.101,8.798,4.997,8.798S4.794,8.779,4.702,8.741C4.61,8.703,4.532,8.65,4.466,8.582S4.349,8.435,4.31,8.345
		c-0.037-0.09-0.057-0.189-0.057-0.297c0-0.104,0.02-0.202,0.057-0.294c0.039-0.092,0.09-0.172,0.156-0.24
		C4.532,7.446,4.61,7.392,4.702,7.352s0.191-0.06,0.295-0.06s0.201,0.02,0.293,0.06s0.172,0.094,0.24,0.162
		c0.068,0.068,0.121,0.148,0.16,0.24c0.037,0.092,0.057,0.19,0.057,0.294C5.747,8.156,5.728,8.255,5.69,8.345z"/>
	<path display="none" fill="#010101" d="M5.001-0.009c-2.768,0-5.01,2.242-5.01,5.009c0,2.766,2.242,5.008,5.01,5.008
		c2.766,0,5.008-2.242,5.008-5.008C10.009,2.233,7.767-0.009,5.001-0.009z M4.493,0.797h1.014v3.432c0,0.18-0.004,0.356-0.01,0.528
		C5.491,4.93,5.481,5.103,5.47,5.276C5.458,5.451,5.442,5.628,5.425,5.811S5.386,6.188,5.362,6.396H4.636
		C4.612,6.188,4.591,5.993,4.573,5.811S4.54,5.451,4.528,5.276C4.517,5.103,4.507,4.93,4.501,4.757
		C4.495,4.585,4.493,4.41,4.493,4.229V0.797z M5.69,8.345c-0.039,0.09-0.092,0.169-0.16,0.237S5.382,8.703,5.29,8.741
		C5.198,8.779,5.101,8.798,4.997,8.798S4.794,8.779,4.702,8.741C4.61,8.703,4.532,8.65,4.466,8.582S4.349,8.435,4.31,8.345
		c-0.037-0.09-0.057-0.189-0.057-0.297c0-0.104,0.02-0.202,0.057-0.294c0.039-0.092,0.09-0.172,0.156-0.24
		C4.532,7.446,4.61,7.392,4.702,7.352s0.191-0.06,0.295-0.06s0.201,0.02,0.293,0.06s0.172,0.094,0.24,0.162
		c0.068,0.068,0.121,0.148,0.16,0.24c0.037,0.092,0.057,0.19,0.057,0.294C5.747,8.156,5.728,8.255,5.69,8.345z"/>
</g>
</svg>
