<?xml version="1.0" encoding="utf-8"?>
<!-- Generator: Adobe Illustrator 16.0.0, SVG Export Plug-In . SVG Version: 6.00 Build 0)  -->
<!DOCTYPE svg PUBLIC "-//W3C//DTD SVG 1.0//EN" "http://www.w3.org/TR/2001/REC-SVG-20010904/DTD/svg10.dtd">
<svg version="1.0" id="Layer_1" xmlns="http://www.w3.org/2000/svg" xmlns:xlink="http://www.w3.org/1999/xlink" x="0px" y="0px"
	 width="75px" height="75px" viewBox="0 0 75 75" enable-background="new 0 0 75 75" xml:space="preserve">
<g id="home_x5F_icons">
	<g>
		<polygon fill="#264DE3" points="64.736,67.375 37.531,73.25 10.25,67.375 10.25,1.875 64.736,1.875 		"/>
		<g>
			<path fill="#264DE3" d="M4.421,0.285c0-0.091,0-0.184,0-0.276C4.513,0.006,4.604,0,4.695,0c21.861,0,43.721,0,65.581,0
				c0.101,0,0.197,0,0.301,0c0,0.104,0.006,0.177-0.001,0.249c-0.229,2.572-0.468,5.143-0.695,7.715
				c-0.229,2.572-0.45,5.146-0.681,7.718c-0.25,2.782-0.506,5.564-0.754,8.347c-0.213,2.38-0.416,4.761-0.629,7.141
				c-0.268,2.975-0.539,5.948-0.805,8.923c-0.279,3.095-0.554,6.188-0.83,9.282c-0.275,3.094-0.552,6.188-0.828,9.282
				c-0.258,2.883-0.518,5.767-0.767,8.651c-0.017,0.189-0.077,0.26-0.256,0.31c-2.565,0.706-5.128,1.42-7.69,2.132
				c-5.74,1.59-11.479,3.178-17.218,4.77c-0.614,0.172-1.225,0.361-1.836,0.543c-0.075,0-0.147,0-0.222,0
				c-0.083-0.035-0.162-0.078-0.248-0.102c-1.043-0.29-2.087-0.577-3.13-0.867c-7.772-2.158-15.544-4.318-23.315-6.472
				c-0.163-0.046-0.235-0.101-0.25-0.285c-0.105-1.282-0.224-2.563-0.34-3.845c-0.156-1.758-0.316-3.516-0.474-5.272
				c-0.155-1.739-0.304-3.479-0.46-5.218c-0.157-1.758-0.318-3.516-0.476-5.271c-0.155-1.75-0.306-3.498-0.462-5.246
				c-0.174-1.959-0.355-3.918-0.53-5.875c-0.157-1.758-0.307-3.516-0.464-5.274c-0.191-2.16-0.392-4.319-0.585-6.48
				c-0.155-1.757-0.306-3.515-0.462-5.273c-0.176-1.959-0.355-3.917-0.529-5.875C5.464,11.748,5.295,9.789,5.121,7.83
				C4.944,5.805,4.764,3.781,4.579,1.759C4.536,1.267,4.474,0.776,4.421,0.285z M37.477,52.111
				c-2.992-0.811-5.987-1.623-8.982-2.428c-0.173-0.047-0.263-0.11-0.278-0.303c-0.127-1.521-0.263-3.04-0.398-4.559
				c-0.053-0.602-0.109-1.201-0.164-1.803c-2.787,0-5.541,0-8.313,0c0.086,0.951,0.171,1.883,0.254,2.816
				c0.136,1.546,0.269,3.094,0.406,4.641c0.157,1.758,0.322,3.515,0.471,5.272c0.018,0.214,0.093,0.287,0.291,0.342
				c4.83,1.335,9.656,2.679,14.485,4.019c0.74,0.207,1.486,0.399,2.229,0.599c0.019,0.006,0.036,0.012,0.055,0.019
				c0,2.838,0,5.676,0,8.539c0.113-0.008,0.187,0,0.254-0.019c1.445-0.399,2.893-0.802,4.338-1.203
				c1.518-0.421,3.032-0.843,4.549-1.264c1.667-0.464,3.334-0.923,5-1.386c1.711-0.476,3.422-0.951,5.133-1.427
				c0.774-0.215,1.551-0.43,2.327-0.642c0.162-0.044,0.294-0.107,0.308-0.299c0.057-0.721,0.109-1.44,0.168-2.159
				c0.037-0.456,0.078-0.911,0.121-1.365c0.066-0.746,0.142-1.489,0.207-2.235c0.045-0.481,0.078-0.966,0.121-1.447
				c0.067-0.772,0.143-1.545,0.213-2.318c0.041-0.464,0.076-0.929,0.119-1.393c0.067-0.745,0.145-1.49,0.209-2.235
				c0.047-0.5,0.076-1.002,0.121-1.503c0.067-0.773,0.143-1.545,0.213-2.318c0.041-0.463,0.076-0.929,0.118-1.393
				c0.068-0.736,0.146-1.471,0.212-2.208c0.045-0.491,0.074-0.984,0.117-1.476c0.069-0.772,0.145-1.545,0.215-2.317
				c0.041-0.466,0.076-0.929,0.119-1.393c0.068-0.754,0.143-1.508,0.211-2.263c0.042-0.492,0.074-0.984,0.117-1.475
				c0.068-0.764,0.145-1.527,0.214-2.291c0.043-0.473,0.076-0.947,0.121-1.42c0.067-0.717,0.146-1.435,0.209-2.152
				c0.046-0.51,0.074-1.021,0.119-1.531c0.067-0.782,0.144-1.563,0.213-2.345c0.041-0.455,0.077-0.91,0.12-1.365
				c0.068-0.764,0.143-1.527,0.211-2.291c0.044-0.491,0.077-0.983,0.123-1.475c0.064-0.727,0.143-1.453,0.208-2.18
				c0.044-0.501,0.075-1.003,0.12-1.503c0.064-0.718,0.146-1.435,0.21-2.153c0.046-0.51,0.075-1.021,0.118-1.531
				c0.068-0.782,0.144-1.563,0.214-2.346c0.043-0.464,0.083-0.927,0.125-1.392c0.062-0.667,0.124-1.335,0.188-2.026
				c-0.117,0-0.201,0-0.281,0c-8.811,0-17.621,0.001-26.432-0.006c-0.266,0-0.317,0.084-0.315,0.328
				c0.006,2.649,0.004,5.297,0.004,7.946c-0.019,0.006-0.036,0.012-0.053,0.019c-0.064-0.003-0.129-0.008-0.192-0.008
				c-6.767,0-13.533,0-20.3,0c-0.079,0-0.161,0.008-0.25,0.014c0.251,2.763,0.5,5.504,0.751,8.268c0.136,0,0.244,0,0.354,0
				c6.444,0,12.889,0,19.335,0c0.1,0,0.2-0.006,0.301-0.01c0.019,0.008,0.036,0.016,0.055,0.022c0,2.822,0,5.643,0,8.465
				c-0.019,0.008-0.036,0.015-0.055,0.022c-0.054-0.003-0.109-0.009-0.165-0.009c-6.279,0-12.559,0-18.84,0.001
				c-0.078,0-0.156,0.01-0.243,0.016c0.247,2.767,0.495,5.509,0.741,8.267c0.13,0,0.23,0,0.33,0c5.969,0,11.935,0,17.902,0
				c0.092,0,0.185-0.006,0.274-0.01c0.019,0.008,0.036,0.014,0.055,0.021c0,4.267,0,8.53,0.001,12.795
				c0,0.138,0.007,0.276,0.011,0.413C37.521,52.09,37.499,52.102,37.477,52.111z"/>
			<path fill="#2965F0" d="M37.531,13.796c0-2.649,0.002-5.297-0.004-7.946c-0.002-0.243,0.05-0.328,0.315-0.328
				c8.811,0.007,17.621,0.006,26.432,0.006c0.08,0,0.164,0,0.281,0c-0.064,0.691-0.129,1.359-0.188,2.026
				c-0.042,0.465-0.082,0.928-0.125,1.392c-0.07,0.782-0.146,1.563-0.214,2.346c-0.043,0.51-0.072,1.021-0.118,1.531
				c-0.063,0.718-0.146,1.435-0.21,2.153c-0.045,0.5-0.076,1.001-0.12,1.503c-0.065,0.727-0.144,1.453-0.208,2.18
				c-0.046,0.492-0.079,0.984-0.123,1.475c-0.068,0.764-0.143,1.527-0.211,2.291c-0.043,0.455-0.079,0.91-0.12,1.365
				c-0.069,0.782-0.146,1.563-0.213,2.345c-0.045,0.51-0.073,1.021-0.119,1.531c-0.063,0.717-0.142,1.435-0.209,2.152
				c-0.045,0.473-0.078,0.947-0.121,1.42c-0.069,0.764-0.146,1.526-0.214,2.291c-0.043,0.491-0.075,0.983-0.117,1.475
				c-0.068,0.754-0.143,1.508-0.211,2.263c-0.043,0.464-0.079,0.928-0.12,1.393c-0.069,0.771-0.145,1.544-0.214,2.318
				c-0.043,0.49-0.072,0.983-0.117,1.475c-0.066,0.736-0.144,1.471-0.212,2.208c-0.042,0.464-0.077,0.929-0.118,1.394
				c-0.07,0.771-0.146,1.545-0.214,2.317c-0.044,0.5-0.073,1.003-0.12,1.503c-0.064,0.745-0.142,1.491-0.209,2.234
				c-0.043,0.465-0.078,0.93-0.119,1.394c-0.07,0.772-0.146,1.545-0.213,2.317c-0.043,0.482-0.076,0.967-0.121,1.449
				c-0.065,0.744-0.141,1.489-0.207,2.234c-0.043,0.455-0.084,0.91-0.121,1.365c-0.059,0.719-0.111,1.438-0.168,2.158
				c-0.014,0.193-0.146,0.256-0.308,0.3c-0.776,0.212-1.553,0.427-2.327,0.642c-1.711,0.475-3.422,0.951-5.133,1.426
				c-1.666,0.463-3.333,0.924-5,1.387c-1.518,0.42-3.031,0.842-4.549,1.264c-1.445,0.4-2.893,0.803-4.338,1.203
				c-0.067,0.02-0.141,0.011-0.254,0.02c0-2.862,0-5.701,0-8.541c0.663-0.188,1.323-0.379,1.987-0.563
				c4.916-1.363,9.832-2.727,14.748-4.085c0.143-0.039,0.205-0.097,0.217-0.259c0.067-0.887,0.15-1.775,0.229-2.663
				c0.142-1.575,0.283-3.148,0.425-4.724c0.137-1.519,0.27-3.039,0.404-4.558c0.157-1.767,0.318-3.532,0.477-5.299
				c0.137-1.528,0.27-3.057,0.406-4.586c0.141-1.564,0.283-3.129,0.424-4.695c0.137-1.519,0.27-3.039,0.404-4.558
				c0.157-1.775,0.316-3.551,0.479-5.326c0.121-1.354,0.246-2.709,0.367-4.063c0.045-0.508,0.086-1.015,0.129-1.542
				c-0.146,0-0.254,0-0.363,0c-6.668,0-13.336,0-20.003,0C37.751,13.805,37.642,13.799,37.531,13.796z"/>
			<path fill="#FEFEFE" d="M37.531,13.796c0.11,0.003,0.22,0.009,0.329,0.009c6.667,0,13.335,0,20.003,0c0.109,0,0.217,0,0.363,0
				c-0.043,0.526-0.084,1.034-0.129,1.542c-0.121,1.354-0.246,2.709-0.367,4.063c-0.16,1.775-0.32,3.551-0.479,5.326
				c-0.136,1.52-0.268,3.039-0.404,4.558c-0.141,1.565-0.283,3.13-0.424,4.695c-0.138,1.529-0.271,3.058-0.406,4.586
				c-0.158,1.767-0.318,3.532-0.477,5.299c-0.137,1.521-0.27,3.039-0.404,4.558c-0.142,1.574-0.283,3.148-0.425,4.724
				c-0.079,0.888-0.162,1.774-0.229,2.663c-0.012,0.162-0.074,0.221-0.217,0.259c-4.916,1.36-9.832,2.722-14.748,4.085
				c-0.664,0.184-1.324,0.375-1.987,0.563c-0.019-0.006-0.036-0.012-0.055-0.018c0-2.865,0-5.73,0-8.598
				c0.022-0.01,0.044-0.021,0.066-0.03c1.205-0.323,2.41-0.644,3.614-0.97c1.771-0.477,3.541-0.955,5.313-1.434
				c0.133-0.035,0.258-0.048,0.272-0.242c0.125-1.492,0.258-2.982,0.392-4.475c0.139-1.555,0.28-3.109,0.42-4.665
				c0.043-0.471,0.08-0.942,0.121-1.435c-0.129,0-0.229,0-0.33,0c-3.171,0-6.342,0-9.514,0c-0.101,0-0.2,0.007-0.301,0.01
				c-0.019-0.006-0.036-0.014-0.055-0.02c0-2.756,0-5.511,0-8.266c0.019-0.007,0.036-0.015,0.055-0.022
				c0.054,0.004,0.107,0.012,0.163,0.012c3.501,0,7.003,0,10.503,0c0.063,0,0.125-0.01,0.201-0.018
				c0.252-2.823,0.5-5.634,0.752-8.472c-0.129,0-0.209,0-0.289,0c-3.705,0-7.408,0-11.111,0c-0.073,0-0.146,0.008-0.219,0.012
				c-0.019-0.007-0.036-0.015-0.055-0.022c0-2.754,0.002-5.508,0.002-8.263C37.495,13.808,37.513,13.802,37.531,13.796z"/>
			<path fill="#EAEAEA" d="M37.477,52.111c0,2.865,0,5.73,0,8.597c-0.742-0.199-1.488-0.394-2.229-0.599
				c-4.829-1.34-9.655-2.684-14.485-4.019c-0.198-0.055-0.273-0.128-0.291-0.342c-0.148-1.758-0.313-3.515-0.471-5.272
				c-0.138-1.547-0.271-3.094-0.406-4.641c-0.083-0.934-0.168-1.866-0.254-2.816c2.771,0,5.525,0,8.313,0
				c0.055,0.602,0.111,1.201,0.164,1.803c0.136,1.52,0.271,3.039,0.398,4.559c0.016,0.192,0.105,0.256,0.278,0.303
				C31.489,50.488,34.484,51.301,37.477,52.111z"/>
			<path fill="#EAEAEA" d="M37.479,13.814c0,2.755-0.002,5.509-0.002,8.263c-0.101,0.004-0.201,0.01-0.301,0.01
				c-6.446,0-12.891,0-19.335,0c-0.109,0-0.218,0-0.354,0c-0.251-2.763-0.5-5.505-0.751-8.268c0.089-0.005,0.171-0.014,0.25-0.014
				c6.767,0,13.533,0,20.3,0C37.35,13.806,37.414,13.812,37.479,13.814z"/>
			<path fill="#EAEAEA" d="M37.477,30.587c0,2.755,0,5.51,0,8.265c-0.09,0.004-0.183,0.01-0.274,0.01c-5.968,0-11.934,0-17.902,0
				c-0.1,0-0.2,0-0.33,0c-0.246-2.757-0.494-5.5-0.741-8.267c0.087-0.006,0.165-0.016,0.243-0.016
				c6.281-0.001,12.561-0.001,18.84-0.001C37.367,30.578,37.423,30.584,37.477,30.587z"/>
			<path fill="#2965F0" d="M37.531,38.872c0.101-0.003,0.2-0.011,0.301-0.011c3.172,0,6.343,0,9.514,0c0.102,0,0.201,0,0.33,0
				c-0.041,0.494-0.078,0.965-0.121,1.436c-0.14,1.555-0.281,3.11-0.42,4.665c-0.134,1.491-0.267,2.983-0.392,4.476
				c-0.017,0.193-0.142,0.207-0.272,0.242c-1.771,0.478-3.541,0.957-5.313,1.434c-1.204,0.324-2.409,0.646-3.614,0.969
				c-0.004-0.137-0.011-0.275-0.011-0.413C37.531,47.402,37.531,43.139,37.531,38.872z"/>
			<path fill="#2A65F0" d="M37.531,22.1c0.072-0.004,0.146-0.012,0.219-0.012c3.703,0,7.407,0,11.111,0c0.08,0,0.16,0,0.289,0
				c-0.252,2.838-0.5,5.649-0.752,8.472c-0.076,0.007-0.139,0.018-0.2,0.018c-3.5,0-7.003,0-10.504,0
				c-0.056,0-0.109-0.008-0.163-0.012C37.531,27.743,37.531,24.922,37.531,22.1z"/>
		</g>
	</g>
</g>
</svg>
