<?xml version="1.0" encoding="utf-8"?>
<!-- Generator: Adobe Illustrator 16.0.0, SVG Export Plug-In . SVG Version: 6.00 Build 0)  -->
<!DOCTYPE svg PUBLIC "-//W3C//DTD SVG 1.0//EN" "http://www.w3.org/TR/2001/REC-SVG-20010904/DTD/svg10.dtd">
<svg version="1.0" id="Layer_1" xmlns="http://www.w3.org/2000/svg" xmlns:xlink="http://www.w3.org/1999/xlink" x="0px" y="0px"
	 width="75px" height="75px" viewBox="0 0 75 75" enable-background="new 0 0 75 75" xml:space="preserve">
<path fill="#FECA2E" d="M64.662,58.905c-0.994-5.944-1.932-11.896-2.909-17.841c-0.63-3.843-1.293-7.683-1.938-11.522
	c-0.554,0.224-1.21,0.345-1.696,0.638c0.485-0.294,1.143-0.415,1.696-0.638c-0.49-3.207-0.947-6.421-1.549-9.566
	c-0.229-1.351-0.638-2.673-0.961-4.007c-0.271-0.165-0.539-0.33-0.81-0.494c-0.267,0.001-0.531,0.002-0.8,0.003
	c-0.27,0.163-0.541,0.325-0.813,0.489c-1.203,1.17-2.404,2.343-3.609,3.509c-1.791,1.731-3.586,3.456-5.381,5.184
	c-0.022,0.083-0.033,0.167-0.026,0.253c-0.091,0.104-0.182,0.207-0.272,0.31c-0.092,0.094-0.185,0.187-0.279,0.281l0.011-0.01
	c-0.095,0.094-0.188,0.189-0.282,0.282l0.01-0.009c-0.095,0.094-0.189,0.189-0.283,0.282l0.012-0.01
	c-0.094,0.095-0.188,0.189-0.281,0.283l0.009-0.01c-0.094,0.094-0.188,0.188-0.282,0.282l0.01-0.009
	c-0.092,0.093-0.186,0.188-0.28,0.281l0.009-0.009c-0.093,0.094-0.186,0.188-0.281,0.282l0.01-0.01
	c-0.094,0.094-0.188,0.188-0.281,0.282l0.009-0.009c-0.093,0.095-0.185,0.188-0.28,0.282l0.01-0.009
	c-0.094,0.094-0.188,0.188-0.282,0.281l0.011-0.008c-0.095,0.093-0.189,0.188-0.281,0.281l0.01-0.009
	c-0.094,0.095-0.188,0.188-0.28,0.283l0.008-0.01c-0.091,0.092-0.185,0.184-0.275,0.277c-0.094,0.092-0.186,0.185-0.278,0.277
	l0.01-0.009c-0.094,0.094-0.188,0.189-0.281,0.282l0.01-0.009c-0.092,0.094-0.188,0.188-0.281,0.282l0.009-0.009
	c-0.093,0.095-0.187,0.188-0.281,0.283l0.011-0.009c-0.094,0.093-0.187,0.188-0.281,0.281l0.011-0.008
	c-0.097,0.094-0.188,0.188-0.283,0.282l0.011-0.01c-0.095,0.095-0.188,0.188-0.281,0.283l0.008-0.009
	c-0.092,0.093-0.186,0.188-0.28,0.281l0.007-0.01c-0.271,0.277-0.543,0.554-0.813,0.831c-0.089,0.091-0.183,0.182-0.272,0.273
	c-0.09,0.091-0.182,0.183-0.271,0.272c-0.09,0.092-0.182,0.183-0.271,0.274c-0.092,0.09-0.183,0.181-0.273,0.272
	c-0.091,0.09-0.181,0.182-0.275,0.273c-0.089,0.089-0.18,0.181-0.27,0.272c-0.091,0.09-0.182,0.181-0.275,0.272
	c-0.09,0.091-0.181,0.182-0.27,0.273c-0.093,0.09-0.183,0.182-0.275,0.272c-0.09,0.092-0.182,0.183-0.27,0.273
	c-0.093,0.091-0.183,0.183-0.275,0.273c-0.09,0.092-0.182,0.182-0.271,0.274c-0.092,0.091-0.182,0.182-0.274,0.272
	c-0.089,0.091-0.181,0.182-0.273,0.273c-0.089,0.092-0.179,0.181-0.271,0.273c-0.09,0.091-0.181,0.182-0.271,0.273
	c-0.091,0.09-0.181,0.182-0.272,0.273c-0.092,0.09-0.185,0.182-0.274,0.272c-0.089,0.09-0.182,0.182-0.273,0.273
	c-0.089,0.09-0.181,0.181-0.271,0.272c-0.09,0.091-0.181,0.182-0.272,0.273c-0.09,0.09-0.182,0.181-0.273,0.272
	c-0.09,0.09-0.18,0.182-0.271,0.271c-0.09,0.092-0.181,0.182-0.274,0.273c-0.09,0.09-0.179,0.181-0.271,0.273
	c-0.09,0.088-0.181,0.18-0.273,0.271c-0.09,0.089-0.181,0.18-0.272,0.271c-0.09,0.09-0.181,0.182-0.272,0.271
	c-0.089,0.091-0.182,0.181-0.271,0.273c-0.091,0.088-0.183,0.181-0.273,0.271c-0.09,0.089-0.183,0.181-0.271,0.272
	c-0.093,0.088-0.183,0.181-0.274,0.271c-0.09,0.091-0.182,0.182-0.272,0.271c-0.091,0.09-0.181,0.182-0.273,0.272
	c-0.089,0.089-0.181,0.181-0.271,0.272c-0.091,0.088-0.181,0.18-0.273,0.271c-0.09,0.089-0.181,0.18-0.271,0.271
	c-0.091,0.09-0.183,0.181-0.273,0.272c-0.091,0.089-0.182,0.181-0.273,0.272c-0.089,0.088-0.181,0.18-0.271,0.271
	c-0.091,0.09-0.182,0.18-0.273,0.271c-0.089,0.089-0.181,0.181-0.271,0.272c-0.091,0.089-0.183,0.181-0.273,0.271
	c-0.089,0.091-0.181,0.181-0.271,0.272c-0.091,0.09-0.183,0.182-0.273,0.271c-0.091,0.091-0.181,0.181-0.273,0.273
	c-0.09,0.088-0.181,0.18-0.271,0.271c-0.09,0.091-0.181,0.182-0.275,0.272c-0.089,0.09-0.18,0.182-0.271,0.271
	c-0.089,0.091-0.181,0.182-0.273,0.273c-0.089,0.088-0.18,0.181-0.271,0.271c-0.09,0.091-0.181,0.183-0.273,0.272
	c-0.09,0.09-0.181,0.182-0.272,0.273c-0.09,0.089-0.18,0.18-0.271,0.271c-0.092,0.089-0.181,0.181-0.274,0.272
	c-0.087,0.088-0.179,0.181-0.273,0.271c-0.088,0.092-0.179,0.182-0.271,0.272c-0.088,0.091-0.181,0.183-0.272,0.272
	c-0.089,0.091-0.18,0.181-0.272,0.272c-0.089,0.089-0.182,0.181-0.272,0.271c-0.09,0.089-0.181,0.182-0.272,0.272
	c-0.09,0.09-0.181,0.182-0.271,0.271c-0.093,0.089-0.181,0.182-0.274,0.273c-0.09,0.088-0.18,0.18-0.273,0.271
	c-0.091,0.092-0.18,0.183-0.271,0.272s-0.181,0.184-0.273,0.273c-0.09,0.09-0.181,0.182-0.273,0.271
	c-0.089,0.09-0.181,0.183-0.271,0.272c-0.09,0.091-0.181,0.183-0.273,0.272c-0.089,0.09-0.181,0.182-0.271,0.272
	c-0.091,0.089-0.182,0.181-0.273,0.272c-0.091,0.089-0.182,0.181-0.271,0.271c-0.093,0.091-0.183,0.181-0.273,0.272
	c-0.091,0.09-0.183,0.182-0.273,0.272c-0.091,0.089-0.181,0.183-0.272,0.272c-0.09,0.089-0.182,0.181-0.274,0.271
	c-0.089,0.09-0.179,0.18-0.271,0.272c-0.09,0.091-0.181,0.181-0.273,0.272c-0.089,0.09-0.181,0.182-0.271,0.271
	s-0.181,0.18-0.271,0.271c-0.091,0.09-0.182,0.183-0.272,0.273c-0.092,0.089-0.183,0.181-0.274,0.271
	c-0.091,0.092-0.18,0.182-0.271,0.272c-0.091,0.09-0.183,0.181-0.274,0.272c-0.089,0.09-0.18,0.182-0.271,0.272
	c-0.09,0.09-0.18,0.181-0.273,0.271c-0.09,0.09-0.18,0.183-0.274,0.272c-0.087,0.09-0.181,0.183-0.271,0.272
	c-0.09,0.089-0.181,0.181-0.271,0.271c-0.09,0.09-0.182,0.18-0.273,0.271c-0.091,0.091-0.179,0.183-0.272,0.272
	c-0.092,0.091-0.181,0.183-0.272,0.272c-0.089,0.09-0.18,0.181-0.273,0.271c-0.09,0.09-0.179,0.18-0.271,0.273
	c-0.09,0.089-0.183,0.18-0.274,0.271c-0.088,0.09-0.18,0.182-0.271,0.272c-0.09,0.09-0.183,0.183-0.272,0.272
	c-0.089,0.088-0.181,0.181-0.273,0.271c-0.09,0.09-0.181,0.181-0.271,0.271c-0.09,0.09-0.181,0.184-0.273,0.274
	c-0.091,0.09-0.181,0.181-0.271,0.271l-0.008-0.004c-0.195,0.015-0.391,0.028-0.589,0.045c-0.171,0.084-0.345,0.168-0.516,0.252
	c-0.47,0.858-0.062,1.25,0.759,1.422l0.017,0.017c0.207,0.06,0.409,0.117,0.614,0.177c0.082,0.098,0.165,0.194,0.248,0.29v-0.002
	c0.182,0.097,0.365,0.192,0.547,0.289l-0.014-0.006c0.185,0.097,0.367,0.194,0.551,0.293l-0.016-0.007
	c0.186,0.098,0.367,0.197,0.55,0.296l-0.019-0.024c0.105,0.082,0.21,0.162,0.314,0.242l0.004,0.004
	c0.18,0.096,0.358,0.189,0.539,0.286l-0.008-0.005c0.182,0.098,0.365,0.195,0.547,0.293l-0.012-0.008
	c0.182,0.099,0.365,0.197,0.547,0.295l-0.012-0.007c0.181,0.097,0.363,0.194,0.547,0.292l-0.014-0.023
	c0.105,0.081,0.21,0.162,0.313,0.244v-0.001c0.181,0.097,0.36,0.192,0.544,0.288L17,64.203c0.179,0.095,0.357,0.189,0.538,0.288
	c0.353,0.193,0.709,0.389,1.063,0.584c0,0.001-0.002-0.022-0.002-0.022c0.107,0.078,0.212,0.157,0.319,0.235l-0.002-0.001
	c0.181,0.096,0.362,0.191,0.545,0.288l-0.012-0.007c0.183,0.101,0.364,0.199,0.546,0.299l-0.021,0.021c-0.001,0-0.001,0-0.002,0
	c0,0,0.001,0.001,0.002,0.001l-0.001,0.001c0.001,0,0.002,0,0.004,0.001c4.807,2.727,9.629,5.422,14.41,8.19
	c2.091,1.212,4.042,1.202,6.152,0.014c7.665-4.318,15.35-8.602,23.078-12.81C64.757,60.666,64.846,59.984,64.662,58.905z"/>
<path fill="#FEA614" d="M11.596,52.452c0.494-3.312,0.973-6.626,1.479-9.937c1.035-6.715,2.078-13.426,3.129-20.138
	c1.084-6.936,2.151-13.873,3.319-20.796c0.104-0.611,0.818-1.462,1.365-1.562c0.539-0.099,1.508,0.464,1.804,1.002
	c3.055,5.568,6.01,11.188,8.992,16.794c-0.527,0.367-1.222,0.625-1.544,1.123c-0.683,1.058-1.137,2.258-1.744,3.368
	c-2.393,4.371-4.855,8.704-7.203,13.098c-2.502,4.679-4.87,9.431-7.375,14.106C13.244,50.584,12.346,51.477,11.596,52.452z"/>
<path fill="#FDA310" d="M45.955,24.606c-0.023,0.083-0.033,0.167-0.027,0.254c-0.094,0.106-0.188,0.212-0.279,0.317
	c0,0,0.01-0.01,0.01-0.009c-0.096,0.094-0.188,0.188-0.281,0.282l0.012-0.01c-0.096,0.094-0.189,0.188-0.283,0.282l0.01-0.009
	c-0.094,0.094-0.189,0.188-0.282,0.282l0.01-0.01c-0.095,0.095-0.188,0.188-0.28,0.283c0,0,0.008-0.01,0.008-0.009
	c-0.094,0.093-0.188,0.188-0.281,0.281l0.01-0.009c-0.094,0.093-0.188,0.188-0.279,0.281l0.008-0.009
	c-0.094,0.094-0.188,0.188-0.281,0.282l0.01-0.01c-0.093,0.096-0.189,0.188-0.281,0.282l0.008-0.009
	c-0.094,0.095-0.186,0.188-0.28,0.282l0.011-0.009c-0.095,0.094-0.188,0.188-0.283,0.281l0.012-0.008
	c-0.098,0.094-0.188,0.188-0.281,0.281l0.01-0.009c-0.096,0.095-0.189,0.188-0.281,0.283l0.008-0.01
	c-0.095,0.095-0.188,0.188-0.28,0.282l0.01-0.01c-0.097,0.094-0.188,0.188-0.283,0.282l0.011-0.009
	c-0.096,0.094-0.188,0.188-0.281,0.282l0.011-0.009c-0.093,0.095-0.188,0.188-0.282,0.282c0,0,0.008-0.009,0.008-0.008
	c-0.093,0.094-0.188,0.187-0.281,0.282l0.011-0.009c-0.095,0.094-0.188,0.188-0.281,0.281l0.011-0.008
	c-0.097,0.094-0.188,0.188-0.281,0.282c0,0,0.01-0.01,0.008-0.01c-0.094,0.094-0.188,0.188-0.279,0.283l0.008-0.009
	c-0.094,0.094-0.188,0.188-0.281,0.281l0.007-0.01c-0.265,0.101-0.526,0.202-0.794,0.304c-0.331-0.479-0.721-0.929-0.991-1.44
	c-1.427-2.716-2.791-5.465-4.252-8.164c-0.516-0.953-1.238-1.793-1.866-2.684c-0.006-0.162-0.012-0.324-0.016-0.486
	c0.289-0.3,0.661-0.554,0.853-0.907c1.041-1.912,2.011-3.863,3.058-5.772c0.934-1.704,2.371-1.736,3.281-0.031
	C41.484,15.993,43.707,20.307,45.955,24.606z"/>
<path fill="#F89C0F" d="M32.008,18.424c0.004,0.162,0.01,0.324,0.016,0.485c-0.971,1.846-1.945,3.69-2.908,5.539
	c-3.336,6.393-6.66,12.791-10.002,19.179c-1.074,2.047-2.227,4.053-3.285,6.104c-1.643,3.183-3.236,6.389-4.851,9.582
	c-0.171,0.082-0.345,0.166-0.516,0.252c0.378-2.373,0.755-4.741,1.134-7.111c0.75-0.977,1.648-1.868,2.223-2.938
	c2.505-4.678,4.873-9.43,7.375-14.107c2.348-4.395,4.811-8.727,7.203-13.098c0.607-1.11,1.062-2.311,1.744-3.368
	c0.322-0.498,1.017-0.756,1.544-1.123C31.791,18.02,31.898,18.222,32.008,18.424z"/>
<path fill="#F3810D" d="M12.385,58.449c-0.09,0.092-0.18,0.181-0.273,0.273c-0.089,0.09-0.182,0.182-0.271,0.271
	c-0.092,0.091-0.182,0.182-0.273,0.271c-0.195,0.017-0.391,0.03-0.589,0.045c1.614-3.192,3.208-6.397,4.851-9.58
	c1.059-2.053,2.211-4.058,3.285-6.104c3.342-6.388,6.666-12.786,10.002-19.179c0.963-1.849,1.938-3.693,2.908-5.539
	c0.628,0.891,1.351,1.732,1.866,2.685c1.462,2.698,2.825,5.448,4.253,8.164c0.271,0.512,0.66,0.962,0.992,1.44
	c-0.012,0.172-0.023,0.344-0.033,0.516c-0.09,0.091-0.184,0.183-0.271,0.274c-0.09,0.09-0.182,0.181-0.273,0.272
	c-0.09,0.091-0.18,0.182-0.271,0.272c-0.091,0.091-0.183,0.182-0.272,0.273c-0.092,0.091-0.183,0.181-0.271,0.272
	c-0.092,0.09-0.183,0.182-0.273,0.272c-0.092,0.09-0.182,0.182-0.273,0.272c-0.09,0.091-0.183,0.182-0.273,0.272
	c-0.09,0.091-0.18,0.182-0.272,0.273c-0.089,0.091-0.183,0.181-0.272,0.272c-0.089,0.091-0.18,0.183-0.272,0.272
	c-0.089,0.092-0.181,0.183-0.272,0.274c-0.09,0.09-0.18,0.181-0.271,0.272c-0.091,0.091-0.182,0.182-0.273,0.273
	c-0.089,0.09-0.18,0.182-0.271,0.272c-0.092,0.092-0.182,0.183-0.272,0.273c-0.09,0.09-0.182,0.182-0.273,0.273
	c-0.091,0.09-0.182,0.181-0.272,0.272c-0.09,0.091-0.183,0.182-0.273,0.273c-0.092,0.09-0.182,0.181-0.272,0.272
	c-0.09,0.091-0.181,0.182-0.271,0.273c-0.093,0.091-0.182,0.182-0.273,0.273c-0.089,0.09-0.181,0.182-0.272,0.272
	c-0.093,0.09-0.181,0.183-0.273,0.273c-0.089,0.091-0.18,0.183-0.271,0.272c-0.091,0.091-0.18,0.183-0.273,0.272
	c-0.09,0.091-0.18,0.183-0.272,0.272c-0.091,0.09-0.182,0.181-0.272,0.271c-0.09,0.093-0.182,0.183-0.271,0.272
	c-0.092,0.092-0.184,0.183-0.273,0.273c-0.09,0.09-0.182,0.18-0.272,0.271c-0.091,0.091-0.183,0.183-0.272,0.273
	c-0.092,0.09-0.182,0.182-0.273,0.271s-0.182,0.183-0.273,0.271c-0.091,0.09-0.18,0.183-0.271,0.272
	c-0.092,0.09-0.182,0.181-0.273,0.272c-0.091,0.09-0.182,0.182-0.271,0.271c-0.092,0.091-0.183,0.183-0.273,0.272
	c-0.092,0.092-0.18,0.184-0.271,0.272c-0.092,0.091-0.183,0.183-0.273,0.274c-0.092,0.091-0.18,0.181-0.272,0.272
	c-0.091,0.091-0.183,0.183-0.271,0.271c-0.091,0.093-0.181,0.184-0.272,0.273c-0.09,0.092-0.184,0.182-0.273,0.273
	c-0.09,0.091-0.18,0.182-0.271,0.273c-0.091,0.09-0.184,0.182-0.273,0.271c-0.091,0.091-0.18,0.182-0.273,0.271
	c-0.09,0.092-0.182,0.184-0.272,0.273c-0.091,0.092-0.182,0.182-0.272,0.273c-0.09,0.09-0.181,0.183-0.273,0.271
	c-0.089,0.091-0.182,0.184-0.271,0.273s-0.184,0.181-0.272,0.271c-0.092,0.09-0.183,0.182-0.271,0.271
	c-0.091,0.092-0.184,0.183-0.273,0.272c-0.091,0.092-0.183,0.183-0.272,0.272c-0.093,0.091-0.183,0.183-0.273,0.273
	c-0.091,0.09-0.182,0.182-0.271,0.271c-0.091,0.09-0.182,0.182-0.273,0.271c-0.09,0.093-0.183,0.183-0.272,0.272
	c-0.091,0.093-0.182,0.183-0.272,0.271c-0.09,0.092-0.182,0.184-0.273,0.273c-0.09,0.09-0.182,0.182-0.271,0.271
	c-0.09,0.092-0.182,0.184-0.274,0.272c-0.089,0.092-0.181,0.182-0.271,0.274c-0.089,0.09-0.182,0.181-0.272,0.271
	c-0.09,0.09-0.182,0.182-0.273,0.271c-0.089,0.092-0.182,0.182-0.271,0.272c-0.092,0.092-0.182,0.183-0.273,0.272
	c-0.092,0.09-0.182,0.183-0.271,0.271c-0.094,0.09-0.183,0.182-0.273,0.271c-0.092,0.091-0.182,0.182-0.271,0.272
	c-0.094,0.091-0.183,0.183-0.275,0.272c-0.09,0.091-0.182,0.181-0.272,0.271c-0.09,0.092-0.181,0.182-0.272,0.271
	c-0.088,0.092-0.182,0.184-0.272,0.273c-0.09,0.092-0.183,0.182-0.272,0.272c-0.091,0.09-0.181,0.182-0.271,0.271
	c-0.092,0.093-0.182,0.183-0.273,0.272c-0.091,0.092-0.182,0.183-0.271,0.271c-0.092,0.092-0.182,0.184-0.272,0.274
	c-0.093,0.09-0.182,0.182-0.272,0.271c-0.092,0.092-0.181,0.185-0.273,0.273c-0.091,0.091-0.182,0.184-0.271,0.271
	c-0.092,0.092-0.184,0.184-0.272,0.272c-0.093,0.092-0.183,0.183-0.273,0.272c-0.091,0.091-0.183,0.183-0.271,0.272
	c-0.091,0.091-0.183,0.183-0.274,0.272c-0.091,0.09-0.182,0.182-0.271,0.271c-0.093,0.092-0.182,0.182-0.274,0.271
	c-0.09,0.093-0.181,0.184-0.272,0.273c-0.09,0.092-0.181,0.182-0.272,0.271c-0.091,0.09-0.182,0.183-0.272,0.271
	c-0.091,0.092-0.181,0.184-0.271,0.272c-0.092,0.092-0.184,0.182-0.271,0.272c-0.092,0.092-0.186,0.182-0.274,0.271
	c-0.091,0.091-0.184,0.182-0.273,0.271c-0.091,0.092-0.181,0.184-0.272,0.272C12.568,58.268,12.477,58.357,12.385,58.449z"/>
</svg>
