<?xml version="1.0" encoding="utf-8"?>
<!-- Generator: Adobe Illustrator 16.0.0, SVG Export Plug-In . SVG Version: 6.00 Build 0)  -->
<!DOCTYPE svg PUBLIC "-//W3C//DTD SVG 1.0//EN" "http://www.w3.org/TR/2001/REC-SVG-20010904/DTD/svg10.dtd">
<svg version="1.0" id="Layer_1" xmlns="http://www.w3.org/2000/svg" xmlns:xlink="http://www.w3.org/1999/xlink" x="0px" y="0px"
	 width="75px" height="75px" viewBox="0 0 75 75" enable-background="new 0 0 75 75" xml:space="preserve">
<g id="home_x5F_icons">
	<g display="none">
		<polygon display="inline" fill="#264DE3" points="64.736,67.375 37.531,73.25 10.25,67.375 10.25,1.875 64.736,1.875 		"/>
		<g display="inline">
			<path fill="#264DE3" d="M4.421,0.285c0-0.091,0-0.184,0-0.276C4.513,0.006,4.604,0,4.695,0c21.861,0,43.721,0,65.581,0
				c0.101,0,0.197,0,0.301,0c0,0.104,0.006,0.177-0.001,0.249c-0.229,2.572-0.468,5.143-0.695,7.715
				c-0.229,2.572-0.45,5.146-0.681,7.718c-0.25,2.782-0.506,5.564-0.754,8.347c-0.213,2.38-0.416,4.761-0.629,7.141
				c-0.268,2.975-0.539,5.948-0.805,8.923c-0.279,3.095-0.554,6.188-0.83,9.282c-0.275,3.094-0.552,6.188-0.828,9.282
				c-0.258,2.883-0.518,5.767-0.767,8.651c-0.017,0.189-0.077,0.26-0.256,0.31c-2.565,0.706-5.128,1.42-7.69,2.132
				c-5.74,1.59-11.479,3.178-17.218,4.77c-0.614,0.172-1.225,0.361-1.836,0.543c-0.075,0-0.147,0-0.222,0
				c-0.083-0.035-0.162-0.078-0.248-0.102c-1.043-0.29-2.087-0.577-3.13-0.867c-7.772-2.158-15.544-4.318-23.315-6.472
				c-0.163-0.046-0.235-0.101-0.25-0.285c-0.105-1.282-0.224-2.563-0.34-3.845c-0.156-1.758-0.316-3.516-0.474-5.272
				c-0.155-1.739-0.304-3.479-0.46-5.218c-0.157-1.758-0.318-3.516-0.476-5.271c-0.155-1.75-0.306-3.498-0.462-5.246
				c-0.174-1.959-0.355-3.918-0.53-5.875c-0.157-1.758-0.307-3.516-0.464-5.274c-0.191-2.16-0.392-4.319-0.585-6.48
				c-0.155-1.757-0.306-3.515-0.462-5.273c-0.176-1.959-0.355-3.917-0.529-5.875C5.464,11.748,5.295,9.789,5.121,7.83
				C4.944,5.805,4.764,3.781,4.579,1.759C4.536,1.267,4.474,0.776,4.421,0.285z M37.477,52.111
				c-2.992-0.811-5.987-1.623-8.982-2.428c-0.173-0.047-0.263-0.11-0.278-0.303c-0.127-1.521-0.263-3.04-0.398-4.559
				c-0.053-0.602-0.109-1.201-0.164-1.803c-2.787,0-5.541,0-8.313,0c0.086,0.951,0.171,1.883,0.254,2.816
				c0.136,1.546,0.269,3.094,0.406,4.641c0.157,1.758,0.322,3.515,0.471,5.272c0.018,0.214,0.093,0.287,0.291,0.342
				c4.83,1.335,9.656,2.679,14.485,4.019c0.74,0.207,1.486,0.399,2.229,0.599c0.019,0.006,0.036,0.012,0.055,0.019
				c0,2.838,0,5.676,0,8.539c0.113-0.008,0.187,0,0.254-0.019c1.445-0.399,2.893-0.802,4.338-1.203
				c1.518-0.421,3.032-0.843,4.549-1.264c1.667-0.464,3.334-0.923,5-1.386c1.711-0.476,3.422-0.951,5.133-1.427
				c0.774-0.215,1.551-0.43,2.327-0.642c0.162-0.044,0.294-0.107,0.308-0.299c0.057-0.721,0.109-1.44,0.168-2.159
				c0.037-0.456,0.078-0.911,0.121-1.365c0.066-0.746,0.142-1.489,0.207-2.235c0.045-0.481,0.078-0.966,0.121-1.447
				c0.067-0.772,0.143-1.545,0.213-2.318c0.041-0.464,0.076-0.929,0.119-1.393c0.067-0.745,0.145-1.49,0.209-2.235
				c0.047-0.5,0.076-1.002,0.121-1.503c0.067-0.773,0.143-1.545,0.213-2.318c0.041-0.463,0.076-0.929,0.118-1.393
				c0.068-0.736,0.146-1.471,0.212-2.208c0.045-0.491,0.074-0.984,0.117-1.476c0.069-0.772,0.145-1.545,0.215-2.317
				c0.041-0.466,0.076-0.929,0.119-1.393c0.068-0.754,0.143-1.508,0.211-2.263c0.042-0.492,0.074-0.984,0.117-1.475
				c0.068-0.764,0.145-1.527,0.214-2.291c0.043-0.473,0.076-0.947,0.121-1.42c0.067-0.717,0.146-1.435,0.209-2.152
				c0.046-0.51,0.074-1.021,0.119-1.531c0.067-0.782,0.144-1.563,0.213-2.345c0.041-0.455,0.077-0.91,0.12-1.365
				c0.068-0.764,0.143-1.527,0.211-2.291c0.044-0.491,0.077-0.983,0.123-1.475c0.064-0.727,0.143-1.453,0.208-2.18
				c0.044-0.501,0.075-1.003,0.12-1.503c0.064-0.718,0.146-1.435,0.21-2.153c0.046-0.51,0.075-1.021,0.118-1.531
				c0.068-0.782,0.144-1.563,0.214-2.346c0.043-0.464,0.083-0.927,0.125-1.392c0.062-0.667,0.124-1.335,0.188-2.026
				c-0.117,0-0.201,0-0.281,0c-8.811,0-17.621,0.001-26.432-0.006c-0.266,0-0.317,0.084-0.315,0.328
				c0.006,2.649,0.004,5.297,0.004,7.946c-0.019,0.006-0.036,0.012-0.053,0.019c-0.064-0.003-0.129-0.008-0.192-0.008
				c-6.767,0-13.533,0-20.3,0c-0.079,0-0.161,0.008-0.25,0.014c0.251,2.763,0.5,5.504,0.751,8.268c0.136,0,0.244,0,0.354,0
				c6.444,0,12.889,0,19.335,0c0.1,0,0.2-0.006,0.301-0.01c0.019,0.008,0.036,0.016,0.055,0.022c0,2.822,0,5.643,0,8.465
				c-0.019,0.008-0.036,0.015-0.055,0.022c-0.054-0.003-0.109-0.009-0.165-0.009c-6.279,0-12.559,0-18.84,0.001
				c-0.078,0-0.156,0.01-0.243,0.016c0.247,2.767,0.495,5.509,0.741,8.267c0.13,0,0.23,0,0.33,0c5.969,0,11.935,0,17.902,0
				c0.092,0,0.185-0.006,0.274-0.01c0.019,0.008,0.036,0.014,0.055,0.021c0,4.267,0,8.53,0.001,12.795
				c0,0.138,0.007,0.276,0.011,0.413C37.521,52.09,37.499,52.102,37.477,52.111z"/>
			<path fill="#2965F0" d="M37.531,13.796c0-2.649,0.002-5.297-0.004-7.946c-0.002-0.243,0.05-0.328,0.315-0.328
				c8.811,0.007,17.621,0.006,26.432,0.006c0.08,0,0.164,0,0.281,0c-0.064,0.691-0.129,1.359-0.188,2.026
				c-0.042,0.465-0.082,0.928-0.125,1.392c-0.07,0.782-0.146,1.563-0.214,2.346c-0.043,0.51-0.072,1.021-0.118,1.531
				c-0.063,0.718-0.146,1.435-0.21,2.153c-0.045,0.5-0.076,1.001-0.12,1.503c-0.065,0.727-0.144,1.453-0.208,2.18
				c-0.046,0.492-0.079,0.984-0.123,1.475c-0.068,0.764-0.143,1.527-0.211,2.291c-0.043,0.455-0.079,0.91-0.12,1.365
				c-0.069,0.782-0.146,1.563-0.213,2.345c-0.045,0.51-0.073,1.021-0.119,1.531c-0.063,0.717-0.142,1.435-0.209,2.152
				c-0.045,0.473-0.078,0.947-0.121,1.42c-0.069,0.764-0.146,1.526-0.214,2.291c-0.043,0.491-0.075,0.983-0.117,1.475
				c-0.068,0.754-0.143,1.508-0.211,2.263c-0.043,0.464-0.079,0.928-0.12,1.393c-0.069,0.771-0.145,1.544-0.214,2.318
				c-0.043,0.49-0.072,0.983-0.117,1.475c-0.066,0.736-0.144,1.471-0.212,2.208c-0.042,0.464-0.077,0.929-0.118,1.394
				c-0.07,0.771-0.146,1.545-0.214,2.317c-0.044,0.5-0.073,1.003-0.12,1.503c-0.064,0.745-0.142,1.491-0.209,2.234
				c-0.043,0.465-0.078,0.93-0.119,1.394c-0.07,0.772-0.146,1.545-0.213,2.317c-0.043,0.482-0.076,0.967-0.121,1.449
				c-0.065,0.744-0.141,1.489-0.207,2.234c-0.043,0.455-0.084,0.91-0.121,1.365c-0.059,0.719-0.111,1.438-0.168,2.158
				c-0.014,0.193-0.146,0.256-0.308,0.3c-0.776,0.212-1.553,0.427-2.327,0.642c-1.711,0.475-3.422,0.951-5.133,1.426
				c-1.666,0.463-3.333,0.924-5,1.387c-1.518,0.42-3.031,0.842-4.549,1.264c-1.445,0.4-2.893,0.803-4.338,1.203
				c-0.067,0.02-0.141,0.011-0.254,0.02c0-2.862,0-5.701,0-8.541c0.663-0.188,1.323-0.379,1.987-0.563
				c4.916-1.363,9.832-2.727,14.748-4.085c0.143-0.039,0.205-0.097,0.217-0.259c0.067-0.887,0.15-1.775,0.229-2.663
				c0.142-1.575,0.283-3.148,0.425-4.724c0.137-1.519,0.27-3.039,0.404-4.558c0.157-1.767,0.318-3.532,0.477-5.299
				c0.137-1.528,0.27-3.057,0.406-4.586c0.141-1.564,0.283-3.129,0.424-4.695c0.137-1.519,0.27-3.039,0.404-4.558
				c0.157-1.775,0.316-3.551,0.479-5.326c0.121-1.354,0.246-2.709,0.367-4.063c0.045-0.508,0.086-1.015,0.129-1.542
				c-0.146,0-0.254,0-0.363,0c-6.668,0-13.336,0-20.003,0C37.751,13.805,37.642,13.799,37.531,13.796z"/>
			<path fill="#FEFEFE" d="M37.531,13.796c0.11,0.003,0.22,0.009,0.329,0.009c6.667,0,13.335,0,20.003,0c0.109,0,0.217,0,0.363,0
				c-0.043,0.526-0.084,1.034-0.129,1.542c-0.121,1.354-0.246,2.709-0.367,4.063c-0.16,1.775-0.32,3.551-0.479,5.326
				c-0.136,1.52-0.268,3.039-0.404,4.558c-0.141,1.565-0.283,3.13-0.424,4.695c-0.138,1.529-0.271,3.058-0.406,4.586
				c-0.158,1.767-0.318,3.532-0.477,5.299c-0.137,1.521-0.27,3.039-0.404,4.558c-0.142,1.574-0.283,3.148-0.425,4.724
				c-0.079,0.888-0.162,1.774-0.229,2.663c-0.012,0.162-0.074,0.221-0.217,0.259c-4.916,1.36-9.832,2.722-14.748,4.085
				c-0.664,0.184-1.324,0.375-1.987,0.563c-0.019-0.006-0.036-0.012-0.055-0.018c0-2.865,0-5.73,0-8.598
				c0.022-0.01,0.044-0.021,0.066-0.03c1.205-0.323,2.41-0.644,3.614-0.97c1.771-0.477,3.541-0.955,5.313-1.434
				c0.133-0.035,0.258-0.048,0.272-0.242c0.125-1.492,0.258-2.982,0.392-4.475c0.139-1.555,0.28-3.109,0.42-4.665
				c0.043-0.471,0.08-0.942,0.121-1.435c-0.129,0-0.229,0-0.33,0c-3.171,0-6.342,0-9.514,0c-0.101,0-0.2,0.007-0.301,0.01
				c-0.019-0.006-0.036-0.014-0.055-0.02c0-2.756,0-5.511,0-8.266c0.019-0.007,0.036-0.015,0.055-0.022
				c0.054,0.004,0.107,0.012,0.163,0.012c3.501,0,7.003,0,10.503,0c0.063,0,0.125-0.01,0.201-0.018
				c0.252-2.823,0.5-5.634,0.752-8.472c-0.129,0-0.209,0-0.289,0c-3.705,0-7.408,0-11.111,0c-0.073,0-0.146,0.008-0.219,0.012
				c-0.019-0.007-0.036-0.015-0.055-0.022c0-2.754,0.002-5.508,0.002-8.263C37.495,13.808,37.513,13.802,37.531,13.796z"/>
			<path fill="#EAEAEA" d="M37.477,52.111c0,2.865,0,5.73,0,8.597c-0.742-0.199-1.488-0.394-2.229-0.599
				c-4.829-1.34-9.655-2.684-14.485-4.019c-0.198-0.055-0.273-0.128-0.291-0.342c-0.148-1.758-0.313-3.515-0.471-5.272
				c-0.138-1.547-0.271-3.094-0.406-4.641c-0.083-0.934-0.168-1.866-0.254-2.816c2.771,0,5.525,0,8.313,0
				c0.055,0.602,0.111,1.201,0.164,1.803c0.136,1.52,0.271,3.039,0.398,4.559c0.016,0.192,0.105,0.256,0.278,0.303
				C31.489,50.488,34.484,51.301,37.477,52.111z"/>
			<path fill="#EAEAEA" d="M37.479,13.814c0,2.755-0.002,5.509-0.002,8.263c-0.101,0.004-0.201,0.01-0.301,0.01
				c-6.446,0-12.891,0-19.335,0c-0.109,0-0.218,0-0.354,0c-0.251-2.763-0.5-5.505-0.751-8.268c0.089-0.005,0.171-0.014,0.25-0.014
				c6.767,0,13.533,0,20.3,0C37.35,13.806,37.414,13.812,37.479,13.814z"/>
			<path fill="#EAEAEA" d="M37.477,30.587c0,2.755,0,5.51,0,8.265c-0.09,0.004-0.183,0.01-0.274,0.01c-5.968,0-11.934,0-17.902,0
				c-0.1,0-0.2,0-0.33,0c-0.246-2.757-0.494-5.5-0.741-8.267c0.087-0.006,0.165-0.016,0.243-0.016
				c6.281-0.001,12.561-0.001,18.84-0.001C37.367,30.578,37.423,30.584,37.477,30.587z"/>
			<path fill="#2965F0" d="M37.531,38.872c0.101-0.003,0.2-0.011,0.301-0.011c3.172,0,6.343,0,9.514,0c0.102,0,0.201,0,0.33,0
				c-0.041,0.494-0.078,0.965-0.121,1.436c-0.14,1.555-0.281,3.11-0.42,4.665c-0.134,1.491-0.267,2.983-0.392,4.476
				c-0.017,0.193-0.142,0.207-0.272,0.242c-1.771,0.478-3.541,0.957-5.313,1.434c-1.204,0.324-2.409,0.646-3.614,0.969
				c-0.004-0.137-0.011-0.275-0.011-0.413C37.531,47.402,37.531,43.139,37.531,38.872z"/>
			<path fill="#2A65F0" d="M37.531,22.1c0.072-0.004,0.146-0.012,0.219-0.012c3.703,0,7.407,0,11.111,0c0.08,0,0.16,0,0.289,0
				c-0.252,2.838-0.5,5.649-0.752,8.472c-0.076,0.007-0.139,0.018-0.2,0.018c-3.5,0-7.003,0-10.504,0
				c-0.056,0-0.109-0.008-0.163-0.012C37.531,27.743,37.531,24.922,37.531,22.1z"/>
		</g>
	</g>
	<g>
		<path fill="#FEC92B" d="M59.814,29.542c0.646,3.84,1.309,7.679,1.939,11.522c0.977,5.946,1.915,11.897,2.909,17.841
			c0.183,1.079,0.095,1.761-1.045,2.381c-7.728,4.208-15.413,8.491-23.078,12.81c-2.11,1.188-4.061,1.198-6.152-0.014
			c-4.782-2.77-9.606-5.466-14.415-8.193c1.579,0.463,2.723-0.205,3.743-1.356c0.95-1.071,1.976-2.08,2.998-3.082
			c0.678-0.662,1.454-1.224,2.115-1.898c1.979-2.019,3.903-4.089,5.887-6.103c0.918-0.934,1.965-1.74,2.88-2.674
			c1.884-1.918,3.683-3.926,5.591-5.822c2.426-2.413,4.961-4.715,7.381-7.132c2.451-2.445,4.787-5.003,7.252-7.433
			C58.299,29.918,59.141,29.815,59.814,29.542z"/>
		<path fill="#FECA2E" d="M59.814,29.542c-0.674,0.272-1.517,0.375-1.994,0.847c-2.465,2.429-4.801,4.988-7.252,7.433
			c-2.42,2.417-4.955,4.72-7.381,7.132c-1.908,1.896-3.707,3.903-5.591,5.823c-0.915,0.933-1.962,1.74-2.88,2.673
			c-1.983,2.014-3.908,4.084-5.887,6.103c-0.661,0.676-1.438,1.237-2.115,1.898c-1.022,1.002-2.048,2.011-2.998,3.082
			c-1.021,1.152-2.164,1.82-3.743,1.357l0.022-0.023c-0.182-0.1-0.363-0.198-0.546-0.299l0.012,0.007
			c-0.183-0.097-0.364-0.192-0.545-0.288l0.002,0.001c-0.107-0.078-0.212-0.157-0.319-0.235c0,0,0.002,0.023,0.002,0.022
			c-0.355-0.196-0.712-0.392-1.066-0.586l0.013,0.007c-0.184-0.1-0.366-0.196-0.548-0.293l0.008,0.006
			c-0.184-0.096-0.363-0.191-0.544-0.288v0.001c-0.103-0.082-0.208-0.163-0.313-0.244l0.014,0.023
			c-0.184-0.098-0.366-0.195-0.547-0.292l0.012,0.007c-0.182-0.098-0.365-0.196-0.547-0.295l0.012,0.008
			c-0.182-0.098-0.365-0.195-0.547-0.293l0.008,0.005c-0.181-0.097-0.359-0.19-0.539-0.286l-0.004-0.004
			c-0.104-0.08-0.209-0.16-0.314-0.242l0.019,0.024c-0.183-0.099-0.364-0.198-0.55-0.296l0.016,0.007
			c-0.184-0.099-0.366-0.196-0.551-0.293l0.014,0.006c-0.182-0.097-0.365-0.192-0.547-0.289v0.002
			c-0.083-0.096-0.166-0.192-0.248-0.29c-0.205-0.06-0.407-0.117-0.614-0.177l-0.017-0.017c0.117-0.572,0.234-1.143,0.354-1.715
			c0.09-0.09,0.18-0.18,0.271-0.27c0.092-0.091,0.183-0.184,0.273-0.275c0.09-0.09,0.181-0.181,0.271-0.271
			c0.092-0.091,0.184-0.183,0.273-0.272s0.182-0.182,0.272-0.272c0.091-0.091,0.183-0.183,0.271-0.272
			c0.091-0.092,0.184-0.183,0.274-0.272c0.092-0.093,0.181-0.183,0.271-0.273c0.093-0.091,0.184-0.182,0.273-0.272
			c0.091-0.09,0.18-0.182,0.272-0.272c0.093-0.09,0.181-0.182,0.272-0.272c0.091-0.092,0.183-0.183,0.273-0.272
			c0.09-0.091,0.181-0.183,0.271-0.272c0.09-0.09,0.184-0.182,0.271-0.272c0.094-0.09,0.184-0.183,0.274-0.272
			c0.093-0.09,0.183-0.181,0.273-0.271c0.091-0.091,0.182-0.182,0.271-0.273c0.091-0.091,0.183-0.182,0.274-0.272
			c0.091-0.091,0.18-0.181,0.271-0.272c0.091-0.091,0.182-0.183,0.274-0.272c0.09-0.091,0.181-0.183,0.272-0.274
			c0.09-0.091,0.181-0.181,0.271-0.271c0.09-0.09,0.182-0.182,0.271-0.272c0.092-0.091,0.183-0.181,0.273-0.272
			c0.092-0.092,0.182-0.183,0.271-0.272c0.092-0.091,0.184-0.183,0.274-0.272c0.091-0.09,0.181-0.183,0.272-0.272
			c0.09-0.091,0.182-0.183,0.273-0.272c0.09-0.092,0.18-0.182,0.273-0.273c0.089-0.09,0.18-0.182,0.271-0.271
			c0.091-0.091,0.182-0.183,0.273-0.272c0.09-0.091,0.182-0.183,0.271-0.272c0.092-0.091,0.183-0.182,0.273-0.273
			c0.09-0.09,0.182-0.182,0.271-0.272c0.092-0.091,0.183-0.182,0.273-0.272c0.092-0.09,0.182-0.183,0.273-0.273
			s0.18-0.181,0.271-0.273c0.093-0.09,0.183-0.182,0.273-0.271c0.093-0.091,0.181-0.184,0.274-0.273
			c0.09-0.09,0.181-0.182,0.271-0.271c0.091-0.091,0.182-0.184,0.272-0.273c0.09-0.09,0.183-0.182,0.272-0.271
			c0.092-0.092,0.183-0.182,0.272-0.273c0.091-0.09,0.184-0.182,0.272-0.272c0.092-0.091,0.183-0.181,0.271-0.272
			c0.094-0.091,0.186-0.183,0.273-0.271c0.093-0.092,0.182-0.184,0.274-0.273c0.091-0.091,0.181-0.182,0.271-0.271
			c0.091-0.092,0.182-0.184,0.272-0.274c0.092-0.09,0.183-0.181,0.273-0.272c0.091-0.09,0.182-0.182,0.271-0.271
			c0.092-0.091,0.184-0.182,0.273-0.273c0.091-0.09,0.182-0.181,0.271-0.271c0.094-0.091,0.185-0.182,0.275-0.273
			c0.09-0.091,0.181-0.182,0.271-0.271c0.092-0.092,0.182-0.182,0.273-0.273c0.09-0.09,0.182-0.182,0.273-0.272
			c0.09-0.091,0.182-0.181,0.271-0.272c0.09-0.09,0.182-0.182,0.273-0.271c0.09-0.092,0.182-0.184,0.271-0.273
			c0.091-0.091,0.182-0.182,0.273-0.271c0.09-0.092,0.182-0.184,0.271-0.272c0.091-0.092,0.182-0.183,0.273-0.272
			c0.09-0.092,0.182-0.183,0.273-0.273c0.09-0.091,0.181-0.182,0.271-0.271c0.092-0.092,0.182-0.183,0.273-0.272
			c0.09-0.092,0.182-0.183,0.271-0.272c0.092-0.091,0.182-0.182,0.273-0.272c0.09-0.091,0.182-0.181,0.272-0.272
			c0.091-0.091,0.181-0.183,0.274-0.272c0.088-0.091,0.181-0.183,0.271-0.272c0.09-0.09,0.182-0.182,0.273-0.271
			c0.089-0.092,0.182-0.182,0.271-0.273c0.091-0.09,0.182-0.182,0.272-0.271c0.091-0.092,0.182-0.183,0.272-0.272
			c0.092-0.091,0.183-0.183,0.273-0.272c0.092-0.092,0.181-0.183,0.271-0.273c0.093-0.091,0.184-0.182,0.274-0.273
			c0.091-0.089,0.181-0.181,0.271-0.271c0.091-0.091,0.183-0.182,0.273-0.272c0.091-0.091,0.182-0.182,0.272-0.273
			c0.09-0.091,0.182-0.182,0.271-0.272c0.091-0.091,0.184-0.183,0.273-0.273c0.089-0.09,0.182-0.182,0.274-0.272
			c0.091-0.091,0.181-0.183,0.272-0.273c0.09-0.091,0.181-0.182,0.271-0.273c0.092-0.092,0.182-0.181,0.271-0.273
			c0.092-0.091,0.184-0.182,0.273-0.273c0.092-0.09,0.182-0.181,0.274-0.272c0.089-0.092,0.181-0.182,0.271-0.274
			c0.092-0.09,0.182-0.182,0.275-0.273c0.088-0.09,0.18-0.181,0.27-0.273c0.092-0.09,0.182-0.182,0.275-0.272
			c0.089-0.091,0.18-0.182,0.27-0.273c0.093-0.091,0.184-0.182,0.275-0.272c0.09-0.091,0.181-0.183,0.27-0.272
			c0.094-0.091,0.184-0.183,0.275-0.273c0.09-0.091,0.181-0.182,0.273-0.272c0.09-0.091,0.182-0.182,0.271-0.274
			c0.09-0.089,0.182-0.181,0.272-0.272s0.183-0.182,0.272-0.273c0.271-0.277,0.542-0.554,0.813-0.831l-0.006,0.01
			c0.094-0.093,0.188-0.188,0.28-0.281l-0.007,0.009c0.093-0.095,0.186-0.188,0.281-0.283l-0.011,0.01
			c0.095-0.094,0.187-0.188,0.283-0.282l-0.011,0.008c0.095-0.093,0.188-0.188,0.281-0.281l-0.01,0.009
			c0.094-0.095,0.188-0.188,0.281-0.283l-0.008,0.009c0.093-0.094,0.189-0.188,0.281-0.282l-0.01,0.009
			c0.094-0.093,0.188-0.188,0.281-0.282l-0.01,0.009c0.095-0.094,0.188-0.188,0.283-0.282l-0.01,0.01
			c0.092-0.095,0.188-0.188,0.281-0.282l-0.008,0.01c0.092-0.095,0.186-0.188,0.281-0.283l-0.01,0.009
			c0.092-0.093,0.186-0.188,0.281-0.281l-0.011,0.008c0.095-0.093,0.188-0.187,0.283-0.281l-0.011,0.009
			c0.097-0.094,0.188-0.187,0.281-0.282l-0.009,0.009c0.093-0.094,0.188-0.188,0.282-0.282l-0.01,0.01
			c0.096-0.094,0.188-0.188,0.281-0.282l-0.009,0.009c0.095-0.093,0.188-0.188,0.281-0.281l-0.011,0.009
			c0.095-0.094,0.189-0.188,0.283-0.282l-0.009,0.01c0.093-0.094,0.188-0.188,0.281-0.283l-0.011,0.01
			c0.094-0.093,0.188-0.188,0.283-0.282l-0.01,0.009c0.094-0.093,0.188-0.188,0.282-0.282l-0.01,0.01
			c0.095-0.095,0.188-0.188,0.28-0.283l-0.008,0.01c0.092-0.106,0.187-0.212,0.279-0.318c-0.006-0.086,0.004-0.17,0.027-0.253
			c1.795-1.728,3.59-3.453,5.381-5.184c1.205-1.166,2.406-2.339,3.609-3.509c0.271-0.164,0.543-0.326,0.813-0.489
			c0.268-0.001,0.532-0.002,0.799-0.003c0.27,0.164,0.538,0.329,0.809,0.494c0.324,1.334,0.732,2.656,0.961,4.007
			C58.867,23.121,59.324,26.335,59.814,29.542z"/>
		<path fill="#FEA614" d="M11.596,52.452c0.494-3.312,0.973-6.626,1.479-9.937c1.035-6.714,2.078-13.425,3.129-20.137
			c1.084-6.936,2.151-13.873,3.319-20.796c0.104-0.611,0.818-1.462,1.365-1.562c0.539-0.099,1.508,0.464,1.804,1.002
			c3.055,5.568,6.01,11.188,8.992,16.794c-0.527,0.367-1.222,0.625-1.544,1.123c-0.683,1.058-1.137,2.258-1.744,3.368
			c-2.393,4.371-4.855,8.704-7.203,13.098c-2.502,4.679-4.87,9.431-7.375,14.107C13.244,50.584,12.346,51.477,11.596,52.452z"/>
		<path fill="#FDA310" d="M45.955,24.606c-0.023,0.083-0.033,0.167-0.027,0.254c-0.094,0.106-0.188,0.212-0.279,0.317
			c0,0,0.009-0.01,0.009-0.009c-0.095,0.094-0.187,0.188-0.281,0.282l0.011-0.01c-0.095,0.094-0.189,0.188-0.283,0.282l0.01-0.009
			c-0.094,0.094-0.189,0.188-0.282,0.282l0.01-0.01c-0.095,0.095-0.188,0.188-0.28,0.283c0,0,0.008-0.01,0.008-0.009
			c-0.094,0.093-0.188,0.188-0.282,0.281l0.01-0.009c-0.094,0.093-0.188,0.188-0.28,0.281l0.008-0.009
			c-0.094,0.094-0.187,0.188-0.281,0.282l0.01-0.01c-0.093,0.096-0.189,0.188-0.281,0.282l0.008-0.009
			c-0.094,0.095-0.186,0.188-0.281,0.282l0.011-0.009c-0.095,0.094-0.188,0.188-0.283,0.281l0.011-0.008
			c-0.097,0.094-0.188,0.188-0.281,0.281l0.01-0.009c-0.096,0.095-0.189,0.188-0.281,0.283l0.008-0.01
			c-0.095,0.095-0.188,0.188-0.281,0.282l0.01-0.01c-0.096,0.094-0.188,0.188-0.283,0.282l0.01-0.009
			c-0.095,0.094-0.188,0.188-0.281,0.282l0.011-0.009c-0.093,0.095-0.189,0.188-0.282,0.282c0,0,0.008-0.009,0.008-0.008
			c-0.093,0.094-0.188,0.187-0.281,0.282l0.01-0.009c-0.094,0.094-0.188,0.188-0.281,0.281l0.011-0.008
			c-0.097,0.094-0.188,0.188-0.282,0.282c0,0,0.01-0.01,0.008-0.01c-0.094,0.094-0.188,0.188-0.279,0.283l0.007-0.009
			c-0.093,0.094-0.188,0.188-0.28,0.281l0.006-0.01c-0.264,0.101-0.526,0.202-0.793,0.304c-0.332-0.479-0.721-0.929-0.992-1.44
			c-1.427-2.716-2.791-5.465-4.252-8.164c-0.516-0.953-1.238-1.793-1.866-2.684c-0.006-0.162-0.012-0.324-0.016-0.486
			c0.289-0.3,0.661-0.554,0.853-0.907c1.041-1.912,2.011-3.863,3.058-5.772c0.934-1.704,2.371-1.736,3.281-0.031
			C41.484,15.993,43.707,20.307,45.955,24.606z"/>
		<path fill="#F89C0F" d="M32.008,18.424c0.004,0.162,0.01,0.324,0.016,0.485c-0.971,1.846-1.945,3.69-2.908,5.539
			c-3.336,6.393-6.66,12.791-10.002,19.179c-1.074,2.047-2.227,4.053-3.285,6.104c-1.643,3.182-3.236,6.388-4.851,9.582
			c-0.171,0.082-0.345,0.166-0.516,0.252c0.378-2.373,0.755-4.742,1.134-7.112c0.75-0.976,1.648-1.868,2.223-2.937
			c2.505-4.678,4.873-9.43,7.375-14.108c2.348-4.395,4.811-8.727,7.203-13.098c0.607-1.11,1.062-2.311,1.744-3.368
			c0.322-0.498,1.017-0.756,1.544-1.123C31.791,18.02,31.898,18.222,32.008,18.424z"/>
		<path fill="#FDCE4E" d="M10.462,59.564c0.171-0.084,0.345-0.168,0.516-0.252c0.198-0.016,0.394-0.03,0.589-0.045l0.008,0.004
			c-0.119,0.572-0.236,1.144-0.354,1.715C10.4,60.814,9.992,60.423,10.462,59.564z"/>
		<path fill="#FEC92B" d="M17.535,64.489c0.354,0.194,0.711,0.39,1.066,0.586C18.244,64.88,17.888,64.686,17.535,64.489z"/>
		<path fill="#FDCE4E" d="M55.759,15.424c-0.271,0.163-0.542,0.326-0.813,0.489C55.217,15.75,55.488,15.587,55.759,15.424z"/>
		<path fill="#FDCE4E" d="M57.365,15.915c-0.27-0.165-0.539-0.33-0.809-0.494C56.826,15.585,57.096,15.75,57.365,15.915z"/>
		<path fill="#FDCE4E" d="M11.237,61.003c0.207,0.06,0.409,0.118,0.614,0.177c0,0.073,0,0.146,0.002,0.219
			C11.647,61.266,11.444,61.134,11.237,61.003z"/>
		<path fill="#FEC92B" d="M19.45,65.568c0.183,0.101,0.364,0.199,0.546,0.299C19.814,65.768,19.633,65.668,19.45,65.568z"/>
		<path fill="#FEC92B" d="M12.098,61.468c0.182,0.097,0.365,0.192,0.547,0.289C12.463,61.661,12.279,61.564,12.098,61.468z"/>
		<path fill="#FEC92B" d="M12.631,61.751c0.185,0.097,0.367,0.194,0.551,0.293C12.998,61.945,12.815,61.848,12.631,61.751z"/>
		<path fill="#FEC92B" d="M13.166,62.037c0.186,0.098,0.367,0.197,0.55,0.296C13.533,62.234,13.352,62.135,13.166,62.037z"/>
		<path fill="#FEC92B" d="M14.016,62.555c0.18,0.096,0.358,0.189,0.539,0.286C14.374,62.745,14.195,62.65,14.016,62.555z"/>
		<path fill="#FEC92B" d="M14.547,62.836c0.182,0.098,0.365,0.195,0.547,0.293C14.912,63.032,14.729,62.934,14.547,62.836z"/>
		<path fill="#FEC92B" d="M15.082,63.122c0.182,0.099,0.365,0.196,0.547,0.295C15.447,63.318,15.264,63.221,15.082,63.122z"/>
		<path fill="#FEC92B" d="M15.617,63.41c0.181,0.097,0.363,0.193,0.547,0.292C15.98,63.604,15.798,63.507,15.617,63.41z"/>
		<path fill="#FEC92B" d="M16.464,63.921c0.181,0.097,0.36,0.19,0.544,0.288C16.824,64.113,16.645,64.018,16.464,63.921z"/>
		<path fill="#FEC92B" d="M17,64.203c0.182,0.098,0.364,0.193,0.548,0.293C17.364,64.398,17.182,64.3,17,64.203z"/>
		<path fill="#FEC92B" d="M18.917,65.287c0.181,0.096,0.362,0.191,0.545,0.288C19.279,65.479,19.098,65.382,18.917,65.287z"/>
		<path fill="#FEC92B" d="M11.854,61.398c-0.002-0.072-0.002-0.146-0.002-0.219c0.082,0.098,0.165,0.194,0.248,0.29
			C12.008,61.475,11.928,61.451,11.854,61.398z"/>
		<path fill="#FEC92B" d="M13.697,62.309c0.105,0.082,0.211,0.161,0.314,0.242C13.908,62.47,13.803,62.391,13.697,62.309z"/>
		<path fill="#FEC92B" d="M16.15,63.68c0.105,0.08,0.211,0.161,0.313,0.243C16.361,63.841,16.256,63.76,16.15,63.68z"/>
		<path fill="#FEC92B" d="M18.6,65.053c0.107,0.078,0.212,0.157,0.319,0.235C18.812,65.209,18.707,65.131,18.6,65.053z"/>
		<path fill="#FDCE4E" d="M39.135,31.198c0.266-0.102,0.529-0.203,0.793-0.304c-0.271,0.277-0.543,0.554-0.813,0.831l-0.014-0.012
			C39.111,31.542,39.125,31.37,39.135,31.198z"/>
		<path fill="#FDCE4E" d="M40.738,30.086c0.096-0.093,0.188-0.187,0.283-0.281C40.927,29.898,40.834,29.993,40.738,30.086z"/>
		<path fill="#FDCE4E" d="M40.467,30.36c0.094-0.094,0.188-0.188,0.283-0.282C40.652,30.171,40.561,30.266,40.467,30.36z"/>
		<path fill="#FDCE4E" d="M40.195,30.632c0.093-0.095,0.186-0.188,0.279-0.283C40.381,30.444,40.288,30.538,40.195,30.632z"/>
		<path fill="#FDCE4E" d="M39.922,30.904c0.094-0.093,0.188-0.188,0.28-0.281C40.109,30.717,40.016,30.811,39.922,30.904z"/>
		<path fill="#FDCE4E" d="M39.113,31.725c-0.09,0.091-0.182,0.182-0.271,0.273l-0.012-0.011c0.09-0.091,0.182-0.183,0.271-0.274
			L39.113,31.725z"/>
		<path fill="#FDCE4E" d="M38.842,31.998c-0.092,0.091-0.184,0.183-0.271,0.272l-0.014-0.01c0.092-0.091,0.185-0.183,0.273-0.272
			L38.842,31.998z"/>
		<path fill="#FDCE4E" d="M38.568,32.27c-0.09,0.092-0.182,0.183-0.271,0.274l-0.012-0.012c0.092-0.091,0.182-0.181,0.271-0.272
			L38.568,32.27z"/>
		<path fill="#FDCE4E" d="M38.297,32.544c-0.093,0.09-0.184,0.181-0.273,0.272l-0.012-0.011c0.092-0.091,0.184-0.182,0.273-0.273
			L38.297,32.544z"/>
		<path fill="#FDCE4E" d="M38.023,32.816c-0.092,0.09-0.183,0.182-0.275,0.273l-0.008-0.012c0.09-0.091,0.181-0.182,0.271-0.272
			L38.023,32.816z"/>
		<path fill="#FDCE4E" d="M37.748,33.089c-0.089,0.09-0.18,0.182-0.27,0.272l-0.012-0.012c0.091-0.091,0.182-0.182,0.273-0.272
			L37.748,33.089z"/>
		<path fill="#FDCE4E" d="M37.479,33.362c-0.092,0.09-0.183,0.182-0.275,0.272l-0.01-0.012c0.092-0.091,0.182-0.182,0.273-0.272
			L37.479,33.362z"/>
		<path fill="#FDCE4E" d="M37.203,33.634c-0.09,0.091-0.181,0.182-0.27,0.273l-0.014-0.012c0.091-0.091,0.184-0.182,0.273-0.272
			L37.203,33.634z"/>
		<path fill="#FDCE4E" d="M36.934,33.907c-0.094,0.09-0.184,0.182-0.275,0.272l-0.011-0.011c0.093-0.091,0.183-0.183,0.272-0.273
			L36.934,33.907z"/>
		<path fill="#FDCE4E" d="M36.658,34.179c-0.09,0.092-0.182,0.183-0.27,0.273l-0.014-0.011c0.09-0.091,0.184-0.182,0.272-0.272
			L36.658,34.179z"/>
		<path fill="#FDCE4E" d="M36.389,34.452c-0.094,0.091-0.184,0.183-0.275,0.273l-0.011-0.012c0.093-0.09,0.183-0.181,0.272-0.272
			L36.389,34.452z"/>
		<path fill="#FDCE4E" d="M36.113,34.725c-0.09,0.092-0.182,0.182-0.271,0.274c0,0-0.013-0.012-0.013-0.011
			c0.092-0.092,0.184-0.183,0.272-0.274L36.113,34.725z"/>
		<path fill="#FDCE4E" d="M35.843,34.999c-0.093,0.091-0.183,0.182-0.274,0.272c0,0-0.012-0.011-0.01-0.011
			c0.092-0.091,0.182-0.182,0.271-0.273L35.843,34.999z"/>
		<path fill="#FDCE4E" d="M35.568,35.271c-0.09,0.091-0.182,0.182-0.273,0.273l-0.01-0.01c0.092-0.092,0.183-0.183,0.271-0.273
			L35.568,35.271z"/>
		<path fill="#FDCE4E" d="M35.295,35.544c-0.09,0.092-0.18,0.181-0.271,0.273l-0.01-0.011c0.092-0.09,0.183-0.182,0.271-0.272
			L35.295,35.544z"/>
		<path fill="#FDCE4E" d="M35.023,35.817c-0.091,0.091-0.182,0.182-0.271,0.273l-0.011-0.011c0.091-0.091,0.181-0.181,0.272-0.273
			L35.023,35.817z"/>
		<path fill="#FDCE4E" d="M34.752,36.09c-0.092,0.09-0.182,0.182-0.272,0.273l-0.012-0.011c0.092-0.091,0.183-0.182,0.273-0.273
			L34.752,36.09z"/>
		<path fill="#FDCE4E" d="M34.479,36.363c-0.093,0.09-0.185,0.182-0.274,0.272l-0.01-0.011c0.091-0.091,0.182-0.182,0.272-0.272
			L34.479,36.363z"/>
		<path fill="#FDCE4E" d="M34.205,36.635c-0.09,0.09-0.183,0.182-0.273,0.273l-0.01-0.011c0.091-0.091,0.183-0.182,0.273-0.273
			L34.205,36.635z"/>
		<path fill="#FDCE4E" d="M33.932,36.908c-0.09,0.091-0.182,0.181-0.271,0.272l-0.011-0.012c0.091-0.091,0.181-0.182,0.272-0.272
			L33.932,36.908z"/>
		<path fill="#FDCE4E" d="M33.66,37.181c-0.091,0.091-0.182,0.182-0.272,0.273l-0.01-0.011c0.091-0.091,0.182-0.182,0.271-0.273
			L33.66,37.181z"/>
		<path fill="#FDCE4E" d="M33.388,37.454c-0.091,0.091-0.183,0.182-0.273,0.272c0,0-0.01-0.011-0.01-0.01
			c0.092-0.092,0.181-0.183,0.273-0.273L33.388,37.454z"/>
		<path fill="#FDCE4E" d="M33.114,37.726c-0.091,0.091-0.181,0.183-0.271,0.272l-0.011-0.011c0.092-0.09,0.184-0.182,0.272-0.273
			L33.114,37.726z"/>
		<path fill="#FDCE4E" d="M32.843,37.999c-0.091,0.091-0.182,0.183-0.274,0.272l-0.01-0.011c0.093-0.091,0.181-0.182,0.273-0.273
			L32.843,37.999z"/>
		<path fill="#FDCE4E" d="M32.568,38.271c-0.091,0.092-0.18,0.183-0.271,0.273l-0.01-0.011c0.092-0.091,0.183-0.183,0.271-0.273
			L32.568,38.271z"/>
		<path fill="#FDCE4E" d="M32.297,38.545c-0.091,0.09-0.182,0.182-0.273,0.273l-0.01-0.012c0.094-0.091,0.183-0.183,0.273-0.272
			L32.297,38.545z"/>
		<path fill="#FDCE4E" d="M32.023,38.818c-0.091,0.09-0.182,0.181-0.272,0.271l-0.01-0.011c0.093-0.091,0.183-0.183,0.272-0.272
			L32.023,38.818z"/>
		<path fill="#FDCE4E" d="M31.751,39.09c-0.091,0.09-0.182,0.182-0.272,0.271l-0.01-0.01c0.091-0.091,0.182-0.182,0.272-0.271
			L31.751,39.09z"/>
		<path fill="#FDCE4E" d="M31.479,39.361c-0.09,0.093-0.183,0.183-0.271,0.273l-0.01-0.011c0.09-0.091,0.182-0.181,0.271-0.272
			L31.479,39.361z"/>
		<path fill="#FDCE4E" d="M31.207,39.636c-0.092,0.091-0.183,0.183-0.273,0.272l-0.01-0.01c0.09-0.092,0.182-0.183,0.273-0.273
			L31.207,39.636z"/>
		<path fill="#FDCE4E" d="M30.934,39.908c-0.091,0.091-0.184,0.182-0.271,0.271l-0.011-0.011c0.091-0.091,0.183-0.181,0.272-0.272
			L30.934,39.908z"/>
		<path fill="#FDCE4E" d="M30.662,40.182c-0.094,0.09-0.184,0.182-0.274,0.272c0,0-0.01-0.011-0.009-0.011
			c0.09-0.09,0.182-0.183,0.272-0.273L30.662,40.182z"/>
		<path fill="#FDCE4E" d="M30.388,40.454c-0.091,0.091-0.183,0.182-0.272,0.272l-0.01-0.011c0.092-0.091,0.182-0.183,0.272-0.272
			L30.388,40.454z"/>
		<path fill="#FDCE4E" d="M30.115,40.727c-0.092,0.09-0.182,0.182-0.273,0.271l-0.01-0.01c0.092-0.092,0.182-0.182,0.273-0.272
			L30.115,40.727z"/>
		<path fill="#FDCE4E" d="M29.842,40.999c-0.09,0.091-0.182,0.183-0.271,0.272c0,0-0.01-0.011-0.01-0.01
			c0.092-0.091,0.181-0.183,0.271-0.272L29.842,40.999z"/>
		<path fill="#FDCE4E" d="M29.57,41.271c-0.092,0.092-0.182,0.183-0.273,0.272l-0.01-0.01c0.092-0.091,0.182-0.183,0.273-0.273
			L29.57,41.271z"/>
		<path fill="#FDCE4E" d="M29.297,41.544c-0.091,0.091-0.182,0.183-0.271,0.272l-0.01-0.01c0.09-0.091,0.181-0.183,0.271-0.272
			L29.297,41.544z"/>
		<path fill="#FDCE4E" d="M29.025,41.816c-0.092,0.093-0.184,0.183-0.273,0.273l-0.01-0.011c0.091-0.091,0.182-0.183,0.273-0.272
			L29.025,41.816z"/>
		<path fill="#FDCE4E" d="M28.752,42.09c-0.092,0.092-0.183,0.182-0.273,0.273l-0.008-0.012c0.092-0.09,0.18-0.182,0.271-0.272
			L28.752,42.09z"/>
		<path fill="#FDCE4E" d="M28.479,42.364c-0.09,0.089-0.182,0.181-0.271,0.271l-0.01-0.01c0.091-0.091,0.182-0.183,0.273-0.274
			L28.479,42.364z"/>
		<path fill="#FDCE4E" d="M28.207,42.636c-0.092,0.091-0.183,0.181-0.273,0.272l-0.009-0.01c0.093-0.092,0.181-0.182,0.272-0.272
			L28.207,42.636z"/>
		<path fill="#FDCE4E" d="M27.934,42.909c-0.09,0.09-0.182,0.182-0.271,0.272l-0.009-0.01c0.089-0.09,0.181-0.181,0.271-0.271
			L27.934,42.909z"/>
		<path fill="#FDCE4E" d="M27.662,43.182c-0.092,0.092-0.184,0.183-0.273,0.272l-0.008-0.009c0.092-0.092,0.182-0.182,0.272-0.273
			L27.662,43.182z"/>
		<path fill="#FDCE4E" d="M27.389,43.454c-0.09,0.091-0.182,0.183-0.271,0.272l-0.01-0.009c0.09-0.092,0.184-0.182,0.273-0.272
			L27.389,43.454z"/>
		<path fill="#FDCE4E" d="M27.117,43.727c-0.092,0.092-0.184,0.184-0.273,0.273l-0.008-0.008c0.092-0.092,0.182-0.182,0.271-0.273
			L27.117,43.727z"/>
		<path fill="#FDCE4E" d="M26.844,44c-0.092,0.092-0.182,0.182-0.273,0.273l-0.008-0.01c0.09-0.09,0.183-0.182,0.273-0.271
			L26.844,44z"/>
		<path fill="#FDCE4E" d="M26.57,44.273c-0.091,0.09-0.182,0.182-0.271,0.271l-0.01-0.009c0.094-0.091,0.183-0.181,0.273-0.272
			L26.57,44.273z"/>
		<path fill="#FDCE4E" d="M26.299,44.545c-0.091,0.091-0.182,0.182-0.275,0.273l-0.007-0.01c0.091-0.09,0.183-0.182,0.272-0.272
			L26.299,44.545z"/>
		<path fill="#FDCE4E" d="M26.023,44.818c-0.09,0.091-0.181,0.182-0.271,0.271l-0.008-0.009c0.091-0.091,0.182-0.183,0.272-0.272
			L26.023,44.818z"/>
		<path fill="#FDCE4E" d="M45.648,25.178c0.092-0.104,0.186-0.211,0.278-0.317C45.834,24.966,45.74,25.072,45.648,25.178z"/>
		<path fill="#FDCE4E" d="M25.752,45.091c-0.09,0.091-0.182,0.183-0.273,0.273l-0.008-0.009c0.093-0.09,0.184-0.183,0.273-0.273
			L25.752,45.091z"/>
		<path fill="#FDCE4E" d="M25.479,45.364c-0.09,0.091-0.181,0.182-0.271,0.271L25.2,45.628c0.09-0.091,0.183-0.183,0.271-0.272
			L25.479,45.364z"/>
		<path fill="#FDCE4E" d="M25.207,45.636c-0.091,0.091-0.182,0.183-0.273,0.272L24.927,45.9c0.089-0.092,0.183-0.183,0.272-0.272
			L25.207,45.636z"/>
		<path fill="#FDCE4E" d="M24.934,45.909c-0.091,0.091-0.182,0.183-0.272,0.274l-0.006-0.01c0.089-0.091,0.18-0.183,0.271-0.273
			L24.934,45.909z"/>
		<path fill="#FDCE4E" d="M24.661,46.184c-0.091,0.09-0.181,0.181-0.271,0.271l-0.008-0.01c0.09-0.09,0.183-0.182,0.273-0.272
			L24.661,46.184z"/>
		<path fill="#FDCE4E" d="M24.39,46.455c-0.093,0.09-0.182,0.182-0.274,0.273l-0.006-0.01c0.09-0.09,0.182-0.182,0.272-0.271
			L24.39,46.455z"/>
		<path fill="#FDCE4E" d="M24.115,46.729c-0.088,0.09-0.18,0.181-0.273,0.271l-0.006-0.008c0.091-0.092,0.181-0.184,0.273-0.274
			L24.115,46.729z"/>
		<path fill="#FDCE4E" d="M23.842,47c-0.089,0.091-0.18,0.182-0.271,0.271l-0.006-0.008c0.09-0.091,0.181-0.183,0.271-0.271
			L23.842,47z"/>
		<path fill="#FDCE4E" d="M23.57,47.273c-0.089,0.091-0.182,0.183-0.272,0.272l-0.007-0.008c0.092-0.09,0.183-0.183,0.273-0.272
			L23.57,47.273z"/>
		<path fill="#FDCE4E" d="M23.298,47.546c-0.09,0.091-0.181,0.183-0.272,0.272l-0.007-0.008c0.09-0.092,0.183-0.182,0.272-0.272
			L23.298,47.546z"/>
		<path fill="#FDCE4E" d="M23.025,47.818c-0.09,0.092-0.183,0.183-0.272,0.272l-0.007-0.008c0.091-0.091,0.182-0.181,0.272-0.272
			L23.025,47.818z"/>
		<path fill="#FDCE4E" d="M22.753,48.091c-0.091,0.091-0.182,0.183-0.272,0.273l-0.008-0.009c0.092-0.092,0.184-0.183,0.273-0.273
			L22.753,48.091z"/>
		<path fill="#FDCE4E" d="M22.48,48.365c-0.091,0.09-0.182,0.182-0.271,0.271l-0.008-0.009c0.09-0.091,0.182-0.183,0.271-0.272
			L22.48,48.365z"/>
		<path fill="#FDCE4E" d="M22.209,48.637c-0.094,0.09-0.182,0.182-0.274,0.273l-0.008-0.01c0.093-0.09,0.185-0.181,0.274-0.272
			L22.209,48.637z"/>
		<path fill="#FDCE4E" d="M21.935,48.91c-0.091,0.09-0.181,0.181-0.273,0.271l-0.006-0.007c0.091-0.092,0.183-0.183,0.271-0.274
			L21.935,48.91z"/>
		<path fill="#FDCE4E" d="M21.661,49.182c-0.091,0.092-0.18,0.183-0.271,0.273l-0.008-0.008c0.091-0.092,0.184-0.182,0.272-0.272
			L21.661,49.182z"/>
		<path fill="#FDCE4E" d="M21.391,49.455c-0.092,0.091-0.182,0.184-0.273,0.273L21.11,49.72c0.092-0.091,0.184-0.183,0.273-0.272
			L21.391,49.455z"/>
		<path fill="#FDCE4E" d="M21.117,49.729c-0.091,0.09-0.182,0.182-0.273,0.272l-0.006-0.008c0.09-0.093,0.183-0.183,0.271-0.273
			L21.117,49.729z"/>
		<path fill="#FDCE4E" d="M45.375,25.451c0.096-0.095,0.188-0.188,0.281-0.282C45.563,25.263,45.471,25.356,45.375,25.451z"/>
		<path fill="#FDCE4E" d="M45.102,25.723c0.094-0.093,0.189-0.188,0.283-0.282C45.291,25.535,45.195,25.629,45.102,25.723z"/>
		<path fill="#FDCE4E" d="M20.844,50.001c-0.09,0.091-0.182,0.183-0.271,0.272l-0.008-0.008c0.092-0.091,0.182-0.182,0.273-0.272
			L20.844,50.001z"/>
		<path fill="#FDCE4E" d="M20.572,50.273c-0.091,0.092-0.182,0.183-0.273,0.273l-0.006-0.009c0.09-0.09,0.18-0.183,0.271-0.272
			L20.572,50.273z"/>
		<path fill="#FDCE4E" d="M20.299,50.547c-0.09,0.092-0.182,0.182-0.271,0.271l-0.008-0.008c0.091-0.091,0.18-0.182,0.273-0.272
			L20.299,50.547z"/>
		<path fill="#FDCE4E" d="M20.027,50.818c-0.092,0.091-0.183,0.183-0.273,0.273l-0.006-0.008c0.09-0.092,0.18-0.184,0.271-0.273
			L20.027,50.818z"/>
		<path fill="#FDCE4E" d="M19.754,51.092c-0.092,0.09-0.183,0.182-0.271,0.271l-0.01-0.008c0.093-0.09,0.182-0.183,0.275-0.271
			L19.754,51.092z"/>
		<path fill="#FDCE4E" d="M19.482,51.364c-0.094,0.092-0.184,0.183-0.273,0.272L19.2,51.629c0.091-0.091,0.183-0.182,0.272-0.271
			L19.482,51.364z"/>
		<path fill="#FDCE4E" d="M19.209,51.637c-0.092,0.092-0.184,0.182-0.273,0.273l-0.008-0.008c0.092-0.092,0.182-0.183,0.272-0.273
			L19.209,51.637z"/>
		<path fill="#FDCE4E" d="M18.936,51.91c-0.092,0.09-0.182,0.182-0.272,0.273l-0.008-0.009c0.091-0.091,0.185-0.182,0.272-0.272
			L18.936,51.91z"/>
		<path fill="#FDCE4E" d="M18.663,52.184c-0.091,0.09-0.183,0.182-0.274,0.271l-0.006-0.008c0.09-0.092,0.182-0.182,0.272-0.273
			L18.663,52.184z"/>
		<path fill="#FDCE4E" d="M18.389,52.456c-0.09,0.091-0.18,0.181-0.271,0.272l-0.006-0.009c0.091-0.09,0.181-0.182,0.271-0.271
			L18.389,52.456z"/>
		<path fill="#FDCE4E" d="M18.117,52.729c-0.091,0.092-0.182,0.182-0.273,0.272l-0.006-0.007c0.092-0.092,0.182-0.182,0.273-0.273
			L18.117,52.729z"/>
		<path fill="#FDCE4E" d="M17.844,53.001c-0.09,0.091-0.182,0.183-0.271,0.272l-0.006-0.008c0.09-0.09,0.181-0.182,0.271-0.271
			L17.844,53.001z"/>
		<path fill="#FDCE4E" d="M44.829,25.996c0.093-0.093,0.188-0.188,0.282-0.282C45.018,25.808,44.922,25.902,44.829,25.996z"/>
		<path fill="#FDCE4E" d="M17.301,53.545c-0.092,0.092-0.183,0.184-0.272,0.273l-0.007-0.008c0.091-0.09,0.18-0.182,0.272-0.271
			L17.301,53.545z"/>
		<path fill="#FDCE4E" d="M17.028,53.82c-0.093,0.09-0.184,0.182-0.274,0.272l-0.006-0.007c0.093-0.091,0.182-0.182,0.273-0.273
			L17.028,53.82z"/>
		<path fill="#FDCE4E" d="M16.754,54.093c-0.092,0.091-0.181,0.181-0.271,0.272l-0.006-0.006c0.09-0.092,0.181-0.183,0.271-0.272
			L16.754,54.093z"/>
		<path fill="#FDCE4E" d="M16.482,54.365c-0.092,0.091-0.184,0.182-0.274,0.273l-0.004-0.007c0.089-0.091,0.181-0.182,0.272-0.272
			L16.482,54.365z"/>
		<path fill="#FDCE4E" d="M44.559,26.269c0.092-0.094,0.187-0.188,0.28-0.283C44.746,26.081,44.65,26.174,44.559,26.269z"/>
		<path fill="#FDCE4E" d="M16.208,54.639c-0.09,0.09-0.181,0.182-0.271,0.272l-0.006-0.007c0.091-0.092,0.181-0.182,0.273-0.272
			L16.208,54.639z"/>
		<path fill="#FDCE4E" d="M15.937,54.911c-0.091,0.091-0.181,0.182-0.273,0.272l-0.004-0.007c0.089-0.091,0.181-0.182,0.271-0.272
			L15.937,54.911z"/>
		<path fill="#FDCE4E" d="M15.663,55.184c-0.091,0.09-0.181,0.183-0.274,0.271l-0.004-0.006c0.092-0.092,0.184-0.182,0.274-0.273
			L15.663,55.184z"/>
		<path fill="#FDCE4E" d="M15.389,55.456c-0.088,0.092-0.181,0.183-0.271,0.272l-0.004-0.006c0.09-0.092,0.181-0.183,0.271-0.272
			L15.389,55.456z"/>
		<path fill="#FDCE4E" d="M15.117,55.729c-0.091,0.092-0.182,0.183-0.271,0.272l-0.007-0.006c0.093-0.091,0.182-0.183,0.274-0.272
			L15.117,55.729z"/>
		<path fill="#FDCE4E" d="M14.846,56.001c-0.091,0.091-0.182,0.183-0.273,0.272l-0.006-0.006c0.092-0.092,0.183-0.183,0.272-0.273
			L14.846,56.001z"/>
		<path fill="#FDCE4E" d="M14.572,56.273c-0.092,0.092-0.18,0.184-0.272,0.273l-0.006-0.006c0.092-0.091,0.183-0.182,0.272-0.271
			L14.572,56.273z"/>
		<path fill="#FDCE4E" d="M14.3,56.547c-0.093,0.092-0.182,0.182-0.272,0.273l-0.006-0.008c0.091-0.09,0.182-0.182,0.272-0.271
			L14.3,56.547z"/>
		<path fill="#FDCE4E" d="M14.027,56.82c-0.09,0.091-0.181,0.181-0.273,0.271l-0.004-0.006c0.091-0.091,0.181-0.182,0.271-0.273
			L14.027,56.82z"/>
		<path fill="#FDCE4E" d="M13.754,57.092c-0.091,0.092-0.18,0.182-0.271,0.273l-0.004-0.008c0.088-0.09,0.18-0.181,0.271-0.271
			L13.754,57.092z"/>
		<path fill="#FDCE4E" d="M13.482,57.366c-0.091,0.09-0.184,0.181-0.274,0.272l-0.004-0.007c0.089-0.092,0.183-0.182,0.274-0.272
			L13.482,57.366z"/>
		<path fill="#FDCE4E" d="M13.208,57.639c-0.089,0.09-0.181,0.182-0.271,0.272l-0.006-0.006c0.09-0.091,0.183-0.183,0.273-0.272
			L13.208,57.639z"/>
		<path fill="#FDCE4E" d="M12.937,57.911c-0.091,0.091-0.183,0.182-0.272,0.272l-0.006-0.007c0.092-0.09,0.182-0.181,0.272-0.271
			L12.937,57.911z"/>
		<path fill="#FDCE4E" d="M12.664,58.184c-0.09,0.092-0.182,0.183-0.273,0.272l-0.006-0.007c0.092-0.092,0.184-0.182,0.273-0.273
			L12.664,58.184z"/>
		<path fill="#FDCE4E" d="M17.572,53.273c-0.091,0.092-0.182,0.182-0.271,0.271l-0.007-0.005c0.091-0.092,0.181-0.183,0.272-0.274
			L17.572,53.273z"/>
		<path fill="#FDCE4E" d="M12.119,58.727c-0.091,0.092-0.182,0.185-0.273,0.275l-0.006-0.007c0.09-0.09,0.183-0.183,0.271-0.272
			L12.119,58.727z"/>
		<path fill="#FDCE4E" d="M11.846,59.002c-0.092,0.09-0.182,0.18-0.271,0.27l-0.008-0.004c0.092-0.091,0.182-0.182,0.273-0.272
			L11.846,59.002z"/>
		<path fill="#FDCE4E" d="M44.283,26.541c0.094-0.094,0.189-0.188,0.281-0.281C44.473,26.353,44.377,26.447,44.283,26.541z"/>
		<path fill="#FDCE4E" d="M44.012,26.813c0.094-0.093,0.188-0.188,0.281-0.281C44.199,26.625,44.105,26.72,44.012,26.813z"/>
		<path fill="#FDCE4E" d="M43.738,27.086c0.096-0.094,0.188-0.188,0.281-0.282C43.927,26.898,43.834,26.993,43.738,27.086z"/>
		<path fill="#FDCE4E" d="M43.466,27.359c0.093-0.094,0.188-0.187,0.282-0.282C43.654,27.171,43.559,27.265,43.466,27.359z"/>
		<path fill="#FDCE4E" d="M43.193,27.632c0.096-0.094,0.188-0.187,0.281-0.282C43.381,27.445,43.289,27.538,43.193,27.632z"/>
		<path fill="#FDCE4E" d="M42.92,27.904c0.096-0.093,0.189-0.187,0.283-0.281C43.109,27.717,43.016,27.811,42.92,27.904z"/>
		<path fill="#FDCE4E" d="M42.648,28.177c0.093-0.093,0.186-0.188,0.281-0.281C42.834,27.99,42.741,28.084,42.648,28.177z"/>
		<path fill="#FDCE4E" d="M42.377,28.451c0.092-0.095,0.186-0.188,0.281-0.283C42.563,28.262,42.469,28.356,42.377,28.451z"/>
		<path fill="#FDCE4E" d="M42.104,28.723c0.092-0.095,0.188-0.188,0.281-0.282C42.29,28.536,42.195,28.628,42.104,28.723z"/>
		<path fill="#FDCE4E" d="M41.829,28.996c0.095-0.094,0.188-0.188,0.282-0.282C42.018,28.808,41.924,28.901,41.829,28.996z"/>
		<path fill="#FDCE4E" d="M41.557,29.268c0.096-0.093,0.188-0.188,0.282-0.282C41.744,29.08,41.65,29.175,41.557,29.268z"/>
		<path fill="#FDCE4E" d="M41.285,29.541c0.093-0.094,0.189-0.187,0.281-0.282C41.475,29.353,41.378,29.447,41.285,29.541z"/>
		<path fill="#FDCE4E" d="M41.012,29.814c0.094-0.095,0.188-0.188,0.281-0.282C41.2,29.626,41.105,29.719,41.012,29.814z"/>
		<path fill="#FDCE4E" d="M12.391,58.456c-0.091,0.09-0.182,0.181-0.271,0.271l-0.008-0.004c0.094-0.093,0.184-0.182,0.273-0.273
			L12.391,58.456z"/>
		<path fill="#F3810D" d="M12.385,58.449c-0.09,0.092-0.18,0.181-0.273,0.273c-0.089,0.09-0.182,0.182-0.271,0.271
			c-0.092,0.091-0.182,0.182-0.273,0.271c-0.195,0.016-0.391,0.03-0.589,0.045c1.614-3.193,3.208-6.398,4.851-9.58
			c1.059-2.053,2.211-4.058,3.285-6.104c3.342-6.388,6.666-12.786,10.002-19.179c0.963-1.849,1.938-3.693,2.908-5.539
			c0.628,0.891,1.351,1.732,1.866,2.685c1.462,2.698,2.825,5.448,4.253,8.164c0.271,0.512,0.66,0.962,0.992,1.44
			c-0.011,0.172-0.023,0.344-0.033,0.516c-0.09,0.091-0.183,0.183-0.271,0.274c-0.09,0.09-0.182,0.181-0.273,0.272
			c-0.09,0.091-0.18,0.182-0.271,0.272c-0.091,0.091-0.183,0.182-0.272,0.273c-0.092,0.091-0.183,0.181-0.271,0.272
			c-0.092,0.09-0.183,0.182-0.273,0.272c-0.092,0.09-0.182,0.182-0.273,0.272c-0.09,0.091-0.183,0.182-0.273,0.272
			c-0.09,0.091-0.18,0.182-0.272,0.273c-0.089,0.091-0.183,0.181-0.272,0.272c-0.089,0.091-0.18,0.183-0.272,0.272
			c-0.089,0.092-0.181,0.183-0.272,0.274c-0.09,0.09-0.18,0.181-0.271,0.272c-0.091,0.091-0.182,0.182-0.273,0.273
			c-0.089,0.09-0.18,0.182-0.271,0.272c-0.092,0.092-0.182,0.183-0.272,0.273c-0.09,0.09-0.182,0.182-0.273,0.273
			c-0.091,0.09-0.182,0.181-0.272,0.272c-0.09,0.091-0.183,0.182-0.273,0.273c-0.092,0.09-0.182,0.181-0.272,0.272
			c-0.09,0.091-0.181,0.182-0.271,0.273c-0.093,0.091-0.182,0.182-0.273,0.273c-0.089,0.09-0.181,0.182-0.272,0.272
			c-0.093,0.091-0.181,0.183-0.273,0.273c-0.089,0.091-0.18,0.182-0.271,0.273c-0.091,0.09-0.18,0.182-0.273,0.272
			c-0.09,0.091-0.18,0.183-0.272,0.272c-0.091,0.09-0.182,0.181-0.272,0.271c-0.09,0.092-0.182,0.182-0.271,0.273
			c-0.092,0.091-0.184,0.182-0.273,0.273c-0.09,0.09-0.182,0.18-0.272,0.271c-0.091,0.091-0.183,0.183-0.272,0.273
			c-0.092,0.09-0.182,0.182-0.273,0.272s-0.182,0.183-0.273,0.272c-0.091,0.09-0.18,0.182-0.271,0.272
			c-0.092,0.09-0.182,0.181-0.273,0.272c-0.091,0.091-0.182,0.182-0.271,0.271c-0.092,0.091-0.183,0.182-0.273,0.273
			c-0.092,0.091-0.18,0.183-0.271,0.272c-0.092,0.091-0.183,0.183-0.273,0.274c-0.092,0.091-0.18,0.181-0.272,0.273
			c-0.091,0.09-0.183,0.182-0.271,0.271c-0.091,0.092-0.181,0.183-0.272,0.273c-0.09,0.092-0.184,0.182-0.273,0.273
			c-0.09,0.091-0.18,0.182-0.271,0.273c-0.091,0.09-0.184,0.182-0.273,0.271c-0.091,0.091-0.18,0.182-0.273,0.271
			c-0.09,0.092-0.182,0.184-0.272,0.273c-0.091,0.092-0.182,0.182-0.272,0.273c-0.09,0.091-0.181,0.183-0.273,0.272
			c-0.089,0.091-0.182,0.183-0.271,0.273s-0.184,0.181-0.272,0.272c-0.092,0.09-0.183,0.182-0.271,0.272
			c-0.091,0.091-0.184,0.182-0.273,0.272c-0.091,0.092-0.183,0.183-0.272,0.272c-0.093,0.091-0.183,0.183-0.273,0.274
			c-0.091,0.09-0.182,0.181-0.271,0.271c-0.091,0.09-0.182,0.182-0.273,0.271c-0.09,0.092-0.183,0.183-0.272,0.272
			c-0.091,0.093-0.182,0.183-0.272,0.272c-0.09,0.092-0.182,0.183-0.273,0.273c-0.09,0.09-0.182,0.182-0.271,0.272
			c-0.09,0.092-0.182,0.183-0.274,0.272c-0.089,0.092-0.181,0.182-0.271,0.274c-0.089,0.09-0.182,0.181-0.272,0.272
			c-0.09,0.09-0.182,0.182-0.273,0.272c-0.089,0.091-0.182,0.181-0.271,0.272c-0.092,0.092-0.182,0.182-0.273,0.272
			c-0.092,0.09-0.182,0.183-0.271,0.272c-0.094,0.09-0.183,0.182-0.273,0.271c-0.092,0.091-0.182,0.182-0.271,0.273
			c-0.094,0.091-0.183,0.182-0.275,0.272c-0.09,0.091-0.182,0.181-0.272,0.272c-0.09,0.091-0.181,0.182-0.272,0.272
			c-0.088,0.091-0.182,0.183-0.272,0.273c-0.09,0.091-0.183,0.181-0.272,0.272c-0.091,0.09-0.181,0.182-0.271,0.272
			c-0.092,0.092-0.182,0.182-0.273,0.272c-0.091,0.092-0.182,0.183-0.271,0.272c-0.092,0.091-0.182,0.183-0.272,0.274
			c-0.093,0.09-0.182,0.182-0.272,0.271c-0.092,0.092-0.181,0.184-0.273,0.273c-0.091,0.091-0.182,0.183-0.271,0.272
			c-0.092,0.091-0.184,0.183-0.272,0.272c-0.093,0.092-0.183,0.183-0.273,0.272c-0.091,0.091-0.183,0.183-0.271,0.273
			c-0.091,0.091-0.183,0.182-0.274,0.272c-0.091,0.09-0.182,0.182-0.271,0.272c-0.093,0.091-0.182,0.182-0.274,0.272
			c-0.09,0.092-0.181,0.183-0.272,0.273c-0.09,0.091-0.181,0.182-0.272,0.271c-0.091,0.09-0.182,0.183-0.272,0.272
			c-0.091,0.091-0.181,0.183-0.271,0.272c-0.092,0.092-0.184,0.182-0.271,0.272c-0.092,0.093-0.186,0.183-0.274,0.272
			c-0.091,0.091-0.184,0.182-0.273,0.272c-0.091,0.091-0.181,0.183-0.272,0.272C12.568,58.268,12.477,58.357,12.385,58.449z"/>
	</g>
	<g display="none">
		<rect x="2.616" y="7.118" display="inline" fill="#FFFFFF" width="68.667" height="58.946"/>
		<path display="inline" fill="#D46FA3" d="M0,56.5c0-0.6,0-1.198,0-1.797c0-0.604,0-1.205,0-1.809c0-0.599,0-1.197,0-1.797
			c0-0.604,0-1.205,0-1.809c0-0.6,0-1.198,0-1.797c0-0.604,0-1.205,0-1.809c0-0.599,0-1.197,0-1.797c0-0.603,0-1.205,0-1.808
			c0-0.601,0-1.199,0-1.798c0-0.602,0-1.205,0-1.809c0-0.599,0-1.199,0-1.797c0-0.603,0-1.206,0-1.808c0-0.6,0-1.199,0-1.798
			c0-0.603,0-1.205,0-1.808c0-0.599,0-1.198,0-1.798c0-0.602,0-1.205,0-1.808c0-0.599,0-1.198,0-1.797c0-0.603,0-1.205,0-1.808
			c0-0.599,0-1.199,0-1.798c0-0.603,0-1.205,0-1.808c0-0.599,0-1.198,0-1.797c0-0.603,0-1.205,0-1.808c0-0.599,0-1.198,0-1.798
			c0-0.603,0-1.205,0-1.808c0-0.599,0-1.198,0-1.797c0-0.603,0-1.206,0-1.808C0,9.03,0,8.431,0,7.832
			C0.004,7.541,0.008,7.251,0.012,6.96c0.074-0.401,0.149-0.802,0.224-1.204C0.399,5.25,0.561,4.744,0.725,4.237
			c0,0-0.002-0.002-0.002-0.003C0.83,4.052,0.939,3.866,1.047,3.681c0.045-0.08,0.09-0.159,0.135-0.239
			C1.258,3.34,1.333,3.239,1.408,3.138c0.016-0.022,0.025-0.046,0.031-0.073C1.596,2.857,1.754,2.65,1.912,2.443
			C1.961,2.404,2.01,2.364,2.06,2.324c0.153-0.145,0.31-0.291,0.462-0.436C2.759,1.702,2.994,1.516,3.229,1.33
			C3.582,1.145,3.93,0.955,4.285,0.776C4.57,0.631,4.861,0.499,5.15,0.361C5.354,0.32,5.556,0.278,5.758,0.237
			c0.461-0.076,0.92-0.152,1.379-0.228C7.639,0.007,8.143,0.003,8.645,0c0.6,0,1.199,0,1.799,0c0.602,0,1.205,0,1.807,0
			c0.6,0,1.199,0,1.799,0c0.602,0,1.205,0,1.807,0c0.6,0,1.197,0,1.799,0c0.631,0,1.265,0,1.896,0c0.6,0,1.199,0,1.798,0
			c0.603,0,1.206,0,1.808,0c0.6,0,1.199,0,1.798,0c0.603,0,1.205,0,1.808,0c0.599,0,1.199,0,1.797,0c0.603,0,1.205,0,1.808,0
			c0.599,0,1.198,0,1.798,0c0.603,0,1.205,0,1.808,0c0.599,0,1.198,0,1.798,0c0.633,0,1.266,0,1.897,0c0.6,0,1.198,0,1.798,0
			c0.603,0,1.205,0,1.808,0c0.6,0,1.199,0,1.799,0c0.603,0,1.205,0,1.808,0c0.599,0,1.198,0,1.798,0c0.603,0,1.205,0,1.807,0
			c0.601,0,1.199,0,1.8,0c0.603,0,1.204,0,1.808,0c0.6,0,1.198,0,1.797,0c0.692,0,1.387,0,2.078,0c0.6,0,1.198,0,1.799,0
			c0.603,0,1.205,0,1.808,0c0.599,0,1.198,0,1.798,0c0.604,0,1.205,0,1.809,0c0.598,0,1.196,0,1.797,0c0.604,0,1.205,0,1.809,0.001
			c0.499,0.001,0.999,0.002,1.499,0.003c0.372,0.076,0.743,0.152,1.116,0.229c0.328,0.081,0.654,0.162,0.98,0.242
			c0.115,0.051,0.23,0.101,0.346,0.151c0.484,0.281,0.97,0.563,1.453,0.844c0.354,0.32,0.709,0.641,1.063,0.96
			c0.338,0.461,0.674,0.922,1.012,1.383c0.06,0.138,0.117,0.276,0.179,0.414c0.209,0.602,0.418,1.204,0.625,1.806
			c0.032,2.896,0.088,5.791,0.096,8.686c0.013,5.375-0.004,10.75-0.004,16.124c-0.002,5.855-0.002,11.71,0,17.565
			c0,6.426,0.007,12.852,0.004,19.277c0,0.478-0.061,0.957-0.094,1.434c-0.002,0.046-0.004,0.091-0.006,0.137
			c-0.037,0.076-0.074,0.152-0.111,0.229c-0.012,0.061-0.023,0.121-0.037,0.184c-0.029,0.088-0.057,0.177-0.086,0.266
			c-0.123,0.33-0.247,0.661-0.371,0.991c-0.092,0.181-0.184,0.361-0.273,0.542c-0.277,0.383-0.554,0.768-0.83,1.15
			c-0.387,0.361-0.772,0.725-1.158,1.088c-0.477,0.275-0.955,0.551-1.432,0.827c-0.123,0.055-0.246,0.108-0.369,0.163
			c-0.207,0.053-0.414,0.104-0.621,0.154c-0.061,0.021-0.121,0.043-0.182,0.063c-0.061,0.011-0.121,0.021-0.18,0.032
			c-0.074,0.033-0.148,0.068-0.223,0.103c-0.201,0.031-0.402,0.062-0.603,0.093c-0.601,0.008-1.198,0.017-1.797,0.023
			c-0.603,0-1.202,0-1.804,0c-0.601,0-1.201,0-1.803,0s-1.201,0-1.802,0s-1.202,0-1.804,0s-1.201,0-1.803,0
			c-0.601,0-1.201,0-1.804,0c-0.69,0-1.381,0-2.071,0c-0.603,0-1.203,0-1.806,0c-0.599,0-1.2,0-1.801,0s-1.201,0-1.804,0
			c-0.601,0-1.2,0-1.801,0c-0.602,0-1.203,0-1.805,0s-1.201,0-1.801,0c-0.602,0-1.203,0-1.805,0s-1.201,0-1.801,0
			c-0.603,0-1.203,0-1.805,0c-0.632,0-1.263,0-1.892,0c-0.602,0-1.203,0-1.805,0c-0.601,0-1.201,0-1.801,0c-0.602,0-1.203,0-1.805,0
			c-0.6,0-1.201,0-1.801,0c-0.602,0-1.202,0-1.804,0c-0.601,0-1.202,0-1.802,0c-0.602,0-1.202,0-1.804,0c-0.601,0-1.2,0-1.802,0
			s-1.202,0-1.804,0c-0.63,0-1.261,0-1.892,0c-0.601,0-1.202,0-1.804,0c-0.601,0-1.2,0-1.802,0c-0.601,0-1.202,0-1.804,0
			c-0.601,0-1.2,0-1.802,0c-0.601,0-1.202,0-1.804,0c-0.601-0.006-1.2-0.012-1.8-0.02c-0.291-0.028-0.582-0.058-0.872-0.086
			c-0.071-0.041-0.142-0.08-0.212-0.119c-0.063-0.008-0.127-0.018-0.189-0.025c-0.086-0.028-0.174-0.057-0.262-0.085
			c-0.086-0.019-0.171-0.036-0.256-0.054c-0.086-0.027-0.172-0.056-0.257-0.084c-0.519-0.265-1.038-0.53-1.558-0.795
			c-1.064-0.803-1.907-1.791-2.52-2.975c-0.194-0.838-0.389-1.676-0.588-2.513c-0.011-0.05-0.072-0.089-0.109-0.134
			c-0.006-0.319-0.014-0.64-0.02-0.959c0-0.601,0-1.198,0-1.797c0-0.604,0-1.205,0-1.809c0-0.6,0-1.197,0-1.797
			c0-0.604,0-1.205,0-1.809c0-0.599,0-1.198,0-1.797C0,57.705,0,57.102,0,56.5z M18.24,46.775c-0.282,0.168-0.441,0.273-0.609,0.363
			c-0.83,0.446-1.688,0.85-2.49,1.34c-1.648,1.01-3.261,2.063-4.71,3.362c-1.622,1.455-2.774,3.138-3.007,5.351
			c-0.147,1.425,0.149,2.754,1.029,3.903c0.598,0.783,1.455,1.108,2.419,1.212c1.619,0.176,3.206,0.072,4.737-0.517
			c1.78-0.685,3.29-1.754,4.531-3.209c1.531-1.796,2.364-3.881,2.544-6.216c0.136-1.764,0.034-3.512-0.804-5.174
			c1.195-0.682,2.362-1.349,3.646-2.082c-0.054,0.265-0.065,0.38-0.101,0.486c-0.437,1.381-0.69,2.807-0.695,4.244
			c-0.001,0.959,0.221,1.926,0.396,2.877c0.189,1.016,0.643,1.932,1.266,2.752c0.393,0.518,0.899,0.824,1.594,0.876
			c1.053,0.079,1.828-0.345,2.333-1.212c0.571-0.98,1.063-2.009,1.574-3.025c0.224-0.444,0.406-0.909,0.608-1.364
			c0.104,0.142,0.115,0.266,0.115,0.391c0,0.583-0.067,1.175,0.013,1.746c0.087,0.612,0.247,1.231,0.489,1.8
			c0.283,0.666,1.072,0.947,1.748,0.686c0.816-0.317,1.393-0.941,1.83-1.664c0.635-1.047,1.254-2.109,1.796-3.207
			c1.17-2.378,2.293-4.78,3.423-7.18c0.313-0.666,0.58-1.354,0.918-2.146c0.226,0.868,0.365,1.623,0.622,2.335
			c0.333,0.924,0.756,1.815,1.146,2.718c0.117,0.271,0.316,0.514,0.063,0.826c-0.826,1.026-1.646,2.061-2.461,3.094
			c-0.66,0.834-1.369,1.635-1.955,2.519s-0.187,1.649,0.858,1.835c0.134,0.023,0.271,0.023,0.406,0.023
			c1.783,0.025,3.398-0.548,4.862-1.513c0.978-0.646,1.702-1.519,2.038-2.703c0.384-1.348,0.139-2.616-0.35-3.86
			c-0.172-0.438-0.213-0.777,0.113-1.146c0.194-0.222,0.352-0.485,0.5-0.744c0.977-1.702,1.944-3.409,2.918-5.114
			c0.032-0.056,0.092-0.098,0.153-0.164c0.052,0.084,0.101,0.131,0.108,0.185c0.295,1.634,0.804,3.192,1.597,4.657
			c0.054,0.101-0.026,0.344-0.123,0.447c-0.544,0.578-1.147,1.102-1.662,1.705c-0.921,1.082-1.634,2.283-1.896,3.715
			c-0.303,1.64,0.621,2.709,2.092,2.324c1.791-0.469,3.375-1.326,4.588-2.769c0.709-0.841,1.17-1.791,1.029-2.925
			c-0.076-0.62-0.198-1.242-0.377-1.842c-0.108-0.375-0.019-0.521,0.328-0.607c0.58-0.146,1.149-0.348,1.735-0.457
			c2.115-0.387,4.218-0.275,6.274,0.325c1.627,0.474,3.033,1.313,3.938,2.806c0.903,1.484,0.988,3.197-0.481,4.528
			c-0.31,0.28-0.676,0.493-0.996,0.761c-0.098,0.081-0.209,0.299-0.172,0.355c0.078,0.11,0.248,0.176,0.393,0.216
			c0.09,0.024,0.205-0.022,0.303-0.054c1.969-0.606,3.33-2.869,2.977-4.89c-0.514-2.926-2.348-4.716-4.997-5.757
			c-2.351-0.923-4.783-0.93-7.214-0.376c-1,0.228-1.961,0.62-2.989,0.953c-0.154-0.282-0.33-0.608-0.509-0.933
			c-0.78-1.418-1.163-2.928-0.91-4.541c0.122-0.792,0.354-1.575,0.599-2.341c0.263-0.822,0.087-1.181-0.768-1.242
			c-0.58-0.042-1.168-0.047-1.744,0.01c-1.242,0.124-1.418,0.352-1.697,1.36c-0.28,1.004-0.567,2.024-1.012,2.962
			c-0.681,1.434-1.485,2.807-2.256,4.197c-0.313,0.566-0.673,1.106-1.044,1.711c-0.165-0.313-0.29-0.549-0.414-0.782
			c-0.571-1.068-0.725-2.248-0.633-3.406c0.078-1.016,0.414-2.015,0.677-3.012c0.168-0.637,0.065-0.973-0.582-1.023
			c-0.843-0.066-1.699-0.02-2.541,0.068c-0.706,0.074-0.841,0.311-1.019,0.997c-0.184,0.709-0.388,1.421-0.67,2.095
			c-0.652,1.561-1.346,3.104-2.045,4.644c-1.063,2.347-2.146,4.685-3.229,7.021c-0.173,0.373-0.394,0.725-0.594,1.084
			c-0.06-0.01-0.12-0.02-0.182-0.029c-0.003-0.396-0.083-0.813,0.002-1.188c0.521-2.308,1.07-4.608,1.636-6.906
			c0.158-0.637,0.137-0.967-0.238-1.27c-0.427-0.344-1.073-0.417-1.525-0.176c-0.094,0.05-0.193,0.086-0.306,0.135
			c0-0.771,0.079-1.494-0.016-2.193c-0.234-1.735-1.423-2.169-2.877-1.803c-1.806,0.459-3.168,1.633-4.384,2.993
			c-0.316,0.353-0.611,0.763-1.005,0.998c-1.325,0.788-2.689,1.509-4.04,2.253c-0.723,0.396-1.447,0.788-2.188,1.19
			c-0.245-0.232-0.46-0.462-0.701-0.659c-1.807-1.48-3.621-2.953-5.432-4.43c-1.256-1.024-2.449-2.109-3.32-3.503
			c-0.918-1.471-1.201-3.053-0.824-4.742c0.529-2.364,1.938-4.188,3.646-5.812c1.745-1.66,3.723-3.009,5.792-4.227
			c2.16-1.271,4.383-2.423,6.723-3.321c2.219-0.85,4.494-1.483,6.864-1.765c2.378-0.284,4.73-0.279,7.014,0.541
			c0.966,0.347,1.881,0.843,2.408,1.78c0.765,1.357,0.646,2.794,0.121,4.177c-1.141,3.021-3.365,5.13-6.026,6.811
			c-1.523,0.962-3.167,1.688-4.91,2.189c-2.191,0.63-4.397,1.072-6.689,0.774c-1.555-0.203-2.965-0.718-4.073-1.896
			c-0.135-0.144-0.442-0.277-0.594-0.217c-0.286,0.111-0.21,0.41-0.126,0.667c0.459,1.407,1.561,2.202,2.778,2.854
			c1.383,0.738,2.899,0.909,4.444,0.937c2.22,0.041,4.391-0.254,6.527-0.851c1.813-0.506,3.574-1.137,5.167-2.146
			c1.939-1.229,3.619-2.743,4.961-4.631c1.609-2.262,2.619-4.705,2.496-7.527c-0.076-1.777-0.707-3.32-2.008-4.565
			c-1.576-1.505-3.527-2.265-5.604-2.688c-2.018-0.412-4.07-0.523-6.133-0.313c-2.155,0.219-4.27,0.621-6.314,1.343
			c-1.073,0.378-2.139,0.778-3.193,1.206c-2.182,0.883-4.29,1.925-6.326,3.106c-2.457,1.425-4.768,3.053-6.813,5.031
			c-2.02,1.949-3.717,4.119-4.76,6.783c-0.895,2.284-0.559,4.37,0.672,6.392c1.045,1.714,2.443,3.125,4,4.349
			c1.813,1.423,3.729,2.714,5.596,4.066C16.754,45.668,17.445,46.188,18.24,46.775z"/>
		<path display="inline" fill="#D470A4" d="M19.818,48.168c0.332,1.28,0.458,2.48,0.238,3.716c-0.367,2.083-1.427,3.767-3.007,5.113
			c-1.095,0.933-2.358,1.603-3.845,1.659c-1.131,0.042-1.68-0.53-1.689-1.666c-0.014-1.426,0.604-2.609,1.458-3.684
			c1.075-1.353,2.478-2.338,3.887-3.302c0.815-0.558,1.669-1.06,2.505-1.583C19.49,48.344,19.622,48.277,19.818,48.168z"/>
		<path display="inline" fill="#D572A5" d="M28.11,49.709c0.038-2.313,0.604-4.334,1.697-6.216c0.567-0.976,1.135-1.944,2.112-2.574
			c0.25-0.161,0.52-0.302,0.799-0.403c0.506-0.188,0.867,0.077,0.771,0.604c-0.14,0.765-0.299,1.535-0.555,2.267
			c-0.729,2.076-1.488,4.143-2.284,6.193c-0.302,0.777-0.731,1.505-1.116,2.249c-0.067,0.129-0.188,0.233-0.297,0.335
			c-0.258,0.236-0.469,0.207-0.651-0.107C28.143,51.28,28.179,50.416,28.11,49.709z"/>
		<path display="inline" fill="#D674A7" d="M52.063,50.243c-0.396-0.833,1.158-3.729,2.42-4.546
			C55.163,46.813,54.635,49.421,52.063,50.243z"/>
		<path display="inline" fill="#D77AAA" d="M42.527,52.4c1.096-1.281,2.145-2.512,3.205-3.752
			C46.17,49.768,43.926,52.424,42.527,52.4z"/>
	</g>
</g>
</svg>
