<?xml version="1.0" encoding="utf-8"?>
<!-- Generator: Adobe Illustrator 16.0.0, SVG Export Plug-In . SVG Version: 6.00 Build 0)  -->
<!DOCTYPE svg PUBLIC "-//W3C//DTD SVG 1.0//EN" "http://www.w3.org/TR/2001/REC-SVG-20010904/DTD/svg10.dtd">
<svg version="1.0" id="Layer_1" xmlns="http://www.w3.org/2000/svg" xmlns:xlink="http://www.w3.org/1999/xlink" x="0px" y="0px"
	 width="75px" height="75px" viewBox="0 0 75 75" enable-background="new 0 0 75 75" xml:space="preserve">
<path fill="#E24F26" d="M64.493,0.062H10.875c-2.127,0-4.255,0-6.383,0c0.333,3.662,0.667,7.324,1,10.988
	c0.358,3.993,0.716,7.987,1.071,11.982c0.352,3.952,0.699,7.905,1.053,11.857c0.396,4.449,0.797,8.898,1.195,13.345
	c0.351,3.934,0.697,7.863,1.048,11.797c0.205,2.316,0.406,4.637,0.64,6.949c0.015,0.17,0.257,0.403,0.438,0.455
	c6.902,1.971,13.81,3.922,20.715,5.873c1.657,0.469,3.315,0.93,4.972,1.4c0.193,0.057,0.376,0.15,0.565,0.229
	c0.166,0,0.331,0,0.497,0c1.382-0.416,2.762-0.853,4.153-1.242c7.411-2.09,14.826-4.166,22.235-6.266
	c0.176-0.05,0.402-0.304,0.421-0.479c0.399-4.285,0.771-8.571,1.151-12.857c0.395-4.432,0.797-8.86,1.193-13.292
	c0.354-3.933,0.695-7.869,1.047-11.802c0.356-3.996,0.717-7.991,1.074-11.987c0.35-3.955,0.697-7.91,1.053-11.864
	c0.153-1.696,0.329-3.391,0.495-5.086C68.503,0.062,66.498,0.062,64.493,0.062z"/>
<path fill="#EE652A" d="M37.562,13.771c0-2.496,0-4.991,0-7.486c0.002-0.841,0.014-0.855,0.821-0.855
	c8.401-0.002,16.803-0.002,25.201,0c0.788,0,0.852,0.026,0.799,0.804c-0.111,1.676-0.271,3.348-0.421,5.021
	c-0.142,1.611-0.295,3.221-0.44,4.832c-0.151,1.672-0.307,3.345-0.455,5.017c-0.144,1.611-0.276,3.223-0.42,4.834
	c-0.19,2.147-0.396,4.294-0.586,6.441c-0.144,1.611-0.271,3.224-0.414,4.835c-0.188,2.126-0.391,4.252-0.582,6.379
	c-0.142,1.569-0.273,3.14-0.416,4.71c-0.151,1.734-0.313,3.469-0.467,5.203c-0.141,1.612-0.27,3.225-0.406,4.835
	c-0.125,1.446-0.232,2.894-0.401,4.335c-0.022,0.202-0.326,0.469-0.549,0.533c-2.396,0.688-4.806,1.343-7.209,2.006
	c-4.407,1.215-8.815,2.43-13.226,3.641c-0.233,0.063-0.476,0.101-0.829,0.172c0-2.862,0-5.644,0-8.42
	c0.135-0.053,0.264-0.114,0.402-0.152c5.279-1.46,10.558-2.92,15.843-4.368c0.396-0.108,0.623-0.239,0.639-0.728
	c0.029-0.952,0.158-1.903,0.242-2.854c0.567-6.438,1.136-12.874,1.705-19.311c0.08-0.881,0.191-1.758,0.297-2.704
	c-0.313,0-0.558,0-0.801,0c-5.863,0-11.726,0.001-17.586-0.001c-0.25,0-0.496-0.031-0.743-0.047c0-2.801,0.002-5.602,0.002-8.402
	c0.248-0.012,0.497-0.033,0.745-0.033c6.106-0.001,12.215-0.001,18.323-0.001c0.247,0,0.495,0,0.812,0
	c0.261-2.734,0.516-5.429,0.779-8.204c-0.354,0-0.599,0-0.842,0c-6.357,0-12.715,0.001-19.072-0.001
	C38.059,13.797,37.81,13.78,37.562,13.771z"/>
<path fill="#EAE9E8" d="M37.444,38.814c-6.128,0-12.255,0-18.46,0c-0.744-8.34-1.484-16.642-2.229-24.979
	c0.29-0.019,0.452-0.039,0.612-0.039c6.607-0.002,13.216-0.002,19.825,0c0.083,0,0.165,0.009,0.248,0.014c0,2.727,0,5.452,0,8.177
	c-3.841,0-7.682,0-11.578,0c0.25,2.875,0.49,5.66,0.737,8.516c3.652,0,7.245,0,10.838,0C37.438,33.275,37.44,36.045,37.444,38.814z"
	/>
<path fill="#FEFEFD" d="M37.444,38.814c-0.004-2.771-0.006-5.541-0.007-8.311c0.039-0.021,0.081-0.044,0.122-0.066
	c0.247,0.016,0.493,0.047,0.742,0.047c5.861,0.002,11.723,0.001,17.586,0.001c0.244,0,0.489,0,0.801,0
	c-0.104,0.946-0.217,1.823-0.297,2.704c-0.57,6.437-1.137,12.875-1.703,19.311c-0.086,0.951-0.213,1.901-0.244,2.854
	c-0.016,0.486-0.24,0.617-0.639,0.728c-5.283,1.448-10.563,2.908-15.842,4.368c-0.139,0.038-0.268,0.101-0.402,0.152
	c-0.042-0.012-0.081-0.021-0.123-0.035c0-2.86,0-5.723,0-8.584c0.047-0.027,0.096-0.06,0.142-0.088
	c0.202-0.047,0.406-0.088,0.605-0.142c2.623-0.708,5.24-1.432,7.873-2.114c0.435-0.111,0.596-0.264,0.633-0.727
	c0.16-1.967,0.375-3.93,0.563-5.895c0.133-1.375,0.258-2.754,0.391-4.205c-0.289,0-0.515,0-0.736,0
	c-2.701,0-5.403-0.002-8.105,0.002c-0.412,0-0.826,0.033-1.24,0.051C37.523,38.852,37.482,38.833,37.444,38.814z"/>
<path fill="#EAE9E9" d="M37.438,51.988c0,2.861,0,5.722,0,8.584c-2.761-0.749-5.523-1.493-8.28-2.248
	C26.436,57.58,23.72,56.816,21,56.082c-0.396-0.107-0.566-0.266-0.598-0.699c-0.255-3.479-0.538-6.958-0.813-10.435
	c-0.052-0.657-0.098-1.315-0.15-2.015c2.742,0,5.415,0,8.166,0c0.072,0.754,0.148,1.512,0.219,2.271
	c0.117,1.282,0.247,2.563,0.34,3.847c0.026,0.36,0.176,0.479,0.504,0.566C31.595,50.396,34.516,51.195,37.438,51.988z"/>
<path fill="#FEFEFD" d="M37.44,21.99c0-2.726,0-5.451,0-8.177c0.04-0.014,0.079-0.028,0.121-0.042
	c0.248,0.009,0.498,0.026,0.746,0.026c6.356,0.002,12.713,0.001,19.071,0.001c0.243,0,0.485,0,0.841,0
	c-0.265,2.775-0.52,5.47-0.777,8.204c-0.315,0-0.563,0-0.813,0c-6.107,0-12.217,0-18.322,0.001c-0.248,0-0.498,0.021-0.746,0.033
	C37.521,22.021,37.482,22.006,37.44,21.99z"/>
<path fill="#EE652A" d="M37.562,38.871c0.414-0.018,0.829-0.051,1.24-0.051c2.702-0.004,5.404-0.002,8.105-0.002
	c0.224,0,0.448,0,0.735,0c-0.134,1.451-0.256,2.83-0.39,4.205c-0.188,1.965-0.401,3.927-0.563,5.895
	c-0.037,0.462-0.198,0.613-0.633,0.727c-2.633,0.685-5.252,1.406-7.875,2.114c-0.199,0.054-0.403,0.095-0.604,0.142
	C37.575,47.557,37.568,43.214,37.562,38.871z"/>
<path fill="#E24F26" d="M37.44,21.99c0.042,0.016,0.081,0.031,0.121,0.047c0,2.8-0.002,5.602-0.002,8.402
	c-0.041,0.022-0.083,0.045-0.122,0.066c-3.593,0-7.186,0-10.838,0c-0.247-2.856-0.487-5.641-0.737-8.516
	C29.759,21.99,33.6,21.99,37.44,21.99z"/>
</svg>
