<?xml version="1.0" encoding="utf-8"?>
<!-- Generator: Adobe Illustrator 16.0.0, SVG Export Plug-In . SVG Version: 6.00 Build 0)  -->
<!DOCTYPE svg PUBLIC "-//W3C//DTD SVG 1.0//EN" "http://www.w3.org/TR/2001/REC-SVG-20010904/DTD/svg10.dtd">
<svg version="1.0" xmlns="http://www.w3.org/2000/svg" xmlns:xlink="http://www.w3.org/1999/xlink" x="0px" y="0px" width="75px"
	 height="75px" viewBox="0 0 75 75" enable-background="new 0 0 75 75" xml:space="preserve">
<g id="home_x5F_icons">
	<g display="none">
		<polygon display="inline" fill-rule="evenodd" clip-rule="evenodd" fill="#264DE3" points="64.737,67.375 37.531,73.25 
			10.25,67.375 10.25,1.875 64.737,1.875 		"/>
		<g display="inline">
			<path fill-rule="evenodd" clip-rule="evenodd" fill="#264DE3" d="M4.421,0.285c0-0.091,0-0.184,0-0.276
				C4.513,0.006,4.604,0,4.695,0c21.861,0,43.721,0,65.581,0c0.1,0,0.197,0,0.3,0c0,0.104,0.006,0.177-0.001,0.249
				c-0.23,2.572-0.467,5.143-0.695,7.715c-0.229,2.572-0.451,5.146-0.681,7.718c-0.25,2.782-0.505,5.564-0.754,8.347
				c-0.212,2.38-0.416,4.761-0.629,7.141c-0.267,2.975-0.538,5.948-0.805,8.923c-0.278,3.094-0.553,6.188-0.83,9.282
				c-0.275,3.094-0.551,6.188-0.827,9.282c-0.258,2.883-0.518,5.767-0.767,8.651c-0.017,0.19-0.077,0.26-0.256,0.31
				c-2.565,0.706-5.128,1.42-7.691,2.132c-5.74,1.59-11.479,3.178-17.217,4.77c-0.615,0.171-1.225,0.361-1.836,0.542
				c-0.075,0-0.147,0-0.222,0c-0.083-0.034-0.162-0.077-0.248-0.101c-1.043-0.29-2.087-0.577-3.13-0.867
				c-7.772-2.158-15.544-4.318-23.315-6.472c-0.163-0.046-0.235-0.101-0.25-0.285c-0.105-1.283-0.224-2.564-0.34-3.845
				c-0.156-1.757-0.316-3.515-0.474-5.272c-0.155-1.739-0.304-3.479-0.46-5.218c-0.157-1.758-0.318-3.515-0.476-5.272
				c-0.155-1.749-0.306-3.498-0.462-5.246c-0.174-1.959-0.355-3.917-0.53-5.875c-0.157-1.758-0.307-3.516-0.464-5.274
				c-0.191-2.16-0.392-4.319-0.585-6.48c-0.155-1.757-0.306-3.515-0.462-5.273c-0.176-1.959-0.355-3.917-0.529-5.875
				c-0.176-1.959-0.345-3.918-0.519-5.877C4.944,5.805,4.764,3.781,4.579,1.759C4.536,1.267,4.474,0.776,4.421,0.285z
				 M37.477,52.111c-2.992-0.81-5.987-1.623-8.982-2.428c-0.173-0.046-0.263-0.11-0.278-0.302c-0.127-1.521-0.263-3.04-0.398-4.559
				c-0.053-0.601-0.109-1.201-0.164-1.802c-2.787,0-5.541,0-8.313,0c0.086,0.951,0.171,1.883,0.254,2.816
				c0.136,1.546,0.269,3.094,0.406,4.641c0.157,1.757,0.322,3.514,0.471,5.272c0.018,0.214,0.093,0.287,0.291,0.342
				c4.83,1.335,9.656,2.679,14.485,4.018c0.74,0.207,1.486,0.4,2.229,0.599c0.019,0.006,0.036,0.012,0.055,0.018
				c0,2.838,0,5.677,0,8.54c0.113-0.008,0.187,0,0.254-0.019c1.446-0.399,2.892-0.801,4.338-1.203
				c1.518-0.421,3.032-0.843,4.549-1.264c1.667-0.463,3.334-0.923,5-1.386c1.711-0.475,3.422-0.951,5.132-1.426
				c0.775-0.215,1.551-0.43,2.328-0.642c0.162-0.044,0.294-0.107,0.308-0.299c0.056-0.721,0.109-1.44,0.168-2.159
				c0.036-0.456,0.077-0.911,0.12-1.365c0.067-0.746,0.142-1.49,0.208-2.235c0.044-0.482,0.077-0.966,0.12-1.448
				c0.068-0.772,0.143-1.544,0.213-2.318c0.041-0.464,0.077-0.929,0.119-1.393c0.068-0.745,0.145-1.49,0.21-2.235
				c0.046-0.5,0.076-1.002,0.12-1.503c0.068-0.773,0.144-1.545,0.213-2.318c0.041-0.463,0.077-0.929,0.119-1.393
				c0.068-0.736,0.145-1.471,0.211-2.208c0.045-0.491,0.075-0.984,0.118-1.475c0.069-0.773,0.145-1.545,0.214-2.318
				c0.041-0.465,0.077-0.929,0.12-1.393c0.068-0.754,0.143-1.508,0.211-2.263c0.042-0.492,0.074-0.984,0.117-1.475
				c0.069-0.764,0.145-1.527,0.214-2.291c0.043-0.473,0.076-0.947,0.121-1.42c0.067-0.717,0.145-1.435,0.209-2.152
				c0.046-0.51,0.074-1.021,0.119-1.531c0.067-0.782,0.143-1.563,0.213-2.345c0.041-0.455,0.077-0.91,0.12-1.365
				c0.068-0.764,0.143-1.527,0.211-2.291c0.044-0.491,0.077-0.983,0.123-1.475c0.065-0.727,0.142-1.453,0.208-2.18
				c0.044-0.501,0.075-1.003,0.12-1.503c0.065-0.718,0.146-1.435,0.21-2.153c0.046-0.51,0.075-1.021,0.118-1.531
				c0.068-0.782,0.144-1.563,0.214-2.346c0.043-0.464,0.083-0.927,0.125-1.392c0.061-0.667,0.124-1.335,0.189-2.026
				c-0.118,0-0.201,0-0.282,0c-8.81,0-17.621,0.001-26.431-0.006c-0.266,0-0.317,0.084-0.315,0.328
				c0.006,2.649,0.004,5.297,0.004,7.946c-0.019,0.006-0.036,0.012-0.053,0.019c-0.064-0.003-0.129-0.008-0.192-0.008
				c-6.767,0-13.533,0-20.3,0c-0.079,0-0.161,0.008-0.25,0.014c0.251,2.763,0.5,5.504,0.751,8.268c0.136,0,0.244,0,0.354,0
				c6.444,0,12.889,0,19.335,0c0.1,0,0.2-0.006,0.301-0.01c0.019,0.008,0.036,0.016,0.055,0.022c0,2.822,0,5.643,0,8.465
				c-0.019,0.008-0.036,0.015-0.055,0.022c-0.054-0.003-0.109-0.009-0.165-0.009c-6.279,0-12.559,0-18.84,0.001
				c-0.078,0-0.156,0.01-0.243,0.016c0.247,2.767,0.495,5.509,0.741,8.266c0.13,0,0.23,0,0.33,0c5.969,0,11.935,0,17.902,0
				c0.092,0,0.185-0.006,0.274-0.009c0.019,0.007,0.036,0.013,0.055,0.02c0,4.266,0,8.53,0.001,12.795
				c0,0.138,0.007,0.276,0.011,0.413C37.521,52.09,37.499,52.101,37.477,52.111z"/>
			<path fill-rule="evenodd" clip-rule="evenodd" fill="#2965F0" d="M37.531,13.796c0-2.649,0.002-5.297-0.004-7.946
				c-0.002-0.243,0.05-0.328,0.315-0.328c8.81,0.007,17.621,0.006,26.431,0.006c0.081,0,0.164,0,0.282,0
				c-0.065,0.691-0.129,1.359-0.189,2.026c-0.042,0.465-0.082,0.928-0.125,1.392c-0.07,0.782-0.146,1.563-0.214,2.346
				c-0.043,0.51-0.072,1.021-0.118,1.531c-0.064,0.718-0.145,1.435-0.21,2.153c-0.045,0.5-0.076,1.001-0.12,1.503
				c-0.066,0.727-0.143,1.453-0.208,2.18c-0.046,0.492-0.079,0.984-0.123,1.475c-0.068,0.764-0.143,1.527-0.211,2.291
				c-0.043,0.455-0.079,0.91-0.12,1.365c-0.07,0.782-0.146,1.563-0.213,2.345c-0.045,0.51-0.073,1.021-0.119,1.531
				c-0.064,0.717-0.142,1.435-0.209,2.152c-0.045,0.473-0.078,0.947-0.121,1.42c-0.069,0.764-0.145,1.526-0.214,2.291
				c-0.043,0.491-0.075,0.983-0.117,1.475c-0.068,0.754-0.143,1.508-0.211,2.263c-0.043,0.464-0.079,0.928-0.12,1.393
				c-0.069,0.772-0.145,1.544-0.214,2.318c-0.043,0.491-0.073,0.984-0.118,1.475c-0.066,0.736-0.143,1.471-0.211,2.208
				c-0.042,0.464-0.078,0.929-0.119,1.393c-0.069,0.772-0.145,1.545-0.213,2.318c-0.044,0.5-0.074,1.003-0.12,1.503
				c-0.065,0.745-0.142,1.491-0.21,2.235c-0.042,0.464-0.078,0.929-0.119,1.393c-0.07,0.773-0.145,1.545-0.213,2.318
				c-0.043,0.482-0.076,0.966-0.12,1.448c-0.066,0.745-0.141,1.49-0.208,2.235c-0.043,0.455-0.084,0.91-0.12,1.365
				c-0.059,0.719-0.112,1.438-0.168,2.159c-0.014,0.192-0.146,0.255-0.308,0.299c-0.777,0.212-1.553,0.427-2.328,0.642
				c-1.71,0.475-3.421,0.951-5.132,1.426c-1.666,0.462-3.333,0.923-5,1.386c-1.517,0.42-3.031,0.842-4.549,1.264
				c-1.446,0.401-2.892,0.803-4.338,1.203c-0.067,0.019-0.141,0.011-0.254,0.019c0-2.862,0-5.701,0-8.54
				c0.662-0.188,1.323-0.379,1.986-0.563c4.916-1.363,9.833-2.726,14.749-4.085c0.142-0.039,0.204-0.097,0.216-0.258
				c0.068-0.888,0.151-1.776,0.23-2.664c0.142-1.575,0.283-3.148,0.424-4.723c0.137-1.519,0.27-3.039,0.405-4.558
				c0.157-1.767,0.318-3.532,0.476-5.299c0.137-1.528,0.27-3.057,0.407-4.586c0.14-1.564,0.283-3.129,0.424-4.695
				c0.137-1.519,0.269-3.039,0.404-4.558c0.157-1.775,0.317-3.551,0.478-5.326c0.122-1.354,0.246-2.709,0.367-4.063
				c0.045-0.508,0.086-1.015,0.13-1.542c-0.147,0-0.255,0-0.364,0c-6.668,0-13.335,0-20.003,0
				C37.751,13.805,37.642,13.799,37.531,13.796z"/>
			<path fill-rule="evenodd" clip-rule="evenodd" fill="#FEFEFE" d="M37.531,13.796c0.11,0.003,0.22,0.009,0.329,0.009
				c6.668,0,13.335,0,20.003,0c0.109,0,0.217,0,0.364,0c-0.044,0.526-0.085,1.034-0.13,1.542c-0.121,1.354-0.245,2.709-0.367,4.063
				c-0.16,1.775-0.32,3.551-0.478,5.326c-0.136,1.52-0.268,3.039-0.404,4.558c-0.141,1.565-0.284,3.13-0.424,4.695
				c-0.138,1.529-0.271,3.058-0.407,4.586c-0.157,1.767-0.318,3.532-0.476,5.299c-0.136,1.52-0.269,3.039-0.405,4.558
				c-0.141,1.574-0.282,3.148-0.424,4.723c-0.079,0.888-0.162,1.775-0.23,2.664c-0.012,0.161-0.074,0.22-0.216,0.258
				c-4.916,1.36-9.833,2.722-14.749,4.085c-0.663,0.184-1.324,0.375-1.986,0.563c-0.019-0.006-0.036-0.012-0.055-0.018
				c0-2.865,0-5.731,0-8.597c0.022-0.01,0.044-0.021,0.066-0.031c1.205-0.323,2.41-0.644,3.614-0.969
				c1.772-0.477,3.542-0.956,5.313-1.434c0.132-0.036,0.257-0.048,0.272-0.242c0.125-1.492,0.258-2.983,0.392-4.475
				c0.139-1.554,0.28-3.109,0.42-4.665c0.042-0.471,0.08-0.942,0.121-1.435c-0.129,0-0.229,0-0.33,0c-3.171,0-6.342,0-9.514,0
				c-0.101,0-0.2,0.007-0.301,0.01c-0.019-0.006-0.036-0.013-0.055-0.02c0-2.755,0-5.51,0-8.265
				c0.019-0.007,0.036-0.015,0.055-0.022c0.054,0.004,0.107,0.012,0.163,0.012c3.502,0,7.004,0,10.504,0
				c0.063,0,0.124-0.01,0.201-0.018c0.252-2.823,0.5-5.634,0.751-8.472c-0.129,0-0.208,0-0.289,0c-3.704,0-7.408,0-11.111,0
				c-0.073,0-0.146,0.008-0.219,0.012c-0.019-0.007-0.036-0.015-0.055-0.022c0-2.754,0.002-5.508,0.002-8.263
				C37.495,13.808,37.513,13.802,37.531,13.796z"/>
			<path fill-rule="evenodd" clip-rule="evenodd" fill="#EAEAEA" d="M37.477,52.111c0,2.866,0,5.731,0,8.597
				c-0.742-0.199-1.488-0.393-2.229-0.599c-4.829-1.339-9.655-2.683-14.485-4.018c-0.198-0.055-0.273-0.128-0.291-0.342
				c-0.148-1.758-0.313-3.515-0.471-5.272c-0.138-1.547-0.271-3.094-0.406-4.641c-0.083-0.933-0.168-1.866-0.254-2.816
				c2.771,0,5.525,0,8.313,0c0.055,0.601,0.111,1.201,0.164,1.802c0.136,1.52,0.271,3.039,0.398,4.559
				c0.016,0.192,0.105,0.256,0.278,0.302C31.489,50.488,34.484,51.301,37.477,52.111z"/>
			<path fill-rule="evenodd" clip-rule="evenodd" fill="#EAEAEA" d="M37.479,13.814c0,2.755-0.002,5.509-0.002,8.263
				c-0.101,0.004-0.201,0.01-0.301,0.01c-6.446,0-12.891,0-19.335,0c-0.109,0-0.218,0-0.354,0c-0.251-2.763-0.5-5.505-0.751-8.268
				c0.089-0.005,0.171-0.014,0.25-0.014c6.767,0,13.533,0,20.3,0C37.35,13.806,37.414,13.812,37.479,13.814z"/>
			<path fill-rule="evenodd" clip-rule="evenodd" fill="#EAEAEA" d="M37.477,30.587c0,2.755,0,5.51,0,8.265
				c-0.09,0.003-0.183,0.009-0.274,0.009c-5.968,0-11.934,0-17.902,0c-0.1,0-0.2,0-0.33,0c-0.246-2.757-0.494-5.499-0.741-8.266
				c0.087-0.006,0.165-0.016,0.243-0.016c6.281-0.001,12.561-0.001,18.84-0.001C37.367,30.578,37.423,30.584,37.477,30.587z"/>
			<path fill-rule="evenodd" clip-rule="evenodd" fill="#2965F0" d="M37.531,38.872c0.101-0.003,0.2-0.01,0.301-0.01
				c3.172,0,6.343,0,9.514,0c0.101,0,0.201,0,0.33,0c-0.041,0.493-0.079,0.964-0.121,1.435c-0.14,1.555-0.281,3.11-0.42,4.665
				c-0.134,1.491-0.267,2.983-0.392,4.475c-0.016,0.194-0.141,0.207-0.272,0.242c-1.771,0.478-3.541,0.958-5.313,1.434
				c-1.204,0.325-2.409,0.646-3.614,0.969c-0.004-0.137-0.011-0.275-0.011-0.413C37.531,47.402,37.531,43.138,37.531,38.872z"/>
			<path fill-rule="evenodd" clip-rule="evenodd" fill="#2A65F0" d="M37.531,22.1c0.072-0.004,0.146-0.012,0.219-0.012
				c3.703,0,7.407,0,11.111,0c0.081,0,0.16,0,0.289,0c-0.251,2.838-0.499,5.649-0.751,8.472c-0.077,0.007-0.139,0.018-0.201,0.018
				c-3.5,0-7.002,0-10.504,0c-0.056,0-0.109-0.008-0.163-0.012C37.531,27.743,37.531,24.922,37.531,22.1z"/>
		</g>
	</g>
	<g display="none">
		<polygon display="inline" fill-rule="evenodd" clip-rule="evenodd" fill="#E24F26" points="64.493,66.949 37.56,70.542 
			10.875,66.949 10.875,0.062 64.493,0.062 		"/>
		<g display="inline">
			<path fill-rule="evenodd" clip-rule="evenodd" fill="#E24F26" d="M37.686,74.938c-0.166,0-0.331,0-0.497,0
				c-0.189-0.078-0.372-0.173-0.565-0.229c-1.657-0.471-3.315-0.932-4.972-1.4c-6.905-1.952-13.813-3.904-20.715-5.873
				c-0.181-0.052-0.423-0.286-0.438-0.455c-0.234-2.314-0.435-4.633-0.64-6.951c-0.351-3.932-0.697-7.863-1.048-11.795
				c-0.398-4.449-0.799-8.898-1.195-13.347c-0.354-3.952-0.701-7.905-1.053-11.857c-0.355-3.994-0.713-7.988-1.071-11.981
				C5.159,7.386,4.825,3.724,4.492,0.062c22.005,0,44.009,0,66.017,0c-0.166,1.695-0.342,3.39-0.495,5.086
				c-0.357,3.954-0.703,7.909-1.053,11.864c-0.357,3.996-0.718,7.991-1.075,11.987c-0.351,3.933-0.693,7.869-1.046,11.802
				c-0.396,4.431-0.799,8.86-1.194,13.292c-0.381,4.286-0.752,8.572-1.152,12.857c-0.017,0.176-0.245,0.43-0.421,0.48
				c-7.409,2.099-14.824,4.176-22.235,6.265C40.448,74.085,39.069,74.522,37.686,74.938z M37.562,38.871
				c0.007,4.343,0.014,8.686,0.019,13.028c-0.046,0.029-0.095,0.06-0.142,0.089c-2.923-0.792-5.844-1.591-8.771-2.369
				c-0.328-0.087-0.478-0.206-0.504-0.566c-0.093-1.284-0.223-2.565-0.34-3.847c-0.07-0.758-0.146-1.516-0.219-2.271
				c-2.751,0-5.424,0-8.166,0c0.053,0.7,0.099,1.357,0.15,2.015c0.274,3.478,0.558,6.956,0.813,10.435
				c0.031,0.434,0.202,0.592,0.598,0.699c2.721,0.734,5.437,1.498,8.158,2.242c2.757,0.755,5.52,1.499,8.28,2.248
				c0.042,0.011,0.081,0.022,0.123,0.034c0,2.778,0,5.557,0,8.421c0.354-0.073,0.594-0.109,0.828-0.173
				c4.409-1.211,8.817-2.426,13.225-3.64c2.405-0.663,4.813-1.317,7.209-2.006c0.223-0.064,0.524-0.332,0.549-0.533
				c0.169-1.441,0.277-2.889,0.402-4.335c0.138-1.611,0.267-3.224,0.407-4.835c0.151-1.734,0.313-3.468,0.467-5.203
				c0.141-1.57,0.274-3.141,0.416-4.71c0.191-2.126,0.392-4.252,0.582-6.379c0.143-1.611,0.271-3.224,0.414-4.835
				c0.189-2.147,0.394-4.294,0.585-6.441c0.143-1.611,0.277-3.223,0.421-4.834c0.148-1.672,0.302-3.345,0.454-5.017
				c0.146-1.611,0.3-3.221,0.441-4.832c0.148-1.673,0.309-3.345,0.421-5.021c0.052-0.778-0.011-0.804-0.799-0.804
				c-8.399-0.002-16.8-0.002-25.201,0c-0.808,0-0.819,0.014-0.821,0.855c0,2.495,0,4.99,0,7.486
				c-0.042,0.014-0.081,0.028-0.121,0.042c-0.083-0.004-0.165-0.014-0.248-0.014c-6.609-0.002-13.218-0.002-19.825,0
				c-0.16,0-0.322,0.02-0.612,0.039c0.745,8.337,1.485,16.637,2.229,24.977c6.205,0,12.332,0,18.46,0
				C37.482,38.833,37.523,38.852,37.562,38.871z"/>
			<path fill-rule="evenodd" clip-rule="evenodd" fill="#EE652A" d="M37.562,13.771c0-2.496,0-4.991,0-7.486
				c0.002-0.841,0.014-0.855,0.821-0.855c8.401-0.002,16.802-0.002,25.201,0c0.788,0,0.851,0.026,0.799,0.804
				c-0.112,1.676-0.272,3.348-0.421,5.021c-0.142,1.611-0.295,3.221-0.441,4.832c-0.152,1.672-0.306,3.345-0.454,5.017
				c-0.144,1.611-0.278,3.223-0.421,4.834c-0.191,2.147-0.396,4.294-0.585,6.441c-0.144,1.611-0.271,3.224-0.414,4.835
				c-0.19,2.126-0.391,4.252-0.582,6.379c-0.142,1.569-0.275,3.14-0.416,4.71c-0.153,1.734-0.315,3.468-0.467,5.203
				c-0.141,1.612-0.27,3.224-0.407,4.835c-0.125,1.446-0.233,2.894-0.402,4.335c-0.024,0.202-0.326,0.469-0.549,0.533
				c-2.396,0.688-4.804,1.343-7.209,2.006c-4.407,1.214-8.815,2.429-13.225,3.64c-0.234,0.064-0.475,0.1-0.828,0.173
				c0-2.864,0-5.644,0-8.421c0.135-0.052,0.264-0.115,0.402-0.153c5.279-1.46,10.558-2.92,15.842-4.368
				c0.396-0.109,0.623-0.24,0.639-0.727c0.03-0.953,0.158-1.904,0.243-2.855c0.567-6.438,1.134-12.874,1.704-19.311
				c0.08-0.881,0.192-1.758,0.297-2.704c-0.312,0-0.557,0-0.801,0c-5.863,0-11.725,0.001-17.586-0.001
				c-0.249,0-0.495-0.031-0.742-0.047c0-2.801,0.002-5.602,0.002-8.402c0.248-0.012,0.497-0.033,0.745-0.033
				c6.106-0.001,12.215-0.001,18.323-0.001c0.247,0,0.495,0,0.812,0c0.259-2.734,0.514-5.429,0.778-8.204c-0.354,0-0.598,0-0.841,0
				c-6.358,0-12.715,0.001-19.072-0.001C38.059,13.797,37.81,13.78,37.562,13.771z"/>
			<path fill-rule="evenodd" clip-rule="evenodd" fill="#EAE9E8" d="M37.444,38.814c-6.128,0-12.255,0-18.46,0
				c-0.744-8.34-1.484-16.64-2.229-24.977c0.29-0.019,0.452-0.039,0.612-0.039c6.607-0.002,13.216-0.002,19.825,0
				c0.083,0,0.165,0.009,0.248,0.014c0,2.727,0,5.452,0,8.177c-3.841,0-7.682,0-11.578,0c0.25,2.875,0.49,5.66,0.737,8.516
				c3.652,0,7.245,0,10.838,0C37.438,33.275,37.44,36.045,37.444,38.814z"/>
			<path fill-rule="evenodd" clip-rule="evenodd" fill="#FEFEFD" d="M37.444,38.814c-0.004-2.77-0.006-5.539-0.007-8.309
				c0.039-0.021,0.081-0.044,0.122-0.066c0.247,0.016,0.493,0.047,0.742,0.047c5.861,0.002,11.723,0.001,17.586,0.001
				c0.244,0,0.489,0,0.801,0c-0.104,0.946-0.217,1.823-0.297,2.704c-0.57,6.437-1.137,12.873-1.704,19.311
				c-0.085,0.951-0.213,1.902-0.243,2.855c-0.016,0.487-0.242,0.618-0.639,0.727c-5.284,1.448-10.563,2.908-15.842,4.368
				c-0.139,0.038-0.268,0.101-0.402,0.153c-0.042-0.011-0.081-0.022-0.123-0.034c0-2.862,0-5.723,0-8.584
				c0.047-0.029,0.096-0.06,0.142-0.089c0.202-0.046,0.406-0.087,0.605-0.141c2.623-0.708,5.242-1.432,7.874-2.115
				c0.434-0.112,0.596-0.263,0.633-0.726c0.159-1.967,0.375-3.929,0.563-5.894c0.132-1.376,0.256-2.754,0.389-4.206
				c-0.288,0-0.513,0-0.736,0c-2.701,0-5.403-0.002-8.105,0.003c-0.412,0-0.826,0.032-1.24,0.05
				C37.523,38.852,37.482,38.833,37.444,38.814z"/>
			<path fill-rule="evenodd" clip-rule="evenodd" fill="#EAE9E9" d="M37.438,51.988c0,2.861,0,5.722,0,8.584
				c-2.761-0.749-5.523-1.493-8.28-2.248c-2.722-0.744-5.438-1.507-8.158-2.242c-0.396-0.107-0.566-0.265-0.598-0.699
				c-0.255-3.479-0.538-6.958-0.813-10.435c-0.052-0.657-0.098-1.315-0.15-2.015c2.742,0,5.415,0,8.166,0
				c0.072,0.755,0.148,1.513,0.219,2.271c0.117,1.282,0.247,2.563,0.34,3.847c0.026,0.36,0.176,0.479,0.504,0.566
				C31.595,50.397,34.516,51.196,37.438,51.988z"/>
			<path fill-rule="evenodd" clip-rule="evenodd" fill="#FEFEFD" d="M37.44,21.99c0-2.726,0-5.451,0-8.177
				c0.04-0.014,0.079-0.028,0.121-0.042c0.248,0.009,0.497,0.026,0.745,0.026c6.357,0.002,12.714,0.001,19.072,0.001
				c0.243,0,0.486,0,0.841,0c-0.265,2.775-0.52,5.47-0.778,8.204c-0.316,0-0.564,0-0.812,0c-6.108,0-12.217,0-18.323,0.001
				c-0.248,0-0.497,0.021-0.745,0.033C37.521,22.021,37.482,22.006,37.44,21.99z"/>
			<path fill-rule="evenodd" clip-rule="evenodd" fill="#EE652A" d="M37.562,38.871c0.414-0.018,0.828-0.05,1.24-0.05
				c2.702-0.005,5.404-0.003,8.105-0.003c0.224,0,0.448,0,0.736,0c-0.133,1.452-0.257,2.83-0.389,4.206
				c-0.188,1.964-0.403,3.926-0.563,5.894c-0.037,0.462-0.199,0.613-0.633,0.726c-2.632,0.684-5.251,1.407-7.874,2.115
				c-0.199,0.054-0.403,0.094-0.605,0.141C37.575,47.557,37.568,43.214,37.562,38.871z"/>
			<path fill-rule="evenodd" clip-rule="evenodd" fill="#E24F26" d="M37.44,21.99c0.042,0.016,0.081,0.031,0.121,0.047
				c0,2.8-0.002,5.602-0.002,8.402c-0.041,0.022-0.083,0.045-0.122,0.066c-3.593,0-7.186,0-10.838,0
				c-0.247-2.856-0.487-5.641-0.737-8.516C29.759,21.99,33.6,21.99,37.44,21.99z"/>
		</g>
	</g>
	<g display="none">
		<path display="inline" fill-rule="evenodd" clip-rule="evenodd" fill="#FEC92B" d="M59.815,29.542
			c0.646,3.84,1.308,7.679,1.939,11.523c0.976,5.946,1.915,11.897,2.909,17.84c0.182,1.079,0.095,1.761-1.045,2.381
			c-7.727,4.208-15.413,8.491-23.078,12.81c-2.111,1.188-4.061,1.198-6.152-0.014c-4.782-2.77-9.606-5.466-14.415-8.193
			c1.579,0.463,2.723-0.205,3.743-1.357c0.95-1.071,1.976-2.08,2.998-3.082c0.678-0.662,1.454-1.223,2.115-1.898
			c1.979-2.019,3.903-4.089,5.887-6.103c0.918-0.933,1.965-1.74,2.88-2.673c1.885-1.919,3.683-3.927,5.591-5.823
			c2.427-2.413,4.961-4.715,7.382-7.132c2.451-2.445,4.786-5.003,7.251-7.433C58.299,29.918,59.141,29.815,59.815,29.542z"/>
		<path display="inline" fill-rule="evenodd" clip-rule="evenodd" fill="#FECA2E" d="M59.815,29.542
			c-0.675,0.272-1.517,0.375-1.995,0.847c-2.465,2.429-4.8,4.988-7.251,7.433c-2.421,2.417-4.955,4.72-7.382,7.132
			c-1.908,1.896-3.706,3.903-5.591,5.823c-0.915,0.933-1.962,1.74-2.88,2.673c-1.983,2.014-3.908,4.084-5.887,6.103
			c-0.661,0.675-1.438,1.237-2.115,1.898c-1.022,1.002-2.048,2.011-2.998,3.082c-1.021,1.152-2.164,1.82-3.743,1.357
			c0,0,0.022-0.023,0.022-0.023c-0.182-0.099-0.363-0.198-0.546-0.298l0.012,0.006c-0.183-0.096-0.364-0.192-0.545-0.288
			l0.002,0.001c-0.107-0.078-0.212-0.157-0.319-0.235c0,0,0.002,0.023,0.002,0.022c-0.355-0.196-0.712-0.391-1.066-0.586
			l0.013,0.007C17.364,64.397,17.182,64.3,17,64.203l0.008,0.006c-0.184-0.096-0.363-0.191-0.544-0.288v0.001
			c-0.103-0.082-0.208-0.163-0.313-0.244l0.014,0.023c-0.184-0.098-0.366-0.195-0.547-0.292l0.012,0.007
			c-0.182-0.098-0.365-0.196-0.547-0.295l0.012,0.008c-0.182-0.098-0.365-0.195-0.547-0.293l0.008,0.005
			c-0.181-0.097-0.359-0.191-0.539-0.287l-0.004-0.003c-0.104-0.081-0.209-0.161-0.314-0.242l0.019,0.024
			c-0.183-0.099-0.364-0.198-0.55-0.296l0.016,0.007c-0.184-0.098-0.366-0.196-0.551-0.293l0.014,0.006
			c-0.182-0.097-0.365-0.192-0.547-0.289L12.1,61.47c-0.083-0.096-0.166-0.192-0.248-0.29c-0.205-0.06-0.407-0.118-0.614-0.177
			c0,0-0.017-0.016-0.017-0.017c0.117-0.572,0.234-1.142,0.354-1.714c0.09-0.09,0.18-0.18,0.271-0.27
			c0.092-0.091,0.183-0.183,0.273-0.275c0.09-0.09,0.181-0.181,0.271-0.271c0.092-0.091,0.184-0.182,0.273-0.272
			s0.182-0.182,0.272-0.273c0.091-0.091,0.183-0.182,0.271-0.273c0.091-0.091,0.184-0.182,0.274-0.272
			c0.092-0.092,0.181-0.182,0.271-0.273c0.093-0.091,0.184-0.182,0.273-0.272c0.091-0.091,0.18-0.182,0.272-0.273
			c0.093-0.09,0.181-0.182,0.272-0.273s0.183-0.182,0.273-0.272c0.09-0.091,0.181-0.182,0.271-0.272s0.184-0.182,0.271-0.273
			c0.094-0.09,0.184-0.182,0.274-0.272c0.093-0.09,0.183-0.181,0.273-0.272c0.091-0.091,0.182-0.182,0.271-0.273
			c0.091-0.091,0.183-0.182,0.274-0.273c0.091-0.091,0.18-0.181,0.271-0.272c0.091-0.091,0.182-0.183,0.274-0.273
			c0.09-0.091,0.181-0.183,0.272-0.274c0.09-0.091,0.181-0.181,0.271-0.271c0.09-0.091,0.182-0.182,0.271-0.273
			c0.092-0.091,0.183-0.181,0.273-0.273c0.092-0.091,0.182-0.182,0.271-0.272c0.092-0.091,0.184-0.183,0.274-0.272
			c0.091-0.091,0.181-0.183,0.272-0.273c0.09-0.091,0.182-0.182,0.273-0.273c0.09-0.091,0.18-0.181,0.273-0.273
			c0.089-0.09,0.18-0.182,0.271-0.271c0.091-0.091,0.182-0.183,0.273-0.273c0.09-0.091,0.182-0.182,0.271-0.272
			c0.092-0.091,0.183-0.182,0.273-0.274c0.09-0.09,0.182-0.181,0.271-0.272c0.092-0.091,0.183-0.182,0.273-0.273
			c0.092-0.09,0.182-0.182,0.273-0.273c0.091-0.091,0.18-0.181,0.271-0.273c0.093-0.091,0.183-0.182,0.273-0.272
			c0.093-0.091,0.181-0.183,0.274-0.273c0.09-0.091,0.181-0.182,0.271-0.272c0.091-0.091,0.182-0.183,0.272-0.273
			c0.09-0.09,0.183-0.182,0.272-0.272c0.092-0.091,0.183-0.182,0.272-0.273c0.091-0.09,0.184-0.182,0.272-0.273
			c0.092-0.091,0.183-0.181,0.271-0.272c0.094-0.091,0.186-0.183,0.273-0.272c0.093-0.091,0.182-0.183,0.274-0.273
			c0.091-0.091,0.181-0.182,0.271-0.272c0.091-0.091,0.182-0.183,0.272-0.274c0.092-0.09,0.183-0.181,0.273-0.272
			c0.091-0.09,0.182-0.182,0.271-0.272c0.092-0.091,0.184-0.182,0.273-0.273c0.091-0.09,0.182-0.181,0.271-0.272
			c0.094-0.091,0.185-0.182,0.275-0.273c0.09-0.091,0.181-0.182,0.271-0.272c0.092-0.091,0.182-0.181,0.273-0.273
			c0.09-0.09,0.182-0.182,0.273-0.273c0.09-0.09,0.182-0.181,0.271-0.272c0.09-0.09,0.182-0.182,0.273-0.272
			c0.09-0.091,0.182-0.183,0.271-0.273c0.091-0.091,0.182-0.182,0.273-0.272c0.09-0.091,0.182-0.183,0.271-0.272
			c0.091-0.092,0.182-0.183,0.273-0.273c0.09-0.092,0.182-0.182,0.273-0.273c0.09-0.091,0.181-0.182,0.271-0.272
			c0.092-0.091,0.182-0.182,0.273-0.272c0.09-0.092,0.182-0.182,0.271-0.273c0.092-0.09,0.182-0.181,0.273-0.272
			c0.09-0.091,0.182-0.181,0.272-0.272c0.091-0.091,0.181-0.183,0.274-0.273c0.088-0.091,0.181-0.182,0.271-0.272
			s0.182-0.182,0.273-0.272c0.089-0.091,0.182-0.182,0.271-0.273c0.091-0.09,0.182-0.182,0.272-0.272
			c0.091-0.091,0.182-0.182,0.272-0.272c0.092-0.091,0.183-0.183,0.273-0.273c0.092-0.091,0.181-0.182,0.271-0.273
			c0.093-0.091,0.184-0.182,0.274-0.273c0.091-0.09,0.181-0.181,0.271-0.272c0.091-0.091,0.183-0.182,0.273-0.272
			c0.091-0.091,0.182-0.182,0.272-0.273c0.09-0.091,0.182-0.182,0.271-0.272c0.091-0.091,0.184-0.183,0.273-0.273
			s0.182-0.182,0.274-0.272c0.091-0.091,0.181-0.183,0.272-0.273c0.09-0.091,0.181-0.182,0.271-0.273
			c0.092-0.092,0.182-0.181,0.271-0.273c0.092-0.091,0.184-0.182,0.273-0.273c0.092-0.09,0.182-0.181,0.274-0.272
			c0.089-0.092,0.181-0.182,0.271-0.274c0.092-0.09,0.182-0.182,0.275-0.273c0.088-0.09,0.18-0.181,0.27-0.273
			c0.092-0.09,0.182-0.182,0.275-0.272c0.089-0.091,0.18-0.182,0.27-0.273c0.093-0.091,0.184-0.182,0.275-0.272
			c0.09-0.091,0.181-0.183,0.27-0.272c0.094-0.091,0.184-0.183,0.275-0.273c0.09-0.091,0.181-0.182,0.273-0.272
			c0.09-0.091,0.182-0.182,0.272-0.274c0.089-0.089,0.181-0.181,0.272-0.272c0.09-0.091,0.182-0.182,0.272-0.273
			c0.271-0.277,0.542-0.554,0.813-0.831l-0.006,0.01c0.093-0.093,0.188-0.188,0.28-0.281l-0.007,0.009
			c0.093-0.095,0.186-0.188,0.281-0.283l-0.01,0.01c0.094-0.094,0.187-0.188,0.283-0.282l-0.011,0.008
			c0.095-0.093,0.188-0.188,0.282-0.281l-0.01,0.009c0.094-0.095,0.188-0.188,0.281-0.283l-0.008,0.009
			c0.093-0.094,0.189-0.188,0.282-0.282l-0.011,0.009c0.095-0.093,0.188-0.188,0.282-0.282l-0.01,0.009
			c0.095-0.094,0.188-0.188,0.283-0.282l-0.01,0.01c0.093-0.095,0.188-0.188,0.282-0.282l-0.008,0.01
			c0.092-0.095,0.186-0.188,0.281-0.283l-0.01,0.009c0.093-0.093,0.186-0.188,0.282-0.281l-0.011,0.008
			c0.095-0.093,0.189-0.187,0.283-0.281l-0.01,0.009c0.096-0.094,0.188-0.187,0.281-0.282l-0.009,0.009
			c0.093-0.094,0.189-0.188,0.282-0.282l-0.01,0.01c0.096-0.094,0.188-0.188,0.281-0.282l-0.008,0.009
			c0.094-0.093,0.188-0.188,0.281-0.281l-0.01,0.009c0.094-0.094,0.189-0.188,0.282-0.282l-0.008,0.01
			c0.093-0.094,0.188-0.188,0.281-0.283l-0.01,0.01c0.093-0.093,0.188-0.188,0.282-0.282l-0.01,0.009
			c0.094-0.093,0.189-0.188,0.283-0.282l-0.01,0.01c0.095-0.095,0.188-0.188,0.281-0.283l-0.008,0.01
			c0.092-0.106,0.186-0.212,0.279-0.318c-0.006-0.086,0.004-0.17,0.027-0.253c1.795-1.728,3.59-3.453,5.381-5.184
			c1.205-1.166,2.406-2.339,3.609-3.509c0.271-0.164,0.543-0.326,0.813-0.489c0.267-0.001,0.532-0.002,0.799-0.003
			c0.269,0.164,0.538,0.329,0.808,0.494c0.324,1.334,0.733,2.656,0.961,4.007C58.867,23.121,59.324,26.335,59.815,29.542z"/>
		<path display="inline" fill-rule="evenodd" clip-rule="evenodd" fill="#FEA614" d="M11.596,52.452
			c0.494-3.312,0.973-6.626,1.479-9.936c1.035-6.714,2.078-13.425,3.129-20.137c1.084-6.936,2.151-13.873,3.319-20.796
			c0.104-0.611,0.818-1.462,1.365-1.562c0.539-0.099,1.508,0.464,1.804,1.002c3.055,5.568,6.01,11.188,8.992,16.794
			c-0.527,0.367-1.222,0.625-1.544,1.123c-0.683,1.058-1.137,2.258-1.744,3.368c-2.393,4.371-4.855,8.704-7.203,13.098
			c-2.502,4.679-4.87,9.431-7.375,14.108C13.244,50.584,12.346,51.477,11.596,52.452z"/>
		<path display="inline" fill-rule="evenodd" clip-rule="evenodd" fill="#FDA310" d="M45.955,24.606
			c-0.023,0.083-0.033,0.167-0.027,0.254c-0.094,0.106-0.188,0.212-0.279,0.317c0,0,0.008-0.01,0.008-0.009
			c-0.094,0.094-0.187,0.188-0.281,0.282l0.01-0.01c-0.094,0.094-0.189,0.188-0.283,0.282l0.01-0.009
			c-0.094,0.094-0.189,0.188-0.282,0.282l0.01-0.01c-0.095,0.095-0.188,0.188-0.281,0.283c0,0,0.008-0.01,0.008-0.009
			c-0.093,0.093-0.188,0.188-0.282,0.281l0.01-0.009c-0.094,0.093-0.188,0.188-0.281,0.281l0.008-0.009
			c-0.093,0.094-0.186,0.188-0.281,0.282l0.01-0.01c-0.093,0.096-0.189,0.188-0.282,0.282l0.009-0.009
			c-0.094,0.095-0.186,0.188-0.281,0.282l0.01-0.009c-0.094,0.094-0.188,0.188-0.283,0.281l0.011-0.008
			c-0.097,0.094-0.189,0.188-0.282,0.281l0.01-0.009c-0.096,0.095-0.189,0.188-0.281,0.283l0.008-0.01
			c-0.095,0.095-0.189,0.188-0.282,0.282l0.01-0.01c-0.095,0.094-0.188,0.188-0.283,0.282l0.01-0.009
			c-0.095,0.094-0.188,0.188-0.282,0.282l0.011-0.009c-0.093,0.095-0.189,0.188-0.282,0.282c0,0,0.008-0.009,0.008-0.008
			c-0.093,0.094-0.188,0.187-0.281,0.282l0.01-0.009c-0.095,0.094-0.188,0.188-0.282,0.281l0.011-0.008
			c-0.097,0.094-0.189,0.188-0.283,0.282c0,0,0.01-0.01,0.008-0.01c-0.094,0.094-0.187,0.188-0.279,0.283l0.007-0.009
			c-0.093,0.094-0.188,0.188-0.28,0.281l0.006-0.01c-0.264,0.101-0.527,0.202-0.793,0.304c-0.332-0.479-0.721-0.929-0.992-1.44
			c-1.428-2.716-2.791-5.465-4.253-8.164c-0.516-0.953-1.238-1.793-1.866-2.684c-0.006-0.162-0.012-0.324-0.016-0.486
			c0.289-0.3,0.661-0.554,0.853-0.907c1.041-1.912,2.011-3.863,3.058-5.772c0.934-1.704,2.371-1.736,3.281-0.031
			C41.484,15.993,43.707,20.307,45.955,24.606z"/>
		<path display="inline" fill-rule="evenodd" clip-rule="evenodd" fill="#F89C0F" d="M32.008,18.424
			c0.004,0.162,0.01,0.324,0.016,0.485c-0.971,1.846-1.945,3.69-2.908,5.539c-3.336,6.393-6.66,12.791-10.002,19.179
			c-1.074,2.047-2.227,4.052-3.285,6.104c-1.643,3.181-3.236,6.387-4.851,9.581c-0.171,0.083-0.345,0.167-0.516,0.252
			c0.378-2.372,0.755-4.742,1.134-7.112c0.75-0.975,1.648-1.868,2.223-2.937c2.505-4.677,4.873-9.429,7.375-14.108
			c2.348-4.395,4.811-8.727,7.203-13.098c0.607-1.11,1.062-2.311,1.744-3.368c0.322-0.498,1.017-0.756,1.544-1.123
			C31.791,18.02,31.898,18.222,32.008,18.424z"/>
		<path display="inline" fill-rule="evenodd" clip-rule="evenodd" fill="#FDCE4E" d="M10.462,59.564
			c0.171-0.084,0.345-0.168,0.516-0.252c0.198-0.015,0.394-0.03,0.589-0.045l0.008,0.005c-0.119,0.572-0.236,1.143-0.354,1.714
			C10.4,60.815,9.992,60.423,10.462,59.564z"/>
		<path display="inline" fill-rule="evenodd" clip-rule="evenodd" fill="#FEC92B" d="M17.535,64.489
			c0.354,0.195,0.711,0.39,1.066,0.586C18.244,64.88,17.888,64.685,17.535,64.489z"/>
		<path display="inline" fill-rule="evenodd" clip-rule="evenodd" fill="#FDCE4E" d="M55.759,15.424
			c-0.271,0.163-0.542,0.326-0.813,0.489C55.217,15.75,55.488,15.587,55.759,15.424z"/>
		<path display="inline" fill-rule="evenodd" clip-rule="evenodd" fill="#FDCE4E" d="M57.365,15.915
			c-0.27-0.165-0.539-0.33-0.808-0.494C56.826,15.585,57.096,15.75,57.365,15.915z"/>
		<path display="inline" fill-rule="evenodd" clip-rule="evenodd" fill="#FDCE4E" d="M11.237,61.003
			c0.207,0.06,0.409,0.118,0.614,0.177c0,0.073,0,0.146,0.002,0.218C11.647,61.266,11.444,61.134,11.237,61.003z"/>
		<path display="inline" fill-rule="evenodd" clip-rule="evenodd" fill="#FEC92B" d="M19.45,65.569
			c0.183,0.1,0.364,0.199,0.546,0.298C19.814,65.768,19.633,65.668,19.45,65.569z"/>
		<path display="inline" fill-rule="evenodd" clip-rule="evenodd" fill="#FEC92B" d="M12.098,61.468
			c0.182,0.097,0.365,0.192,0.547,0.289C12.463,61.661,12.279,61.565,12.098,61.468z"/>
		<path display="inline" fill-rule="evenodd" clip-rule="evenodd" fill="#FEC92B" d="M12.631,61.751
			c0.185,0.097,0.367,0.195,0.551,0.293C12.998,61.946,12.815,61.848,12.631,61.751z"/>
		<path display="inline" fill-rule="evenodd" clip-rule="evenodd" fill="#FEC92B" d="M13.166,62.037
			c0.186,0.098,0.367,0.197,0.55,0.296C13.533,62.235,13.352,62.135,13.166,62.037z"/>
		<path display="inline" fill-rule="evenodd" clip-rule="evenodd" fill="#FEC92B" d="M14.016,62.554
			c0.18,0.096,0.358,0.19,0.539,0.287C14.374,62.745,14.195,62.65,14.016,62.554z"/>
		<path display="inline" fill-rule="evenodd" clip-rule="evenodd" fill="#FEC92B" d="M14.547,62.836
			c0.182,0.098,0.365,0.195,0.547,0.293C14.912,63.032,14.729,62.934,14.547,62.836z"/>
		<path display="inline" fill-rule="evenodd" clip-rule="evenodd" fill="#FEC92B" d="M15.082,63.122
			c0.182,0.099,0.365,0.197,0.547,0.295C15.447,63.318,15.264,63.221,15.082,63.122z"/>
		<path display="inline" fill-rule="evenodd" clip-rule="evenodd" fill="#FEC92B" d="M15.617,63.41
			c0.181,0.097,0.363,0.194,0.547,0.292C15.98,63.604,15.798,63.507,15.617,63.41z"/>
		<path display="inline" fill-rule="evenodd" clip-rule="evenodd" fill="#FEC92B" d="M16.464,63.921
			c0.181,0.096,0.36,0.191,0.544,0.288C16.824,64.113,16.645,64.018,16.464,63.921z"/>
		<path display="inline" fill-rule="evenodd" clip-rule="evenodd" fill="#FEC92B" d="M17,64.203
			c0.182,0.098,0.364,0.194,0.548,0.293C17.364,64.398,17.182,64.3,17,64.203z"/>
		<path display="inline" fill-rule="evenodd" clip-rule="evenodd" fill="#FEC92B" d="M18.917,65.287
			c0.181,0.096,0.362,0.192,0.545,0.288C19.279,65.479,19.098,65.382,18.917,65.287z"/>
		<path display="inline" fill-rule="evenodd" clip-rule="evenodd" fill="#FEC92B" d="M11.854,61.398
			c-0.002-0.072-0.002-0.145-0.002-0.218c0.082,0.098,0.165,0.194,0.248,0.29C12.008,61.475,11.928,61.451,11.854,61.398z"/>
		<path display="inline" fill-rule="evenodd" clip-rule="evenodd" fill="#FEC92B" d="M13.697,62.309
			c0.105,0.081,0.211,0.161,0.314,0.242C13.908,62.47,13.803,62.39,13.697,62.309z"/>
		<path display="inline" fill-rule="evenodd" clip-rule="evenodd" fill="#FEC92B" d="M16.15,63.679
			c0.105,0.081,0.211,0.162,0.313,0.244C16.361,63.841,16.256,63.76,16.15,63.679z"/>
		<path display="inline" fill-rule="evenodd" clip-rule="evenodd" fill="#FEC92B" d="M18.6,65.053
			c0.107,0.078,0.212,0.157,0.319,0.235C18.812,65.209,18.707,65.131,18.6,65.053z"/>
		<path display="inline" fill-rule="evenodd" clip-rule="evenodd" fill="#FDCE4E" d="M39.135,31.198
			c0.266-0.102,0.529-0.203,0.793-0.304c-0.271,0.277-0.543,0.554-0.813,0.831l-0.013-0.012
			C39.112,31.542,39.125,31.37,39.135,31.198z"/>
		<path display="inline" fill-rule="evenodd" clip-rule="evenodd" fill="#FDCE4E" d="M40.739,30.086
			c0.095-0.093,0.188-0.187,0.282-0.281C40.927,29.898,40.834,29.993,40.739,30.086z"/>
		<path display="inline" fill-rule="evenodd" clip-rule="evenodd" fill="#FDCE4E" d="M40.467,30.36
			c0.094-0.094,0.187-0.188,0.283-0.282C40.653,30.171,40.561,30.266,40.467,30.36z"/>
		<path display="inline" fill-rule="evenodd" clip-rule="evenodd" fill="#FDCE4E" d="M40.195,30.632
			c0.093-0.095,0.186-0.188,0.279-0.283C40.381,30.444,40.288,30.538,40.195,30.632z"/>
		<path display="inline" fill-rule="evenodd" clip-rule="evenodd" fill="#FDCE4E" d="M39.922,30.904
			c0.093-0.093,0.188-0.188,0.28-0.281C40.109,30.717,40.015,30.811,39.922,30.904z"/>
		<path display="inline" fill-rule="evenodd" clip-rule="evenodd" fill="#FDCE4E" d="M39.114,31.725
			c-0.091,0.091-0.183,0.182-0.272,0.273l-0.012-0.011c0.09-0.091,0.182-0.183,0.271-0.274L39.114,31.725z"/>
		<path display="inline" fill-rule="evenodd" clip-rule="evenodd" fill="#FDCE4E" d="M38.842,31.998
			c-0.092,0.091-0.184,0.183-0.272,0.272l-0.013-0.01c0.092-0.091,0.184-0.183,0.273-0.272L38.842,31.998z"/>
		<path display="inline" fill-rule="evenodd" clip-rule="evenodd" fill="#FDCE4E" d="M38.569,32.27
			c-0.091,0.092-0.183,0.183-0.272,0.274l-0.012-0.012c0.092-0.091,0.182-0.181,0.271-0.272L38.569,32.27z"/>
		<path display="inline" fill-rule="evenodd" clip-rule="evenodd" fill="#FDCE4E" d="M38.297,32.544
			c-0.093,0.09-0.184,0.181-0.273,0.272l-0.012-0.011c0.092-0.091,0.183-0.182,0.273-0.273L38.297,32.544z"/>
		<path display="inline" fill-rule="evenodd" clip-rule="evenodd" fill="#FDCE4E" d="M38.023,32.816
			c-0.092,0.09-0.182,0.182-0.275,0.273l-0.008-0.012c0.09-0.091,0.181-0.182,0.271-0.272L38.023,32.816z"/>
		<path display="inline" fill-rule="evenodd" clip-rule="evenodd" fill="#FDCE4E" d="M37.748,33.089
			c-0.089,0.09-0.18,0.182-0.27,0.272l-0.012-0.012c0.091-0.091,0.182-0.182,0.273-0.272L37.748,33.089z"/>
		<path display="inline" fill-rule="evenodd" clip-rule="evenodd" fill="#FDCE4E" d="M37.479,33.362
			c-0.092,0.09-0.183,0.182-0.275,0.272l-0.01-0.012c0.092-0.091,0.182-0.182,0.273-0.272L37.479,33.362z"/>
		<path display="inline" fill-rule="evenodd" clip-rule="evenodd" fill="#FDCE4E" d="M37.203,33.634
			c-0.09,0.091-0.181,0.182-0.27,0.273l-0.014-0.012c0.091-0.091,0.184-0.182,0.273-0.272L37.203,33.634z"/>
		<path display="inline" fill-rule="evenodd" clip-rule="evenodd" fill="#FDCE4E" d="M36.934,33.907
			c-0.094,0.09-0.184,0.182-0.275,0.272l-0.011-0.011c0.093-0.091,0.183-0.183,0.272-0.273L36.934,33.907z"/>
		<path display="inline" fill-rule="evenodd" clip-rule="evenodd" fill="#FDCE4E" d="M36.658,34.179
			c-0.09,0.092-0.182,0.183-0.27,0.273l-0.014-0.011c0.09-0.091,0.184-0.182,0.272-0.272L36.658,34.179z"/>
		<path display="inline" fill-rule="evenodd" clip-rule="evenodd" fill="#FDCE4E" d="M36.389,34.452
			c-0.094,0.091-0.184,0.183-0.275,0.273l-0.011-0.012c0.093-0.09,0.183-0.181,0.272-0.272L36.389,34.452z"/>
		<path display="inline" fill-rule="evenodd" clip-rule="evenodd" fill="#FDCE4E" d="M36.113,34.725
			c-0.09,0.092-0.182,0.182-0.271,0.274c0,0-0.013-0.012-0.013-0.011c0.092-0.092,0.184-0.183,0.272-0.274L36.113,34.725z"/>
		<path display="inline" fill-rule="evenodd" clip-rule="evenodd" fill="#FDCE4E" d="M35.843,34.999
			c-0.093,0.091-0.183,0.182-0.274,0.272c0,0-0.012-0.011-0.01-0.011c0.092-0.091,0.182-0.182,0.271-0.273L35.843,34.999z"/>
		<path display="inline" fill-rule="evenodd" clip-rule="evenodd" fill="#FDCE4E" d="M35.568,35.271
			c-0.09,0.091-0.182,0.182-0.273,0.273l-0.01-0.01c0.092-0.092,0.183-0.183,0.271-0.273L35.568,35.271z"/>
		<path display="inline" fill-rule="evenodd" clip-rule="evenodd" fill="#FDCE4E" d="M35.295,35.544
			c-0.09,0.092-0.18,0.181-0.271,0.273l-0.01-0.011c0.092-0.09,0.183-0.182,0.271-0.272L35.295,35.544z"/>
		<path display="inline" fill-rule="evenodd" clip-rule="evenodd" fill="#FDCE4E" d="M35.023,35.817
			c-0.091,0.091-0.182,0.182-0.271,0.273l-0.011-0.011c0.091-0.091,0.181-0.181,0.272-0.273L35.023,35.817z"/>
		<path display="inline" fill-rule="evenodd" clip-rule="evenodd" fill="#FDCE4E" d="M34.752,36.09
			c-0.092,0.09-0.182,0.182-0.272,0.273l-0.012-0.011c0.092-0.091,0.183-0.182,0.273-0.273L34.752,36.09z"/>
		<path display="inline" fill-rule="evenodd" clip-rule="evenodd" fill="#FDCE4E" d="M34.479,36.363
			c-0.093,0.09-0.185,0.182-0.274,0.272l-0.01-0.011c0.091-0.091,0.182-0.182,0.272-0.272L34.479,36.363z"/>
		<path display="inline" fill-rule="evenodd" clip-rule="evenodd" fill="#FDCE4E" d="M34.205,36.635
			c-0.09,0.09-0.183,0.182-0.273,0.273l-0.01-0.011c0.091-0.091,0.183-0.182,0.273-0.273L34.205,36.635z"/>
		<path display="inline" fill-rule="evenodd" clip-rule="evenodd" fill="#FDCE4E" d="M33.932,36.908
			c-0.09,0.091-0.182,0.181-0.271,0.272l-0.011-0.012c0.091-0.091,0.181-0.182,0.272-0.272L33.932,36.908z"/>
		<path display="inline" fill-rule="evenodd" clip-rule="evenodd" fill="#FDCE4E" d="M33.66,37.181
			c-0.091,0.091-0.182,0.182-0.272,0.273l-0.01-0.011c0.091-0.091,0.182-0.182,0.271-0.273L33.66,37.181z"/>
		<path display="inline" fill-rule="evenodd" clip-rule="evenodd" fill="#FDCE4E" d="M33.388,37.454
			c-0.091,0.091-0.183,0.182-0.273,0.272c0,0-0.01-0.011-0.01-0.01c0.092-0.092,0.181-0.183,0.273-0.273L33.388,37.454z"/>
		<path display="inline" fill-rule="evenodd" clip-rule="evenodd" fill="#FDCE4E" d="M33.114,37.726
			c-0.091,0.091-0.181,0.183-0.271,0.272l-0.011-0.011c0.092-0.09,0.184-0.182,0.272-0.273L33.114,37.726z"/>
		<path display="inline" fill-rule="evenodd" clip-rule="evenodd" fill="#FDCE4E" d="M32.843,37.999
			c-0.091,0.091-0.182,0.183-0.274,0.273l-0.01-0.011c0.093-0.091,0.181-0.182,0.273-0.273L32.843,37.999z"/>
		<path display="inline" fill-rule="evenodd" clip-rule="evenodd" fill="#FDCE4E" d="M32.568,38.272
			c-0.091,0.091-0.18,0.182-0.271,0.273l-0.01-0.011c0.092-0.091,0.183-0.182,0.271-0.273L32.568,38.272z"/>
		<path display="inline" fill-rule="evenodd" clip-rule="evenodd" fill="#FDCE4E" d="M32.297,38.545
			c-0.091,0.09-0.182,0.182-0.273,0.273l-0.01-0.011c0.094-0.091,0.183-0.183,0.273-0.273L32.297,38.545z"/>
		<path display="inline" fill-rule="evenodd" clip-rule="evenodd" fill="#FDCE4E" d="M32.023,38.818
			c-0.091,0.09-0.182,0.181-0.272,0.272l-0.01-0.011c0.093-0.091,0.183-0.182,0.272-0.272L32.023,38.818z"/>
		<path display="inline" fill-rule="evenodd" clip-rule="evenodd" fill="#FDCE4E" d="M31.751,39.09
			c-0.091,0.09-0.182,0.182-0.272,0.272l-0.01-0.01c0.091-0.091,0.182-0.182,0.272-0.272L31.751,39.09z"/>
		<path display="inline" fill-rule="evenodd" clip-rule="evenodd" fill="#FDCE4E" d="M31.479,39.362
			c-0.09,0.092-0.183,0.182-0.271,0.273l-0.01-0.011c0.09-0.091,0.182-0.181,0.271-0.273L31.479,39.362z"/>
		<path display="inline" fill-rule="evenodd" clip-rule="evenodd" fill="#FDCE4E" d="M31.207,39.636
			c-0.092,0.09-0.183,0.182-0.273,0.272l-0.01-0.01c0.09-0.091,0.182-0.182,0.273-0.273L31.207,39.636z"/>
		<path display="inline" fill-rule="evenodd" clip-rule="evenodd" fill="#FDCE4E" d="M30.934,39.908
			c-0.091,0.091-0.184,0.182-0.271,0.272l-0.011-0.011c0.091-0.091,0.183-0.181,0.272-0.272L30.934,39.908z"/>
		<path display="inline" fill-rule="evenodd" clip-rule="evenodd" fill="#FDCE4E" d="M30.662,40.181
			c-0.094,0.09-0.184,0.182-0.274,0.273c0,0-0.01-0.011-0.009-0.011c0.09-0.09,0.182-0.182,0.272-0.273L30.662,40.181z"/>
		<path display="inline" fill-rule="evenodd" clip-rule="evenodd" fill="#FDCE4E" d="M30.388,40.454
			c-0.091,0.091-0.183,0.182-0.272,0.272l-0.01-0.01c0.092-0.091,0.182-0.183,0.272-0.273L30.388,40.454z"/>
		<path display="inline" fill-rule="evenodd" clip-rule="evenodd" fill="#FDCE4E" d="M30.115,40.726
			c-0.092,0.091-0.182,0.182-0.273,0.272l-0.01-0.01c0.092-0.091,0.182-0.182,0.273-0.272L30.115,40.726z"/>
		<path display="inline" fill-rule="evenodd" clip-rule="evenodd" fill="#FDCE4E" d="M29.842,40.999
			c-0.09,0.091-0.182,0.182-0.271,0.273c0,0-0.01-0.011-0.01-0.01c0.092-0.091,0.181-0.183,0.271-0.273L29.842,40.999z"/>
		<path display="inline" fill-rule="evenodd" clip-rule="evenodd" fill="#FDCE4E" d="M29.57,41.272
			c-0.092,0.091-0.182,0.182-0.273,0.272l-0.01-0.01c0.092-0.091,0.182-0.183,0.273-0.273L29.57,41.272z"/>
		<path display="inline" fill-rule="evenodd" clip-rule="evenodd" fill="#FDCE4E" d="M29.297,41.544
			c-0.091,0.091-0.182,0.182-0.271,0.272l-0.01-0.01c0.09-0.09,0.181-0.182,0.271-0.272L29.297,41.544z"/>
		<path display="inline" fill-rule="evenodd" clip-rule="evenodd" fill="#FDCE4E" d="M29.025,41.817
			c-0.092,0.092-0.184,0.182-0.273,0.273l-0.01-0.011c0.091-0.091,0.182-0.182,0.273-0.273L29.025,41.817z"/>
		<path display="inline" fill-rule="evenodd" clip-rule="evenodd" fill="#FDCE4E" d="M28.752,42.09
			c-0.092,0.091-0.183,0.182-0.273,0.273l-0.008-0.011c0.092-0.09,0.18-0.182,0.271-0.273L28.752,42.09z"/>
		<path display="inline" fill-rule="evenodd" clip-rule="evenodd" fill="#FDCE4E" d="M28.479,42.364
			c-0.09,0.089-0.182,0.181-0.271,0.272l-0.01-0.01c0.091-0.091,0.182-0.183,0.273-0.274L28.479,42.364z"/>
		<path display="inline" fill-rule="evenodd" clip-rule="evenodd" fill="#FDCE4E" d="M28.207,42.636
			c-0.092,0.09-0.183,0.181-0.273,0.272l-0.009-0.009c0.093-0.092,0.181-0.182,0.272-0.273L28.207,42.636z"/>
		<path display="inline" fill-rule="evenodd" clip-rule="evenodd" fill="#FDCE4E" d="M27.934,42.909
			c-0.09,0.09-0.182,0.182-0.271,0.273l-0.009-0.01c0.089-0.09,0.181-0.181,0.271-0.272L27.934,42.909z"/>
		<path display="inline" fill-rule="evenodd" clip-rule="evenodd" fill="#FDCE4E" d="M27.662,43.182
			c-0.092,0.091-0.184,0.182-0.273,0.272l-0.008-0.008c0.092-0.092,0.182-0.183,0.272-0.274L27.662,43.182z"/>
		<path display="inline" fill-rule="evenodd" clip-rule="evenodd" fill="#FDCE4E" d="M27.389,43.454
			c-0.09,0.091-0.182,0.183-0.271,0.272c0,0-0.01-0.008-0.01-0.008c0.09-0.092,0.184-0.182,0.273-0.273L27.389,43.454z"/>
		<path display="inline" fill-rule="evenodd" clip-rule="evenodd" fill="#FDCE4E" d="M27.117,43.727
			c-0.092,0.091-0.184,0.183-0.273,0.273l-0.008-0.008c0.092-0.091,0.182-0.182,0.271-0.273L27.117,43.727z"/>
		<path display="inline" fill-rule="evenodd" clip-rule="evenodd" fill="#FDCE4E" d="M26.844,44
			c-0.092,0.092-0.182,0.182-0.273,0.273l-0.008-0.009c0.09-0.09,0.183-0.182,0.273-0.272L26.844,44z"/>
		<path display="inline" fill-rule="evenodd" clip-rule="evenodd" fill="#FDCE4E" d="M26.57,44.273
			c-0.091,0.09-0.182,0.182-0.271,0.272l-0.01-0.009c0.094-0.09,0.183-0.181,0.273-0.272L26.57,44.273z"/>
		<path display="inline" fill-rule="evenodd" clip-rule="evenodd" fill="#FDCE4E" d="M26.299,44.545
			c-0.091,0.091-0.182,0.182-0.275,0.273l-0.007-0.009c0.091-0.09,0.183-0.182,0.272-0.273L26.299,44.545z"/>
		<path display="inline" fill-rule="evenodd" clip-rule="evenodd" fill="#FDCE4E" d="M26.023,44.818
			c-0.09,0.091-0.181,0.182-0.271,0.272l-0.008-0.009c0.091-0.091,0.182-0.182,0.272-0.273L26.023,44.818z"/>
		<path display="inline" fill-rule="evenodd" clip-rule="evenodd" fill="#FDCE4E" d="M45.648,25.178
			c0.092-0.105,0.186-0.211,0.279-0.317C45.834,24.966,45.74,25.072,45.648,25.178z"/>
		<path display="inline" fill-rule="evenodd" clip-rule="evenodd" fill="#FDCE4E" d="M25.752,45.091
			c-0.09,0.091-0.182,0.182-0.273,0.273l-0.008-0.009c0.093-0.09,0.184-0.182,0.273-0.273L25.752,45.091z"/>
		<path display="inline" fill-rule="evenodd" clip-rule="evenodd" fill="#FDCE4E" d="M25.479,45.364
			c-0.09,0.091-0.181,0.182-0.271,0.272l-0.008-0.008c0.09-0.091,0.183-0.182,0.271-0.273L25.479,45.364z"/>
		<path display="inline" fill-rule="evenodd" clip-rule="evenodd" fill="#FDCE4E" d="M25.207,45.636
			c-0.091,0.091-0.182,0.183-0.273,0.272L24.927,45.9c0.089-0.091,0.183-0.182,0.272-0.272L25.207,45.636z"/>
		<path display="inline" fill-rule="evenodd" clip-rule="evenodd" fill="#FDCE4E" d="M24.934,45.909
			c-0.091,0.091-0.182,0.183-0.272,0.274l-0.006-0.009c0.089-0.091,0.18-0.183,0.271-0.273L24.934,45.909z"/>
		<path display="inline" fill-rule="evenodd" clip-rule="evenodd" fill="#FDCE4E" d="M24.661,46.183
			c-0.091,0.09-0.181,0.181-0.271,0.272l-0.008-0.009c0.09-0.091,0.183-0.182,0.273-0.273L24.661,46.183z"/>
		<path display="inline" fill-rule="evenodd" clip-rule="evenodd" fill="#FDCE4E" d="M24.39,46.455
			c-0.093,0.09-0.182,0.182-0.274,0.273l-0.006-0.009c0.09-0.09,0.182-0.182,0.272-0.272L24.39,46.455z"/>
		<path display="inline" fill-rule="evenodd" clip-rule="evenodd" fill="#FDCE4E" d="M24.115,46.728
			c-0.088,0.09-0.18,0.181-0.273,0.272l-0.006-0.008c0.091-0.092,0.181-0.183,0.273-0.274L24.115,46.728z"/>
		<path display="inline" fill-rule="evenodd" clip-rule="evenodd" fill="#FDCE4E" d="M23.842,47
			c-0.089,0.091-0.18,0.182-0.271,0.272l-0.006-0.008c0.09-0.091,0.181-0.183,0.271-0.272L23.842,47z"/>
		<path display="inline" fill-rule="evenodd" clip-rule="evenodd" fill="#FDCE4E" d="M23.57,47.273
			c-0.089,0.091-0.182,0.183-0.272,0.273l-0.007-0.008c0.092-0.09,0.183-0.182,0.273-0.272L23.57,47.273z"/>
		<path display="inline" fill-rule="evenodd" clip-rule="evenodd" fill="#FDCE4E" d="M23.298,47.546
			c-0.09,0.091-0.181,0.182-0.272,0.273l-0.007-0.009c0.09-0.091,0.183-0.181,0.272-0.272L23.298,47.546z"/>
		<path display="inline" fill-rule="evenodd" clip-rule="evenodd" fill="#FDCE4E" d="M23.025,47.819
			c-0.09,0.091-0.183,0.182-0.272,0.272l-0.007-0.008c0.091-0.091,0.182-0.181,0.272-0.273L23.025,47.819z"/>
		<path display="inline" fill-rule="evenodd" clip-rule="evenodd" fill="#FDCE4E" d="M22.753,48.091
			c-0.091,0.091-0.182,0.182-0.272,0.273l-0.008-0.009c0.092-0.091,0.184-0.182,0.273-0.273L22.753,48.091z"/>
		<path display="inline" fill-rule="evenodd" clip-rule="evenodd" fill="#FDCE4E" d="M22.48,48.365
			c-0.091,0.09-0.182,0.182-0.271,0.272l-0.008-0.009c0.09-0.091,0.182-0.182,0.271-0.272L22.48,48.365z"/>
		<path display="inline" fill-rule="evenodd" clip-rule="evenodd" fill="#FDCE4E" d="M22.209,48.637
			c-0.094,0.09-0.182,0.182-0.274,0.273l-0.008-0.009c0.093-0.09,0.185-0.181,0.274-0.273L22.209,48.637z"/>
		<path display="inline" fill-rule="evenodd" clip-rule="evenodd" fill="#FDCE4E" d="M21.935,48.91
			c-0.091,0.09-0.181,0.181-0.273,0.272l-0.006-0.007c0.091-0.092,0.183-0.183,0.271-0.274L21.935,48.91z"/>
		<path display="inline" fill-rule="evenodd" clip-rule="evenodd" fill="#FDCE4E" d="M21.661,49.182
			c-0.091,0.092-0.18,0.182-0.271,0.273l-0.008-0.008c0.091-0.091,0.184-0.182,0.272-0.272L21.661,49.182z"/>
		<path display="inline" fill-rule="evenodd" clip-rule="evenodd" fill="#FDCE4E" d="M21.391,49.455
			c-0.092,0.091-0.182,0.183-0.273,0.273l-0.008-0.008c0.092-0.091,0.184-0.183,0.273-0.273L21.391,49.455z"/>
		<path display="inline" fill-rule="evenodd" clip-rule="evenodd" fill="#FDCE4E" d="M21.117,49.728
			c-0.091,0.091-0.182,0.182-0.273,0.273c0,0-0.006-0.008-0.006-0.008c0.09-0.092,0.183-0.182,0.271-0.273L21.117,49.728z"/>
		<path display="inline" fill-rule="evenodd" clip-rule="evenodd" fill="#FDCE4E" d="M45.375,25.451
			c0.095-0.095,0.188-0.188,0.281-0.282C45.563,25.263,45.47,25.356,45.375,25.451z"/>
		<path display="inline" fill-rule="evenodd" clip-rule="evenodd" fill="#FDCE4E" d="M45.102,25.723
			c0.094-0.093,0.189-0.188,0.283-0.282C45.291,25.535,45.195,25.629,45.102,25.723z"/>
		<path display="inline" fill-rule="evenodd" clip-rule="evenodd" fill="#FDCE4E" d="M20.844,50.001
			c-0.09,0.091-0.182,0.182-0.271,0.272l-0.008-0.007c0.092-0.091,0.182-0.182,0.273-0.273L20.844,50.001z"/>
		<path display="inline" fill-rule="evenodd" clip-rule="evenodd" fill="#FDCE4E" d="M20.572,50.273
			c-0.091,0.092-0.182,0.183-0.273,0.274l-0.006-0.009c0.09-0.09,0.18-0.182,0.271-0.272L20.572,50.273z"/>
		<path display="inline" fill-rule="evenodd" clip-rule="evenodd" fill="#FDCE4E" d="M20.299,50.547
			c-0.09,0.091-0.182,0.181-0.271,0.272l-0.008-0.009c0.091-0.09,0.18-0.181,0.273-0.272L20.299,50.547z"/>
		<path display="inline" fill-rule="evenodd" clip-rule="evenodd" fill="#FDCE4E" d="M20.027,50.819
			c-0.092,0.09-0.183,0.182-0.273,0.273l-0.006-0.008c0.09-0.092,0.18-0.183,0.271-0.274L20.027,50.819z"/>
		<path display="inline" fill-rule="evenodd" clip-rule="evenodd" fill="#FDCE4E" d="M19.754,51.092
			c-0.092,0.09-0.183,0.181-0.271,0.271l-0.01-0.007c0.093-0.091,0.182-0.183,0.275-0.272L19.754,51.092z"/>
		<path display="inline" fill-rule="evenodd" clip-rule="evenodd" fill="#FDCE4E" d="M19.482,51.364
			c-0.094,0.092-0.184,0.183-0.273,0.273L19.2,51.629c0.091-0.091,0.183-0.182,0.272-0.272L19.482,51.364z"/>
		<path display="inline" fill-rule="evenodd" clip-rule="evenodd" fill="#FDCE4E" d="M19.209,51.637
			c-0.092,0.091-0.184,0.182-0.273,0.273l-0.008-0.008c0.092-0.091,0.182-0.182,0.272-0.273L19.209,51.637z"/>
		<path display="inline" fill-rule="evenodd" clip-rule="evenodd" fill="#FDCE4E" d="M18.936,51.91
			c-0.092,0.09-0.182,0.182-0.272,0.273l-0.008-0.008c0.091-0.091,0.185-0.182,0.272-0.273L18.936,51.91z"/>
		<path display="inline" fill-rule="evenodd" clip-rule="evenodd" fill="#FDCE4E" d="M18.663,52.183
			c-0.091,0.09-0.183,0.182-0.274,0.272l-0.006-0.008c0.09-0.092,0.182-0.182,0.272-0.273L18.663,52.183z"/>
		<path display="inline" fill-rule="evenodd" clip-rule="evenodd" fill="#FDCE4E" d="M18.389,52.456
			c-0.09,0.091-0.18,0.181-0.271,0.272l-0.006-0.008c0.091-0.09,0.181-0.182,0.271-0.272L18.389,52.456z"/>
		<path display="inline" fill-rule="evenodd" clip-rule="evenodd" fill="#FDCE4E" d="M18.117,52.728
			c-0.091,0.092-0.182,0.182-0.273,0.273l-0.006-0.007c0.092-0.091,0.182-0.182,0.273-0.273L18.117,52.728z"/>
		<path display="inline" fill-rule="evenodd" clip-rule="evenodd" fill="#FDCE4E" d="M17.844,53.001
			c-0.09,0.091-0.182,0.182-0.271,0.273l-0.006-0.008c0.09-0.09,0.181-0.182,0.271-0.272L17.844,53.001z"/>
		<path display="inline" fill-rule="evenodd" clip-rule="evenodd" fill="#FDCE4E" d="M44.829,25.996
			c0.093-0.093,0.188-0.188,0.282-0.282C45.018,25.808,44.922,25.902,44.829,25.996z"/>
		<path display="inline" fill-rule="evenodd" clip-rule="evenodd" fill="#FDCE4E" d="M17.301,53.545
			c-0.092,0.092-0.183,0.183-0.272,0.274l-0.007-0.008c0.091-0.09,0.18-0.182,0.272-0.272L17.301,53.545z"/>
		<path display="inline" fill-rule="evenodd" clip-rule="evenodd" fill="#FDCE4E" d="M17.028,53.82
			c-0.093,0.09-0.184,0.182-0.274,0.273l-0.006-0.007c0.093-0.091,0.182-0.182,0.273-0.274L17.028,53.82z"/>
		<path display="inline" fill-rule="evenodd" clip-rule="evenodd" fill="#FDCE4E" d="M16.754,54.093
			c-0.092,0.091-0.181,0.181-0.271,0.272l-0.006-0.006c0.09-0.091,0.181-0.182,0.271-0.272L16.754,54.093z"/>
		<path display="inline" fill-rule="evenodd" clip-rule="evenodd" fill="#FDCE4E" d="M16.482,54.365
			c-0.092,0.091-0.184,0.182-0.274,0.273l-0.004-0.006c0.089-0.091,0.181-0.182,0.272-0.273L16.482,54.365z"/>
		<path display="inline" fill-rule="evenodd" clip-rule="evenodd" fill="#FDCE4E" d="M44.558,26.269
			c0.093-0.094,0.187-0.188,0.281-0.283C44.746,26.081,44.65,26.174,44.558,26.269z"/>
		<path display="inline" fill-rule="evenodd" clip-rule="evenodd" fill="#FDCE4E" d="M16.208,54.638
			c-0.09,0.091-0.181,0.182-0.271,0.273l-0.006-0.007c0.091-0.091,0.181-0.182,0.273-0.272L16.208,54.638z"/>
		<path display="inline" fill-rule="evenodd" clip-rule="evenodd" fill="#FDCE4E" d="M15.937,54.911
			c-0.091,0.091-0.181,0.182-0.273,0.272l-0.004-0.006c0.089-0.091,0.181-0.182,0.271-0.273L15.937,54.911z"/>
		<path display="inline" fill-rule="evenodd" clip-rule="evenodd" fill="#FDCE4E" d="M15.663,55.183
			c-0.091,0.091-0.181,0.183-0.274,0.272l-0.004-0.006c0.092-0.091,0.184-0.182,0.274-0.273L15.663,55.183z"/>
		<path display="inline" fill-rule="evenodd" clip-rule="evenodd" fill="#FDCE4E" d="M15.389,55.456
			c-0.088,0.092-0.181,0.183-0.271,0.273l-0.004-0.007c0.09-0.091,0.181-0.182,0.271-0.272L15.389,55.456z"/>
		<path display="inline" fill-rule="evenodd" clip-rule="evenodd" fill="#FDCE4E" d="M15.117,55.729
			c-0.091,0.091-0.182,0.182-0.271,0.272l-0.007-0.006c0.093-0.091,0.182-0.182,0.274-0.273L15.117,55.729z"/>
		<path display="inline" fill-rule="evenodd" clip-rule="evenodd" fill="#FDCE4E" d="M14.846,56.001
			c-0.091,0.091-0.182,0.182-0.273,0.272l-0.006-0.006c0.092-0.091,0.183-0.182,0.272-0.273L14.846,56.001z"/>
		<path display="inline" fill-rule="evenodd" clip-rule="evenodd" fill="#FDCE4E" d="M14.572,56.274
			c-0.092,0.091-0.18,0.183-0.272,0.273l-0.006-0.006c0.092-0.091,0.183-0.182,0.272-0.272L14.572,56.274z"/>
		<path display="inline" fill-rule="evenodd" clip-rule="evenodd" fill="#FDCE4E" d="M14.3,56.547
			c-0.093,0.091-0.182,0.182-0.272,0.273l-0.006-0.007c0.091-0.09,0.182-0.182,0.272-0.272L14.3,56.547z"/>
		<path display="inline" fill-rule="evenodd" clip-rule="evenodd" fill="#FDCE4E" d="M14.027,56.82
			c-0.09,0.091-0.181,0.181-0.273,0.272l-0.004-0.006c0.091-0.091,0.181-0.182,0.271-0.273L14.027,56.82z"/>
		<path display="inline" fill-rule="evenodd" clip-rule="evenodd" fill="#FDCE4E" d="M13.754,57.092
			c-0.091,0.092-0.18,0.182-0.271,0.273l-0.004-0.007c0.088-0.091,0.18-0.181,0.271-0.272L13.754,57.092z"/>
		<path display="inline" fill-rule="evenodd" clip-rule="evenodd" fill="#FDCE4E" d="M13.482,57.366
			c-0.091,0.09-0.184,0.181-0.274,0.272l-0.004-0.006c0.089-0.092,0.183-0.182,0.274-0.273L13.482,57.366z"/>
		<path display="inline" fill-rule="evenodd" clip-rule="evenodd" fill="#FDCE4E" d="M13.208,57.638
			c-0.089,0.091-0.181,0.182-0.271,0.273l-0.006-0.006c0.09-0.091,0.183-0.182,0.273-0.272L13.208,57.638z"/>
		<path display="inline" fill-rule="evenodd" clip-rule="evenodd" fill="#FDCE4E" d="M12.937,57.911
			c-0.091,0.091-0.183,0.182-0.272,0.273l-0.006-0.007c0.092-0.09,0.182-0.181,0.272-0.272L12.937,57.911z"/>
		<path display="inline" fill-rule="evenodd" clip-rule="evenodd" fill="#FDCE4E" d="M12.664,58.184
			c-0.09,0.091-0.182,0.182-0.273,0.272l-0.006-0.007c0.092-0.091,0.184-0.182,0.273-0.273L12.664,58.184z"/>
		<path display="inline" fill-rule="evenodd" clip-rule="evenodd" fill="#FDCE4E" d="M17.572,53.274
			c-0.091,0.091-0.182,0.181-0.271,0.271l-0.007-0.005c0.091-0.092,0.181-0.183,0.272-0.274L17.572,53.274z"/>
		<path display="inline" fill-rule="evenodd" clip-rule="evenodd" fill="#FDCE4E" d="M12.119,58.727
			c-0.091,0.092-0.182,0.184-0.273,0.275l-0.006-0.007c0.09-0.09,0.183-0.182,0.271-0.272L12.119,58.727z"/>
		<path display="inline" fill-rule="evenodd" clip-rule="evenodd" fill="#FDCE4E" d="M11.846,59.002
			c-0.092,0.09-0.182,0.18-0.271,0.27l-0.008-0.005c0.092-0.09,0.182-0.181,0.273-0.272L11.846,59.002z"/>
		<path display="inline" fill-rule="evenodd" clip-rule="evenodd" fill="#FDCE4E" d="M44.283,26.541
			c0.094-0.094,0.189-0.188,0.282-0.281C44.473,26.353,44.377,26.447,44.283,26.541z"/>
		<path display="inline" fill-rule="evenodd" clip-rule="evenodd" fill="#FDCE4E" d="M44.012,26.813
			c0.094-0.093,0.188-0.188,0.281-0.281C44.199,26.625,44.105,26.72,44.012,26.813z"/>
		<path display="inline" fill-rule="evenodd" clip-rule="evenodd" fill="#FDCE4E" d="M43.738,27.086
			c0.096-0.094,0.188-0.188,0.281-0.282C43.927,26.898,43.834,26.993,43.738,27.086z"/>
		<path display="inline" fill-rule="evenodd" clip-rule="evenodd" fill="#FDCE4E" d="M43.466,27.359
			c0.093-0.094,0.189-0.187,0.282-0.282C43.655,27.171,43.559,27.265,43.466,27.359z"/>
		<path display="inline" fill-rule="evenodd" clip-rule="evenodd" fill="#FDCE4E" d="M43.193,27.632
			c0.096-0.094,0.188-0.187,0.281-0.282C43.381,27.445,43.289,27.538,43.193,27.632z"/>
		<path display="inline" fill-rule="evenodd" clip-rule="evenodd" fill="#FDCE4E" d="M42.92,27.904
			c0.095-0.093,0.189-0.187,0.283-0.281C43.109,27.717,43.015,27.811,42.92,27.904z"/>
		<path display="inline" fill-rule="evenodd" clip-rule="evenodd" fill="#FDCE4E" d="M42.648,28.177
			c0.093-0.093,0.186-0.188,0.282-0.281C42.834,27.99,42.741,28.084,42.648,28.177z"/>
		<path display="inline" fill-rule="evenodd" clip-rule="evenodd" fill="#FDCE4E" d="M42.377,28.451
			c0.092-0.095,0.186-0.188,0.281-0.283C42.563,28.262,42.469,28.356,42.377,28.451z"/>
		<path display="inline" fill-rule="evenodd" clip-rule="evenodd" fill="#FDCE4E" d="M42.103,28.723
			c0.093-0.095,0.188-0.188,0.282-0.282C42.29,28.536,42.195,28.628,42.103,28.723z"/>
		<path display="inline" fill-rule="evenodd" clip-rule="evenodd" fill="#FDCE4E" d="M41.829,28.996
			c0.095-0.094,0.188-0.188,0.283-0.282C42.018,28.808,41.924,28.901,41.829,28.996z"/>
		<path display="inline" fill-rule="evenodd" clip-rule="evenodd" fill="#FDCE4E" d="M41.557,29.268
			c0.095-0.093,0.188-0.188,0.282-0.282C41.744,29.08,41.651,29.175,41.557,29.268z"/>
		<path display="inline" fill-rule="evenodd" clip-rule="evenodd" fill="#FDCE4E" d="M41.285,29.541
			c0.093-0.094,0.189-0.187,0.282-0.282C41.475,29.353,41.378,29.447,41.285,29.541z"/>
		<path display="inline" fill-rule="evenodd" clip-rule="evenodd" fill="#FDCE4E" d="M41.012,29.814
			c0.094-0.095,0.188-0.188,0.281-0.282C41.2,29.626,41.105,29.719,41.012,29.814z"/>
		<path display="inline" fill-rule="evenodd" clip-rule="evenodd" fill="#FDCE4E" d="M12.391,58.456
			c-0.091,0.09-0.182,0.181-0.271,0.271l-0.008-0.005c0.094-0.092,0.184-0.181,0.273-0.273L12.391,58.456z"/>
		<path display="inline" fill-rule="evenodd" clip-rule="evenodd" fill="#F3810D" d="M12.385,58.449
			c-0.09,0.092-0.18,0.181-0.273,0.273c-0.089,0.091-0.182,0.182-0.271,0.272c-0.092,0.091-0.182,0.182-0.273,0.272
			c-0.195,0.015-0.391,0.03-0.589,0.045c1.614-3.194,3.208-6.399,4.851-9.581c1.059-2.052,2.211-4.057,3.285-6.104
			c3.342-6.388,6.666-12.786,10.002-19.179c0.963-1.849,1.938-3.693,2.908-5.539c0.628,0.891,1.351,1.732,1.866,2.685
			c1.462,2.698,2.825,5.448,4.253,8.164c0.271,0.512,0.66,0.962,0.992,1.44c-0.01,0.172-0.022,0.344-0.033,0.516
			c-0.09,0.091-0.182,0.183-0.271,0.274c-0.09,0.09-0.182,0.181-0.273,0.272c-0.09,0.091-0.18,0.182-0.271,0.272
			c-0.091,0.091-0.182,0.182-0.273,0.273c-0.091,0.091-0.182,0.181-0.271,0.272c-0.092,0.09-0.183,0.182-0.273,0.272
			c-0.092,0.09-0.182,0.182-0.273,0.272c-0.09,0.091-0.183,0.182-0.273,0.272c-0.09,0.091-0.18,0.182-0.272,0.273
			c-0.089,0.091-0.183,0.181-0.272,0.272s-0.18,0.183-0.272,0.272c-0.089,0.092-0.181,0.183-0.272,0.274
			c-0.09,0.09-0.18,0.181-0.271,0.272c-0.091,0.091-0.182,0.182-0.273,0.273c-0.089,0.09-0.18,0.182-0.271,0.272
			c-0.092,0.092-0.182,0.183-0.272,0.273s-0.182,0.182-0.273,0.273c-0.091,0.09-0.182,0.181-0.272,0.272s-0.183,0.182-0.273,0.273
			c-0.092,0.09-0.182,0.181-0.272,0.272c-0.09,0.091-0.181,0.182-0.271,0.273c-0.093,0.091-0.182,0.182-0.273,0.273
			c-0.089,0.09-0.181,0.182-0.272,0.272c-0.093,0.091-0.181,0.183-0.273,0.273c-0.089,0.091-0.18,0.182-0.271,0.273
			c-0.091,0.09-0.18,0.182-0.273,0.273c-0.09,0.091-0.18,0.182-0.272,0.272c-0.091,0.09-0.182,0.181-0.272,0.272
			c-0.09,0.092-0.182,0.182-0.271,0.273c-0.092,0.091-0.184,0.182-0.273,0.273c-0.09,0.091-0.182,0.181-0.272,0.272
			c-0.091,0.091-0.183,0.183-0.272,0.273c-0.092,0.09-0.182,0.182-0.273,0.273s-0.182,0.182-0.273,0.272
			c-0.091,0.091-0.18,0.182-0.271,0.273c-0.092,0.09-0.182,0.181-0.273,0.272c-0.091,0.091-0.182,0.182-0.271,0.272
			c-0.092,0.091-0.183,0.182-0.273,0.273c-0.092,0.091-0.18,0.183-0.271,0.273c-0.092,0.091-0.183,0.183-0.273,0.274
			c-0.092,0.091-0.18,0.181-0.272,0.273c-0.091,0.091-0.183,0.182-0.271,0.272c-0.091,0.092-0.181,0.183-0.272,0.274
			c-0.09,0.091-0.184,0.181-0.273,0.273c-0.09,0.091-0.18,0.182-0.271,0.273c-0.091,0.09-0.184,0.182-0.273,0.272
			c-0.091,0.091-0.18,0.182-0.273,0.272c-0.09,0.091-0.182,0.183-0.272,0.273c-0.091,0.091-0.182,0.182-0.272,0.273
			c-0.09,0.091-0.181,0.183-0.273,0.273c-0.089,0.091-0.182,0.182-0.271,0.273s-0.184,0.181-0.272,0.272
			c-0.092,0.09-0.183,0.182-0.271,0.273c-0.091,0.091-0.184,0.182-0.273,0.273c-0.091,0.091-0.183,0.182-0.272,0.272
			c-0.093,0.091-0.183,0.182-0.273,0.274c-0.091,0.09-0.182,0.181-0.271,0.272c-0.091,0.09-0.182,0.182-0.273,0.272
			c-0.09,0.091-0.183,0.182-0.272,0.272c-0.091,0.092-0.182,0.182-0.272,0.273c-0.09,0.091-0.182,0.182-0.273,0.273
			c-0.09,0.09-0.182,0.181-0.271,0.272c-0.09,0.092-0.182,0.183-0.274,0.273c-0.089,0.091-0.181,0.182-0.271,0.274
			c-0.089,0.09-0.182,0.181-0.272,0.272c-0.09,0.09-0.182,0.182-0.273,0.273c-0.089,0.091-0.182,0.181-0.271,0.273
			c-0.092,0.091-0.182,0.181-0.273,0.272c-0.092,0.09-0.182,0.182-0.271,0.272c-0.094,0.091-0.183,0.182-0.273,0.272
			c-0.092,0.091-0.182,0.182-0.271,0.274c-0.094,0.09-0.183,0.181-0.275,0.272c-0.09,0.09-0.182,0.181-0.272,0.272
			s-0.181,0.182-0.272,0.273c-0.088,0.091-0.182,0.182-0.272,0.273s-0.183,0.181-0.272,0.273c-0.091,0.09-0.181,0.182-0.271,0.272
			c-0.092,0.092-0.182,0.182-0.273,0.273c-0.091,0.091-0.182,0.182-0.271,0.272c-0.092,0.091-0.182,0.182-0.272,0.274
			c-0.093,0.09-0.182,0.182-0.272,0.272c-0.092,0.092-0.181,0.183-0.273,0.274c-0.091,0.09-0.182,0.182-0.271,0.272
			c-0.092,0.091-0.184,0.182-0.272,0.273c-0.093,0.091-0.183,0.182-0.273,0.272c-0.091,0.091-0.183,0.182-0.271,0.273
			c-0.091,0.091-0.183,0.182-0.274,0.273c-0.091,0.09-0.182,0.182-0.271,0.272c-0.093,0.091-0.182,0.182-0.274,0.273
			c-0.09,0.091-0.181,0.182-0.272,0.273c-0.09,0.091-0.181,0.181-0.272,0.272c-0.091,0.09-0.182,0.182-0.272,0.272
			c-0.091,0.091-0.181,0.182-0.271,0.273c-0.092,0.091-0.184,0.181-0.271,0.272c-0.092,0.092-0.186,0.182-0.274,0.273
			c-0.091,0.09-0.184,0.181-0.273,0.272c-0.091,0.091-0.181,0.182-0.272,0.272C12.568,58.268,12.477,58.358,12.385,58.449z"/>
	</g>
	<g>
		<polygon fill-rule="evenodd" clip-rule="evenodd" fill="#D9B92E" points="64.836,66.624 37.5,71.338 14.001,65.838 5.334,0 
			64.836,0 		"/>
		<g>
			<path fill-rule="evenodd" clip-rule="evenodd" fill="#D9B92E" d="M4.18,0c22.271,0,44.381,0,66.642,0
				c-0.251,2.978-0.487,5.916-0.747,8.851c-0.641,7.181-1.293,14.36-1.941,21.54c-0.819,9.081-1.641,18.16-2.459,27.241
				c-0.271,2.999-0.504,6.001-0.838,8.992c-0.046,0.4-0.52,0.972-0.904,1.081c-8.568,2.446-17.148,4.847-25.737,7.22
				c-0.491,0.136-1.093,0.068-1.599-0.072c-8.422-2.341-16.83-4.722-25.254-7.052c-0.814-0.225-1.025-0.618-1.094-1.403
				C9.255,54.991,8.233,43.586,7.205,32.183c-0.896-9.968-1.809-19.935-2.721-29.9C4.418,1.569,4.297,0.861,4.18,0z M34.838,14.938
				c-0.134-0.109-0.269-0.217-0.402-0.326c-1.832-0.018-3.664-0.036-5.496-0.054c-0.166,0.498-0.477,0.997-0.477,1.495
				c-0.03,11.012-0.027,22.023-0.029,33.036c-4.229-1.136-8.456-2.272-12.842-3.451c0,2.4,0.037,4.56-0.018,6.716
				c-0.021,0.787,0.259,1.116,0.998,1.313c3.77,1.009,7.528,2.061,11.29,3.102c2.315,0.643,4.63,1.293,7.021,1.961
				c0.028-0.45,0.063-0.742,0.063-1.033c0.002-13.919,0.002-27.839-0.002-41.759C34.945,15.604,34.875,15.271,34.838,14.938z
				 M64.802,5.793c-0.611,0-1.028,0-1.444,0c-8.066,0-16.133,0.029-24.199-0.028c-1.334-0.01-1.621,0.449-1.619,1.692
				c0.033,20.283,0.023,40.565,0.027,60.848c0,0.438,0.049,0.879,0.078,1.387c0.33-0.053,0.495-0.063,0.652-0.106
				c3.791-1.035,7.582-2.073,11.371-3.113c3.016-0.828,6.036-1.636,9.033-2.527c0.408-0.121,0.941-0.652,0.981-1.04
				c0.484-4.482,0.89-8.975,1.306-13.465c0.348-3.778,0.678-7.559,1.014-11.337c0.428-4.787,0.854-9.574,1.279-14.362
				c0.428-4.829,0.853-9.658,1.271-14.488C64.646,8.168,64.711,7.083,64.802,5.793z"/>
			<path fill-rule="evenodd" clip-rule="evenodd" fill="#FED73B" d="M64.802,5.793c-0.091,1.29-0.155,2.375-0.249,3.459
				c-0.419,4.83-0.844,9.66-1.271,14.488c-0.425,4.788-0.852,9.575-1.279,14.362c-0.336,3.778-0.666,7.559-1.014,11.337
				c-0.416,4.491-0.821,8.983-1.306,13.465c-0.04,0.388-0.573,0.919-0.981,1.04c-2.997,0.892-6.018,1.699-9.033,2.527
				c-3.789,1.041-7.58,2.078-11.371,3.113c-0.157,0.043-0.322,0.053-0.652,0.106c-0.029-0.508-0.078-0.948-0.078-1.387
				c-0.004-20.283,0.006-40.565-0.027-60.848c-0.002-1.243,0.285-1.702,1.619-1.692c8.066,0.057,16.133,0.028,24.199,0.028
				C63.773,5.793,64.19,5.793,64.802,5.793z M40.152,51.596c-0.1,0.262-0.285,0.524-0.287,0.788c-0.025,1.783-0.025,3.564,0,5.346
				c0.004,0.256,0.201,0.509,0.311,0.763c0.459-0.039,0.932-0.012,1.369-0.126c4.969-1.284,9.91-2.674,14.906-3.838
				c1.525-0.355,1.9-1.058,1.988-2.451c0.262-4.229,0.647-8.451,0.972-12.676c0.174-2.262,0.325-4.524,0.494-6.913
				c-4.46,0.538-8.762,1.057-13.087,1.58c0-4.023,0-7.854,0-11.796c4.668,0,9.24,0,13.947,0c0.229-2.611,0.447-5.125,0.671-7.699
				c-0.325-0.041-0.571-0.099-0.815-0.099c-6.537-0.004-13.073-0.007-19.609,0.003c-0.282,0-0.566,0.118-0.848,0.181
				c-0.105,0.43-0.299,0.859-0.302,1.289c-0.017,8.416-0.017,16.831,0,25.247c0.003,0.431,0.188,0.862,0.29,1.292
				c0.001,0.153,0.002,0.306,0.006,0.457c0.021,0.086,0.047,0.171,0.069,0.257c4.335-0.749,8.669-1.498,13.214-2.283
				c-0.099,1.902-0.247,3.704-0.259,5.505c-0.005,0.909-0.368,1.222-1.2,1.43c-3.611,0.912-7.215,1.875-10.805,2.875
				C40.786,50.838,40.49,51.298,40.152,51.596z"/>
			<path fill-rule="evenodd" clip-rule="evenodd" fill="#EBEAE7" d="M28.939,14.558c1.832,0.018,3.664,0.037,5.496,0.055
				c0.134,0.108,0.269,0.216,0.402,0.325c0.037,0.333,0.107,0.667,0.107,1c0.004,13.919,0.004,27.839,0.002,41.759
				c0,0.291-0.035,0.583-0.063,1.033c-2.392-0.667-4.706-1.318-7.021-1.961c-3.762-1.041-7.521-2.092-11.29-3.102
				c-0.739-0.197-1.019-0.526-0.998-1.313c0.055-2.156,0.018-4.315,0.018-6.716c4.386,1.178,8.613,2.315,12.842,3.451
				c0.154-0.386,0.432-0.769,0.439-1.158c0.044-2.156,0.019-4.314,0.021-6.471C28.908,32.492,28.924,23.525,28.939,14.558z"/>
			<path fill-rule="evenodd" clip-rule="evenodd" fill="#ECEFFA" d="M28.939,14.558c-0.016,8.967-0.031,17.934-0.045,26.902
				c-0.003,2.157,0.022,4.315-0.021,6.471c-0.008,0.389-0.285,0.772-0.439,1.158c0.002-11.012-0.001-22.024,0.029-33.036
				C28.463,15.555,28.773,15.056,28.939,14.558z"/>
			<path fill-rule="evenodd" clip-rule="evenodd" fill="#ECEFFA" d="M34.838,14.938c-0.134-0.108-0.269-0.216-0.402-0.325
				C34.569,14.721,34.704,14.829,34.838,14.938z"/>
			<path fill-rule="evenodd" clip-rule="evenodd" fill="#FEFDFB" d="M40.158,42.944c-0.004-0.151-0.005-0.304-0.006-0.457
				c0.002-9.275,0.007-18.552,0.012-27.828c0.281-0.063,0.565-0.181,0.848-0.181c6.536-0.01,13.072-0.008,19.609-0.003
				c0.244,0,0.49,0.058,0.815,0.099c-0.224,2.573-0.442,5.088-0.671,7.699c-4.707,0-9.279,0-13.947,0c0,3.941,0,7.773,0,11.796
				c4.325-0.523,8.627-1.042,13.087-1.58c-0.169,2.388-0.32,4.651-0.494,6.913c-0.324,4.225-0.71,8.447-0.972,12.676
				c-0.088,1.394-0.463,2.096-1.988,2.451c-4.996,1.164-9.938,2.554-14.906,3.838c-0.438,0.114-0.91,0.087-1.369,0.126
				c-0.008-2.299-0.014-4.598-0.023-6.896c0.338-0.298,0.634-0.757,1.025-0.867c3.59-0.999,7.193-1.962,10.805-2.875
				c0.832-0.208,1.195-0.521,1.2-1.43c0.012-1.802,0.16-3.604,0.259-5.505c-4.545,0.785-8.879,1.534-13.214,2.283
				C40.205,43.115,40.18,43.03,40.158,42.944z"/>
			<path fill-rule="evenodd" clip-rule="evenodd" fill="#FED325" d="M40.164,14.659c-0.005,9.276-0.01,18.553-0.012,27.828
				c-0.102-0.43-0.287-0.861-0.29-1.292c-0.017-8.416-0.017-16.831,0-25.247C39.865,15.519,40.059,15.089,40.164,14.659z"/>
			<path fill-rule="evenodd" clip-rule="evenodd" fill="#FED325" d="M40.152,51.596c0.01,2.298,0.016,4.597,0.023,6.896
				c-0.109-0.254-0.307-0.507-0.311-0.763c-0.025-1.781-0.025-3.563,0-5.346C39.867,52.12,40.053,51.858,40.152,51.596z"/>
			<path fill-rule="evenodd" clip-rule="evenodd" fill="#FED325" d="M40.158,42.944c0.021,0.086,0.047,0.171,0.069,0.257
				C40.205,43.115,40.18,43.03,40.158,42.944z"/>
		</g>
	</g>
	<g display="none">
		
			<rect x="2.616" y="7.118" display="inline" fill-rule="evenodd" clip-rule="evenodd" fill="#FFFFFF" width="68.667" height="58.946"/>
		<path display="inline" fill-rule="evenodd" clip-rule="evenodd" fill="#D46FA3" d="M0,56.5c0-0.599,0-1.198,0-1.797
			c0-0.603,0-1.205,0-1.808c0-0.599,0-1.198,0-1.798c0-0.603,0-1.205,0-1.808c0-0.599,0-1.198,0-1.797c0-0.603,0-1.205,0-1.808
			c0-0.599,0-1.198,0-1.797c0-0.603,0-1.205,0-1.808c0-0.6,0-1.199,0-1.798c0-0.602,0-1.205,0-1.808c0-0.599,0-1.199,0-1.797
			c0-0.603,0-1.206,0-1.808c0-0.6,0-1.199,0-1.798c0-0.603,0-1.205,0-1.808c0-0.599,0-1.198,0-1.798c0-0.602,0-1.205,0-1.808
			c0-0.599,0-1.198,0-1.797c0-0.603,0-1.205,0-1.808c0-0.599,0-1.199,0-1.798c0-0.603,0-1.205,0-1.808c0-0.599,0-1.198,0-1.797
			c0-0.603,0-1.205,0-1.808c0-0.599,0-1.198,0-1.798c0-0.603,0-1.205,0-1.808c0-0.599,0-1.198,0-1.797c0-0.603,0-1.206,0-1.808
			c0-0.599,0-1.198,0-1.797c0.004-0.291,0.008-0.581,0.012-0.872c0.074-0.401,0.149-0.802,0.224-1.204
			c0.163-0.506,0.325-1.012,0.489-1.519c0,0-0.002-0.002-0.002-0.003C0.83,4.052,0.939,3.866,1.047,3.681
			c0.045-0.08,0.09-0.159,0.135-0.239C1.258,3.34,1.333,3.239,1.408,3.138c0.016-0.022,0.025-0.046,0.031-0.073
			C1.596,2.857,1.754,2.65,1.912,2.443C1.961,2.404,2.01,2.364,2.06,2.324c0.153-0.145,0.31-0.291,0.462-0.436
			C2.759,1.702,2.994,1.516,3.229,1.33c0.353-0.185,0.701-0.375,1.056-0.554C4.57,0.631,4.861,0.499,5.15,0.361
			C5.354,0.32,5.556,0.278,5.758,0.237c0.461-0.076,0.92-0.152,1.379-0.228C7.639,0.007,8.143,0.003,8.645,0c0.6,0,1.199,0,1.799,0
			c0.602,0,1.205,0,1.807,0c0.6,0,1.199,0,1.799,0c0.602,0,1.205,0,1.807,0c0.6,0,1.197,0,1.799,0c0.631,0,1.265,0,1.896,0
			c0.6,0,1.199,0,1.798,0c0.603,0,1.206,0,1.808,0c0.6,0,1.199,0,1.798,0c0.603,0,1.205,0,1.808,0c0.599,0,1.199,0,1.797,0
			c0.603,0,1.205,0,1.808,0c0.599,0,1.198,0,1.798,0c0.603,0,1.205,0,1.808,0c0.599,0,1.198,0,1.798,0c0.633,0,1.266,0,1.897,0
			c0.599,0,1.198,0,1.798,0c0.603,0,1.205,0,1.808,0c0.599,0,1.198,0,1.798,0c0.603,0,1.205,0,1.808,0c0.599,0,1.198,0,1.798,0
			c0.602,0,1.205,0,1.807,0c0.6,0,1.199,0,1.799,0c0.603,0,1.204,0,1.808,0c0.599,0,1.198,0,1.796,0c0.693,0,1.387,0,2.079,0
			c0.599,0,1.198,0,1.798,0c0.603,0,1.205,0,1.808,0c0.599,0,1.198,0,1.798,0c0.603,0,1.205,0,1.808,0c0.599,0,1.197,0,1.798,0
			c0.603,0,1.205,0,1.808,0.001c0.499,0.001,0.999,0.002,1.499,0.003c0.372,0.076,0.744,0.152,1.117,0.229
			c0.327,0.081,0.654,0.162,0.98,0.242c0.115,0.051,0.23,0.101,0.346,0.151c0.484,0.281,0.969,0.563,1.453,0.844
			c0.354,0.32,0.709,0.641,1.063,0.96c0.338,0.461,0.674,0.922,1.012,1.383c0.059,0.138,0.117,0.276,0.178,0.414
			c0.209,0.602,0.418,1.204,0.626,1.806c0.032,2.896,0.087,5.791,0.095,8.686c0.013,5.375-0.003,10.75-0.004,16.124
			c-0.001,5.855-0.001,11.71,0,17.565c0.001,6.426,0.007,12.852,0.004,19.277c0,0.478-0.061,0.957-0.093,1.434
			c-0.002,0.046-0.005,0.091-0.007,0.137c-0.037,0.076-0.074,0.152-0.111,0.228c-0.012,0.061-0.023,0.122-0.037,0.184
			c-0.029,0.088-0.057,0.177-0.086,0.266c-0.123,0.33-0.247,0.661-0.371,0.991c-0.091,0.181-0.184,0.361-0.273,0.542
			c-0.277,0.383-0.554,0.767-0.831,1.15c-0.386,0.362-0.772,0.725-1.157,1.088c-0.477,0.276-0.955,0.551-1.432,0.827
			c-0.123,0.055-0.246,0.109-0.37,0.164c-0.206,0.052-0.414,0.103-0.62,0.154c-0.061,0.021-0.121,0.042-0.182,0.063
			c-0.061,0.011-0.121,0.021-0.18,0.032c-0.074,0.034-0.148,0.068-0.223,0.103c-0.2,0.031-0.402,0.062-0.602,0.093
			c-0.6,0.008-1.198,0.016-1.797,0.023c-0.602,0-1.202,0-1.803,0s-1.201,0-1.803,0s-1.201,0-1.802,0s-1.202,0-1.804,0
			s-1.201,0-1.802,0s-1.202,0-1.804,0c-0.691,0-1.381,0-2.072,0c-0.602,0-1.203,0-1.805,0c-0.599,0-1.2,0-1.801,0
			c-0.6,0-1.201,0-1.803,0c-0.601,0-1.201,0-1.801,0c-0.602,0-1.203,0-1.805,0c-0.601,0-1.201,0-1.801,0c-0.602,0-1.203,0-1.805,0
			c-0.601,0-1.201,0-1.801,0c-0.602,0-1.203,0-1.804,0c-0.632,0-1.263,0-1.892,0c-0.602,0-1.203,0-1.805,0c-0.601,0-1.201,0-1.801,0
			c-0.602,0-1.203,0-1.805,0c-0.6,0-1.201,0-1.801,0c-0.602,0-1.202,0-1.804,0c-0.601,0-1.202,0-1.802,0c-0.602,0-1.202,0-1.804,0
			c-0.601,0-1.2,0-1.802,0s-1.202,0-1.804,0c-0.63,0-1.261,0-1.892,0c-0.601,0-1.202,0-1.804,0c-0.601,0-1.2,0-1.802,0
			c-0.601,0-1.202,0-1.804,0c-0.601,0-1.2,0-1.802,0c-0.601,0-1.202,0-1.804,0c-0.601-0.006-1.2-0.012-1.8-0.019
			c-0.291-0.029-0.582-0.058-0.872-0.087c-0.071-0.04-0.142-0.079-0.212-0.118c-0.063-0.009-0.127-0.018-0.189-0.026
			c-0.086-0.028-0.174-0.057-0.262-0.085c-0.086-0.019-0.171-0.036-0.256-0.054c-0.086-0.027-0.172-0.055-0.257-0.083
			c-0.519-0.265-1.038-0.531-1.558-0.796c-1.064-0.802-1.907-1.79-2.52-2.974c-0.194-0.838-0.389-1.676-0.588-2.513
			c-0.011-0.05-0.072-0.089-0.109-0.133c-0.006-0.32-0.014-0.64-0.02-0.96c0-0.6,0-1.198,0-1.797c0-0.603,0-1.205,0-1.808
			c0-0.599,0-1.198,0-1.797c0-0.603,0-1.205,0-1.808c0-0.599,0-1.199,0-1.798C0,57.705,0,57.102,0,56.5z M18.24,46.775
			c-0.282,0.169-0.441,0.274-0.609,0.364c-0.83,0.446-1.688,0.849-2.49,1.34c-1.648,1.009-3.261,2.062-4.71,3.362
			c-1.622,1.455-2.774,3.137-3.007,5.35c-0.147,1.425,0.149,2.754,1.029,3.904c0.598,0.783,1.455,1.108,2.419,1.212
			c1.619,0.175,3.206,0.072,4.737-0.517c1.78-0.685,3.29-1.754,4.531-3.209c1.531-1.796,2.364-3.881,2.544-6.216
			c0.136-1.763,0.034-3.511-0.804-5.173c1.195-0.682,2.362-1.349,3.646-2.082c-0.054,0.264-0.065,0.379-0.101,0.486
			c-0.437,1.381-0.69,2.807-0.695,4.244c-0.001,0.959,0.221,1.925,0.396,2.877c0.189,1.016,0.643,1.932,1.266,2.752
			c0.393,0.517,0.899,0.824,1.594,0.876c1.053,0.079,1.828-0.345,2.333-1.212c0.571-0.981,1.063-2.009,1.574-3.025
			c0.224-0.445,0.406-0.91,0.608-1.365c0.104,0.142,0.115,0.266,0.115,0.391c0,0.583-0.067,1.174,0.013,1.746
			c0.087,0.612,0.247,1.232,0.489,1.8c0.283,0.666,1.072,0.947,1.748,0.685c0.816-0.317,1.393-0.941,1.83-1.664
			c0.635-1.047,1.254-2.109,1.796-3.207c1.17-2.378,2.293-4.78,3.423-7.179c0.313-0.667,0.58-1.354,0.918-2.147
			c0.225,0.868,0.365,1.623,0.622,2.335c0.333,0.924,0.756,1.815,1.147,2.718c0.117,0.271,0.316,0.514,0.063,0.826
			c-0.826,1.026-1.645,2.06-2.461,3.094c-0.66,0.833-1.369,1.634-1.955,2.518c-0.586,0.884-0.186,1.65,0.859,1.835
			c0.133,0.023,0.27,0.023,0.405,0.024c1.784,0.025,3.399-0.548,4.863-1.513c0.978-0.646,1.702-1.519,2.038-2.703
			c0.384-1.348,0.139-2.616-0.35-3.86c-0.172-0.438-0.212-0.778,0.113-1.146c0.195-0.222,0.352-0.485,0.5-0.744
			c0.977-1.703,1.945-3.41,2.918-5.114c0.033-0.056,0.092-0.098,0.154-0.165c0.052,0.085,0.1,0.131,0.109,0.185
			c0.295,1.634,0.803,3.192,1.596,4.657c0.054,0.101-0.027,0.344-0.123,0.447c-0.544,0.578-1.148,1.102-1.662,1.705
			c-0.921,1.083-1.634,2.284-1.896,3.716c-0.302,1.639,0.622,2.709,2.092,2.324c1.791-0.469,3.375-1.327,4.588-2.769
			c0.709-0.841,1.17-1.791,1.03-2.925c-0.077-0.62-0.199-1.242-0.377-1.841c-0.109-0.375-0.019-0.522,0.327-0.608
			c0.581-0.146,1.15-0.348,1.736-0.457c2.115-0.387,4.217-0.275,6.275,0.325c1.627,0.474,3.032,1.314,3.938,2.806
			c0.903,1.484,0.988,3.197-0.481,4.528c-0.31,0.28-0.677,0.493-0.997,0.761c-0.098,0.081-0.209,0.299-0.171,0.355
			c0.077,0.111,0.247,0.176,0.392,0.216c0.09,0.025,0.205-0.022,0.303-0.053c1.968-0.607,3.33-2.869,2.976-4.89
			c-0.513-2.926-2.347-4.716-4.997-5.757c-2.35-0.923-4.783-0.929-7.214-0.376c-0.999,0.228-1.961,0.62-2.989,0.953
			c-0.154-0.282-0.33-0.608-0.509-0.933c-0.78-1.417-1.163-2.927-0.91-4.54c0.122-0.792,0.353-1.575,0.599-2.341
			c0.262-0.822,0.087-1.181-0.768-1.242c-0.58-0.042-1.168-0.047-1.744,0.01c-1.242,0.124-1.418,0.352-1.697,1.36
			c-0.28,1.004-0.568,2.024-1.012,2.962c-0.68,1.434-1.486,2.807-2.256,4.197c-0.313,0.566-0.673,1.107-1.043,1.711
			c-0.166-0.314-0.291-0.549-0.415-0.783c-0.571-1.068-0.724-2.247-0.632-3.406c0.078-1.016,0.414-2.015,0.676-3.012
			c0.168-0.637,0.066-0.973-0.582-1.023c-0.842-0.066-1.699-0.02-2.541,0.068c-0.706,0.074-0.84,0.311-1.018,0.997
			c-0.184,0.709-0.388,1.421-0.67,2.096c-0.653,1.56-1.346,3.103-2.045,4.643c-1.064,2.346-2.146,4.684-3.229,7.021
			c-0.173,0.373-0.394,0.724-0.594,1.084c-0.06-0.01-0.12-0.02-0.182-0.03c-0.003-0.397-0.083-0.812,0.002-1.188
			c0.521-2.307,1.07-4.608,1.636-6.905c0.158-0.638,0.137-0.968-0.238-1.27c-0.427-0.344-1.073-0.417-1.525-0.176
			c-0.094,0.05-0.193,0.086-0.306,0.135c0-0.771,0.079-1.495-0.016-2.194c-0.234-1.735-1.423-2.169-2.877-1.802
			c-1.806,0.458-3.168,1.632-4.384,2.993c-0.316,0.353-0.611,0.763-1.005,0.998c-1.325,0.788-2.689,1.509-4.04,2.253
			c-0.723,0.397-1.447,0.788-2.188,1.19c-0.245-0.232-0.46-0.462-0.701-0.659c-1.807-1.48-3.621-2.953-5.432-4.429
			c-1.256-1.025-2.449-2.11-3.32-3.504c-0.918-1.471-1.201-3.053-0.824-4.742c0.529-2.364,1.938-4.187,3.646-5.811
			c1.745-1.66,3.723-3.009,5.792-4.227c2.16-1.271,4.383-2.423,6.723-3.321c2.219-0.85,4.494-1.483,6.864-1.765
			c2.378-0.284,4.73-0.279,7.014,0.541c0.966,0.347,1.881,0.843,2.408,1.78c0.765,1.357,0.646,2.794,0.122,4.177
			c-1.141,3.021-3.366,5.13-6.027,6.811c-1.523,0.962-3.167,1.688-4.91,2.189c-2.191,0.63-4.397,1.072-6.689,0.774
			c-1.555-0.203-2.965-0.718-4.073-1.897c-0.135-0.144-0.442-0.277-0.594-0.217c-0.286,0.111-0.21,0.41-0.126,0.667
			c0.459,1.407,1.561,2.202,2.778,2.854c1.383,0.738,2.899,0.909,4.444,0.937c2.22,0.041,4.391-0.254,6.527-0.851
			c1.813-0.506,3.574-1.137,5.168-2.146c1.939-1.229,3.619-2.743,4.961-4.631c1.609-2.262,2.619-4.705,2.496-7.527
			c-0.076-1.777-0.707-3.32-2.009-4.565c-1.575-1.505-3.526-2.265-5.603-2.688c-2.018-0.412-4.07-0.523-6.133-0.313
			c-2.155,0.219-4.27,0.621-6.314,1.343c-1.073,0.378-2.139,0.778-3.193,1.206c-2.182,0.883-4.29,1.925-6.326,3.106
			c-2.457,1.425-4.768,3.053-6.813,5.031C8.527,25.52,6.83,27.69,5.787,30.354c-0.895,2.284-0.559,4.37,0.672,6.392
			c1.045,1.714,2.443,3.125,4,4.349c1.813,1.423,3.729,2.713,5.596,4.066C16.754,45.668,17.445,46.188,18.24,46.775z"/>
		<path display="inline" fill-rule="evenodd" clip-rule="evenodd" fill="#D470A4" d="M19.818,48.168
			c0.332,1.28,0.458,2.48,0.238,3.716c-0.367,2.083-1.427,3.767-3.007,5.113c-1.095,0.933-2.358,1.603-3.845,1.659
			c-1.131,0.042-1.68-0.53-1.689-1.666c-0.014-1.426,0.604-2.609,1.458-3.683c1.075-1.353,2.478-2.338,3.887-3.302
			c0.815-0.558,1.669-1.06,2.505-1.583C19.49,48.344,19.622,48.277,19.818,48.168z"/>
		<path display="inline" fill-rule="evenodd" clip-rule="evenodd" fill="#D572A5" d="M28.11,49.709
			c0.038-2.313,0.604-4.334,1.697-6.216c0.567-0.976,1.135-1.944,2.112-2.574c0.25-0.161,0.52-0.302,0.799-0.404
			c0.506-0.187,0.867,0.078,0.771,0.605c-0.14,0.765-0.299,1.535-0.555,2.267c-0.729,2.076-1.488,4.142-2.284,6.193
			c-0.302,0.777-0.731,1.505-1.116,2.249c-0.067,0.129-0.188,0.234-0.297,0.335c-0.258,0.236-0.469,0.207-0.651-0.108
			C28.143,51.28,28.179,50.416,28.11,49.709z"/>
		<path display="inline" fill-rule="evenodd" clip-rule="evenodd" fill="#D674A7" d="M52.063,50.243
			c-0.397-0.833,1.158-3.73,2.419-4.546C55.163,46.812,54.635,49.421,52.063,50.243z"/>
		<path display="inline" fill-rule="evenodd" clip-rule="evenodd" fill="#D77AAA" d="M42.527,52.4
			c1.096-1.281,2.145-2.511,3.205-3.752C46.17,49.768,43.926,52.424,42.527,52.4z"/>
	</g>
</g>
</svg>
