<?xml version="1.0" encoding="utf-8"?>
<!-- Generator: Adobe Illustrator 16.0.0, SVG Export Plug-In . SVG Version: 6.00 Build 0)  -->
<!DOCTYPE svg PUBLIC "-//W3C//DTD SVG 1.0//EN" "http://www.w3.org/TR/2001/REC-SVG-20010904/DTD/svg10.dtd">
<svg version="1.0" id="Layer_1" xmlns="http://www.w3.org/2000/svg" xmlns:xlink="http://www.w3.org/1999/xlink" x="0px" y="0px"
	 width="75px" height="75px" viewBox="0 0 75 75" enable-background="new 0 0 75 75" xml:space="preserve">
<path fill="#764ABC" d="M75,65c0,5.523-4.477,10-10,10H10C4.477,75,0,70.523,0,65V10C0,4.477,4.477,0,10,0h55
	c5.523,0,10,4.477,10,10V65z"/>
<path fill="#FFFFFF" d="M36.234,9.229c0.508,0,1.019,0,1.528,0c0.048,0,0.095,0.001,0.144,0.002c0.1,0.009,0.198,0.019,0.297,0.029
	c1.699,0.163,3.307,0.647,4.826,1.426c1.67,0.856,3.121,2,4.381,3.388c1.759,1.936,3.011,4.17,3.892,6.622
	c0.521,1.447,0.896,2.932,1.138,4.449c0.06,0.371,0.1,0.744,0.145,1.116c0.061,0.492,0.116,0.985,0.174,1.479
	c0.004,0.03,0,0.06,0.001,0.09c-0.032,0.002-0.067,0.003-0.104,0.004c-1.021-0.351-2.047-0.676-3.09-0.959
	c-0.203-0.055-0.406-0.108-0.619-0.164c-0.022-0.209-0.047-0.413-0.069-0.617c-0.116-0.99-0.343-1.957-0.628-2.909
	c-0.521-1.739-1.242-3.391-2.205-4.933c-0.611-0.98-1.316-1.889-2.152-2.692c-1.01-0.97-2.15-1.731-3.476-2.207
	c-0.603-0.215-1.222-0.358-1.854-0.439c-0.189-0.024-0.385-0.033-0.576-0.048c-0.034-0.01-0.066-0.027-0.101-0.027
	c-0.263-0.003-0.525-0.003-0.788-0.001c-0.033,0-0.068,0.018-0.102,0.027c-0.059,0.003-0.117,0.005-0.176,0.007
	c-0.087,0.009-0.175,0.018-0.261,0.027c-1.146,0.11-2.259,0.366-3.347,0.74c-1.402,0.482-2.711,1.145-3.884,2.064
	c-0.718,0.562-1.317,1.232-1.86,1.96c-1.69,2.271-2.832,4.792-3.467,7.547c-0.225,0.969-0.381,1.949-0.48,2.939
	c-0.138,1.348-0.176,2.7-0.127,4.052c0.154,4.349,1.253,8.445,3.299,12.288c0.199,0.375,0.413,0.741,0.621,1.11
	c0.026,0.047,0.057,0.092,0.086,0.14c0.121-0.015,0.234-0.024,0.349-0.036c0.233,0,0.466,0,0.698,0
	c0.928,0.083,1.748,0.423,2.443,1.042c0.825,0.729,1.297,1.646,1.421,2.745c0.235,2.074-1.142,4.154-3.399,4.615
	c-0.117,0.023-0.237,0.033-0.357,0.05c-0.122,0.01-0.245,0.019-0.367,0.028c-0.061,0-0.118,0-0.178,0
	c-0.135-0.011-0.27-0.021-0.404-0.031c-0.754-0.076-1.436-0.346-2.04-0.799c-0.976-0.73-1.55-1.709-1.696-2.92
	c-0.105-0.875,0.045-1.718,0.475-2.496c0.069-0.127,0.071-0.22-0.003-0.347c-1.249-2.151-2.276-4.403-3.058-6.766
	c-0.514-1.556-0.918-3.14-1.184-4.757c-0.055-0.333-0.127-0.664-0.17-0.998c-0.059-0.462-0.104-0.927-0.142-1.392
	c-0.087-1.053-0.136-2.107-0.106-3.163c0.025-0.927,0.088-1.852,0.198-2.774c0.302-2.548,0.941-5.009,1.902-7.384
	c1.06-2.619,2.608-4.91,4.684-6.833c1.87-1.733,4.012-3.002,6.464-3.729c0.814-0.242,1.645-0.415,2.49-0.501
	C35.689,9.27,35.961,9.252,36.234,9.229z"/>
<path fill="#FFFFFF" d="M48.832,40.389c1.643,0.152,2.866,0.95,3.57,2.441c1.189,2.525-0.324,5.38-2.938,5.945
	c-0.135,0.029-0.271,0.053-0.416,0.082c-0.11,0.218-0.221,0.438-0.336,0.66c-1.256,2.426-2.795,4.655-4.647,6.666
	c-2.731,2.961-5.947,5.246-9.626,6.883c-2.088,0.932-4.254,1.617-6.491,2.093c-0.723,0.153-1.45,0.288-2.183,0.381
	c-0.295,0.038-0.592,0.058-0.887,0.086c-0.135,0.01-0.271,0.021-0.406,0.031c-0.059,0.001-0.118,0.002-0.178,0.003
	c-0.186,0-0.371-0.002-0.559,0.001c-0.057,0.001-0.115,0.019-0.172,0.028c-0.205,0-0.411,0-0.616,0
	c-0.028-0.01-0.056-0.026-0.083-0.027c-0.215-0.003-0.432-0.002-0.648-0.002c-0.071-0.002-0.142-0.004-0.213-0.005
	c-0.123-0.011-0.246-0.021-0.369-0.03c-0.035-0.002-0.07-0.004-0.105-0.006c-0.099-0.01-0.196-0.021-0.295-0.031
	c-0.4-0.003-0.79-0.093-1.181-0.156c-1.417-0.231-2.79-0.623-4.11-1.19c-1.784-0.771-3.384-1.815-4.725-3.235
	c-1.078-1.14-1.863-2.462-2.432-3.917c-0.449-1.149-0.748-2.341-0.921-3.563c-0.153-1.08-0.176-2.162-0.128-3.25
	c0.02-0.398,0.045-0.799,0.105-1.194c0.206-1.356,0.532-2.685,1.038-3.963c0.771-1.953,1.856-3.716,3.21-5.318
	c1.271-1.505,2.725-2.813,4.311-3.977c0.029-0.021,0.06-0.042,0.09-0.061c0.01-0.005,0.022-0.005,0.047-0.01
	c0.287,1.294,0.602,2.583,1.01,3.846c-0.268,0.221-0.534,0.43-0.789,0.653c-1.924,1.687-3.51,3.636-4.6,5.965
	c-0.515,1.101-0.873,2.249-1.035,3.453c-0.276,2.054,0.025,4.024,0.881,5.91c0.425,0.938,0.945,1.819,1.598,2.616
	c1.052,1.287,2.369,2.214,3.898,2.845c0.969,0.399,1.975,0.662,3.012,0.804c0.289,0.04,0.578,0.071,0.865,0.106
	c0.112,0.01,0.223,0.021,0.334,0.032c0.047,0.002,0.094,0.002,0.14,0.004c0.136,0.011,0.271,0.021,0.406,0.029
	c0.083,0.004,0.166,0.006,0.249,0.01c0.041,0.01,0.08,0.026,0.12,0.026c0.419,0.003,0.838,0.003,1.257,0
	c0.039,0,0.08-0.019,0.12-0.028c0.071-0.002,0.142-0.004,0.214-0.008c0.146-0.011,0.295-0.021,0.44-0.029
	c0.048-0.002,0.095-0.004,0.142-0.008c0.098-0.01,0.197-0.021,0.296-0.028c0.335-0.039,0.671-0.069,1.004-0.119
	c1.358-0.202,2.683-0.537,3.978-0.997c1.313-0.465,2.564-1.059,3.783-1.729c1.458-0.801,2.867-1.68,4.203-2.672
	c2.416-1.803,4.484-3.929,6.129-6.461c0.463-0.713,0.888-1.447,1.275-2.201c0.025-0.047,0.047-0.1,0.07-0.153
	c-0.077-0.089-0.154-0.175-0.229-0.263c-0.735-0.888-1.074-1.908-0.985-3.055c0.147-1.941,1.585-3.52,3.511-3.859
	c0.146-0.026,0.298-0.035,0.448-0.051C48.465,40.389,48.648,40.389,48.832,40.389z"/>
<path fill="#FFFFFF" d="M50.609,65.773c-0.129-0.002-0.26-0.006-0.389-0.01c-0.148-0.011-0.299-0.02-0.447-0.029
	c-0.045-0.002-0.092-0.004-0.141-0.006c-0.109-0.011-0.222-0.021-0.332-0.03c-0.033-0.003-0.068-0.005-0.104-0.009
	c-0.075-0.008-0.15-0.019-0.225-0.026c-0.396-0.054-0.793-0.099-1.187-0.164c-2.123-0.356-4.149-1.019-6.104-1.912
	c-0.064-0.03-0.133-0.06-0.197-0.092c-0.016-0.009-0.028-0.021-0.064-0.045c1.157-0.892,2.32-1.761,3.391-2.728
	c0.476,0.183,0.936,0.368,1.401,0.534c1.134,0.401,2.3,0.685,3.485,0.866c0.313,0.049,0.633,0.079,0.947,0.116
	c0.102,0.01,0.197,0.021,0.297,0.03c0.049,0,0.096,0.004,0.142,0.004c0.138,0.012,0.271,0.021,0.405,0.029
	c0.035,0.002,0.068,0.006,0.105,0.008c0.037,0.013,0.076,0.031,0.115,0.031c0.335,0.004,0.671,0.004,1.006,0
	c0.039,0,0.078-0.02,0.117-0.029c0.035-0.004,0.07-0.006,0.105-0.008c0.146-0.011,0.293-0.021,0.438-0.031
	c0.035-0.002,0.071-0.004,0.104-0.006c0.099-0.01,0.195-0.021,0.295-0.029c2.271-0.247,4.322-1.023,6.068-2.521
	c1.58-1.354,2.717-3.023,3.41-4.988c0.258-0.729,0.398-1.483,0.461-2.256c0.141-1.742-0.169-3.418-0.779-5.043
	c-0.775-2.063-1.877-3.937-3.289-5.627c-1.364-1.639-2.951-3.029-4.719-4.22c-2.064-1.393-4.266-2.523-6.613-3.361
	c-1.498-0.535-3.029-0.939-4.6-1.211c-0.381-0.066-0.767-0.105-1.15-0.156c-0.389-0.05-0.775-0.099-1.166-0.148
	c-0.121-0.011-0.242-0.022-0.365-0.033c-0.021-0.001-0.049-0.003-0.07-0.004c-0.123-0.01-0.245-0.02-0.367-0.03
	c-0.06-0.002-0.117-0.004-0.179-0.006c-0.206-0.011-0.415-0.021-0.623-0.032c-0.069-0.002-0.144-0.004-0.214-0.006
	c-0.034-0.009-0.066-0.027-0.104-0.027c-0.328-0.002-0.658-0.002-0.984-0.001c-0.041,0-0.079,0.019-0.119,0.029
	c-0.071,0.002-0.145,0.004-0.215,0.006c-0.219,0.01-0.439,0.02-0.659,0.03c-0.065,0.003-0.132,0.007-0.166,0.009
	c-0.206,0.327-0.377,0.65-0.597,0.935c-0.711,0.917-1.648,1.453-2.802,1.61c-0.085,0.01-0.172,0.02-0.259,0.029
	c-0.191,0-0.384,0.001-0.576,0.001c-0.086-0.01-0.174-0.02-0.26-0.03c-1.731-0.279-2.923-1.238-3.484-2.895
	c-0.807-2.378,0.66-4.92,3.113-5.467c0.229-0.051,0.465-0.064,0.699-0.095c0.146,0,0.293,0,0.441,0
	c1.517,0.115,2.663,0.833,3.445,2.134c0.057,0.094,0.111,0.15,0.226,0.131c0.036-0.007,0.073-0.003,0.11-0.004
	c0.451,0,0.904,0.002,1.357,0.002c0.254,0,0.506-0.002,0.76-0.003c0.071,0.002,0.145,0.004,0.215,0.005
	c0.221,0.011,0.439,0.022,0.66,0.032c0.061,0.002,0.117,0.003,0.178,0.004c0.135,0.01,0.271,0.02,0.404,0.029
	c0.219,0.015,0.434,0.03,0.646,0.044c0.089,0.01,0.176,0.019,0.263,0.029c0.396,0.05,0.792,0.1,1.188,0.151
	c0.474,0.062,0.948,0.113,1.422,0.193c1.1,0.185,2.188,0.429,3.262,0.729c3.268,0.913,6.313,2.305,9.105,4.238
	c2.07,1.434,3.916,3.119,5.557,5.031c1.182,1.379,2.201,2.864,3.004,4.496c0.757,1.536,1.299,3.146,1.605,4.832
	c0.121,0.662,0.213,1.329,0.232,2.002c0.02,0.504,0.043,1.008,0.021,1.51c-0.072,1.932-0.463,3.787-1.377,5.509
	c-0.664,1.249-1.545,2.335-2.565,3.306c-1.238,1.173-2.634,2.121-4.167,2.864c-1.453,0.704-2.977,1.2-4.564,1.479
	c-0.514,0.09-1.031,0.146-1.549,0.219c-0.109,0.012-0.221,0.021-0.332,0.033c-0.033,0.002-0.066,0.004-0.104,0.004
	c-0.131,0.004-0.264,0.006-0.396,0.011c-0.207,0.01-0.416,0.019-0.623,0.028C51.268,65.773,50.938,65.773,50.609,65.773z"/>
</svg>
