<?xml version="1.0" encoding="utf-8"?>
<!-- Generator: Adobe Illustrator 16.0.0, SVG Export Plug-In . SVG Version: 6.00 Build 0)  -->
<!DOCTYPE svg PUBLIC "-//W3C//DTD SVG 1.0//EN" "http://www.w3.org/TR/2001/REC-SVG-20010904/DTD/svg10.dtd">
<svg version="1.0" id="Layer_1" xmlns="http://www.w3.org/2000/svg" xmlns:xlink="http://www.w3.org/1999/xlink" x="0px" y="0px"
	 width="75px" height="75px" viewBox="0 0 75 75" enable-background="new 0 0 75 75" xml:space="preserve">
<g id="home_x5F_icons">
	<g display="none">
		<polygon display="inline" fill="#264DE3" points="64.736,67.375 37.531,73.25 10.25,67.375 10.25,1.875 64.736,1.875 		"/>
		<g display="inline">
			<path fill="#264DE3" d="M4.421,0.285c0-0.091,0-0.184,0-0.276C4.513,0.006,4.604,0,4.695,0c21.861,0,43.721,0,65.581,0
				c0.101,0,0.197,0,0.301,0c0,0.104,0.006,0.177-0.001,0.249c-0.229,2.572-0.468,5.143-0.695,7.715
				c-0.229,2.572-0.45,5.146-0.681,7.718c-0.25,2.782-0.506,5.564-0.754,8.347c-0.213,2.38-0.416,4.761-0.629,7.141
				c-0.268,2.975-0.539,5.948-0.805,8.923c-0.279,3.095-0.554,6.188-0.83,9.282c-0.275,3.094-0.552,6.188-0.828,9.282
				c-0.258,2.883-0.518,5.767-0.767,8.651c-0.017,0.189-0.077,0.26-0.256,0.31c-2.565,0.706-5.128,1.42-7.69,2.132
				c-5.74,1.59-11.479,3.178-17.218,4.77c-0.614,0.172-1.225,0.361-1.836,0.543c-0.075,0-0.147,0-0.222,0
				c-0.083-0.035-0.162-0.078-0.248-0.102c-1.043-0.29-2.087-0.577-3.13-0.867c-7.772-2.158-15.544-4.318-23.315-6.472
				c-0.163-0.046-0.235-0.101-0.25-0.285c-0.105-1.282-0.224-2.563-0.34-3.845c-0.156-1.758-0.316-3.516-0.474-5.272
				c-0.155-1.739-0.304-3.479-0.46-5.218c-0.157-1.758-0.318-3.516-0.476-5.271c-0.155-1.75-0.306-3.498-0.462-5.246
				c-0.174-1.959-0.355-3.918-0.53-5.875c-0.157-1.758-0.307-3.516-0.464-5.274c-0.191-2.16-0.392-4.319-0.585-6.48
				c-0.155-1.757-0.306-3.515-0.462-5.273c-0.176-1.959-0.355-3.917-0.529-5.875C5.464,11.748,5.295,9.789,5.121,7.83
				C4.944,5.805,4.764,3.781,4.579,1.759C4.536,1.267,4.474,0.776,4.421,0.285z M37.477,52.111
				c-2.992-0.811-5.987-1.623-8.982-2.428c-0.173-0.047-0.263-0.11-0.278-0.303c-0.127-1.521-0.263-3.04-0.398-4.559
				c-0.053-0.602-0.109-1.201-0.164-1.803c-2.787,0-5.541,0-8.313,0c0.086,0.951,0.171,1.883,0.254,2.816
				c0.136,1.546,0.269,3.094,0.406,4.641c0.157,1.758,0.322,3.515,0.471,5.272c0.018,0.214,0.093,0.287,0.291,0.342
				c4.83,1.335,9.656,2.679,14.485,4.019c0.74,0.207,1.486,0.399,2.229,0.599c0.019,0.006,0.036,0.012,0.055,0.019
				c0,2.838,0,5.676,0,8.539c0.113-0.008,0.187,0,0.254-0.019c1.445-0.399,2.893-0.802,4.338-1.203
				c1.518-0.421,3.032-0.843,4.549-1.264c1.667-0.464,3.334-0.923,5-1.386c1.711-0.476,3.422-0.951,5.133-1.427
				c0.774-0.215,1.551-0.43,2.327-0.642c0.162-0.044,0.294-0.107,0.308-0.299c0.057-0.721,0.109-1.44,0.168-2.159
				c0.037-0.456,0.078-0.911,0.121-1.365c0.066-0.746,0.142-1.489,0.207-2.235c0.045-0.481,0.078-0.966,0.121-1.447
				c0.067-0.772,0.143-1.545,0.213-2.318c0.041-0.464,0.076-0.929,0.119-1.393c0.067-0.745,0.145-1.49,0.209-2.235
				c0.047-0.5,0.076-1.002,0.121-1.503c0.067-0.773,0.143-1.545,0.213-2.318c0.041-0.463,0.076-0.929,0.118-1.393
				c0.068-0.736,0.146-1.471,0.212-2.208c0.045-0.491,0.074-0.984,0.117-1.476c0.069-0.772,0.145-1.545,0.215-2.317
				c0.041-0.466,0.076-0.929,0.119-1.393c0.068-0.754,0.143-1.508,0.211-2.263c0.042-0.492,0.074-0.984,0.117-1.475
				c0.068-0.764,0.145-1.527,0.214-2.291c0.043-0.473,0.076-0.947,0.121-1.42c0.067-0.717,0.146-1.435,0.209-2.152
				c0.046-0.51,0.074-1.021,0.119-1.531c0.067-0.782,0.144-1.563,0.213-2.345c0.041-0.455,0.077-0.91,0.12-1.365
				c0.068-0.764,0.143-1.527,0.211-2.291c0.044-0.491,0.077-0.983,0.123-1.475c0.064-0.727,0.143-1.453,0.208-2.18
				c0.044-0.501,0.075-1.003,0.12-1.503c0.064-0.718,0.146-1.435,0.21-2.153c0.046-0.51,0.075-1.021,0.118-1.531
				c0.068-0.782,0.144-1.563,0.214-2.346c0.043-0.464,0.083-0.927,0.125-1.392c0.062-0.667,0.124-1.335,0.188-2.026
				c-0.117,0-0.201,0-0.281,0c-8.811,0-17.621,0.001-26.432-0.006c-0.266,0-0.317,0.084-0.315,0.328
				c0.006,2.649,0.004,5.297,0.004,7.946c-0.019,0.006-0.036,0.012-0.053,0.019c-0.064-0.003-0.129-0.008-0.192-0.008
				c-6.767,0-13.533,0-20.3,0c-0.079,0-0.161,0.008-0.25,0.014c0.251,2.763,0.5,5.504,0.751,8.268c0.136,0,0.244,0,0.354,0
				c6.444,0,12.889,0,19.335,0c0.1,0,0.2-0.006,0.301-0.01c0.019,0.008,0.036,0.016,0.055,0.022c0,2.822,0,5.643,0,8.465
				c-0.019,0.008-0.036,0.015-0.055,0.022c-0.054-0.003-0.109-0.009-0.165-0.009c-6.279,0-12.559,0-18.84,0.001
				c-0.078,0-0.156,0.01-0.243,0.016c0.247,2.767,0.495,5.509,0.741,8.267c0.13,0,0.23,0,0.33,0c5.969,0,11.935,0,17.902,0
				c0.092,0,0.185-0.006,0.274-0.01c0.019,0.008,0.036,0.014,0.055,0.021c0,4.267,0,8.53,0.001,12.795
				c0,0.138,0.007,0.276,0.011,0.413C37.521,52.09,37.499,52.102,37.477,52.111z"/>
			<path fill="#2965F0" d="M37.531,13.796c0-2.649,0.002-5.297-0.004-7.946c-0.002-0.243,0.05-0.328,0.315-0.328
				c8.811,0.007,17.621,0.006,26.432,0.006c0.08,0,0.164,0,0.281,0c-0.064,0.691-0.129,1.359-0.188,2.026
				c-0.042,0.465-0.082,0.928-0.125,1.392c-0.07,0.782-0.146,1.563-0.214,2.346c-0.043,0.51-0.072,1.021-0.118,1.531
				c-0.063,0.718-0.146,1.435-0.21,2.153c-0.045,0.5-0.076,1.001-0.12,1.503c-0.065,0.727-0.144,1.453-0.208,2.18
				c-0.046,0.492-0.079,0.984-0.123,1.475c-0.068,0.764-0.143,1.527-0.211,2.291c-0.043,0.455-0.079,0.91-0.12,1.365
				c-0.069,0.782-0.146,1.563-0.213,2.345c-0.045,0.51-0.073,1.021-0.119,1.531c-0.063,0.717-0.142,1.435-0.209,2.152
				c-0.045,0.473-0.078,0.947-0.121,1.42c-0.069,0.764-0.146,1.526-0.214,2.291c-0.043,0.491-0.075,0.983-0.117,1.475
				c-0.068,0.754-0.143,1.508-0.211,2.263c-0.043,0.464-0.079,0.928-0.12,1.393c-0.069,0.771-0.145,1.544-0.214,2.318
				c-0.043,0.49-0.072,0.983-0.117,1.475c-0.066,0.736-0.144,1.471-0.212,2.208c-0.042,0.464-0.077,0.929-0.118,1.394
				c-0.07,0.771-0.146,1.545-0.214,2.317c-0.044,0.5-0.073,1.003-0.12,1.503c-0.064,0.745-0.142,1.491-0.209,2.234
				c-0.043,0.465-0.078,0.93-0.119,1.394c-0.07,0.772-0.146,1.545-0.213,2.317c-0.043,0.482-0.076,0.967-0.121,1.449
				c-0.065,0.744-0.141,1.489-0.207,2.234c-0.043,0.455-0.084,0.91-0.121,1.365c-0.059,0.719-0.111,1.438-0.168,2.158
				c-0.014,0.193-0.146,0.256-0.308,0.3c-0.776,0.212-1.553,0.427-2.327,0.642c-1.711,0.475-3.422,0.951-5.133,1.426
				c-1.666,0.463-3.333,0.924-5,1.387c-1.518,0.42-3.031,0.842-4.549,1.264c-1.445,0.4-2.893,0.803-4.338,1.203
				c-0.067,0.02-0.141,0.011-0.254,0.02c0-2.862,0-5.701,0-8.541c0.663-0.188,1.323-0.379,1.987-0.563
				c4.916-1.363,9.832-2.727,14.748-4.085c0.143-0.039,0.205-0.097,0.217-0.259c0.067-0.887,0.15-1.775,0.229-2.663
				c0.142-1.575,0.283-3.148,0.425-4.724c0.137-1.519,0.27-3.039,0.404-4.558c0.157-1.767,0.318-3.532,0.477-5.299
				c0.137-1.528,0.27-3.057,0.406-4.586c0.141-1.564,0.283-3.129,0.424-4.695c0.137-1.519,0.27-3.039,0.404-4.558
				c0.157-1.775,0.316-3.551,0.479-5.326c0.121-1.354,0.246-2.709,0.367-4.063c0.045-0.508,0.086-1.015,0.129-1.542
				c-0.146,0-0.254,0-0.363,0c-6.668,0-13.336,0-20.003,0C37.751,13.805,37.642,13.799,37.531,13.796z"/>
			<path fill="#FEFEFE" d="M37.531,13.796c0.11,0.003,0.22,0.009,0.329,0.009c6.667,0,13.335,0,20.003,0c0.109,0,0.217,0,0.363,0
				c-0.043,0.526-0.084,1.034-0.129,1.542c-0.121,1.354-0.246,2.709-0.367,4.063c-0.16,1.775-0.32,3.551-0.479,5.326
				c-0.136,1.52-0.268,3.039-0.404,4.558c-0.141,1.565-0.283,3.13-0.424,4.695c-0.138,1.529-0.271,3.058-0.406,4.586
				c-0.158,1.767-0.318,3.532-0.477,5.299c-0.137,1.521-0.27,3.039-0.404,4.558c-0.142,1.574-0.283,3.148-0.425,4.724
				c-0.079,0.888-0.162,1.774-0.229,2.663c-0.012,0.162-0.074,0.221-0.217,0.259c-4.916,1.36-9.832,2.722-14.748,4.085
				c-0.664,0.184-1.324,0.375-1.987,0.563c-0.019-0.006-0.036-0.012-0.055-0.018c0-2.865,0-5.73,0-8.598
				c0.022-0.01,0.044-0.021,0.066-0.03c1.205-0.323,2.41-0.644,3.614-0.97c1.771-0.477,3.541-0.955,5.313-1.434
				c0.133-0.035,0.258-0.048,0.272-0.242c0.125-1.492,0.258-2.982,0.392-4.475c0.139-1.555,0.28-3.109,0.42-4.665
				c0.043-0.471,0.08-0.942,0.121-1.435c-0.129,0-0.229,0-0.33,0c-3.171,0-6.342,0-9.514,0c-0.101,0-0.2,0.007-0.301,0.01
				c-0.019-0.006-0.036-0.014-0.055-0.02c0-2.756,0-5.511,0-8.266c0.019-0.007,0.036-0.015,0.055-0.022
				c0.054,0.004,0.107,0.012,0.163,0.012c3.501,0,7.003,0,10.503,0c0.063,0,0.125-0.01,0.201-0.018
				c0.252-2.823,0.5-5.634,0.752-8.472c-0.129,0-0.209,0-0.289,0c-3.705,0-7.408,0-11.111,0c-0.073,0-0.146,0.008-0.219,0.012
				c-0.019-0.007-0.036-0.015-0.055-0.022c0-2.754,0.002-5.508,0.002-8.263C37.495,13.808,37.513,13.802,37.531,13.796z"/>
			<path fill="#EAEAEA" d="M37.477,52.111c0,2.865,0,5.73,0,8.597c-0.742-0.199-1.488-0.394-2.229-0.599
				c-4.829-1.34-9.655-2.684-14.485-4.019c-0.198-0.055-0.273-0.128-0.291-0.342c-0.148-1.758-0.313-3.515-0.471-5.272
				c-0.138-1.547-0.271-3.094-0.406-4.641c-0.083-0.934-0.168-1.866-0.254-2.816c2.771,0,5.525,0,8.313,0
				c0.055,0.602,0.111,1.201,0.164,1.803c0.136,1.52,0.271,3.039,0.398,4.559c0.016,0.192,0.105,0.256,0.278,0.303
				C31.489,50.488,34.484,51.301,37.477,52.111z"/>
			<path fill="#EAEAEA" d="M37.479,13.814c0,2.755-0.002,5.509-0.002,8.263c-0.101,0.004-0.201,0.01-0.301,0.01
				c-6.446,0-12.891,0-19.335,0c-0.109,0-0.218,0-0.354,0c-0.251-2.763-0.5-5.505-0.751-8.268c0.089-0.005,0.171-0.014,0.25-0.014
				c6.767,0,13.533,0,20.3,0C37.35,13.806,37.414,13.812,37.479,13.814z"/>
			<path fill="#EAEAEA" d="M37.477,30.587c0,2.755,0,5.51,0,8.265c-0.09,0.004-0.183,0.01-0.274,0.01c-5.968,0-11.934,0-17.902,0
				c-0.1,0-0.2,0-0.33,0c-0.246-2.757-0.494-5.5-0.741-8.267c0.087-0.006,0.165-0.016,0.243-0.016
				c6.281-0.001,12.561-0.001,18.84-0.001C37.367,30.578,37.423,30.584,37.477,30.587z"/>
			<path fill="#2965F0" d="M37.531,38.872c0.101-0.003,0.2-0.011,0.301-0.011c3.172,0,6.343,0,9.514,0c0.102,0,0.201,0,0.33,0
				c-0.041,0.494-0.078,0.965-0.121,1.436c-0.14,1.555-0.281,3.11-0.42,4.665c-0.134,1.491-0.267,2.983-0.392,4.476
				c-0.017,0.193-0.142,0.207-0.272,0.242c-1.771,0.478-3.541,0.957-5.313,1.434c-1.204,0.324-2.409,0.646-3.614,0.969
				c-0.004-0.137-0.011-0.275-0.011-0.413C37.531,47.402,37.531,43.139,37.531,38.872z"/>
			<path fill="#2A65F0" d="M37.531,22.1c0.072-0.004,0.146-0.012,0.219-0.012c3.703,0,7.407,0,11.111,0c0.08,0,0.16,0,0.289,0
				c-0.252,2.838-0.5,5.649-0.752,8.472c-0.076,0.007-0.139,0.018-0.2,0.018c-3.5,0-7.003,0-10.504,0
				c-0.056,0-0.109-0.008-0.163-0.012C37.531,27.743,37.531,24.922,37.531,22.1z"/>
		</g>
	</g>
	<g display="none">
		<polygon display="inline" fill="#E24F26" points="64.493,66.949 37.56,70.542 10.875,66.949 10.875,0.062 64.493,0.062 		"/>
		<g display="inline">
			<path fill="#E24F26" d="M37.686,74.938c-0.166,0-0.331,0-0.497,0c-0.189-0.078-0.372-0.172-0.565-0.229
				c-1.657-0.471-3.315-0.932-4.972-1.4c-6.905-1.951-13.813-3.903-20.715-5.873c-0.181-0.052-0.423-0.285-0.438-0.455
				c-0.234-2.313-0.435-4.633-0.64-6.95c-0.351-3.933-0.697-7.863-1.048-11.796c-0.398-4.448-0.799-8.897-1.195-13.346
				c-0.354-3.952-0.701-7.905-1.053-11.857C6.208,19.037,5.85,15.043,5.492,11.05c-0.333-3.664-0.667-7.326-1-10.988
				c22.005,0,44.009,0,66.017,0c-0.166,1.695-0.342,3.39-0.495,5.086c-0.356,3.954-0.703,7.909-1.053,11.864
				c-0.357,3.996-0.718,7.991-1.074,11.987c-0.352,3.933-0.693,7.869-1.047,11.802c-0.396,4.432-0.799,8.86-1.193,13.292
				c-0.381,4.286-0.752,8.572-1.152,12.857c-0.018,0.176-0.245,0.43-0.421,0.479c-7.409,2.1-14.824,4.176-22.235,6.266
				C40.448,74.085,39.068,74.521,37.686,74.938z M37.562,38.871c0.007,4.343,0.014,8.686,0.019,13.027
				c-0.046,0.029-0.095,0.061-0.142,0.09c-2.923-0.793-5.844-1.592-8.771-2.369c-0.328-0.087-0.478-0.206-0.504-0.566
				c-0.093-1.283-0.223-2.564-0.34-3.847c-0.07-0.758-0.146-1.517-0.219-2.271c-2.751,0-5.424,0-8.166,0
				c0.053,0.699,0.099,1.356,0.15,2.015c0.274,3.478,0.558,6.956,0.813,10.435c0.031,0.434,0.202,0.592,0.598,0.699
				c2.721,0.734,5.437,1.498,8.158,2.242c2.757,0.755,5.52,1.499,8.28,2.248c0.042,0.011,0.081,0.021,0.123,0.033
				c0,2.778,0,5.558,0,8.422c0.354-0.073,0.593-0.109,0.828-0.174c4.409-1.211,8.817-2.426,13.225-3.64
				c2.406-0.663,4.813-1.317,7.21-2.006c0.223-0.063,0.524-0.332,0.549-0.533c0.169-1.44,0.276-2.889,0.401-4.335
				c0.139-1.611,0.268-3.224,0.408-4.835c0.15-1.733,0.313-3.468,0.467-5.202c0.141-1.57,0.273-3.142,0.416-4.711
				c0.19-2.126,0.392-4.252,0.582-6.379c0.143-1.611,0.271-3.224,0.414-4.835c0.188-2.147,0.394-4.294,0.584-6.441
				c0.144-1.611,0.277-3.223,0.422-4.834c0.147-1.672,0.302-3.345,0.453-5.017c0.146-1.611,0.301-3.221,0.441-4.832
				c0.148-1.673,0.309-3.345,0.421-5.021c0.052-0.778-0.011-0.804-0.799-0.804c-8.399-0.002-16.8-0.002-25.201,0
				c-0.808,0-0.819,0.014-0.821,0.855c0,2.495,0,4.99,0,7.486c-0.042,0.014-0.081,0.028-0.121,0.042
				c-0.083-0.004-0.165-0.014-0.248-0.014c-6.609-0.002-13.218-0.002-19.825,0c-0.16,0-0.322,0.02-0.612,0.039
				c0.745,8.337,1.485,16.637,2.229,24.978c6.205,0,12.332,0,18.46,0C37.482,38.833,37.523,38.852,37.562,38.871z"/>
			<path fill="#EE652A" d="M37.562,13.771c0-2.496,0-4.991,0-7.486c0.002-0.841,0.014-0.855,0.821-0.855
				c8.401-0.002,16.803-0.002,25.201,0c0.788,0,0.852,0.026,0.799,0.804c-0.111,1.676-0.271,3.348-0.421,5.021
				c-0.142,1.611-0.295,3.221-0.44,4.832c-0.152,1.672-0.307,3.345-0.455,5.017c-0.144,1.611-0.277,3.223-0.42,4.834
				c-0.191,2.147-0.396,4.294-0.586,6.441c-0.144,1.611-0.271,3.224-0.414,4.835c-0.189,2.126-0.391,4.252-0.582,6.379
				c-0.142,1.569-0.274,3.14-0.416,4.71c-0.152,1.734-0.314,3.469-0.467,5.203c-0.141,1.612-0.27,3.225-0.406,4.835
				c-0.125,1.446-0.233,2.894-0.402,4.335c-0.023,0.202-0.326,0.469-0.549,0.533c-2.396,0.688-4.805,1.343-7.209,2.006
				c-4.407,1.215-8.815,2.43-13.225,3.641c-0.234,0.063-0.476,0.1-0.829,0.172c0-2.863,0-5.644,0-8.42
				c0.135-0.053,0.264-0.115,0.402-0.153c5.279-1.46,10.558-2.92,15.843-4.368c0.396-0.109,0.623-0.24,0.639-0.727
				c0.029-0.953,0.158-1.904,0.242-2.855c0.567-6.438,1.135-12.874,1.705-19.311c0.08-0.881,0.191-1.758,0.297-2.704
				c-0.313,0-0.558,0-0.801,0c-5.863,0-11.726,0.001-17.587-0.001c-0.249,0-0.495-0.031-0.742-0.047
				c0-2.801,0.002-5.602,0.002-8.402c0.248-0.012,0.497-0.033,0.745-0.033c6.106-0.001,12.215-0.001,18.323-0.001
				c0.247,0,0.495,0,0.812,0c0.26-2.734,0.515-5.429,0.779-8.204c-0.354,0-0.599,0-0.842,0c-6.357,0-12.715,0.001-19.072-0.001
				C38.059,13.797,37.81,13.78,37.562,13.771z"/>
			<path fill="#EAE9E8" d="M37.444,38.814c-6.128,0-12.255,0-18.46,0c-0.744-8.34-1.484-16.641-2.229-24.978
				c0.29-0.019,0.452-0.039,0.612-0.039c6.607-0.002,13.216-0.002,19.825,0c0.083,0,0.165,0.009,0.248,0.014
				c0,2.727,0,5.452,0,8.177c-3.841,0-7.682,0-11.578,0c0.25,2.875,0.49,5.66,0.737,8.516c3.652,0,7.245,0,10.838,0
				C37.438,33.275,37.44,36.045,37.444,38.814z"/>
			<path fill="#FEFEFD" d="M37.444,38.814c-0.004-2.771-0.006-5.54-0.007-8.31c0.039-0.021,0.081-0.044,0.122-0.066
				c0.247,0.016,0.493,0.047,0.742,0.047c5.861,0.002,11.723,0.001,17.586,0.001c0.244,0,0.489,0,0.801,0
				c-0.104,0.946-0.217,1.823-0.297,2.704c-0.57,6.437-1.137,12.874-1.703,19.311c-0.086,0.951-0.213,1.902-0.244,2.855
				c-0.016,0.486-0.241,0.617-0.639,0.727c-5.283,1.448-10.563,2.908-15.842,4.368c-0.139,0.038-0.268,0.101-0.402,0.153
				c-0.042-0.012-0.081-0.022-0.123-0.035c0-2.861,0-5.723,0-8.584c0.047-0.028,0.096-0.06,0.142-0.088
				c0.202-0.047,0.406-0.088,0.605-0.142c2.623-0.708,5.241-1.432,7.873-2.114c0.435-0.112,0.596-0.264,0.633-0.727
				c0.16-1.967,0.375-3.93,0.563-5.895c0.132-1.375,0.257-2.754,0.39-4.205c-0.289,0-0.514,0-0.736,0
				c-2.701,0-5.403-0.002-8.105,0.002c-0.412,0-0.826,0.033-1.24,0.051C37.523,38.852,37.482,38.833,37.444,38.814z"/>
			<path fill="#EAE9E9" d="M37.438,51.988c0,2.861,0,5.722,0,8.584c-2.761-0.749-5.523-1.493-8.28-2.248
				C26.436,57.58,23.72,56.816,21,56.082c-0.396-0.107-0.566-0.266-0.598-0.699c-0.255-3.479-0.538-6.958-0.813-10.435
				c-0.052-0.657-0.098-1.315-0.15-2.015c2.742,0,5.415,0,8.166,0c0.072,0.754,0.148,1.512,0.219,2.271
				c0.117,1.282,0.247,2.563,0.34,3.847c0.026,0.36,0.176,0.479,0.504,0.566C31.595,50.396,34.516,51.195,37.438,51.988z"/>
			<path fill="#FEFEFD" d="M37.44,21.99c0-2.726,0-5.451,0-8.177c0.04-0.014,0.079-0.028,0.121-0.042
				c0.248,0.009,0.498,0.026,0.746,0.026c6.356,0.002,12.713,0.001,19.071,0.001c0.243,0,0.485,0,0.841,0
				c-0.265,2.775-0.52,5.47-0.777,8.204c-0.316,0-0.564,0-0.813,0c-6.107,0-12.217,0-18.322,0.001c-0.248,0-0.498,0.021-0.746,0.033
				C37.521,22.021,37.482,22.006,37.44,21.99z"/>
			<path fill="#EE652A" d="M37.562,38.871c0.414-0.018,0.829-0.051,1.24-0.051c2.702-0.004,5.404-0.002,8.105-0.002
				c0.224,0,0.448,0,0.735,0c-0.133,1.451-0.256,2.83-0.389,4.205c-0.188,1.965-0.402,3.927-0.563,5.895
				c-0.037,0.462-0.199,0.613-0.633,0.727c-2.633,0.684-5.252,1.406-7.875,2.114c-0.199,0.054-0.403,0.095-0.604,0.142
				C37.575,47.557,37.568,43.214,37.562,38.871z"/>
			<path fill="#E24F26" d="M37.44,21.99c0.042,0.016,0.081,0.031,0.121,0.047c0,2.8-0.002,5.602-0.002,8.402
				c-0.041,0.022-0.083,0.045-0.122,0.066c-3.593,0-7.186,0-10.838,0c-0.247-2.856-0.487-5.641-0.737-8.516
				C29.759,21.99,33.6,21.99,37.44,21.99z"/>
		</g>
	</g>
	<g display="none">
		<path display="inline" fill="#FEC92B" d="M59.814,29.542c0.646,3.84,1.309,7.679,1.939,11.522
			c0.977,5.946,1.915,11.897,2.909,17.841c0.183,1.079,0.095,1.761-1.045,2.381c-7.728,4.208-15.413,8.491-23.078,12.81
			c-2.11,1.188-4.061,1.198-6.152-0.014c-4.782-2.77-9.606-5.466-14.415-8.193c1.579,0.463,2.723-0.205,3.743-1.356
			c0.95-1.071,1.976-2.08,2.998-3.082c0.678-0.662,1.454-1.224,2.115-1.898c1.979-2.019,3.903-4.089,5.887-6.103
			c0.918-0.934,1.965-1.74,2.88-2.674c1.884-1.918,3.683-3.926,5.591-5.822c2.426-2.413,4.961-4.715,7.381-7.132
			c2.451-2.445,4.787-5.003,7.252-7.433C58.299,29.918,59.141,29.815,59.814,29.542z"/>
		<path display="inline" fill="#FECA2E" d="M59.814,29.542c-0.674,0.272-1.517,0.375-1.994,0.847
			c-2.465,2.429-4.801,4.988-7.252,7.433c-2.42,2.417-4.955,4.72-7.381,7.132c-1.908,1.896-3.707,3.903-5.591,5.823
			c-0.915,0.933-1.962,1.74-2.88,2.673c-1.983,2.014-3.908,4.084-5.887,6.103c-0.661,0.676-1.438,1.237-2.115,1.898
			c-1.022,1.002-2.048,2.011-2.998,3.082c-1.021,1.152-2.164,1.82-3.743,1.357l0.022-0.023c-0.182-0.1-0.363-0.198-0.546-0.299
			l0.012,0.007c-0.183-0.097-0.364-0.192-0.545-0.288l0.002,0.001c-0.107-0.078-0.212-0.157-0.319-0.235
			c0,0,0.002,0.023,0.002,0.022c-0.355-0.196-0.712-0.392-1.066-0.586l0.013,0.007c-0.184-0.1-0.366-0.196-0.548-0.293l0.008,0.006
			c-0.184-0.096-0.363-0.191-0.544-0.288v0.001c-0.103-0.082-0.208-0.163-0.313-0.244l0.014,0.023
			c-0.184-0.098-0.366-0.195-0.547-0.292l0.012,0.007c-0.182-0.098-0.365-0.196-0.547-0.295l0.012,0.008
			c-0.182-0.098-0.365-0.195-0.547-0.293l0.008,0.005c-0.181-0.097-0.359-0.19-0.539-0.286l-0.004-0.004
			c-0.104-0.08-0.209-0.16-0.314-0.242l0.019,0.024c-0.183-0.099-0.364-0.198-0.55-0.296l0.016,0.007
			c-0.184-0.099-0.366-0.196-0.551-0.293l0.014,0.006c-0.182-0.097-0.365-0.192-0.547-0.289v0.002
			c-0.083-0.096-0.166-0.192-0.248-0.29c-0.205-0.06-0.407-0.117-0.614-0.177l-0.017-0.017c0.117-0.572,0.234-1.143,0.354-1.715
			c0.09-0.09,0.18-0.18,0.271-0.27c0.092-0.091,0.183-0.184,0.273-0.275c0.09-0.09,0.181-0.181,0.271-0.271
			c0.092-0.091,0.184-0.183,0.273-0.272s0.182-0.182,0.272-0.272c0.091-0.091,0.183-0.183,0.271-0.272
			c0.091-0.092,0.184-0.183,0.274-0.272c0.092-0.093,0.181-0.183,0.271-0.273c0.093-0.091,0.184-0.182,0.273-0.272
			c0.091-0.09,0.18-0.182,0.272-0.272c0.093-0.09,0.181-0.182,0.272-0.272c0.091-0.092,0.183-0.183,0.273-0.272
			c0.09-0.091,0.181-0.183,0.271-0.272c0.09-0.09,0.184-0.182,0.271-0.272c0.094-0.09,0.184-0.183,0.274-0.272
			c0.093-0.09,0.183-0.181,0.273-0.271c0.091-0.091,0.182-0.182,0.271-0.273c0.091-0.091,0.183-0.182,0.274-0.272
			c0.091-0.091,0.18-0.181,0.271-0.272c0.091-0.091,0.182-0.183,0.274-0.272c0.09-0.091,0.181-0.183,0.272-0.274
			c0.09-0.091,0.181-0.181,0.271-0.271c0.09-0.09,0.182-0.182,0.271-0.272c0.092-0.091,0.183-0.181,0.273-0.272
			c0.092-0.092,0.182-0.183,0.271-0.272c0.092-0.091,0.184-0.183,0.274-0.272c0.091-0.09,0.181-0.183,0.272-0.272
			c0.09-0.091,0.182-0.183,0.273-0.272c0.09-0.092,0.18-0.182,0.273-0.273c0.089-0.09,0.18-0.182,0.271-0.271
			c0.091-0.091,0.182-0.183,0.273-0.272c0.09-0.091,0.182-0.183,0.271-0.272c0.092-0.091,0.183-0.182,0.273-0.273
			c0.09-0.09,0.182-0.182,0.271-0.272c0.092-0.091,0.183-0.182,0.273-0.272c0.092-0.09,0.182-0.183,0.273-0.273
			s0.18-0.181,0.271-0.273c0.093-0.09,0.183-0.182,0.273-0.271c0.093-0.091,0.181-0.184,0.274-0.273
			c0.09-0.09,0.181-0.182,0.271-0.271c0.091-0.091,0.182-0.184,0.272-0.273c0.09-0.09,0.183-0.182,0.272-0.271
			c0.092-0.092,0.183-0.182,0.272-0.273c0.091-0.09,0.184-0.182,0.272-0.272c0.092-0.091,0.183-0.181,0.271-0.272
			c0.094-0.091,0.186-0.183,0.273-0.271c0.093-0.092,0.182-0.184,0.274-0.273c0.091-0.091,0.181-0.182,0.271-0.271
			c0.091-0.092,0.182-0.184,0.272-0.274c0.092-0.09,0.183-0.181,0.273-0.272c0.091-0.09,0.182-0.182,0.271-0.271
			c0.092-0.091,0.184-0.182,0.273-0.273c0.091-0.09,0.182-0.181,0.271-0.271c0.094-0.091,0.185-0.182,0.275-0.273
			c0.09-0.091,0.181-0.182,0.271-0.271c0.092-0.092,0.182-0.182,0.273-0.273c0.09-0.09,0.182-0.182,0.273-0.272
			c0.09-0.091,0.182-0.181,0.271-0.272c0.09-0.09,0.182-0.182,0.273-0.271c0.09-0.092,0.182-0.184,0.271-0.273
			c0.091-0.091,0.182-0.182,0.273-0.271c0.09-0.092,0.182-0.184,0.271-0.272c0.091-0.092,0.182-0.183,0.273-0.272
			c0.09-0.092,0.182-0.183,0.273-0.273c0.09-0.091,0.181-0.182,0.271-0.271c0.092-0.092,0.182-0.183,0.273-0.272
			c0.09-0.092,0.182-0.183,0.271-0.272c0.092-0.091,0.182-0.182,0.273-0.272c0.09-0.091,0.182-0.181,0.272-0.272
			c0.091-0.091,0.181-0.183,0.274-0.272c0.088-0.091,0.181-0.183,0.271-0.272c0.09-0.09,0.182-0.182,0.273-0.271
			c0.089-0.092,0.182-0.182,0.271-0.273c0.091-0.09,0.182-0.182,0.272-0.271c0.091-0.092,0.182-0.183,0.272-0.272
			c0.092-0.091,0.183-0.183,0.273-0.272c0.092-0.092,0.181-0.183,0.271-0.273c0.093-0.091,0.184-0.182,0.274-0.273
			c0.091-0.089,0.181-0.181,0.271-0.271c0.091-0.091,0.183-0.182,0.273-0.272c0.091-0.091,0.182-0.182,0.272-0.273
			c0.09-0.091,0.182-0.182,0.271-0.272c0.091-0.091,0.184-0.183,0.273-0.273c0.089-0.09,0.182-0.182,0.274-0.272
			c0.091-0.091,0.181-0.183,0.272-0.273c0.09-0.091,0.181-0.182,0.271-0.273c0.092-0.092,0.182-0.181,0.271-0.273
			c0.092-0.091,0.184-0.182,0.273-0.273c0.092-0.09,0.182-0.181,0.274-0.272c0.089-0.092,0.181-0.182,0.271-0.274
			c0.092-0.09,0.182-0.182,0.275-0.273c0.088-0.09,0.18-0.181,0.27-0.273c0.092-0.09,0.182-0.182,0.275-0.272
			c0.089-0.091,0.18-0.182,0.27-0.273c0.093-0.091,0.184-0.182,0.275-0.272c0.09-0.091,0.181-0.183,0.27-0.272
			c0.094-0.091,0.184-0.183,0.275-0.273c0.09-0.091,0.181-0.182,0.273-0.272c0.09-0.091,0.182-0.182,0.271-0.274
			c0.09-0.089,0.182-0.181,0.272-0.272s0.183-0.182,0.272-0.273c0.271-0.277,0.542-0.554,0.813-0.831l-0.006,0.01
			c0.094-0.093,0.188-0.188,0.28-0.281l-0.007,0.009c0.093-0.095,0.186-0.188,0.281-0.283l-0.011,0.01
			c0.095-0.094,0.187-0.188,0.283-0.282l-0.011,0.008c0.095-0.093,0.188-0.188,0.281-0.281l-0.01,0.009
			c0.094-0.095,0.188-0.188,0.281-0.283l-0.008,0.009c0.093-0.094,0.189-0.188,0.281-0.282l-0.01,0.009
			c0.094-0.093,0.188-0.188,0.281-0.282l-0.01,0.009c0.095-0.094,0.188-0.188,0.283-0.282l-0.01,0.01
			c0.092-0.095,0.188-0.188,0.281-0.282l-0.008,0.01c0.092-0.095,0.186-0.188,0.281-0.283l-0.01,0.009
			c0.092-0.093,0.186-0.188,0.281-0.281l-0.011,0.008c0.095-0.093,0.188-0.187,0.283-0.281l-0.011,0.009
			c0.097-0.094,0.188-0.187,0.281-0.282l-0.009,0.009c0.093-0.094,0.188-0.188,0.282-0.282l-0.01,0.01
			c0.096-0.094,0.188-0.188,0.281-0.282l-0.009,0.009c0.095-0.093,0.188-0.188,0.281-0.281l-0.011,0.009
			c0.095-0.094,0.189-0.188,0.283-0.282l-0.009,0.01c0.093-0.094,0.188-0.188,0.281-0.283l-0.011,0.01
			c0.094-0.093,0.188-0.188,0.283-0.282l-0.01,0.009c0.094-0.093,0.188-0.188,0.282-0.282l-0.01,0.01
			c0.095-0.095,0.188-0.188,0.28-0.283l-0.008,0.01c0.092-0.106,0.187-0.212,0.279-0.318c-0.006-0.086,0.004-0.17,0.027-0.253
			c1.795-1.728,3.59-3.453,5.381-5.184c1.205-1.166,2.406-2.339,3.609-3.509c0.271-0.164,0.543-0.326,0.813-0.489
			c0.268-0.001,0.532-0.002,0.799-0.003c0.27,0.164,0.538,0.329,0.809,0.494c0.324,1.334,0.732,2.656,0.961,4.007
			C58.867,23.121,59.324,26.335,59.814,29.542z"/>
		<path display="inline" fill="#FEA614" d="M11.596,52.452c0.494-3.312,0.973-6.626,1.479-9.937
			c1.035-6.714,2.078-13.425,3.129-20.137c1.084-6.936,2.151-13.873,3.319-20.796c0.104-0.611,0.818-1.462,1.365-1.562
			c0.539-0.099,1.508,0.464,1.804,1.002c3.055,5.568,6.01,11.188,8.992,16.794c-0.527,0.367-1.222,0.625-1.544,1.123
			c-0.683,1.058-1.137,2.258-1.744,3.368c-2.393,4.371-4.855,8.704-7.203,13.098c-2.502,4.679-4.87,9.431-7.375,14.107
			C13.244,50.584,12.346,51.477,11.596,52.452z"/>
		<path display="inline" fill="#FDA310" d="M45.955,24.606c-0.023,0.083-0.033,0.167-0.027,0.254
			c-0.094,0.106-0.188,0.212-0.279,0.317c0,0,0.009-0.01,0.009-0.009c-0.095,0.094-0.187,0.188-0.281,0.282l0.011-0.01
			c-0.095,0.094-0.189,0.188-0.283,0.282l0.01-0.009c-0.094,0.094-0.189,0.188-0.282,0.282l0.01-0.01
			c-0.095,0.095-0.188,0.188-0.28,0.283c0,0,0.008-0.01,0.008-0.009c-0.094,0.093-0.188,0.188-0.282,0.281l0.01-0.009
			c-0.094,0.093-0.188,0.188-0.28,0.281l0.008-0.009c-0.094,0.094-0.187,0.188-0.281,0.282l0.01-0.01
			c-0.093,0.096-0.189,0.188-0.281,0.282l0.008-0.009c-0.094,0.095-0.186,0.188-0.281,0.282l0.011-0.009
			c-0.095,0.094-0.188,0.188-0.283,0.281l0.011-0.008c-0.097,0.094-0.188,0.188-0.281,0.281l0.01-0.009
			c-0.096,0.095-0.189,0.188-0.281,0.283l0.008-0.01c-0.095,0.095-0.188,0.188-0.281,0.282l0.01-0.01
			c-0.096,0.094-0.188,0.188-0.283,0.282l0.01-0.009c-0.095,0.094-0.188,0.188-0.281,0.282l0.011-0.009
			c-0.093,0.095-0.189,0.188-0.282,0.282c0,0,0.008-0.009,0.008-0.008c-0.093,0.094-0.188,0.187-0.281,0.282l0.01-0.009
			c-0.094,0.094-0.188,0.188-0.281,0.281l0.011-0.008c-0.097,0.094-0.188,0.188-0.282,0.282c0,0,0.01-0.01,0.008-0.01
			c-0.094,0.094-0.188,0.188-0.279,0.283l0.007-0.009c-0.093,0.094-0.188,0.188-0.28,0.281l0.006-0.01
			c-0.264,0.101-0.526,0.202-0.793,0.304c-0.332-0.479-0.721-0.929-0.992-1.44c-1.427-2.716-2.791-5.465-4.252-8.164
			c-0.516-0.953-1.238-1.793-1.866-2.684c-0.006-0.162-0.012-0.324-0.016-0.486c0.289-0.3,0.661-0.554,0.853-0.907
			c1.041-1.912,2.011-3.863,3.058-5.772c0.934-1.704,2.371-1.736,3.281-0.031C41.484,15.993,43.707,20.307,45.955,24.606z"/>
		<path display="inline" fill="#F89C0F" d="M32.008,18.424c0.004,0.162,0.01,0.324,0.016,0.485c-0.971,1.846-1.945,3.69-2.908,5.539
			c-3.336,6.393-6.66,12.791-10.002,19.179c-1.074,2.047-2.227,4.053-3.285,6.104c-1.643,3.182-3.236,6.388-4.851,9.582
			c-0.171,0.082-0.345,0.166-0.516,0.252c0.378-2.373,0.755-4.742,1.134-7.112c0.75-0.976,1.648-1.868,2.223-2.937
			c2.505-4.678,4.873-9.43,7.375-14.108c2.348-4.395,4.811-8.727,7.203-13.098c0.607-1.11,1.062-2.311,1.744-3.368
			c0.322-0.498,1.017-0.756,1.544-1.123C31.791,18.02,31.898,18.222,32.008,18.424z"/>
		<path display="inline" fill="#FDCE4E" d="M10.462,59.564c0.171-0.084,0.345-0.168,0.516-0.252c0.198-0.016,0.394-0.03,0.589-0.045
			l0.008,0.004c-0.119,0.572-0.236,1.144-0.354,1.715C10.4,60.814,9.992,60.423,10.462,59.564z"/>
		<path display="inline" fill="#FEC92B" d="M17.535,64.489c0.354,0.194,0.711,0.39,1.066,0.586
			C18.244,64.88,17.888,64.686,17.535,64.489z"/>
		<path display="inline" fill="#FDCE4E" d="M55.759,15.424c-0.271,0.163-0.542,0.326-0.813,0.489
			C55.217,15.75,55.488,15.587,55.759,15.424z"/>
		<path display="inline" fill="#FDCE4E" d="M57.365,15.915c-0.27-0.165-0.539-0.33-0.809-0.494
			C56.826,15.585,57.096,15.75,57.365,15.915z"/>
		<path display="inline" fill="#FDCE4E" d="M11.237,61.003c0.207,0.06,0.409,0.118,0.614,0.177c0,0.073,0,0.146,0.002,0.219
			C11.647,61.266,11.444,61.134,11.237,61.003z"/>
		<path display="inline" fill="#FEC92B" d="M19.45,65.568c0.183,0.101,0.364,0.199,0.546,0.299
			C19.814,65.768,19.633,65.668,19.45,65.568z"/>
		<path display="inline" fill="#FEC92B" d="M12.098,61.468c0.182,0.097,0.365,0.192,0.547,0.289
			C12.463,61.661,12.279,61.564,12.098,61.468z"/>
		<path display="inline" fill="#FEC92B" d="M12.631,61.751c0.185,0.097,0.367,0.194,0.551,0.293
			C12.998,61.945,12.815,61.848,12.631,61.751z"/>
		<path display="inline" fill="#FEC92B" d="M13.166,62.037c0.186,0.098,0.367,0.197,0.55,0.296
			C13.533,62.234,13.352,62.135,13.166,62.037z"/>
		<path display="inline" fill="#FEC92B" d="M14.016,62.555c0.18,0.096,0.358,0.189,0.539,0.286
			C14.374,62.745,14.195,62.65,14.016,62.555z"/>
		<path display="inline" fill="#FEC92B" d="M14.547,62.836c0.182,0.098,0.365,0.195,0.547,0.293
			C14.912,63.032,14.729,62.934,14.547,62.836z"/>
		<path display="inline" fill="#FEC92B" d="M15.082,63.122c0.182,0.099,0.365,0.196,0.547,0.295
			C15.447,63.318,15.264,63.221,15.082,63.122z"/>
		<path display="inline" fill="#FEC92B" d="M15.617,63.41c0.181,0.097,0.363,0.193,0.547,0.292
			C15.98,63.604,15.798,63.507,15.617,63.41z"/>
		<path display="inline" fill="#FEC92B" d="M16.464,63.921c0.181,0.097,0.36,0.19,0.544,0.288
			C16.824,64.113,16.645,64.018,16.464,63.921z"/>
		<path display="inline" fill="#FEC92B" d="M17,64.203c0.182,0.098,0.364,0.193,0.548,0.293C17.364,64.398,17.182,64.3,17,64.203z"
			/>
		<path display="inline" fill="#FEC92B" d="M18.917,65.287c0.181,0.096,0.362,0.191,0.545,0.288
			C19.279,65.479,19.098,65.382,18.917,65.287z"/>
		<path display="inline" fill="#FEC92B" d="M11.854,61.398c-0.002-0.072-0.002-0.146-0.002-0.219
			c0.082,0.098,0.165,0.194,0.248,0.29C12.008,61.475,11.928,61.451,11.854,61.398z"/>
		<path display="inline" fill="#FEC92B" d="M13.697,62.309c0.105,0.082,0.211,0.161,0.314,0.242
			C13.908,62.47,13.803,62.391,13.697,62.309z"/>
		<path display="inline" fill="#FEC92B" d="M16.15,63.68c0.105,0.08,0.211,0.161,0.313,0.243
			C16.361,63.841,16.256,63.76,16.15,63.68z"/>
		<path display="inline" fill="#FEC92B" d="M18.6,65.053c0.107,0.078,0.212,0.157,0.319,0.235
			C18.812,65.209,18.707,65.131,18.6,65.053z"/>
		<path display="inline" fill="#FDCE4E" d="M39.135,31.198c0.266-0.102,0.529-0.203,0.793-0.304
			c-0.271,0.277-0.543,0.554-0.813,0.831l-0.014-0.012C39.111,31.542,39.125,31.37,39.135,31.198z"/>
		<path display="inline" fill="#FDCE4E" d="M40.738,30.086c0.096-0.093,0.188-0.187,0.283-0.281
			C40.927,29.898,40.834,29.993,40.738,30.086z"/>
		<path display="inline" fill="#FDCE4E" d="M40.467,30.36c0.094-0.094,0.188-0.188,0.283-0.282
			C40.652,30.171,40.561,30.266,40.467,30.36z"/>
		<path display="inline" fill="#FDCE4E" d="M40.195,30.632c0.093-0.095,0.186-0.188,0.279-0.283
			C40.381,30.444,40.288,30.538,40.195,30.632z"/>
		<path display="inline" fill="#FDCE4E" d="M39.922,30.904c0.094-0.093,0.188-0.188,0.28-0.281
			C40.109,30.717,40.016,30.811,39.922,30.904z"/>
		<path display="inline" fill="#FDCE4E" d="M39.113,31.725c-0.09,0.091-0.182,0.182-0.271,0.273l-0.012-0.011
			c0.09-0.091,0.182-0.183,0.271-0.274L39.113,31.725z"/>
		<path display="inline" fill="#FDCE4E" d="M38.842,31.998c-0.092,0.091-0.184,0.183-0.271,0.272l-0.014-0.01
			c0.092-0.091,0.185-0.183,0.273-0.272L38.842,31.998z"/>
		<path display="inline" fill="#FDCE4E" d="M38.568,32.27c-0.09,0.092-0.182,0.183-0.271,0.274l-0.012-0.012
			c0.092-0.091,0.182-0.181,0.271-0.272L38.568,32.27z"/>
		<path display="inline" fill="#FDCE4E" d="M38.297,32.544c-0.093,0.09-0.184,0.181-0.273,0.272l-0.012-0.011
			c0.092-0.091,0.184-0.182,0.273-0.273L38.297,32.544z"/>
		<path display="inline" fill="#FDCE4E" d="M38.023,32.816c-0.092,0.09-0.183,0.182-0.275,0.273l-0.008-0.012
			c0.09-0.091,0.181-0.182,0.271-0.272L38.023,32.816z"/>
		<path display="inline" fill="#FDCE4E" d="M37.748,33.089c-0.089,0.09-0.18,0.182-0.27,0.272l-0.012-0.012
			c0.091-0.091,0.182-0.182,0.273-0.272L37.748,33.089z"/>
		<path display="inline" fill="#FDCE4E" d="M37.479,33.362c-0.092,0.09-0.183,0.182-0.275,0.272l-0.01-0.012
			c0.092-0.091,0.182-0.182,0.273-0.272L37.479,33.362z"/>
		<path display="inline" fill="#FDCE4E" d="M37.203,33.634c-0.09,0.091-0.181,0.182-0.27,0.273l-0.014-0.012
			c0.091-0.091,0.184-0.182,0.273-0.272L37.203,33.634z"/>
		<path display="inline" fill="#FDCE4E" d="M36.934,33.907c-0.094,0.09-0.184,0.182-0.275,0.272l-0.011-0.011
			c0.093-0.091,0.183-0.183,0.272-0.273L36.934,33.907z"/>
		<path display="inline" fill="#FDCE4E" d="M36.658,34.179c-0.09,0.092-0.182,0.183-0.27,0.273l-0.014-0.011
			c0.09-0.091,0.184-0.182,0.272-0.272L36.658,34.179z"/>
		<path display="inline" fill="#FDCE4E" d="M36.389,34.452c-0.094,0.091-0.184,0.183-0.275,0.273l-0.011-0.012
			c0.093-0.09,0.183-0.181,0.272-0.272L36.389,34.452z"/>
		<path display="inline" fill="#FDCE4E" d="M36.113,34.725c-0.09,0.092-0.182,0.182-0.271,0.274c0,0-0.013-0.012-0.013-0.011
			c0.092-0.092,0.184-0.183,0.272-0.274L36.113,34.725z"/>
		<path display="inline" fill="#FDCE4E" d="M35.843,34.999c-0.093,0.091-0.183,0.182-0.274,0.272c0,0-0.012-0.011-0.01-0.011
			c0.092-0.091,0.182-0.182,0.271-0.273L35.843,34.999z"/>
		<path display="inline" fill="#FDCE4E" d="M35.568,35.271c-0.09,0.091-0.182,0.182-0.273,0.273l-0.01-0.01
			c0.092-0.092,0.183-0.183,0.271-0.273L35.568,35.271z"/>
		<path display="inline" fill="#FDCE4E" d="M35.295,35.544c-0.09,0.092-0.18,0.181-0.271,0.273l-0.01-0.011
			c0.092-0.09,0.183-0.182,0.271-0.272L35.295,35.544z"/>
		<path display="inline" fill="#FDCE4E" d="M35.023,35.817c-0.091,0.091-0.182,0.182-0.271,0.273l-0.011-0.011
			c0.091-0.091,0.181-0.181,0.272-0.273L35.023,35.817z"/>
		<path display="inline" fill="#FDCE4E" d="M34.752,36.09c-0.092,0.09-0.182,0.182-0.272,0.273l-0.012-0.011
			c0.092-0.091,0.183-0.182,0.273-0.273L34.752,36.09z"/>
		<path display="inline" fill="#FDCE4E" d="M34.479,36.363c-0.093,0.09-0.185,0.182-0.274,0.272l-0.01-0.011
			c0.091-0.091,0.182-0.182,0.272-0.272L34.479,36.363z"/>
		<path display="inline" fill="#FDCE4E" d="M34.205,36.635c-0.09,0.09-0.183,0.182-0.273,0.273l-0.01-0.011
			c0.091-0.091,0.183-0.182,0.273-0.273L34.205,36.635z"/>
		<path display="inline" fill="#FDCE4E" d="M33.932,36.908c-0.09,0.091-0.182,0.181-0.271,0.272l-0.011-0.012
			c0.091-0.091,0.181-0.182,0.272-0.272L33.932,36.908z"/>
		<path display="inline" fill="#FDCE4E" d="M33.66,37.181c-0.091,0.091-0.182,0.182-0.272,0.273l-0.01-0.011
			c0.091-0.091,0.182-0.182,0.271-0.273L33.66,37.181z"/>
		<path display="inline" fill="#FDCE4E" d="M33.388,37.454c-0.091,0.091-0.183,0.182-0.273,0.272c0,0-0.01-0.011-0.01-0.01
			c0.092-0.092,0.181-0.183,0.273-0.273L33.388,37.454z"/>
		<path display="inline" fill="#FDCE4E" d="M33.114,37.726c-0.091,0.091-0.181,0.183-0.271,0.272l-0.011-0.011
			c0.092-0.09,0.184-0.182,0.272-0.273L33.114,37.726z"/>
		<path display="inline" fill="#FDCE4E" d="M32.843,37.999c-0.091,0.091-0.182,0.183-0.274,0.272l-0.01-0.011
			c0.093-0.091,0.181-0.182,0.273-0.273L32.843,37.999z"/>
		<path display="inline" fill="#FDCE4E" d="M32.568,38.271c-0.091,0.092-0.18,0.183-0.271,0.273l-0.01-0.011
			c0.092-0.091,0.183-0.183,0.271-0.273L32.568,38.271z"/>
		<path display="inline" fill="#FDCE4E" d="M32.297,38.545c-0.091,0.09-0.182,0.182-0.273,0.273l-0.01-0.012
			c0.094-0.091,0.183-0.183,0.273-0.272L32.297,38.545z"/>
		<path display="inline" fill="#FDCE4E" d="M32.023,38.818c-0.091,0.09-0.182,0.181-0.272,0.271l-0.01-0.011
			c0.093-0.091,0.183-0.183,0.272-0.272L32.023,38.818z"/>
		<path display="inline" fill="#FDCE4E" d="M31.751,39.09c-0.091,0.09-0.182,0.182-0.272,0.271l-0.01-0.01
			c0.091-0.091,0.182-0.182,0.272-0.271L31.751,39.09z"/>
		<path display="inline" fill="#FDCE4E" d="M31.479,39.361c-0.09,0.093-0.183,0.183-0.271,0.273l-0.01-0.011
			c0.09-0.091,0.182-0.181,0.271-0.272L31.479,39.361z"/>
		<path display="inline" fill="#FDCE4E" d="M31.207,39.636c-0.092,0.091-0.183,0.183-0.273,0.272l-0.01-0.01
			c0.09-0.092,0.182-0.183,0.273-0.273L31.207,39.636z"/>
		<path display="inline" fill="#FDCE4E" d="M30.934,39.908c-0.091,0.091-0.184,0.182-0.271,0.271l-0.011-0.011
			c0.091-0.091,0.183-0.181,0.272-0.272L30.934,39.908z"/>
		<path display="inline" fill="#FDCE4E" d="M30.662,40.182c-0.094,0.09-0.184,0.182-0.274,0.272c0,0-0.01-0.011-0.009-0.011
			c0.09-0.09,0.182-0.183,0.272-0.273L30.662,40.182z"/>
		<path display="inline" fill="#FDCE4E" d="M30.388,40.454c-0.091,0.091-0.183,0.182-0.272,0.272l-0.01-0.011
			c0.092-0.091,0.182-0.183,0.272-0.272L30.388,40.454z"/>
		<path display="inline" fill="#FDCE4E" d="M30.115,40.727c-0.092,0.09-0.182,0.182-0.273,0.271l-0.01-0.01
			c0.092-0.092,0.182-0.182,0.273-0.272L30.115,40.727z"/>
		<path display="inline" fill="#FDCE4E" d="M29.842,40.999c-0.09,0.091-0.182,0.183-0.271,0.272c0,0-0.01-0.011-0.01-0.01
			c0.092-0.091,0.181-0.183,0.271-0.272L29.842,40.999z"/>
		<path display="inline" fill="#FDCE4E" d="M29.57,41.271c-0.092,0.092-0.182,0.183-0.273,0.272l-0.01-0.01
			c0.092-0.091,0.182-0.183,0.273-0.273L29.57,41.271z"/>
		<path display="inline" fill="#FDCE4E" d="M29.297,41.544c-0.091,0.091-0.182,0.183-0.271,0.272l-0.01-0.01
			c0.09-0.091,0.181-0.183,0.271-0.272L29.297,41.544z"/>
		<path display="inline" fill="#FDCE4E" d="M29.025,41.816c-0.092,0.093-0.184,0.183-0.273,0.273l-0.01-0.011
			c0.091-0.091,0.182-0.183,0.273-0.272L29.025,41.816z"/>
		<path display="inline" fill="#FDCE4E" d="M28.752,42.09c-0.092,0.092-0.183,0.182-0.273,0.273l-0.008-0.012
			c0.092-0.09,0.18-0.182,0.271-0.272L28.752,42.09z"/>
		<path display="inline" fill="#FDCE4E" d="M28.479,42.364c-0.09,0.089-0.182,0.181-0.271,0.271l-0.01-0.01
			c0.091-0.091,0.182-0.183,0.273-0.274L28.479,42.364z"/>
		<path display="inline" fill="#FDCE4E" d="M28.207,42.636c-0.092,0.091-0.183,0.181-0.273,0.272l-0.009-0.01
			c0.093-0.092,0.181-0.182,0.272-0.272L28.207,42.636z"/>
		<path display="inline" fill="#FDCE4E" d="M27.934,42.909c-0.09,0.09-0.182,0.182-0.271,0.272l-0.009-0.01
			c0.089-0.09,0.181-0.181,0.271-0.271L27.934,42.909z"/>
		<path display="inline" fill="#FDCE4E" d="M27.662,43.182c-0.092,0.092-0.184,0.183-0.273,0.272l-0.008-0.009
			c0.092-0.092,0.182-0.182,0.272-0.273L27.662,43.182z"/>
		<path display="inline" fill="#FDCE4E" d="M27.389,43.454c-0.09,0.091-0.182,0.183-0.271,0.272l-0.01-0.009
			c0.09-0.092,0.184-0.182,0.273-0.272L27.389,43.454z"/>
		<path display="inline" fill="#FDCE4E" d="M27.117,43.727c-0.092,0.092-0.184,0.184-0.273,0.273l-0.008-0.008
			c0.092-0.092,0.182-0.182,0.271-0.273L27.117,43.727z"/>
		<path display="inline" fill="#FDCE4E" d="M26.844,44c-0.092,0.092-0.182,0.182-0.273,0.273l-0.008-0.01
			c0.09-0.09,0.183-0.182,0.273-0.271L26.844,44z"/>
		<path display="inline" fill="#FDCE4E" d="M26.57,44.273c-0.091,0.09-0.182,0.182-0.271,0.271l-0.01-0.009
			c0.094-0.091,0.183-0.181,0.273-0.272L26.57,44.273z"/>
		<path display="inline" fill="#FDCE4E" d="M26.299,44.545c-0.091,0.091-0.182,0.182-0.275,0.273l-0.007-0.01
			c0.091-0.09,0.183-0.182,0.272-0.272L26.299,44.545z"/>
		<path display="inline" fill="#FDCE4E" d="M26.023,44.818c-0.09,0.091-0.181,0.182-0.271,0.271l-0.008-0.009
			c0.091-0.091,0.182-0.183,0.272-0.272L26.023,44.818z"/>
		<path display="inline" fill="#FDCE4E" d="M45.648,25.178c0.092-0.104,0.186-0.211,0.278-0.317
			C45.834,24.966,45.74,25.072,45.648,25.178z"/>
		<path display="inline" fill="#FDCE4E" d="M25.752,45.091c-0.09,0.091-0.182,0.183-0.273,0.273l-0.008-0.009
			c0.093-0.09,0.184-0.183,0.273-0.273L25.752,45.091z"/>
		<path display="inline" fill="#FDCE4E" d="M25.479,45.364c-0.09,0.091-0.181,0.182-0.271,0.271L25.2,45.628
			c0.09-0.091,0.183-0.183,0.271-0.272L25.479,45.364z"/>
		<path display="inline" fill="#FDCE4E" d="M25.207,45.636c-0.091,0.091-0.182,0.183-0.273,0.272L24.927,45.9
			c0.089-0.092,0.183-0.183,0.272-0.272L25.207,45.636z"/>
		<path display="inline" fill="#FDCE4E" d="M24.934,45.909c-0.091,0.091-0.182,0.183-0.272,0.274l-0.006-0.01
			c0.089-0.091,0.18-0.183,0.271-0.273L24.934,45.909z"/>
		<path display="inline" fill="#FDCE4E" d="M24.661,46.184c-0.091,0.09-0.181,0.181-0.271,0.271l-0.008-0.01
			c0.09-0.09,0.183-0.182,0.273-0.272L24.661,46.184z"/>
		<path display="inline" fill="#FDCE4E" d="M24.39,46.455c-0.093,0.09-0.182,0.182-0.274,0.273l-0.006-0.01
			c0.09-0.09,0.182-0.182,0.272-0.271L24.39,46.455z"/>
		<path display="inline" fill="#FDCE4E" d="M24.115,46.729c-0.088,0.09-0.18,0.181-0.273,0.271l-0.006-0.008
			c0.091-0.092,0.181-0.184,0.273-0.274L24.115,46.729z"/>
		<path display="inline" fill="#FDCE4E" d="M23.842,47c-0.089,0.091-0.18,0.182-0.271,0.271l-0.006-0.008
			c0.09-0.091,0.181-0.183,0.271-0.271L23.842,47z"/>
		<path display="inline" fill="#FDCE4E" d="M23.57,47.273c-0.089,0.091-0.182,0.183-0.272,0.272l-0.007-0.008
			c0.092-0.09,0.183-0.183,0.273-0.272L23.57,47.273z"/>
		<path display="inline" fill="#FDCE4E" d="M23.298,47.546c-0.09,0.091-0.181,0.183-0.272,0.272l-0.007-0.008
			c0.09-0.092,0.183-0.182,0.272-0.272L23.298,47.546z"/>
		<path display="inline" fill="#FDCE4E" d="M23.025,47.818c-0.09,0.092-0.183,0.183-0.272,0.272l-0.007-0.008
			c0.091-0.091,0.182-0.181,0.272-0.272L23.025,47.818z"/>
		<path display="inline" fill="#FDCE4E" d="M22.753,48.091c-0.091,0.091-0.182,0.183-0.272,0.273l-0.008-0.009
			c0.092-0.092,0.184-0.183,0.273-0.273L22.753,48.091z"/>
		<path display="inline" fill="#FDCE4E" d="M22.48,48.365c-0.091,0.09-0.182,0.182-0.271,0.271l-0.008-0.009
			c0.09-0.091,0.182-0.183,0.271-0.272L22.48,48.365z"/>
		<path display="inline" fill="#FDCE4E" d="M22.209,48.637c-0.094,0.09-0.182,0.182-0.274,0.273l-0.008-0.01
			c0.093-0.09,0.185-0.181,0.274-0.272L22.209,48.637z"/>
		<path display="inline" fill="#FDCE4E" d="M21.935,48.91c-0.091,0.09-0.181,0.181-0.273,0.271l-0.006-0.007
			c0.091-0.092,0.183-0.183,0.271-0.274L21.935,48.91z"/>
		<path display="inline" fill="#FDCE4E" d="M21.661,49.182c-0.091,0.092-0.18,0.183-0.271,0.273l-0.008-0.008
			c0.091-0.092,0.184-0.182,0.272-0.272L21.661,49.182z"/>
		<path display="inline" fill="#FDCE4E" d="M21.391,49.455c-0.092,0.091-0.182,0.184-0.273,0.273L21.11,49.72
			c0.092-0.091,0.184-0.183,0.273-0.272L21.391,49.455z"/>
		<path display="inline" fill="#FDCE4E" d="M21.117,49.729c-0.091,0.09-0.182,0.182-0.273,0.272l-0.006-0.008
			c0.09-0.093,0.183-0.183,0.271-0.273L21.117,49.729z"/>
		<path display="inline" fill="#FDCE4E" d="M45.375,25.451c0.096-0.095,0.188-0.188,0.281-0.282
			C45.563,25.263,45.471,25.356,45.375,25.451z"/>
		<path display="inline" fill="#FDCE4E" d="M45.102,25.723c0.094-0.093,0.189-0.188,0.283-0.282
			C45.291,25.535,45.195,25.629,45.102,25.723z"/>
		<path display="inline" fill="#FDCE4E" d="M20.844,50.001c-0.09,0.091-0.182,0.183-0.271,0.272l-0.008-0.008
			c0.092-0.091,0.182-0.182,0.273-0.272L20.844,50.001z"/>
		<path display="inline" fill="#FDCE4E" d="M20.572,50.273c-0.091,0.092-0.182,0.183-0.273,0.273l-0.006-0.009
			c0.09-0.09,0.18-0.183,0.271-0.272L20.572,50.273z"/>
		<path display="inline" fill="#FDCE4E" d="M20.299,50.547c-0.09,0.092-0.182,0.182-0.271,0.271l-0.008-0.008
			c0.091-0.091,0.18-0.182,0.273-0.272L20.299,50.547z"/>
		<path display="inline" fill="#FDCE4E" d="M20.027,50.818c-0.092,0.091-0.183,0.183-0.273,0.273l-0.006-0.008
			c0.09-0.092,0.18-0.184,0.271-0.273L20.027,50.818z"/>
		<path display="inline" fill="#FDCE4E" d="M19.754,51.092c-0.092,0.09-0.183,0.182-0.271,0.271l-0.01-0.008
			c0.093-0.09,0.182-0.183,0.275-0.271L19.754,51.092z"/>
		<path display="inline" fill="#FDCE4E" d="M19.482,51.364c-0.094,0.092-0.184,0.183-0.273,0.272L19.2,51.629
			c0.091-0.091,0.183-0.182,0.272-0.271L19.482,51.364z"/>
		<path display="inline" fill="#FDCE4E" d="M19.209,51.637c-0.092,0.092-0.184,0.182-0.273,0.273l-0.008-0.008
			c0.092-0.092,0.182-0.183,0.272-0.273L19.209,51.637z"/>
		<path display="inline" fill="#FDCE4E" d="M18.936,51.91c-0.092,0.09-0.182,0.182-0.272,0.273l-0.008-0.009
			c0.091-0.091,0.185-0.182,0.272-0.272L18.936,51.91z"/>
		<path display="inline" fill="#FDCE4E" d="M18.663,52.184c-0.091,0.09-0.183,0.182-0.274,0.271l-0.006-0.008
			c0.09-0.092,0.182-0.182,0.272-0.273L18.663,52.184z"/>
		<path display="inline" fill="#FDCE4E" d="M18.389,52.456c-0.09,0.091-0.18,0.181-0.271,0.272l-0.006-0.009
			c0.091-0.09,0.181-0.182,0.271-0.271L18.389,52.456z"/>
		<path display="inline" fill="#FDCE4E" d="M18.117,52.729c-0.091,0.092-0.182,0.182-0.273,0.272l-0.006-0.007
			c0.092-0.092,0.182-0.182,0.273-0.273L18.117,52.729z"/>
		<path display="inline" fill="#FDCE4E" d="M17.844,53.001c-0.09,0.091-0.182,0.183-0.271,0.272l-0.006-0.008
			c0.09-0.09,0.181-0.182,0.271-0.271L17.844,53.001z"/>
		<path display="inline" fill="#FDCE4E" d="M44.829,25.996c0.093-0.093,0.188-0.188,0.282-0.282
			C45.018,25.808,44.922,25.902,44.829,25.996z"/>
		<path display="inline" fill="#FDCE4E" d="M17.301,53.545c-0.092,0.092-0.183,0.184-0.272,0.273l-0.007-0.008
			c0.091-0.09,0.18-0.182,0.272-0.271L17.301,53.545z"/>
		<path display="inline" fill="#FDCE4E" d="M17.028,53.82c-0.093,0.09-0.184,0.182-0.274,0.272l-0.006-0.007
			c0.093-0.091,0.182-0.182,0.273-0.273L17.028,53.82z"/>
		<path display="inline" fill="#FDCE4E" d="M16.754,54.093c-0.092,0.091-0.181,0.181-0.271,0.272l-0.006-0.006
			c0.09-0.092,0.181-0.183,0.271-0.272L16.754,54.093z"/>
		<path display="inline" fill="#FDCE4E" d="M16.482,54.365c-0.092,0.091-0.184,0.182-0.274,0.273l-0.004-0.007
			c0.089-0.091,0.181-0.182,0.272-0.272L16.482,54.365z"/>
		<path display="inline" fill="#FDCE4E" d="M44.559,26.269c0.092-0.094,0.187-0.188,0.28-0.283
			C44.746,26.081,44.65,26.174,44.559,26.269z"/>
		<path display="inline" fill="#FDCE4E" d="M16.208,54.639c-0.09,0.09-0.181,0.182-0.271,0.272l-0.006-0.007
			c0.091-0.092,0.181-0.182,0.273-0.272L16.208,54.639z"/>
		<path display="inline" fill="#FDCE4E" d="M15.937,54.911c-0.091,0.091-0.181,0.182-0.273,0.272l-0.004-0.007
			c0.089-0.091,0.181-0.182,0.271-0.272L15.937,54.911z"/>
		<path display="inline" fill="#FDCE4E" d="M15.663,55.184c-0.091,0.09-0.181,0.183-0.274,0.271l-0.004-0.006
			c0.092-0.092,0.184-0.182,0.274-0.273L15.663,55.184z"/>
		<path display="inline" fill="#FDCE4E" d="M15.389,55.456c-0.088,0.092-0.181,0.183-0.271,0.272l-0.004-0.006
			c0.09-0.092,0.181-0.183,0.271-0.272L15.389,55.456z"/>
		<path display="inline" fill="#FDCE4E" d="M15.117,55.729c-0.091,0.092-0.182,0.183-0.271,0.272l-0.007-0.006
			c0.093-0.091,0.182-0.183,0.274-0.272L15.117,55.729z"/>
		<path display="inline" fill="#FDCE4E" d="M14.846,56.001c-0.091,0.091-0.182,0.183-0.273,0.272l-0.006-0.006
			c0.092-0.092,0.183-0.183,0.272-0.273L14.846,56.001z"/>
		<path display="inline" fill="#FDCE4E" d="M14.572,56.273c-0.092,0.092-0.18,0.184-0.272,0.273l-0.006-0.006
			c0.092-0.091,0.183-0.182,0.272-0.271L14.572,56.273z"/>
		<path display="inline" fill="#FDCE4E" d="M14.3,56.547c-0.093,0.092-0.182,0.182-0.272,0.273l-0.006-0.008
			c0.091-0.09,0.182-0.182,0.272-0.271L14.3,56.547z"/>
		<path display="inline" fill="#FDCE4E" d="M14.027,56.82c-0.09,0.091-0.181,0.181-0.273,0.271l-0.004-0.006
			c0.091-0.091,0.181-0.182,0.271-0.273L14.027,56.82z"/>
		<path display="inline" fill="#FDCE4E" d="M13.754,57.092c-0.091,0.092-0.18,0.182-0.271,0.273l-0.004-0.008
			c0.088-0.09,0.18-0.181,0.271-0.271L13.754,57.092z"/>
		<path display="inline" fill="#FDCE4E" d="M13.482,57.366c-0.091,0.09-0.184,0.181-0.274,0.272l-0.004-0.007
			c0.089-0.092,0.183-0.182,0.274-0.272L13.482,57.366z"/>
		<path display="inline" fill="#FDCE4E" d="M13.208,57.639c-0.089,0.09-0.181,0.182-0.271,0.272l-0.006-0.006
			c0.09-0.091,0.183-0.183,0.273-0.272L13.208,57.639z"/>
		<path display="inline" fill="#FDCE4E" d="M12.937,57.911c-0.091,0.091-0.183,0.182-0.272,0.272l-0.006-0.007
			c0.092-0.09,0.182-0.181,0.272-0.271L12.937,57.911z"/>
		<path display="inline" fill="#FDCE4E" d="M12.664,58.184c-0.09,0.092-0.182,0.183-0.273,0.272l-0.006-0.007
			c0.092-0.092,0.184-0.182,0.273-0.273L12.664,58.184z"/>
		<path display="inline" fill="#FDCE4E" d="M17.572,53.273c-0.091,0.092-0.182,0.182-0.271,0.271l-0.007-0.005
			c0.091-0.092,0.181-0.183,0.272-0.274L17.572,53.273z"/>
		<path display="inline" fill="#FDCE4E" d="M12.119,58.727c-0.091,0.092-0.182,0.185-0.273,0.275l-0.006-0.007
			c0.09-0.09,0.183-0.183,0.271-0.272L12.119,58.727z"/>
		<path display="inline" fill="#FDCE4E" d="M11.846,59.002c-0.092,0.09-0.182,0.18-0.271,0.27l-0.008-0.004
			c0.092-0.091,0.182-0.182,0.273-0.272L11.846,59.002z"/>
		<path display="inline" fill="#FDCE4E" d="M44.283,26.541c0.094-0.094,0.189-0.188,0.281-0.281
			C44.473,26.353,44.377,26.447,44.283,26.541z"/>
		<path display="inline" fill="#FDCE4E" d="M44.012,26.813c0.094-0.093,0.188-0.188,0.281-0.281
			C44.199,26.625,44.105,26.72,44.012,26.813z"/>
		<path display="inline" fill="#FDCE4E" d="M43.738,27.086c0.096-0.094,0.188-0.188,0.281-0.282
			C43.927,26.898,43.834,26.993,43.738,27.086z"/>
		<path display="inline" fill="#FDCE4E" d="M43.466,27.359c0.093-0.094,0.188-0.187,0.282-0.282
			C43.654,27.171,43.559,27.265,43.466,27.359z"/>
		<path display="inline" fill="#FDCE4E" d="M43.193,27.632c0.096-0.094,0.188-0.187,0.281-0.282
			C43.381,27.445,43.289,27.538,43.193,27.632z"/>
		<path display="inline" fill="#FDCE4E" d="M42.92,27.904c0.096-0.093,0.189-0.187,0.283-0.281
			C43.109,27.717,43.016,27.811,42.92,27.904z"/>
		<path display="inline" fill="#FDCE4E" d="M42.648,28.177c0.093-0.093,0.186-0.188,0.281-0.281
			C42.834,27.99,42.741,28.084,42.648,28.177z"/>
		<path display="inline" fill="#FDCE4E" d="M42.377,28.451c0.092-0.095,0.186-0.188,0.281-0.283
			C42.563,28.262,42.469,28.356,42.377,28.451z"/>
		<path display="inline" fill="#FDCE4E" d="M42.104,28.723c0.092-0.095,0.188-0.188,0.281-0.282
			C42.29,28.536,42.195,28.628,42.104,28.723z"/>
		<path display="inline" fill="#FDCE4E" d="M41.829,28.996c0.095-0.094,0.188-0.188,0.282-0.282
			C42.018,28.808,41.924,28.901,41.829,28.996z"/>
		<path display="inline" fill="#FDCE4E" d="M41.557,29.268c0.096-0.093,0.188-0.188,0.282-0.282
			C41.744,29.08,41.65,29.175,41.557,29.268z"/>
		<path display="inline" fill="#FDCE4E" d="M41.285,29.541c0.093-0.094,0.189-0.187,0.281-0.282
			C41.475,29.353,41.378,29.447,41.285,29.541z"/>
		<path display="inline" fill="#FDCE4E" d="M41.012,29.814c0.094-0.095,0.188-0.188,0.281-0.282
			C41.2,29.626,41.105,29.719,41.012,29.814z"/>
		<path display="inline" fill="#FDCE4E" d="M12.391,58.456c-0.091,0.09-0.182,0.181-0.271,0.271l-0.008-0.004
			c0.094-0.093,0.184-0.182,0.273-0.273L12.391,58.456z"/>
		<path display="inline" fill="#F3810D" d="M12.385,58.449c-0.09,0.092-0.18,0.181-0.273,0.273c-0.089,0.09-0.182,0.182-0.271,0.271
			c-0.092,0.091-0.182,0.182-0.273,0.271c-0.195,0.016-0.391,0.03-0.589,0.045c1.614-3.193,3.208-6.398,4.851-9.58
			c1.059-2.053,2.211-4.058,3.285-6.104c3.342-6.388,6.666-12.786,10.002-19.179c0.963-1.849,1.938-3.693,2.908-5.539
			c0.628,0.891,1.351,1.732,1.866,2.685c1.462,2.698,2.825,5.448,4.253,8.164c0.271,0.512,0.66,0.962,0.992,1.44
			c-0.011,0.172-0.023,0.344-0.033,0.516c-0.09,0.091-0.183,0.183-0.271,0.274c-0.09,0.09-0.182,0.181-0.273,0.272
			c-0.09,0.091-0.18,0.182-0.271,0.272c-0.091,0.091-0.183,0.182-0.272,0.273c-0.092,0.091-0.183,0.181-0.271,0.272
			c-0.092,0.09-0.183,0.182-0.273,0.272c-0.092,0.09-0.182,0.182-0.273,0.272c-0.09,0.091-0.183,0.182-0.273,0.272
			c-0.09,0.091-0.18,0.182-0.272,0.273c-0.089,0.091-0.183,0.181-0.272,0.272c-0.089,0.091-0.18,0.183-0.272,0.272
			c-0.089,0.092-0.181,0.183-0.272,0.274c-0.09,0.09-0.18,0.181-0.271,0.272c-0.091,0.091-0.182,0.182-0.273,0.273
			c-0.089,0.09-0.18,0.182-0.271,0.272c-0.092,0.092-0.182,0.183-0.272,0.273c-0.09,0.09-0.182,0.182-0.273,0.273
			c-0.091,0.09-0.182,0.181-0.272,0.272c-0.09,0.091-0.183,0.182-0.273,0.273c-0.092,0.09-0.182,0.181-0.272,0.272
			c-0.09,0.091-0.181,0.182-0.271,0.273c-0.093,0.091-0.182,0.182-0.273,0.273c-0.089,0.09-0.181,0.182-0.272,0.272
			c-0.093,0.091-0.181,0.183-0.273,0.273c-0.089,0.091-0.18,0.182-0.271,0.273c-0.091,0.09-0.18,0.182-0.273,0.272
			c-0.09,0.091-0.18,0.183-0.272,0.272c-0.091,0.09-0.182,0.181-0.272,0.271c-0.09,0.092-0.182,0.182-0.271,0.273
			c-0.092,0.091-0.184,0.182-0.273,0.273c-0.09,0.09-0.182,0.18-0.272,0.271c-0.091,0.091-0.183,0.183-0.272,0.273
			c-0.092,0.09-0.182,0.182-0.273,0.272s-0.182,0.183-0.273,0.272c-0.091,0.09-0.18,0.182-0.271,0.272
			c-0.092,0.09-0.182,0.181-0.273,0.272c-0.091,0.091-0.182,0.182-0.271,0.271c-0.092,0.091-0.183,0.182-0.273,0.273
			c-0.092,0.091-0.18,0.183-0.271,0.272c-0.092,0.091-0.183,0.183-0.273,0.274c-0.092,0.091-0.18,0.181-0.272,0.273
			c-0.091,0.09-0.183,0.182-0.271,0.271c-0.091,0.092-0.181,0.183-0.272,0.273c-0.09,0.092-0.184,0.182-0.273,0.273
			c-0.09,0.091-0.18,0.182-0.271,0.273c-0.091,0.09-0.184,0.182-0.273,0.271c-0.091,0.091-0.18,0.182-0.273,0.271
			c-0.09,0.092-0.182,0.184-0.272,0.273c-0.091,0.092-0.182,0.182-0.272,0.273c-0.09,0.091-0.181,0.183-0.273,0.272
			c-0.089,0.091-0.182,0.183-0.271,0.273s-0.184,0.181-0.272,0.272c-0.092,0.09-0.183,0.182-0.271,0.272
			c-0.091,0.091-0.184,0.182-0.273,0.272c-0.091,0.092-0.183,0.183-0.272,0.272c-0.093,0.091-0.183,0.183-0.273,0.274
			c-0.091,0.09-0.182,0.181-0.271,0.271c-0.091,0.09-0.182,0.182-0.273,0.271c-0.09,0.092-0.183,0.183-0.272,0.272
			c-0.091,0.093-0.182,0.183-0.272,0.272c-0.09,0.092-0.182,0.183-0.273,0.273c-0.09,0.09-0.182,0.182-0.271,0.272
			c-0.09,0.092-0.182,0.183-0.274,0.272c-0.089,0.092-0.181,0.182-0.271,0.274c-0.089,0.09-0.182,0.181-0.272,0.272
			c-0.09,0.09-0.182,0.182-0.273,0.272c-0.089,0.091-0.182,0.181-0.271,0.272c-0.092,0.092-0.182,0.182-0.273,0.272
			c-0.092,0.09-0.182,0.183-0.271,0.272c-0.094,0.09-0.183,0.182-0.273,0.271c-0.092,0.091-0.182,0.182-0.271,0.273
			c-0.094,0.091-0.183,0.182-0.275,0.272c-0.09,0.091-0.182,0.181-0.272,0.272c-0.09,0.091-0.181,0.182-0.272,0.272
			c-0.088,0.091-0.182,0.183-0.272,0.273c-0.09,0.091-0.183,0.181-0.272,0.272c-0.091,0.09-0.181,0.182-0.271,0.272
			c-0.092,0.092-0.182,0.182-0.273,0.272c-0.091,0.092-0.182,0.183-0.271,0.272c-0.092,0.091-0.182,0.183-0.272,0.274
			c-0.093,0.09-0.182,0.182-0.272,0.271c-0.092,0.092-0.181,0.184-0.273,0.273c-0.091,0.091-0.182,0.183-0.271,0.272
			c-0.092,0.091-0.184,0.183-0.272,0.272c-0.093,0.092-0.183,0.183-0.273,0.272c-0.091,0.091-0.183,0.183-0.271,0.273
			c-0.091,0.091-0.183,0.182-0.274,0.272c-0.091,0.09-0.182,0.182-0.271,0.272c-0.093,0.091-0.182,0.182-0.274,0.272
			c-0.09,0.092-0.181,0.183-0.272,0.273c-0.09,0.091-0.181,0.182-0.272,0.271c-0.091,0.09-0.182,0.183-0.272,0.272
			c-0.091,0.091-0.181,0.183-0.271,0.272c-0.092,0.092-0.184,0.182-0.271,0.272c-0.092,0.093-0.186,0.183-0.274,0.272
			c-0.091,0.091-0.184,0.182-0.273,0.272c-0.091,0.091-0.181,0.183-0.272,0.272C12.568,58.268,12.477,58.357,12.385,58.449z"/>
	</g>
	<g display="none">
		<polygon display="inline" fill="#D9B92E" points="64.836,66.624 37.5,71.338 14.001,65.838 5.334,0 64.836,0 		"/>
		<g display="inline">
			<path fill="#D9B92E" d="M4.18,0c22.271,0,44.38,0,66.642,0c-0.252,2.978-0.487,5.916-0.747,8.851
				c-0.642,7.181-1.293,14.36-1.941,21.54c-0.819,9.082-1.641,18.16-2.459,27.241c-0.271,2.999-0.504,6.001-0.838,8.992
				c-0.046,0.399-0.521,0.972-0.903,1.081c-8.568,2.445-17.148,4.847-25.738,7.22c-0.49,0.136-1.092,0.068-1.598-0.071
				c-8.422-2.342-16.83-4.723-25.254-7.053c-0.814-0.225-1.025-0.617-1.094-1.402C9.255,54.991,8.233,43.586,7.205,32.183
				c-0.896-9.968-1.809-19.935-2.721-29.9C4.418,1.569,4.297,0.861,4.18,0z M34.838,14.938c-0.134-0.109-0.269-0.217-0.402-0.326
				c-1.832-0.018-3.664-0.036-5.496-0.054c-0.166,0.498-0.477,0.997-0.477,1.495c-0.03,11.012-0.027,22.023-0.029,33.036
				c-4.229-1.136-8.456-2.272-12.842-3.45c0,2.399,0.037,4.56-0.018,6.715c-0.021,0.787,0.259,1.116,0.998,1.313
				c3.77,1.009,7.528,2.062,11.29,3.103c2.315,0.643,4.63,1.293,7.021,1.961c0.028-0.451,0.063-0.742,0.063-1.033
				c0.002-13.92,0.002-27.839-0.002-41.759C34.945,15.604,34.875,15.271,34.838,14.938z M64.802,5.793c-0.61,0-1.028,0-1.444,0
				c-8.065,0-16.133,0.029-24.198-0.028c-1.334-0.01-1.621,0.449-1.619,1.692c0.033,20.283,0.023,40.564,0.027,60.848
				c0,0.438,0.049,0.879,0.078,1.387c0.33-0.053,0.496-0.063,0.652-0.105c3.791-1.035,7.582-2.072,11.371-3.113
				c3.016-0.828,6.036-1.636,9.033-2.527c0.408-0.12,0.941-0.651,0.98-1.039c0.484-4.482,0.891-8.975,1.307-13.465
				c0.348-3.778,0.678-7.56,1.014-11.338c0.428-4.787,0.854-9.574,1.279-14.361c0.428-4.829,0.853-9.658,1.271-14.488
				C64.646,8.168,64.711,7.083,64.802,5.793z"/>
			<path fill="#FED73B" d="M64.802,5.793c-0.091,1.29-0.155,2.375-0.249,3.459c-0.419,4.83-0.844,9.66-1.271,14.488
				c-0.425,4.788-0.853,9.575-1.279,14.361c-0.336,3.778-0.666,7.56-1.015,11.338c-0.415,4.49-0.82,8.982-1.305,13.465
				c-0.041,0.388-0.574,0.919-0.981,1.039c-2.997,0.893-6.019,1.699-9.033,2.527c-3.789,1.041-7.58,2.078-11.371,3.113
				c-0.157,0.043-0.322,0.053-0.652,0.105c-0.029-0.508-0.078-0.947-0.078-1.387c-0.004-20.283,0.006-40.565-0.027-60.848
				c-0.002-1.243,0.285-1.702,1.619-1.692c8.066,0.057,16.133,0.028,24.199,0.028C63.773,5.793,64.189,5.793,64.802,5.793z
				 M40.152,51.596c-0.101,0.262-0.285,0.524-0.287,0.788c-0.025,1.783-0.025,3.564,0,5.347c0.004,0.256,0.201,0.509,0.311,0.763
				c0.459-0.039,0.932-0.013,1.369-0.126c4.969-1.284,9.91-2.674,14.906-3.838c1.525-0.355,1.9-1.059,1.988-2.451
				c0.262-4.229,0.646-8.451,0.972-12.676c0.174-2.262,0.325-4.524,0.493-6.913c-4.459,0.538-8.762,1.057-13.086,1.58
				c0-4.023,0-7.854,0-11.796c4.668,0,9.24,0,13.947,0c0.229-2.611,0.446-5.125,0.67-7.699c-0.324-0.041-0.57-0.099-0.814-0.099
				c-6.537-0.004-13.073-0.007-19.609,0.003c-0.281,0-0.566,0.118-0.848,0.181c-0.105,0.43-0.299,0.859-0.303,1.289
				c-0.016,8.416-0.016,16.831,0,25.247c0.004,0.431,0.188,0.861,0.291,1.291c0,0.154,0.002,0.307,0.006,0.457
				c0.021,0.087,0.047,0.172,0.068,0.258c4.336-0.749,8.67-1.498,13.215-2.283c-0.1,1.902-0.248,3.704-0.26,5.505
				c-0.004,0.909-0.367,1.222-1.199,1.431c-3.611,0.912-7.215,1.875-10.805,2.875C40.786,50.838,40.49,51.298,40.152,51.596z"/>
			<path fill="#EBEAE7" d="M28.939,14.558c1.832,0.018,3.664,0.037,5.496,0.055c0.134,0.108,0.269,0.216,0.402,0.325
				c0.037,0.333,0.107,0.667,0.107,1c0.004,13.919,0.004,27.839,0.002,41.759c0,0.291-0.035,0.583-0.063,1.033
				c-2.392-0.668-4.706-1.318-7.021-1.961c-3.762-1.041-7.521-2.093-11.29-3.103c-0.739-0.197-1.019-0.526-0.998-1.313
				c0.055-2.155,0.018-4.314,0.018-6.715c4.386,1.178,8.613,2.314,12.842,3.45c0.154-0.386,0.432-0.769,0.439-1.157
				c0.044-2.156,0.019-4.314,0.021-6.472C28.908,32.492,28.924,23.525,28.939,14.558z"/>
			<path fill="#ECEFFA" d="M28.939,14.558c-0.016,8.967-0.031,17.934-0.045,26.902c-0.003,2.157,0.022,4.315-0.021,6.472
				c-0.008,0.389-0.285,0.771-0.439,1.157c0.002-11.012-0.001-22.024,0.029-33.036C28.463,15.555,28.773,15.056,28.939,14.558z"/>
			<path fill="#ECEFFA" d="M34.838,14.938c-0.134-0.108-0.269-0.216-0.402-0.325C34.569,14.721,34.704,14.829,34.838,14.938z"/>
			<path fill="#FEFDFB" d="M40.158,42.943c-0.004-0.15-0.006-0.303-0.006-0.457c0.002-9.274,0.007-18.551,0.012-27.827
				c0.281-0.063,0.564-0.181,0.848-0.181c6.536-0.01,13.072-0.008,19.609-0.003c0.244,0,0.49,0.058,0.814,0.099
				c-0.224,2.573-0.441,5.088-0.67,7.699c-4.707,0-9.279,0-13.947,0c0,3.941,0,7.773,0,11.796c4.324-0.523,8.627-1.042,13.086-1.58
				c-0.168,2.388-0.319,4.651-0.493,6.913c-0.324,4.225-0.71,8.447-0.972,12.676c-0.088,1.395-0.463,2.096-1.988,2.451
				c-4.996,1.164-9.938,2.554-14.906,3.838c-0.438,0.113-0.91,0.087-1.369,0.126c-0.008-2.3-0.014-4.599-0.023-6.896
				c0.339-0.299,0.635-0.758,1.025-0.867c3.59-1,7.193-1.963,10.805-2.875c0.832-0.209,1.195-0.521,1.201-1.431
				c0.012-1.802,0.159-3.604,0.258-5.505c-4.545,0.785-8.879,1.534-13.213,2.283C40.205,43.115,40.18,43.03,40.158,42.943z"/>
			<path fill="#FED325" d="M40.164,14.659c-0.005,9.276-0.01,18.553-0.012,27.827c-0.103-0.43-0.287-0.86-0.291-1.291
				c-0.016-8.417-0.016-16.831,0-25.247C39.865,15.519,40.059,15.089,40.164,14.659z"/>
			<path fill="#FED325" d="M40.152,51.596c0.01,2.299,0.016,4.598,0.022,6.896c-0.108-0.254-0.307-0.508-0.312-0.764
				c-0.024-1.78-0.024-3.563,0-5.346C39.867,52.12,40.053,51.857,40.152,51.596z"/>
			<path fill="#FED325" d="M40.158,42.943c0.021,0.087,0.047,0.172,0.068,0.258C40.205,43.115,40.18,43.03,40.158,42.943z"/>
		</g>
	</g>
	<g>
		<path fill="#764ABC" d="M75,65c0,5.523-4.477,10-10,10H10C4.477,75,0,70.523,0,65V10C0,4.477,4.477,0,10,0h55
			c5.523,0,10,4.477,10,10V65z"/>
		<g>
			<path fill="#FFFFFF" d="M37.763,9.194c0,0.012,0,0.024,0,0.036c-0.51,0-1.021,0-1.528,0c0-0.012,0-0.024,0-0.036
				C36.742,9.194,37.253,9.194,37.763,9.194z"/>
			<path fill="#FFFFFF" d="M51.598,65.807c-0.328,0-0.656,0-0.984,0c0-0.012-0.002-0.021-0.004-0.033c0.33,0,0.658,0,0.99-0.002
				C51.598,65.784,51.598,65.795,51.598,65.807z"/>
			<path fill="#FFFFFF" d="M51.598,65.807c0-0.012,0-0.022,0-0.035c0.207-0.01,0.416-0.019,0.623-0.028
				c-0.002,0.009-0.004,0.019-0.004,0.028c-0.013,0.011-0.023,0.022-0.037,0.033C51.984,65.807,51.791,65.807,51.598,65.807z"/>
			<path fill="#FFFFFF" d="M50.609,65.773c0.002,0.011,0.004,0.021,0.004,0.033c-0.156,0-0.314,0-0.473,0
				c0.002-0.012-0.002-0.022-0.007-0.033c0.029-0.002,0.06-0.006,0.087-0.01C50.35,65.768,50.48,65.771,50.609,65.773z"/>
			<path fill="#FFFFFF" d="M36.234,9.229c0.508,0,1.019,0,1.528,0c0.048,0,0.095,0.001,0.144,0.002
				c0.1,0.009,0.198,0.019,0.297,0.029c1.699,0.163,3.307,0.647,4.826,1.426c1.67,0.856,3.121,2,4.381,3.388
				c1.759,1.936,3.011,4.17,3.892,6.622c0.521,1.447,0.896,2.932,1.138,4.449c0.059,0.371,0.099,0.744,0.144,1.116
				c0.06,0.492,0.116,0.985,0.174,1.479c0.003,0.03,0,0.06,0.001,0.09c-0.033,0.002-0.068,0.003-0.104,0.004
				c-1.021-0.351-2.047-0.676-3.09-0.959c-0.203-0.055-0.407-0.108-0.619-0.164c-0.023-0.209-0.047-0.413-0.07-0.617
				c-0.116-0.99-0.343-1.957-0.628-2.909c-0.522-1.739-1.242-3.391-2.205-4.933c-0.612-0.98-1.317-1.889-2.153-2.692
				c-1.009-0.97-2.15-1.731-3.475-2.207c-0.602-0.215-1.221-0.358-1.854-0.439c-0.19-0.024-0.385-0.033-0.576-0.048
				c-0.034-0.01-0.066-0.027-0.101-0.027c-0.263-0.003-0.525-0.003-0.788-0.001c-0.033,0-0.068,0.018-0.102,0.027
				c-0.059,0.003-0.117,0.005-0.176,0.007c-0.087,0.009-0.175,0.018-0.261,0.027c-1.146,0.11-2.259,0.366-3.347,0.74
				c-1.402,0.482-2.711,1.145-3.884,2.064c-0.718,0.562-1.317,1.232-1.86,1.96c-1.69,2.271-2.832,4.792-3.467,7.547
				c-0.225,0.969-0.381,1.949-0.48,2.939c-0.138,1.348-0.176,2.7-0.127,4.052c0.154,4.349,1.253,8.446,3.299,12.288
				c0.199,0.375,0.413,0.742,0.621,1.111c0.026,0.047,0.057,0.092,0.086,0.139c0.121-0.014,0.234-0.024,0.349-0.036
				c0.233,0,0.466,0,0.698,0c0.928,0.083,1.748,0.423,2.443,1.042c0.825,0.73,1.297,1.646,1.421,2.745
				c0.235,2.075-1.142,4.155-3.399,4.616c-0.117,0.023-0.237,0.033-0.357,0.049c-0.122,0.01-0.245,0.019-0.367,0.029
				c-0.061,0-0.118,0-0.178,0c-0.135-0.011-0.27-0.021-0.404-0.031c-0.754-0.077-1.436-0.346-2.04-0.799
				c-0.976-0.731-1.55-1.709-1.696-2.92c-0.105-0.875,0.045-1.718,0.475-2.496c0.069-0.127,0.071-0.22-0.003-0.347
				c-1.249-2.151-2.276-4.403-3.058-6.766c-0.514-1.556-0.918-3.14-1.184-4.757c-0.055-0.333-0.127-0.664-0.17-0.998
				c-0.059-0.462-0.104-0.927-0.142-1.392c-0.087-1.053-0.136-2.107-0.106-3.163c0.025-0.927,0.088-1.852,0.198-2.774
				c0.302-2.548,0.941-5.009,1.902-7.384c1.06-2.619,2.608-4.91,4.684-6.833c1.87-1.733,4.012-3.002,6.464-3.729
				c0.814-0.242,1.645-0.415,2.49-0.501C35.689,9.27,35.961,9.252,36.234,9.229z"/>
			<path fill="#FFFFFF" d="M48.832,40.389c1.643,0.152,2.866,0.95,3.57,2.441c1.19,2.525-0.324,5.38-2.938,5.945
				c-0.135,0.029-0.271,0.053-0.416,0.082c-0.11,0.218-0.221,0.439-0.336,0.66c-1.256,2.426-2.795,4.656-4.647,6.666
				c-2.732,2.961-5.948,5.246-9.627,6.883c-2.088,0.932-4.254,1.617-6.491,2.093c-0.723,0.153-1.45,0.288-2.183,0.381
				c-0.295,0.038-0.592,0.058-0.887,0.086c-0.135,0.01-0.271,0.021-0.406,0.031c-0.059,0.001-0.118,0.002-0.178,0.003
				c-0.186,0-0.371-0.002-0.559,0.001c-0.057,0.001-0.115,0.019-0.172,0.028c-0.205,0-0.411,0-0.616,0
				c-0.028-0.01-0.056-0.026-0.083-0.027c-0.215-0.003-0.432-0.002-0.648-0.002c-0.071-0.002-0.142-0.004-0.213-0.005
				c-0.123-0.011-0.246-0.021-0.369-0.03c-0.035-0.002-0.07-0.004-0.105-0.006c-0.099-0.01-0.196-0.021-0.295-0.031
				c-0.4-0.003-0.79-0.093-1.181-0.156c-1.417-0.232-2.79-0.623-4.11-1.191c-1.784-0.771-3.384-1.815-4.725-3.235
				c-1.078-1.14-1.863-2.462-2.432-3.917c-0.449-1.15-0.748-2.341-0.921-3.564c-0.153-1.08-0.176-2.162-0.128-3.25
				c0.02-0.398,0.045-0.799,0.105-1.194c0.206-1.356,0.532-2.685,1.038-3.963c0.771-1.953,1.856-3.716,3.21-5.318
				c1.271-1.505,2.725-2.813,4.311-3.977c0.029-0.021,0.06-0.042,0.09-0.061c0.01-0.005,0.022-0.005,0.047-0.01
				c0.287,1.294,0.602,2.583,1.01,3.846c-0.268,0.221-0.534,0.43-0.789,0.653c-1.924,1.687-3.51,3.636-4.6,5.965
				c-0.515,1.101-0.873,2.249-1.035,3.453c-0.276,2.054,0.025,4.024,0.881,5.91c0.425,0.938,0.945,1.819,1.598,2.616
				c1.052,1.287,2.369,2.214,3.898,2.845c0.969,0.399,1.975,0.662,3.012,0.804c0.289,0.04,0.578,0.071,0.865,0.106
				c0.112,0.01,0.223,0.021,0.334,0.032c0.047,0.002,0.094,0.002,0.14,0.004c0.136,0.011,0.271,0.021,0.406,0.029
				c0.083,0.004,0.166,0.006,0.249,0.01c0.041,0.01,0.08,0.027,0.12,0.027c0.419,0.002,0.838,0.002,1.257,0
				c0.039,0,0.08-0.019,0.12-0.029c0.071-0.002,0.142-0.004,0.214-0.008c0.146-0.01,0.295-0.02,0.44-0.029
				c0.048-0.002,0.095-0.004,0.142-0.008c0.098-0.009,0.197-0.02,0.296-0.028c0.335-0.039,0.671-0.069,1.004-0.119
				c1.358-0.202,2.683-0.537,3.978-0.997c1.313-0.465,2.564-1.059,3.783-1.729c1.458-0.801,2.867-1.679,4.202-2.672
				c2.416-1.802,4.485-3.928,6.129-6.461c0.463-0.712,0.888-1.447,1.276-2.201c0.025-0.047,0.046-0.099,0.07-0.153
				c-0.077-0.089-0.154-0.175-0.228-0.263c-0.736-0.887-1.074-1.908-0.986-3.054c0.148-1.942,1.585-3.52,3.511-3.86
				c0.147-0.026,0.298-0.035,0.448-0.051C48.465,40.389,48.648,40.389,48.832,40.389z"/>
			<path fill="#FFFFFF" d="M50.609,65.773c-0.129-0.002-0.26-0.006-0.389-0.01c-0.148-0.01-0.298-0.019-0.447-0.029
				c-0.045-0.002-0.092-0.004-0.14-0.006c-0.11-0.01-0.222-0.021-0.332-0.03c-0.034-0.003-0.069-0.005-0.104-0.009
				c-0.075-0.008-0.15-0.018-0.224-0.026c-0.396-0.054-0.793-0.099-1.187-0.164c-2.123-0.356-4.149-1.019-6.104-1.912
				c-0.065-0.03-0.133-0.06-0.197-0.092c-0.016-0.009-0.029-0.021-0.065-0.045c1.157-0.892,2.32-1.761,3.39-2.728
				c0.476,0.183,0.936,0.369,1.402,0.535c1.133,0.401,2.299,0.684,3.485,0.866c0.313,0.049,0.633,0.079,0.948,0.116
				c0.101,0.01,0.197,0.021,0.297,0.031c0.048,0,0.095,0.004,0.141,0.004c0.137,0.011,0.271,0.021,0.406,0.029
				c0.035,0.002,0.068,0.006,0.105,0.008c0.037,0.012,0.076,0.031,0.115,0.031c0.335,0.004,0.671,0.004,1.006,0
				c0.039,0,0.078-0.02,0.117-0.029c0.035-0.004,0.07-0.006,0.105-0.008c0.146-0.011,0.293-0.021,0.439-0.031
				c0.035-0.002,0.071-0.004,0.105-0.006c0.098-0.01,0.195-0.021,0.295-0.03c2.271-0.247,4.322-1.023,6.068-2.521
				c1.58-1.354,2.717-3.023,3.41-4.988c0.258-0.729,0.398-1.484,0.461-2.256c0.141-1.742-0.169-3.418-0.779-5.043
				c-0.776-2.063-1.877-3.937-3.289-5.627c-1.365-1.639-2.952-3.029-4.719-4.22c-2.065-1.393-4.266-2.523-6.613-3.361
				c-1.498-0.535-3.03-0.939-4.6-1.211c-0.381-0.066-0.767-0.106-1.15-0.156c-0.389-0.05-0.776-0.099-1.166-0.148
				c-0.121-0.011-0.243-0.022-0.366-0.033c-0.022-0.001-0.048-0.003-0.07-0.004c-0.123-0.01-0.245-0.02-0.368-0.03
				c-0.059-0.002-0.117-0.004-0.178-0.006c-0.206-0.011-0.415-0.021-0.623-0.032c-0.07-0.002-0.143-0.004-0.214-0.006
				c-0.034-0.009-0.067-0.027-0.103-0.027c-0.328-0.002-0.658-0.002-0.985-0.001c-0.041,0-0.079,0.019-0.119,0.029
				c-0.071,0.002-0.144,0.004-0.215,0.006c-0.219,0.01-0.439,0.02-0.659,0.03c-0.065,0.003-0.132,0.007-0.166,0.009
				c-0.206,0.327-0.377,0.65-0.597,0.935c-0.711,0.917-1.648,1.453-2.802,1.61c-0.085,0.01-0.172,0.02-0.259,0.029
				c-0.191,0-0.384,0.001-0.576,0.001c-0.086-0.01-0.174-0.02-0.26-0.03c-1.731-0.279-2.923-1.238-3.484-2.895
				c-0.807-2.378,0.66-4.92,3.113-5.467c0.229-0.051,0.465-0.064,0.699-0.095c0.146,0,0.293,0,0.441,0
				c1.517,0.115,2.663,0.833,3.445,2.134c0.057,0.094,0.111,0.15,0.226,0.131c0.036-0.007,0.073-0.003,0.11-0.004
				c0.451,0,0.904,0.002,1.357,0.002c0.254,0,0.506-0.002,0.76-0.003c0.071,0.002,0.144,0.004,0.214,0.005
				c0.221,0.011,0.44,0.022,0.661,0.032c0.06,0.002,0.117,0.003,0.177,0.004c0.135,0.01,0.271,0.02,0.405,0.029
				c0.218,0.015,0.433,0.03,0.647,0.044c0.088,0.01,0.175,0.019,0.262,0.029c0.396,0.05,0.792,0.1,1.188,0.151
				c0.474,0.062,0.949,0.113,1.422,0.193c1.1,0.185,2.188,0.429,3.262,0.729c3.268,0.913,6.313,2.305,9.105,4.238
				c2.071,1.434,3.916,3.119,5.557,5.031c1.182,1.379,2.201,2.864,3.004,4.496c0.757,1.536,1.299,3.146,1.605,4.832
				c0.121,0.662,0.213,1.329,0.233,2.002c0.019,0.504,0.043,1.008,0.022,1.51c-0.073,1.931-0.463,3.787-1.377,5.508
				c-0.664,1.249-1.545,2.335-2.566,3.306c-1.238,1.173-2.633,2.121-4.167,2.864c-1.453,0.704-2.976,1.201-4.565,1.48
				c-0.513,0.09-1.031,0.146-1.548,0.219c-0.11,0.011-0.221,0.021-0.332,0.033c-0.034,0.002-0.067,0.004-0.104,0.004
				c-0.131,0.004-0.264,0.006-0.396,0.01c-0.207,0.01-0.416,0.019-0.623,0.029C51.268,65.773,50.938,65.773,50.609,65.773z"/>
			<path fill="#FFFFFF" d="M39.514,28.994c-0.254,0.001-0.506,0.003-0.76,0.003c-0.453,0-0.906-0.001-1.357-0.002
				c0.045-0.01,0.091-0.027,0.137-0.027c0.614-0.002,1.229-0.002,1.842,0C39.421,28.968,39.468,28.985,39.514,28.994z"/>
			<path fill="#FFFFFF" d="M24.003,62.021c-0.04,0.011-0.081,0.029-0.12,0.029c-0.419,0.002-0.838,0.002-1.257,0
				c-0.04,0-0.079-0.019-0.12-0.027C23.005,62.023,23.504,62.023,24.003,62.021z"/>
			<path fill="#FFFFFF" d="M52.836,62.314c-0.039,0.011-0.078,0.029-0.117,0.029c-0.335,0.004-0.671,0.004-1.006,0
				c-0.039,0-0.078-0.02-0.115-0.031C52.01,62.313,52.423,62.313,52.836,62.314z"/>
			<path fill="#FFFFFF" d="M38.379,32.598c0.04-0.01,0.078-0.028,0.119-0.029c0.328-0.001,0.658-0.001,0.986,0.001
				c0.033,0,0.066,0.018,0.102,0.027C39.184,32.598,38.781,32.598,38.379,32.598z"/>
			<path fill="#FFFFFF" d="M36.994,12.865c0.033-0.009,0.068-0.027,0.102-0.027c0.263-0.002,0.525-0.002,0.788,0.001
				c0.034,0,0.066,0.018,0.101,0.027C37.654,12.866,37.324,12.866,36.994,12.865z"/>
			<path fill="#FFFFFF" d="M23.563,65.689c0.057-0.01,0.115-0.025,0.172-0.027c0.188-0.004,0.373-0.001,0.559-0.001
				C24.05,65.671,23.806,65.68,23.563,65.689z"/>
			<path fill="#FFFFFF" d="M22.215,65.661c0.217,0,0.434,0,0.648,0.002c0.027,0,0.055,0.017,0.083,0.026
				C22.703,65.68,22.459,65.671,22.215,65.661z"/>
			<path fill="#FFFFFF" d="M28.445,45.705c-0.232,0-0.465,0-0.698,0C27.98,45.652,28.213,45.652,28.445,45.705z"/>
			<path fill="#FFFFFF" d="M40.389,29.032c-0.221-0.01-0.439-0.021-0.66-0.032C39.947,29.011,40.168,29.021,40.389,29.032z"/>
			<path fill="#FFFFFF" d="M37.505,32.635c0.22-0.01,0.44-0.021,0.659-0.03C37.945,32.614,37.725,32.625,37.505,32.635z"/>
			<path fill="#FFFFFF" d="M39.8,32.604c0.208,0.01,0.417,0.021,0.623,0.032C40.217,32.625,40.008,32.614,39.8,32.604z"/>
			<path fill="#FFFFFF" d="M48.832,40.389c-0.184,0-0.367,0-0.55,0C48.465,40.338,48.648,40.338,48.832,40.389z"/>
			<path fill="#FFFFFF" d="M49.773,65.734c0.149,0.011,0.299,0.02,0.447,0.029c-0.027,0.004-0.058,0.008-0.087,0.01
				C50.016,65.761,49.895,65.748,49.773,65.734z"/>
			<path fill="#FFFFFF" d="M33.615,26.733c-0.148,0-0.295,0-0.441,0C33.32,26.688,33.467,26.688,33.615,26.733z"/>
			<path fill="#FFFFFF" d="M53.382,62.275c-0.147,0.01-0.294,0.021-0.44,0.031C53.088,62.296,53.234,62.286,53.382,62.275z"/>
			<path fill="#FFFFFF" d="M24.657,61.984c-0.146,0.01-0.294,0.02-0.44,0.029C24.363,62.004,24.512,61.995,24.657,61.984z"/>
			<path fill="#FFFFFF" d="M22.257,62.016c-0.136-0.011-0.271-0.021-0.406-0.029C21.986,61.995,22.121,62.005,22.257,62.016z"/>
			<path fill="#FFFFFF" d="M51.491,62.307c-0.136-0.011-0.271-0.021-0.406-0.029C51.221,62.286,51.355,62.296,51.491,62.307z"/>
			<path fill="#FFFFFF" d="M24.471,65.657c0.135-0.011,0.271-0.021,0.406-0.031C24.742,65.636,24.605,65.646,24.471,65.657z"/>
			<path fill="#FFFFFF" d="M40.971,29.065c-0.136-0.009-0.271-0.02-0.406-0.029C40.699,29.046,40.835,29.056,40.971,29.065z"/>
			<path fill="#FFFFFF" d="M52.221,65.744c0.133-0.003,0.266-0.006,0.396-0.01c-0.133,0.013-0.268,0.025-0.4,0.037
				C52.217,65.762,52.219,65.752,52.221,65.744z"/>
			<path fill="#FFFFFF" d="M27.604,54.156c0.135,0.01,0.27,0.02,0.404,0.029C27.873,54.176,27.738,54.167,27.604,54.156z"/>
			<path fill="#FFFFFF" d="M41.039,32.675c0.123,0.01,0.245,0.021,0.367,0.033C41.284,32.697,41.162,32.686,41.039,32.675z"/>
			<path fill="#FFFFFF" d="M40.602,32.641c0.121,0.01,0.244,0.02,0.367,0.03C40.846,32.661,40.723,32.651,40.602,32.641z"/>
			<path fill="#FFFFFF" d="M21.633,65.625c0.123,0.01,0.246,0.02,0.369,0.03C21.879,65.646,21.756,65.636,21.633,65.625z"/>
			<path fill="#FFFFFF" d="M28.186,54.186c0.122-0.01,0.245-0.019,0.367-0.028C28.431,54.167,28.308,54.176,28.186,54.186z"/>
			<path fill="#FFFFFF" d="M21.711,61.98c-0.111-0.011-0.222-0.021-0.334-0.032C21.489,61.958,21.6,61.97,21.711,61.98z"/>
			<path fill="#FFFFFF" d="M49.303,65.698c0.11,0.01,0.221,0.021,0.332,0.03C49.523,65.719,49.413,65.708,49.303,65.698z"/>
			<path fill="#FFFFFF" d="M52.723,65.729c0.111-0.011,0.221-0.021,0.332-0.031C52.943,65.708,52.834,65.719,52.723,65.729z"/>
			<path fill="#FFFFFF" d="M50.945,62.271c-0.1-0.011-0.197-0.021-0.297-0.031C50.748,62.25,50.846,62.261,50.945,62.271z"/>
			<path fill="#FFFFFF" d="M53.783,62.239c-0.1,0.01-0.198,0.021-0.297,0.03C53.585,62.26,53.684,62.249,53.783,62.239z"/>
			<path fill="#FFFFFF" d="M25.095,61.948c-0.099,0.01-0.198,0.02-0.296,0.028C24.896,61.968,24.996,61.958,25.095,61.948z"/>
			<path fill="#FFFFFF" d="M38.203,9.262c-0.1-0.01-0.197-0.02-0.297-0.029C38.006,9.242,38.104,9.251,38.203,9.262z"/>
			<path fill="#FFFFFF" d="M21.232,65.588c0.099,0.01,0.196,0.021,0.295,0.031C21.429,65.609,21.331,65.6,21.232,65.588z"/>
			<path fill="#FFFFFF" d="M41.88,29.139c-0.087-0.01-0.174-0.019-0.261-0.029C41.706,29.12,41.793,29.129,41.88,29.139z"/>
			<path fill="#FFFFFF" d="M36.558,12.9c0.086-0.009,0.174-0.018,0.261-0.027C36.731,12.882,36.644,12.891,36.558,12.9z"/>
			<path fill="#FFFFFF" d="M33.682,35.218c0.087-0.01,0.174-0.02,0.259-0.029C33.855,35.198,33.769,35.208,33.682,35.218z"/>
			<path fill="#FFFFFF" d="M32.846,35.189c0.086,0.01,0.174,0.02,0.26,0.03C33.02,35.209,32.932,35.2,32.846,35.189z"/>
			<path fill="#FFFFFF" d="M48.975,65.663c0.073,0.009,0.148,0.019,0.225,0.026C49.123,65.682,49.048,65.672,48.975,65.663z"/>
			<path fill="#FFFFFF" d="M52.654,27.834c0.033-0.001,0.068-0.002,0.103-0.004C52.725,27.904,52.688,27.858,52.654,27.834z"/>
		</g>
	</g>
	<g display="none">
		<rect x="2.616" y="7.118" display="inline" fill="#FFFFFF" width="68.667" height="58.946"/>
		<path display="inline" fill="#D46FA3" d="M0,56.5c0-0.6,0-1.198,0-1.797c0-0.604,0-1.205,0-1.809c0-0.599,0-1.197,0-1.797
			c0-0.604,0-1.205,0-1.809c0-0.6,0-1.198,0-1.797c0-0.604,0-1.205,0-1.809c0-0.599,0-1.197,0-1.797c0-0.603,0-1.205,0-1.808
			c0-0.601,0-1.199,0-1.798c0-0.602,0-1.205,0-1.809c0-0.599,0-1.199,0-1.797c0-0.603,0-1.206,0-1.808c0-0.6,0-1.199,0-1.798
			c0-0.603,0-1.205,0-1.808c0-0.599,0-1.198,0-1.798c0-0.602,0-1.205,0-1.808c0-0.599,0-1.198,0-1.797c0-0.603,0-1.205,0-1.808
			c0-0.599,0-1.199,0-1.798c0-0.603,0-1.205,0-1.808c0-0.599,0-1.198,0-1.797c0-0.603,0-1.205,0-1.808c0-0.599,0-1.198,0-1.798
			c0-0.603,0-1.205,0-1.808c0-0.599,0-1.198,0-1.797c0-0.603,0-1.206,0-1.808C0,9.03,0,8.431,0,7.832
			C0.004,7.541,0.008,7.251,0.012,6.96c0.074-0.401,0.149-0.802,0.224-1.204C0.399,5.25,0.561,4.744,0.725,4.237
			c0,0-0.002-0.002-0.002-0.003C0.83,4.052,0.939,3.866,1.047,3.681c0.045-0.08,0.09-0.159,0.135-0.239
			C1.258,3.34,1.333,3.239,1.408,3.138c0.016-0.022,0.025-0.046,0.031-0.073C1.596,2.857,1.754,2.65,1.912,2.443
			C1.961,2.404,2.01,2.364,2.06,2.324c0.153-0.145,0.31-0.291,0.462-0.436C2.759,1.702,2.994,1.516,3.229,1.33
			C3.582,1.145,3.93,0.955,4.285,0.776C4.57,0.631,4.861,0.499,5.15,0.361C5.354,0.32,5.556,0.278,5.758,0.237
			c0.461-0.076,0.92-0.152,1.379-0.228C7.639,0.007,8.143,0.003,8.645,0c0.6,0,1.199,0,1.799,0c0.602,0,1.205,0,1.807,0
			c0.6,0,1.199,0,1.799,0c0.602,0,1.205,0,1.807,0c0.6,0,1.197,0,1.799,0c0.631,0,1.265,0,1.896,0c0.6,0,1.199,0,1.798,0
			c0.603,0,1.206,0,1.808,0c0.6,0,1.199,0,1.798,0c0.603,0,1.205,0,1.808,0c0.599,0,1.199,0,1.797,0c0.603,0,1.205,0,1.808,0
			c0.599,0,1.198,0,1.798,0c0.603,0,1.205,0,1.808,0c0.599,0,1.198,0,1.798,0c0.633,0,1.266,0,1.897,0c0.6,0,1.198,0,1.798,0
			c0.603,0,1.205,0,1.808,0c0.6,0,1.199,0,1.799,0c0.603,0,1.205,0,1.808,0c0.599,0,1.198,0,1.798,0c0.603,0,1.205,0,1.807,0
			c0.601,0,1.199,0,1.8,0c0.603,0,1.204,0,1.808,0c0.6,0,1.198,0,1.797,0c0.692,0,1.387,0,2.078,0c0.6,0,1.198,0,1.799,0
			c0.603,0,1.205,0,1.808,0c0.599,0,1.198,0,1.798,0c0.604,0,1.205,0,1.809,0c0.598,0,1.196,0,1.797,0c0.604,0,1.205,0,1.809,0.001
			c0.499,0.001,0.999,0.002,1.499,0.003c0.372,0.076,0.743,0.152,1.116,0.229c0.328,0.081,0.654,0.162,0.98,0.242
			c0.115,0.051,0.23,0.101,0.346,0.151c0.484,0.281,0.97,0.563,1.453,0.844c0.354,0.32,0.709,0.641,1.063,0.96
			c0.338,0.461,0.674,0.922,1.012,1.383c0.06,0.138,0.117,0.276,0.179,0.414c0.209,0.602,0.418,1.204,0.625,1.806
			c0.032,2.896,0.088,5.791,0.096,8.686c0.013,5.375-0.004,10.75-0.004,16.124c-0.002,5.855-0.002,11.71,0,17.565
			c0,6.426,0.007,12.852,0.004,19.277c0,0.478-0.061,0.957-0.094,1.434c-0.002,0.046-0.004,0.091-0.006,0.137
			c-0.037,0.076-0.074,0.152-0.111,0.229c-0.012,0.061-0.023,0.121-0.037,0.184c-0.029,0.088-0.057,0.177-0.086,0.266
			c-0.123,0.33-0.247,0.661-0.371,0.991c-0.092,0.181-0.184,0.361-0.273,0.542c-0.277,0.383-0.554,0.768-0.83,1.15
			c-0.387,0.361-0.772,0.725-1.158,1.088c-0.477,0.275-0.955,0.551-1.432,0.827c-0.123,0.055-0.246,0.108-0.369,0.163
			c-0.207,0.053-0.414,0.104-0.621,0.154c-0.061,0.021-0.121,0.043-0.182,0.063c-0.061,0.011-0.121,0.021-0.18,0.032
			c-0.074,0.033-0.148,0.068-0.223,0.103c-0.201,0.031-0.402,0.062-0.603,0.093c-0.601,0.008-1.198,0.017-1.797,0.023
			c-0.603,0-1.202,0-1.804,0c-0.601,0-1.201,0-1.803,0s-1.201,0-1.802,0s-1.202,0-1.804,0s-1.201,0-1.803,0
			c-0.601,0-1.201,0-1.804,0c-0.69,0-1.381,0-2.071,0c-0.603,0-1.203,0-1.806,0c-0.599,0-1.2,0-1.801,0s-1.201,0-1.804,0
			c-0.601,0-1.2,0-1.801,0c-0.602,0-1.203,0-1.805,0s-1.201,0-1.801,0c-0.602,0-1.203,0-1.805,0s-1.201,0-1.801,0
			c-0.603,0-1.203,0-1.805,0c-0.632,0-1.263,0-1.892,0c-0.602,0-1.203,0-1.805,0c-0.601,0-1.201,0-1.801,0c-0.602,0-1.203,0-1.805,0
			c-0.6,0-1.201,0-1.801,0c-0.602,0-1.202,0-1.804,0c-0.601,0-1.202,0-1.802,0c-0.602,0-1.202,0-1.804,0c-0.601,0-1.2,0-1.802,0
			s-1.202,0-1.804,0c-0.63,0-1.261,0-1.892,0c-0.601,0-1.202,0-1.804,0c-0.601,0-1.2,0-1.802,0c-0.601,0-1.202,0-1.804,0
			c-0.601,0-1.2,0-1.802,0c-0.601,0-1.202,0-1.804,0c-0.601-0.006-1.2-0.012-1.8-0.02c-0.291-0.028-0.582-0.058-0.872-0.086
			c-0.071-0.041-0.142-0.08-0.212-0.119c-0.063-0.008-0.127-0.018-0.189-0.025c-0.086-0.028-0.174-0.057-0.262-0.085
			c-0.086-0.019-0.171-0.036-0.256-0.054c-0.086-0.027-0.172-0.056-0.257-0.084c-0.519-0.265-1.038-0.53-1.558-0.795
			c-1.064-0.803-1.907-1.791-2.52-2.975c-0.194-0.838-0.389-1.676-0.588-2.513c-0.011-0.05-0.072-0.089-0.109-0.134
			c-0.006-0.319-0.014-0.64-0.02-0.959c0-0.601,0-1.198,0-1.797c0-0.604,0-1.205,0-1.809c0-0.6,0-1.197,0-1.797
			c0-0.604,0-1.205,0-1.809c0-0.599,0-1.198,0-1.797C0,57.705,0,57.102,0,56.5z M18.24,46.775c-0.282,0.168-0.441,0.273-0.609,0.363
			c-0.83,0.446-1.688,0.85-2.49,1.34c-1.648,1.01-3.261,2.063-4.71,3.362c-1.622,1.455-2.774,3.138-3.007,5.351
			c-0.147,1.425,0.149,2.754,1.029,3.903c0.598,0.783,1.455,1.108,2.419,1.212c1.619,0.176,3.206,0.072,4.737-0.517
			c1.78-0.685,3.29-1.754,4.531-3.209c1.531-1.796,2.364-3.881,2.544-6.216c0.136-1.764,0.034-3.512-0.804-5.174
			c1.195-0.682,2.362-1.349,3.646-2.082c-0.054,0.265-0.065,0.38-0.101,0.486c-0.437,1.381-0.69,2.807-0.695,4.244
			c-0.001,0.959,0.221,1.926,0.396,2.877c0.189,1.016,0.643,1.932,1.266,2.752c0.393,0.518,0.899,0.824,1.594,0.876
			c1.053,0.079,1.828-0.345,2.333-1.212c0.571-0.98,1.063-2.009,1.574-3.025c0.224-0.444,0.406-0.909,0.608-1.364
			c0.104,0.142,0.115,0.266,0.115,0.391c0,0.583-0.067,1.175,0.013,1.746c0.087,0.612,0.247,1.231,0.489,1.8
			c0.283,0.666,1.072,0.947,1.748,0.686c0.816-0.317,1.393-0.941,1.83-1.664c0.635-1.047,1.254-2.109,1.796-3.207
			c1.17-2.378,2.293-4.78,3.423-7.18c0.313-0.666,0.58-1.354,0.918-2.146c0.226,0.868,0.365,1.623,0.622,2.335
			c0.333,0.924,0.756,1.815,1.146,2.718c0.117,0.271,0.316,0.514,0.063,0.826c-0.826,1.026-1.646,2.061-2.461,3.094
			c-0.66,0.834-1.369,1.635-1.955,2.519s-0.187,1.649,0.858,1.835c0.134,0.023,0.271,0.023,0.406,0.023
			c1.783,0.025,3.398-0.548,4.862-1.513c0.978-0.646,1.702-1.519,2.038-2.703c0.384-1.348,0.139-2.616-0.35-3.86
			c-0.172-0.438-0.213-0.777,0.113-1.146c0.194-0.222,0.352-0.485,0.5-0.744c0.977-1.702,1.944-3.409,2.918-5.114
			c0.032-0.056,0.092-0.098,0.153-0.164c0.052,0.084,0.101,0.131,0.108,0.185c0.295,1.634,0.804,3.192,1.597,4.657
			c0.054,0.101-0.026,0.344-0.123,0.447c-0.544,0.578-1.147,1.102-1.662,1.705c-0.921,1.082-1.634,2.283-1.896,3.715
			c-0.303,1.64,0.621,2.709,2.092,2.324c1.791-0.469,3.375-1.326,4.588-2.769c0.709-0.841,1.17-1.791,1.029-2.925
			c-0.076-0.62-0.198-1.242-0.377-1.842c-0.108-0.375-0.019-0.521,0.328-0.607c0.58-0.146,1.149-0.348,1.735-0.457
			c2.115-0.387,4.218-0.275,6.274,0.325c1.627,0.474,3.033,1.313,3.938,2.806c0.903,1.484,0.988,3.197-0.481,4.528
			c-0.31,0.28-0.676,0.493-0.996,0.761c-0.098,0.081-0.209,0.299-0.172,0.355c0.078,0.11,0.248,0.176,0.393,0.216
			c0.09,0.024,0.205-0.022,0.303-0.054c1.969-0.606,3.33-2.869,2.977-4.89c-0.514-2.926-2.348-4.716-4.997-5.757
			c-2.351-0.923-4.783-0.93-7.214-0.376c-1,0.228-1.961,0.62-2.989,0.953c-0.154-0.282-0.33-0.608-0.509-0.933
			c-0.78-1.418-1.163-2.928-0.91-4.541c0.122-0.792,0.354-1.575,0.599-2.341c0.263-0.822,0.087-1.181-0.768-1.242
			c-0.58-0.042-1.168-0.047-1.744,0.01c-1.242,0.124-1.418,0.352-1.697,1.36c-0.28,1.004-0.567,2.024-1.012,2.962
			c-0.681,1.434-1.485,2.807-2.256,4.197c-0.313,0.566-0.673,1.106-1.044,1.711c-0.165-0.313-0.29-0.549-0.414-0.782
			c-0.571-1.068-0.725-2.248-0.633-3.406c0.078-1.016,0.414-2.015,0.677-3.012c0.168-0.637,0.065-0.973-0.582-1.023
			c-0.843-0.066-1.699-0.02-2.541,0.068c-0.706,0.074-0.841,0.311-1.019,0.997c-0.184,0.709-0.388,1.421-0.67,2.095
			c-0.652,1.561-1.346,3.104-2.045,4.644c-1.063,2.347-2.146,4.685-3.229,7.021c-0.173,0.373-0.394,0.725-0.594,1.084
			c-0.06-0.01-0.12-0.02-0.182-0.029c-0.003-0.396-0.083-0.813,0.002-1.188c0.521-2.308,1.07-4.608,1.636-6.906
			c0.158-0.637,0.137-0.967-0.238-1.27c-0.427-0.344-1.073-0.417-1.525-0.176c-0.094,0.05-0.193,0.086-0.306,0.135
			c0-0.771,0.079-1.494-0.016-2.193c-0.234-1.735-1.423-2.169-2.877-1.803c-1.806,0.459-3.168,1.633-4.384,2.993
			c-0.316,0.353-0.611,0.763-1.005,0.998c-1.325,0.788-2.689,1.509-4.04,2.253c-0.723,0.396-1.447,0.788-2.188,1.19
			c-0.245-0.232-0.46-0.462-0.701-0.659c-1.807-1.48-3.621-2.953-5.432-4.43c-1.256-1.024-2.449-2.109-3.32-3.503
			c-0.918-1.471-1.201-3.053-0.824-4.742c0.529-2.364,1.938-4.188,3.646-5.812c1.745-1.66,3.723-3.009,5.792-4.227
			c2.16-1.271,4.383-2.423,6.723-3.321c2.219-0.85,4.494-1.483,6.864-1.765c2.378-0.284,4.73-0.279,7.014,0.541
			c0.966,0.347,1.881,0.843,2.408,1.78c0.765,1.357,0.646,2.794,0.121,4.177c-1.141,3.021-3.365,5.13-6.026,6.811
			c-1.523,0.962-3.167,1.688-4.91,2.189c-2.191,0.63-4.397,1.072-6.689,0.774c-1.555-0.203-2.965-0.718-4.073-1.896
			c-0.135-0.144-0.442-0.277-0.594-0.217c-0.286,0.111-0.21,0.41-0.126,0.667c0.459,1.407,1.561,2.202,2.778,2.854
			c1.383,0.738,2.899,0.909,4.444,0.937c2.22,0.041,4.391-0.254,6.527-0.851c1.813-0.506,3.574-1.137,5.167-2.146
			c1.939-1.229,3.619-2.743,4.961-4.631c1.609-2.262,2.619-4.705,2.496-7.527c-0.076-1.777-0.707-3.32-2.008-4.565
			c-1.576-1.505-3.527-2.265-5.604-2.688c-2.018-0.412-4.07-0.523-6.133-0.313c-2.155,0.219-4.27,0.621-6.314,1.343
			c-1.073,0.378-2.139,0.778-3.193,1.206c-2.182,0.883-4.29,1.925-6.326,3.106c-2.457,1.425-4.768,3.053-6.813,5.031
			c-2.02,1.949-3.717,4.119-4.76,6.783c-0.895,2.284-0.559,4.37,0.672,6.392c1.045,1.714,2.443,3.125,4,4.349
			c1.813,1.423,3.729,2.714,5.596,4.066C16.754,45.668,17.445,46.188,18.24,46.775z"/>
		<path display="inline" fill="#D470A4" d="M19.818,48.168c0.332,1.28,0.458,2.48,0.238,3.716c-0.367,2.083-1.427,3.767-3.007,5.113
			c-1.095,0.933-2.358,1.603-3.845,1.659c-1.131,0.042-1.68-0.53-1.689-1.666c-0.014-1.426,0.604-2.609,1.458-3.684
			c1.075-1.353,2.478-2.338,3.887-3.302c0.815-0.558,1.669-1.06,2.505-1.583C19.49,48.344,19.622,48.277,19.818,48.168z"/>
		<path display="inline" fill="#D572A5" d="M28.11,49.709c0.038-2.313,0.604-4.334,1.697-6.216c0.567-0.976,1.135-1.944,2.112-2.574
			c0.25-0.161,0.52-0.302,0.799-0.403c0.506-0.188,0.867,0.077,0.771,0.604c-0.14,0.765-0.299,1.535-0.555,2.267
			c-0.729,2.076-1.488,4.143-2.284,6.193c-0.302,0.777-0.731,1.505-1.116,2.249c-0.067,0.129-0.188,0.233-0.297,0.335
			c-0.258,0.236-0.469,0.207-0.651-0.107C28.143,51.28,28.179,50.416,28.11,49.709z"/>
		<path display="inline" fill="#D674A7" d="M52.063,50.243c-0.396-0.833,1.158-3.729,2.42-4.546
			C55.163,46.813,54.635,49.421,52.063,50.243z"/>
		<path display="inline" fill="#D77AAA" d="M42.527,52.4c1.096-1.281,2.145-2.512,3.205-3.752
			C46.17,49.768,43.926,52.424,42.527,52.4z"/>
	</g>
</g>
</svg>
