<?xml version="1.0" encoding="utf-8"?>
<!-- Generator: Adobe Illustrator 16.0.0, SVG Export Plug-In . SVG Version: 6.00 Build 0)  -->
<!DOCTYPE svg PUBLIC "-//W3C//DTD SVG 1.0//EN" "http://www.w3.org/TR/2001/REC-SVG-20010904/DTD/svg10.dtd">
<svg version="1.0" id="Layer_1" xmlns="http://www.w3.org/2000/svg" xmlns:xlink="http://www.w3.org/1999/xlink" x="0px" y="0px"
	 width="75px" height="75px" viewBox="0 0 75 75" enable-background="new 0 0 75 75" xml:space="preserve">
<g id="home_x5F_icons">
	<g display="none">
		<polygon display="inline" fill="#264DE3" points="64.736,67.375 37.531,73.25 10.25,67.375 10.25,1.875 64.736,1.875 		"/>
		<g display="inline">
			<path fill="#264DE3" d="M4.421,0.285c0-0.091,0-0.184,0-0.276C4.513,0.006,4.604,0,4.695,0c21.861,0,43.721,0,65.581,0
				c0.101,0,0.197,0,0.301,0c0,0.104,0.006,0.177-0.001,0.249c-0.229,2.572-0.468,5.143-0.695,7.715
				c-0.229,2.572-0.45,5.146-0.681,7.718c-0.25,2.782-0.506,5.564-0.754,8.347c-0.213,2.38-0.416,4.761-0.629,7.141
				c-0.268,2.975-0.539,5.948-0.805,8.923c-0.279,3.095-0.554,6.188-0.83,9.282c-0.275,3.094-0.552,6.188-0.828,9.282
				c-0.258,2.883-0.518,5.767-0.767,8.651c-0.017,0.189-0.077,0.26-0.256,0.31c-2.565,0.706-5.128,1.42-7.69,2.132
				c-5.74,1.59-11.479,3.178-17.218,4.77c-0.614,0.172-1.225,0.361-1.836,0.543c-0.075,0-0.147,0-0.222,0
				c-0.083-0.035-0.162-0.078-0.248-0.102c-1.043-0.29-2.087-0.577-3.13-0.867c-7.772-2.158-15.544-4.318-23.315-6.472
				c-0.163-0.046-0.235-0.101-0.25-0.285c-0.105-1.282-0.224-2.563-0.34-3.845c-0.156-1.758-0.316-3.516-0.474-5.272
				c-0.155-1.739-0.304-3.479-0.46-5.218c-0.157-1.758-0.318-3.516-0.476-5.271c-0.155-1.75-0.306-3.498-0.462-5.246
				c-0.174-1.959-0.355-3.918-0.53-5.875c-0.157-1.758-0.307-3.516-0.464-5.274c-0.191-2.16-0.392-4.319-0.585-6.48
				c-0.155-1.757-0.306-3.515-0.462-5.273c-0.176-1.959-0.355-3.917-0.529-5.875C5.464,11.748,5.295,9.789,5.121,7.83
				C4.944,5.805,4.764,3.781,4.579,1.759C4.536,1.267,4.474,0.776,4.421,0.285z M37.477,52.111
				c-2.992-0.811-5.987-1.623-8.982-2.428c-0.173-0.047-0.263-0.11-0.278-0.303c-0.127-1.521-0.263-3.04-0.398-4.559
				c-0.053-0.602-0.109-1.201-0.164-1.803c-2.787,0-5.541,0-8.313,0c0.086,0.951,0.171,1.883,0.254,2.816
				c0.136,1.546,0.269,3.094,0.406,4.641c0.157,1.758,0.322,3.515,0.471,5.272c0.018,0.214,0.093,0.287,0.291,0.342
				c4.83,1.335,9.656,2.679,14.485,4.019c0.74,0.207,1.486,0.399,2.229,0.599c0.019,0.006,0.036,0.012,0.055,0.019
				c0,2.838,0,5.676,0,8.539c0.113-0.008,0.187,0,0.254-0.019c1.445-0.399,2.893-0.802,4.338-1.203
				c1.518-0.421,3.032-0.843,4.549-1.264c1.667-0.464,3.334-0.923,5-1.386c1.711-0.476,3.422-0.951,5.133-1.427
				c0.774-0.215,1.551-0.43,2.327-0.642c0.162-0.044,0.294-0.107,0.308-0.299c0.057-0.721,0.109-1.44,0.168-2.159
				c0.037-0.456,0.078-0.911,0.121-1.365c0.066-0.746,0.142-1.489,0.207-2.235c0.045-0.481,0.078-0.966,0.121-1.447
				c0.067-0.772,0.143-1.545,0.213-2.318c0.041-0.464,0.076-0.929,0.119-1.393c0.067-0.745,0.145-1.49,0.209-2.235
				c0.047-0.5,0.076-1.002,0.121-1.503c0.067-0.773,0.143-1.545,0.213-2.318c0.041-0.463,0.076-0.929,0.118-1.393
				c0.068-0.736,0.146-1.471,0.212-2.208c0.045-0.491,0.074-0.984,0.117-1.476c0.069-0.772,0.145-1.545,0.215-2.317
				c0.041-0.466,0.076-0.929,0.119-1.393c0.068-0.754,0.143-1.508,0.211-2.263c0.042-0.492,0.074-0.984,0.117-1.475
				c0.068-0.764,0.145-1.527,0.214-2.291c0.043-0.473,0.076-0.947,0.121-1.42c0.067-0.717,0.146-1.435,0.209-2.152
				c0.046-0.51,0.074-1.021,0.119-1.531c0.067-0.782,0.144-1.563,0.213-2.345c0.041-0.455,0.077-0.91,0.12-1.365
				c0.068-0.764,0.143-1.527,0.211-2.291c0.044-0.491,0.077-0.983,0.123-1.475c0.064-0.727,0.143-1.453,0.208-2.18
				c0.044-0.501,0.075-1.003,0.12-1.503c0.064-0.718,0.146-1.435,0.21-2.153c0.046-0.51,0.075-1.021,0.118-1.531
				c0.068-0.782,0.144-1.563,0.214-2.346c0.043-0.464,0.083-0.927,0.125-1.392c0.062-0.667,0.124-1.335,0.188-2.026
				c-0.117,0-0.201,0-0.281,0c-8.811,0-17.621,0.001-26.432-0.006c-0.266,0-0.317,0.084-0.315,0.328
				c0.006,2.649,0.004,5.297,0.004,7.946c-0.019,0.006-0.036,0.012-0.053,0.019c-0.064-0.003-0.129-0.008-0.192-0.008
				c-6.767,0-13.533,0-20.3,0c-0.079,0-0.161,0.008-0.25,0.014c0.251,2.763,0.5,5.504,0.751,8.268c0.136,0,0.244,0,0.354,0
				c6.444,0,12.889,0,19.335,0c0.1,0,0.2-0.006,0.301-0.01c0.019,0.008,0.036,0.016,0.055,0.022c0,2.822,0,5.643,0,8.465
				c-0.019,0.008-0.036,0.015-0.055,0.022c-0.054-0.003-0.109-0.009-0.165-0.009c-6.279,0-12.559,0-18.84,0.001
				c-0.078,0-0.156,0.01-0.243,0.016c0.247,2.767,0.495,5.509,0.741,8.267c0.13,0,0.23,0,0.33,0c5.969,0,11.935,0,17.902,0
				c0.092,0,0.185-0.006,0.274-0.01c0.019,0.008,0.036,0.014,0.055,0.021c0,4.267,0,8.53,0.001,12.795
				c0,0.138,0.007,0.276,0.011,0.413C37.521,52.09,37.499,52.102,37.477,52.111z"/>
			<path fill="#2965F0" d="M37.531,13.796c0-2.649,0.002-5.297-0.004-7.946c-0.002-0.243,0.05-0.328,0.315-0.328
				c8.811,0.007,17.621,0.006,26.432,0.006c0.08,0,0.164,0,0.281,0c-0.064,0.691-0.129,1.359-0.188,2.026
				c-0.042,0.465-0.082,0.928-0.125,1.392c-0.07,0.782-0.146,1.563-0.214,2.346c-0.043,0.51-0.072,1.021-0.118,1.531
				c-0.063,0.718-0.146,1.435-0.21,2.153c-0.045,0.5-0.076,1.001-0.12,1.503c-0.065,0.727-0.144,1.453-0.208,2.18
				c-0.046,0.492-0.079,0.984-0.123,1.475c-0.068,0.764-0.143,1.527-0.211,2.291c-0.043,0.455-0.079,0.91-0.12,1.365
				c-0.069,0.782-0.146,1.563-0.213,2.345c-0.045,0.51-0.073,1.021-0.119,1.531c-0.063,0.717-0.142,1.435-0.209,2.152
				c-0.045,0.473-0.078,0.947-0.121,1.42c-0.069,0.764-0.146,1.526-0.214,2.291c-0.043,0.491-0.075,0.983-0.117,1.475
				c-0.068,0.754-0.143,1.508-0.211,2.263c-0.043,0.464-0.079,0.928-0.12,1.393c-0.069,0.771-0.145,1.544-0.214,2.318
				c-0.043,0.49-0.072,0.983-0.117,1.475c-0.066,0.736-0.144,1.471-0.212,2.208c-0.042,0.464-0.077,0.929-0.118,1.394
				c-0.07,0.771-0.146,1.545-0.214,2.317c-0.044,0.5-0.073,1.003-0.12,1.503c-0.064,0.745-0.142,1.491-0.209,2.234
				c-0.043,0.465-0.078,0.93-0.119,1.394c-0.07,0.772-0.146,1.545-0.213,2.317c-0.043,0.482-0.076,0.967-0.121,1.449
				c-0.065,0.744-0.141,1.489-0.207,2.234c-0.043,0.455-0.084,0.91-0.121,1.365c-0.059,0.719-0.111,1.438-0.168,2.158
				c-0.014,0.193-0.146,0.256-0.308,0.3c-0.776,0.212-1.553,0.427-2.327,0.642c-1.711,0.475-3.422,0.951-5.133,1.426
				c-1.666,0.463-3.333,0.924-5,1.387c-1.518,0.42-3.031,0.842-4.549,1.264c-1.445,0.4-2.893,0.803-4.338,1.203
				c-0.067,0.02-0.141,0.011-0.254,0.02c0-2.862,0-5.701,0-8.541c0.663-0.188,1.323-0.379,1.987-0.563
				c4.916-1.363,9.832-2.727,14.748-4.085c0.143-0.039,0.205-0.097,0.217-0.259c0.067-0.887,0.15-1.775,0.229-2.663
				c0.142-1.575,0.283-3.148,0.425-4.724c0.137-1.519,0.27-3.039,0.404-4.558c0.157-1.767,0.318-3.532,0.477-5.299
				c0.137-1.528,0.27-3.057,0.406-4.586c0.141-1.564,0.283-3.129,0.424-4.695c0.137-1.519,0.27-3.039,0.404-4.558
				c0.157-1.775,0.316-3.551,0.479-5.326c0.121-1.354,0.246-2.709,0.367-4.063c0.045-0.508,0.086-1.015,0.129-1.542
				c-0.146,0-0.254,0-0.363,0c-6.668,0-13.336,0-20.003,0C37.751,13.805,37.642,13.799,37.531,13.796z"/>
			<path fill="#FEFEFE" d="M37.531,13.796c0.11,0.003,0.22,0.009,0.329,0.009c6.667,0,13.335,0,20.003,0c0.109,0,0.217,0,0.363,0
				c-0.043,0.526-0.084,1.034-0.129,1.542c-0.121,1.354-0.246,2.709-0.367,4.063c-0.16,1.775-0.32,3.551-0.479,5.326
				c-0.136,1.52-0.268,3.039-0.404,4.558c-0.141,1.565-0.283,3.13-0.424,4.695c-0.138,1.529-0.271,3.058-0.406,4.586
				c-0.158,1.767-0.318,3.532-0.477,5.299c-0.137,1.521-0.27,3.039-0.404,4.558c-0.142,1.574-0.283,3.148-0.425,4.724
				c-0.079,0.888-0.162,1.774-0.229,2.663c-0.012,0.162-0.074,0.221-0.217,0.259c-4.916,1.36-9.832,2.722-14.748,4.085
				c-0.664,0.184-1.324,0.375-1.987,0.563c-0.019-0.006-0.036-0.012-0.055-0.018c0-2.865,0-5.73,0-8.598
				c0.022-0.01,0.044-0.021,0.066-0.03c1.205-0.323,2.41-0.644,3.614-0.97c1.771-0.477,3.541-0.955,5.313-1.434
				c0.133-0.035,0.258-0.048,0.272-0.242c0.125-1.492,0.258-2.982,0.392-4.475c0.139-1.555,0.28-3.109,0.42-4.665
				c0.043-0.471,0.08-0.942,0.121-1.435c-0.129,0-0.229,0-0.33,0c-3.171,0-6.342,0-9.514,0c-0.101,0-0.2,0.007-0.301,0.01
				c-0.019-0.006-0.036-0.014-0.055-0.02c0-2.756,0-5.511,0-8.266c0.019-0.007,0.036-0.015,0.055-0.022
				c0.054,0.004,0.107,0.012,0.163,0.012c3.501,0,7.003,0,10.503,0c0.063,0,0.125-0.01,0.201-0.018
				c0.252-2.823,0.5-5.634,0.752-8.472c-0.129,0-0.209,0-0.289,0c-3.705,0-7.408,0-11.111,0c-0.073,0-0.146,0.008-0.219,0.012
				c-0.019-0.007-0.036-0.015-0.055-0.022c0-2.754,0.002-5.508,0.002-8.263C37.495,13.808,37.513,13.802,37.531,13.796z"/>
			<path fill="#EAEAEA" d="M37.477,52.111c0,2.865,0,5.73,0,8.597c-0.742-0.199-1.488-0.394-2.229-0.599
				c-4.829-1.34-9.655-2.684-14.485-4.019c-0.198-0.055-0.273-0.128-0.291-0.342c-0.148-1.758-0.313-3.515-0.471-5.272
				c-0.138-1.547-0.271-3.094-0.406-4.641c-0.083-0.934-0.168-1.866-0.254-2.816c2.771,0,5.525,0,8.313,0
				c0.055,0.602,0.111,1.201,0.164,1.803c0.136,1.52,0.271,3.039,0.398,4.559c0.016,0.192,0.105,0.256,0.278,0.303
				C31.489,50.488,34.484,51.301,37.477,52.111z"/>
			<path fill="#EAEAEA" d="M37.479,13.814c0,2.755-0.002,5.509-0.002,8.263c-0.101,0.004-0.201,0.01-0.301,0.01
				c-6.446,0-12.891,0-19.335,0c-0.109,0-0.218,0-0.354,0c-0.251-2.763-0.5-5.505-0.751-8.268c0.089-0.005,0.171-0.014,0.25-0.014
				c6.767,0,13.533,0,20.3,0C37.35,13.806,37.414,13.812,37.479,13.814z"/>
			<path fill="#EAEAEA" d="M37.477,30.587c0,2.755,0,5.51,0,8.265c-0.09,0.004-0.183,0.01-0.274,0.01c-5.968,0-11.934,0-17.902,0
				c-0.1,0-0.2,0-0.33,0c-0.246-2.757-0.494-5.5-0.741-8.267c0.087-0.006,0.165-0.016,0.243-0.016
				c6.281-0.001,12.561-0.001,18.84-0.001C37.367,30.578,37.423,30.584,37.477,30.587z"/>
			<path fill="#2965F0" d="M37.531,38.872c0.101-0.003,0.2-0.011,0.301-0.011c3.172,0,6.343,0,9.514,0c0.102,0,0.201,0,0.33,0
				c-0.041,0.494-0.078,0.965-0.121,1.436c-0.14,1.555-0.281,3.11-0.42,4.665c-0.134,1.491-0.267,2.983-0.392,4.476
				c-0.017,0.193-0.142,0.207-0.272,0.242c-1.771,0.478-3.541,0.957-5.313,1.434c-1.204,0.324-2.409,0.646-3.614,0.969
				c-0.004-0.137-0.011-0.275-0.011-0.413C37.531,47.402,37.531,43.139,37.531,38.872z"/>
			<path fill="#2A65F0" d="M37.531,22.1c0.072-0.004,0.146-0.012,0.219-0.012c3.703,0,7.407,0,11.111,0c0.08,0,0.16,0,0.289,0
				c-0.252,2.838-0.5,5.649-0.752,8.472c-0.076,0.007-0.139,0.018-0.2,0.018c-3.5,0-7.003,0-10.504,0
				c-0.056,0-0.109-0.008-0.163-0.012C37.531,27.743,37.531,24.922,37.531,22.1z"/>
		</g>
	</g>
	<g>
		<rect x="2.616" y="7.118" fill="#FFFFFF" width="68.667" height="58.946"/>
		<path fill="#D46FA3" d="M0,56.5c0-0.6,0-1.198,0-1.797c0-0.604,0-1.205,0-1.809c0-0.599,0-1.197,0-1.797c0-0.604,0-1.205,0-1.809
			c0-0.6,0-1.198,0-1.797c0-0.604,0-1.205,0-1.809c0-0.599,0-1.197,0-1.797c0-0.603,0-1.205,0-1.808c0-0.601,0-1.199,0-1.798
			c0-0.602,0-1.205,0-1.809c0-0.599,0-1.199,0-1.797c0-0.603,0-1.206,0-1.808c0-0.6,0-1.199,0-1.798c0-0.603,0-1.205,0-1.808
			c0-0.599,0-1.198,0-1.798c0-0.602,0-1.205,0-1.808c0-0.599,0-1.198,0-1.797c0-0.603,0-1.205,0-1.808c0-0.599,0-1.199,0-1.798
			c0-0.603,0-1.205,0-1.808c0-0.599,0-1.198,0-1.797c0-0.603,0-1.205,0-1.808c0-0.599,0-1.198,0-1.798c0-0.603,0-1.205,0-1.808
			c0-0.599,0-1.198,0-1.797c0-0.603,0-1.206,0-1.808C0,9.03,0,8.431,0,7.832C0.004,7.541,0.008,7.251,0.012,6.96
			c0.074-0.401,0.149-0.802,0.224-1.204C0.399,5.25,0.561,4.744,0.725,4.237c0,0-0.002-0.002-0.002-0.003
			C0.83,4.052,0.939,3.866,1.047,3.681c0.045-0.08,0.09-0.159,0.135-0.239C1.258,3.34,1.333,3.239,1.408,3.138
			c0.016-0.022,0.025-0.046,0.031-0.073C1.596,2.857,1.754,2.65,1.912,2.443C1.961,2.404,2.01,2.364,2.06,2.324
			c0.153-0.145,0.31-0.291,0.462-0.436C2.759,1.702,2.994,1.516,3.229,1.33C3.582,1.145,3.93,0.955,4.285,0.776
			C4.57,0.631,4.861,0.499,5.15,0.361C5.354,0.32,5.556,0.278,5.758,0.237c0.461-0.076,0.92-0.152,1.379-0.228
			C7.639,0.007,8.143,0.003,8.645,0c0.6,0,1.199,0,1.799,0c0.602,0,1.205,0,1.807,0c0.6,0,1.199,0,1.799,0c0.602,0,1.205,0,1.807,0
			c0.6,0,1.197,0,1.799,0c0.631,0,1.265,0,1.896,0c0.6,0,1.199,0,1.798,0c0.603,0,1.206,0,1.808,0c0.6,0,1.199,0,1.798,0
			c0.603,0,1.205,0,1.808,0c0.599,0,1.199,0,1.797,0c0.603,0,1.205,0,1.808,0c0.599,0,1.198,0,1.798,0c0.603,0,1.205,0,1.808,0
			c0.599,0,1.198,0,1.798,0c0.633,0,1.266,0,1.897,0c0.6,0,1.198,0,1.798,0c0.603,0,1.205,0,1.808,0c0.6,0,1.199,0,1.799,0
			c0.603,0,1.205,0,1.808,0c0.599,0,1.198,0,1.798,0c0.603,0,1.205,0,1.807,0c0.601,0,1.199,0,1.8,0c0.603,0,1.204,0,1.808,0
			c0.6,0,1.198,0,1.797,0c0.692,0,1.387,0,2.078,0c0.6,0,1.198,0,1.799,0c0.603,0,1.205,0,1.808,0c0.599,0,1.198,0,1.798,0
			c0.604,0,1.205,0,1.809,0c0.598,0,1.196,0,1.797,0c0.604,0,1.205,0,1.809,0.001c0.499,0.001,0.999,0.002,1.499,0.003
			c0.372,0.076,0.743,0.152,1.116,0.229c0.328,0.081,0.654,0.162,0.98,0.242c0.115,0.051,0.23,0.101,0.346,0.151
			c0.484,0.281,0.97,0.563,1.453,0.844c0.354,0.32,0.709,0.641,1.063,0.96c0.338,0.461,0.674,0.922,1.012,1.383
			c0.06,0.138,0.117,0.276,0.179,0.414c0.209,0.602,0.418,1.204,0.625,1.806c0.032,2.896,0.088,5.791,0.096,8.686
			c0.013,5.375-0.004,10.75-0.004,16.124c-0.002,5.855-0.002,11.71,0,17.565c0,6.426,0.007,12.852,0.004,19.277
			c0,0.478-0.061,0.957-0.094,1.434c-0.002,0.046-0.004,0.091-0.006,0.137c-0.037,0.076-0.074,0.152-0.111,0.229
			c-0.012,0.061-0.023,0.121-0.037,0.184c-0.029,0.088-0.057,0.177-0.086,0.266c-0.123,0.33-0.247,0.661-0.371,0.991
			c-0.092,0.181-0.184,0.361-0.273,0.542c-0.277,0.383-0.554,0.768-0.83,1.15c-0.387,0.361-0.772,0.725-1.158,1.088
			c-0.477,0.275-0.955,0.551-1.432,0.827c-0.123,0.055-0.246,0.108-0.369,0.163c-0.207,0.053-0.414,0.104-0.621,0.154
			c-0.061,0.021-0.121,0.043-0.182,0.063c-0.061,0.011-0.121,0.021-0.18,0.032c-0.074,0.033-0.148,0.068-0.223,0.103
			c-0.201,0.031-0.402,0.062-0.603,0.093c-0.601,0.008-1.198,0.017-1.797,0.023c-0.603,0-1.202,0-1.804,0c-0.601,0-1.201,0-1.803,0
			s-1.201,0-1.802,0s-1.202,0-1.804,0s-1.201,0-1.803,0c-0.601,0-1.201,0-1.804,0c-0.69,0-1.381,0-2.071,0c-0.603,0-1.203,0-1.806,0
			c-0.599,0-1.2,0-1.801,0s-1.201,0-1.804,0c-0.601,0-1.2,0-1.801,0c-0.602,0-1.203,0-1.805,0s-1.201,0-1.801,0
			c-0.602,0-1.203,0-1.805,0s-1.201,0-1.801,0c-0.603,0-1.203,0-1.805,0c-0.632,0-1.263,0-1.892,0c-0.602,0-1.203,0-1.805,0
			c-0.601,0-1.201,0-1.801,0c-0.602,0-1.203,0-1.805,0c-0.6,0-1.201,0-1.801,0c-0.602,0-1.202,0-1.804,0c-0.601,0-1.202,0-1.802,0
			c-0.602,0-1.202,0-1.804,0c-0.601,0-1.2,0-1.802,0s-1.202,0-1.804,0c-0.63,0-1.261,0-1.892,0c-0.601,0-1.202,0-1.804,0
			c-0.601,0-1.2,0-1.802,0c-0.601,0-1.202,0-1.804,0c-0.601,0-1.2,0-1.802,0c-0.601,0-1.202,0-1.804,0
			c-0.601-0.006-1.2-0.012-1.8-0.02c-0.291-0.028-0.582-0.058-0.872-0.086c-0.071-0.041-0.142-0.08-0.212-0.119
			c-0.063-0.008-0.127-0.018-0.189-0.025c-0.086-0.028-0.174-0.057-0.262-0.085c-0.086-0.019-0.171-0.036-0.256-0.054
			c-0.086-0.027-0.172-0.056-0.257-0.084c-0.519-0.265-1.038-0.53-1.558-0.795c-1.064-0.803-1.907-1.791-2.52-2.975
			c-0.194-0.838-0.389-1.676-0.588-2.513c-0.011-0.05-0.072-0.089-0.109-0.134c-0.006-0.319-0.014-0.64-0.02-0.959
			c0-0.601,0-1.198,0-1.797c0-0.604,0-1.205,0-1.809c0-0.6,0-1.197,0-1.797c0-0.604,0-1.205,0-1.809c0-0.599,0-1.198,0-1.797
			C0,57.705,0,57.102,0,56.5z M18.24,46.775c-0.282,0.168-0.441,0.273-0.609,0.363c-0.83,0.446-1.688,0.85-2.49,1.34
			c-1.648,1.01-3.261,2.063-4.71,3.362c-1.622,1.455-2.774,3.138-3.007,5.351c-0.147,1.425,0.149,2.754,1.029,3.903
			c0.598,0.783,1.455,1.108,2.419,1.212c1.619,0.176,3.206,0.072,4.737-0.517c1.78-0.685,3.29-1.754,4.531-3.209
			c1.531-1.796,2.364-3.881,2.544-6.216c0.136-1.764,0.034-3.512-0.804-5.174c1.195-0.682,2.362-1.349,3.646-2.082
			c-0.054,0.265-0.065,0.38-0.101,0.486c-0.437,1.381-0.69,2.807-0.695,4.244c-0.001,0.959,0.221,1.926,0.396,2.877
			c0.189,1.016,0.643,1.932,1.266,2.752c0.393,0.518,0.899,0.824,1.594,0.876c1.053,0.079,1.828-0.345,2.333-1.212
			c0.571-0.98,1.063-2.009,1.574-3.025c0.224-0.444,0.406-0.909,0.608-1.364c0.104,0.142,0.115,0.266,0.115,0.391
			c0,0.583-0.067,1.175,0.013,1.746c0.087,0.612,0.247,1.231,0.489,1.8c0.283,0.666,1.072,0.947,1.748,0.686
			c0.816-0.317,1.393-0.941,1.83-1.664c0.635-1.047,1.254-2.109,1.796-3.207c1.17-2.378,2.293-4.78,3.423-7.18
			c0.313-0.666,0.58-1.354,0.918-2.146c0.226,0.868,0.365,1.623,0.622,2.335c0.333,0.924,0.756,1.815,1.146,2.718
			c0.117,0.271,0.316,0.514,0.063,0.826c-0.826,1.026-1.646,2.061-2.461,3.094c-0.66,0.834-1.369,1.635-1.955,2.519
			s-0.187,1.649,0.858,1.835c0.134,0.023,0.271,0.023,0.406,0.023c1.783,0.025,3.398-0.548,4.862-1.513
			c0.978-0.646,1.702-1.519,2.038-2.703c0.384-1.348,0.139-2.616-0.35-3.86c-0.172-0.438-0.213-0.777,0.113-1.146
			c0.194-0.222,0.352-0.485,0.5-0.744c0.977-1.702,1.944-3.409,2.918-5.114c0.032-0.056,0.092-0.098,0.153-0.164
			c0.052,0.084,0.101,0.131,0.108,0.185c0.295,1.634,0.804,3.192,1.597,4.657c0.054,0.101-0.026,0.344-0.123,0.447
			c-0.544,0.578-1.147,1.102-1.662,1.705c-0.921,1.082-1.634,2.283-1.896,3.715c-0.303,1.64,0.621,2.709,2.092,2.324
			c1.791-0.469,3.375-1.326,4.588-2.769c0.709-0.841,1.17-1.791,1.029-2.925c-0.076-0.62-0.198-1.242-0.377-1.842
			c-0.108-0.375-0.019-0.521,0.328-0.607c0.58-0.146,1.149-0.348,1.735-0.457c2.115-0.387,4.218-0.275,6.274,0.325
			c1.627,0.474,3.033,1.313,3.938,2.806c0.903,1.484,0.988,3.197-0.481,4.528c-0.31,0.28-0.676,0.493-0.996,0.761
			c-0.098,0.081-0.209,0.299-0.172,0.355c0.078,0.11,0.248,0.176,0.393,0.216c0.09,0.024,0.205-0.022,0.303-0.054
			c1.969-0.606,3.33-2.869,2.977-4.89c-0.514-2.926-2.348-4.716-4.997-5.757c-2.351-0.923-4.783-0.93-7.214-0.376
			c-1,0.228-1.961,0.62-2.989,0.953c-0.154-0.282-0.33-0.608-0.509-0.933c-0.78-1.418-1.163-2.928-0.91-4.541
			c0.122-0.792,0.354-1.575,0.599-2.341c0.263-0.822,0.087-1.181-0.768-1.242c-0.58-0.042-1.168-0.047-1.744,0.01
			c-1.242,0.124-1.418,0.352-1.697,1.36c-0.28,1.004-0.567,2.024-1.012,2.962c-0.681,1.434-1.485,2.807-2.256,4.197
			c-0.313,0.566-0.673,1.106-1.044,1.711c-0.165-0.313-0.29-0.549-0.414-0.782c-0.571-1.068-0.725-2.248-0.633-3.406
			c0.078-1.016,0.414-2.015,0.677-3.012c0.168-0.637,0.065-0.973-0.582-1.023c-0.843-0.066-1.699-0.02-2.541,0.068
			c-0.706,0.074-0.841,0.311-1.019,0.997c-0.184,0.709-0.388,1.421-0.67,2.095c-0.652,1.561-1.346,3.104-2.045,4.644
			c-1.063,2.347-2.146,4.685-3.229,7.021c-0.173,0.373-0.394,0.725-0.594,1.084c-0.06-0.01-0.12-0.02-0.182-0.029
			c-0.003-0.396-0.083-0.813,0.002-1.188c0.521-2.308,1.07-4.608,1.636-6.906c0.158-0.637,0.137-0.967-0.238-1.27
			c-0.427-0.344-1.073-0.417-1.525-0.176c-0.094,0.05-0.193,0.086-0.306,0.135c0-0.771,0.079-1.494-0.016-2.193
			c-0.234-1.735-1.423-2.169-2.877-1.803c-1.806,0.459-3.168,1.633-4.384,2.993c-0.316,0.353-0.611,0.763-1.005,0.998
			c-1.325,0.788-2.689,1.509-4.04,2.253c-0.723,0.396-1.447,0.788-2.188,1.19c-0.245-0.232-0.46-0.462-0.701-0.659
			c-1.807-1.48-3.621-2.953-5.432-4.43c-1.256-1.024-2.449-2.109-3.32-3.503c-0.918-1.471-1.201-3.053-0.824-4.742
			c0.529-2.364,1.938-4.188,3.646-5.812c1.745-1.66,3.723-3.009,5.792-4.227c2.16-1.271,4.383-2.423,6.723-3.321
			c2.219-0.85,4.494-1.483,6.864-1.765c2.378-0.284,4.73-0.279,7.014,0.541c0.966,0.347,1.881,0.843,2.408,1.78
			c0.765,1.357,0.646,2.794,0.121,4.177c-1.141,3.021-3.365,5.13-6.026,6.811c-1.523,0.962-3.167,1.688-4.91,2.189
			c-2.191,0.63-4.397,1.072-6.689,0.774c-1.555-0.203-2.965-0.718-4.073-1.896c-0.135-0.144-0.442-0.277-0.594-0.217
			c-0.286,0.111-0.21,0.41-0.126,0.667c0.459,1.407,1.561,2.202,2.778,2.854c1.383,0.738,2.899,0.909,4.444,0.937
			c2.22,0.041,4.391-0.254,6.527-0.851c1.813-0.506,3.574-1.137,5.167-2.146c1.939-1.229,3.619-2.743,4.961-4.631
			c1.609-2.262,2.619-4.705,2.496-7.527c-0.076-1.777-0.707-3.32-2.008-4.565c-1.576-1.505-3.527-2.265-5.604-2.688
			c-2.018-0.412-4.07-0.523-6.133-0.313c-2.155,0.219-4.27,0.621-6.314,1.343c-1.073,0.378-2.139,0.778-3.193,1.206
			c-2.182,0.883-4.29,1.925-6.326,3.106c-2.457,1.425-4.768,3.053-6.813,5.031c-2.02,1.949-3.717,4.119-4.76,6.783
			c-0.895,2.284-0.559,4.37,0.672,6.392c1.045,1.714,2.443,3.125,4,4.349c1.813,1.423,3.729,2.714,5.596,4.066
			C16.754,45.668,17.445,46.188,18.24,46.775z"/>
		<path fill="#D470A4" d="M19.818,48.168c0.332,1.28,0.458,2.48,0.238,3.716c-0.367,2.083-1.427,3.767-3.007,5.113
			c-1.095,0.933-2.358,1.603-3.845,1.659c-1.131,0.042-1.68-0.53-1.689-1.666c-0.014-1.426,0.604-2.609,1.458-3.684
			c1.075-1.353,2.478-2.338,3.887-3.302c0.815-0.558,1.669-1.06,2.505-1.583C19.49,48.344,19.622,48.277,19.818,48.168z"/>
		<path fill="#D572A5" d="M28.11,49.709c0.038-2.313,0.604-4.334,1.697-6.216c0.567-0.976,1.135-1.944,2.112-2.574
			c0.25-0.161,0.52-0.302,0.799-0.403c0.506-0.188,0.867,0.077,0.771,0.604c-0.14,0.765-0.299,1.535-0.555,2.267
			c-0.729,2.076-1.488,4.143-2.284,6.193c-0.302,0.777-0.731,1.505-1.116,2.249c-0.067,0.129-0.188,0.233-0.297,0.335
			c-0.258,0.236-0.469,0.207-0.651-0.107C28.143,51.28,28.179,50.416,28.11,49.709z"/>
		<path fill="#D674A7" d="M52.063,50.243c-0.396-0.833,1.158-3.729,2.42-4.546C55.163,46.813,54.635,49.421,52.063,50.243z"/>
		<path fill="#D77AAA" d="M42.527,52.4c1.096-1.281,2.145-2.512,3.205-3.752C46.17,49.768,43.926,52.424,42.527,52.4z"/>
	</g>
</g>
</svg>
