<?xml version="1.0" encoding="utf-8"?>
<!-- Generator: Adobe Illustrator 16.0.0, SVG Export Plug-In . SVG Version: 6.00 Build 0)  -->
<!DOCTYPE svg PUBLIC "-//W3C//DTD SVG 1.0//EN" "http://www.w3.org/TR/2001/REC-SVG-20010904/DTD/svg10.dtd">
<svg version="1.0" xmlns="http://www.w3.org/2000/svg" xmlns:xlink="http://www.w3.org/1999/xlink" x="0px" y="0px" width="75px"
	 height="75px" viewBox="0 0 75 75" enable-background="new 0 0 75 75" xml:space="preserve">
<g id="home_x5F_icons">
	<g display="none">
		<polygon display="inline" fill-rule="evenodd" clip-rule="evenodd" fill="#264DE3" points="64.737,67.375 37.531,73.25 
			10.25,67.375 10.25,1.875 64.737,1.875 		"/>
		<g display="inline">
			<path fill-rule="evenodd" clip-rule="evenodd" fill="#264DE3" d="M4.421,0.285c0-0.091,0-0.184,0-0.276
				C4.513,0.006,4.604,0,4.695,0c21.861,0,43.721,0,65.581,0c0.1,0,0.197,0,0.3,0c0,0.104,0.006,0.177-0.001,0.249
				c-0.23,2.572-0.467,5.143-0.695,7.715c-0.229,2.572-0.451,5.146-0.681,7.718c-0.25,2.782-0.505,5.564-0.754,8.347
				c-0.212,2.38-0.416,4.761-0.629,7.141c-0.267,2.975-0.538,5.948-0.805,8.923c-0.278,3.094-0.553,6.188-0.83,9.282
				c-0.275,3.094-0.551,6.188-0.827,9.282c-0.258,2.883-0.518,5.767-0.767,8.651c-0.017,0.19-0.077,0.26-0.256,0.31
				c-2.565,0.706-5.128,1.42-7.691,2.132c-5.74,1.59-11.479,3.178-17.217,4.77c-0.615,0.171-1.225,0.361-1.836,0.542
				c-0.075,0-0.147,0-0.222,0c-0.083-0.034-0.162-0.077-0.248-0.101c-1.043-0.29-2.087-0.577-3.13-0.867
				c-7.772-2.158-15.544-4.318-23.315-6.472c-0.163-0.046-0.235-0.101-0.25-0.285c-0.105-1.283-0.224-2.564-0.34-3.845
				c-0.156-1.757-0.316-3.515-0.474-5.272c-0.155-1.739-0.304-3.479-0.46-5.218c-0.157-1.758-0.318-3.515-0.476-5.272
				c-0.155-1.749-0.306-3.498-0.462-5.246c-0.174-1.959-0.355-3.917-0.53-5.875c-0.157-1.758-0.307-3.516-0.464-5.274
				c-0.191-2.16-0.392-4.319-0.585-6.48c-0.155-1.757-0.306-3.515-0.462-5.273c-0.176-1.959-0.355-3.917-0.529-5.875
				c-0.176-1.959-0.345-3.918-0.519-5.877C4.944,5.805,4.764,3.781,4.579,1.759C4.536,1.267,4.474,0.776,4.421,0.285z
				 M37.477,52.111c-2.992-0.81-5.987-1.623-8.982-2.428c-0.173-0.046-0.263-0.11-0.278-0.302c-0.127-1.521-0.263-3.04-0.398-4.559
				c-0.053-0.601-0.109-1.201-0.164-1.802c-2.787,0-5.541,0-8.313,0c0.086,0.951,0.171,1.883,0.254,2.816
				c0.136,1.546,0.269,3.094,0.406,4.641c0.157,1.757,0.322,3.514,0.471,5.272c0.018,0.214,0.093,0.287,0.291,0.342
				c4.83,1.335,9.656,2.679,14.485,4.018c0.74,0.207,1.486,0.4,2.229,0.599c0.019,0.006,0.036,0.012,0.055,0.018
				c0,2.838,0,5.677,0,8.54c0.113-0.008,0.187,0,0.254-0.019c1.446-0.399,2.892-0.801,4.338-1.203
				c1.518-0.421,3.032-0.843,4.549-1.264c1.667-0.463,3.334-0.923,5-1.386c1.711-0.475,3.422-0.951,5.132-1.426
				c0.775-0.215,1.551-0.43,2.328-0.642c0.162-0.044,0.294-0.107,0.308-0.299c0.056-0.721,0.109-1.44,0.168-2.159
				c0.036-0.456,0.077-0.911,0.12-1.365c0.067-0.746,0.142-1.49,0.208-2.235c0.044-0.482,0.077-0.966,0.12-1.448
				c0.068-0.772,0.143-1.544,0.213-2.318c0.041-0.464,0.077-0.929,0.119-1.393c0.068-0.745,0.145-1.49,0.21-2.235
				c0.046-0.5,0.076-1.002,0.12-1.503c0.068-0.773,0.144-1.545,0.213-2.318c0.041-0.463,0.077-0.929,0.119-1.393
				c0.068-0.736,0.145-1.471,0.211-2.208c0.045-0.491,0.075-0.984,0.118-1.475c0.069-0.773,0.145-1.545,0.214-2.318
				c0.041-0.465,0.077-0.929,0.12-1.393c0.068-0.754,0.143-1.508,0.211-2.263c0.042-0.492,0.074-0.984,0.117-1.475
				c0.069-0.764,0.145-1.527,0.214-2.291c0.043-0.473,0.076-0.947,0.121-1.42c0.067-0.717,0.145-1.435,0.209-2.152
				c0.046-0.51,0.074-1.021,0.119-1.531c0.067-0.782,0.143-1.563,0.213-2.345c0.041-0.455,0.077-0.91,0.12-1.365
				c0.068-0.764,0.143-1.527,0.211-2.291c0.044-0.491,0.077-0.983,0.123-1.475c0.065-0.727,0.142-1.453,0.208-2.18
				c0.044-0.501,0.075-1.003,0.12-1.503c0.065-0.718,0.146-1.435,0.21-2.153c0.046-0.51,0.075-1.021,0.118-1.531
				c0.068-0.782,0.144-1.563,0.214-2.346c0.043-0.464,0.083-0.927,0.125-1.392c0.061-0.667,0.124-1.335,0.189-2.026
				c-0.118,0-0.201,0-0.282,0c-8.81,0-17.621,0.001-26.431-0.006c-0.266,0-0.317,0.084-0.315,0.328
				c0.006,2.649,0.004,5.297,0.004,7.946c-0.019,0.006-0.036,0.012-0.053,0.019c-0.064-0.003-0.129-0.008-0.192-0.008
				c-6.767,0-13.533,0-20.3,0c-0.079,0-0.161,0.008-0.25,0.014c0.251,2.763,0.5,5.504,0.751,8.268c0.136,0,0.244,0,0.354,0
				c6.444,0,12.889,0,19.335,0c0.1,0,0.2-0.006,0.301-0.01c0.019,0.008,0.036,0.016,0.055,0.022c0,2.822,0,5.643,0,8.465
				c-0.019,0.008-0.036,0.015-0.055,0.022c-0.054-0.003-0.109-0.009-0.165-0.009c-6.279,0-12.559,0-18.84,0.001
				c-0.078,0-0.156,0.01-0.243,0.016c0.247,2.767,0.495,5.509,0.741,8.266c0.13,0,0.23,0,0.33,0c5.969,0,11.935,0,17.902,0
				c0.092,0,0.185-0.006,0.274-0.009c0.019,0.007,0.036,0.013,0.055,0.02c0,4.266,0,8.53,0.001,12.795
				c0,0.138,0.007,0.276,0.011,0.413C37.521,52.09,37.499,52.101,37.477,52.111z"/>
			<path fill-rule="evenodd" clip-rule="evenodd" fill="#2965F0" d="M37.531,13.796c0-2.649,0.002-5.297-0.004-7.946
				c-0.002-0.243,0.05-0.328,0.315-0.328c8.81,0.007,17.621,0.006,26.431,0.006c0.081,0,0.164,0,0.282,0
				c-0.065,0.691-0.129,1.359-0.189,2.026c-0.042,0.465-0.082,0.928-0.125,1.392c-0.07,0.782-0.146,1.563-0.214,2.346
				c-0.043,0.51-0.072,1.021-0.118,1.531c-0.064,0.718-0.145,1.435-0.21,2.153c-0.045,0.5-0.076,1.001-0.12,1.503
				c-0.066,0.727-0.143,1.453-0.208,2.18c-0.046,0.492-0.079,0.984-0.123,1.475c-0.068,0.764-0.143,1.527-0.211,2.291
				c-0.043,0.455-0.079,0.91-0.12,1.365c-0.07,0.782-0.146,1.563-0.213,2.345c-0.045,0.51-0.073,1.021-0.119,1.531
				c-0.064,0.717-0.142,1.435-0.209,2.152c-0.045,0.473-0.078,0.947-0.121,1.42c-0.069,0.764-0.145,1.526-0.214,2.291
				c-0.043,0.491-0.075,0.983-0.117,1.475c-0.068,0.754-0.143,1.508-0.211,2.263c-0.043,0.464-0.079,0.928-0.12,1.393
				c-0.069,0.772-0.145,1.544-0.214,2.318c-0.043,0.491-0.073,0.984-0.118,1.475c-0.066,0.736-0.143,1.471-0.211,2.208
				c-0.042,0.464-0.078,0.929-0.119,1.393c-0.069,0.772-0.145,1.545-0.213,2.318c-0.044,0.5-0.074,1.003-0.12,1.503
				c-0.065,0.745-0.142,1.491-0.21,2.235c-0.042,0.464-0.078,0.929-0.119,1.393c-0.07,0.773-0.145,1.545-0.213,2.318
				c-0.043,0.482-0.076,0.966-0.12,1.448c-0.066,0.745-0.141,1.49-0.208,2.235c-0.043,0.455-0.084,0.91-0.12,1.365
				c-0.059,0.719-0.112,1.438-0.168,2.159c-0.014,0.192-0.146,0.255-0.308,0.299c-0.777,0.212-1.553,0.427-2.328,0.642
				c-1.71,0.475-3.421,0.951-5.132,1.426c-1.666,0.462-3.333,0.923-5,1.386c-1.517,0.42-3.031,0.842-4.549,1.264
				c-1.446,0.401-2.892,0.803-4.338,1.203c-0.067,0.019-0.141,0.011-0.254,0.019c0-2.862,0-5.701,0-8.54
				c0.662-0.188,1.323-0.379,1.986-0.563c4.916-1.363,9.833-2.726,14.749-4.085c0.142-0.039,0.204-0.097,0.216-0.258
				c0.068-0.888,0.151-1.776,0.23-2.664c0.142-1.575,0.283-3.148,0.424-4.723c0.137-1.519,0.27-3.039,0.405-4.558
				c0.157-1.767,0.318-3.532,0.476-5.299c0.137-1.528,0.27-3.057,0.407-4.586c0.14-1.564,0.283-3.129,0.424-4.695
				c0.137-1.519,0.269-3.039,0.404-4.558c0.157-1.775,0.317-3.551,0.478-5.326c0.122-1.354,0.246-2.709,0.367-4.063
				c0.045-0.508,0.086-1.015,0.13-1.542c-0.147,0-0.255,0-0.364,0c-6.668,0-13.335,0-20.003,0
				C37.751,13.805,37.642,13.799,37.531,13.796z"/>
			<path fill-rule="evenodd" clip-rule="evenodd" fill="#FEFEFE" d="M37.531,13.796c0.11,0.003,0.22,0.009,0.329,0.009
				c6.668,0,13.335,0,20.003,0c0.109,0,0.217,0,0.364,0c-0.044,0.526-0.085,1.034-0.13,1.542c-0.121,1.354-0.245,2.709-0.367,4.063
				c-0.16,1.775-0.32,3.551-0.478,5.326c-0.136,1.52-0.268,3.039-0.404,4.558c-0.141,1.565-0.284,3.13-0.424,4.695
				c-0.138,1.529-0.271,3.058-0.407,4.586c-0.157,1.767-0.318,3.532-0.476,5.299c-0.136,1.52-0.269,3.039-0.405,4.558
				c-0.141,1.574-0.282,3.148-0.424,4.723c-0.079,0.888-0.162,1.775-0.23,2.664c-0.012,0.161-0.074,0.22-0.216,0.258
				c-4.916,1.36-9.833,2.722-14.749,4.085c-0.663,0.184-1.324,0.375-1.986,0.563c-0.019-0.006-0.036-0.012-0.055-0.018
				c0-2.865,0-5.731,0-8.597c0.022-0.01,0.044-0.021,0.066-0.031c1.205-0.323,2.41-0.644,3.614-0.969
				c1.772-0.477,3.542-0.956,5.313-1.434c0.132-0.036,0.257-0.048,0.272-0.242c0.125-1.492,0.258-2.983,0.392-4.475
				c0.139-1.554,0.28-3.109,0.42-4.665c0.042-0.471,0.08-0.942,0.121-1.435c-0.129,0-0.229,0-0.33,0c-3.171,0-6.342,0-9.514,0
				c-0.101,0-0.2,0.007-0.301,0.01c-0.019-0.006-0.036-0.013-0.055-0.02c0-2.755,0-5.51,0-8.265
				c0.019-0.007,0.036-0.015,0.055-0.022c0.054,0.004,0.107,0.012,0.163,0.012c3.502,0,7.004,0,10.504,0
				c0.063,0,0.124-0.01,0.201-0.018c0.252-2.823,0.5-5.634,0.751-8.472c-0.129,0-0.208,0-0.289,0c-3.704,0-7.408,0-11.111,0
				c-0.073,0-0.146,0.008-0.219,0.012c-0.019-0.007-0.036-0.015-0.055-0.022c0-2.754,0.002-5.508,0.002-8.263
				C37.495,13.808,37.513,13.802,37.531,13.796z"/>
			<path fill-rule="evenodd" clip-rule="evenodd" fill="#EAEAEA" d="M37.477,52.111c0,2.866,0,5.731,0,8.597
				c-0.742-0.199-1.488-0.393-2.229-0.599c-4.829-1.339-9.655-2.683-14.485-4.018c-0.198-0.055-0.273-0.128-0.291-0.342
				c-0.148-1.758-0.313-3.515-0.471-5.272c-0.138-1.547-0.271-3.094-0.406-4.641c-0.083-0.933-0.168-1.866-0.254-2.816
				c2.771,0,5.525,0,8.313,0c0.055,0.601,0.111,1.201,0.164,1.802c0.136,1.52,0.271,3.039,0.398,4.559
				c0.016,0.192,0.105,0.256,0.278,0.302C31.489,50.488,34.484,51.301,37.477,52.111z"/>
			<path fill-rule="evenodd" clip-rule="evenodd" fill="#EAEAEA" d="M37.479,13.814c0,2.755-0.002,5.509-0.002,8.263
				c-0.101,0.004-0.201,0.01-0.301,0.01c-6.446,0-12.891,0-19.335,0c-0.109,0-0.218,0-0.354,0c-0.251-2.763-0.5-5.505-0.751-8.268
				c0.089-0.005,0.171-0.014,0.25-0.014c6.767,0,13.533,0,20.3,0C37.35,13.806,37.414,13.812,37.479,13.814z"/>
			<path fill-rule="evenodd" clip-rule="evenodd" fill="#EAEAEA" d="M37.477,30.587c0,2.755,0,5.51,0,8.265
				c-0.09,0.003-0.183,0.009-0.274,0.009c-5.968,0-11.934,0-17.902,0c-0.1,0-0.2,0-0.33,0c-0.246-2.757-0.494-5.499-0.741-8.266
				c0.087-0.006,0.165-0.016,0.243-0.016c6.281-0.001,12.561-0.001,18.84-0.001C37.367,30.578,37.423,30.584,37.477,30.587z"/>
			<path fill-rule="evenodd" clip-rule="evenodd" fill="#2965F0" d="M37.531,38.872c0.101-0.003,0.2-0.01,0.301-0.01
				c3.172,0,6.343,0,9.514,0c0.101,0,0.201,0,0.33,0c-0.041,0.493-0.079,0.964-0.121,1.435c-0.14,1.555-0.281,3.11-0.42,4.665
				c-0.134,1.491-0.267,2.983-0.392,4.475c-0.016,0.194-0.141,0.207-0.272,0.242c-1.771,0.478-3.541,0.958-5.313,1.434
				c-1.204,0.325-2.409,0.646-3.614,0.969c-0.004-0.137-0.011-0.275-0.011-0.413C37.531,47.402,37.531,43.138,37.531,38.872z"/>
			<path fill-rule="evenodd" clip-rule="evenodd" fill="#2A65F0" d="M37.531,22.1c0.072-0.004,0.146-0.012,0.219-0.012
				c3.703,0,7.407,0,11.111,0c0.081,0,0.16,0,0.289,0c-0.251,2.838-0.499,5.649-0.751,8.472c-0.077,0.007-0.139,0.018-0.201,0.018
				c-3.5,0-7.002,0-10.504,0c-0.056,0-0.109-0.008-0.163-0.012C37.531,27.743,37.531,24.922,37.531,22.1z"/>
		</g>
	</g>
	<g>
		<rect x="2.616" y="7.118" fill-rule="evenodd" clip-rule="evenodd" fill="#FFFFFF" width="68.667" height="58.946"/>
		<path fill-rule="evenodd" clip-rule="evenodd" fill="#D46FA3" d="M0,56.5c0-0.599,0-1.198,0-1.797c0-0.603,0-1.205,0-1.808
			c0-0.599,0-1.198,0-1.798c0-0.603,0-1.205,0-1.808c0-0.599,0-1.198,0-1.797c0-0.603,0-1.205,0-1.808c0-0.599,0-1.198,0-1.797
			c0-0.603,0-1.205,0-1.808c0-0.6,0-1.199,0-1.798c0-0.602,0-1.205,0-1.808c0-0.599,0-1.199,0-1.797c0-0.603,0-1.206,0-1.808
			c0-0.6,0-1.199,0-1.798c0-0.603,0-1.205,0-1.808c0-0.599,0-1.198,0-1.798c0-0.602,0-1.205,0-1.808c0-0.599,0-1.198,0-1.797
			c0-0.603,0-1.205,0-1.808c0-0.599,0-1.199,0-1.798c0-0.603,0-1.205,0-1.808c0-0.599,0-1.198,0-1.797c0-0.603,0-1.205,0-1.808
			c0-0.599,0-1.198,0-1.798c0-0.603,0-1.205,0-1.808c0-0.599,0-1.198,0-1.797c0-0.603,0-1.206,0-1.808c0-0.599,0-1.198,0-1.797
			c0.004-0.291,0.008-0.581,0.012-0.872c0.074-0.401,0.149-0.802,0.224-1.204c0.163-0.506,0.325-1.012,0.489-1.519
			c0,0-0.002-0.002-0.002-0.003C0.83,4.052,0.939,3.866,1.047,3.681c0.045-0.08,0.09-0.159,0.135-0.239
			C1.258,3.34,1.333,3.239,1.408,3.138c0.016-0.022,0.025-0.046,0.031-0.073C1.596,2.857,1.754,2.65,1.912,2.443
			C1.961,2.404,2.01,2.364,2.06,2.324c0.153-0.145,0.31-0.291,0.462-0.436C2.759,1.702,2.994,1.516,3.229,1.33
			c0.353-0.185,0.701-0.375,1.056-0.554C4.57,0.631,4.861,0.499,5.15,0.361C5.354,0.32,5.556,0.278,5.758,0.237
			c0.461-0.076,0.92-0.152,1.379-0.228C7.639,0.007,8.143,0.003,8.645,0c0.6,0,1.199,0,1.799,0c0.602,0,1.205,0,1.807,0
			c0.6,0,1.199,0,1.799,0c0.602,0,1.205,0,1.807,0c0.6,0,1.197,0,1.799,0c0.631,0,1.265,0,1.896,0c0.6,0,1.199,0,1.798,0
			c0.603,0,1.206,0,1.808,0c0.6,0,1.199,0,1.798,0c0.603,0,1.205,0,1.808,0c0.599,0,1.199,0,1.797,0c0.603,0,1.205,0,1.808,0
			c0.599,0,1.198,0,1.798,0c0.603,0,1.205,0,1.808,0c0.599,0,1.198,0,1.798,0c0.633,0,1.266,0,1.897,0c0.599,0,1.198,0,1.798,0
			c0.603,0,1.205,0,1.808,0c0.599,0,1.198,0,1.798,0c0.603,0,1.205,0,1.808,0c0.599,0,1.198,0,1.798,0c0.602,0,1.205,0,1.807,0
			c0.6,0,1.199,0,1.799,0c0.603,0,1.204,0,1.808,0c0.599,0,1.198,0,1.796,0c0.693,0,1.387,0,2.079,0c0.599,0,1.198,0,1.798,0
			c0.603,0,1.205,0,1.808,0c0.599,0,1.198,0,1.798,0c0.603,0,1.205,0,1.808,0c0.599,0,1.197,0,1.798,0c0.603,0,1.205,0,1.808,0.001
			c0.499,0.001,0.999,0.002,1.499,0.003c0.372,0.076,0.744,0.152,1.117,0.229c0.327,0.081,0.654,0.162,0.98,0.242
			c0.115,0.051,0.23,0.101,0.346,0.151c0.484,0.281,0.969,0.563,1.453,0.844c0.354,0.32,0.709,0.641,1.063,0.96
			c0.338,0.461,0.674,0.922,1.012,1.383c0.059,0.138,0.117,0.276,0.178,0.414c0.209,0.602,0.418,1.204,0.626,1.806
			c0.032,2.896,0.087,5.791,0.095,8.686c0.013,5.375-0.003,10.75-0.004,16.124c-0.001,5.855-0.001,11.71,0,17.565
			c0.001,6.426,0.007,12.852,0.004,19.277c0,0.478-0.061,0.957-0.093,1.434c-0.002,0.046-0.005,0.091-0.007,0.137
			c-0.037,0.076-0.074,0.152-0.111,0.228c-0.012,0.061-0.023,0.122-0.037,0.184c-0.029,0.088-0.057,0.177-0.086,0.266
			c-0.123,0.33-0.247,0.661-0.371,0.991c-0.091,0.181-0.184,0.361-0.273,0.542c-0.277,0.383-0.554,0.767-0.831,1.15
			c-0.386,0.362-0.772,0.725-1.157,1.088c-0.477,0.276-0.955,0.551-1.432,0.827c-0.123,0.055-0.246,0.109-0.37,0.164
			c-0.206,0.052-0.414,0.103-0.62,0.154c-0.061,0.021-0.121,0.042-0.182,0.063c-0.061,0.011-0.121,0.021-0.18,0.032
			c-0.074,0.034-0.148,0.068-0.223,0.103c-0.2,0.031-0.402,0.062-0.602,0.093c-0.6,0.008-1.198,0.016-1.797,0.023
			c-0.602,0-1.202,0-1.803,0s-1.201,0-1.803,0s-1.201,0-1.802,0s-1.202,0-1.804,0s-1.201,0-1.802,0s-1.202,0-1.804,0
			c-0.691,0-1.381,0-2.072,0c-0.602,0-1.203,0-1.805,0c-0.599,0-1.2,0-1.801,0c-0.6,0-1.201,0-1.803,0c-0.601,0-1.201,0-1.801,0
			c-0.602,0-1.203,0-1.805,0c-0.601,0-1.201,0-1.801,0c-0.602,0-1.203,0-1.805,0c-0.601,0-1.201,0-1.801,0c-0.602,0-1.203,0-1.804,0
			c-0.632,0-1.263,0-1.892,0c-0.602,0-1.203,0-1.805,0c-0.601,0-1.201,0-1.801,0c-0.602,0-1.203,0-1.805,0c-0.6,0-1.201,0-1.801,0
			c-0.602,0-1.202,0-1.804,0c-0.601,0-1.202,0-1.802,0c-0.602,0-1.202,0-1.804,0c-0.601,0-1.2,0-1.802,0s-1.202,0-1.804,0
			c-0.63,0-1.261,0-1.892,0c-0.601,0-1.202,0-1.804,0c-0.601,0-1.2,0-1.802,0c-0.601,0-1.202,0-1.804,0c-0.601,0-1.2,0-1.802,0
			c-0.601,0-1.202,0-1.804,0c-0.601-0.006-1.2-0.012-1.8-0.019c-0.291-0.029-0.582-0.058-0.872-0.087
			c-0.071-0.04-0.142-0.079-0.212-0.118c-0.063-0.009-0.127-0.018-0.189-0.026c-0.086-0.028-0.174-0.057-0.262-0.085
			c-0.086-0.019-0.171-0.036-0.256-0.054c-0.086-0.027-0.172-0.055-0.257-0.083c-0.519-0.265-1.038-0.531-1.558-0.796
			c-1.064-0.802-1.907-1.79-2.52-2.974c-0.194-0.838-0.389-1.676-0.588-2.513c-0.011-0.05-0.072-0.089-0.109-0.133
			c-0.006-0.32-0.014-0.64-0.02-0.96c0-0.6,0-1.198,0-1.797c0-0.603,0-1.205,0-1.808c0-0.599,0-1.198,0-1.797
			c0-0.603,0-1.205,0-1.808c0-0.599,0-1.199,0-1.798C0,57.705,0,57.102,0,56.5z M18.24,46.775c-0.282,0.169-0.441,0.274-0.609,0.364
			c-0.83,0.446-1.688,0.849-2.49,1.34c-1.648,1.009-3.261,2.062-4.71,3.362c-1.622,1.455-2.774,3.137-3.007,5.35
			c-0.147,1.425,0.149,2.754,1.029,3.904c0.598,0.783,1.455,1.108,2.419,1.212c1.619,0.175,3.206,0.072,4.737-0.517
			c1.78-0.685,3.29-1.754,4.531-3.209c1.531-1.796,2.364-3.881,2.544-6.216c0.136-1.763,0.034-3.511-0.804-5.173
			c1.195-0.682,2.362-1.349,3.646-2.082c-0.054,0.264-0.065,0.379-0.101,0.486c-0.437,1.381-0.69,2.807-0.695,4.244
			c-0.001,0.959,0.221,1.925,0.396,2.877c0.189,1.016,0.643,1.932,1.266,2.752c0.393,0.517,0.899,0.824,1.594,0.876
			c1.053,0.079,1.828-0.345,2.333-1.212c0.571-0.981,1.063-2.009,1.574-3.025c0.224-0.445,0.406-0.91,0.608-1.365
			c0.104,0.142,0.115,0.266,0.115,0.391c0,0.583-0.067,1.174,0.013,1.746c0.087,0.612,0.247,1.232,0.489,1.8
			c0.283,0.666,1.072,0.947,1.748,0.685c0.816-0.317,1.393-0.941,1.83-1.664c0.635-1.047,1.254-2.109,1.796-3.207
			c1.17-2.378,2.293-4.78,3.423-7.179c0.313-0.667,0.58-1.354,0.918-2.147c0.225,0.868,0.365,1.623,0.622,2.335
			c0.333,0.924,0.756,1.815,1.147,2.718c0.117,0.271,0.316,0.514,0.063,0.826c-0.826,1.026-1.645,2.06-2.461,3.094
			c-0.66,0.833-1.369,1.634-1.955,2.518c-0.586,0.884-0.186,1.65,0.859,1.835c0.133,0.023,0.27,0.023,0.405,0.024
			c1.784,0.025,3.399-0.548,4.863-1.513c0.978-0.646,1.702-1.519,2.038-2.703c0.384-1.348,0.139-2.616-0.35-3.86
			c-0.172-0.438-0.212-0.778,0.113-1.146c0.195-0.222,0.352-0.485,0.5-0.744c0.977-1.703,1.945-3.41,2.918-5.114
			c0.033-0.056,0.092-0.098,0.154-0.165c0.052,0.085,0.1,0.131,0.109,0.185c0.295,1.634,0.803,3.192,1.596,4.657
			c0.054,0.101-0.027,0.344-0.123,0.447c-0.544,0.578-1.148,1.102-1.662,1.705c-0.921,1.083-1.634,2.284-1.896,3.716
			c-0.302,1.639,0.622,2.709,2.092,2.324c1.791-0.469,3.375-1.327,4.588-2.769c0.709-0.841,1.17-1.791,1.03-2.925
			c-0.077-0.62-0.199-1.242-0.377-1.841c-0.109-0.375-0.019-0.522,0.327-0.608c0.581-0.146,1.15-0.348,1.736-0.457
			c2.115-0.387,4.217-0.275,6.275,0.325c1.627,0.474,3.032,1.314,3.938,2.806c0.903,1.484,0.988,3.197-0.481,4.528
			c-0.31,0.28-0.677,0.493-0.997,0.761c-0.098,0.081-0.209,0.299-0.171,0.355c0.077,0.111,0.247,0.176,0.392,0.216
			c0.09,0.025,0.205-0.022,0.303-0.053c1.968-0.607,3.33-2.869,2.976-4.89c-0.513-2.926-2.347-4.716-4.997-5.757
			c-2.35-0.923-4.783-0.929-7.214-0.376c-0.999,0.228-1.961,0.62-2.989,0.953c-0.154-0.282-0.33-0.608-0.509-0.933
			c-0.78-1.417-1.163-2.927-0.91-4.54c0.122-0.792,0.353-1.575,0.599-2.341c0.262-0.822,0.087-1.181-0.768-1.242
			c-0.58-0.042-1.168-0.047-1.744,0.01c-1.242,0.124-1.418,0.352-1.697,1.36c-0.28,1.004-0.568,2.024-1.012,2.962
			c-0.68,1.434-1.486,2.807-2.256,4.197c-0.313,0.566-0.673,1.107-1.043,1.711c-0.166-0.314-0.291-0.549-0.415-0.783
			c-0.571-1.068-0.724-2.247-0.632-3.406c0.078-1.016,0.414-2.015,0.676-3.012c0.168-0.637,0.066-0.973-0.582-1.023
			c-0.842-0.066-1.699-0.02-2.541,0.068c-0.706,0.074-0.84,0.311-1.018,0.997c-0.184,0.709-0.388,1.421-0.67,2.096
			c-0.653,1.56-1.346,3.103-2.045,4.643c-1.064,2.346-2.146,4.684-3.229,7.021c-0.173,0.373-0.394,0.724-0.594,1.084
			c-0.06-0.01-0.12-0.02-0.182-0.03c-0.003-0.397-0.083-0.812,0.002-1.188c0.521-2.307,1.07-4.608,1.636-6.905
			c0.158-0.638,0.137-0.968-0.238-1.27c-0.427-0.344-1.073-0.417-1.525-0.176c-0.094,0.05-0.193,0.086-0.306,0.135
			c0-0.771,0.079-1.495-0.016-2.194c-0.234-1.735-1.423-2.169-2.877-1.802c-1.806,0.458-3.168,1.632-4.384,2.993
			c-0.316,0.353-0.611,0.763-1.005,0.998c-1.325,0.788-2.689,1.509-4.04,2.253c-0.723,0.397-1.447,0.788-2.188,1.19
			c-0.245-0.232-0.46-0.462-0.701-0.659c-1.807-1.48-3.621-2.953-5.432-4.429c-1.256-1.025-2.449-2.11-3.32-3.504
			c-0.918-1.471-1.201-3.053-0.824-4.742c0.529-2.364,1.938-4.187,3.646-5.811c1.745-1.66,3.723-3.009,5.792-4.227
			c2.16-1.271,4.383-2.423,6.723-3.321c2.219-0.85,4.494-1.483,6.864-1.765c2.378-0.284,4.73-0.279,7.014,0.541
			c0.966,0.347,1.881,0.843,2.408,1.78c0.765,1.357,0.646,2.794,0.122,4.177c-1.141,3.021-3.366,5.13-6.027,6.811
			c-1.523,0.962-3.167,1.688-4.91,2.189c-2.191,0.63-4.397,1.072-6.689,0.774c-1.555-0.203-2.965-0.718-4.073-1.897
			c-0.135-0.144-0.442-0.277-0.594-0.217c-0.286,0.111-0.21,0.41-0.126,0.667c0.459,1.407,1.561,2.202,2.778,2.854
			c1.383,0.738,2.899,0.909,4.444,0.937c2.22,0.041,4.391-0.254,6.527-0.851c1.813-0.506,3.574-1.137,5.168-2.146
			c1.939-1.229,3.619-2.743,4.961-4.631c1.609-2.262,2.619-4.705,2.496-7.527c-0.076-1.777-0.707-3.32-2.009-4.565
			c-1.575-1.505-3.526-2.265-5.603-2.688c-2.018-0.412-4.07-0.523-6.133-0.313c-2.155,0.219-4.27,0.621-6.314,1.343
			c-1.073,0.378-2.139,0.778-3.193,1.206c-2.182,0.883-4.29,1.925-6.326,3.106c-2.457,1.425-4.768,3.053-6.813,5.031
			C8.527,25.52,6.83,27.69,5.787,30.354c-0.895,2.284-0.559,4.37,0.672,6.392c1.045,1.714,2.443,3.125,4,4.349
			c1.813,1.423,3.729,2.713,5.596,4.066C16.754,45.668,17.445,46.188,18.24,46.775z"/>
		<path fill-rule="evenodd" clip-rule="evenodd" fill="#D470A4" d="M19.818,48.168c0.332,1.28,0.458,2.48,0.238,3.716
			c-0.367,2.083-1.427,3.767-3.007,5.113c-1.095,0.933-2.358,1.603-3.845,1.659c-1.131,0.042-1.68-0.53-1.689-1.666
			c-0.014-1.426,0.604-2.609,1.458-3.683c1.075-1.353,2.478-2.338,3.887-3.302c0.815-0.558,1.669-1.06,2.505-1.583
			C19.49,48.344,19.622,48.277,19.818,48.168z"/>
		<path fill-rule="evenodd" clip-rule="evenodd" fill="#D572A5" d="M28.11,49.709c0.038-2.313,0.604-4.334,1.697-6.216
			c0.567-0.976,1.135-1.944,2.112-2.574c0.25-0.161,0.52-0.302,0.799-0.404c0.506-0.187,0.867,0.078,0.771,0.605
			c-0.14,0.765-0.299,1.535-0.555,2.267c-0.729,2.076-1.488,4.142-2.284,6.193c-0.302,0.777-0.731,1.505-1.116,2.249
			c-0.067,0.129-0.188,0.234-0.297,0.335c-0.258,0.236-0.469,0.207-0.651-0.108C28.143,51.28,28.179,50.416,28.11,49.709z"/>
		<path fill-rule="evenodd" clip-rule="evenodd" fill="#D674A7" d="M52.063,50.243c-0.397-0.833,1.158-3.73,2.419-4.546
			C55.163,46.812,54.635,49.421,52.063,50.243z"/>
		<path fill-rule="evenodd" clip-rule="evenodd" fill="#D77AAA" d="M42.527,52.4c1.096-1.281,2.145-2.511,3.205-3.752
			C46.17,49.768,43.926,52.424,42.527,52.4z"/>
	</g>
</g>
</svg>
