<?xml version="1.0" encoding="utf-8"?>
<!-- Generator: Adobe Illustrator 16.0.0, SVG Export Plug-In . SVG Version: 6.00 Build 0)  -->
<!DOCTYPE svg PUBLIC "-//W3C//DTD SVG 1.1//EN" "http://www.w3.org/Graphics/SVG/1.1/DTD/svg11.dtd">
<svg version="1.1" id="Layer_1" xmlns="http://www.w3.org/2000/svg" xmlns:xlink="http://www.w3.org/1999/xlink" x="0px" y="0px"
	 width="80px" height="35px" viewBox="0 0 80 35" enable-background="new 0 0 80 35" xml:space="preserve">
<g id="footer_x5F_logos">
	<g>
		<path fill="#323232" d="M73.993,13.31c0-2.428,0-4.857,0-7.313c0.668,0,1.319,0,1.989,0c0,4.331,0,8.654,0,13
			c-0.637,0-1.268,0-1.922,0c-0.933-2.678-1.865-5.363-2.799-8.049c-0.023,0.004-0.049,0.008-0.07,0.012c0,2.674,0,5.348,0,8.041
			c-0.676,0-1.314,0-1.981,0c0-4.334,0-8.657,0-13.006c0.664,0,1.333,0,2.048,0c0.883,2.43,1.773,4.881,2.664,7.333
			C73.945,13.321,73.969,13.315,73.993,13.31z"/>
		<path fill="#323232" d="M40.421,28.932c-0.823,0-1.579,0-2.364,0c0,1.918,0,3.813,0,5.74c-0.744,0-1.461,0-2.209,0
			c0-4.313,0-8.645,0-12.986c0.726,0,1.442,0,2.196,0c0,1.758,0,3.496,0,5.256c0.793,0,1.55,0,2.341,0c0-1.739,0-3.479,0-5.246
			c0.762,0,1.485,0,2.229,0c0,4.326,0,8.64,0,12.979c-0.719,0-1.436,0-2.191,0C40.421,32.783,40.421,30.877,40.421,28.932z"/>
		<path fill="#323232" d="M34.482,26.064c-0.756,0-1.462,0-2.192,0c-0.068-0.31-0.028-0.616-0.032-0.92
			c-0.006-0.338-0.023-0.67-0.158-0.986c-0.204-0.48-0.569-0.707-1.064-0.657c-0.602,0.062-0.858,0.295-0.975,0.866
			c-0.047,0.23-0.059,0.46-0.059,0.693c0.002,2.121,0.003,4.238,0,6.358c0,0.247,0.016,0.49,0.064,0.731
			c0.119,0.57,0.484,0.847,1.124,0.843c0.589-0.003,0.923-0.269,1.028-0.845c0.076-0.407,0.028-0.823,0.036-1.236
			c0.004-0.258,0.001-0.516,0.001-0.792c0.746,0,1.465,0,2.222,0c-0.009,0.923,0.1,1.837-0.189,2.729
			c-0.404,1.245-1.421,2.006-2.789,2.084c-0.479,0.026-0.953-0.009-1.42-0.132c-1.261-0.333-2.115-1.317-2.247-2.61
			c-0.029-0.282-0.043-0.567-0.044-0.853c-0.003-2.067-0.005-4.136,0-6.205c0.001-0.399,0.018-0.799,0.108-1.192
			c0.285-1.254,1.179-2.109,2.45-2.332c0.565-0.101,1.131-0.111,1.693,0.019c1.277,0.294,2.161,1.287,2.369,2.659
			c0.038,0.242,0.063,0.488,0.071,0.732C34.492,25.354,34.482,25.688,34.482,26.064z"/>
		<path fill="#323232" d="M26.342,24.695c-0.696,0.08-1.373,0.158-2.065,0.238c-0.063-0.238-0.105-0.466-0.186-0.679
			c-0.202-0.542-0.632-0.81-1.17-0.75c-0.507,0.058-0.819,0.349-0.914,0.854c-0.118,0.61,0.042,1.148,0.422,1.632
			c0.362,0.46,0.797,0.846,1.236,1.229c0.585,0.509,1.179,1.009,1.683,1.604c0.756,0.893,1.162,1.896,1.093,3.091
			c-0.087,1.513-1.06,2.66-2.557,2.938c-0.602,0.113-1.207,0.144-1.804-0.029c-1.307-0.379-1.979-1.328-2.309-2.579
			c-0.075-0.286-0.131-0.579-0.091-0.913c0.676-0.104,1.353-0.23,2.061-0.288c0.055,0.415,0.107,0.796,0.268,1.151
			c0.305,0.68,0.845,0.934,1.547,0.725c0.45-0.133,0.737-0.482,0.78-0.958c0.051-0.583-0.14-1.091-0.479-1.555
			c-0.395-0.536-0.905-0.956-1.405-1.386c-0.639-0.545-1.283-1.086-1.78-1.772c-0.724-0.997-0.963-2.103-0.737-3.306
			c0.247-1.295,1.173-2.15,2.507-2.342c0.447-0.063,0.894-0.101,1.35-0.024c0.857,0.141,1.508,0.573,1.967,1.305
			C26.098,23.428,26.27,24.025,26.342,24.695z"/>
		<path fill="#FFFFFF" d="M9.652,0.048c0.84,0,1.65,0,2.498,0C10.27,6.38,8.394,12.691,6.513,19.02c-0.825,0-1.634,0-2.496,0
			C5.897,12.69,7.774,6.373,9.652,0.048z"/>
		<path fill="#FFFFFF" d="M11.62,19.027c-0.839,0-1.651,0-2.498,0c1.88-6.333,3.756-12.643,5.637-18.97c0.814,0,1.622,0,2.497,0
			C15.373,6.393,13.497,12.709,11.62,19.027z"/>
		<path fill="#323232" d="M22.152,13.212c0,1.972,0,3.869,0,5.786c-0.739,0-1.456,0-2.196,0c0-4.338,0-8.661,0-13.007
			c2.051,0,4.088,0,6.152,0c0,0.631,0,1.257,0,1.919c-1.295,0-2.595,0-3.92,0c0,1.129,0,2.222,0,3.36c0.959,0,1.932,0,2.924,0
			c0,0.662,0,1.278,0,1.941C24.147,13.212,23.175,13.212,22.152,13.212z"/>
		<path fill="#323232" d="M45.759,19.002c-0.772,0-1.489,0-2.252,0c0-3.689,0-7.364,0-11.071c-0.735,0-1.429,0-2.146,0
			c0-0.658,0-1.285,0-1.938c2.166,0,4.332,0,6.525,0c0,0.629,0,1.255,0,1.923c-0.695,0-1.398,0-2.13,0
			C45.759,11.625,45.759,15.292,45.759,19.002z"/>
		<path fill="#323232" d="M27.379,5.982c0.738,0,1.445,0,2.202,0c0,3.687,0,7.358,0,11.064c1.182,0,2.313,0,3.473,0
			c0,0.659,0,1.284,0,1.943c-1.878,0-3.766,0-5.675,0C27.379,14.661,27.379,10.337,27.379,5.982z"/>
		<path fill="#323232" d="M62.723,32.754c1.192,0,2.315,0,3.469,0c0,0.641,0,1.266,0,1.92c-1.875,0-3.765,0-5.674,0
			c0-4.326,0-8.646,0-12.986c0.729,0,1.447,0,2.205,0C62.723,25.366,62.723,29.04,62.723,32.754z"/>
		<path fill="#323232" d="M51.053,19.002c-0.725,0-1.429,0-2.156,0c0-4.34,0-8.663,0-13.011c0.72,0,1.422,0,2.156,0
			C51.053,10.314,51.053,14.636,51.053,19.002z"/>
		<path fill="#323232" d="M57.958,13.107c0.817-0.427,1.222-1.097,1.399-1.913c0.205-0.946,0.201-1.897-0.012-2.843
			c-0.294-1.305-1.117-2.063-2.43-2.272c-1.396-0.225-2.809-0.061-4.246-0.12c0,4.377,0,8.701,0,13.034c0.734,0,1.45,0,2.201,0
			c0-1.778,0-3.529,0-5.303c0.4-0.023,0.768-0.044,1.137-0.065c0.528,1.814,1.049,3.592,1.563,5.361c0.761,0,1.484,0,2.246,0
			C59.188,16.998,58.573,15.052,57.958,13.107z M57.208,10.77c-0.129,0.627-0.472,0.947-1.144,1.026
			c-0.379,0.044-0.769,0.008-1.182,0.008c0-1.339,0-2.642,0-3.977c0.538-0.04,1.063-0.055,1.572,0.108
			c0.439,0.141,0.654,0.486,0.746,0.912C57.339,9.485,57.339,10.131,57.208,10.77z"/>
		<path fill="#323232" d="M67.615,9.319c0.002-0.312-0.02-0.622-0.08-0.925c-0.247-1.219-0.941-2.045-2.158-2.39
			c-0.723-0.205-1.459-0.215-2.186-0.042c-1.203,0.285-1.967,1.032-2.273,2.234c-0.089,0.352-0.122,0.71-0.122,1.075
			c0.004,1.086,0.002,2.172,0.002,3.258H60.8c0,1.15,0,2.302,0,3.452c0,0.039,0,0.078,0.001,0.116
			c0.049,1.469,0.827,2.568,2.121,2.969c0.85,0.264,1.706,0.265,2.557,0.002c1.049-0.321,1.701-1.032,1.99-2.083
			c0.107-0.388,0.146-0.786,0.146-1.188C67.613,13.637,67.613,11.479,67.615,9.319z M65.305,16.566
			c-0.113,0.402-0.361,0.646-0.781,0.702c-0.166,0.022-0.33,0.042-0.5,0.02c-0.604-0.078-0.899-0.36-0.969-0.966
			c-0.025-0.23-0.021-0.465-0.022-0.697c-0.003-1.034,0-2.068,0-3.102c0-1.06-0.003-2.12,0.001-3.18
			c0-0.283-0.006-0.567,0.084-0.844c0.111-0.351,0.331-0.569,0.693-0.65c0.246-0.055,0.484-0.06,0.729-0.015
			c0.413,0.076,0.661,0.314,0.771,0.72c0.053,0.203,0.068,0.407,0.068,0.614c0.001,2.262,0,4.524,0,6.786
			C65.379,16.161,65.359,16.365,65.305,16.566z"/>
		<path fill="#323232" d="M59.165,28.238c-0.001,0-0.003,0-0.003,0c-0.001-1.189,0.02-2.379-0.008-3.568
			c-0.032-1.591-0.967-2.727-2.473-3.043c-0.666-0.141-1.334-0.128-1.998,0.041c-1.156,0.293-1.886,1.018-2.195,2.165
			c-0.105,0.39-0.141,0.787-0.141,1.188c0.002,2.146,0.002,4.293-0.002,6.438c0,0.299,0.021,0.597,0.073,0.888
			c0.229,1.239,0.924,2.084,2.151,2.438c0.723,0.208,1.457,0.218,2.188,0.048c1.237-0.287,2.006-1.065,2.305-2.299
			c0.082-0.341,0.104-0.688,0.104-1.039C59.162,30.41,59.165,29.324,59.165,28.238z M56.934,31.292c0,0.194,0,0.388-0.013,0.581
			c-0.06,0.97-1.019,1.462-1.858,0.957c-0.199-0.119-0.317-0.3-0.386-0.516c-0.062-0.198-0.091-0.401-0.091-0.61
			c0.001-2.313,0.001-4.628,0-6.94c0-0.184,0.025-0.361,0.074-0.537c0.109-0.401,0.359-0.646,0.779-0.703
			c0.151-0.021,0.304-0.043,0.463-0.024c0.662,0.075,0.961,0.375,1.016,1.046c0.016,0.206,0.016,0.414,0.016,0.62
			c0,1.021,0,2.042,0,3.063S56.934,30.271,56.934,31.292z"/>
		<path fill="#323232" d="M50.887,28.27c-0.006,0-0.01,0-0.016,0c0-1.268,0.033-2.535-0.01-3.801
			c-0.047-1.424-0.959-2.474-2.346-2.811c-0.705-0.172-1.406-0.166-2.107,0.013c-1.107,0.28-1.825,0.963-2.16,2.058
			c-0.135,0.44-0.154,0.891-0.154,1.342c-0.001,1.928-0.002,3.854,0.002,5.779c0,0.414-0.006,0.828,0.023,1.239
			c0.09,1.285,0.912,2.328,2.119,2.681c0.824,0.241,1.66,0.246,2.484,0.004c0.971-0.284,1.629-0.918,1.967-1.873
			c0.162-0.457,0.199-0.932,0.197-1.411C50.885,30.415,50.887,29.341,50.887,28.27z M48.682,31.421c0,0.247-0.017,0.49-0.063,0.731
			c-0.098,0.474-0.342,0.736-0.813,0.811c-0.716,0.112-1.373-0.049-1.479-1.029c-0.032-0.309-0.024-0.617-0.024-0.928
			c-0.002-0.93-0.001-1.859-0.001-2.789c0-1.046,0.001-2.092-0.001-3.138c-0.001-0.259,0.016-0.517,0.068-0.771
			c0.102-0.474,0.35-0.705,0.83-0.793c0.203-0.039,0.408-0.035,0.613,0.004c0.453,0.088,0.709,0.326,0.799,0.777
			c0.053,0.253,0.072,0.512,0.07,0.771C48.68,27.186,48.682,29.303,48.682,31.421z"/>
		<path fill="#323232" d="M39.449,5.992c-0.938,0-1.85,0-2.779,0c-0.793,4.342-1.584,8.665-2.377,13.009c0.738,0,1.431,0,2.147,0
			c0.135-0.958,0.268-1.9,0.401-2.856c0.821,0,1.615,0,2.438,0c0.066,0.487,0.116,0.96,0.196,1.428
			c0.081,0.477,0.094,0.967,0.22,1.425c0.722,0,1.401,0,2.131,0C41.031,14.643,40.24,10.319,39.449,5.992z M37.168,14.136
			c0.278-1.776,0.554-3.532,0.828-5.288c0.035-0.008,0.069-0.015,0.105-0.022c0.316,1.754,0.56,3.52,0.85,5.311
			C38.352,14.136,37.78,14.136,37.168,14.136z"/>
	</g>
</g>
</svg>
