<?xml version="1.0" encoding="utf-8"?>
<!-- Generator: Adobe Illustrator 16.0.0, SVG Export Plug-In . SVG Version: 6.00 Build 0)  -->
<!DOCTYPE svg PUBLIC "-//W3C//DTD SVG 1.0//EN" "http://www.w3.org/TR/2001/REC-SVG-20010904/DTD/svg10.dtd">
<svg version="1.0" id="Layer_1" xmlns="http://www.w3.org/2000/svg" xmlns:xlink="http://www.w3.org/1999/xlink" x="0px" y="0px"
	 width="75px" height="75px" viewBox="0 0 75 75" enable-background="new 0 0 75 75" xml:space="preserve">
<path fill="#64DAFA" d="M75.074,65.042c0,5.522-4.477,10-10,10h-55c-5.523,0-10-4.478-10-10v-55c0-5.523,4.477-10,10-10h55
	c5.523,0,10,4.477,10,10V65.042z"/>
<path fill="#FFFFFF" d="M57.436,48.92c0.306,1.98,0.642,3.872,0.879,5.775c0.334,2.672,0.322,5.356-0.549,7.925
	c-1.56,4.591-5.494,6.267-10.218,4.532c-3.592-1.321-6.504-3.645-9.313-6.137c-0.213-0.189-0.426-0.382-0.68-0.605
	c-1.432,1.182-2.814,2.4-4.281,3.51c-2.172,1.646-4.516,2.975-7.203,3.653c-3.576,0.903-6.832-0.593-8.383-3.919
	c-1.059-2.271-1.191-4.672-1.063-7.108c0.063-1.271,0.162-2.545,0.344-3.803c0.18-1.253,0.475-2.488,0.703-3.622
	c-2.574-1.107-5.146-1.994-7.492-3.296c-1.762-0.978-3.438-2.298-4.779-3.8c-2.65-2.978-2.422-6.589,0.291-9.559
	c2.285-2.499,5.227-3.942,8.305-5.158c1.18-0.466,2.85-0.575,3.422-1.431c0.494-0.74-0.27-2.305-0.447-3.51
	c-0.445-3.021-0.668-6.059,0.037-9.059c0.453-1.942,1.281-3.737,3.037-4.916c2.746-1.842,5.545-1.354,8.357-0.204
	c3.215,1.313,5.826,3.504,8.395,5.758c0.213,0.187,0.436,0.364,0.666,0.558c1.67-1.32,3.207-2.77,4.963-3.863
	c1.973-1.226,4.068-2.355,6.26-3.088c1.352-0.454,3.051-0.372,4.475-0.031c2.705,0.649,4.059,2.809,4.758,5.347
	c0.828,2.984,0.65,6.019,0.213,9.046c-0.074,0.527-0.146,1.055-0.236,1.58c-0.441,2.549-0.441,2.544,1.949,3.371
	c3.012,1.039,5.871,2.376,8.324,4.446c1.465,1.238,2.658,2.708,3.111,4.628c0.641,2.706-0.354,4.911-2.201,6.823
	c-2.5,2.588-5.664,4.035-8.971,5.238C59.227,48.323,58.335,48.611,57.436,48.92z M27.292,27.249
	c-1.941,0.238-3.883,0.477-6.041,0.743c0.771,2.111,1.457,3.984,2.229,6.095c1.391-2.464,2.619-4.636,3.846-6.808
	c0.033-0.047,0.07-0.094,0.105-0.142C27.384,27.174,27.339,27.211,27.292,27.249z M37.507,26.417
	c-1.762,0.1-3.531,0.146-5.283,0.336c-0.518,0.056-1.195,0.403-1.451,0.828c-1.809,2.981-3.557,6.003-5.242,9.057
	c-0.238,0.432-0.236,1.223,0.002,1.654c1.75,3.159,3.576,6.276,5.426,9.377c0.186,0.31,0.705,0.583,1.072,0.589
	c3.57,0.049,7.139,0.072,10.706-0.001c0.535-0.011,1.271-0.426,1.546-0.878c1.819-2.979,3.563-6.003,5.252-9.055
	c0.231-0.418,0.252-1.182,0.022-1.594c-1.755-3.16-3.574-6.281-5.425-9.383c-0.188-0.313-0.698-0.571-1.082-0.603
	C41.212,26.588,39.361,26.518,37.507,26.417z M18.397,46.091c1.133-2.832,2.199-5.489,3.246-8.157
	c0.094-0.238,0.135-0.569,0.045-0.796c-1.064-2.702-2.16-5.392-3.295-8.199c-3.785,1.146-7.541,2.395-10.422,5.378
	c-1.99,2.061-1.982,4.34,0.037,6.404C10.878,43.652,14.638,44.835,18.397,46.091z M39.661,58.324
	c2.858,2.658,5.771,5.25,9.672,6.332c2.914,0.81,5.017-0.303,5.742-3.215c0.981-3.926,0.393-7.807-0.636-11.678
	c-0.265,0-0.431-0.021-0.584,0.004c-2.271,0.361-4.539,0.709-6.799,1.109c-0.688,0.123-1.599,0.188-1.981,0.639
	C43.23,53.665,41.536,55.936,39.661,58.324z M56.667,46.107c0.998-0.349,2.013-0.58,2.91-1.041c2.297-1.168,4.694-2.224,6.769-3.719
	c2.952-2.137,2.987-4.938,0.348-7.433c-2.834-2.671-6.405-3.879-10.06-4.982c-1.131,2.83-2.231,5.566-3.315,8.308
	c-0.065,0.168-0.047,0.414,0.022,0.588C54.417,40.534,55.509,43.23,56.667,46.107z M20.55,49.699
	c-0.146,0.695-0.25,1.172-0.342,1.652c-0.588,3.111-1.17,6.229-0.416,9.396c0.904,3.809,3.072,4.975,6.773,3.643
	c3.08-1.109,5.535-3.166,7.984-5.252c0.82-0.697,0.736-1.146,0.109-1.891c-1.545-1.816-2.982-3.723-4.518-5.543
	c-0.295-0.35-0.822-0.607-1.279-0.688c-1.695-0.303-3.41-0.498-5.113-0.759C22.708,50.102,21.671,49.896,20.55,49.699z
	 M35.386,16.641c-2.848-2.58-5.705-5.252-9.65-6.28c-3.043-0.792-5.002,0.304-5.814,3.312c-1.053,3.911-0.189,7.714,0.623,11.498
	c2.947-0.409,5.787-0.787,8.613-1.212c0.328-0.05,0.695-0.303,0.908-0.569C31.835,21.182,33.573,18.948,35.386,16.641z
	 M39.62,16.725c1.353,1.628,2.752,3.087,3.877,4.737c1.094,1.607,2.229,2.712,4.36,2.794c2.183,0.083,4.349,0.615,6.569,0.958
	c0.992-3.33,1.367-6.718,0.998-10.126c-0.401-3.719-2.104-5.181-5.286-4.907c-0.484,0.041-0.972,0.176-1.438,0.332
	C45.141,11.715,42.382,14.097,39.62,16.725z M41.529,51.411c-2.758,0-5.247,0-8.038,0c1.434,1.703,2.684,3.183,4.033,4.787
	C38.917,54.535,40.161,53.047,41.529,51.411z M53.759,28.062c-2.237-0.367-4.141-0.679-6.221-1.02
	c1.371,2.407,2.623,4.602,4.032,7.069C52.327,32.013,53.003,30.151,53.759,28.062z M21.276,46.875
	c2.225,0.391,4.168,0.73,6.283,1.102c-1.391-2.396-2.674-4.604-4.1-7.063C22.696,42.998,22.028,44.82,21.276,46.875z M51.575,40.908
	c-1.404,2.432-2.658,4.604-4.072,7.059c2.015-0.354,3.746-0.627,5.457-0.994c0.22-0.048,0.541-0.648,0.465-0.883
	C52.891,44.43,52.266,42.799,51.575,40.908z M41.023,23.563c0.074-0.093,0.149-0.187,0.229-0.279
	c-1.201-1.444-2.4-2.889-3.734-4.491c-1.377,1.641-2.602,3.104-3.998,4.77C36.278,23.563,38.65,23.563,41.023,23.563z"/>
<path fill="#FFFFFF" d="M31.503,37.432c0.01-3.354,2.715-6.114,5.979-6.103c3.282,0.01,6.135,2.863,6.143,6.146
	c0.008,3.398-2.789,6.128-6.242,6.093C34.079,43.536,31.489,40.833,31.503,37.432z"/>
</svg>
