<?xml version="1.0" encoding="utf-8"?>
<!-- Generator: Adobe Illustrator 16.0.0, SVG Export Plug-In . SVG Version: 6.00 Build 0)  -->
<!DOCTYPE svg PUBLIC "-//W3C//DTD SVG 1.0//EN" "http://www.w3.org/TR/2001/REC-SVG-20010904/DTD/svg10.dtd">
<svg version="1.0" id="Layer_1" xmlns="http://www.w3.org/2000/svg" xmlns:xlink="http://www.w3.org/1999/xlink" x="0px" y="0px"
	 width="20px" height="20px" viewBox="0 0 20 20" enable-background="new 0 0 20 20" xml:space="preserve">
<path fill="#010101" d="M7.976,4.42C6.425,5.175,5.348,6.751,5.348,8.592c0,2.57,2.084,4.654,4.652,4.654
	c2.568,0,4.654-2.083,4.654-4.654c0-1.84-1.077-3.417-2.629-4.172C11.366,4.303,10.693,4.221,10,4.221
	C9.307,4.221,8.636,4.303,7.976,4.42z"/>
<path fill="#010101" d="M14.693,5.229c0.681,0.948,1.086,2.107,1.086,3.363c0,3.191-2.588,5.779-5.779,5.779
	c-3.191,0-5.779-2.588-5.779-5.779c0-1.256,0.405-2.415,1.085-3.363C3.077,6.226,1.216,7.9,0,10c1.998,3.452,5.725,5.779,10,5.779
	c4.275,0,8.002-2.328,10-5.779C18.784,7.9,16.923,6.226,14.693,5.229z"/>
</svg>
