<?xml version="1.0" encoding="utf-8"?>
<!-- Generator: Adobe Illustrator 16.0.0, SVG Export Plug-In . SVG Version: 6.00 Build 0)  -->
<!DOCTYPE svg PUBLIC "-//W3C//DTD SVG 1.0//EN" "http://www.w3.org/TR/2001/REC-SVG-20010904/DTD/svg10.dtd">
<svg version="1.0" id="Layer_1" xmlns="http://www.w3.org/2000/svg" xmlns:xlink="http://www.w3.org/1999/xlink" x="0px" y="0px"
	 width="30px" height="30px" viewBox="0 0 30 30" enable-background="new 0 0 30 30" xml:space="preserve">
<path d="M30.012,2.167L29.15,1.532l-0.002,0.005c-0.021-0.015-0.041-0.032-0.062-0.047c-2.36-1.438-4.928-1.821-7.562-1.214
	c-1.721,0.397-3.416,0.93-5.106,1.461l0.002-0.021c-0.603,0.189-1.203,0.384-1.803,0.578c-0.096,0.03-0.197,0.061-0.291,0.089
	l-3.055,0.933C9.098,3.917,6.994,3.9,4.996,2.919C3.875,2.278,2.234,1.031,2.234,1.031l0.008,4.786h0.002v7.065
	c0,2.709,0,5.417-0.01,8.126c0,0.037,0.01,0.066,0.01,0.102l-0.01-0.002v0.822l0.859,0.635v-0.006
	c0.025,0.016,0.043,0.032,0.064,0.047c2.359,1.438,4.928,1.821,7.559,1.215c1.723-0.398,3.416-0.932,5.109-1.461L15.82,22.38
	c0.602-0.188,1.203-0.385,1.803-0.578c0.098-0.028,0.193-0.061,0.295-0.089l3.053-0.933c2.172-0.603,4.279-0.585,6.275,0.396
	c1.125,0.642,2.766,1.888,2.766,1.888l-0.006-2.658V7.152c0.002-1.354,0-2.71,0.006-4.063C30.012,3.051,30,3.021,30,2.986
	l0.012,0.002V2.167z M21.41,13.509c-0.281,0.23-0.506,0.457-0.15,0.795c-0.205,0.188-0.383,0.345-0.555,0.506
	c-0.189,0.177-0.25,0.392-0.299,0.652c-0.043,0.226-0.264,0.483-0.477,0.595c-0.513,0.269-1.054,0.5-1.668,0.416
	c-0.134-0.019-0.281,0.031-0.412,0.08c-0.229,0.088-0.406,0.149-0.625-0.083c-0.111-0.116-0.396-0.067-0.648-0.1
	c0.324-0.456,0.363-0.941,0.201-1.369c-0.557-0.081-1.076-0.192-1.598-0.219c-0.355-0.017-0.717,0.096-1.074,0.127
	c-0.141,0.011-0.289-0.031-0.426-0.075c-0.088-0.027-0.152-0.125-0.24-0.151c-0.85-0.254-0.908-0.917-0.861-1.639
	c0.004-0.059,0.008-0.119,0.008-0.178c0-0.011-0.008-0.022-0.035-0.098c-0.223,0.076-0.443,0.152-0.684,0.232
	c-0.375-0.48-0.043-0.899,0.154-1.328c0.086-0.185,0.266-0.365-0.1-0.46c0.088-0.121,0.148-0.205,0.205-0.285
	c-0.246-0.198-0.641,0.097-0.789-0.277c-0.045-0.122-0.027-0.27-0.043-0.469c-0.488-0.026-0.592-0.504-0.754-0.909
	c-0.057-0.136-0.01-0.313-0.01-0.492c0.277,0.383,0.461,0.865,0.803,1.047c0.367,0.195,0.883,0.108,1.354,0.146
	c0.023,0.125,0.043,0.247,0.068,0.387c0.535-0.101,1.098-0.071,1.471-0.546c0.088-0.112,0.135-0.259,0.188-0.395
	c0.02-0.053,0.016-0.12,0.008-0.178c-0.09-0.702,0.266-1.167,0.813-1.528c0.086-0.056,0.189-0.1,0.291-0.112
	c0.308-0.039,0.621-0.032,0.925-0.092c0.549-0.11,1.062-0.058,1.528,0.271c0.029,0.021,0.066,0.045,0.099,0.041
	c0.397-0.06,0.696,0.036,0.881,0.442c0.026,0.063,0.291,0.063,0.429,0.028c0.489-0.121,0.842,0.186,1.229,0.371
	c0.059,0.027,0.088,0.154,0.094,0.238c0.018,0.226,0.006,0.453,0.021,0.678c0.031,0.395,0.215,0.83-0.438,1.018
	c1.021,0.607,1.321,1.508,1.345,2.556c0.032-0.008,0.063-0.016,0.1-0.024C21.627,13.26,21.535,13.407,21.41,13.509z"/>
<path d="M1.266,22.418v-2.5H1.27c0.008-2.348,0.008-4.691,0.008-7.036L1.264,0.002h-1.275v25.296l0,0v4.705h2.609v-4.704v-1.9
	L1.266,22.418z"/>
</svg>
