<?xml version="1.0" encoding="utf-8"?>
<!-- Generator: Adobe Illustrator 16.0.0, SVG Export Plug-In . SVG Version: 6.00 Build 0)  -->
<!DOCTYPE svg PUBLIC "-//W3C//DTD SVG 1.0//EN" "http://www.w3.org/TR/2001/REC-SVG-20010904/DTD/svg10.dtd">
<svg version="1.0" id="Layer_1" xmlns="http://www.w3.org/2000/svg" xmlns:xlink="http://www.w3.org/1999/xlink" x="0px" y="0px"
	 width="75px" height="75px" viewBox="0 0 75 75" enable-background="new 0 0 75 75" xml:space="preserve">
<path fill="#D46FA3" d="M75,70c0,2.762-2.238,5-5,5H5c-2.761,0-5-2.238-5-5V5c0-2.761,2.239-5,5-5h65c2.762,0,5,2.239,5,5V70z"/>
<path fill="#FFFFFF" d="M71.4,47.754c-0.514-2.926-2.348-4.716-4.996-5.757c-2.352-0.923-4.783-0.931-7.215-0.376
	c-1,0.229-1.961,0.62-2.988,0.953c-0.154-0.282-0.33-0.608-0.51-0.934c-0.779-1.418-1.162-2.928-0.909-4.541
	c0.122-0.792,0.354-1.575,0.599-2.341c0.264-0.822,0.087-1.181-0.768-1.242c-0.58-0.042-1.168-0.047-1.744,0.01
	c-1.242,0.124-1.418,0.352-1.697,1.36c-0.279,1.004-0.566,2.024-1.012,2.962c-0.682,1.434-1.485,2.807-2.256,4.197
	c-0.313,0.565-0.674,1.106-1.045,1.711c-0.164-0.313-0.289-0.549-0.414-0.782c-0.57-1.067-0.725-2.248-0.633-3.406
	c0.078-1.016,0.414-2.014,0.678-3.011c0.168-0.637,0.064-0.973-0.582-1.023c-0.844-0.066-1.699-0.02-2.541,0.068
	c-0.706,0.074-0.842,0.311-1.02,0.997c-0.184,0.709-0.388,1.42-0.67,2.094c-0.652,1.562-1.346,3.104-2.045,4.645
	c-1.063,2.348-2.146,4.686-3.229,7.021c-0.173,0.373-0.394,0.725-0.594,1.084c-0.06-0.01-0.12-0.021-0.182-0.029
	c-0.003-0.396-0.083-0.813,0.002-1.188c0.521-2.309,1.07-4.608,1.636-6.906c0.158-0.637,0.137-0.967-0.238-1.271
	c-0.427-0.344-1.073-0.417-1.525-0.176c-0.094,0.05-0.193,0.086-0.306,0.135c0-0.771,0.079-1.493-0.016-2.192
	c-0.234-1.735-1.423-2.169-2.877-1.803c-1.806,0.459-3.168,1.633-4.384,2.992c-0.316,0.354-0.611,0.764-1.005,0.998
	c-1.325,0.788-2.689,1.51-4.04,2.253c-0.723,0.396-1.447,0.788-2.188,1.19c-0.245-0.232-0.46-0.463-0.701-0.659
	c-1.807-1.479-3.621-2.953-5.432-4.431c-1.256-1.023-2.449-2.108-3.32-3.502c-0.918-1.471-1.201-3.053-0.824-4.742
	c0.529-2.364,1.938-4.188,3.646-5.812c1.745-1.66,3.723-3.009,5.792-4.227c2.16-1.271,4.383-2.423,6.723-3.321
	c2.219-0.85,4.494-1.483,6.864-1.765c2.378-0.284,4.73-0.279,7.014,0.541c0.966,0.347,1.881,0.843,2.408,1.78
	c0.765,1.357,0.646,2.794,0.121,4.177c-1.142,3.021-3.365,5.13-6.026,6.811c-1.523,0.962-3.167,1.688-4.91,2.189
	c-2.191,0.63-4.397,1.072-6.689,0.774c-1.555-0.203-2.965-0.718-4.073-1.896c-0.135-0.145-0.442-0.277-0.594-0.217
	c-0.286,0.111-0.21,0.41-0.126,0.667c0.459,1.407,1.561,2.202,2.778,2.854c1.383,0.738,2.899,0.909,4.444,0.937
	c2.22,0.041,4.391-0.254,6.527-0.851c1.813-0.506,3.574-1.137,5.167-2.146c1.938-1.229,3.619-2.743,4.961-4.631
	c1.608-2.262,2.619-4.705,2.496-7.527c-0.076-1.777-0.707-3.32-2.009-4.565c-1.575-1.505-3.526-2.265-5.604-2.688
	c-2.017-0.412-4.069-0.523-6.132-0.313c-2.155,0.219-4.27,0.621-6.314,1.343c-1.073,0.378-2.139,0.778-3.193,1.206
	c-2.182,0.883-4.29,1.925-6.326,3.106c-2.457,1.425-4.768,3.053-6.813,5.031c-2.02,1.949-3.717,4.119-4.76,6.783
	c-0.895,2.284-0.559,4.37,0.672,6.392c1.045,1.714,2.443,3.125,4,4.349c1.813,1.424,3.729,2.715,5.596,4.066
	c0.704,0.508,1.395,1.027,2.19,1.615c-0.282,0.168-0.441,0.272-0.609,0.363c-0.83,0.445-1.688,0.85-2.49,1.34
	c-1.648,1.01-3.261,2.063-4.71,3.361c-1.622,1.455-2.774,3.139-3.007,5.352c-0.147,1.425,0.149,2.754,1.029,3.902
	c0.598,0.783,1.455,1.108,2.419,1.213c1.619,0.176,3.206,0.071,4.737-0.518c1.78-0.686,3.29-1.754,4.531-3.209
	c1.531-1.796,2.364-3.881,2.544-6.216c0.136-1.765,0.034-3.513-0.804-5.175c1.195-0.682,2.362-1.349,3.646-2.082
	c-0.054,0.266-0.065,0.381-0.101,0.486c-0.437,1.381-0.69,2.807-0.695,4.244c-0.001,0.959,0.221,1.926,0.396,2.877
	c0.189,1.016,0.643,1.932,1.266,2.752c0.393,0.518,0.899,0.824,1.594,0.876c1.053,0.079,1.828-0.345,2.333-1.212
	c0.571-0.98,1.063-2.009,1.574-3.025c0.224-0.443,0.406-0.908,0.608-1.363c0.104,0.142,0.115,0.266,0.115,0.391
	c0,0.583-0.067,1.176,0.013,1.746c0.087,0.612,0.247,1.23,0.489,1.801c0.283,0.665,1.072,0.946,1.748,0.686
	c0.816-0.317,1.393-0.941,1.83-1.664c0.635-1.047,1.254-2.109,1.796-3.207c1.17-2.378,2.293-4.78,3.423-7.18
	c0.313-0.666,0.58-1.354,0.918-2.146c0.226,0.868,0.365,1.623,0.622,2.335c0.333,0.924,0.756,1.815,1.146,2.718
	c0.116,0.271,0.315,0.514,0.063,0.826c-0.826,1.026-1.646,2.061-2.461,3.094c-0.66,0.834-1.369,1.635-1.955,2.52
	c-0.586,0.884-0.188,1.648,0.857,1.835c0.135,0.022,0.271,0.022,0.406,0.022c1.783,0.025,3.398-0.548,4.862-1.513
	c0.978-0.646,1.702-1.519,2.038-2.703c0.384-1.348,0.139-2.616-0.35-3.86c-0.172-0.438-0.213-0.776,0.112-1.146
	c0.194-0.222,0.353-0.485,0.5-0.744c0.978-1.702,1.944-3.409,2.918-5.114c0.032-0.056,0.093-0.098,0.153-0.164
	c0.052,0.084,0.102,0.131,0.107,0.186c0.295,1.634,0.805,3.191,1.598,4.657c0.054,0.101-0.026,0.344-0.123,0.446
	c-0.544,0.578-1.146,1.103-1.662,1.705c-0.921,1.082-1.634,2.283-1.896,3.715c-0.303,1.641,0.621,2.709,2.092,2.324
	c1.791-0.469,3.375-1.326,4.589-2.769c0.709-0.841,1.17-1.791,1.028-2.925c-0.076-0.62-0.197-1.242-0.377-1.842
	c-0.107-0.375-0.019-0.521,0.328-0.607c0.58-0.146,1.149-0.348,1.735-0.457c2.114-0.387,4.218-0.275,6.274,0.325
	c1.627,0.474,3.033,1.313,3.938,2.806c0.902,1.484,0.988,3.197-0.48,4.528c-0.311,0.28-0.676,0.493-0.996,0.761
	c-0.098,0.081-0.209,0.299-0.172,0.355c0.078,0.109,0.248,0.176,0.393,0.216c0.09,0.024,0.205-0.022,0.303-0.054
	C70.393,52.038,71.754,49.775,71.4,47.754z M20.056,51.884c-0.367,2.083-1.427,3.767-3.007,5.113
	c-1.095,0.933-2.358,1.603-3.845,1.659c-1.131,0.042-1.68-0.53-1.689-1.666c-0.014-1.426,0.604-2.609,1.458-3.684
	c1.075-1.354,2.478-2.339,3.887-3.303c0.815-0.559,1.669-1.061,2.505-1.583c0.125-0.077,0.257-0.144,0.453-0.253
	C20.15,49.448,20.276,50.648,20.056,51.884z M32.934,43.387c-0.729,2.076-1.488,4.144-2.284,6.193
	c-0.302,0.777-0.731,1.505-1.116,2.249c-0.067,0.129-0.188,0.233-0.297,0.335c-0.258,0.236-0.469,0.207-0.651-0.107
	c-0.443-0.776-0.407-1.641-0.476-2.348c0.038-2.313,0.604-4.334,1.697-6.216c0.567-0.976,1.135-1.944,2.112-2.574
	c0.25-0.161,0.52-0.302,0.799-0.403c0.506-0.188,0.867,0.077,0.771,0.604C33.349,41.885,33.19,42.655,32.934,43.387z M42.527,52.4
	c1.096-1.281,2.145-2.512,3.205-3.752C46.17,49.768,43.926,52.424,42.527,52.4z M52.063,50.243c-0.396-0.833,1.158-3.729,2.42-4.546
	C55.163,46.813,54.635,49.421,52.063,50.243z"/>
</svg>
