<?xml version="1.0" encoding="utf-8"?>
<!-- Generator: Adobe Illustrator 16.0.0, SVG Export Plug-In . SVG Version: 6.00 Build 0)  -->
<!DOCTYPE svg PUBLIC "-//W3C//DTD SVG 1.0//EN" "http://www.w3.org/TR/2001/REC-SVG-20010904/DTD/svg10.dtd">
<svg version="1.0" id="Layer_1" xmlns="http://www.w3.org/2000/svg" xmlns:xlink="http://www.w3.org/1999/xlink" x="0px" y="0px"
	 width="30px" height="30px" viewBox="0 0 30 30" enable-background="new 0 0 30 30" xml:space="preserve">
<path fill="#FFFFFF" d="M14.998,29.989C6.734,29.989,0.011,23.266,0.011,15c0-8.265,6.723-14.989,14.987-14.989
	c8.266,0,14.99,6.724,14.99,14.989C29.988,23.266,23.264,29.989,14.998,29.989z M14.998,1.864C7.756,1.864,1.862,7.757,1.862,15
	c0,7.244,5.894,13.137,13.136,13.137c7.245,0,13.139-5.893,13.139-13.137C28.137,7.757,22.243,1.864,14.998,1.864z"/>
<path fill="#FFFFFF" d="M13.689,26.189c0.268,0.108,0.552,0.164,0.854,0.164c0.301,0,0.587-0.056,0.854-0.164
	c0.27-0.11,0.5-0.266,0.696-0.463c0.198-0.195,0.353-0.426,0.464-0.688c0.109-0.262,0.164-0.548,0.164-0.863
	c0-0.302-0.055-0.585-0.164-0.853c-0.111-0.267-0.266-0.5-0.464-0.697c-0.196-0.199-0.427-0.354-0.696-0.471
	c-0.268-0.116-0.554-0.175-0.854-0.175c-0.303,0-0.587,0.059-0.854,0.175c-0.265,0.116-0.495,0.271-0.688,0.471
	c-0.191,0.197-0.345,0.431-0.453,0.697c-0.108,0.268-0.164,0.551-0.164,0.853c0,0.315,0.056,0.602,0.164,0.863
	c0.108,0.261,0.262,0.491,0.453,0.688C13.194,25.925,13.425,26.08,13.689,26.189z"/>
<path fill="#FFFFFF" d="M20.834,6.955c-0.322-0.696-0.771-1.289-1.342-1.776c-0.567-0.487-1.245-0.865-2.027-1.133
	c-0.785-0.267-1.636-0.399-2.556-0.399c-0.693,0-1.343,0.066-1.941,0.2C12.369,3.98,11.814,4.162,11.3,4.395
	c-0.521,0.232-0.997,0.499-1.434,0.801C9.433,5.497,9.034,5.819,8.675,6.153l0.818,1.308c0.164,0.267,0.388,0.4,0.679,0.4
	c0.14,0,0.317-0.086,0.534-0.261c0.212-0.174,0.495-0.366,0.843-0.574c0.35-0.21,0.776-0.401,1.279-0.576
	c0.506-0.174,1.113-0.26,1.821-0.26c0.525,0,1.019,0.074,1.473,0.226c0.458,0.151,0.854,0.37,1.192,0.654
	c0.338,0.284,0.604,0.63,0.804,1.036c0.196,0.407,0.295,0.861,0.295,1.36c0,0.696-0.131,1.3-0.392,1.812
	c-0.262,0.511-0.594,0.967-0.994,1.367c-0.397,0.401-0.832,0.767-1.289,1.098c-0.458,0.331-0.887,0.663-1.288,0.993
	c-0.401,0.33-0.729,0.685-0.994,1.063c-0.262,0.377-0.393,0.811-0.393,1.299v0.19l0.212,2.892h2.123l0.313-2.664
	c0.046-0.385,0.221-0.732,0.516-1.047c0.297-0.313,0.651-0.628,1.063-0.941c0.409-0.313,0.854-0.646,1.332-1
	c0.476-0.355,0.916-0.772,1.315-1.256c0.399-0.481,0.729-1.041,0.992-1.681c0.262-0.638,0.395-1.399,0.395-2.283
	C21.324,8.437,21.16,7.652,20.834,6.955z"/>
</svg>
