<?xml version="1.0" encoding="utf-8"?>
<!-- Generator: Adobe Illustrator 16.0.0, SVG Export Plug-In . SVG Version: 6.00 Build 0)  -->
<!DOCTYPE svg PUBLIC "-//W3C//DTD SVG 1.0//EN" "http://www.w3.org/TR/2001/REC-SVG-20010904/DTD/svg10.dtd">
<svg version="1.0" id="Layer_1" xmlns="http://www.w3.org/2000/svg" xmlns:xlink="http://www.w3.org/1999/xlink" x="0px" y="0px"
	 width="20px" height="20px" viewBox="0 0 20 20" enable-background="new 0 0 20 20" xml:space="preserve">
<g>
	<g>
		<path fill="#F4A642" d="M19.438,1.348c-0.375-0.319-0.801-0.435-0.951-0.257L17.09,2.735c0.131,0.17,0.283,0.343,0.48,0.51
			c0.328,0.28,0.662,0.459,0.951,0.559l1.324-1.558C19.997,2.069,19.813,1.667,19.438,1.348z"/>
		<path fill="#F4A642" d="M17.307,3.555c-0.193-0.163-0.349-0.333-0.484-0.504L6.797,14.883c0.143,0.21,0.321,0.428,0.57,0.639
			c0.276,0.235,0.552,0.389,0.807,0.496L18.25,4.125C17.945,4.008,17.625,3.825,17.307,3.555z"/>
		<path fill="#F4A642" d="M7.104,15.832c-0.217-0.184-0.389-0.374-0.535-0.566l-0.762,2.161l2.034-1.112
			C7.6,16.197,7.35,16.042,7.104,15.832z"/>
	</g>
	<path fill="#F4A642" d="M8.943,16.533l-4.641,2.539l0.029-0.084L4.27,19.021l1.485-4.088l0.011-0.013l0.296-0.838l0.12-0.142
		L17.145,1.04V0.989c0-0.553-0.447-1.001-1.002-1.001H3.859c-0.553,0-1.002,0.448-1.002,1.001v18.022
		c0,0.553,0.449,1.002,1.002,1.002h12.284c0.553,0,1-0.449,1-1.002V6.883L8.943,16.533z"/>
</g>
</svg>
