<?xml version="1.0" encoding="utf-8"?>
<!-- Generator: Adobe Illustrator 16.0.0, SVG Export Plug-In . SVG Version: 6.00 Build 0)  -->
<!DOCTYPE svg PUBLIC "-//W3C//DTD SVG 1.0//EN" "http://www.w3.org/TR/2001/REC-SVG-20010904/DTD/svg10.dtd">
<svg version="1.0" id="Layer_1" xmlns="http://www.w3.org/2000/svg" xmlns:xlink="http://www.w3.org/1999/xlink" x="0px" y="0px"
	 width="30px" height="30px" viewBox="0 0 30 30" enable-background="new 0 0 30 30" xml:space="preserve">
<polygon fill="#FFFFFF" points="12.414,18.502 15.938,14.977 12.414,11.454 12.414,13.258 3.529,13.258 3.529,16.788 12.414,16.788 
	"/>
<polygon fill="#FFFFFF" points="10.638,3.551 18.814,3.551 23.809,0.022 7.108,0.022 7.108,11.454 10.638,11.454 "/>
<polygon fill="#FFFFFF" points="27.971,0.022 26.471,0.022 26.471,-0.022 26.408,0.022 26.344,0.022 26.344,0.068 17.743,6.145 
	17.743,24.813 26.344,29.902 26.344,30.021 27.971,30.021 30,30.021 30,0.022 "/>
<polygon fill="#FFFFFF" points="17.639,26.493 10.638,26.493 10.638,18.552 7.108,18.552 7.108,30.021 23.602,30.021 "/>
</svg>
