<?xml version="1.0" encoding="utf-8"?>
<!-- Generator: Adobe Illustrator 16.0.0, SVG Export Plug-In . SVG Version: 6.00 Build 0)  -->
<!DOCTYPE svg PUBLIC "-//W3C//DTD SVG 1.1//EN" "http://www.w3.org/Graphics/SVG/1.1/DTD/svg11.dtd">
<svg version="1.1" id="Layer_1" xmlns="http://www.w3.org/2000/svg" xmlns:xlink="http://www.w3.org/1999/xlink" x="0px" y="0px"
	 width="80px" height="35px" viewBox="0 0 80 35" enable-background="new 0 0 80 35" xml:space="preserve">
<g id="footer_x5F_logos">
	<g>
		<path fill="#FFFFFF" d="M6.127,28.008c0.404,0,0.775-0.019,1.143,0.004c0.51,0.032,0.871,0.338,0.959,0.848
			c0.152,0.873,0.15,1.752-0.01,2.625c-0.086,0.474-0.471,0.776-0.951,0.8C6.899,32.3,6.53,32.286,6.127,32.286
			C6.127,30.861,6.127,29.464,6.127,28.008z M2.088,29.4c0.156-0.112,0.129-0.301,0.176-0.455c0.627-2.157,2.566-3.534,4.859-3.439
			c2.104,0.086,3.939,1.703,4.355,3.837c0.018,0.091,0.027,0.185,0.088,0.259c0,0.424,0,0.848,0,1.271
			c-0.084,0.294-0.154,0.593-0.254,0.884c-0.674,1.995-2.51,3.265-4.652,3.22c-1.992-0.041-3.807-1.449-4.387-3.4
			c-0.051-0.169-0.031-0.369-0.186-0.5C2.088,30.516,2.088,29.958,2.088,29.4z M4.859,26.816C4.752,27.439,4.777,33.13,4.88,33.47
			c0.844,0,1.695,0.037,2.541-0.009c1.188-0.063,1.988-0.764,2.146-1.928c0.127-0.917,0.119-1.858,0.004-2.777
			c-0.119-0.958-0.684-1.628-1.652-1.838C6.916,26.702,5.895,26.854,4.859,26.816z"/>
		<path fill="#FFFFFF" d="M21.041,29.607c0.084-0.295,0.158-0.592,0.256-0.883c0.705-2.089,2.678-3.375,4.918-3.217
			c2.045,0.146,3.813,1.746,4.221,3.82c0.018,0.091,0.025,0.186,0.092,0.256c0,0.436,0,0.868,0,1.301
			c-0.137,0.184-0.111,0.412-0.17,0.617c-0.631,2.186-2.568,3.563-4.883,3.467c-2.09-0.089-3.918-1.705-4.344-3.846
			c-0.018-0.089-0.059-0.173-0.09-0.259C21.041,30.447,21.041,30.027,21.041,29.607z M28.152,26.859c-1.609,0-3.166,0-4.74,0
			c-0.016,0.395-0.061,0.758,0.027,1.121c0.57,0.062,1.127-0.03,1.713,0.06c0,1.813,0,3.603,0,5.416
			c0.449,0.021,0.855,0.03,1.299-0.006c0-1.841,0-3.63,0-5.431c0.588-0.057,1.141,0.028,1.709-0.055
			C28.178,27.587,28.186,27.236,28.152,26.859z"/>
		<path fill="#FFFFFF" d="M68.445,30.887c-0.139,0.184-0.113,0.412-0.172,0.618c-0.631,2.183-2.566,3.563-4.883,3.468
			c-2.092-0.089-3.916-1.707-4.344-3.847c-0.021-0.088-0.063-0.172-0.092-0.259c0-0.419,0-0.84,0-1.26
			c0.084-0.295,0.156-0.592,0.256-0.883c0.705-2.089,2.68-3.375,4.92-3.216c2.043,0.146,3.813,1.746,4.221,3.821
			c0.018,0.091,0.025,0.186,0.094,0.256C68.445,30.021,68.445,30.454,68.445,30.887z M61.27,32.641
			c0.785,1.023,3.014,1.071,3.898,0.498c0.691-0.445,1.045-1.174,0.91-1.98c-0.143-0.872-0.555-1.294-1.469-1.5
			c-0.135-0.031-0.273-0.049-0.408-0.077c-0.332-0.074-0.68-0.063-0.998-0.194c-0.537-0.22-0.633-0.867-0.186-1.242
			c0.186-0.154,0.404-0.213,0.643-0.229c0.527-0.034,1.01,0.096,1.463,0.428c0.268-0.249,0.533-0.478,0.744-0.754
			c-0.057-0.179-0.195-0.258-0.326-0.335c-0.973-0.58-1.99-0.643-3.014-0.181c-0.76,0.342-1.15,1.151-1.037,2
			c0.113,0.844,0.613,1.354,1.51,1.526c0.379,0.071,0.764,0.111,1.141,0.188c0.48,0.095,0.674,0.316,0.68,0.736
			c0.008,0.41-0.195,0.66-0.652,0.771c-0.768,0.186-1.465,0.021-2.082-0.439C61.814,32.113,61.551,32.369,61.27,32.641z"/>
		<path fill="#FFFFFF" d="M68.445,30.887c0-0.434,0-0.867,0-1.3c0.078-0.104,0.074-0.231,0.1-0.353
			c0.467-2.205,2.461-3.776,4.736-3.735c2.246,0.042,4.164,1.675,4.557,3.887c0.455,2.544-1.207,5.021-3.684,5.494
			c-2.643,0.505-5.098-1.124-5.625-3.731C68.512,31.059,68.473,30.975,68.445,30.887z M75.572,32.288c-1.023,0-2.008,0-3.016,0
			c-0.045-0.541-0.035-1.042-0.01-1.595c0.869,0,1.711,0,2.568,0c0.021-0.416,0.043-0.777-0.018-1.178c-0.861,0-1.689,0-2.535,0
			c0-0.525,0-1.009,0-1.529c1.021,0,2.004,0,3.012,0c0.023-0.4,0.033-0.762-0.002-1.129c-1.467,0-2.893,0-4.305,0
			c0,2.224,0,4.41,0,6.586c1.457,0,2.873,0,4.305,0C75.607,33.063,75.605,32.711,75.572,32.288z"/>
		<path fill="#FFFFFF" d="M30.527,30.889c0-0.435,0-0.867,0-1.302c0.078-0.104,0.076-0.231,0.102-0.353
			c0.461-2.183,2.439-3.76,4.678-3.735c2.252,0.024,4.18,1.625,4.607,3.821c0.021,0.104,0.059,0.207,0.088,0.31
			c0,0.406,0,0.812,0,1.216c-0.111,0.193-0.102,0.418-0.158,0.627c-0.613,2.188-2.555,3.592-4.859,3.5
			c-2.102-0.082-3.941-1.691-4.371-3.824C30.596,31.061,30.557,30.975,30.527,30.889z M38.225,33.441
			c0.004-0.188-0.076-0.34-0.133-0.496c-0.693-1.9-1.396-3.797-2.074-5.701c-0.119-0.339-0.293-0.445-0.637-0.434
			c-0.332,0.01-0.557,0.028-0.693,0.424c-0.52,1.519-1.1,3.017-1.639,4.529c-0.193,0.547-0.438,1.078-0.572,1.672
			c0.361,0.078,0.701,0.02,1.037,0.041c0.201,0.015,0.303-0.067,0.365-0.266c0.1-0.304,0.174-0.621,0.332-0.902
			c0.781,0,1.549,0,2.32,0c0.107,0.312,0.215,0.601,0.305,0.896c0.049,0.166,0.115,0.282,0.313,0.272
			C37.498,33.458,37.855,33.512,38.225,33.441z M35.391,28.912c0.256,0.734,0.561,1.443,0.748,2.234c-0.525,0-1.01,0-1.551,0
			C34.813,30.371,35.086,29.643,35.391,28.912z"/>
		<path fill="#FFFFFF" d="M21.041,29.607c0,0.42,0,0.84,0,1.26c-0.063,0.238-0.117,0.477-0.188,0.713
			c-0.625,2.118-2.588,3.49-4.848,3.393c-2.074-0.092-3.924-1.705-4.344-3.793c-0.021-0.105-0.033-0.214-0.096-0.307
			c0-0.423,0-0.846,0-1.27c0.104-0.147,0.086-0.326,0.127-0.489c0.549-2.19,2.506-3.671,4.775-3.612
			c2.191,0.057,4.061,1.656,4.49,3.843C20.977,29.434,21.014,29.52,21.041,29.607z M19.039,33.475
			c0.063-0.144,0.02-0.211-0.006-0.283c-0.734-2.018-1.477-4.029-2.191-6.053c-0.135-0.379-0.402-0.302-0.67-0.32
			c-0.283-0.018-0.486,0.021-0.604,0.348c-0.582,1.66-1.193,3.313-1.789,4.967c-0.154,0.43-0.363,0.842-0.443,1.346
			c0.359,0,0.682-0.012,1.004,0.002c0.219,0.01,0.332-0.063,0.402-0.283c0.096-0.303,0.164-0.621,0.328-0.895
			c0.779,0,1.535,0,2.313,0c0.107,0.313,0.221,0.613,0.313,0.922c0.053,0.174,0.139,0.26,0.326,0.254
			C18.361,33.469,18.699,33.475,19.039,33.475z M16.998,31.152c-0.533,0-1.021,0-1.559,0c0.238-0.781,0.492-1.52,0.811-2.32
			C16.512,29.645,16.801,30.361,16.998,31.152z"/>
		<path fill="#FFFFFF" d="M58.957,29.607c0,0.42,0,0.84,0,1.26c-0.059,0.223-0.113,0.447-0.178,0.668
			c-0.615,2.15-2.576,3.537-4.857,3.438c-2.102-0.093-3.938-1.713-4.35-3.841c-0.018-0.091-0.027-0.183-0.088-0.259
			c0-0.423,0-0.846,0-1.27c0.07-0.09,0.072-0.199,0.094-0.307c0.43-2.188,2.396-3.802,4.623-3.799c2.281,0.002,4.229,1.589,4.67,3.8
			C58.891,29.402,58.928,29.504,58.957,29.607z M57.061,33.445c0.072-0.151-0.018-0.26-0.059-0.37
			c-0.715-1.974-1.445-3.943-2.145-5.923c-0.145-0.401-0.424-0.312-0.705-0.336c-0.305-0.028-0.473,0.064-0.582,0.377
			c-0.58,1.645-1.184,3.281-1.777,4.922c-0.154,0.431-0.355,0.847-0.447,1.322c0.359,0.071,0.699,0.017,1.033,0.039
			c0.203,0.014,0.303-0.07,0.365-0.268c0.1-0.304,0.174-0.621,0.33-0.9c0.783,0,1.553,0,2.322,0
			c0.105,0.313,0.211,0.603,0.305,0.896c0.045,0.14,0.086,0.271,0.268,0.269C56.336,33.464,56.705,33.508,57.061,33.445z
			 M54.264,28.818c0.248,0.83,0.551,1.539,0.742,2.33c-0.527,0-1.014,0-1.555,0C53.684,30.375,53.941,29.641,54.264,28.818z"/>
		<path fill="#FFFFFF" d="M49.484,29.604c0,0.422,0,0.847,0,1.27c-0.094,0.325-0.17,0.654-0.283,0.975
			c-0.717,2.014-2.691,3.276-4.863,3.12c-2.033-0.146-3.824-1.735-4.236-3.767c-0.023-0.122-0.041-0.243-0.1-0.355
			c0-0.404,0-0.81,0-1.216c0.109-0.178,0.098-0.387,0.15-0.58c0.596-2.202,2.528-3.623,4.834-3.545
			c2.135,0.072,3.971,1.671,4.41,3.838C49.414,29.432,49.455,29.516,49.484,29.604z M42.738,33.477c0.211,0,0.365,0,0.52,0
			c0.789,0,1.58,0.029,2.367-0.011c1.225-0.062,1.91-0.792,1.91-1.938c0-0.645-0.307-1.104-0.844-1.45
			c0.102-0.095,0.17-0.153,0.234-0.218c0.523-0.506,0.629-1.112,0.42-1.789c-0.217-0.693-0.717-1.068-1.412-1.176
			c-1.016-0.152-2.037-0.058-3.059-0.061c-0.039,0-0.08,0.04-0.141,0.072C42.738,29.074,42.738,31.248,42.738,33.477z
			 M44.049,30.701c0.52,0,1.01-0.021,1.5,0.006c0.43,0.023,0.682,0.338,0.682,0.779c0.002,0.459-0.26,0.771-0.719,0.794
			c-0.475,0.021-0.951,0.005-1.463,0.005C44.049,31.764,44.049,31.266,44.049,30.701z M44.033,29.497c0-0.522,0-0.979,0-1.466
			c0.508-0.053,0.998-0.051,1.484-0.01c0.387,0.033,0.623,0.35,0.621,0.737c-0.006,0.408-0.262,0.708-0.682,0.731
			C45,29.516,44.537,29.497,44.033,29.497z"/>
		<g>
			<path fill="#323232" d="M53.223,8.05c-0.068,0.204-0.121,0.363-0.174,0.522c-0.145,0.44-0.285,0.883-0.432,1.321
				c-0.111,0.326-0.236,0.647-0.346,0.974c-0.162,0.491-0.313,0.986-0.475,1.478c-0.115,0.355-0.248,0.706-0.363,1.063
				c-0.137,0.405-0.254,0.813-0.391,1.219c-0.146,0.434-0.303,0.864-0.445,1.299c-0.139,0.411-0.262,0.828-0.396,1.24
				c-0.104,0.313-0.219,0.624-0.322,0.938c-0.104,0.31-0.199,0.617-0.305,0.928c-0.123,0.369-0.256,0.736-0.375,1.105
				c-0.135,0.411-0.252,0.827-0.391,1.236c-0.143,0.427-0.303,0.848-0.447,1.271c-0.078,0.236-0.137,0.48-0.213,0.722
				c-0.064,0.217-0.145,0.431-0.217,0.646c-0.047,0.133-0.098,0.262-0.139,0.395c-0.057,0.188-0.057,0.193-0.262,0.195
				c-0.342,0.002-0.684,0-1.025,0c-0.395,0-0.789,0-1.205,0c-0.096-0.289-0.188-0.576-0.285-0.863
				c-0.119-0.354-0.246-0.705-0.365-1.062c-0.07-0.216-0.129-0.437-0.199-0.651c-0.113-0.349-0.236-0.691-0.354-1.039
				c-0.066-0.202-0.129-0.408-0.197-0.611c-0.117-0.354-0.242-0.706-0.361-1.061c-0.068-0.217-0.129-0.438-0.199-0.652
				c-0.072-0.237-0.152-0.475-0.229-0.71c-0.111-0.336-0.219-0.673-0.332-1.008c-0.115-0.34-0.238-0.679-0.354-1.019
				c-0.07-0.21-0.133-0.422-0.197-0.632c-0.074-0.23-0.146-0.462-0.225-0.691c-0.107-0.337-0.221-0.673-0.336-1.008
				c-0.119-0.348-0.244-0.692-0.357-1.04c-0.072-0.215-0.131-0.436-0.199-0.652c-0.072-0.229-0.146-0.459-0.221-0.688
				c-0.111-0.336-0.227-0.67-0.34-1.004c-0.121-0.354-0.246-0.704-0.363-1.059c-0.07-0.216-0.137-0.434-0.195-0.653
				c-0.037-0.138-0.15-0.26-0.092-0.433c1.1,0,2.205,0,3.324,0c0.545,1.781,1.074,3.557,1.633,5.324
				c0.553,1.754,1.068,3.519,1.637,5.269c0.02-0.004,0.039-0.006,0.057-0.01c0.072-0.223,0.148-0.44,0.217-0.665
				c0.074-0.245,0.141-0.494,0.215-0.74c0.143-0.459,0.283-0.917,0.43-1.374c0.152-0.484,0.313-0.968,0.461-1.453
				c0.072-0.238,0.131-0.482,0.2-0.722c0.067-0.233,0.144-0.464,0.216-0.695c0.109-0.359,0.227-0.718,0.338-1.076
				c0.086-0.272,0.18-0.543,0.264-0.816c0.072-0.245,0.141-0.493,0.213-0.739c0.064-0.225,0.139-0.448,0.205-0.673
				c0.055-0.183,0.104-0.367,0.16-0.55c0.074-0.238,0.154-0.476,0.232-0.714c0.002-0.007,0.008-0.013,0.01-0.021
				c0.123-0.443,0.104-0.356,0.521-0.359c0.899-0.005,1.802-0.001,2.699-0.001C53.012,8.05,53.092,8.05,53.223,8.05z"/>
			<path fill="#323232" d="M16.803,10.934c-1.434,0-2.859,0-4.316,0c-0.016,0.524-0.006,1.027-0.008,1.529
				c-0.002,0.505,0,1.011,0,1.517s0,1.011,0,1.517s0,1.011,0,1.517c0,0.498,0,0.996,0,1.495c0,0.505,0,1.011,0,1.517
				c0,0.507,0,1.013,0,1.519s0,1.013,0,1.519c0,0.504,0,1.008,0,1.525c-1.084,0-2.143,0-3.225,0
				c-0.006-0.111-0.012-0.215-0.012-0.314C9.24,19.936,9.24,15.6,9.24,11.265c0-0.102,0-0.204,0-0.329c-1.445,0-2.861,0-4.271,0
				c-0.057-0.208-0.057-2.675-0.004-2.872c3.941,0,7.887,0,11.828,0C16.84,8.237,16.85,10.631,16.803,10.934z"/>
			<path fill="#323232" d="M55.223,8.063c0.066-0.004,0.139-0.013,0.211-0.013c0.922-0.001,1.844,0,2.768,0
				c0.035,0,0.072,0.001,0.109,0.002c0.08,0.001,0.123,0.044,0.131,0.122c0.004,0.06,0.004,0.119,0.004,0.179
				c0,5.314,0,10.629,0,15.943c0,0.304,0,0.304-0.313,0.304c-0.883,0-1.768,0-2.652,0c-0.088,0-0.174-0.009-0.256-0.013
				C55.172,24.38,55.17,8.28,55.223,8.063z"/>
			<path fill="#323232" d="M34.619,8.065c1.084,0,2.148,0,3.229,0c0,5.512,0,11.009,0,16.517c-1.078,0-2.145,0-3.229,0
				C34.619,19.076,34.619,13.587,34.619,8.065z"/>
			<path fill="#323232" d="M30.734,22.195c-0.402-0.788-0.822-1.57-1.23-2.357c-0.406-0.786-0.809-1.576-1.217-2.373
				c0.166-0.078,0.318-0.148,0.469-0.219c0.479-0.221,0.896-0.534,1.264-0.904c0.395-0.397,0.711-0.856,0.92-1.385
				c0.16-0.406,0.277-0.821,0.307-1.259c0.027-0.406,0.029-0.814-0.002-1.22c-0.02-0.235-0.039-0.478-0.107-0.701
				c-0.129-0.427-0.277-0.846-0.502-1.239c-0.426-0.746-1-1.335-1.74-1.765c-0.432-0.251-0.889-0.437-1.379-0.554
				c-0.406-0.097-0.813-0.17-1.229-0.17c-2.217-0.001-4.432,0-6.648,0.001c-0.063,0-0.125,0.012-0.191,0.019
				c-0.008,0.049-0.016,0.077-0.016,0.105c-0.002,5.421-0.002,10.842-0.002,16.264c0,0.037,0.01,0.072,0.014,0.109
				c0.002,0.006,0.008,0.014,0.012,0.02c0.004,0.004,0.012,0.01,0.021,0.019c1.057,0,2.117,0,3.217,0c0-2.208,0-4.384,0-6.545
				c0.037-0.021,0.051-0.035,0.063-0.035c0.699-0.003,1.398-0.005,2.098-0.007c0.094-0.001,0.139,0.05,0.178,0.135
				c0.127,0.281,0.264,0.559,0.4,0.833c0.301,0.604,0.604,1.208,0.902,1.813c0.232,0.473,0.459,0.945,0.688,1.418
				c0.24,0.496,0.48,0.99,0.723,1.484c0.148,0.303,0.301,0.604,0.451,0.898c0.326,0.042,3.561,0.025,3.752-0.023
				C31.553,23.76,31.137,22.98,30.734,22.195z M27.357,14.687c-0.268,0.244-0.584,0.397-0.922,0.496
				c-0.225,0.066-0.467,0.096-0.703,0.099c-0.959,0.011-1.918,0.004-2.877,0.004c-0.037,0-0.072-0.006-0.133-0.011
				c-0.012-0.077-0.035-0.154-0.035-0.231c-0.002-1.301,0-2.602,0-3.902c0-0.058,0.008-0.116,0.016-0.211c0.094,0,0.168,0,0.24,0
				c0.959,0,1.918-0.01,2.877,0.003c0.768,0.011,1.406,0.316,1.855,0.947c0.188,0.262,0.311,0.567,0.324,0.901
				c0.008,0.199,0.018,0.4,0.004,0.6C27.965,13.901,27.742,14.332,27.357,14.687z"/>
			<path fill="#323232" d="M74.809,23.788c-0.172-0.474-0.352-0.946-0.523-1.42c-0.104-0.29-0.205-0.583-0.313-0.873
				c-0.168-0.452-0.343-0.902-0.509-1.354c-0.147-0.408-0.289-0.817-0.437-1.228c-0.141-0.396-0.284-0.788-0.426-1.183
				c-0.065-0.179-0.127-0.359-0.192-0.538c-0.117-0.315-0.24-0.629-0.357-0.943c-0.145-0.387-0.286-0.773-0.428-1.161
				c-0.138-0.378-0.271-0.757-0.406-1.136c-0.069-0.194-0.139-0.388-0.211-0.581c-0.114-0.304-0.233-0.605-0.346-0.911
				c-0.142-0.385-0.271-0.773-0.41-1.159c-0.144-0.393-0.291-0.783-0.435-1.175c-0.067-0.188-0.127-0.379-0.196-0.566
				c-0.113-0.3-0.234-0.598-0.349-0.898c-0.074-0.197-0.14-0.398-0.209-0.598c-0.871,0-1.724,0-2.58,0
				c-0.101,0.259-0.198,0.505-0.289,0.755c-0.137,0.379-0.264,0.763-0.399,1.142c-0.142,0.387-0.289,0.771-0.433,1.157
				c-0.147,0.4-0.295,0.801-0.44,1.203c-0.135,0.372-0.267,0.746-0.396,1.119c-0.067,0.194-0.133,0.391-0.205,0.584
				c-0.116,0.312-0.241,0.619-0.354,0.932c-0.137,0.373-0.262,0.75-0.396,1.123c-0.146,0.4-0.297,0.797-0.443,1.196
				c-0.141,0.381-0.279,0.763-0.418,1.145c-0.139,0.387-0.275,0.771-0.414,1.158c-0.068,0.193-0.131,0.391-0.203,0.583
				c-0.117,0.312-0.244,0.619-0.357,0.932c-0.135,0.373-0.26,0.75-0.395,1.123c-0.145,0.4-0.295,0.798-0.445,1.195
				c-0.082,0.222-0.182,0.438-0.244,0.666c-0.047,0.164-0.166,0.313-0.129,0.512c1.115,0,2.223,0,3.338,0
				c0.072-0.207,0.146-0.414,0.221-0.623c0.104-0.3,0.197-0.602,0.301-0.899c0.143-0.407,0.291-0.813,0.422-1.224
				c0.037-0.112,0.104-0.157,0.201-0.175c0.064-0.01,0.133-0.007,0.201-0.007c1.73,0,3.465,0,5.195,0c0.055,0,0.104,0,0.156,0.002
				c0.113,0.005,0.191,0.041,0.225,0.169c0.055,0.2,0.121,0.396,0.189,0.593c0.113,0.333,0.234,0.663,0.346,0.997
				c0.131,0.389,0.256,0.777,0.379,1.157c0.371,0.047,3.201,0.03,3.385-0.024C74.982,24.288,74.9,24.037,74.809,23.788z
				 M65.805,18.889c0.047-0.162,0.088-0.322,0.145-0.479c0.072-0.223,0.158-0.442,0.238-0.664c0.117-0.326,0.232-0.653,0.35-0.98
				c0.074-0.216,0.146-0.433,0.221-0.648c0.115-0.322,0.234-0.644,0.35-0.967c0.07-0.208,0.131-0.421,0.203-0.628
				c0.111-0.328,0.234-0.653,0.352-0.98c0.053-0.152,0.1-0.307,0.154-0.479c0.178,0.133,0.17,0.327,0.234,0.485
				c0.092,0.223,0.15,0.458,0.229,0.687c0.143,0.427,0.285,0.854,0.432,1.279c0.146,0.431,0.299,0.858,0.445,1.29
				c0.104,0.313,0.199,0.63,0.303,0.943c0.107,0.329,0.223,0.656,0.332,0.984c0.018,0.049,0.025,0.1,0.037,0.146
				C69.658,18.926,66.092,18.938,65.805,18.889z"/>
		</g>
		<g>
			<path fill="#FFFFFF" d="M46.246,6.718c-0.455,0-0.863,0-1.295,0c0-2.195,0-4.371,0-6.605c0.34,0,0.674,0.004,1.008-0.002
				c0.199-0.004,0.252,0.153,0.334,0.278c0.672,1.038,1.344,2.077,2.016,3.116c0.09,0.139,0.186,0.275,0.363,0.398
				c0-1.251,0-2.501,0-3.765C49.146,0.1,49.559,0.1,49.998,0.135c0,2.189,0,4.364,0,6.604c-0.348,0-0.697,0.003-1.045-0.001
				c-0.172-0.002-0.217-0.159-0.289-0.271c-0.699-1.077-1.393-2.157-2.092-3.233c-0.08-0.123-0.125-0.281-0.326-0.375
				C46.246,4.156,46.246,5.426,46.246,6.718z"/>
			<path fill="#FFFFFF" d="M40.664,1.252c0,0.537,0,1.011,0,1.545c0.441,0,0.867-0.006,1.293,0.001
				c0.416,0.008,0.834-0.035,1.262,0.029c0.041,0.378,0.035,0.743,0.002,1.146c-0.844,0-1.674,0-2.555,0
				c-0.045,0.536-0.023,1.034-0.018,1.574c1.023,0,2.01,0,3.025,0c0,0.401,0,0.764,0,1.165c-1.432,0-2.875,0-4.35,0
				c0-2.187,0-4.374,0-6.583c1.461,0,2.904,0,4.361,0c0.029,0.38,0.029,0.733-0.004,1.123C42.691,1.252,41.705,1.252,40.664,1.252z"
				/>
			<path fill="#FFFFFF" d="M27.275,3.272c0.02-0.354-0.035-0.833,0.047-1.311c0.158-0.914,0.697-1.517,1.551-1.792
				c0.904-0.292,1.77-0.164,2.516,0.485c0.426,0.372,0.66,0.84,0.727,1.402c0.102,0.878,0.074,1.753,0.014,2.634
				c-0.094,1.35-1.373,2.286-2.762,2.09c-1.268-0.178-2.039-1.039-2.092-2.319C27.262,4.106,27.275,3.75,27.275,3.272z
				 M30.807,3.402c0.016,0,0.031,0,0.049-0.001C30.836,3,30.838,2.597,30.795,2.197c-0.063-0.592-0.479-0.959-1.051-0.968
				c-0.598-0.01-0.996,0.308-1.092,0.911c-0.131,0.83-0.127,1.666-0.01,2.496c0.092,0.66,0.51,0.998,1.133,0.973
				c0.58-0.022,0.975-0.406,1.025-1.047C30.83,4.177,30.807,3.789,30.807,3.402z"/>
			<path fill="#FFFFFF" d="M33.512,0.129c1.012,0,2.002-0.055,2.984,0.014c1.066,0.075,1.777,1.01,1.742,2.145
				c-0.031,1.039-0.838,1.88-1.883,1.934c-0.506,0.026-1.014,0.004-1.559,0.004c0,0.847,0,1.645,0,2.465
				c-0.441,0.087-0.85,0.041-1.285,0.038C33.512,4.531,33.512,2.357,33.512,0.129z M34.822,1.273c0,0.603,0,1.178,0,1.771
				c0.221,0,0.406,0,0.592,0c0.215,0,0.432,0.009,0.648-0.003c0.496-0.028,0.826-0.339,0.861-0.797
				c0.035-0.465-0.232-0.829-0.713-0.936C35.756,1.208,35.295,1.26,34.822,1.273z"/>
		</g>
	</g>
</g>
</svg>
