<?xml version="1.0" encoding="utf-8"?>
<!-- Generator: Adobe Illustrator 16.0.0, SVG Export Plug-In . SVG Version: 6.00 Build 0)  -->
<!DOCTYPE svg PUBLIC "-//W3C//DTD SVG 1.0//EN" "http://www.w3.org/TR/2001/REC-SVG-20010904/DTD/svg10.dtd">
<svg version="1.0" id="Layer_1" xmlns="http://www.w3.org/2000/svg" xmlns:xlink="http://www.w3.org/1999/xlink" x="0px" y="0px"
	 width="80px" height="35px" viewBox="0 0 80 35" enable-background="new 0 0 80 35" xml:space="preserve">
<g id="footer_x5F_logos">
	<g>
		<path fill="#E6E8E7" d="M19.674,10.384c-0.561-0.081-1.057,0.071-1.545,0.251c-0.608,0.225-1.178,0.533-1.717,0.892
			c-0.174,0.116-0.324,0.142-0.529,0.092c-1.968-0.481-3.94-0.479-5.906,0.012c-0.184,0.045-0.311,0.003-0.459-0.091
			c-0.629-0.407-1.283-0.765-1.998-0.999c-0.326-0.106-0.658-0.176-1.006-0.188c-0.213-0.007-0.315,0.076-0.382,0.276
			c-0.317,0.95-0.407,1.908-0.112,2.876c0.058,0.187,0.026,0.304-0.092,0.442C5.037,15,4.711,16.234,4.785,17.588
			c0.061,1.11,0.248,2.189,0.816,3.172c0.709,1.227,1.812,1.911,3.133,2.303c0.582,0.172,1.178,0.283,1.77,0.34
			c0.066,0.115-0.024,0.156-0.068,0.207c-0.323,0.375-0.503,0.818-0.592,1.299c-0.031,0.175-0.109,0.254-0.271,0.313
			c-1.384,0.5-2.672,0.236-3.49-1.125c-0.388-0.643-0.922-1.105-1.67-1.287c-0.189-0.047-0.379-0.065-0.564-0.021
			c-0.114,0.026-0.267,0.032-0.3,0.19c-0.026,0.131,0.067,0.213,0.149,0.291c0.082,0.08,0.169,0.157,0.266,0.213
			c0.678,0.396,1.11,1.004,1.395,1.707c0.5,1.237,1.467,1.75,2.727,1.838c0.543,0.039,1.084-0.012,1.595-0.129
			c0.126,0.097,0.087,0.205,0.089,0.302c0.007,0.634-0.02,1.271,0.02,1.901c0.039,0.623-0.439,0.922-1.002,0.729
			c-1.451-0.502-2.783-1.223-3.968-2.201c-2.458-2.035-3.987-4.625-4.513-7.777C-0.572,14.591,2.004,9.317,6.684,6.731
			C11.862,3.87,18.311,4.86,22.338,9.164c1.958,2.093,3.092,4.579,3.368,7.443c0.56,5.8-2.954,11.275-8.454,13.173
			c-0.07,0.024-0.143,0.054-0.215,0.073c-0.559,0.142-0.902-0.109-0.908-0.685c-0.009-0.621,0.01-1.243,0.01-1.864
			c-0.002-0.658,0.036-1.318-0.021-1.977c-0.058-0.659-0.249-1.266-0.7-1.77c-0.033-0.037-0.071-0.074-0.04-0.154
			c0.562-0.074,1.132-0.168,1.69-0.322c2.352-0.646,3.693-2.207,3.975-4.637c0.123-1.078,0.151-2.147-0.273-3.182
			c-0.193-0.474-0.446-0.91-0.775-1.298c-0.127-0.149-0.169-0.268-0.107-0.471C20.203,12.446,20.08,11.419,19.674,10.384z"/>
		<path fill="#DADADA" d="M38.008,21.148c0-0.789,0-1.545,0-2.365c-0.371,0-0.746-0.006-1.119,0.001
			c-0.721,0.014-0.615-0.052-0.615-0.626c-0.001-0.431,0.005-0.862-0.005-1.292c-0.005-0.231,0.063-0.355,0.322-0.353
			c1.255,0.005,2.509,0.003,3.765-0.001c0.221-0.001,0.32,0.08,0.318,0.313c-0.004,1.901-0.004,3.804,0.002,5.705
			c0,0.189-0.104,0.262-0.244,0.339c-0.639,0.35-1.322,0.572-2.039,0.689c-1.243,0.207-2.477,0.16-3.689-0.188
			c-1.499-0.431-2.52-1.397-2.993-2.875c-0.653-2.038-0.618-4.104,0.028-6.133c0.609-1.914,2.008-2.926,3.975-3.151
			c1.191-0.136,2.381-0.071,3.55,0.219c0.968,0.241,0.967,0.248,0.735,1.214c-0.077,0.32-0.154,0.64-0.234,0.959
			c-0.08,0.327-0.117,0.351-0.439,0.258c-0.926-0.267-1.863-0.348-2.822-0.244c-1.152,0.124-1.945,0.713-2.271,1.826
			c-0.406,1.395-0.41,2.807,0.059,4.19c0.361,1.066,1.145,1.596,2.277,1.613c0.305,0.004,0.609-0.003,0.914-0.02
			C37.643,21.219,37.804,21.18,38.008,21.148z"/>
		<path fill="#DADADA" d="M58.977,18.372c-1.261,0-2.5,0-3.721,0c-0.097,0.104-0.063,0.212-0.063,0.31
			c-0.002,1.445-0.002,2.891-0.004,4.336c0,0.402-0.021,0.424-0.433,0.426c-0.608,0.002-1.218,0.002-1.825,0
			c-0.347-0.002-0.381-0.029-0.381-0.357c-0.003-3.702-0.003-7.403-0.003-11.105c0-0.342,0.031-0.373,0.369-0.375
			c0.633-0.004,1.269-0.004,1.899,0.001c0.336,0.003,0.367,0.035,0.369,0.375c0.004,1.179,0.002,2.358,0.002,3.537
			c0,0.15,0,0.3,0,0.473c1.278,0,2.527,0,3.789,0c0.09-0.114,0.041-0.259,0.043-0.392c0.004-1.191,0-2.383,0.002-3.575
			c0-0.39,0.023-0.416,0.402-0.419c0.635-0.005,1.268,0.004,1.902-0.006c0.242-0.003,0.355,0.089,0.342,0.334
			c-0.008,0.126-0.002,0.254-0.002,0.38c0,3.537,0,7.075,0,10.611c0,0.519,0,0.519-0.535,0.519c-0.568,0-1.141,0.002-1.71,0
			c-0.382-0.002-0.401-0.023-0.401-0.418c-0.002-1.395,0.002-2.789,0.002-4.183C59.021,18.693,59.051,18.541,58.977,18.372z"/>
		<path fill="#DADADA" d="M68.719,22.927c-0.389,0.165-0.732,0.356-1.104,0.48c-0.863,0.288-1.738,0.342-2.627,0.175
			c-1.264-0.238-1.938-1.006-2.014-2.301c-0.027-0.469-0.015-0.938-0.016-1.407c-0.001-1.37-0.001-2.738,0-4.108
			c0.001-0.375,0.012-0.385,0.385-0.387c0.62-0.004,1.242-0.005,1.863-0.002c0.382,0.001,0.404,0.027,0.406,0.416
			c0,1.508-0.002,3.018,0,4.525c0,0.189,0,0.381,0.027,0.568c0.051,0.385,0.28,0.608,0.666,0.664c0.491,0.07,0.955-0.017,1.41-0.211
			c0.217-0.093,0.289-0.218,0.287-0.456c-0.01-1.61-0.004-3.22-0.004-4.83c0-0.14,0.002-0.279,0-0.418
			c0-0.17,0.08-0.258,0.255-0.258c0.708,0.001,1.419,0,2.13,0c0.178,0,0.246,0.103,0.248,0.267c0,0.089,0.002,0.177,0.002,0.266
			c0,2.345,0,4.69,0,7.036c0,0.494-0.002,0.494-0.478,0.496c-0.267,0-0.532,0-0.8,0.002C68.861,23.448,68.861,23.448,68.719,22.927z
			"/>
		<path fill="#DADADA" d="M46.838,17.495c-0.382,0-0.711-0.008-1.039,0.003c-0.244,0.009-0.343-0.089-0.336-0.336
			c0.014-0.38,0.014-0.761,0.002-1.141c-0.006-0.204,0.076-0.295,0.271-0.334c0.359-0.073,0.711-0.165,1.104-0.257
			c0-0.778,0-1.546,0-2.338c0.869,0,1.701,0,2.584,0c0,0.753,0,1.493,0,2.269c0.529,0,1.008-0.001,1.488,0
			c0.386,0.002,0.406,0.024,0.408,0.408c0.002,0.444,0.004,0.888,0.002,1.332c-0.002,0.368-0.026,0.393-0.385,0.396
			c-0.48,0.004-0.961,0-1.42,0c-0.119,0.096-0.084,0.205-0.084,0.301c-0.004,0.938-0.004,1.876-0.002,2.813
			c0.004,0.615,0.271,0.902,0.895,0.943c0.252,0.016,0.507,0,0.76-0.012c0.18-0.008,0.258,0.071,0.258,0.244
			c-0.002,0.469-0.006,0.938-0.002,1.408c0,0.149-0.059,0.23-0.205,0.27c-1.033,0.266-2.061,0.297-3.049-0.156
			c-0.658-0.301-1.011-0.858-1.162-1.553c-0.064-0.298-0.09-0.601-0.088-0.906c0.002-0.977,0-1.953,0-2.929
			C46.838,17.795,46.838,17.67,46.838,17.495z"/>
		<path fill="#DADADA" d="M44.719,19.421c0,1.19,0.002,2.38,0,3.57c0,0.413-0.039,0.45-0.459,0.45c-0.57,0.002-1.141,0.004-1.711,0
			c-0.402-0.004-0.471-0.069-0.471-0.457c-0.004-2.406-0.002-4.812,0-7.217c0-0.376,0.035-0.407,0.415-0.408
			c0.606-0.001,1.215-0.002,1.823-0.001c0.379,0,0.399,0.019,0.401,0.416C44.721,16.99,44.719,18.206,44.719,19.421z"/>
		<path fill="#DADADA" d="M43.402,14.716c-0.811,0.016-1.484-0.616-1.495-1.398c-0.009-0.773,0.624-1.421,1.413-1.442
			c0.834-0.023,1.502,0.603,1.513,1.417C44.842,14.056,44.195,14.7,43.402,14.716z"/>
		<path fill="#DADADA" d="M8.482,26.047c-0.174,0-0.302-0.038-0.309-0.195c-0.008-0.145,0.123-0.188,0.236-0.193
			c0.127-0.008,0.278,0.025,0.295,0.177C8.723,25.996,8.576,26.025,8.482,26.047z"/>
		<path fill="#DADADA" d="M9.691,25.706c-0.05,0.174-0.176,0.229-0.321,0.221c-0.112-0.006-0.243-0.043-0.215-0.2
			c0.026-0.152,0.165-0.184,0.292-0.191C9.568,25.525,9.664,25.582,9.691,25.706z"/>
		<path fill="#DADADA" d="M6.746,25.245c-0.01,0.104-0.07,0.157-0.171,0.16c-0.153,0.004-0.31-0.173-0.296-0.321
			c0.011-0.118,0.084-0.141,0.182-0.132C6.611,24.964,6.754,25.111,6.746,25.245z"/>
		<path fill="#DADADA" d="M7.668,25.744c-0.046,0.143-0.158,0.16-0.275,0.139c-0.141-0.025-0.283-0.088-0.25-0.264
			c0.027-0.145,0.17-0.131,0.281-0.114C7.56,25.525,7.654,25.598,7.668,25.744z"/>
		<path fill="#DADADA" d="M79.49,16.858c-0.359-0.885-0.992-1.456-1.938-1.647c-0.827-0.167-1.638-0.095-2.429,0.197
			c-0.164,0.061-0.324,0.131-0.568,0.23c0-0.239,0-0.4,0-0.562c0-1.027,0.002-2.054,0-3.081c-0.002-0.358-0.037-0.393-0.391-0.395
			c-0.609-0.003-1.219-0.001-1.825,0.002c-0.397,0.002-0.433,0.04-0.433,0.436c0,3.613,0.002,7.226,0.004,10.839
			c0,0.063-0.002,0.127,0,0.189c0.014,0.349,0.031,0.369,0.371,0.373c0.305,0.004,0.607,0.002,0.912,0.002
			c0.604,0,0.604,0,0.766-0.543c0.025,0.002,0.053-0.002,0.074,0.007c0.035,0.014,0.068,0.032,0.1,0.054
			c0.813,0.54,1.721,0.729,2.678,0.703c1.545-0.042,2.441-0.771,2.82-2.27c0.111-0.443,0.174-0.896,0.201-1.351
			C79.898,18.962,79.906,17.886,79.49,16.858z M77.115,20.74c-0.135,0.566-0.445,0.803-1.024,0.828
			c-0.461,0.021-0.905-0.047-1.336-0.227c-0.175-0.072-0.253-0.168-0.246-0.365c0.003-0.129,0.005-0.26,0.005-0.39
			c0.004-0.39,0-0.778,0-1.169s0.008-0.779,0.004-1.169c-0.004-0.13-0.006-0.26-0.011-0.389c-0.009-0.236,0.083-0.34,0.288-0.417
			c0.383-0.143,0.768-0.25,1.184-0.232c0.521,0.022,0.881,0.265,1.078,0.751c0.111,0.274,0.154,0.562,0.18,0.851
			C77.293,19.462,77.268,20.107,77.115,20.74z"/>
	</g>
</g>
</svg>
