<?xml version="1.0" encoding="utf-8"?>
<!-- Generator: Adobe Illustrator 16.0.0, SVG Export Plug-In . SVG Version: 6.00 Build 0)  -->
<!DOCTYPE svg PUBLIC "-//W3C//DTD SVG 1.0//EN" "http://www.w3.org/TR/2001/REC-SVG-20010904/DTD/svg10.dtd">
<svg version="1.0" id="Layer_1" xmlns="http://www.w3.org/2000/svg" xmlns:xlink="http://www.w3.org/1999/xlink" x="0px" y="0px"
	 width="30px" height="30px" viewBox="0 0 30 30" enable-background="new 0 0 30 30" xml:space="preserve">
<rect x="8.549" y="26.773" fill="#323232" width="12.901" height="3.227"/>
<path fill="#323232" d="M17.807,26.273l-0.789-7.518c-0.554,0.11-1.125,0.17-1.714,0.17c-0.796,0-1.569-0.104-2.31-0.297
	l-0.799,7.645H17.807z"/>
<path fill="#323232" d="M25.831,0H4.734l2.11,11.34H6.85c0.716,4.026,4.224,7.087,8.453,7.087c4.478,0,7.825-3.494,8.55-7.796
	L25.831,0z"/>
<path fill="#323232" d="M25.723,3.483l-1.351,7.245c-0.187,1.098-0.526,2.117-0.988,3.043c1.63-0.492,2.935-1.843,3.251-3.632
	l0.44-2.494C27.354,6.06,26.798,4.522,25.723,3.483z"/>
<path fill="#323232" d="M6.42,11.868H6.413l-0.086-0.432L4.772,3.088c-1.388,1.016-2.169,2.75-1.85,4.557l0.438,2.494
	c0.352,1.983,1.912,3.434,3.789,3.762C6.836,13.263,6.586,12.584,6.42,11.868z"/>
</svg>
