<?xml version="1.0" encoding="utf-8"?>
<!-- Generator: Adobe Illustrator 16.0.0, SVG Export Plug-In . SVG Version: 6.00 Build 0)  -->
<!DOCTYPE svg PUBLIC "-//W3C//DTD SVG 1.0//EN" "http://www.w3.org/TR/2001/REC-SVG-20010904/DTD/svg10.dtd">
<svg version="1.0" id="Layer_1" xmlns="http://www.w3.org/2000/svg" xmlns:xlink="http://www.w3.org/1999/xlink" x="0px" y="0px"
	 width="79px" height="15px" viewBox="0 0 79 15" enable-background="new 0 0 79 15" xml:space="preserve">
<polygon fill="#58595B" points="7.477,0.389 9.787,5.07 14.953,5.821 11.215,9.466 12.098,14.611 7.477,12.182 2.855,14.611 
	3.738,9.466 0,5.821 5.166,5.07 "/>
<polygon fill="#58595B" points="23.43,0.389 25.74,5.07 30.906,5.821 27.168,9.466 28.051,14.611 23.43,12.182 18.809,14.611 
	19.691,9.466 15.953,5.821 21.119,5.07 "/>
<polygon fill="#58595B" points="39.383,0.389 41.693,5.07 46.859,5.821 43.121,9.466 44.004,14.611 39.383,12.182 34.762,14.611 
	35.645,9.466 31.906,5.821 37.072,5.07 "/>
<polygon fill="#58595B" points="55.336,0.389 57.646,5.07 62.813,5.821 59.074,9.466 59.957,14.611 55.336,12.182 50.715,14.611 
	51.598,9.466 47.859,5.821 53.025,5.07 "/>
<polygon fill="#58595B" points="71.289,0.389 73.6,5.07 78.766,5.821 75.027,9.466 75.91,14.611 71.289,12.182 66.668,14.611 
	67.551,9.466 63.813,5.821 68.979,5.07 "/>
<polygon fill="#F5C993" points="7.477,0.389 9.787,5.07 14.953,5.821 11.215,9.466 12.098,14.611 7.477,12.182 2.855,14.611 
	3.738,9.466 0,5.821 5.166,5.07 "/>
<polygon fill="#F5C993" points="23.43,0.389 25.74,5.07 30.906,5.821 27.168,9.466 28.051,14.611 23.43,12.182 18.809,14.611 
	19.691,9.466 15.953,5.821 21.119,5.07 "/>
</svg>
