<?xml version="1.0" encoding="utf-8"?>
<!-- Generator: Adobe Illustrator 16.0.0, SVG Export Plug-In . SVG Version: 6.00 Build 0)  -->
<!DOCTYPE svg PUBLIC "-//W3C//DTD SVG 1.0//EN" "http://www.w3.org/TR/2001/REC-SVG-20010904/DTD/svg10.dtd">
<svg version="1.0" id="Layer_1" xmlns="http://www.w3.org/2000/svg" xmlns:xlink="http://www.w3.org/1999/xlink" x="0px" y="0px"
	 width="30px" height="30px" viewBox="0 0 30 30" enable-background="new 0 0 30 30" xml:space="preserve">
<rect x="6.547" y="20.727" fill="#010101" width="4.363" height="9.273"/>
<rect x="12.912" y="16.635" fill="#010101" width="4.363" height="13.365"/>
<rect x="19.273" y="15.271" fill="#010101" width="4.365" height="14.729"/>
<rect x="25.639" y="10.222" fill="#010101" width="4.365" height="19.778"/>
<rect y="23.454" fill="#010101" width="4.365" height="6.546"/>
<polygon fill="#010101" points="24.584,1.634 26.563,3.613 19.09,11.085 15.918,7.915 15.91,7.921 15.904,7.914 8.096,15.723 
	7.166,14.794 7.168,14.793 5.627,13.25 0.064,18.814 1.605,20.357 5.625,16.337 6.553,17.266 6.549,17.268 8.092,18.811 
	15.91,10.993 19.09,14.172 20.633,12.629 20.631,12.628 28.105,5.155 30,7.051 30,1.634 "/>
</svg>
