<?xml version="1.0" encoding="utf-8"?>
<!-- Generator: Adobe Illustrator 16.0.0, SVG Export Plug-In . SVG Version: 6.00 Build 0)  -->
<!DOCTYPE svg PUBLIC "-//W3C//DTD SVG 1.0//EN" "http://www.w3.org/TR/2001/REC-SVG-20010904/DTD/svg10.dtd">
<svg version="1.0" id="Layer_1" xmlns="http://www.w3.org/2000/svg" xmlns:xlink="http://www.w3.org/1999/xlink" x="0px" y="0px"
	 width="10px" height="10px" viewBox="0 0 10 10" enable-background="new 0 0 10 10" xml:space="preserve">
<path fill="#EB1C24" d="M5.001-0.008c-2.768,0-5.01,2.242-5.01,5.009c0,2.767,2.242,5.008,5.01,5.008
	c2.767,0,5.008-2.241,5.008-5.008C10.009,2.234,7.768-0.008,5.001-0.008z M4.493,0.798h1.014V4.23c0,0.18-0.004,0.356-0.01,0.528
	C5.491,4.93,5.481,5.103,5.47,5.277C5.458,5.451,5.442,5.629,5.425,5.811C5.408,5.993,5.386,6.188,5.362,6.396H4.636
	C4.612,6.188,4.591,5.993,4.573,5.811C4.555,5.629,4.54,5.451,4.528,5.277C4.517,5.103,4.507,4.93,4.501,4.758
	C4.495,4.586,4.493,4.41,4.493,4.23V0.798z M5.689,8.346c-0.039,0.09-0.092,0.17-0.16,0.237C5.462,8.65,5.382,8.704,5.29,8.742
	C5.198,8.779,5.101,8.798,4.997,8.798S4.794,8.779,4.702,8.742C4.61,8.704,4.532,8.65,4.466,8.583C4.4,8.516,4.349,8.436,4.31,8.346
	c-0.037-0.09-0.057-0.188-0.057-0.297c0-0.104,0.02-0.201,0.057-0.294C4.349,7.663,4.4,7.583,4.466,7.516
	c0.066-0.07,0.144-0.123,0.236-0.162c0.092-0.041,0.191-0.061,0.295-0.061s0.201,0.02,0.293,0.061
	c0.092,0.039,0.172,0.094,0.239,0.162c0.068,0.067,0.121,0.147,0.16,0.239c0.037,0.093,0.058,0.19,0.058,0.294
	C5.747,8.157,5.729,8.255,5.689,8.346z"/>
</svg>
