<?xml version="1.0" encoding="utf-8"?>
<!-- Generator: Adobe Illustrator 16.0.0, SVG Export Plug-In . SVG Version: 6.00 Build 0)  -->
<!DOCTYPE svg PUBLIC "-//W3C//DTD SVG 1.0//EN" "http://www.w3.org/TR/2001/REC-SVG-20010904/DTD/svg10.dtd">
<svg version="1.0" id="Layer_1" xmlns="http://www.w3.org/2000/svg" xmlns:xlink="http://www.w3.org/1999/xlink" x="0px" y="0px"
	 width="30px" height="30px" viewBox="0 0 30 30" enable-background="new 0 0 30 30" xml:space="preserve">
<path fill="#010101" d="M13.266,29.821c0.354,0.143,0.731,0.217,1.13,0.217c0.398,0,0.776-0.074,1.13-0.217
	c0.357-0.146,0.661-0.353,0.921-0.612c0.262-0.258,0.466-0.564,0.613-0.91c0.145-0.349,0.217-0.725,0.217-1.143
	c0-0.399-0.072-0.774-0.217-1.128c-0.147-0.354-0.352-0.661-0.613-0.922c-0.26-0.264-0.564-0.468-0.921-0.623
	c-0.354-0.154-0.733-0.233-1.13-0.233c-0.4,0-0.776,0.079-1.13,0.233c-0.351,0.152-0.655,0.358-0.91,0.623
	c-0.253,0.261-0.457,0.571-0.6,0.922c-0.143,0.354-0.217,0.729-0.217,1.128c0,0.418,0.074,0.798,0.217,1.143
	c0.143,0.345,0.347,0.648,0.6,0.91C12.611,29.471,12.917,29.677,13.266,29.821z"/>
<path fill="#010101" d="M22.719,4.376c-0.427-0.921-1.021-1.705-1.775-2.349c-0.751-0.645-1.647-1.145-2.683-1.499
	C17.222,0.174,16.097,0,14.88,0c-0.917,0-1.777,0.087-2.568,0.265c-0.792,0.176-1.527,0.416-2.207,0.725
	c-0.689,0.307-1.318,0.66-1.896,1.06C7.636,2.448,7.108,2.873,6.633,3.315l1.083,1.731c0.217,0.353,0.513,0.529,0.897,0.529
	c0.186,0,0.419-0.114,0.707-0.345c0.28-0.23,0.655-0.484,1.115-0.76c0.463-0.278,1.027-0.53,1.692-0.761
	c0.669-0.23,1.472-0.345,2.409-0.345c0.694,0,1.348,0.099,1.949,0.299c0.605,0.199,1.13,0.49,1.577,0.865
	c0.446,0.375,0.798,0.833,1.063,1.371c0.26,0.539,0.39,1.139,0.39,1.799c0,0.921-0.172,1.72-0.518,2.397
	c-0.347,0.676-0.787,1.28-1.314,1.809c-0.526,0.53-1.101,1.015-1.705,1.453c-0.607,0.438-1.174,0.877-1.705,1.313
	c-0.531,0.436-0.964,0.906-1.315,1.405c-0.347,0.499-0.52,1.073-0.52,1.719v0.252l0.281,3.825h2.808l0.414-3.524
	c0.062-0.509,0.292-0.968,0.683-1.385c0.393-0.413,0.861-0.831,1.407-1.245c0.541-0.414,1.13-0.854,1.762-1.323
	c0.629-0.47,1.211-1.021,1.74-1.661c0.527-0.636,0.964-1.377,1.312-2.224c0.347-0.844,0.522-1.851,0.522-3.02
	C23.366,6.337,23.149,5.298,22.719,4.376z"/>
</svg>
