<?xml version="1.0" encoding="utf-8"?>
<!-- Generator: Adobe Illustrator 16.0.0, SVG Export Plug-In . SVG Version: 6.00 Build 0)  -->
<!DOCTYPE svg PUBLIC "-//W3C//DTD SVG 1.0//EN" "http://www.w3.org/TR/2001/REC-SVG-20010904/DTD/svg10.dtd">
<svg version="1.0" id="Layer_1" xmlns="http://www.w3.org/2000/svg" xmlns:xlink="http://www.w3.org/1999/xlink" x="0px" y="0px"
	 width="30px" height="30px" viewBox="0 0 30 30" enable-background="new 0 0 30 30" xml:space="preserve">
<path fill="#010101" d="M30.021,11.906C30.021,5.331,23.297,0,15,0C6.705,0-0.021,5.331-0.021,11.906
	c0,6.576,6.726,11.906,15.021,11.906c0.744,0,1.469-0.058,2.186-0.141L30.021,30l-3.049-10.923
	C28.878,17.081,30.021,14.603,30.021,11.906z M5.637,14.204c-1.178,0-2.133-0.955-2.133-2.133c0-1.178,0.955-2.133,2.133-2.133
	c1.18,0,2.133,0.955,2.133,2.133C7.77,13.249,6.816,14.204,5.637,14.204z M11.879,14.204c-1.18,0-2.133-0.955-2.133-2.133
	c0-1.178,0.953-2.133,2.133-2.133c1.179,0,2.133,0.955,2.133,2.133C14.012,13.249,13.058,14.204,11.879,14.204z M18.121,14.204
	c-1.18,0-2.135-0.955-2.135-2.133c0-1.178,0.955-2.133,2.135-2.133c1.178,0,2.133,0.955,2.133,2.133
	C20.254,13.249,19.299,14.204,18.121,14.204z M24.363,14.204c-1.18,0-2.135-0.955-2.135-2.133c0-1.178,0.955-2.133,2.135-2.133
	c1.178,0,2.133,0.955,2.133,2.133C26.496,13.249,25.541,14.204,24.363,14.204z"/>
</svg>
