<?xml version="1.0" encoding="utf-8"?>
<!-- Generator: Adobe Illustrator 16.0.0, SVG Export Plug-In . SVG Version: 6.00 Build 0)  -->
<!DOCTYPE svg PUBLIC "-//W3C//DTD SVG 1.0//EN" "http://www.w3.org/TR/2001/REC-SVG-20010904/DTD/svg10.dtd">
<svg version="1.0" id="Layer_1" xmlns="http://www.w3.org/2000/svg" xmlns:xlink="http://www.w3.org/1999/xlink" x="0px" y="0px"
	 width="30px" height="30px" viewBox="0 0 30 30" enable-background="new 0 0 30 30" xml:space="preserve">
<path d="M16.659,0c0.198,0,0.397,0,0.599,0c0.885,0.244,1.777,0.463,2.653,0.736c1.358,0.426,1.423,0.5,1.233,1.908
	c-0.106,0.82,0.146,1.469,0.66,2.063c1.112,1.285,2.278,1.596,3.916,1.02c0.631-0.223,1.143-0.236,1.508,0.464
	c0.453,0.86,1.013,1.665,1.449,2.531c0.463,0.907,0.352,1.123-0.423,1.772c-0.351,0.294-0.733,0.648-0.892,1.057
	c-0.696,1.801,0.068,3.629,1.804,4.456c0.635,0.304,0.995,0.694,0.737,1.468c-0.291,0.875-0.479,1.784-0.764,2.659
	c-0.349,1.062-0.594,1.224-1.703,0.979c-0.976-0.217-1.721,0.121-2.391,0.742c-1.197,1.111-1.417,2.262-0.753,3.765
	c0.377,0.854,0.337,1.126-0.438,1.621c-0.821,0.521-1.668,1.003-2.543,1.429c-0.996,0.487-1.178,0.444-1.771-0.49
	c-0.533-0.842-1.292-1.135-2.213-1.154c-1.683-0.037-2.637,0.57-3.301,2.117c-0.278,0.649-0.644,1.034-1.427,0.793
	c-0.857-0.265-1.745-0.434-2.597-0.707c-1.155-0.371-1.337-0.672-1.084-1.867c0.179-0.846-0.074-1.528-0.595-2.147
	c-1.086-1.287-2.32-1.585-3.935-0.973c-0.953,0.36-1.168,0.317-1.724-0.562c-0.521-0.82-0.967-1.688-1.46-2.529
	c-0.325-0.555-0.176-1,0.279-1.385c0.191-0.16,0.396-0.302,0.602-0.445c0.99-0.693,1.296-1.693,1.172-2.826
	c-0.128-1.128-0.707-1.952-1.829-2.337c-0.327-0.111-0.639-0.279-0.947-0.439c-0.405-0.211-0.556-0.529-0.435-0.994
	c0.231-0.869,0.399-1.753,0.649-2.615c0.388-1.333,0.538-1.453,1.896-1.245c0.95,0.146,1.689-0.152,2.294-0.813
	c0.967-1.057,1.645-2.177,0.949-3.713C5.397,3.367,5.53,3.14,6.439,2.568c0.675-0.426,1.368-0.83,2.077-1.196
	c1.113-0.574,1.353-0.52,2.094,0.521c0.778,1.098,1.896,1.097,3.031,0.958c1.036-0.128,1.91-0.525,2.294-1.642
	C16.086,0.775,16.413,0.402,16.659,0z M15.247,22.884c4.383,0.009,7.979-3.569,7.996-7.957c0.016-4.385-3.566-8.008-7.934-8.021
	c-4.449-0.016-8.044,3.529-8.07,7.959C7.212,19.271,10.812,22.875,15.247,22.884z"/>
</svg>
