<?xml version="1.0" encoding="utf-8"?>
<!-- Generator: Adobe Illustrator 16.0.0, SVG Export Plug-In . SVG Version: 6.00 Build 0)  -->
<!DOCTYPE svg PUBLIC "-//W3C//DTD SVG 1.0//EN" "http://www.w3.org/TR/2001/REC-SVG-20010904/DTD/svg10.dtd">
<svg version="1.0" id="Layer_1" xmlns="http://www.w3.org/2000/svg" xmlns:xlink="http://www.w3.org/1999/xlink" x="0px" y="0px"
	 width="75px" height="75px" viewBox="0 0 75 75" enable-background="new 0 0 75 75" xml:space="preserve">
<path fill="#D9B92E" d="M64.836,0H5.334C4.949,0,4.565,0,4.18,0c0.117,0.861,0.238,1.569,0.304,2.283
	c0.912,9.965,1.825,19.932,2.721,29.9c1.028,11.403,2.05,22.808,3.045,34.215c0.069,0.785,0.28,1.178,1.094,1.402
	c8.424,2.33,16.832,4.711,25.254,7.053c0.506,0.14,1.108,0.207,1.597,0.071c8.591-2.373,17.171-4.774,25.738-7.22
	c0.383-0.109,0.857-0.682,0.903-1.081c0.334-2.991,0.567-5.993,0.838-8.992c0.818-9.081,1.64-18.159,2.459-27.241
	c0.648-7.18,1.3-14.359,1.941-21.54C70.335,5.916,70.57,2.978,70.822,0C68.824,0,66.832,0,64.836,0z"/>
<path fill="#FED73B" d="M64.802,5.793c-0.091,1.29-0.155,2.375-0.249,3.459c-0.419,4.83-0.844,9.66-1.271,14.488
	c-0.425,4.788-0.853,9.575-1.279,14.361c-0.336,3.777-0.666,7.56-1.015,11.338c-0.415,4.49-0.82,8.981-1.305,13.465
	c-0.041,0.388-0.574,0.919-0.981,1.039c-2.997,0.893-6.019,1.699-9.033,2.526c-3.789,1.041-7.58,2.078-11.371,3.113
	c-0.157,0.043-0.322,0.053-0.652,0.104c-0.029-0.508-0.078-0.946-0.078-1.387c-0.004-20.283,0.006-40.565-0.027-60.848
	c-0.002-1.243,0.285-1.702,1.619-1.692c8.066,0.057,16.133,0.028,24.199,0.028C63.773,5.793,64.189,5.793,64.802,5.793z
	 M40.152,51.596c-0.102,0.262-0.285,0.524-0.287,0.788c-0.025,1.783-0.025,3.564,0,5.347c0.004,0.256,0.201,0.51,0.311,0.764
	c0.459-0.039,0.932-0.014,1.369-0.126c4.969-1.284,9.91-2.675,14.906-3.838c1.525-0.355,1.9-1.06,1.988-2.451
	c0.262-4.229,0.646-8.451,0.972-12.677c0.174-2.261,0.325-4.523,0.493-6.912c-4.459,0.538-8.762,1.057-13.086,1.58
	c0-4.023,0-7.854,0-11.796c4.668,0,9.24,0,13.947,0c0.229-2.611,0.445-5.125,0.67-7.699c-0.324-0.041-0.57-0.099-0.814-0.099
	c-6.537-0.004-13.073-0.007-19.609,0.003c-0.281,0-0.566,0.118-0.848,0.181c-0.105,0.43-0.299,0.859-0.303,1.289
	c-0.016,8.416-0.016,16.831,0,25.246c0.004,0.432,0.188,0.861,0.291,1.291c0,0.154,0.002,0.308,0.006,0.457
	c0.021,0.088,0.047,0.173,0.068,0.259c4.336-0.749,8.67-1.498,13.215-2.283c-0.101,1.901-0.248,3.704-0.26,5.505
	c-0.005,0.909-0.367,1.223-1.199,1.432c-3.611,0.912-7.215,1.875-10.806,2.875C40.786,50.838,40.49,51.298,40.152,51.596z"/>
<path fill="#EBEAE7" d="M28.939,14.558c1.832,0.018,3.664,0.037,5.496,0.055c0.134,0.108,0.269,0.216,0.402,0.325
	c0.037,0.333,0.107,0.667,0.107,1c0.004,13.919,0.004,27.839,0.002,41.759c0,0.291-0.035,0.583-0.063,1.033
	c-2.392-0.668-4.706-1.318-7.021-1.961c-3.762-1.041-7.521-2.094-11.29-3.104c-0.739-0.197-1.019-0.525-0.998-1.313
	c0.055-2.155,0.018-4.314,0.018-6.715c4.386,1.178,8.613,2.313,12.842,3.449c0.154-0.386,0.432-0.77,0.439-1.156
	c0.044-2.156,0.019-4.314,0.021-6.473C28.908,32.492,28.924,23.525,28.939,14.558z"/>
<path fill="#ECEFFA" d="M28.939,14.558c-0.016,8.967-0.031,17.934-0.045,26.902c-0.003,2.157,0.022,4.315-0.021,6.472
	c-0.008,0.389-0.285,0.771-0.439,1.157c0.002-11.012-0.001-22.024,0.029-33.036C28.463,15.555,28.773,15.056,28.939,14.558z"/>
<path fill="#ECEFFA" d="M34.838,14.938c-0.134-0.108-0.269-0.216-0.402-0.325C34.569,14.721,34.704,14.829,34.838,14.938z"/>
<path fill="#FEFDFB" d="M40.158,42.943c-0.004-0.15-0.006-0.303-0.006-0.457c0.002-9.274,0.007-18.551,0.012-27.827
	c0.281-0.063,0.564-0.181,0.848-0.181c6.536-0.01,13.072-0.008,19.609-0.003c0.244,0,0.49,0.058,0.814,0.099
	c-0.225,2.573-0.441,5.088-0.67,7.699c-4.707,0-9.279,0-13.947,0c0,3.941,0,7.773,0,11.796c4.324-0.523,8.627-1.042,13.086-1.58
	c-0.168,2.388-0.319,4.651-0.493,6.913c-0.324,4.225-0.71,8.447-0.972,12.676c-0.088,1.395-0.463,2.096-1.988,2.451
	c-4.996,1.164-9.938,2.554-14.906,3.838c-0.438,0.113-0.91,0.087-1.369,0.126c-0.008-2.3-0.014-4.599-0.023-6.896
	c0.34-0.3,0.636-0.759,1.025-0.867c3.59-1,7.193-1.963,10.805-2.875c0.832-0.209,1.195-0.521,1.201-1.432
	c0.012-1.802,0.159-3.604,0.258-5.505c-4.545,0.785-8.879,1.534-13.213,2.283C40.205,43.115,40.18,43.03,40.158,42.943z"/>
<path fill="#FED325" d="M40.164,14.659c-0.005,9.276-0.01,18.553-0.012,27.827c-0.104-0.43-0.287-0.86-0.291-1.291
	c-0.016-8.417-0.016-16.831,0-25.247C39.865,15.519,40.059,15.089,40.164,14.659z"/>
<path fill="#FED325" d="M40.152,51.596c0.01,2.299,0.016,4.598,0.021,6.896c-0.107-0.254-0.307-0.508-0.313-0.764
	c-0.023-1.78-0.023-3.563,0-5.347C39.867,52.12,40.053,51.857,40.152,51.596z"/>
<path fill="#FED325" d="M40.158,42.943c0.021,0.087,0.047,0.172,0.068,0.258C40.205,43.115,40.18,43.03,40.158,42.943z"/>
</svg>
